ISO-10303-21;
HEADER;
FILE_DESCRIPTION(('7 face(s), 6 edge(s), 6 vertex/vertices confirmed by cade at n=128, half-extent 0.750000000000'),'2;1');
FILE_NAME('barrel_and_winding.step','2026-08-23T00:00:00',('cade'),('cade'),'cade 0.1.0','cade','');
FILE_SCHEMA(('AUTOMOTIVE_DESIGN { 1 0 10303 214 1 1 1 1 }'));
ENDSEC;
DATA;
#1=CARTESIAN_POINT('',(0.000000000000,0.000000000000,-0.340000000000));
#2=DIRECTION('',(0.000000000000,0.000000000000,1.000000000000));
#3=DIRECTION('',(0.000000000000,1.000000000000,0.000000000000));
#4=AXIS2_PLACEMENT_3D('',#1,#2,#3);
#5=CYLINDRICAL_SURFACE('',#4,0.130000000000);
#6=CARTESIAN_POINT('',(0.000000000000,0.130000000000,-0.550000000000));
#7=VERTEX_POINT('',#6);
#8=CARTESIAN_POINT('',(0.000000000000,0.000000000000,-0.550000000000));
#9=AXIS2_PLACEMENT_3D('',#8,#2,#3);
#10=CIRCLE('',#9,0.130000000000);
#11=EDGE_CURVE('',#7,#7,#10,.T.);
#12=ORIENTED_EDGE('',*,*,#11,.T.);
#13=EDGE_LOOP('',(#12));
#14=CARTESIAN_POINT('',(0.000000000000,0.130000000000,-0.130000000000));
#15=VERTEX_POINT('',#14);
#16=CARTESIAN_POINT('',(0.000000000000,0.000000000000,-0.130000000000));
#17=AXIS2_PLACEMENT_3D('',#16,#2,#3);
#18=CIRCLE('',#17,0.130000000000);
#19=EDGE_CURVE('',#15,#15,#18,.T.);
#20=ORIENTED_EDGE('',*,*,#19,.F.);
#21=EDGE_LOOP('',(#20));
#22=FACE_BOUND('',#13,.T.);
#23=FACE_BOUND('',#21,.T.);
#24=ADVANCED_FACE('',(#22,#23),#5,.T.);
#25=PLANE('',#17);
#26=CARTESIAN_POINT('',(0.000000000000,0.340000000000,-0.130000000000));
#27=VERTEX_POINT('',#26);
#28=CIRCLE('',#17,0.340000000000);
#29=EDGE_CURVE('',#27,#27,#28,.T.);
#30=ORIENTED_EDGE('',*,*,#29,.F.);
#31=EDGE_LOOP('',(#30));
#32=ORIENTED_EDGE('',*,*,#19,.T.);
#33=EDGE_LOOP('',(#32));
#34=FACE_OUTER_BOUND('',#31,.T.);
#35=FACE_BOUND('',#33,.T.);
#36=ADVANCED_FACE('',(#34,#35),#25,.F.);
#37=DIRECTION('',(0.000000000000,0.000000000000,-1.000000000000));
#38=DIRECTION('',(0.000000000000,-1.000000000000,0.000000000000));
#39=AXIS2_PLACEMENT_3D('',#8,#37,#38);
#40=PLANE('',#39);
#41=ORIENTED_EDGE('',*,*,#11,.F.);
#42=EDGE_LOOP('',(#41));
#43=FACE_OUTER_BOUND('',#42,.T.);
#44=ADVANCED_FACE('',(#43),#40,.T.);
#45=CARTESIAN_POINT('',(0.000000000000,0.000000000000,0.210000000000));
#46=AXIS2_PLACEMENT_3D('',#45,#2,#3);
#47=CYLINDRICAL_SURFACE('',#46,0.340000000000);
#48=CARTESIAN_POINT('',(0.000000000000,0.340000000000,0.550000000000));
#49=VERTEX_POINT('',#48);
#50=CARTESIAN_POINT('',(0.000000000000,0.000000000000,0.550000000000));
#51=AXIS2_PLACEMENT_3D('',#50,#2,#3);
#52=CIRCLE('',#51,0.340000000000);
#53=EDGE_CURVE('',#49,#49,#52,.T.);
#54=ORIENTED_EDGE('',*,*,#53,.F.);
#55=EDGE_LOOP('',(#54));
#56=ORIENTED_EDGE('',*,*,#29,.T.);
#57=EDGE_LOOP('',(#56));
#58=FACE_BOUND('',#55,.T.);
#59=FACE_BOUND('',#57,.T.);
#60=ADVANCED_FACE('',(#58,#59),#47,.T.);
#61=PLANE('',#51);
#62=ORIENTED_EDGE('',*,*,#53,.T.);
#63=EDGE_LOOP('',(#62));
#64=CARTESIAN_POINT('',(0.000000000000,0.280000000000,0.550000000000));
#65=VERTEX_POINT('',#64);
#66=CIRCLE('',#51,0.280000000000);
#67=EDGE_CURVE('',#65,#65,#66,.T.);
#68=ORIENTED_EDGE('',*,*,#67,.F.);
#69=EDGE_LOOP('',(#68));
#70=FACE_OUTER_BOUND('',#63,.T.);
#71=FACE_BOUND('',#69,.T.);
#72=ADVANCED_FACE('',(#70,#71),#61,.T.);
#73=CARTESIAN_POINT('',(0.000000000000,0.000000000000,0.340000000000));
#74=AXIS2_PLACEMENT_3D('',#73,#2,#3);
#75=CYLINDRICAL_SURFACE('',#74,0.280000000000);
#76=ORIENTED_EDGE('',*,*,#67,.T.);
#77=EDGE_LOOP('',(#76));
#78=CARTESIAN_POINT('',(0.000000000000,0.280000000000,0.030000000000));
#79=VERTEX_POINT('',#78);
#80=CARTESIAN_POINT('',(0.000000000000,0.000000000000,0.030000000000));
#81=AXIS2_PLACEMENT_3D('',#80,#2,#3);
#82=CIRCLE('',#81,0.280000000000);
#83=EDGE_CURVE('',#79,#79,#82,.T.);
#84=ORIENTED_EDGE('',*,*,#83,.F.);
#85=EDGE_LOOP('',(#84));
#86=FACE_BOUND('',#77,.T.);
#87=FACE_BOUND('',#85,.T.);
#88=ADVANCED_FACE('',(#86,#87),#75,.F.);
#89=AXIS2_PLACEMENT_3D('',#80,#37,#38);
#90=PLANE('',#89);
#91=ORIENTED_EDGE('',*,*,#83,.T.);
#92=EDGE_LOOP('',(#91));
#93=FACE_OUTER_BOUND('',#92,.T.);
#94=ADVANCED_FACE('',(#93),#90,.F.);
#95=CLOSED_SHELL('',(#24,#36,#44,#60,#72,#88,#94));
#96=MANIFOLD_SOLID_BREP('barrel_and_winding',#95);
#97=APPLICATION_CONTEXT('core data for automotive mechanical design processes');
#98=APPLICATION_PROTOCOL_DEFINITION('international standard','automotive_design',2000,#97);
#99=PRODUCT_CONTEXT('',#97,'mechanical');
#100=PRODUCT('barrel_and_winding','barrel_and_winding','',(#99));
#101=PRODUCT_DEFINITION_FORMATION('','',#100);
#102=PRODUCT_DEFINITION_CONTEXT('part definition',#97,'design');
#103=PRODUCT_DEFINITION('','',#101,#102);
#104=PRODUCT_DEFINITION_SHAPE('','',#103);
#105=(LENGTH_UNIT()NAMED_UNIT(*)SI_UNIT(.MILLI.,.METRE.));
#106=(NAMED_UNIT(*)PLANE_ANGLE_UNIT()SI_UNIT($,.RADIAN.));
#107=(NAMED_UNIT(*)SI_UNIT($,.STERADIAN.)SOLID_ANGLE_UNIT());
#108=UNCERTAINTY_MEASURE_WITH_UNIT(LENGTH_MEASURE(1.E-07),#105,'distance_accuracy_value','');
#109=(GEOMETRIC_REPRESENTATION_CONTEXT(3)GLOBAL_UNCERTAINTY_ASSIGNED_CONTEXT((#108))GLOBAL_UNIT_ASSIGNED_CONTEXT((#105,#106,#107))REPRESENTATION_CONTEXT('',''));
#110=ADVANCED_BREP_SHAPE_REPRESENTATION('',(#96),#109);
#111=SHAPE_DEFINITION_REPRESENTATION(#104,#110);
ENDSEC;
END-ISO-10303-21;
