ISO-10303-21;
HEADER;
FILE_DESCRIPTION(('3 face(s), 2 edge(s), 2 vertex/vertices confirmed by cade at n=128, half-extent 24.000000000000'),'2;1');
FILE_NAME('case.step','2026-08-23T00:00:00',('cade'),('cade'),'cade 0.1.0','cade','');
FILE_SCHEMA(('AUTOMOTIVE_DESIGN { 1 0 10303 214 1 1 1 1 }'));
ENDSEC;
DATA;
#1=CARTESIAN_POINT('',(0.000000000000,0.000000000000,0.000000000000));
#2=DIRECTION('',(0.000000000000,0.000000000000,1.000000000000));
#3=DIRECTION('',(0.000000000000,1.000000000000,0.000000000000));
#4=AXIS2_PLACEMENT_3D('',#1,#2,#3);
#5=CYLINDRICAL_SURFACE('',#4,17.150000000000);
#6=CARTESIAN_POINT('',(0.000000000000,17.150000000000,0.500000000000));
#7=VERTEX_POINT('',#6);
#8=CARTESIAN_POINT('',(0.000000000000,0.000000000000,0.500000000000));
#9=AXIS2_PLACEMENT_3D('',#8,#2,#3);
#10=CIRCLE('',#9,17.150000000000);
#11=EDGE_CURVE('',#7,#7,#10,.T.);
#12=ORIENTED_EDGE('',*,*,#11,.F.);
#13=EDGE_LOOP('',(#12));
#14=CARTESIAN_POINT('',(0.000000000000,17.150000000000,-0.500000000000));
#15=VERTEX_POINT('',#14);
#16=CARTESIAN_POINT('',(0.000000000000,0.000000000000,-0.500000000000));
#17=AXIS2_PLACEMENT_3D('',#16,#2,#3);
#18=CIRCLE('',#17,17.150000000000);
#19=EDGE_CURVE('',#15,#15,#18,.T.);
#20=ORIENTED_EDGE('',*,*,#19,.T.);
#21=EDGE_LOOP('',(#20));
#22=FACE_BOUND('',#13,.T.);
#23=FACE_BOUND('',#21,.T.);
#24=ADVANCED_FACE('',(#22,#23),#5,.T.);
#25=PLANE('',#9);
#26=ORIENTED_EDGE('',*,*,#11,.T.);
#27=EDGE_LOOP('',(#26));
#28=FACE_OUTER_BOUND('',#27,.T.);
#29=ADVANCED_FACE('',(#28),#25,.T.);
#30=DIRECTION('',(0.000000000000,0.000000000000,-1.000000000000));
#31=DIRECTION('',(0.000000000000,-1.000000000000,0.000000000000));
#32=AXIS2_PLACEMENT_3D('',#16,#30,#31);
#33=PLANE('',#32);
#34=ORIENTED_EDGE('',*,*,#19,.F.);
#35=EDGE_LOOP('',(#34));
#36=FACE_OUTER_BOUND('',#35,.T.);
#37=ADVANCED_FACE('',(#36),#33,.T.);
#38=CLOSED_SHELL('',(#24,#29,#37));
#39=MANIFOLD_SOLID_BREP('case',#38);
#40=APPLICATION_CONTEXT('core data for automotive mechanical design processes');
#41=APPLICATION_PROTOCOL_DEFINITION('international standard','automotive_design',2000,#40);
#42=PRODUCT_CONTEXT('',#40,'mechanical');
#43=PRODUCT('case','case','',(#42));
#44=PRODUCT_DEFINITION_FORMATION('','',#43);
#45=PRODUCT_DEFINITION_CONTEXT('part definition',#40,'design');
#46=PRODUCT_DEFINITION('','',#44,#45);
#47=PRODUCT_DEFINITION_SHAPE('','',#46);
#48=(LENGTH_UNIT()NAMED_UNIT(*)SI_UNIT(.MILLI.,.METRE.));
#49=(NAMED_UNIT(*)PLANE_ANGLE_UNIT()SI_UNIT($,.RADIAN.));
#50=(NAMED_UNIT(*)SI_UNIT($,.STERADIAN.)SOLID_ANGLE_UNIT());
#51=UNCERTAINTY_MEASURE_WITH_UNIT(LENGTH_MEASURE(1.E-07),#48,'distance_accuracy_value','');
#52=(GEOMETRIC_REPRESENTATION_CONTEXT(3)GLOBAL_UNCERTAINTY_ASSIGNED_CONTEXT((#51))GLOBAL_UNIT_ASSIGNED_CONTEXT((#48,#49,#50))REPRESENTATION_CONTEXT('',''));
#53=ADVANCED_BREP_SHAPE_REPRESENTATION('',(#39),#52);
#54=SHAPE_DEFINITION_REPRESENTATION(#47,#53);
ENDSEC;
END-ISO-10303-21;
