ISO-10303-21;
HEADER;
FILE_DESCRIPTION(('8 face(s), 36 edge(s), 32 vertex/vertices confirmed by cade at n=128, half-extent 20.000000000000'),'2;1');
FILE_NAME('case.step','2026-08-23T00:00:00',('cade'),('cade'),'cade 0.1.0','cade','');
FILE_SCHEMA(('AUTOMOTIVE_DESIGN { 1 0 10303 214 1 1 1 1 }'));
ENDSEC;
DATA;
#1=CARTESIAN_POINT('',(0.000000000000,0.000000000000,0.000000000000));
#2=DIRECTION('',(0.000000000000,0.000000000000,1.000000000000));
#3=DIRECTION('',(0.000000000000,1.000000000000,0.000000000000));
#4=AXIS2_PLACEMENT_3D('',#1,#2,#3);
#5=CYLINDRICAL_SURFACE('',#4,1.030000000000);
#6=CARTESIAN_POINT('',(-0.246779253585,1.000000000000,-0.200000000000));
#7=VERTEX_POINT('',#6);
#8=CARTESIAN_POINT('',(-0.246779253585,-1.000000000000,-0.200000000000));
#9=VERTEX_POINT('',#8);
#10=CARTESIAN_POINT('',(0.000000000000,0.000000000000,-0.200000000000));
#11=AXIS2_PLACEMENT_3D('',#10,#2,#3);
#12=CIRCLE('',#11,1.030000000000);
#13=EDGE_CURVE('',#7,#9,#12,.T.);
#14=ORIENTED_EDGE('',*,*,#13,.F.);
#15=CARTESIAN_POINT('',(0.246779253585,1.000000000000,-0.200000000000));
#16=VERTEX_POINT('',#15);
#17=CIRCLE('',#11,1.030000000000);
#18=EDGE_CURVE('',#16,#7,#17,.T.);
#19=ORIENTED_EDGE('',*,*,#18,.F.);
#20=CARTESIAN_POINT('',(0.246779253585,-1.000000000000,-0.200000000000));
#21=VERTEX_POINT('',#20);
#22=CIRCLE('',#11,1.030000000000);
#23=EDGE_CURVE('',#21,#16,#22,.T.);
#24=ORIENTED_EDGE('',*,*,#23,.F.);
#25=CIRCLE('',#11,1.030000000000);
#26=EDGE_CURVE('',#9,#21,#25,.T.);
#27=ORIENTED_EDGE('',*,*,#26,.F.);
#28=EDGE_LOOP('',(#14,#19,#24,#27));
#29=CARTESIAN_POINT('',(-0.246779253585,1.000000000000,0.200000000000));
#30=VERTEX_POINT('',#29);
#31=CARTESIAN_POINT('',(-0.246779253585,-1.000000000000,0.200000000000));
#32=VERTEX_POINT('',#31);
#33=CARTESIAN_POINT('',(0.000000000000,0.000000000000,0.200000000000));
#34=AXIS2_PLACEMENT_3D('',#33,#2,#3);
#35=CIRCLE('',#34,1.030000000000);
#36=EDGE_CURVE('',#30,#32,#35,.T.);
#37=ORIENTED_EDGE('',*,*,#36,.T.);
#38=CARTESIAN_POINT('',(0.246779253585,-1.000000000000,0.200000000000));
#39=VERTEX_POINT('',#38);
#40=CIRCLE('',#34,1.030000000000);
#41=EDGE_CURVE('',#32,#39,#40,.T.);
#42=ORIENTED_EDGE('',*,*,#41,.T.);
#43=CARTESIAN_POINT('',(0.246779253585,1.000000000000,0.200000000000));
#44=VERTEX_POINT('',#43);
#45=CIRCLE('',#34,1.030000000000);
#46=EDGE_CURVE('',#39,#44,#45,.T.);
#47=ORIENTED_EDGE('',*,*,#46,.T.);
#48=CIRCLE('',#34,1.030000000000);
#49=EDGE_CURVE('',#44,#30,#48,.T.);
#50=ORIENTED_EDGE('',*,*,#49,.T.);
#51=EDGE_LOOP('',(#37,#42,#47,#50));
#52=FACE_BOUND('',#28,.T.);
#53=FACE_BOUND('',#51,.T.);
#54=ADVANCED_FACE('',(#52,#53),#5,.F.);
#55=CYLINDRICAL_SURFACE('',#4,13.000000000000);
#56=CARTESIAN_POINT('',(-12.961481396816,1.000000000000,0.200000000000));
#57=VERTEX_POINT('',#56);
#58=CARTESIAN_POINT('',(-12.961481396816,-1.000000000000,0.200000000000));
#59=VERTEX_POINT('',#58);
#60=CIRCLE('',#34,13.000000000000);
#61=EDGE_CURVE('',#57,#59,#60,.T.);
#62=ORIENTED_EDGE('',*,*,#61,.F.);
#63=CARTESIAN_POINT('',(8.850000000000,9.522473418183,0.200000000000));
#64=VERTEX_POINT('',#63);
#65=CIRCLE('',#34,13.000000000000);
#66=EDGE_CURVE('',#64,#57,#65,.T.);
#67=ORIENTED_EDGE('',*,*,#66,.F.);
#68=CARTESIAN_POINT('',(12.150000000000,4.623580863357,0.200000000000));
#69=VERTEX_POINT('',#68);
#70=CIRCLE('',#34,13.000000000000);
#71=EDGE_CURVE('',#69,#64,#70,.T.);
#72=ORIENTED_EDGE('',*,*,#71,.F.);
#73=CARTESIAN_POINT('',(12.961481396816,1.000000000000,0.200000000000));
#74=VERTEX_POINT('',#73);
#75=CIRCLE('',#34,13.000000000000);
#76=EDGE_CURVE('',#74,#69,#75,.T.);
#77=ORIENTED_EDGE('',*,*,#76,.F.);
#78=CARTESIAN_POINT('',(12.961481396816,-1.000000000000,0.200000000000));
#79=VERTEX_POINT('',#78);
#80=CIRCLE('',#34,13.000000000000);
#81=EDGE_CURVE('',#79,#74,#80,.T.);
#82=ORIENTED_EDGE('',*,*,#81,.F.);
#83=CARTESIAN_POINT('',(12.150000000000,-4.623580863357,0.200000000000));
#84=VERTEX_POINT('',#83);
#85=CIRCLE('',#34,13.000000000000);
#86=EDGE_CURVE('',#84,#79,#85,.T.);
#87=ORIENTED_EDGE('',*,*,#86,.F.);
#88=CARTESIAN_POINT('',(8.850000000000,-9.522473418183,0.200000000000));
#89=VERTEX_POINT('',#88);
#90=CIRCLE('',#34,13.000000000000);
#91=EDGE_CURVE('',#89,#84,#90,.T.);
#92=ORIENTED_EDGE('',*,*,#91,.F.);
#93=CIRCLE('',#34,13.000000000000);
#94=EDGE_CURVE('',#59,#89,#93,.T.);
#95=ORIENTED_EDGE('',*,*,#94,.F.);
#96=EDGE_LOOP('',(#62,#67,#72,#77,#82,#87,#92,#95));
#97=CARTESIAN_POINT('',(-12.961481396816,1.000000000000,-0.200000000000));
#98=VERTEX_POINT('',#97);
#99=CARTESIAN_POINT('',(-12.961481396816,-1.000000000000,-0.200000000000));
#100=VERTEX_POINT('',#99);
#101=CIRCLE('',#11,13.000000000000);
#102=EDGE_CURVE('',#98,#100,#101,.T.);
#103=ORIENTED_EDGE('',*,*,#102,.T.);
#104=CARTESIAN_POINT('',(8.850000000000,-9.522473418183,-0.200000000000));
#105=VERTEX_POINT('',#104);
#106=CIRCLE('',#11,13.000000000000);
#107=EDGE_CURVE('',#100,#105,#106,.T.);
#108=ORIENTED_EDGE('',*,*,#107,.T.);
#109=CARTESIAN_POINT('',(12.150000000000,-4.623580863357,-0.200000000000));
#110=VERTEX_POINT('',#109);
#111=CIRCLE('',#11,13.000000000000);
#112=EDGE_CURVE('',#105,#110,#111,.T.);
#113=ORIENTED_EDGE('',*,*,#112,.T.);
#114=CARTESIAN_POINT('',(12.961481396816,-1.000000000000,-0.200000000000));
#115=VERTEX_POINT('',#114);
#116=CIRCLE('',#11,13.000000000000);
#117=EDGE_CURVE('',#110,#115,#116,.T.);
#118=ORIENTED_EDGE('',*,*,#117,.T.);
#119=CARTESIAN_POINT('',(12.961481396816,1.000000000000,-0.200000000000));
#120=VERTEX_POINT('',#119);
#121=CIRCLE('',#11,13.000000000000);
#122=EDGE_CURVE('',#115,#120,#121,.T.);
#123=ORIENTED_EDGE('',*,*,#122,.T.);
#124=CARTESIAN_POINT('',(12.150000000000,4.623580863357,-0.200000000000));
#125=VERTEX_POINT('',#124);
#126=CIRCLE('',#11,13.000000000000);
#127=EDGE_CURVE('',#120,#125,#126,.T.);
#128=ORIENTED_EDGE('',*,*,#127,.T.);
#129=CARTESIAN_POINT('',(8.850000000000,9.522473418183,-0.200000000000));
#130=VERTEX_POINT('',#129);
#131=CIRCLE('',#11,13.000000000000);
#132=EDGE_CURVE('',#125,#130,#131,.T.);
#133=ORIENTED_EDGE('',*,*,#132,.T.);
#134=CIRCLE('',#11,13.000000000000);
#135=EDGE_CURVE('',#130,#98,#134,.T.);
#136=ORIENTED_EDGE('',*,*,#135,.T.);
#137=EDGE_LOOP('',(#103,#108,#113,#118,#123,#128,#133,#136));
#138=FACE_BOUND('',#96,.T.);
#139=FACE_BOUND('',#137,.T.);
#140=ADVANCED_FACE('',(#138,#139),#55,.T.);
#141=PLANE('',#34);
#142=ORIENTED_EDGE('',*,*,#36,.F.);
#143=ORIENTED_EDGE('',*,*,#49,.F.);
#144=ORIENTED_EDGE('',*,*,#46,.F.);
#145=ORIENTED_EDGE('',*,*,#41,.F.);
#146=EDGE_LOOP('',(#142,#143,#144,#145));
#147=CARTESIAN_POINT('',(12.150000000000,-1.000000000000,0.200000000000));
#148=VERTEX_POINT('',#147);
#149=CARTESIAN_POINT('',(12.150000000000,1.000000000000,0.200000000000));
#150=VERTEX_POINT('',#149);
#151=CARTESIAN_POINT('',(12.150000000000,0.000000000000,0.200000000000));
#152=VECTOR('',#3,1.0);
#153=LINE('',#151,#152);
#154=EDGE_CURVE('',#148,#150,#153,.T.);
#155=ORIENTED_EDGE('',*,*,#154,.F.);
#156=CARTESIAN_POINT('',(8.850000000000,-1.000000000000,0.200000000000));
#157=VERTEX_POINT('',#156);
#158=CARTESIAN_POINT('',(0.000000000000,-1.000000000000,0.200000000000));
#159=DIRECTION('',(1.000000000000,0.000000000000,0.000000000000));
#160=VECTOR('',#159,1.0);
#161=LINE('',#158,#160);
#162=EDGE_CURVE('',#157,#148,#161,.T.);
#163=ORIENTED_EDGE('',*,*,#162,.F.);
#164=CARTESIAN_POINT('',(8.850000000000,1.000000000000,0.200000000000));
#165=VERTEX_POINT('',#164);
#166=CARTESIAN_POINT('',(8.850000000000,0.000000000000,0.200000000000));
#167=DIRECTION('',(0.000000000000,-1.000000000000,0.000000000000));
#168=VECTOR('',#167,1.0);
#169=LINE('',#166,#168);
#170=EDGE_CURVE('',#165,#157,#169,.T.);
#171=ORIENTED_EDGE('',*,*,#170,.F.);
#172=CARTESIAN_POINT('',(0.000000000000,1.000000000000,0.200000000000));
#173=DIRECTION('',(-1.000000000000,0.000000000000,0.000000000000));
#174=VECTOR('',#173,1.0);
#175=LINE('',#172,#174);
#176=EDGE_CURVE('',#150,#165,#175,.T.);
#177=ORIENTED_EDGE('',*,*,#176,.F.);
#178=EDGE_LOOP('',(#155,#163,#171,#177));
#179=ORIENTED_EDGE('',*,*,#61,.T.);
#180=ORIENTED_EDGE('',*,*,#94,.T.);
#181=ORIENTED_EDGE('',*,*,#91,.T.);
#182=ORIENTED_EDGE('',*,*,#86,.T.);
#183=ORIENTED_EDGE('',*,*,#81,.T.);
#184=ORIENTED_EDGE('',*,*,#76,.T.);
#185=ORIENTED_EDGE('',*,*,#71,.T.);
#186=ORIENTED_EDGE('',*,*,#66,.T.);
#187=EDGE_LOOP('',(#179,#180,#181,#182,#183,#184,#185,#186));
#188=FACE_BOUND('',#146,.T.);
#189=FACE_BOUND('',#178,.T.);
#190=FACE_OUTER_BOUND('',#187,.T.);
#191=ADVANCED_FACE('',(#188,#189,#190),#141,.T.);
#192=DIRECTION('',(0.000000000000,0.000000000000,-1.000000000000));
#193=AXIS2_PLACEMENT_3D('',#10,#192,#167);
#194=PLANE('',#193);
#195=CARTESIAN_POINT('',(12.150000000000,1.000000000000,-0.200000000000));
#196=VERTEX_POINT('',#195);
#197=CARTESIAN_POINT('',(12.150000000000,-1.000000000000,-0.200000000000));
#198=VERTEX_POINT('',#197);
#199=CARTESIAN_POINT('',(12.150000000000,0.000000000000,-0.200000000000));
#200=LINE('',#199,#168);
#201=EDGE_CURVE('',#196,#198,#200,.T.);
#202=ORIENTED_EDGE('',*,*,#201,.F.);
#203=CARTESIAN_POINT('',(8.850000000000,1.000000000000,-0.200000000000));
#204=VERTEX_POINT('',#203);
#205=CARTESIAN_POINT('',(0.000000000000,1.000000000000,-0.200000000000));
#206=LINE('',#205,#160);
#207=EDGE_CURVE('',#204,#196,#206,.T.);
#208=ORIENTED_EDGE('',*,*,#207,.F.);
#209=CARTESIAN_POINT('',(8.850000000000,-1.000000000000,-0.200000000000));
#210=VERTEX_POINT('',#209);
#211=CARTESIAN_POINT('',(8.850000000000,0.000000000000,-0.200000000000));
#212=LINE('',#211,#152);
#213=EDGE_CURVE('',#210,#204,#212,.T.);
#214=ORIENTED_EDGE('',*,*,#213,.F.);
#215=CARTESIAN_POINT('',(0.000000000000,-1.000000000000,-0.200000000000));
#216=LINE('',#215,#174);
#217=EDGE_CURVE('',#198,#210,#216,.T.);
#218=ORIENTED_EDGE('',*,*,#217,.F.);
#219=EDGE_LOOP('',(#202,#208,#214,#218));
#220=ORIENTED_EDGE('',*,*,#13,.T.);
#221=ORIENTED_EDGE('',*,*,#26,.T.);
#222=ORIENTED_EDGE('',*,*,#23,.T.);
#223=ORIENTED_EDGE('',*,*,#18,.T.);
#224=EDGE_LOOP('',(#220,#221,#222,#223));
#225=ORIENTED_EDGE('',*,*,#102,.F.);
#226=ORIENTED_EDGE('',*,*,#135,.F.);
#227=ORIENTED_EDGE('',*,*,#132,.F.);
#228=ORIENTED_EDGE('',*,*,#127,.F.);
#229=ORIENTED_EDGE('',*,*,#122,.F.);
#230=ORIENTED_EDGE('',*,*,#117,.F.);
#231=ORIENTED_EDGE('',*,*,#112,.F.);
#232=ORIENTED_EDGE('',*,*,#107,.F.);
#233=EDGE_LOOP('',(#225,#226,#227,#228,#229,#230,#231,#232));
#234=FACE_BOUND('',#219,.T.);
#235=FACE_BOUND('',#224,.T.);
#236=FACE_OUTER_BOUND('',#233,.T.);
#237=ADVANCED_FACE('',(#234,#235,#236),#194,.T.);
#238=CARTESIAN_POINT('',(12.150000000000,0.000000000000,0.000000000000));
#239=AXIS2_PLACEMENT_3D('',#238,#159,#2);
#240=PLANE('',#239);
#241=ORIENTED_EDGE('',*,*,#154,.T.);
#242=CARTESIAN_POINT('',(12.150000000000,1.000000000000,0.000000000000));
#243=VECTOR('',#2,1.0);
#244=LINE('',#242,#243);
#245=EDGE_CURVE('',#196,#150,#244,.T.);
#246=ORIENTED_EDGE('',*,*,#245,.F.);
#247=ORIENTED_EDGE('',*,*,#201,.T.);
#248=CARTESIAN_POINT('',(12.150000000000,-1.000000000000,0.000000000000));
#249=VECTOR('',#192,1.0);
#250=LINE('',#248,#249);
#251=EDGE_CURVE('',#148,#198,#250,.T.);
#252=ORIENTED_EDGE('',*,*,#251,.F.);
#253=EDGE_LOOP('',(#241,#246,#247,#252));
#254=FACE_OUTER_BOUND('',#253,.T.);
#255=ADVANCED_FACE('',(#254),#240,.F.);
#256=CARTESIAN_POINT('',(8.850000000000,0.000000000000,0.000000000000));
#257=AXIS2_PLACEMENT_3D('',#256,#173,#192);
#258=PLANE('',#257);
#259=ORIENTED_EDGE('',*,*,#170,.T.);
#260=CARTESIAN_POINT('',(8.850000000000,-1.000000000000,0.000000000000));
#261=LINE('',#260,#243);
#262=EDGE_CURVE('',#210,#157,#261,.T.);
#263=ORIENTED_EDGE('',*,*,#262,.F.);
#264=ORIENTED_EDGE('',*,*,#213,.T.);
#265=CARTESIAN_POINT('',(8.850000000000,1.000000000000,0.000000000000));
#266=LINE('',#265,#249);
#267=EDGE_CURVE('',#165,#204,#266,.T.);
#268=ORIENTED_EDGE('',*,*,#267,.F.);
#269=EDGE_LOOP('',(#259,#263,#264,#268));
#270=FACE_OUTER_BOUND('',#269,.T.);
#271=ADVANCED_FACE('',(#270),#258,.F.);
#272=CARTESIAN_POINT('',(0.000000000000,1.000000000000,0.000000000000));
#273=AXIS2_PLACEMENT_3D('',#272,#3,#192);
#274=PLANE('',#273);
#275=ORIENTED_EDGE('',*,*,#176,.T.);
#276=ORIENTED_EDGE('',*,*,#267,.T.);
#277=ORIENTED_EDGE('',*,*,#207,.T.);
#278=ORIENTED_EDGE('',*,*,#245,.T.);
#279=EDGE_LOOP('',(#275,#276,#277,#278));
#280=FACE_OUTER_BOUND('',#279,.T.);
#281=ADVANCED_FACE('',(#280),#274,.F.);
#282=CARTESIAN_POINT('',(0.000000000000,-1.000000000000,0.000000000000));
#283=AXIS2_PLACEMENT_3D('',#282,#167,#2);
#284=PLANE('',#283);
#285=ORIENTED_EDGE('',*,*,#162,.T.);
#286=ORIENTED_EDGE('',*,*,#251,.T.);
#287=ORIENTED_EDGE('',*,*,#217,.T.);
#288=ORIENTED_EDGE('',*,*,#262,.T.);
#289=EDGE_LOOP('',(#285,#286,#287,#288));
#290=FACE_OUTER_BOUND('',#289,.T.);
#291=ADVANCED_FACE('',(#290),#284,.F.);
#292=CLOSED_SHELL('',(#54,#140,#191,#237,#255,#271,#281,#291));
#293=MANIFOLD_SOLID_BREP('case',#292);
#294=APPLICATION_CONTEXT('core data for automotive mechanical design processes');
#295=APPLICATION_PROTOCOL_DEFINITION('international standard','automotive_design',2000,#294);
#296=PRODUCT_CONTEXT('',#294,'mechanical');
#297=PRODUCT('case','case','',(#296));
#298=PRODUCT_DEFINITION_FORMATION('','',#297);
#299=PRODUCT_DEFINITION_CONTEXT('part definition',#294,'design');
#300=PRODUCT_DEFINITION('','',#298,#299);
#301=PRODUCT_DEFINITION_SHAPE('','',#300);
#302=(LENGTH_UNIT()NAMED_UNIT(*)SI_UNIT(.MILLI.,.METRE.));
#303=(NAMED_UNIT(*)PLANE_ANGLE_UNIT()SI_UNIT($,.RADIAN.));
#304=(NAMED_UNIT(*)SI_UNIT($,.STERADIAN.)SOLID_ANGLE_UNIT());
#305=UNCERTAINTY_MEASURE_WITH_UNIT(LENGTH_MEASURE(1.E-07),#302,'distance_accuracy_value','');
#306=(GEOMETRIC_REPRESENTATION_CONTEXT(3)GLOBAL_UNCERTAINTY_ASSIGNED_CONTEXT((#305))GLOBAL_UNIT_ASSIGNED_CONTEXT((#302,#303,#304))REPRESENTATION_CONTEXT('',''));
#307=ADVANCED_BREP_SHAPE_REPRESENTATION('',(#293),#306);
#308=SHAPE_DEFINITION_REPRESENTATION(#301,#307);
ENDSEC;
END-ISO-10303-21;
