ISO-10303-21;
HEADER;
FILE_DESCRIPTION(('4 face(s), 4 edge(s), 4 vertex/vertices confirmed by cade at n=128, half-extent 0.625000000000'),'2;1');
FILE_NAME('barrel_and_winding.step','2026-08-23T00:00:00',('cade'),('cade'),'cade 0.1.0','cade','');
FILE_SCHEMA(('AUTOMOTIVE_DESIGN { 1 0 10303 214 1 1 1 1 }'));
ENDSEC;
DATA;
#1=CARTESIAN_POINT('',(0.000000000000,0.000000000000,0.000000000000));
#2=DIRECTION('',(0.000000000000,0.000000000000,1.000000000000));
#3=DIRECTION('',(0.000000000000,1.000000000000,0.000000000000));
#4=AXIS2_PLACEMENT_3D('',#1,#2,#3);
#5=CYLINDRICAL_SURFACE('',#4,0.500000000000);
#6=CARTESIAN_POINT('',(0.000000000000,0.500000000000,-0.150000000000));
#7=VERTEX_POINT('',#6);
#8=CARTESIAN_POINT('',(0.000000000000,0.000000000000,-0.150000000000));
#9=AXIS2_PLACEMENT_3D('',#8,#2,#3);
#10=CIRCLE('',#9,0.500000000000);
#11=EDGE_CURVE('',#7,#7,#10,.T.);
#12=ORIENTED_EDGE('',*,*,#11,.T.);
#13=EDGE_LOOP('',(#12));
#14=CARTESIAN_POINT('',(0.000000000000,0.500000000000,0.150000000000));
#15=VERTEX_POINT('',#14);
#16=CARTESIAN_POINT('',(0.000000000000,0.000000000000,0.150000000000));
#17=AXIS2_PLACEMENT_3D('',#16,#2,#3);
#18=CIRCLE('',#17,0.500000000000);
#19=EDGE_CURVE('',#15,#15,#18,.T.);
#20=ORIENTED_EDGE('',*,*,#19,.F.);
#21=EDGE_LOOP('',(#20));
#22=FACE_BOUND('',#13,.T.);
#23=FACE_BOUND('',#21,.T.);
#24=ADVANCED_FACE('',(#22,#23),#5,.T.);
#25=PLANE('',#17);
#26=CARTESIAN_POINT('',(0.000000000000,0.140000000000,0.150000000000));
#27=VERTEX_POINT('',#26);
#28=CIRCLE('',#17,0.140000000000);
#29=EDGE_CURVE('',#27,#27,#28,.T.);
#30=ORIENTED_EDGE('',*,*,#29,.F.);
#31=EDGE_LOOP('',(#30));
#32=ORIENTED_EDGE('',*,*,#19,.T.);
#33=EDGE_LOOP('',(#32));
#34=FACE_BOUND('',#31,.T.);
#35=FACE_OUTER_BOUND('',#33,.T.);
#36=ADVANCED_FACE('',(#34,#35),#25,.T.);
#37=DIRECTION('',(0.000000000000,0.000000000000,-1.000000000000));
#38=DIRECTION('',(0.000000000000,-1.000000000000,0.000000000000));
#39=AXIS2_PLACEMENT_3D('',#8,#37,#38);
#40=PLANE('',#39);
#41=ORIENTED_EDGE('',*,*,#11,.F.);
#42=EDGE_LOOP('',(#41));
#43=CARTESIAN_POINT('',(0.000000000000,0.140000000000,-0.150000000000));
#44=VERTEX_POINT('',#43);
#45=CIRCLE('',#9,0.140000000000);
#46=EDGE_CURVE('',#44,#44,#45,.T.);
#47=ORIENTED_EDGE('',*,*,#46,.T.);
#48=EDGE_LOOP('',(#47));
#49=FACE_OUTER_BOUND('',#42,.T.);
#50=FACE_BOUND('',#48,.T.);
#51=ADVANCED_FACE('',(#49,#50),#40,.T.);
#52=CYLINDRICAL_SURFACE('',#4,0.140000000000);
#53=ORIENTED_EDGE('',*,*,#29,.T.);
#54=EDGE_LOOP('',(#53));
#55=ORIENTED_EDGE('',*,*,#46,.F.);
#56=EDGE_LOOP('',(#55));
#57=FACE_BOUND('',#54,.T.);
#58=FACE_BOUND('',#56,.T.);
#59=ADVANCED_FACE('',(#57,#58),#52,.F.);
#60=CLOSED_SHELL('',(#24,#36,#51,#59));
#61=MANIFOLD_SOLID_BREP('barrel_and_winding',#60);
#62=APPLICATION_CONTEXT('core data for automotive mechanical design processes');
#63=APPLICATION_PROTOCOL_DEFINITION('international standard','automotive_design',2000,#62);
#64=PRODUCT_CONTEXT('',#62,'mechanical');
#65=PRODUCT('barrel_and_winding','barrel_and_winding','',(#64));
#66=PRODUCT_DEFINITION_FORMATION('','',#65);
#67=PRODUCT_DEFINITION_CONTEXT('part definition',#62,'design');
#68=PRODUCT_DEFINITION('','',#66,#67);
#69=PRODUCT_DEFINITION_SHAPE('','',#68);
#70=(LENGTH_UNIT()NAMED_UNIT(*)SI_UNIT(.MILLI.,.METRE.));
#71=(NAMED_UNIT(*)PLANE_ANGLE_UNIT()SI_UNIT($,.RADIAN.));
#72=(NAMED_UNIT(*)SI_UNIT($,.STERADIAN.)SOLID_ANGLE_UNIT());
#73=UNCERTAINTY_MEASURE_WITH_UNIT(LENGTH_MEASURE(1.E-07),#70,'distance_accuracy_value','');
#74=(GEOMETRIC_REPRESENTATION_CONTEXT(3)GLOBAL_UNCERTAINTY_ASSIGNED_CONTEXT((#73))GLOBAL_UNIT_ASSIGNED_CONTEXT((#70,#71,#72))REPRESENTATION_CONTEXT('',''));
#75=ADVANCED_BREP_SHAPE_REPRESENTATION('',(#61),#74);
#76=SHAPE_DEFINITION_REPRESENTATION(#69,#75);
ENDSEC;
END-ISO-10303-21;
