ISO-10303-21;
HEADER;
FILE_DESCRIPTION(('30 face(s), 288 edge(s), 240 vertex/vertices confirmed by cade at n=128, half-extent 1.250000000000'),'2;1');
FILE_NAME('dial_side.step','2026-08-23T00:00:00',('cade'),('cade'),'cade 0.1.0','cade','');
FILE_SCHEMA(('AUTOMOTIVE_DESIGN { 1 0 10303 214 1 1 1 1 }'));
ENDSEC;
DATA;
#1=CARTESIAN_POINT('',(0.000000000000,0.000000000000,0.000000000000));
#2=DIRECTION('',(0.000000000000,0.000000000000,1.000000000000));
#3=DIRECTION('',(0.000000000000,1.000000000000,0.000000000000));
#4=AXIS2_PLACEMENT_3D('',#1,#2,#3);
#5=CYLINDRICAL_SURFACE('',#4,0.700000000000);
#6=CARTESIAN_POINT('',(-0.029292995704,-0.699386817436,0.110000000000));
#7=VERTEX_POINT('',#6);
#8=CARTESIAN_POINT('',(0.029292995704,-0.699386817436,0.110000000000));
#9=VERTEX_POINT('',#8);
#10=CARTESIAN_POINT('',(0.000000000000,0.000000000000,0.110000000000));
#11=AXIS2_PLACEMENT_3D('',#10,#2,#3);
#12=CIRCLE('',#11,0.700000000000);
#13=EDGE_CURVE('',#7,#9,#12,.T.);
#14=ORIENTED_EDGE('',*,*,#13,.F.);
#15=CARTESIAN_POINT('',(-0.029292995704,-0.699386817436,-0.110000000000));
#16=VERTEX_POINT('',#15);
#17=CARTESIAN_POINT('',(-0.029292995704,-0.699386817436,0.000000000000));
#18=VECTOR('',#2,1.0);
#19=LINE('',#17,#18);
#20=EDGE_CURVE('',#16,#7,#19,.T.);
#21=ORIENTED_EDGE('',*,*,#20,.F.);
#22=CARTESIAN_POINT('',(0.029292995704,-0.699386817436,-0.110000000000));
#23=VERTEX_POINT('',#22);
#24=CARTESIAN_POINT('',(0.000000000000,0.000000000000,-0.110000000000));
#25=AXIS2_PLACEMENT_3D('',#24,#2,#3);
#26=CIRCLE('',#25,0.700000000000);
#27=EDGE_CURVE('',#16,#23,#26,.T.);
#28=ORIENTED_EDGE('',*,*,#27,.T.);
#29=CARTESIAN_POINT('',(0.029292995704,-0.699386817436,0.000000000000));
#30=LINE('',#29,#18);
#31=EDGE_CURVE('',#23,#9,#30,.T.);
#32=ORIENTED_EDGE('',*,*,#31,.T.);
#33=EDGE_LOOP('',(#14,#21,#28,#32));
#34=CARTESIAN_POINT('',(0.375061887151,0.591040253119,0.110000000000));
#35=VERTEX_POINT('',#34);
#36=CARTESIAN_POINT('',(0.324324930285,0.620333248823,0.110000000000));
#37=VERTEX_POINT('',#36);
#38=CIRCLE('',#11,0.700000000000);
#39=EDGE_CURVE('',#35,#37,#38,.T.);
#40=ORIENTED_EDGE('',*,*,#39,.F.);
#41=CARTESIAN_POINT('',(0.375061887151,0.591040253119,-0.110000000000));
#42=VERTEX_POINT('',#41);
#43=CARTESIAN_POINT('',(0.375061887151,0.591040253119,0.000000000000));
#44=LINE('',#43,#18);
#45=EDGE_CURVE('',#42,#35,#44,.T.);
#46=ORIENTED_EDGE('',*,*,#45,.F.);
#47=CARTESIAN_POINT('',(0.324324930285,0.620333248823,-0.110000000000));
#48=VERTEX_POINT('',#47);
#49=CIRCLE('',#25,0.700000000000);
#50=EDGE_CURVE('',#42,#48,#49,.T.);
#51=ORIENTED_EDGE('',*,*,#50,.T.);
#52=CARTESIAN_POINT('',(0.324324930285,0.620333248823,0.000000000000));
#53=LINE('',#52,#18);
#54=EDGE_CURVE('',#48,#37,#53,.T.);
#55=ORIENTED_EDGE('',*,*,#54,.T.);
#56=EDGE_LOOP('',(#40,#46,#51,#55));
#57=CARTESIAN_POINT('',(-0.324324930285,0.620333248823,0.110000000000));
#58=VERTEX_POINT('',#57);
#59=CARTESIAN_POINT('',(-0.375061887151,0.591040253119,0.110000000000));
#60=VERTEX_POINT('',#59);
#61=CIRCLE('',#11,0.700000000000);
#62=EDGE_CURVE('',#58,#60,#61,.T.);
#63=ORIENTED_EDGE('',*,*,#62,.F.);
#64=CARTESIAN_POINT('',(-0.324324930285,0.620333248823,-0.110000000000));
#65=VERTEX_POINT('',#64);
#66=CARTESIAN_POINT('',(-0.324324930285,0.620333248823,0.000000000000));
#67=LINE('',#66,#18);
#68=EDGE_CURVE('',#65,#58,#67,.T.);
#69=ORIENTED_EDGE('',*,*,#68,.F.);
#70=CARTESIAN_POINT('',(-0.375061887151,0.591040253119,-0.110000000000));
#71=VERTEX_POINT('',#70);
#72=CIRCLE('',#25,0.700000000000);
#73=EDGE_CURVE('',#65,#71,#72,.T.);
#74=ORIENTED_EDGE('',*,*,#73,.T.);
#75=CARTESIAN_POINT('',(-0.375061887151,0.591040253119,0.000000000000));
#76=LINE('',#75,#18);
#77=EDGE_CURVE('',#71,#60,#76,.T.);
#78=ORIENTED_EDGE('',*,*,#77,.T.);
#79=EDGE_LOOP('',(#63,#69,#74,#78));
#80=CARTESIAN_POINT('',(0.029292995704,0.699386817436,0.110000000000));
#81=VERTEX_POINT('',#80);
#82=CARTESIAN_POINT('',(-0.029292995704,0.699386817436,0.110000000000));
#83=VERTEX_POINT('',#82);
#84=CIRCLE('',#11,0.700000000000);
#85=EDGE_CURVE('',#81,#83,#84,.T.);
#86=ORIENTED_EDGE('',*,*,#85,.F.);
#87=CARTESIAN_POINT('',(0.029292995704,0.699386817436,-0.110000000000));
#88=VERTEX_POINT('',#87);
#89=CARTESIAN_POINT('',(0.029292995704,0.699386817436,0.000000000000));
#90=LINE('',#89,#18);
#91=EDGE_CURVE('',#88,#81,#90,.T.);
#92=ORIENTED_EDGE('',*,*,#91,.F.);
#93=CARTESIAN_POINT('',(-0.029292995704,0.699386817436,-0.110000000000));
#94=VERTEX_POINT('',#93);
#95=CIRCLE('',#25,0.700000000000);
#96=EDGE_CURVE('',#88,#94,#95,.T.);
#97=ORIENTED_EDGE('',*,*,#96,.T.);
#98=CARTESIAN_POINT('',(-0.029292995704,0.699386817436,0.000000000000));
#99=LINE('',#98,#18);
#100=EDGE_CURVE('',#94,#83,#99,.T.);
#101=ORIENTED_EDGE('',*,*,#100,.T.);
#102=EDGE_LOOP('',(#86,#92,#97,#101));
#103=CARTESIAN_POINT('',(-0.375061887151,-0.591040253119,0.110000000000));
#104=VERTEX_POINT('',#103);
#105=CARTESIAN_POINT('',(-0.324324930285,-0.620333248823,0.110000000000));
#106=VERTEX_POINT('',#105);
#107=CIRCLE('',#11,0.700000000000);
#108=EDGE_CURVE('',#104,#106,#107,.T.);
#109=ORIENTED_EDGE('',*,*,#108,.F.);
#110=CARTESIAN_POINT('',(-0.375061887151,-0.591040253119,-0.110000000000));
#111=VERTEX_POINT('',#110);
#112=CARTESIAN_POINT('',(-0.375061887151,-0.591040253119,0.000000000000));
#113=LINE('',#112,#18);
#114=EDGE_CURVE('',#111,#104,#113,.T.);
#115=ORIENTED_EDGE('',*,*,#114,.F.);
#116=CARTESIAN_POINT('',(-0.324324930285,-0.620333248823,-0.110000000000));
#117=VERTEX_POINT('',#116);
#118=CIRCLE('',#25,0.700000000000);
#119=EDGE_CURVE('',#111,#117,#118,.T.);
#120=ORIENTED_EDGE('',*,*,#119,.T.);
#121=CARTESIAN_POINT('',(-0.324324930285,-0.620333248823,0.000000000000));
#122=LINE('',#121,#18);
#123=EDGE_CURVE('',#117,#106,#122,.T.);
#124=ORIENTED_EDGE('',*,*,#123,.T.);
#125=EDGE_LOOP('',(#109,#115,#120,#124));
#126=CARTESIAN_POINT('',(0.620333248823,0.324324930285,0.110000000000));
#127=VERTEX_POINT('',#126);
#128=CARTESIAN_POINT('',(0.591040253119,0.375061887151,0.110000000000));
#129=VERTEX_POINT('',#128);
#130=CIRCLE('',#11,0.700000000000);
#131=EDGE_CURVE('',#127,#129,#130,.T.);
#132=ORIENTED_EDGE('',*,*,#131,.F.);
#133=CARTESIAN_POINT('',(0.620333248823,0.324324930285,-0.110000000000));
#134=VERTEX_POINT('',#133);
#135=CARTESIAN_POINT('',(0.620333248823,0.324324930285,0.000000000000));
#136=LINE('',#135,#18);
#137=EDGE_CURVE('',#134,#127,#136,.T.);
#138=ORIENTED_EDGE('',*,*,#137,.F.);
#139=CARTESIAN_POINT('',(0.591040253119,0.375061887151,-0.110000000000));
#140=VERTEX_POINT('',#139);
#141=CIRCLE('',#25,0.700000000000);
#142=EDGE_CURVE('',#134,#140,#141,.T.);
#143=ORIENTED_EDGE('',*,*,#142,.T.);
#144=CARTESIAN_POINT('',(0.591040253119,0.375061887151,0.000000000000));
#145=LINE('',#144,#18);
#146=EDGE_CURVE('',#140,#129,#145,.T.);
#147=ORIENTED_EDGE('',*,*,#146,.T.);
#148=EDGE_LOOP('',(#132,#138,#143,#147));
#149=CARTESIAN_POINT('',(0.591040253119,-0.375061887151,0.110000000000));
#150=VERTEX_POINT('',#149);
#151=CARTESIAN_POINT('',(0.620333248823,-0.324324930285,0.110000000000));
#152=VERTEX_POINT('',#151);
#153=CIRCLE('',#11,0.700000000000);
#154=EDGE_CURVE('',#150,#152,#153,.T.);
#155=ORIENTED_EDGE('',*,*,#154,.F.);
#156=CARTESIAN_POINT('',(0.591040253119,-0.375061887151,-0.110000000000));
#157=VERTEX_POINT('',#156);
#158=CARTESIAN_POINT('',(0.591040253119,-0.375061887151,0.000000000000));
#159=LINE('',#158,#18);
#160=EDGE_CURVE('',#157,#150,#159,.T.);
#161=ORIENTED_EDGE('',*,*,#160,.F.);
#162=CARTESIAN_POINT('',(0.620333248823,-0.324324930285,-0.110000000000));
#163=VERTEX_POINT('',#162);
#164=CIRCLE('',#25,0.700000000000);
#165=EDGE_CURVE('',#157,#163,#164,.T.);
#166=ORIENTED_EDGE('',*,*,#165,.T.);
#167=CARTESIAN_POINT('',(0.620333248823,-0.324324930285,0.000000000000));
#168=LINE('',#167,#18);
#169=EDGE_CURVE('',#163,#152,#168,.T.);
#170=ORIENTED_EDGE('',*,*,#169,.T.);
#171=EDGE_LOOP('',(#155,#161,#166,#170));
#172=CARTESIAN_POINT('',(-0.591040253119,0.375061887151,0.110000000000));
#173=VERTEX_POINT('',#172);
#174=CARTESIAN_POINT('',(-0.620333248823,0.324324930285,0.110000000000));
#175=VERTEX_POINT('',#174);
#176=CIRCLE('',#11,0.700000000000);
#177=EDGE_CURVE('',#173,#175,#176,.T.);
#178=ORIENTED_EDGE('',*,*,#177,.F.);
#179=CARTESIAN_POINT('',(-0.591040253119,0.375061887151,-0.110000000000));
#180=VERTEX_POINT('',#179);
#181=CARTESIAN_POINT('',(-0.591040253119,0.375061887151,0.000000000000));
#182=LINE('',#181,#18);
#183=EDGE_CURVE('',#180,#173,#182,.T.);
#184=ORIENTED_EDGE('',*,*,#183,.F.);
#185=CARTESIAN_POINT('',(-0.620333248823,0.324324930285,-0.110000000000));
#186=VERTEX_POINT('',#185);
#187=CIRCLE('',#25,0.700000000000);
#188=EDGE_CURVE('',#180,#186,#187,.T.);
#189=ORIENTED_EDGE('',*,*,#188,.T.);
#190=CARTESIAN_POINT('',(-0.620333248823,0.324324930285,0.000000000000));
#191=LINE('',#190,#18);
#192=EDGE_CURVE('',#186,#175,#191,.T.);
#193=ORIENTED_EDGE('',*,*,#192,.T.);
#194=EDGE_LOOP('',(#178,#184,#189,#193));
#195=CARTESIAN_POINT('',(0.324324930285,-0.620333248823,0.110000000000));
#196=VERTEX_POINT('',#195);
#197=CARTESIAN_POINT('',(0.375061887151,-0.591040253119,0.110000000000));
#198=VERTEX_POINT('',#197);
#199=CIRCLE('',#11,0.700000000000);
#200=EDGE_CURVE('',#196,#198,#199,.T.);
#201=ORIENTED_EDGE('',*,*,#200,.F.);
#202=CARTESIAN_POINT('',(0.324324930285,-0.620333248823,-0.110000000000));
#203=VERTEX_POINT('',#202);
#204=CARTESIAN_POINT('',(0.324324930285,-0.620333248823,0.000000000000));
#205=LINE('',#204,#18);
#206=EDGE_CURVE('',#203,#196,#205,.T.);
#207=ORIENTED_EDGE('',*,*,#206,.F.);
#208=CARTESIAN_POINT('',(0.375061887151,-0.591040253119,-0.110000000000));
#209=VERTEX_POINT('',#208);
#210=CIRCLE('',#25,0.700000000000);
#211=EDGE_CURVE('',#203,#209,#210,.T.);
#212=ORIENTED_EDGE('',*,*,#211,.T.);
#213=CARTESIAN_POINT('',(0.375061887151,-0.591040253119,0.000000000000));
#214=LINE('',#213,#18);
#215=EDGE_CURVE('',#209,#198,#214,.T.);
#216=ORIENTED_EDGE('',*,*,#215,.T.);
#217=EDGE_LOOP('',(#201,#207,#212,#216));
#218=CARTESIAN_POINT('',(0.699386817436,-0.029292995704,0.110000000000));
#219=VERTEX_POINT('',#218);
#220=CARTESIAN_POINT('',(0.699386817436,0.029292995704,0.110000000000));
#221=VERTEX_POINT('',#220);
#222=CIRCLE('',#11,0.700000000000);
#223=EDGE_CURVE('',#219,#221,#222,.T.);
#224=ORIENTED_EDGE('',*,*,#223,.F.);
#225=CARTESIAN_POINT('',(0.699386817436,-0.029292995704,-0.110000000000));
#226=VERTEX_POINT('',#225);
#227=CARTESIAN_POINT('',(0.699386817436,-0.029292995704,0.000000000000));
#228=LINE('',#227,#18);
#229=EDGE_CURVE('',#226,#219,#228,.T.);
#230=ORIENTED_EDGE('',*,*,#229,.F.);
#231=CARTESIAN_POINT('',(0.699386817436,0.029292995704,-0.110000000000));
#232=VERTEX_POINT('',#231);
#233=CIRCLE('',#25,0.700000000000);
#234=EDGE_CURVE('',#226,#232,#233,.T.);
#235=ORIENTED_EDGE('',*,*,#234,.T.);
#236=CARTESIAN_POINT('',(0.699386817436,0.029292995704,0.000000000000));
#237=LINE('',#236,#18);
#238=EDGE_CURVE('',#232,#221,#237,.T.);
#239=ORIENTED_EDGE('',*,*,#238,.T.);
#240=EDGE_LOOP('',(#224,#230,#235,#239));
#241=CARTESIAN_POINT('',(-0.620333248823,-0.324324930285,0.110000000000));
#242=VERTEX_POINT('',#241);
#243=CARTESIAN_POINT('',(-0.591040253119,-0.375061887151,0.110000000000));
#244=VERTEX_POINT('',#243);
#245=CIRCLE('',#11,0.700000000000);
#246=EDGE_CURVE('',#242,#244,#245,.T.);
#247=ORIENTED_EDGE('',*,*,#246,.F.);
#248=CARTESIAN_POINT('',(-0.620333248823,-0.324324930285,-0.110000000000));
#249=VERTEX_POINT('',#248);
#250=CARTESIAN_POINT('',(-0.620333248823,-0.324324930285,0.000000000000));
#251=LINE('',#250,#18);
#252=EDGE_CURVE('',#249,#242,#251,.T.);
#253=ORIENTED_EDGE('',*,*,#252,.F.);
#254=CARTESIAN_POINT('',(-0.591040253119,-0.375061887151,-0.110000000000));
#255=VERTEX_POINT('',#254);
#256=CIRCLE('',#25,0.700000000000);
#257=EDGE_CURVE('',#249,#255,#256,.T.);
#258=ORIENTED_EDGE('',*,*,#257,.T.);
#259=CARTESIAN_POINT('',(-0.591040253119,-0.375061887151,0.000000000000));
#260=LINE('',#259,#18);
#261=EDGE_CURVE('',#255,#244,#260,.T.);
#262=ORIENTED_EDGE('',*,*,#261,.T.);
#263=EDGE_LOOP('',(#247,#253,#258,#262));
#264=CARTESIAN_POINT('',(-0.699386817436,0.029292995704,0.110000000000));
#265=VERTEX_POINT('',#264);
#266=CARTESIAN_POINT('',(-0.699386817436,-0.029292995704,0.110000000000));
#267=VERTEX_POINT('',#266);
#268=CIRCLE('',#11,0.700000000000);
#269=EDGE_CURVE('',#265,#267,#268,.T.);
#270=ORIENTED_EDGE('',*,*,#269,.F.);
#271=CARTESIAN_POINT('',(-0.699386817436,0.029292995704,-0.110000000000));
#272=VERTEX_POINT('',#271);
#273=CARTESIAN_POINT('',(-0.699386817436,0.029292995704,0.000000000000));
#274=LINE('',#273,#18);
#275=EDGE_CURVE('',#272,#265,#274,.T.);
#276=ORIENTED_EDGE('',*,*,#275,.F.);
#277=CARTESIAN_POINT('',(-0.699386817436,-0.029292995704,-0.110000000000));
#278=VERTEX_POINT('',#277);
#279=CIRCLE('',#25,0.700000000000);
#280=EDGE_CURVE('',#272,#278,#279,.T.);
#281=ORIENTED_EDGE('',*,*,#280,.T.);
#282=CARTESIAN_POINT('',(-0.699386817436,-0.029292995704,0.000000000000));
#283=LINE('',#282,#18);
#284=EDGE_CURVE('',#278,#267,#283,.T.);
#285=ORIENTED_EDGE('',*,*,#284,.T.);
#286=EDGE_LOOP('',(#270,#276,#281,#285));
#287=FACE_BOUND('',#33,.T.);
#288=FACE_BOUND('',#56,.T.);
#289=FACE_BOUND('',#79,.T.);
#290=FACE_BOUND('',#102,.T.);
#291=FACE_BOUND('',#125,.T.);
#292=FACE_BOUND('',#148,.T.);
#293=FACE_BOUND('',#171,.T.);
#294=FACE_BOUND('',#194,.T.);
#295=FACE_BOUND('',#217,.T.);
#296=FACE_BOUND('',#240,.T.);
#297=FACE_BOUND('',#263,.T.);
#298=FACE_BOUND('',#286,.T.);
#299=ADVANCED_FACE('',(#287,#288,#289,#290,#291,#292,#293,#294,#295,#296,#297,#298),#5,.T.);
#300=PLANE('',#11);
#301=ORIENTED_EDGE('',*,*,#62,.T.);
#302=CARTESIAN_POINT('',(-0.342409475369,0.407107471027,0.110000000000));
#303=VERTEX_POINT('',#302);
#304=CARTESIAN_POINT('',(-0.261885074832,-0.046490784326,0.110000000000));
#305=DIRECTION('',(0.174790742959,-0.984605604380,0.000000000000));
#306=VECTOR('',#305,1.0);
#307=LINE('',#304,#306);
#308=EDGE_CURVE('',#60,#303,#307,.T.);
#309=ORIENTED_EDGE('',*,*,#308,.T.);
#310=CARTESIAN_POINT('',(-0.330673574674,0.340998514677,0.110000000000));
#311=VERTEX_POINT('',#310);
#312=LINE('',#304,#306);
#313=EDGE_CURVE('',#303,#311,#312,.T.);
#314=ORIENTED_EDGE('',*,*,#313,.T.);
#315=CARTESIAN_POINT('',(-0.340998514677,0.330673574674,0.110000000000));
#316=VERTEX_POINT('',#315);
#317=CIRCLE('',#11,0.475000000000);
#318=EDGE_CURVE('',#311,#316,#317,.T.);
#319=ORIENTED_EDGE('',*,*,#318,.T.);
#320=CARTESIAN_POINT('',(-0.407107471027,0.342409475369,0.110000000000));
#321=VERTEX_POINT('',#320);
#322=CARTESIAN_POINT('',(0.046490784326,0.261885074832,0.110000000000));
#323=DIRECTION('',(-0.984605604380,0.174790742959,0.000000000000));
#324=VECTOR('',#323,1.0);
#325=LINE('',#322,#324);
#326=EDGE_CURVE('',#316,#321,#325,.T.);
#327=ORIENTED_EDGE('',*,*,#326,.T.);
#328=LINE('',#322,#324);
#329=EDGE_CURVE('',#321,#173,#328,.T.);
#330=ORIENTED_EDGE('',*,*,#329,.T.);
#331=ORIENTED_EDGE('',*,*,#177,.T.);
#332=CARTESIAN_POINT('',(-0.500089039680,0.181360674295,0.110000000000));
#333=VERTEX_POINT('',#332);
#334=CARTESIAN_POINT('',(-0.203553735513,-0.171204737685,0.110000000000));
#335=DIRECTION('',(0.643676025939,-0.765298094622,0.000000000000));
#336=VECTOR('',#335,1.0);
#337=LINE('',#334,#336);
#338=EDGE_CURVE('',#175,#333,#337,.T.);
#339=ORIENTED_EDGE('',*,*,#338,.T.);
#340=CARTESIAN_POINT('',(-0.456870973367,0.129976589026,0.110000000000));
#341=VERTEX_POINT('',#340);
#342=LINE('',#334,#336);
#343=EDGE_CURVE('',#333,#341,#342,.T.);
#344=ORIENTED_EDGE('',*,*,#343,.T.);
#345=CARTESIAN_POINT('',(-0.460650163700,0.115872458690,0.110000000000));
#346=VERTEX_POINT('',#345);
#347=CIRCLE('',#11,0.475000000000);
#348=EDGE_CURVE('',#341,#346,#347,.T.);
#349=ORIENTED_EDGE('',*,*,#348,.T.);
#350=CARTESIAN_POINT('',(-0.523770149664,0.092981568653,0.110000000000));
#351=VERTEX_POINT('',#350);
#352=CARTESIAN_POINT('',(-0.090680337148,0.250044519840,0.110000000000));
#353=DIRECTION('',(-0.940088837581,-0.340929578441,0.000000000000));
#354=VECTOR('',#353,1.0);
#355=LINE('',#352,#354);
#356=EDGE_CURVE('',#346,#351,#355,.T.);
#357=ORIENTED_EDGE('',*,*,#356,.T.);
#358=LINE('',#352,#354);
#359=EDGE_CURVE('',#351,#265,#358,.T.);
#360=ORIENTED_EDGE('',*,*,#359,.T.);
#361=ORIENTED_EDGE('',*,*,#269,.T.);
#362=CARTESIAN_POINT('',(-0.523770149664,-0.092981568653,0.110000000000));
#363=VERTEX_POINT('',#362);
#364=CARTESIAN_POINT('',(-0.090680337148,-0.250044519840,0.110000000000));
#365=DIRECTION('',(0.940088837581,-0.340929578441,0.000000000000));
#366=VECTOR('',#365,1.0);
#367=LINE('',#364,#366);
#368=EDGE_CURVE('',#267,#363,#367,.T.);
#369=ORIENTED_EDGE('',*,*,#368,.T.);
#370=CARTESIAN_POINT('',(-0.460650163700,-0.115872458690,0.110000000000));
#371=VERTEX_POINT('',#370);
#372=LINE('',#364,#366);
#373=EDGE_CURVE('',#363,#371,#372,.T.);
#374=ORIENTED_EDGE('',*,*,#373,.T.);
#375=CARTESIAN_POINT('',(-0.456870973367,-0.129976589026,0.110000000000));
#376=VERTEX_POINT('',#375);
#377=CIRCLE('',#11,0.475000000000);
#378=EDGE_CURVE('',#371,#376,#377,.T.);
#379=ORIENTED_EDGE('',*,*,#378,.T.);
#380=CARTESIAN_POINT('',(-0.500089039680,-0.181360674295,0.110000000000));
#381=VERTEX_POINT('',#380);
#382=CARTESIAN_POINT('',(-0.203553735513,0.171204737685,0.110000000000));
#383=DIRECTION('',(-0.643676025939,-0.765298094622,0.000000000000));
#384=VECTOR('',#383,1.0);
#385=LINE('',#382,#384);
#386=EDGE_CURVE('',#376,#381,#385,.T.);
#387=ORIENTED_EDGE('',*,*,#386,.T.);
#388=LINE('',#382,#384);
#389=EDGE_CURVE('',#381,#242,#388,.T.);
#390=ORIENTED_EDGE('',*,*,#389,.T.);
#391=ORIENTED_EDGE('',*,*,#246,.T.);
#392=CARTESIAN_POINT('',(-0.407107471027,-0.342409475369,0.110000000000));
#393=VERTEX_POINT('',#392);
#394=CARTESIAN_POINT('',(0.046490784326,-0.261885074832,0.110000000000));
#395=DIRECTION('',(0.984605604380,0.174790742959,0.000000000000));
#396=VECTOR('',#395,1.0);
#397=LINE('',#394,#396);
#398=EDGE_CURVE('',#244,#393,#397,.T.);
#399=ORIENTED_EDGE('',*,*,#398,.T.);
#400=CARTESIAN_POINT('',(-0.340998514677,-0.330673574674,0.110000000000));
#401=VERTEX_POINT('',#400);
#402=LINE('',#394,#396);
#403=EDGE_CURVE('',#393,#401,#402,.T.);
#404=ORIENTED_EDGE('',*,*,#403,.T.);
#405=CARTESIAN_POINT('',(-0.330673574674,-0.340998514677,0.110000000000));
#406=VERTEX_POINT('',#405);
#407=CIRCLE('',#11,0.475000000000);
#408=EDGE_CURVE('',#401,#406,#407,.T.);
#409=ORIENTED_EDGE('',*,*,#408,.T.);
#410=CARTESIAN_POINT('',(-0.342409475369,-0.407107471027,0.110000000000));
#411=VERTEX_POINT('',#410);
#412=CARTESIAN_POINT('',(-0.261885074832,0.046490784326,0.110000000000));
#413=DIRECTION('',(-0.174790742959,-0.984605604380,0.000000000000));
#414=VECTOR('',#413,1.0);
#415=LINE('',#412,#414);
#416=EDGE_CURVE('',#406,#411,#415,.T.);
#417=ORIENTED_EDGE('',*,*,#416,.T.);
#418=LINE('',#412,#414);
#419=EDGE_CURVE('',#411,#104,#418,.T.);
#420=ORIENTED_EDGE('',*,*,#419,.T.);
#421=ORIENTED_EDGE('',*,*,#108,.T.);
#422=CARTESIAN_POINT('',(-0.181360674295,-0.500089039680,0.110000000000));
#423=VERTEX_POINT('',#422);
#424=CARTESIAN_POINT('',(0.171204737685,-0.203553735513,0.110000000000));
#425=DIRECTION('',(0.765298094622,0.643676025939,0.000000000000));
#426=VECTOR('',#425,1.0);
#427=LINE('',#424,#426);
#428=EDGE_CURVE('',#106,#423,#427,.T.);
#429=ORIENTED_EDGE('',*,*,#428,.T.);
#430=CARTESIAN_POINT('',(-0.129976589026,-0.456870973367,0.110000000000));
#431=VERTEX_POINT('',#430);
#432=LINE('',#424,#426);
#433=EDGE_CURVE('',#423,#431,#432,.T.);
#434=ORIENTED_EDGE('',*,*,#433,.T.);
#435=CARTESIAN_POINT('',(-0.115872458690,-0.460650163700,0.110000000000));
#436=VERTEX_POINT('',#435);
#437=CIRCLE('',#11,0.475000000000);
#438=EDGE_CURVE('',#431,#436,#437,.T.);
#439=ORIENTED_EDGE('',*,*,#438,.T.);
#440=CARTESIAN_POINT('',(-0.092981568653,-0.523770149664,0.110000000000));
#441=VERTEX_POINT('',#440);
#442=CARTESIAN_POINT('',(-0.250044519840,-0.090680337148,0.110000000000));
#443=DIRECTION('',(0.340929578441,-0.940088837581,0.000000000000));
#444=VECTOR('',#443,1.0);
#445=LINE('',#442,#444);
#446=EDGE_CURVE('',#436,#441,#445,.T.);
#447=ORIENTED_EDGE('',*,*,#446,.T.);
#448=LINE('',#442,#444);
#449=EDGE_CURVE('',#441,#7,#448,.T.);
#450=ORIENTED_EDGE('',*,*,#449,.T.);
#451=ORIENTED_EDGE('',*,*,#13,.T.);
#452=CARTESIAN_POINT('',(0.092981568653,-0.523770149664,0.110000000000));
#453=VERTEX_POINT('',#452);
#454=CARTESIAN_POINT('',(0.250044519840,-0.090680337148,0.110000000000));
#455=DIRECTION('',(0.340929578441,0.940088837581,0.000000000000));
#456=VECTOR('',#455,1.0);
#457=LINE('',#454,#456);
#458=EDGE_CURVE('',#9,#453,#457,.T.);
#459=ORIENTED_EDGE('',*,*,#458,.T.);
#460=CARTESIAN_POINT('',(0.115872458690,-0.460650163700,0.110000000000));
#461=VERTEX_POINT('',#460);
#462=LINE('',#454,#456);
#463=EDGE_CURVE('',#453,#461,#462,.T.);
#464=ORIENTED_EDGE('',*,*,#463,.T.);
#465=CARTESIAN_POINT('',(0.129976589026,-0.456870973367,0.110000000000));
#466=VERTEX_POINT('',#465);
#467=CIRCLE('',#11,0.475000000000);
#468=EDGE_CURVE('',#461,#466,#467,.T.);
#469=ORIENTED_EDGE('',*,*,#468,.T.);
#470=CARTESIAN_POINT('',(0.181360674295,-0.500089039680,0.110000000000));
#471=VERTEX_POINT('',#470);
#472=CARTESIAN_POINT('',(-0.171204737685,-0.203553735513,0.110000000000));
#473=DIRECTION('',(0.765298094622,-0.643676025939,0.000000000000));
#474=VECTOR('',#473,1.0);
#475=LINE('',#472,#474);
#476=EDGE_CURVE('',#466,#471,#475,.T.);
#477=ORIENTED_EDGE('',*,*,#476,.T.);
#478=LINE('',#472,#474);
#479=EDGE_CURVE('',#471,#196,#478,.T.);
#480=ORIENTED_EDGE('',*,*,#479,.T.);
#481=ORIENTED_EDGE('',*,*,#200,.T.);
#482=CARTESIAN_POINT('',(0.342409475369,-0.407107471027,0.110000000000));
#483=VERTEX_POINT('',#482);
#484=CARTESIAN_POINT('',(0.261885074832,0.046490784326,0.110000000000));
#485=DIRECTION('',(-0.174790742959,0.984605604380,0.000000000000));
#486=VECTOR('',#485,1.0);
#487=LINE('',#484,#486);
#488=EDGE_CURVE('',#198,#483,#487,.T.);
#489=ORIENTED_EDGE('',*,*,#488,.T.);
#490=CARTESIAN_POINT('',(0.330673574674,-0.340998514677,0.110000000000));
#491=VERTEX_POINT('',#490);
#492=LINE('',#484,#486);
#493=EDGE_CURVE('',#483,#491,#492,.T.);
#494=ORIENTED_EDGE('',*,*,#493,.T.);
#495=CARTESIAN_POINT('',(0.340998514677,-0.330673574674,0.110000000000));
#496=VERTEX_POINT('',#495);
#497=CIRCLE('',#11,0.475000000000);
#498=EDGE_CURVE('',#491,#496,#497,.T.);
#499=ORIENTED_EDGE('',*,*,#498,.T.);
#500=CARTESIAN_POINT('',(0.407107471027,-0.342409475369,0.110000000000));
#501=VERTEX_POINT('',#500);
#502=CARTESIAN_POINT('',(-0.046490784326,-0.261885074832,0.110000000000));
#503=DIRECTION('',(0.984605604380,-0.174790742959,0.000000000000));
#504=VECTOR('',#503,1.0);
#505=LINE('',#502,#504);
#506=EDGE_CURVE('',#496,#501,#505,.T.);
#507=ORIENTED_EDGE('',*,*,#506,.T.);
#508=LINE('',#502,#504);
#509=EDGE_CURVE('',#501,#150,#508,.T.);
#510=ORIENTED_EDGE('',*,*,#509,.T.);
#511=ORIENTED_EDGE('',*,*,#154,.T.);
#512=CARTESIAN_POINT('',(0.500089039680,-0.181360674295,0.110000000000));
#513=VERTEX_POINT('',#512);
#514=CARTESIAN_POINT('',(0.203553735513,0.171204737685,0.110000000000));
#515=DIRECTION('',(-0.643676025939,0.765298094622,0.000000000000));
#516=VECTOR('',#515,1.0);
#517=LINE('',#514,#516);
#518=EDGE_CURVE('',#152,#513,#517,.T.);
#519=ORIENTED_EDGE('',*,*,#518,.T.);
#520=CARTESIAN_POINT('',(0.456870973367,-0.129976589026,0.110000000000));
#521=VERTEX_POINT('',#520);
#522=LINE('',#514,#516);
#523=EDGE_CURVE('',#513,#521,#522,.T.);
#524=ORIENTED_EDGE('',*,*,#523,.T.);
#525=CARTESIAN_POINT('',(0.460650163700,-0.115872458690,0.110000000000));
#526=VERTEX_POINT('',#525);
#527=CIRCLE('',#11,0.475000000000);
#528=EDGE_CURVE('',#521,#526,#527,.T.);
#529=ORIENTED_EDGE('',*,*,#528,.T.);
#530=CARTESIAN_POINT('',(0.523770149664,-0.092981568653,0.110000000000));
#531=VERTEX_POINT('',#530);
#532=CARTESIAN_POINT('',(0.090680337148,-0.250044519840,0.110000000000));
#533=DIRECTION('',(0.940088837581,0.340929578441,0.000000000000));
#534=VECTOR('',#533,1.0);
#535=LINE('',#532,#534);
#536=EDGE_CURVE('',#526,#531,#535,.T.);
#537=ORIENTED_EDGE('',*,*,#536,.T.);
#538=LINE('',#532,#534);
#539=EDGE_CURVE('',#531,#219,#538,.T.);
#540=ORIENTED_EDGE('',*,*,#539,.T.);
#541=ORIENTED_EDGE('',*,*,#223,.T.);
#542=CARTESIAN_POINT('',(0.523770149664,0.092981568653,0.110000000000));
#543=VERTEX_POINT('',#542);
#544=CARTESIAN_POINT('',(0.090680337148,0.250044519840,0.110000000000));
#545=DIRECTION('',(-0.940088837581,0.340929578441,0.000000000000));
#546=VECTOR('',#545,1.0);
#547=LINE('',#544,#546);
#548=EDGE_CURVE('',#221,#543,#547,.T.);
#549=ORIENTED_EDGE('',*,*,#548,.T.);
#550=CARTESIAN_POINT('',(0.460650163700,0.115872458690,0.110000000000));
#551=VERTEX_POINT('',#550);
#552=LINE('',#544,#546);
#553=EDGE_CURVE('',#543,#551,#552,.T.);
#554=ORIENTED_EDGE('',*,*,#553,.T.);
#555=CARTESIAN_POINT('',(0.456870973367,0.129976589026,0.110000000000));
#556=VERTEX_POINT('',#555);
#557=CIRCLE('',#11,0.475000000000);
#558=EDGE_CURVE('',#551,#556,#557,.T.);
#559=ORIENTED_EDGE('',*,*,#558,.T.);
#560=CARTESIAN_POINT('',(0.500089039680,0.181360674295,0.110000000000));
#561=VERTEX_POINT('',#560);
#562=CARTESIAN_POINT('',(0.203553735513,-0.171204737685,0.110000000000));
#563=DIRECTION('',(0.643676025939,0.765298094622,0.000000000000));
#564=VECTOR('',#563,1.0);
#565=LINE('',#562,#564);
#566=EDGE_CURVE('',#556,#561,#565,.T.);
#567=ORIENTED_EDGE('',*,*,#566,.T.);
#568=LINE('',#562,#564);
#569=EDGE_CURVE('',#561,#127,#568,.T.);
#570=ORIENTED_EDGE('',*,*,#569,.T.);
#571=ORIENTED_EDGE('',*,*,#131,.T.);
#572=CARTESIAN_POINT('',(0.407107471027,0.342409475369,0.110000000000));
#573=VERTEX_POINT('',#572);
#574=CARTESIAN_POINT('',(-0.046490784326,0.261885074832,0.110000000000));
#575=DIRECTION('',(-0.984605604380,-0.174790742959,0.000000000000));
#576=VECTOR('',#575,1.0);
#577=LINE('',#574,#576);
#578=EDGE_CURVE('',#129,#573,#577,.T.);
#579=ORIENTED_EDGE('',*,*,#578,.T.);
#580=CARTESIAN_POINT('',(0.340998514677,0.330673574674,0.110000000000));
#581=VERTEX_POINT('',#580);
#582=LINE('',#574,#576);
#583=EDGE_CURVE('',#573,#581,#582,.T.);
#584=ORIENTED_EDGE('',*,*,#583,.T.);
#585=CARTESIAN_POINT('',(0.330673574674,0.340998514677,0.110000000000));
#586=VERTEX_POINT('',#585);
#587=CIRCLE('',#11,0.475000000000);
#588=EDGE_CURVE('',#581,#586,#587,.T.);
#589=ORIENTED_EDGE('',*,*,#588,.T.);
#590=CARTESIAN_POINT('',(0.342409475369,0.407107471027,0.110000000000));
#591=VERTEX_POINT('',#590);
#592=CARTESIAN_POINT('',(0.261885074832,-0.046490784326,0.110000000000));
#593=DIRECTION('',(0.174790742959,0.984605604380,0.000000000000));
#594=VECTOR('',#593,1.0);
#595=LINE('',#592,#594);
#596=EDGE_CURVE('',#586,#591,#595,.T.);
#597=ORIENTED_EDGE('',*,*,#596,.T.);
#598=LINE('',#592,#594);
#599=EDGE_CURVE('',#591,#35,#598,.T.);
#600=ORIENTED_EDGE('',*,*,#599,.T.);
#601=ORIENTED_EDGE('',*,*,#39,.T.);
#602=CARTESIAN_POINT('',(0.181360674295,0.500089039680,0.110000000000));
#603=VERTEX_POINT('',#602);
#604=CARTESIAN_POINT('',(-0.171204737685,0.203553735513,0.110000000000));
#605=DIRECTION('',(-0.765298094622,-0.643676025939,0.000000000000));
#606=VECTOR('',#605,1.0);
#607=LINE('',#604,#606);
#608=EDGE_CURVE('',#37,#603,#607,.T.);
#609=ORIENTED_EDGE('',*,*,#608,.T.);
#610=CARTESIAN_POINT('',(0.129976589026,0.456870973367,0.110000000000));
#611=VERTEX_POINT('',#610);
#612=LINE('',#604,#606);
#613=EDGE_CURVE('',#603,#611,#612,.T.);
#614=ORIENTED_EDGE('',*,*,#613,.T.);
#615=CARTESIAN_POINT('',(0.115872458690,0.460650163700,0.110000000000));
#616=VERTEX_POINT('',#615);
#617=CIRCLE('',#11,0.475000000000);
#618=EDGE_CURVE('',#611,#616,#617,.T.);
#619=ORIENTED_EDGE('',*,*,#618,.T.);
#620=CARTESIAN_POINT('',(0.092981568653,0.523770149664,0.110000000000));
#621=VERTEX_POINT('',#620);
#622=CARTESIAN_POINT('',(0.250044519840,0.090680337148,0.110000000000));
#623=DIRECTION('',(-0.340929578441,0.940088837581,0.000000000000));
#624=VECTOR('',#623,1.0);
#625=LINE('',#622,#624);
#626=EDGE_CURVE('',#616,#621,#625,.T.);
#627=ORIENTED_EDGE('',*,*,#626,.T.);
#628=LINE('',#622,#624);
#629=EDGE_CURVE('',#621,#81,#628,.T.);
#630=ORIENTED_EDGE('',*,*,#629,.T.);
#631=ORIENTED_EDGE('',*,*,#85,.T.);
#632=CARTESIAN_POINT('',(-0.092981568653,0.523770149664,0.110000000000));
#633=VERTEX_POINT('',#632);
#634=CARTESIAN_POINT('',(-0.250044519840,0.090680337148,0.110000000000));
#635=DIRECTION('',(-0.340929578441,-0.940088837581,0.000000000000));
#636=VECTOR('',#635,1.0);
#637=LINE('',#634,#636);
#638=EDGE_CURVE('',#83,#633,#637,.T.);
#639=ORIENTED_EDGE('',*,*,#638,.T.);
#640=CARTESIAN_POINT('',(-0.115872458690,0.460650163700,0.110000000000));
#641=VERTEX_POINT('',#640);
#642=LINE('',#634,#636);
#643=EDGE_CURVE('',#633,#641,#642,.T.);
#644=ORIENTED_EDGE('',*,*,#643,.T.);
#645=CARTESIAN_POINT('',(-0.129976589026,0.456870973367,0.110000000000));
#646=VERTEX_POINT('',#645);
#647=CIRCLE('',#11,0.475000000000);
#648=EDGE_CURVE('',#641,#646,#647,.T.);
#649=ORIENTED_EDGE('',*,*,#648,.T.);
#650=CARTESIAN_POINT('',(-0.181360674295,0.500089039680,0.110000000000));
#651=VERTEX_POINT('',#650);
#652=CARTESIAN_POINT('',(0.171204737685,0.203553735513,0.110000000000));
#653=DIRECTION('',(-0.765298094622,0.643676025939,0.000000000000));
#654=VECTOR('',#653,1.0);
#655=LINE('',#652,#654);
#656=EDGE_CURVE('',#646,#651,#655,.T.);
#657=ORIENTED_EDGE('',*,*,#656,.T.);
#658=LINE('',#652,#654);
#659=EDGE_CURVE('',#651,#58,#658,.T.);
#660=ORIENTED_EDGE('',*,*,#659,.T.);
#661=EDGE_LOOP('',(#301,#309,#314,#319,#327,#330,#331,#339,#344,#349,#357,#360,#361,#369,#374,#379,#387,#390,#391,#399,#404,#409,#417,#420,#421,#429,#434,#439,#447,#450,#451,#459,#464,#469,#477,#480,#481,#489,#494,#499,#507,#510,#511,#519,#524,#529,#537,#540,#541,#549,#554,#559,#567,#570,#571,#579,#584,#589,#597,#600,#601,#609,#614,#619,#627,#630,#631,#639,#644,#649,#657,#660));
#662=FACE_OUTER_BOUND('',#661,.T.);
#663=ADVANCED_FACE('',(#662),#300,.T.);
#664=DIRECTION('',(0.000000000000,0.000000000000,-1.000000000000));
#665=DIRECTION('',(0.000000000000,-1.000000000000,0.000000000000));
#666=AXIS2_PLACEMENT_3D('',#24,#664,#665);
#667=PLANE('',#666);
#668=CARTESIAN_POINT('',(-0.030088084660,0.448992992330,-0.110000000000));
#669=VERTEX_POINT('',#668);
#670=CARTESIAN_POINT('',(-0.106583516961,0.437195555687,-0.110000000000));
#671=VERTEX_POINT('',#670);
#672=CIRCLE('',#25,0.450000000000);
#673=EDGE_CURVE('',#669,#671,#672,.T.);
#674=ORIENTED_EDGE('',*,*,#673,.T.);
#675=CARTESIAN_POINT('',(-0.126293744531,0.431914216127,-0.110000000000));
#676=VERTEX_POINT('',#675);
#677=CIRCLE('',#25,0.450000000000);
#678=EDGE_CURVE('',#671,#676,#677,.T.);
#679=ORIENTED_EDGE('',*,*,#678,.T.);
#680=CARTESIAN_POINT('',(-0.198439450498,0.403883379809,-0.110000000000));
#681=VERTEX_POINT('',#680);
#682=CIRCLE('',#25,0.450000000000);
#683=EDGE_CURVE('',#676,#681,#682,.T.);
#684=ORIENTED_EDGE('',*,*,#683,.T.);
#685=CARTESIAN_POINT('',(-0.250553541832,0.373795295149,-0.110000000000));
#686=VERTEX_POINT('',#685);
#687=CIRCLE('',#25,0.450000000000);
#688=EDGE_CURVE('',#681,#686,#687,.T.);
#689=ORIENTED_EDGE('',*,*,#688,.T.);
#690=CARTESIAN_POINT('',(-0.310901811156,0.325330699166,-0.110000000000));
#691=VERTEX_POINT('',#690);
#692=CIRCLE('',#25,0.450000000000);
#693=EDGE_CURVE('',#686,#691,#692,.T.);
#694=ORIENTED_EDGE('',*,*,#693,.T.);
#695=CARTESIAN_POINT('',(-0.325330699166,0.310901811156,-0.110000000000));
#696=VERTEX_POINT('',#695);
#697=CIRCLE('',#25,0.450000000000);
#698=EDGE_CURVE('',#691,#696,#697,.T.);
#699=ORIENTED_EDGE('',*,*,#698,.T.);
#700=CARTESIAN_POINT('',(-0.373795295149,0.250553541832,-0.110000000000));
#701=VERTEX_POINT('',#700);
#702=CIRCLE('',#25,0.450000000000);
#703=EDGE_CURVE('',#696,#701,#702,.T.);
#704=ORIENTED_EDGE('',*,*,#703,.T.);
#705=CARTESIAN_POINT('',(-0.403883379809,0.198439450498,-0.110000000000));
#706=VERTEX_POINT('',#705);
#707=CIRCLE('',#25,0.450000000000);
#708=EDGE_CURVE('',#701,#706,#707,.T.);
#709=ORIENTED_EDGE('',*,*,#708,.T.);
#710=CARTESIAN_POINT('',(-0.431914216127,0.126293744531,-0.110000000000));
#711=VERTEX_POINT('',#710);
#712=CIRCLE('',#25,0.450000000000);
#713=EDGE_CURVE('',#706,#711,#712,.T.);
#714=ORIENTED_EDGE('',*,*,#713,.T.);
#715=CARTESIAN_POINT('',(-0.437195555687,0.106583516961,-0.110000000000));
#716=VERTEX_POINT('',#715);
#717=CIRCLE('',#25,0.450000000000);
#718=EDGE_CURVE('',#711,#716,#717,.T.);
#719=ORIENTED_EDGE('',*,*,#718,.T.);
#720=CARTESIAN_POINT('',(-0.448992992330,0.030088084660,-0.110000000000));
#721=VERTEX_POINT('',#720);
#722=CIRCLE('',#25,0.450000000000);
#723=EDGE_CURVE('',#716,#721,#722,.T.);
#724=ORIENTED_EDGE('',*,*,#723,.T.);
#725=CARTESIAN_POINT('',(-0.448992992330,-0.030088084660,-0.110000000000));
#726=VERTEX_POINT('',#725);
#727=CIRCLE('',#25,0.450000000000);
#728=EDGE_CURVE('',#721,#726,#727,.T.);
#729=ORIENTED_EDGE('',*,*,#728,.T.);
#730=CARTESIAN_POINT('',(-0.437195555687,-0.106583516961,-0.110000000000));
#731=VERTEX_POINT('',#730);
#732=CIRCLE('',#25,0.450000000000);
#733=EDGE_CURVE('',#726,#731,#732,.T.);
#734=ORIENTED_EDGE('',*,*,#733,.T.);
#735=CARTESIAN_POINT('',(-0.431914216127,-0.126293744531,-0.110000000000));
#736=VERTEX_POINT('',#735);
#737=CIRCLE('',#25,0.450000000000);
#738=EDGE_CURVE('',#731,#736,#737,.T.);
#739=ORIENTED_EDGE('',*,*,#738,.T.);
#740=CARTESIAN_POINT('',(-0.403883379809,-0.198439450498,-0.110000000000));
#741=VERTEX_POINT('',#740);
#742=CIRCLE('',#25,0.450000000000);
#743=EDGE_CURVE('',#736,#741,#742,.T.);
#744=ORIENTED_EDGE('',*,*,#743,.T.);
#745=CARTESIAN_POINT('',(-0.373795295149,-0.250553541832,-0.110000000000));
#746=VERTEX_POINT('',#745);
#747=CIRCLE('',#25,0.450000000000);
#748=EDGE_CURVE('',#741,#746,#747,.T.);
#749=ORIENTED_EDGE('',*,*,#748,.T.);
#750=CARTESIAN_POINT('',(-0.325330699166,-0.310901811156,-0.110000000000));
#751=VERTEX_POINT('',#750);
#752=CIRCLE('',#25,0.450000000000);
#753=EDGE_CURVE('',#746,#751,#752,.T.);
#754=ORIENTED_EDGE('',*,*,#753,.T.);
#755=CARTESIAN_POINT('',(-0.310901811156,-0.325330699166,-0.110000000000));
#756=VERTEX_POINT('',#755);
#757=CIRCLE('',#25,0.450000000000);
#758=EDGE_CURVE('',#751,#756,#757,.T.);
#759=ORIENTED_EDGE('',*,*,#758,.T.);
#760=CARTESIAN_POINT('',(-0.250553541832,-0.373795295149,-0.110000000000));
#761=VERTEX_POINT('',#760);
#762=CIRCLE('',#25,0.450000000000);
#763=EDGE_CURVE('',#756,#761,#762,.T.);
#764=ORIENTED_EDGE('',*,*,#763,.T.);
#765=CARTESIAN_POINT('',(-0.198439450498,-0.403883379809,-0.110000000000));
#766=VERTEX_POINT('',#765);
#767=CIRCLE('',#25,0.450000000000);
#768=EDGE_CURVE('',#761,#766,#767,.T.);
#769=ORIENTED_EDGE('',*,*,#768,.T.);
#770=CARTESIAN_POINT('',(-0.126293744531,-0.431914216127,-0.110000000000));
#771=VERTEX_POINT('',#770);
#772=CIRCLE('',#25,0.450000000000);
#773=EDGE_CURVE('',#766,#771,#772,.T.);
#774=ORIENTED_EDGE('',*,*,#773,.T.);
#775=CARTESIAN_POINT('',(-0.106583516961,-0.437195555687,-0.110000000000));
#776=VERTEX_POINT('',#775);
#777=CIRCLE('',#25,0.450000000000);
#778=EDGE_CURVE('',#771,#776,#777,.T.);
#779=ORIENTED_EDGE('',*,*,#778,.T.);
#780=CARTESIAN_POINT('',(-0.030088084660,-0.448992992330,-0.110000000000));
#781=VERTEX_POINT('',#780);
#782=CIRCLE('',#25,0.450000000000);
#783=EDGE_CURVE('',#776,#781,#782,.T.);
#784=ORIENTED_EDGE('',*,*,#783,.T.);
#785=CARTESIAN_POINT('',(0.030088084660,-0.448992992330,-0.110000000000));
#786=VERTEX_POINT('',#785);
#787=CIRCLE('',#25,0.450000000000);
#788=EDGE_CURVE('',#781,#786,#787,.T.);
#789=ORIENTED_EDGE('',*,*,#788,.T.);
#790=CARTESIAN_POINT('',(0.106583516961,-0.437195555687,-0.110000000000));
#791=VERTEX_POINT('',#790);
#792=CIRCLE('',#25,0.450000000000);
#793=EDGE_CURVE('',#786,#791,#792,.T.);
#794=ORIENTED_EDGE('',*,*,#793,.T.);
#795=CARTESIAN_POINT('',(0.126293744531,-0.431914216127,-0.110000000000));
#796=VERTEX_POINT('',#795);
#797=CIRCLE('',#25,0.450000000000);
#798=EDGE_CURVE('',#791,#796,#797,.T.);
#799=ORIENTED_EDGE('',*,*,#798,.T.);
#800=CARTESIAN_POINT('',(0.198439450498,-0.403883379809,-0.110000000000));
#801=VERTEX_POINT('',#800);
#802=CIRCLE('',#25,0.450000000000);
#803=EDGE_CURVE('',#796,#801,#802,.T.);
#804=ORIENTED_EDGE('',*,*,#803,.T.);
#805=CARTESIAN_POINT('',(0.250553541832,-0.373795295149,-0.110000000000));
#806=VERTEX_POINT('',#805);
#807=CIRCLE('',#25,0.450000000000);
#808=EDGE_CURVE('',#801,#806,#807,.T.);
#809=ORIENTED_EDGE('',*,*,#808,.T.);
#810=CARTESIAN_POINT('',(0.310901811156,-0.325330699166,-0.110000000000));
#811=VERTEX_POINT('',#810);
#812=CIRCLE('',#25,0.450000000000);
#813=EDGE_CURVE('',#806,#811,#812,.T.);
#814=ORIENTED_EDGE('',*,*,#813,.T.);
#815=CARTESIAN_POINT('',(0.325330699166,-0.310901811156,-0.110000000000));
#816=VERTEX_POINT('',#815);
#817=CIRCLE('',#25,0.450000000000);
#818=EDGE_CURVE('',#811,#816,#817,.T.);
#819=ORIENTED_EDGE('',*,*,#818,.T.);
#820=CARTESIAN_POINT('',(0.373795295149,-0.250553541832,-0.110000000000));
#821=VERTEX_POINT('',#820);
#822=CIRCLE('',#25,0.450000000000);
#823=EDGE_CURVE('',#816,#821,#822,.T.);
#824=ORIENTED_EDGE('',*,*,#823,.T.);
#825=CARTESIAN_POINT('',(0.403883379809,-0.198439450498,-0.110000000000));
#826=VERTEX_POINT('',#825);
#827=CIRCLE('',#25,0.450000000000);
#828=EDGE_CURVE('',#821,#826,#827,.T.);
#829=ORIENTED_EDGE('',*,*,#828,.T.);
#830=CARTESIAN_POINT('',(0.431914216127,-0.126293744531,-0.110000000000));
#831=VERTEX_POINT('',#830);
#832=CIRCLE('',#25,0.450000000000);
#833=EDGE_CURVE('',#826,#831,#832,.T.);
#834=ORIENTED_EDGE('',*,*,#833,.T.);
#835=CARTESIAN_POINT('',(0.437195555687,-0.106583516961,-0.110000000000));
#836=VERTEX_POINT('',#835);
#837=CIRCLE('',#25,0.450000000000);
#838=EDGE_CURVE('',#831,#836,#837,.T.);
#839=ORIENTED_EDGE('',*,*,#838,.T.);
#840=CARTESIAN_POINT('',(0.448992992330,-0.030088084660,-0.110000000000));
#841=VERTEX_POINT('',#840);
#842=CIRCLE('',#25,0.450000000000);
#843=EDGE_CURVE('',#836,#841,#842,.T.);
#844=ORIENTED_EDGE('',*,*,#843,.T.);
#845=CARTESIAN_POINT('',(0.448992992330,0.030088084660,-0.110000000000));
#846=VERTEX_POINT('',#845);
#847=CIRCLE('',#25,0.450000000000);
#848=EDGE_CURVE('',#841,#846,#847,.T.);
#849=ORIENTED_EDGE('',*,*,#848,.T.);
#850=CARTESIAN_POINT('',(0.437195555687,0.106583516961,-0.110000000000));
#851=VERTEX_POINT('',#850);
#852=CIRCLE('',#25,0.450000000000);
#853=EDGE_CURVE('',#846,#851,#852,.T.);
#854=ORIENTED_EDGE('',*,*,#853,.T.);
#855=CARTESIAN_POINT('',(0.431914216127,0.126293744531,-0.110000000000));
#856=VERTEX_POINT('',#855);
#857=CIRCLE('',#25,0.450000000000);
#858=EDGE_CURVE('',#851,#856,#857,.T.);
#859=ORIENTED_EDGE('',*,*,#858,.T.);
#860=CARTESIAN_POINT('',(0.403883379809,0.198439450498,-0.110000000000));
#861=VERTEX_POINT('',#860);
#862=CIRCLE('',#25,0.450000000000);
#863=EDGE_CURVE('',#856,#861,#862,.T.);
#864=ORIENTED_EDGE('',*,*,#863,.T.);
#865=CARTESIAN_POINT('',(0.373795295149,0.250553541832,-0.110000000000));
#866=VERTEX_POINT('',#865);
#867=CIRCLE('',#25,0.450000000000);
#868=EDGE_CURVE('',#861,#866,#867,.T.);
#869=ORIENTED_EDGE('',*,*,#868,.T.);
#870=CARTESIAN_POINT('',(0.325330699166,0.310901811156,-0.110000000000));
#871=VERTEX_POINT('',#870);
#872=CIRCLE('',#25,0.450000000000);
#873=EDGE_CURVE('',#866,#871,#872,.T.);
#874=ORIENTED_EDGE('',*,*,#873,.T.);
#875=CARTESIAN_POINT('',(0.310901811156,0.325330699166,-0.110000000000));
#876=VERTEX_POINT('',#875);
#877=CIRCLE('',#25,0.450000000000);
#878=EDGE_CURVE('',#871,#876,#877,.T.);
#879=ORIENTED_EDGE('',*,*,#878,.T.);
#880=CARTESIAN_POINT('',(0.250553541832,0.373795295149,-0.110000000000));
#881=VERTEX_POINT('',#880);
#882=CIRCLE('',#25,0.450000000000);
#883=EDGE_CURVE('',#876,#881,#882,.T.);
#884=ORIENTED_EDGE('',*,*,#883,.T.);
#885=CARTESIAN_POINT('',(0.198439450498,0.403883379809,-0.110000000000));
#886=VERTEX_POINT('',#885);
#887=CIRCLE('',#25,0.450000000000);
#888=EDGE_CURVE('',#881,#886,#887,.T.);
#889=ORIENTED_EDGE('',*,*,#888,.T.);
#890=CARTESIAN_POINT('',(0.126293744531,0.431914216127,-0.110000000000));
#891=VERTEX_POINT('',#890);
#892=CIRCLE('',#25,0.450000000000);
#893=EDGE_CURVE('',#886,#891,#892,.T.);
#894=ORIENTED_EDGE('',*,*,#893,.T.);
#895=CARTESIAN_POINT('',(0.106583516961,0.437195555687,-0.110000000000));
#896=VERTEX_POINT('',#895);
#897=CIRCLE('',#25,0.450000000000);
#898=EDGE_CURVE('',#891,#896,#897,.T.);
#899=ORIENTED_EDGE('',*,*,#898,.T.);
#900=CARTESIAN_POINT('',(0.030088084660,0.448992992330,-0.110000000000));
#901=VERTEX_POINT('',#900);
#902=CIRCLE('',#25,0.450000000000);
#903=EDGE_CURVE('',#896,#901,#902,.T.);
#904=ORIENTED_EDGE('',*,*,#903,.T.);
#905=CIRCLE('',#25,0.450000000000);
#906=EDGE_CURVE('',#901,#669,#905,.T.);
#907=ORIENTED_EDGE('',*,*,#906,.T.);
#908=EDGE_LOOP('',(#674,#679,#684,#689,#694,#699,#704,#709,#714,#719,#724,#729,#734,#739,#744,#749,#754,#759,#764,#769,#774,#779,#784,#789,#794,#799,#804,#809,#814,#819,#824,#829,#834,#839,#844,#849,#854,#859,#864,#869,#874,#879,#884,#889,#894,#899,#904,#907));
#909=ORIENTED_EDGE('',*,*,#73,.F.);
#910=CARTESIAN_POINT('',(-0.181360674295,0.500089039680,-0.110000000000));
#911=VERTEX_POINT('',#910);
#912=CARTESIAN_POINT('',(0.171204737685,0.203553735513,-0.110000000000));
#913=LINE('',#912,#474);
#914=EDGE_CURVE('',#65,#911,#913,.T.);
#915=ORIENTED_EDGE('',*,*,#914,.T.);
#916=CARTESIAN_POINT('',(-0.129976589026,0.456870973367,-0.110000000000));
#917=VERTEX_POINT('',#916);
#918=LINE('',#912,#474);
#919=EDGE_CURVE('',#911,#917,#918,.T.);
#920=ORIENTED_EDGE('',*,*,#919,.T.);
#921=CARTESIAN_POINT('',(-0.115872458690,0.460650163700,-0.110000000000));
#922=VERTEX_POINT('',#921);
#923=CIRCLE('',#25,0.475000000000);
#924=EDGE_CURVE('',#922,#917,#923,.T.);
#925=ORIENTED_EDGE('',*,*,#924,.F.);
#926=CARTESIAN_POINT('',(-0.092981568653,0.523770149664,-0.110000000000));
#927=VERTEX_POINT('',#926);
#928=CARTESIAN_POINT('',(-0.250044519840,0.090680337148,-0.110000000000));
#929=LINE('',#928,#456);
#930=EDGE_CURVE('',#922,#927,#929,.T.);
#931=ORIENTED_EDGE('',*,*,#930,.T.);
#932=LINE('',#928,#456);
#933=EDGE_CURVE('',#927,#94,#932,.T.);
#934=ORIENTED_EDGE('',*,*,#933,.T.);
#935=ORIENTED_EDGE('',*,*,#96,.F.);
#936=CARTESIAN_POINT('',(0.092981568653,0.523770149664,-0.110000000000));
#937=VERTEX_POINT('',#936);
#938=CARTESIAN_POINT('',(0.250044519840,0.090680337148,-0.110000000000));
#939=LINE('',#938,#444);
#940=EDGE_CURVE('',#88,#937,#939,.T.);
#941=ORIENTED_EDGE('',*,*,#940,.T.);
#942=CARTESIAN_POINT('',(0.115872458690,0.460650163700,-0.110000000000));
#943=VERTEX_POINT('',#942);
#944=LINE('',#938,#444);
#945=EDGE_CURVE('',#937,#943,#944,.T.);
#946=ORIENTED_EDGE('',*,*,#945,.T.);
#947=CARTESIAN_POINT('',(0.129976589026,0.456870973367,-0.110000000000));
#948=VERTEX_POINT('',#947);
#949=CIRCLE('',#25,0.475000000000);
#950=EDGE_CURVE('',#948,#943,#949,.T.);
#951=ORIENTED_EDGE('',*,*,#950,.F.);
#952=CARTESIAN_POINT('',(0.181360674295,0.500089039680,-0.110000000000));
#953=VERTEX_POINT('',#952);
#954=CARTESIAN_POINT('',(-0.171204737685,0.203553735513,-0.110000000000));
#955=LINE('',#954,#426);
#956=EDGE_CURVE('',#948,#953,#955,.T.);
#957=ORIENTED_EDGE('',*,*,#956,.T.);
#958=LINE('',#954,#426);
#959=EDGE_CURVE('',#953,#48,#958,.T.);
#960=ORIENTED_EDGE('',*,*,#959,.T.);
#961=ORIENTED_EDGE('',*,*,#50,.F.);
#962=CARTESIAN_POINT('',(0.342409475369,0.407107471027,-0.110000000000));
#963=VERTEX_POINT('',#962);
#964=CARTESIAN_POINT('',(0.261885074832,-0.046490784326,-0.110000000000));
#965=LINE('',#964,#414);
#966=EDGE_CURVE('',#42,#963,#965,.T.);
#967=ORIENTED_EDGE('',*,*,#966,.T.);
#968=CARTESIAN_POINT('',(0.330673574674,0.340998514677,-0.110000000000));
#969=VERTEX_POINT('',#968);
#970=LINE('',#964,#414);
#971=EDGE_CURVE('',#963,#969,#970,.T.);
#972=ORIENTED_EDGE('',*,*,#971,.T.);
#973=CARTESIAN_POINT('',(0.340998514677,0.330673574674,-0.110000000000));
#974=VERTEX_POINT('',#973);
#975=CIRCLE('',#25,0.475000000000);
#976=EDGE_CURVE('',#974,#969,#975,.T.);
#977=ORIENTED_EDGE('',*,*,#976,.F.);
#978=CARTESIAN_POINT('',(0.407107471027,0.342409475369,-0.110000000000));
#979=VERTEX_POINT('',#978);
#980=CARTESIAN_POINT('',(-0.046490784326,0.261885074832,-0.110000000000));
#981=LINE('',#980,#396);
#982=EDGE_CURVE('',#974,#979,#981,.T.);
#983=ORIENTED_EDGE('',*,*,#982,.T.);
#984=LINE('',#980,#396);
#985=EDGE_CURVE('',#979,#140,#984,.T.);
#986=ORIENTED_EDGE('',*,*,#985,.T.);
#987=ORIENTED_EDGE('',*,*,#142,.F.);
#988=CARTESIAN_POINT('',(0.500089039680,0.181360674295,-0.110000000000));
#989=VERTEX_POINT('',#988);
#990=CARTESIAN_POINT('',(0.203553735513,-0.171204737685,-0.110000000000));
#991=LINE('',#990,#384);
#992=EDGE_CURVE('',#134,#989,#991,.T.);
#993=ORIENTED_EDGE('',*,*,#992,.T.);
#994=CARTESIAN_POINT('',(0.456870973367,0.129976589026,-0.110000000000));
#995=VERTEX_POINT('',#994);
#996=LINE('',#990,#384);
#997=EDGE_CURVE('',#989,#995,#996,.T.);
#998=ORIENTED_EDGE('',*,*,#997,.T.);
#999=CARTESIAN_POINT('',(0.460650163700,0.115872458690,-0.110000000000));
#1000=VERTEX_POINT('',#999);
#1001=CIRCLE('',#25,0.475000000000);
#1002=EDGE_CURVE('',#1000,#995,#1001,.T.);
#1003=ORIENTED_EDGE('',*,*,#1002,.F.);
#1004=CARTESIAN_POINT('',(0.523770149664,0.092981568653,-0.110000000000));
#1005=VERTEX_POINT('',#1004);
#1006=CARTESIAN_POINT('',(0.090680337148,0.250044519840,-0.110000000000));
#1007=LINE('',#1006,#366);
#1008=EDGE_CURVE('',#1000,#1005,#1007,.T.);
#1009=ORIENTED_EDGE('',*,*,#1008,.T.);
#1010=LINE('',#1006,#366);
#1011=EDGE_CURVE('',#1005,#232,#1010,.T.);
#1012=ORIENTED_EDGE('',*,*,#1011,.T.);
#1013=ORIENTED_EDGE('',*,*,#234,.F.);
#1014=CARTESIAN_POINT('',(0.523770149664,-0.092981568653,-0.110000000000));
#1015=VERTEX_POINT('',#1014);
#1016=CARTESIAN_POINT('',(0.090680337148,-0.250044519840,-0.110000000000));
#1017=LINE('',#1016,#354);
#1018=EDGE_CURVE('',#226,#1015,#1017,.T.);
#1019=ORIENTED_EDGE('',*,*,#1018,.T.);
#1020=CARTESIAN_POINT('',(0.460650163700,-0.115872458690,-0.110000000000));
#1021=VERTEX_POINT('',#1020);
#1022=LINE('',#1016,#354);
#1023=EDGE_CURVE('',#1015,#1021,#1022,.T.);
#1024=ORIENTED_EDGE('',*,*,#1023,.T.);
#1025=CARTESIAN_POINT('',(0.456870973367,-0.129976589026,-0.110000000000));
#1026=VERTEX_POINT('',#1025);
#1027=CIRCLE('',#25,0.475000000000);
#1028=EDGE_CURVE('',#1026,#1021,#1027,.T.);
#1029=ORIENTED_EDGE('',*,*,#1028,.F.);
#1030=CARTESIAN_POINT('',(0.500089039680,-0.181360674295,-0.110000000000));
#1031=VERTEX_POINT('',#1030);
#1032=CARTESIAN_POINT('',(0.203553735513,0.171204737685,-0.110000000000));
#1033=LINE('',#1032,#336);
#1034=EDGE_CURVE('',#1026,#1031,#1033,.T.);
#1035=ORIENTED_EDGE('',*,*,#1034,.T.);
#1036=LINE('',#1032,#336);
#1037=EDGE_CURVE('',#1031,#163,#1036,.T.);
#1038=ORIENTED_EDGE('',*,*,#1037,.T.);
#1039=ORIENTED_EDGE('',*,*,#165,.F.);
#1040=CARTESIAN_POINT('',(0.407107471027,-0.342409475369,-0.110000000000));
#1041=VERTEX_POINT('',#1040);
#1042=CARTESIAN_POINT('',(-0.046490784326,-0.261885074832,-0.110000000000));
#1043=LINE('',#1042,#324);
#1044=EDGE_CURVE('',#157,#1041,#1043,.T.);
#1045=ORIENTED_EDGE('',*,*,#1044,.T.);
#1046=CARTESIAN_POINT('',(0.340998514677,-0.330673574674,-0.110000000000));
#1047=VERTEX_POINT('',#1046);
#1048=LINE('',#1042,#324);
#1049=EDGE_CURVE('',#1041,#1047,#1048,.T.);
#1050=ORIENTED_EDGE('',*,*,#1049,.T.);
#1051=CARTESIAN_POINT('',(0.330673574674,-0.340998514677,-0.110000000000));
#1052=VERTEX_POINT('',#1051);
#1053=CIRCLE('',#25,0.475000000000);
#1054=EDGE_CURVE('',#1052,#1047,#1053,.T.);
#1055=ORIENTED_EDGE('',*,*,#1054,.F.);
#1056=CARTESIAN_POINT('',(0.342409475369,-0.407107471027,-0.110000000000));
#1057=VERTEX_POINT('',#1056);
#1058=CARTESIAN_POINT('',(0.261885074832,0.046490784326,-0.110000000000));
#1059=LINE('',#1058,#306);
#1060=EDGE_CURVE('',#1052,#1057,#1059,.T.);
#1061=ORIENTED_EDGE('',*,*,#1060,.T.);
#1062=LINE('',#1058,#306);
#1063=EDGE_CURVE('',#1057,#209,#1062,.T.);
#1064=ORIENTED_EDGE('',*,*,#1063,.T.);
#1065=ORIENTED_EDGE('',*,*,#211,.F.);
#1066=CARTESIAN_POINT('',(0.181360674295,-0.500089039680,-0.110000000000));
#1067=VERTEX_POINT('',#1066);
#1068=CARTESIAN_POINT('',(-0.171204737685,-0.203553735513,-0.110000000000));
#1069=LINE('',#1068,#654);
#1070=EDGE_CURVE('',#203,#1067,#1069,.T.);
#1071=ORIENTED_EDGE('',*,*,#1070,.T.);
#1072=CARTESIAN_POINT('',(0.129976589026,-0.456870973367,-0.110000000000));
#1073=VERTEX_POINT('',#1072);
#1074=LINE('',#1068,#654);
#1075=EDGE_CURVE('',#1067,#1073,#1074,.T.);
#1076=ORIENTED_EDGE('',*,*,#1075,.T.);
#1077=CARTESIAN_POINT('',(0.115872458690,-0.460650163700,-0.110000000000));
#1078=VERTEX_POINT('',#1077);
#1079=CIRCLE('',#25,0.475000000000);
#1080=EDGE_CURVE('',#1078,#1073,#1079,.T.);
#1081=ORIENTED_EDGE('',*,*,#1080,.F.);
#1082=CARTESIAN_POINT('',(0.092981568653,-0.523770149664,-0.110000000000));
#1083=VERTEX_POINT('',#1082);
#1084=CARTESIAN_POINT('',(0.250044519840,-0.090680337148,-0.110000000000));
#1085=LINE('',#1084,#636);
#1086=EDGE_CURVE('',#1078,#1083,#1085,.T.);
#1087=ORIENTED_EDGE('',*,*,#1086,.T.);
#1088=LINE('',#1084,#636);
#1089=EDGE_CURVE('',#1083,#23,#1088,.T.);
#1090=ORIENTED_EDGE('',*,*,#1089,.T.);
#1091=ORIENTED_EDGE('',*,*,#27,.F.);
#1092=CARTESIAN_POINT('',(-0.092981568653,-0.523770149664,-0.110000000000));
#1093=VERTEX_POINT('',#1092);
#1094=CARTESIAN_POINT('',(-0.250044519840,-0.090680337148,-0.110000000000));
#1095=LINE('',#1094,#624);
#1096=EDGE_CURVE('',#16,#1093,#1095,.T.);
#1097=ORIENTED_EDGE('',*,*,#1096,.T.);
#1098=CARTESIAN_POINT('',(-0.115872458690,-0.460650163700,-0.110000000000));
#1099=VERTEX_POINT('',#1098);
#1100=LINE('',#1094,#624);
#1101=EDGE_CURVE('',#1093,#1099,#1100,.T.);
#1102=ORIENTED_EDGE('',*,*,#1101,.T.);
#1103=CARTESIAN_POINT('',(-0.129976589026,-0.456870973367,-0.110000000000));
#1104=VERTEX_POINT('',#1103);
#1105=CIRCLE('',#25,0.475000000000);
#1106=EDGE_CURVE('',#1104,#1099,#1105,.T.);
#1107=ORIENTED_EDGE('',*,*,#1106,.F.);
#1108=CARTESIAN_POINT('',(-0.181360674295,-0.500089039680,-0.110000000000));
#1109=VERTEX_POINT('',#1108);
#1110=CARTESIAN_POINT('',(0.171204737685,-0.203553735513,-0.110000000000));
#1111=LINE('',#1110,#606);
#1112=EDGE_CURVE('',#1104,#1109,#1111,.T.);
#1113=ORIENTED_EDGE('',*,*,#1112,.T.);
#1114=LINE('',#1110,#606);
#1115=EDGE_CURVE('',#1109,#117,#1114,.T.);
#1116=ORIENTED_EDGE('',*,*,#1115,.T.);
#1117=ORIENTED_EDGE('',*,*,#119,.F.);
#1118=CARTESIAN_POINT('',(-0.342409475369,-0.407107471027,-0.110000000000));
#1119=VERTEX_POINT('',#1118);
#1120=CARTESIAN_POINT('',(-0.261885074832,0.046490784326,-0.110000000000));
#1121=LINE('',#1120,#594);
#1122=EDGE_CURVE('',#111,#1119,#1121,.T.);
#1123=ORIENTED_EDGE('',*,*,#1122,.T.);
#1124=CARTESIAN_POINT('',(-0.330673574674,-0.340998514677,-0.110000000000));
#1125=VERTEX_POINT('',#1124);
#1126=LINE('',#1120,#594);
#1127=EDGE_CURVE('',#1119,#1125,#1126,.T.);
#1128=ORIENTED_EDGE('',*,*,#1127,.T.);
#1129=CARTESIAN_POINT('',(-0.340998514677,-0.330673574674,-0.110000000000));
#1130=VERTEX_POINT('',#1129);
#1131=CIRCLE('',#25,0.475000000000);
#1132=EDGE_CURVE('',#1130,#1125,#1131,.T.);
#1133=ORIENTED_EDGE('',*,*,#1132,.F.);
#1134=CARTESIAN_POINT('',(-0.407107471027,-0.342409475369,-0.110000000000));
#1135=VERTEX_POINT('',#1134);
#1136=CARTESIAN_POINT('',(0.046490784326,-0.261885074832,-0.110000000000));
#1137=LINE('',#1136,#576);
#1138=EDGE_CURVE('',#1130,#1135,#1137,.T.);
#1139=ORIENTED_EDGE('',*,*,#1138,.T.);
#1140=LINE('',#1136,#576);
#1141=EDGE_CURVE('',#1135,#255,#1140,.T.);
#1142=ORIENTED_EDGE('',*,*,#1141,.T.);
#1143=ORIENTED_EDGE('',*,*,#257,.F.);
#1144=CARTESIAN_POINT('',(-0.500089039680,-0.181360674295,-0.110000000000));
#1145=VERTEX_POINT('',#1144);
#1146=CARTESIAN_POINT('',(-0.203553735513,0.171204737685,-0.110000000000));
#1147=LINE('',#1146,#564);
#1148=EDGE_CURVE('',#249,#1145,#1147,.T.);
#1149=ORIENTED_EDGE('',*,*,#1148,.T.);
#1150=CARTESIAN_POINT('',(-0.456870973367,-0.129976589026,-0.110000000000));
#1151=VERTEX_POINT('',#1150);
#1152=LINE('',#1146,#564);
#1153=EDGE_CURVE('',#1145,#1151,#1152,.T.);
#1154=ORIENTED_EDGE('',*,*,#1153,.T.);
#1155=CARTESIAN_POINT('',(-0.460650163700,-0.115872458690,-0.110000000000));
#1156=VERTEX_POINT('',#1155);
#1157=CIRCLE('',#25,0.475000000000);
#1158=EDGE_CURVE('',#1156,#1151,#1157,.T.);
#1159=ORIENTED_EDGE('',*,*,#1158,.F.);
#1160=CARTESIAN_POINT('',(-0.523770149664,-0.092981568653,-0.110000000000));
#1161=VERTEX_POINT('',#1160);
#1162=CARTESIAN_POINT('',(-0.090680337148,-0.250044519840,-0.110000000000));
#1163=LINE('',#1162,#546);
#1164=EDGE_CURVE('',#1156,#1161,#1163,.T.);
#1165=ORIENTED_EDGE('',*,*,#1164,.T.);
#1166=LINE('',#1162,#546);
#1167=EDGE_CURVE('',#1161,#278,#1166,.T.);
#1168=ORIENTED_EDGE('',*,*,#1167,.T.);
#1169=ORIENTED_EDGE('',*,*,#280,.F.);
#1170=CARTESIAN_POINT('',(-0.523770149664,0.092981568653,-0.110000000000));
#1171=VERTEX_POINT('',#1170);
#1172=CARTESIAN_POINT('',(-0.090680337148,0.250044519840,-0.110000000000));
#1173=LINE('',#1172,#534);
#1174=EDGE_CURVE('',#272,#1171,#1173,.T.);
#1175=ORIENTED_EDGE('',*,*,#1174,.T.);
#1176=CARTESIAN_POINT('',(-0.460650163700,0.115872458690,-0.110000000000));
#1177=VERTEX_POINT('',#1176);
#1178=LINE('',#1172,#534);
#1179=EDGE_CURVE('',#1171,#1177,#1178,.T.);
#1180=ORIENTED_EDGE('',*,*,#1179,.T.);
#1181=CARTESIAN_POINT('',(-0.456870973367,0.129976589026,-0.110000000000));
#1182=VERTEX_POINT('',#1181);
#1183=CIRCLE('',#25,0.475000000000);
#1184=EDGE_CURVE('',#1182,#1177,#1183,.T.);
#1185=ORIENTED_EDGE('',*,*,#1184,.F.);
#1186=CARTESIAN_POINT('',(-0.500089039680,0.181360674295,-0.110000000000));
#1187=VERTEX_POINT('',#1186);
#1188=CARTESIAN_POINT('',(-0.203553735513,-0.171204737685,-0.110000000000));
#1189=LINE('',#1188,#516);
#1190=EDGE_CURVE('',#1182,#1187,#1189,.T.);
#1191=ORIENTED_EDGE('',*,*,#1190,.T.);
#1192=LINE('',#1188,#516);
#1193=EDGE_CURVE('',#1187,#186,#1192,.T.);
#1194=ORIENTED_EDGE('',*,*,#1193,.T.);
#1195=ORIENTED_EDGE('',*,*,#188,.F.);
#1196=CARTESIAN_POINT('',(-0.407107471027,0.342409475369,-0.110000000000));
#1197=VERTEX_POINT('',#1196);
#1198=CARTESIAN_POINT('',(0.046490784326,0.261885074832,-0.110000000000));
#1199=LINE('',#1198,#504);
#1200=EDGE_CURVE('',#180,#1197,#1199,.T.);
#1201=ORIENTED_EDGE('',*,*,#1200,.T.);
#1202=CARTESIAN_POINT('',(-0.340998514677,0.330673574674,-0.110000000000));
#1203=VERTEX_POINT('',#1202);
#1204=LINE('',#1198,#504);
#1205=EDGE_CURVE('',#1197,#1203,#1204,.T.);
#1206=ORIENTED_EDGE('',*,*,#1205,.T.);
#1207=CARTESIAN_POINT('',(-0.330673574674,0.340998514677,-0.110000000000));
#1208=VERTEX_POINT('',#1207);
#1209=CIRCLE('',#25,0.475000000000);
#1210=EDGE_CURVE('',#1208,#1203,#1209,.T.);
#1211=ORIENTED_EDGE('',*,*,#1210,.F.);
#1212=CARTESIAN_POINT('',(-0.342409475369,0.407107471027,-0.110000000000));
#1213=VERTEX_POINT('',#1212);
#1214=CARTESIAN_POINT('',(-0.261885074832,-0.046490784326,-0.110000000000));
#1215=LINE('',#1214,#486);
#1216=EDGE_CURVE('',#1208,#1213,#1215,.T.);
#1217=ORIENTED_EDGE('',*,*,#1216,.T.);
#1218=LINE('',#1214,#486);
#1219=EDGE_CURVE('',#1213,#71,#1218,.T.);
#1220=ORIENTED_EDGE('',*,*,#1219,.T.);
#1221=EDGE_LOOP('',(#909,#915,#920,#925,#931,#934,#935,#941,#946,#951,#957,#960,#961,#967,#972,#977,#983,#986,#987,#993,#998,#1003,#1009,#1012,#1013,#1019,#1024,#1029,#1035,#1038,#1039,#1045,#1050,#1055,#1061,#1064,#1065,#1071,#1076,#1081,#1087,#1090,#1091,#1097,#1102,#1107,#1113,#1116,#1117,#1123,#1128,#1133,#1139,#1142,#1143,#1149,#1154,#1159,#1165,#1168,#1169,#1175,#1180,#1185,#1191,#1194,#1195,#1201,#1206,#1211,#1217,#1220));
#1222=FACE_BOUND('',#908,.T.);
#1223=FACE_OUTER_BOUND('',#1221,.T.);
#1224=ADVANCED_FACE('',(#1222,#1223),#667,.T.);
#1225=CARTESIAN_POINT('',(0.203553735513,-0.171204737685,0.000000000000));
#1226=AXIS2_PLACEMENT_3D('',#1225,#473,#383);
#1227=PLANE('',#1226);
#1228=ORIENTED_EDGE('',*,*,#137,.T.);
#1229=ORIENTED_EDGE('',*,*,#569,.F.);
#1230=ORIENTED_EDGE('',*,*,#566,.F.);
#1231=CARTESIAN_POINT('',(0.456870973367,0.129976589026,0.000000000000));
#1232=LINE('',#1231,#18);
#1233=EDGE_CURVE('',#995,#556,#1232,.T.);
#1234=ORIENTED_EDGE('',*,*,#1233,.F.);
#1235=ORIENTED_EDGE('',*,*,#997,.F.);
#1236=ORIENTED_EDGE('',*,*,#992,.F.);
#1237=EDGE_LOOP('',(#1228,#1229,#1230,#1234,#1235,#1236));
#1238=FACE_OUTER_BOUND('',#1237,.T.);
#1239=ADVANCED_FACE('',(#1238),#1227,.T.);
#1240=CARTESIAN_POINT('',(-0.261885074832,0.046490784326,0.000000000000));
#1241=AXIS2_PLACEMENT_3D('',#1240,#323,#593);
#1242=PLANE('',#1241);
#1243=ORIENTED_EDGE('',*,*,#114,.T.);
#1244=ORIENTED_EDGE('',*,*,#419,.F.);
#1245=ORIENTED_EDGE('',*,*,#416,.F.);
#1246=CARTESIAN_POINT('',(-0.330673574674,-0.340998514677,0.000000000000));
#1247=LINE('',#1246,#18);
#1248=EDGE_CURVE('',#1125,#406,#1247,.T.);
#1249=ORIENTED_EDGE('',*,*,#1248,.F.);
#1250=ORIENTED_EDGE('',*,*,#1127,.F.);
#1251=ORIENTED_EDGE('',*,*,#1122,.F.);
#1252=EDGE_LOOP('',(#1243,#1244,#1245,#1249,#1250,#1251));
#1253=FACE_OUTER_BOUND('',#1252,.T.);
#1254=ADVANCED_FACE('',(#1253),#1242,.T.);
#1255=CARTESIAN_POINT('',(0.171204737685,0.203553735513,0.000000000000));
#1256=AXIS2_PLACEMENT_3D('',#1255,#563,#473);
#1257=PLANE('',#1256);
#1258=ORIENTED_EDGE('',*,*,#68,.T.);
#1259=ORIENTED_EDGE('',*,*,#659,.F.);
#1260=ORIENTED_EDGE('',*,*,#656,.F.);
#1261=CARTESIAN_POINT('',(-0.129976589026,0.456870973367,0.000000000000));
#1262=LINE('',#1261,#18);
#1263=EDGE_CURVE('',#917,#646,#1262,.T.);
#1264=ORIENTED_EDGE('',*,*,#1263,.F.);
#1265=ORIENTED_EDGE('',*,*,#919,.F.);
#1266=ORIENTED_EDGE('',*,*,#914,.F.);
#1267=EDGE_LOOP('',(#1258,#1259,#1260,#1264,#1265,#1266));
#1268=FACE_OUTER_BOUND('',#1267,.T.);
#1269=ADVANCED_FACE('',(#1268),#1257,.T.);
#1270=CARTESIAN_POINT('',(-0.261885074832,-0.046490784326,0.000000000000));
#1271=AXIS2_PLACEMENT_3D('',#1270,#575,#485);
#1272=PLANE('',#1271);
#1273=ORIENTED_EDGE('',*,*,#77,.F.);
#1274=ORIENTED_EDGE('',*,*,#1219,.F.);
#1275=ORIENTED_EDGE('',*,*,#1216,.F.);
#1276=CARTESIAN_POINT('',(-0.330673574674,0.340998514677,0.000000000000));
#1277=LINE('',#1276,#18);
#1278=EDGE_CURVE('',#1208,#311,#1277,.T.);
#1279=ORIENTED_EDGE('',*,*,#1278,.T.);
#1280=ORIENTED_EDGE('',*,*,#313,.F.);
#1281=ORIENTED_EDGE('',*,*,#308,.F.);
#1282=EDGE_LOOP('',(#1273,#1274,#1275,#1279,#1280,#1281));
#1283=FACE_OUTER_BOUND('',#1282,.T.);
#1284=ADVANCED_FACE('',(#1283),#1272,.T.);
#1285=CARTESIAN_POINT('',(0.090680337148,0.250044519840,0.000000000000));
#1286=AXIS2_PLACEMENT_3D('',#1285,#455,#365);
#1287=PLANE('',#1286);
#1288=ORIENTED_EDGE('',*,*,#238,.F.);
#1289=ORIENTED_EDGE('',*,*,#1011,.F.);
#1290=ORIENTED_EDGE('',*,*,#1008,.F.);
#1291=CARTESIAN_POINT('',(0.460650163700,0.115872458690,0.000000000000));
#1292=LINE('',#1291,#18);
#1293=EDGE_CURVE('',#1000,#551,#1292,.T.);
#1294=ORIENTED_EDGE('',*,*,#1293,.T.);
#1295=ORIENTED_EDGE('',*,*,#553,.F.);
#1296=ORIENTED_EDGE('',*,*,#548,.F.);
#1297=EDGE_LOOP('',(#1288,#1289,#1290,#1294,#1295,#1296));
#1298=FACE_OUTER_BOUND('',#1297,.T.);
#1299=ADVANCED_FACE('',(#1298),#1287,.T.);
#1300=CARTESIAN_POINT('',(0.203553735513,0.171204737685,0.000000000000));
#1301=AXIS2_PLACEMENT_3D('',#1300,#425,#335);
#1302=PLANE('',#1301);
#1303=ORIENTED_EDGE('',*,*,#169,.F.);
#1304=ORIENTED_EDGE('',*,*,#1037,.F.);
#1305=ORIENTED_EDGE('',*,*,#1034,.F.);
#1306=CARTESIAN_POINT('',(0.456870973367,-0.129976589026,0.000000000000));
#1307=LINE('',#1306,#18);
#1308=EDGE_CURVE('',#1026,#521,#1307,.T.);
#1309=ORIENTED_EDGE('',*,*,#1308,.T.);
#1310=ORIENTED_EDGE('',*,*,#523,.F.);
#1311=ORIENTED_EDGE('',*,*,#518,.F.);
#1312=EDGE_LOOP('',(#1303,#1304,#1305,#1309,#1310,#1311));
#1313=FACE_OUTER_BOUND('',#1312,.T.);
#1314=ADVANCED_FACE('',(#1313),#1302,.T.);
#1315=CARTESIAN_POINT('',(-0.203553735513,0.171204737685,0.000000000000));
#1316=AXIS2_PLACEMENT_3D('',#1315,#653,#563);
#1317=PLANE('',#1316);
#1318=ORIENTED_EDGE('',*,*,#252,.T.);
#1319=ORIENTED_EDGE('',*,*,#389,.F.);
#1320=ORIENTED_EDGE('',*,*,#386,.F.);
#1321=CARTESIAN_POINT('',(-0.456870973367,-0.129976589026,0.000000000000));
#1322=LINE('',#1321,#18);
#1323=EDGE_CURVE('',#1151,#376,#1322,.T.);
#1324=ORIENTED_EDGE('',*,*,#1323,.F.);
#1325=ORIENTED_EDGE('',*,*,#1153,.F.);
#1326=ORIENTED_EDGE('',*,*,#1148,.F.);
#1327=EDGE_LOOP('',(#1318,#1319,#1320,#1324,#1325,#1326));
#1328=FACE_OUTER_BOUND('',#1327,.T.);
#1329=ADVANCED_FACE('',(#1328),#1317,.T.);
#1330=CARTESIAN_POINT('',(0.046490784326,-0.261885074832,0.000000000000));
#1331=AXIS2_PLACEMENT_3D('',#1330,#305,#575);
#1332=PLANE('',#1331);
#1333=ORIENTED_EDGE('',*,*,#261,.F.);
#1334=ORIENTED_EDGE('',*,*,#1141,.F.);
#1335=ORIENTED_EDGE('',*,*,#1138,.F.);
#1336=CARTESIAN_POINT('',(-0.340998514677,-0.330673574674,0.000000000000));
#1337=LINE('',#1336,#18);
#1338=EDGE_CURVE('',#1130,#401,#1337,.T.);
#1339=ORIENTED_EDGE('',*,*,#1338,.T.);
#1340=ORIENTED_EDGE('',*,*,#403,.F.);
#1341=ORIENTED_EDGE('',*,*,#398,.F.);
#1342=EDGE_LOOP('',(#1333,#1334,#1335,#1339,#1340,#1341));
#1343=FACE_OUTER_BOUND('',#1342,.T.);
#1344=ADVANCED_FACE('',(#1343),#1332,.T.);
#1345=CYLINDRICAL_SURFACE('',#4,0.475000000000);
#1346=ORIENTED_EDGE('',*,*,#588,.F.);
#1347=CARTESIAN_POINT('',(0.340998514677,0.330673574674,0.000000000000));
#1348=LINE('',#1347,#18);
#1349=EDGE_CURVE('',#974,#581,#1348,.T.);
#1350=ORIENTED_EDGE('',*,*,#1349,.F.);
#1351=ORIENTED_EDGE('',*,*,#976,.T.);
#1352=CARTESIAN_POINT('',(0.330673574674,0.340998514677,0.000000000000));
#1353=LINE('',#1352,#18);
#1354=EDGE_CURVE('',#969,#586,#1353,.T.);
#1355=ORIENTED_EDGE('',*,*,#1354,.T.);
#1356=EDGE_LOOP('',(#1346,#1350,#1351,#1355));
#1357=ORIENTED_EDGE('',*,*,#558,.F.);
#1358=ORIENTED_EDGE('',*,*,#1293,.F.);
#1359=ORIENTED_EDGE('',*,*,#1002,.T.);
#1360=ORIENTED_EDGE('',*,*,#1233,.T.);
#1361=EDGE_LOOP('',(#1357,#1358,#1359,#1360));
#1362=ORIENTED_EDGE('',*,*,#348,.F.);
#1363=CARTESIAN_POINT('',(-0.456870973367,0.129976589026,0.000000000000));
#1364=LINE('',#1363,#18);
#1365=EDGE_CURVE('',#1182,#341,#1364,.T.);
#1366=ORIENTED_EDGE('',*,*,#1365,.F.);
#1367=ORIENTED_EDGE('',*,*,#1184,.T.);
#1368=CARTESIAN_POINT('',(-0.460650163700,0.115872458690,0.000000000000));
#1369=LINE('',#1368,#18);
#1370=EDGE_CURVE('',#1177,#346,#1369,.T.);
#1371=ORIENTED_EDGE('',*,*,#1370,.T.);
#1372=EDGE_LOOP('',(#1362,#1366,#1367,#1371));
#1373=ORIENTED_EDGE('',*,*,#318,.F.);
#1374=ORIENTED_EDGE('',*,*,#1278,.F.);
#1375=ORIENTED_EDGE('',*,*,#1210,.T.);
#1376=CARTESIAN_POINT('',(-0.340998514677,0.330673574674,0.000000000000));
#1377=LINE('',#1376,#18);
#1378=EDGE_CURVE('',#1203,#316,#1377,.T.);
#1379=ORIENTED_EDGE('',*,*,#1378,.T.);
#1380=EDGE_LOOP('',(#1373,#1374,#1375,#1379));
#1381=ORIENTED_EDGE('',*,*,#468,.F.);
#1382=CARTESIAN_POINT('',(0.115872458690,-0.460650163700,0.000000000000));
#1383=LINE('',#1382,#18);
#1384=EDGE_CURVE('',#1078,#461,#1383,.T.);
#1385=ORIENTED_EDGE('',*,*,#1384,.F.);
#1386=ORIENTED_EDGE('',*,*,#1080,.T.);
#1387=CARTESIAN_POINT('',(0.129976589026,-0.456870973367,0.000000000000));
#1388=LINE('',#1387,#18);
#1389=EDGE_CURVE('',#1073,#466,#1388,.T.);
#1390=ORIENTED_EDGE('',*,*,#1389,.T.);
#1391=EDGE_LOOP('',(#1381,#1385,#1386,#1390));
#1392=ORIENTED_EDGE('',*,*,#618,.F.);
#1393=CARTESIAN_POINT('',(0.129976589026,0.456870973367,0.000000000000));
#1394=LINE('',#1393,#18);
#1395=EDGE_CURVE('',#948,#611,#1394,.T.);
#1396=ORIENTED_EDGE('',*,*,#1395,.F.);
#1397=ORIENTED_EDGE('',*,*,#950,.T.);
#1398=CARTESIAN_POINT('',(0.115872458690,0.460650163700,0.000000000000));
#1399=LINE('',#1398,#18);
#1400=EDGE_CURVE('',#943,#616,#1399,.T.);
#1401=ORIENTED_EDGE('',*,*,#1400,.T.);
#1402=EDGE_LOOP('',(#1392,#1396,#1397,#1401));
#1403=ORIENTED_EDGE('',*,*,#408,.F.);
#1404=ORIENTED_EDGE('',*,*,#1338,.F.);
#1405=ORIENTED_EDGE('',*,*,#1132,.T.);
#1406=ORIENTED_EDGE('',*,*,#1248,.T.);
#1407=EDGE_LOOP('',(#1403,#1404,#1405,#1406));
#1408=ORIENTED_EDGE('',*,*,#648,.F.);
#1409=CARTESIAN_POINT('',(-0.115872458690,0.460650163700,0.000000000000));
#1410=LINE('',#1409,#18);
#1411=EDGE_CURVE('',#922,#641,#1410,.T.);
#1412=ORIENTED_EDGE('',*,*,#1411,.F.);
#1413=ORIENTED_EDGE('',*,*,#924,.T.);
#1414=ORIENTED_EDGE('',*,*,#1263,.T.);
#1415=EDGE_LOOP('',(#1408,#1412,#1413,#1414));
#1416=ORIENTED_EDGE('',*,*,#498,.F.);
#1417=CARTESIAN_POINT('',(0.330673574674,-0.340998514677,0.000000000000));
#1418=LINE('',#1417,#18);
#1419=EDGE_CURVE('',#1052,#491,#1418,.T.);
#1420=ORIENTED_EDGE('',*,*,#1419,.F.);
#1421=ORIENTED_EDGE('',*,*,#1054,.T.);
#1422=CARTESIAN_POINT('',(0.340998514677,-0.330673574674,0.000000000000));
#1423=LINE('',#1422,#18);
#1424=EDGE_CURVE('',#1047,#496,#1423,.T.);
#1425=ORIENTED_EDGE('',*,*,#1424,.T.);
#1426=EDGE_LOOP('',(#1416,#1420,#1421,#1425));
#1427=ORIENTED_EDGE('',*,*,#438,.F.);
#1428=CARTESIAN_POINT('',(-0.129976589026,-0.456870973367,0.000000000000));
#1429=LINE('',#1428,#18);
#1430=EDGE_CURVE('',#1104,#431,#1429,.T.);
#1431=ORIENTED_EDGE('',*,*,#1430,.F.);
#1432=ORIENTED_EDGE('',*,*,#1106,.T.);
#1433=CARTESIAN_POINT('',(-0.115872458690,-0.460650163700,0.000000000000));
#1434=LINE('',#1433,#18);
#1435=EDGE_CURVE('',#1099,#436,#1434,.T.);
#1436=ORIENTED_EDGE('',*,*,#1435,.T.);
#1437=EDGE_LOOP('',(#1427,#1431,#1432,#1436));
#1438=ORIENTED_EDGE('',*,*,#378,.F.);
#1439=CARTESIAN_POINT('',(-0.460650163700,-0.115872458690,0.000000000000));
#1440=LINE('',#1439,#18);
#1441=EDGE_CURVE('',#1156,#371,#1440,.T.);
#1442=ORIENTED_EDGE('',*,*,#1441,.F.);
#1443=ORIENTED_EDGE('',*,*,#1158,.T.);
#1444=ORIENTED_EDGE('',*,*,#1323,.T.);
#1445=EDGE_LOOP('',(#1438,#1442,#1443,#1444));
#1446=ORIENTED_EDGE('',*,*,#528,.F.);
#1447=ORIENTED_EDGE('',*,*,#1308,.F.);
#1448=ORIENTED_EDGE('',*,*,#1028,.T.);
#1449=CARTESIAN_POINT('',(0.460650163700,-0.115872458690,0.000000000000));
#1450=LINE('',#1449,#18);
#1451=EDGE_CURVE('',#1021,#526,#1450,.T.);
#1452=ORIENTED_EDGE('',*,*,#1451,.T.);
#1453=EDGE_LOOP('',(#1446,#1447,#1448,#1452));
#1454=FACE_BOUND('',#1356,.T.);
#1455=FACE_BOUND('',#1361,.T.);
#1456=FACE_BOUND('',#1372,.T.);
#1457=FACE_BOUND('',#1380,.T.);
#1458=FACE_BOUND('',#1391,.T.);
#1459=FACE_BOUND('',#1402,.T.);
#1460=FACE_BOUND('',#1407,.T.);
#1461=FACE_BOUND('',#1415,.T.);
#1462=FACE_BOUND('',#1426,.T.);
#1463=FACE_BOUND('',#1437,.T.);
#1464=FACE_BOUND('',#1445,.T.);
#1465=FACE_BOUND('',#1453,.T.);
#1466=ADVANCED_FACE('',(#1454,#1455,#1456,#1457,#1458,#1459,#1460,#1461,#1462,#1463,#1464,#1465),#1345,.T.);
#1467=CARTESIAN_POINT('',(0.261885074832,-0.046490784326,0.000000000000));
#1468=AXIS2_PLACEMENT_3D('',#1467,#503,#413);
#1469=PLANE('',#1468);
#1470=ORIENTED_EDGE('',*,*,#45,.T.);
#1471=ORIENTED_EDGE('',*,*,#599,.F.);
#1472=ORIENTED_EDGE('',*,*,#596,.F.);
#1473=ORIENTED_EDGE('',*,*,#1354,.F.);
#1474=ORIENTED_EDGE('',*,*,#971,.F.);
#1475=ORIENTED_EDGE('',*,*,#966,.F.);
#1476=EDGE_LOOP('',(#1470,#1471,#1472,#1473,#1474,#1475));
#1477=FACE_OUTER_BOUND('',#1476,.T.);
#1478=ADVANCED_FACE('',(#1477),#1469,.T.);
#1479=CARTESIAN_POINT('',(-0.203553735513,-0.171204737685,0.000000000000));
#1480=AXIS2_PLACEMENT_3D('',#1479,#605,#515);
#1481=PLANE('',#1480);
#1482=ORIENTED_EDGE('',*,*,#192,.F.);
#1483=ORIENTED_EDGE('',*,*,#1193,.F.);
#1484=ORIENTED_EDGE('',*,*,#1190,.F.);
#1485=ORIENTED_EDGE('',*,*,#1365,.T.);
#1486=ORIENTED_EDGE('',*,*,#343,.F.);
#1487=ORIENTED_EDGE('',*,*,#338,.F.);
#1488=EDGE_LOOP('',(#1482,#1483,#1484,#1485,#1486,#1487));
#1489=FACE_OUTER_BOUND('',#1488,.T.);
#1490=ADVANCED_FACE('',(#1489),#1481,.T.);
#1491=CARTESIAN_POINT('',(0.250044519840,0.090680337148,0.000000000000));
#1492=AXIS2_PLACEMENT_3D('',#1491,#533,#443);
#1493=PLANE('',#1492);
#1494=ORIENTED_EDGE('',*,*,#91,.T.);
#1495=ORIENTED_EDGE('',*,*,#629,.F.);
#1496=ORIENTED_EDGE('',*,*,#626,.F.);
#1497=ORIENTED_EDGE('',*,*,#1400,.F.);
#1498=ORIENTED_EDGE('',*,*,#945,.F.);
#1499=ORIENTED_EDGE('',*,*,#940,.F.);
#1500=EDGE_LOOP('',(#1494,#1495,#1496,#1497,#1498,#1499));
#1501=FACE_OUTER_BOUND('',#1500,.T.);
#1502=ADVANCED_FACE('',(#1501),#1493,.T.);
#1503=CARTESIAN_POINT('',(-0.046490784326,-0.261885074832,0.000000000000));
#1504=AXIS2_PLACEMENT_3D('',#1503,#413,#323);
#1505=PLANE('',#1504);
#1506=ORIENTED_EDGE('',*,*,#160,.T.);
#1507=ORIENTED_EDGE('',*,*,#509,.F.);
#1508=ORIENTED_EDGE('',*,*,#506,.F.);
#1509=ORIENTED_EDGE('',*,*,#1424,.F.);
#1510=ORIENTED_EDGE('',*,*,#1049,.F.);
#1511=ORIENTED_EDGE('',*,*,#1044,.F.);
#1512=EDGE_LOOP('',(#1506,#1507,#1508,#1509,#1510,#1511));
#1513=FACE_OUTER_BOUND('',#1512,.T.);
#1514=ADVANCED_FACE('',(#1513),#1505,.T.);
#1515=CARTESIAN_POINT('',(0.250044519840,-0.090680337148,0.000000000000));
#1516=AXIS2_PLACEMENT_3D('',#1515,#365,#635);
#1517=PLANE('',#1516);
#1518=ORIENTED_EDGE('',*,*,#31,.F.);
#1519=ORIENTED_EDGE('',*,*,#1089,.F.);
#1520=ORIENTED_EDGE('',*,*,#1086,.F.);
#1521=ORIENTED_EDGE('',*,*,#1384,.T.);
#1522=ORIENTED_EDGE('',*,*,#463,.F.);
#1523=ORIENTED_EDGE('',*,*,#458,.F.);
#1524=EDGE_LOOP('',(#1518,#1519,#1520,#1521,#1522,#1523));
#1525=FACE_OUTER_BOUND('',#1524,.T.);
#1526=ADVANCED_FACE('',(#1525),#1517,.T.);
#1527=CARTESIAN_POINT('',(-0.090680337148,0.250044519840,0.000000000000));
#1528=AXIS2_PLACEMENT_3D('',#1527,#623,#533);
#1529=PLANE('',#1528);
#1530=ORIENTED_EDGE('',*,*,#275,.T.);
#1531=ORIENTED_EDGE('',*,*,#359,.F.);
#1532=ORIENTED_EDGE('',*,*,#356,.F.);
#1533=ORIENTED_EDGE('',*,*,#1370,.F.);
#1534=ORIENTED_EDGE('',*,*,#1179,.F.);
#1535=ORIENTED_EDGE('',*,*,#1174,.F.);
#1536=EDGE_LOOP('',(#1530,#1531,#1532,#1533,#1534,#1535));
#1537=FACE_OUTER_BOUND('',#1536,.T.);
#1538=ADVANCED_FACE('',(#1537),#1529,.T.);
#1539=CARTESIAN_POINT('',(-0.046490784326,0.261885074832,0.000000000000));
#1540=AXIS2_PLACEMENT_3D('',#1539,#485,#395);
#1541=PLANE('',#1540);
#1542=ORIENTED_EDGE('',*,*,#146,.F.);
#1543=ORIENTED_EDGE('',*,*,#985,.F.);
#1544=ORIENTED_EDGE('',*,*,#982,.F.);
#1545=ORIENTED_EDGE('',*,*,#1349,.T.);
#1546=ORIENTED_EDGE('',*,*,#583,.F.);
#1547=ORIENTED_EDGE('',*,*,#578,.F.);
#1548=EDGE_LOOP('',(#1542,#1543,#1544,#1545,#1546,#1547));
#1549=FACE_OUTER_BOUND('',#1548,.T.);
#1550=ADVANCED_FACE('',(#1549),#1541,.T.);
#1551=CARTESIAN_POINT('',(-0.090680337148,-0.250044519840,0.000000000000));
#1552=AXIS2_PLACEMENT_3D('',#1551,#635,#545);
#1553=PLANE('',#1552);
#1554=ORIENTED_EDGE('',*,*,#284,.F.);
#1555=ORIENTED_EDGE('',*,*,#1167,.F.);
#1556=ORIENTED_EDGE('',*,*,#1164,.F.);
#1557=ORIENTED_EDGE('',*,*,#1441,.T.);
#1558=ORIENTED_EDGE('',*,*,#373,.F.);
#1559=ORIENTED_EDGE('',*,*,#368,.F.);
#1560=EDGE_LOOP('',(#1554,#1555,#1556,#1557,#1558,#1559));
#1561=FACE_OUTER_BOUND('',#1560,.T.);
#1562=ADVANCED_FACE('',(#1561),#1553,.T.);
#1563=CARTESIAN_POINT('',(-0.171204737685,0.203553735513,0.000000000000));
#1564=AXIS2_PLACEMENT_3D('',#1563,#515,#425);
#1565=PLANE('',#1564);
#1566=ORIENTED_EDGE('',*,*,#54,.F.);
#1567=ORIENTED_EDGE('',*,*,#959,.F.);
#1568=ORIENTED_EDGE('',*,*,#956,.F.);
#1569=ORIENTED_EDGE('',*,*,#1395,.T.);
#1570=ORIENTED_EDGE('',*,*,#613,.F.);
#1571=ORIENTED_EDGE('',*,*,#608,.F.);
#1572=EDGE_LOOP('',(#1566,#1567,#1568,#1569,#1570,#1571));
#1573=FACE_OUTER_BOUND('',#1572,.T.);
#1574=ADVANCED_FACE('',(#1573),#1565,.T.);
#1575=CARTESIAN_POINT('',(0.046490784326,0.261885074832,0.000000000000));
#1576=AXIS2_PLACEMENT_3D('',#1575,#593,#503);
#1577=PLANE('',#1576);
#1578=ORIENTED_EDGE('',*,*,#183,.T.);
#1579=ORIENTED_EDGE('',*,*,#329,.F.);
#1580=ORIENTED_EDGE('',*,*,#326,.F.);
#1581=ORIENTED_EDGE('',*,*,#1378,.F.);
#1582=ORIENTED_EDGE('',*,*,#1205,.F.);
#1583=ORIENTED_EDGE('',*,*,#1200,.F.);
#1584=EDGE_LOOP('',(#1578,#1579,#1580,#1581,#1582,#1583));
#1585=FACE_OUTER_BOUND('',#1584,.T.);
#1586=ADVANCED_FACE('',(#1585),#1577,.T.);
#1587=CARTESIAN_POINT('',(-0.250044519840,0.090680337148,0.000000000000));
#1588=AXIS2_PLACEMENT_3D('',#1587,#545,#455);
#1589=PLANE('',#1588);
#1590=ORIENTED_EDGE('',*,*,#100,.F.);
#1591=ORIENTED_EDGE('',*,*,#933,.F.);
#1592=ORIENTED_EDGE('',*,*,#930,.F.);
#1593=ORIENTED_EDGE('',*,*,#1411,.T.);
#1594=ORIENTED_EDGE('',*,*,#643,.F.);
#1595=ORIENTED_EDGE('',*,*,#638,.F.);
#1596=EDGE_LOOP('',(#1590,#1591,#1592,#1593,#1594,#1595));
#1597=FACE_OUTER_BOUND('',#1596,.T.);
#1598=ADVANCED_FACE('',(#1597),#1589,.T.);
#1599=CARTESIAN_POINT('',(0.000000000000,0.000000000000,-0.540000000000));
#1600=AXIS2_PLACEMENT_3D('',#1599,#2,#3);
#1601=CYLINDRICAL_SURFACE('',#1600,0.450000000000);
#1602=ORIENTED_EDGE('',*,*,#673,.F.);
#1603=ORIENTED_EDGE('',*,*,#906,.F.);
#1604=ORIENTED_EDGE('',*,*,#903,.F.);
#1605=ORIENTED_EDGE('',*,*,#898,.F.);
#1606=ORIENTED_EDGE('',*,*,#893,.F.);
#1607=ORIENTED_EDGE('',*,*,#888,.F.);
#1608=ORIENTED_EDGE('',*,*,#883,.F.);
#1609=ORIENTED_EDGE('',*,*,#878,.F.);
#1610=ORIENTED_EDGE('',*,*,#873,.F.);
#1611=ORIENTED_EDGE('',*,*,#868,.F.);
#1612=ORIENTED_EDGE('',*,*,#863,.F.);
#1613=ORIENTED_EDGE('',*,*,#858,.F.);
#1614=ORIENTED_EDGE('',*,*,#853,.F.);
#1615=ORIENTED_EDGE('',*,*,#848,.F.);
#1616=ORIENTED_EDGE('',*,*,#843,.F.);
#1617=ORIENTED_EDGE('',*,*,#838,.F.);
#1618=ORIENTED_EDGE('',*,*,#833,.F.);
#1619=ORIENTED_EDGE('',*,*,#828,.F.);
#1620=ORIENTED_EDGE('',*,*,#823,.F.);
#1621=ORIENTED_EDGE('',*,*,#818,.F.);
#1622=ORIENTED_EDGE('',*,*,#813,.F.);
#1623=ORIENTED_EDGE('',*,*,#808,.F.);
#1624=ORIENTED_EDGE('',*,*,#803,.F.);
#1625=ORIENTED_EDGE('',*,*,#798,.F.);
#1626=ORIENTED_EDGE('',*,*,#793,.F.);
#1627=ORIENTED_EDGE('',*,*,#788,.F.);
#1628=ORIENTED_EDGE('',*,*,#783,.F.);
#1629=ORIENTED_EDGE('',*,*,#778,.F.);
#1630=ORIENTED_EDGE('',*,*,#773,.F.);
#1631=ORIENTED_EDGE('',*,*,#768,.F.);
#1632=ORIENTED_EDGE('',*,*,#763,.F.);
#1633=ORIENTED_EDGE('',*,*,#758,.F.);
#1634=ORIENTED_EDGE('',*,*,#753,.F.);
#1635=ORIENTED_EDGE('',*,*,#748,.F.);
#1636=ORIENTED_EDGE('',*,*,#743,.F.);
#1637=ORIENTED_EDGE('',*,*,#738,.F.);
#1638=ORIENTED_EDGE('',*,*,#733,.F.);
#1639=ORIENTED_EDGE('',*,*,#728,.F.);
#1640=ORIENTED_EDGE('',*,*,#723,.F.);
#1641=ORIENTED_EDGE('',*,*,#718,.F.);
#1642=ORIENTED_EDGE('',*,*,#713,.F.);
#1643=ORIENTED_EDGE('',*,*,#708,.F.);
#1644=ORIENTED_EDGE('',*,*,#703,.F.);
#1645=ORIENTED_EDGE('',*,*,#698,.F.);
#1646=ORIENTED_EDGE('',*,*,#693,.F.);
#1647=ORIENTED_EDGE('',*,*,#688,.F.);
#1648=ORIENTED_EDGE('',*,*,#683,.F.);
#1649=ORIENTED_EDGE('',*,*,#678,.F.);
#1650=EDGE_LOOP('',(#1602,#1603,#1604,#1605,#1606,#1607,#1608,#1609,#1610,#1611,#1612,#1613,#1614,#1615,#1616,#1617,#1618,#1619,#1620,#1621,#1622,#1623,#1624,#1625,#1626,#1627,#1628,#1629,#1630,#1631,#1632,#1633,#1634,#1635,#1636,#1637,#1638,#1639,#1640,#1641,#1642,#1643,#1644,#1645,#1646,#1647,#1648,#1649));
#1651=CARTESIAN_POINT('',(-0.030088084660,0.448992992330,-1.190000000000));
#1652=VERTEX_POINT('',#1651);
#1653=CARTESIAN_POINT('',(-0.106583516961,0.437195555687,-1.190000000000));
#1654=VERTEX_POINT('',#1653);
#1655=CARTESIAN_POINT('',(0.000000000000,0.000000000000,-1.190000000000));
#1656=AXIS2_PLACEMENT_3D('',#1655,#2,#3);
#1657=CIRCLE('',#1656,0.450000000000);
#1658=EDGE_CURVE('',#1652,#1654,#1657,.T.);
#1659=ORIENTED_EDGE('',*,*,#1658,.T.);
#1660=CARTESIAN_POINT('',(-0.126293744531,0.431914216127,-1.190000000000));
#1661=VERTEX_POINT('',#1660);
#1662=CIRCLE('',#1656,0.450000000000);
#1663=EDGE_CURVE('',#1654,#1661,#1662,.T.);
#1664=ORIENTED_EDGE('',*,*,#1663,.T.);
#1665=CARTESIAN_POINT('',(-0.198439450498,0.403883379809,-1.190000000000));
#1666=VERTEX_POINT('',#1665);
#1667=CIRCLE('',#1656,0.450000000000);
#1668=EDGE_CURVE('',#1661,#1666,#1667,.T.);
#1669=ORIENTED_EDGE('',*,*,#1668,.T.);
#1670=CARTESIAN_POINT('',(-0.250553541832,0.373795295149,-1.190000000000));
#1671=VERTEX_POINT('',#1670);
#1672=CIRCLE('',#1656,0.450000000000);
#1673=EDGE_CURVE('',#1666,#1671,#1672,.T.);
#1674=ORIENTED_EDGE('',*,*,#1673,.T.);
#1675=CARTESIAN_POINT('',(-0.310901811156,0.325330699166,-1.190000000000));
#1676=VERTEX_POINT('',#1675);
#1677=CIRCLE('',#1656,0.450000000000);
#1678=EDGE_CURVE('',#1671,#1676,#1677,.T.);
#1679=ORIENTED_EDGE('',*,*,#1678,.T.);
#1680=CARTESIAN_POINT('',(-0.325330699166,0.310901811156,-1.190000000000));
#1681=VERTEX_POINT('',#1680);
#1682=CIRCLE('',#1656,0.450000000000);
#1683=EDGE_CURVE('',#1676,#1681,#1682,.T.);
#1684=ORIENTED_EDGE('',*,*,#1683,.T.);
#1685=CARTESIAN_POINT('',(-0.373795295149,0.250553541832,-1.190000000000));
#1686=VERTEX_POINT('',#1685);
#1687=CIRCLE('',#1656,0.450000000000);
#1688=EDGE_CURVE('',#1681,#1686,#1687,.T.);
#1689=ORIENTED_EDGE('',*,*,#1688,.T.);
#1690=CARTESIAN_POINT('',(-0.403883379809,0.198439450498,-1.190000000000));
#1691=VERTEX_POINT('',#1690);
#1692=CIRCLE('',#1656,0.450000000000);
#1693=EDGE_CURVE('',#1686,#1691,#1692,.T.);
#1694=ORIENTED_EDGE('',*,*,#1693,.T.);
#1695=CARTESIAN_POINT('',(-0.431914216127,0.126293744531,-1.190000000000));
#1696=VERTEX_POINT('',#1695);
#1697=CIRCLE('',#1656,0.450000000000);
#1698=EDGE_CURVE('',#1691,#1696,#1697,.T.);
#1699=ORIENTED_EDGE('',*,*,#1698,.T.);
#1700=CARTESIAN_POINT('',(-0.437195555687,0.106583516961,-1.190000000000));
#1701=VERTEX_POINT('',#1700);
#1702=CIRCLE('',#1656,0.450000000000);
#1703=EDGE_CURVE('',#1696,#1701,#1702,.T.);
#1704=ORIENTED_EDGE('',*,*,#1703,.T.);
#1705=CARTESIAN_POINT('',(-0.448992992330,0.030088084660,-1.190000000000));
#1706=VERTEX_POINT('',#1705);
#1707=CIRCLE('',#1656,0.450000000000);
#1708=EDGE_CURVE('',#1701,#1706,#1707,.T.);
#1709=ORIENTED_EDGE('',*,*,#1708,.T.);
#1710=CARTESIAN_POINT('',(-0.448992992330,-0.030088084660,-1.190000000000));
#1711=VERTEX_POINT('',#1710);
#1712=CIRCLE('',#1656,0.450000000000);
#1713=EDGE_CURVE('',#1706,#1711,#1712,.T.);
#1714=ORIENTED_EDGE('',*,*,#1713,.T.);
#1715=CARTESIAN_POINT('',(-0.437195555687,-0.106583516961,-1.190000000000));
#1716=VERTEX_POINT('',#1715);
#1717=CIRCLE('',#1656,0.450000000000);
#1718=EDGE_CURVE('',#1711,#1716,#1717,.T.);
#1719=ORIENTED_EDGE('',*,*,#1718,.T.);
#1720=CARTESIAN_POINT('',(-0.431914216127,-0.126293744531,-1.190000000000));
#1721=VERTEX_POINT('',#1720);
#1722=CIRCLE('',#1656,0.450000000000);
#1723=EDGE_CURVE('',#1716,#1721,#1722,.T.);
#1724=ORIENTED_EDGE('',*,*,#1723,.T.);
#1725=CARTESIAN_POINT('',(-0.403883379809,-0.198439450498,-1.190000000000));
#1726=VERTEX_POINT('',#1725);
#1727=CIRCLE('',#1656,0.450000000000);
#1728=EDGE_CURVE('',#1721,#1726,#1727,.T.);
#1729=ORIENTED_EDGE('',*,*,#1728,.T.);
#1730=CARTESIAN_POINT('',(-0.373795295149,-0.250553541832,-1.190000000000));
#1731=VERTEX_POINT('',#1730);
#1732=CIRCLE('',#1656,0.450000000000);
#1733=EDGE_CURVE('',#1726,#1731,#1732,.T.);
#1734=ORIENTED_EDGE('',*,*,#1733,.T.);
#1735=CARTESIAN_POINT('',(-0.325330699166,-0.310901811156,-1.190000000000));
#1736=VERTEX_POINT('',#1735);
#1737=CIRCLE('',#1656,0.450000000000);
#1738=EDGE_CURVE('',#1731,#1736,#1737,.T.);
#1739=ORIENTED_EDGE('',*,*,#1738,.T.);
#1740=CARTESIAN_POINT('',(-0.310901811156,-0.325330699166,-1.190000000000));
#1741=VERTEX_POINT('',#1740);
#1742=CIRCLE('',#1656,0.450000000000);
#1743=EDGE_CURVE('',#1736,#1741,#1742,.T.);
#1744=ORIENTED_EDGE('',*,*,#1743,.T.);
#1745=CARTESIAN_POINT('',(-0.250553541832,-0.373795295149,-1.190000000000));
#1746=VERTEX_POINT('',#1745);
#1747=CIRCLE('',#1656,0.450000000000);
#1748=EDGE_CURVE('',#1741,#1746,#1747,.T.);
#1749=ORIENTED_EDGE('',*,*,#1748,.T.);
#1750=CARTESIAN_POINT('',(-0.198439450498,-0.403883379809,-1.190000000000));
#1751=VERTEX_POINT('',#1750);
#1752=CIRCLE('',#1656,0.450000000000);
#1753=EDGE_CURVE('',#1746,#1751,#1752,.T.);
#1754=ORIENTED_EDGE('',*,*,#1753,.T.);
#1755=CARTESIAN_POINT('',(-0.126293744531,-0.431914216127,-1.190000000000));
#1756=VERTEX_POINT('',#1755);
#1757=CIRCLE('',#1656,0.450000000000);
#1758=EDGE_CURVE('',#1751,#1756,#1757,.T.);
#1759=ORIENTED_EDGE('',*,*,#1758,.T.);
#1760=CARTESIAN_POINT('',(-0.106583516961,-0.437195555687,-1.190000000000));
#1761=VERTEX_POINT('',#1760);
#1762=CIRCLE('',#1656,0.450000000000);
#1763=EDGE_CURVE('',#1756,#1761,#1762,.T.);
#1764=ORIENTED_EDGE('',*,*,#1763,.T.);
#1765=CARTESIAN_POINT('',(-0.030088084660,-0.448992992330,-1.190000000000));
#1766=VERTEX_POINT('',#1765);
#1767=CIRCLE('',#1656,0.450000000000);
#1768=EDGE_CURVE('',#1761,#1766,#1767,.T.);
#1769=ORIENTED_EDGE('',*,*,#1768,.T.);
#1770=CARTESIAN_POINT('',(0.030088084660,-0.448992992330,-1.190000000000));
#1771=VERTEX_POINT('',#1770);
#1772=CIRCLE('',#1656,0.450000000000);
#1773=EDGE_CURVE('',#1766,#1771,#1772,.T.);
#1774=ORIENTED_EDGE('',*,*,#1773,.T.);
#1775=CARTESIAN_POINT('',(0.106583516961,-0.437195555687,-1.190000000000));
#1776=VERTEX_POINT('',#1775);
#1777=CIRCLE('',#1656,0.450000000000);
#1778=EDGE_CURVE('',#1771,#1776,#1777,.T.);
#1779=ORIENTED_EDGE('',*,*,#1778,.T.);
#1780=CARTESIAN_POINT('',(0.126293744531,-0.431914216127,-1.190000000000));
#1781=VERTEX_POINT('',#1780);
#1782=CIRCLE('',#1656,0.450000000000);
#1783=EDGE_CURVE('',#1776,#1781,#1782,.T.);
#1784=ORIENTED_EDGE('',*,*,#1783,.T.);
#1785=CARTESIAN_POINT('',(0.198439450498,-0.403883379809,-1.190000000000));
#1786=VERTEX_POINT('',#1785);
#1787=CIRCLE('',#1656,0.450000000000);
#1788=EDGE_CURVE('',#1781,#1786,#1787,.T.);
#1789=ORIENTED_EDGE('',*,*,#1788,.T.);
#1790=CARTESIAN_POINT('',(0.250553541832,-0.373795295149,-1.190000000000));
#1791=VERTEX_POINT('',#1790);
#1792=CIRCLE('',#1656,0.450000000000);
#1793=EDGE_CURVE('',#1786,#1791,#1792,.T.);
#1794=ORIENTED_EDGE('',*,*,#1793,.T.);
#1795=CARTESIAN_POINT('',(0.310901811156,-0.325330699166,-1.190000000000));
#1796=VERTEX_POINT('',#1795);
#1797=CIRCLE('',#1656,0.450000000000);
#1798=EDGE_CURVE('',#1791,#1796,#1797,.T.);
#1799=ORIENTED_EDGE('',*,*,#1798,.T.);
#1800=CARTESIAN_POINT('',(0.325330699166,-0.310901811156,-1.190000000000));
#1801=VERTEX_POINT('',#1800);
#1802=CIRCLE('',#1656,0.450000000000);
#1803=EDGE_CURVE('',#1796,#1801,#1802,.T.);
#1804=ORIENTED_EDGE('',*,*,#1803,.T.);
#1805=CARTESIAN_POINT('',(0.373795295149,-0.250553541832,-1.190000000000));
#1806=VERTEX_POINT('',#1805);
#1807=CIRCLE('',#1656,0.450000000000);
#1808=EDGE_CURVE('',#1801,#1806,#1807,.T.);
#1809=ORIENTED_EDGE('',*,*,#1808,.T.);
#1810=CARTESIAN_POINT('',(0.403883379809,-0.198439450498,-1.190000000000));
#1811=VERTEX_POINT('',#1810);
#1812=CIRCLE('',#1656,0.450000000000);
#1813=EDGE_CURVE('',#1806,#1811,#1812,.T.);
#1814=ORIENTED_EDGE('',*,*,#1813,.T.);
#1815=CARTESIAN_POINT('',(0.431914216127,-0.126293744531,-1.190000000000));
#1816=VERTEX_POINT('',#1815);
#1817=CIRCLE('',#1656,0.450000000000);
#1818=EDGE_CURVE('',#1811,#1816,#1817,.T.);
#1819=ORIENTED_EDGE('',*,*,#1818,.T.);
#1820=CARTESIAN_POINT('',(0.437195555687,-0.106583516961,-1.190000000000));
#1821=VERTEX_POINT('',#1820);
#1822=CIRCLE('',#1656,0.450000000000);
#1823=EDGE_CURVE('',#1816,#1821,#1822,.T.);
#1824=ORIENTED_EDGE('',*,*,#1823,.T.);
#1825=CARTESIAN_POINT('',(0.448992992330,-0.030088084660,-1.190000000000));
#1826=VERTEX_POINT('',#1825);
#1827=CIRCLE('',#1656,0.450000000000);
#1828=EDGE_CURVE('',#1821,#1826,#1827,.T.);
#1829=ORIENTED_EDGE('',*,*,#1828,.T.);
#1830=CARTESIAN_POINT('',(0.448992992330,0.030088084660,-1.190000000000));
#1831=VERTEX_POINT('',#1830);
#1832=CIRCLE('',#1656,0.450000000000);
#1833=EDGE_CURVE('',#1826,#1831,#1832,.T.);
#1834=ORIENTED_EDGE('',*,*,#1833,.T.);
#1835=CARTESIAN_POINT('',(0.437195555687,0.106583516961,-1.190000000000));
#1836=VERTEX_POINT('',#1835);
#1837=CIRCLE('',#1656,0.450000000000);
#1838=EDGE_CURVE('',#1831,#1836,#1837,.T.);
#1839=ORIENTED_EDGE('',*,*,#1838,.T.);
#1840=CARTESIAN_POINT('',(0.431914216127,0.126293744531,-1.190000000000));
#1841=VERTEX_POINT('',#1840);
#1842=CIRCLE('',#1656,0.450000000000);
#1843=EDGE_CURVE('',#1836,#1841,#1842,.T.);
#1844=ORIENTED_EDGE('',*,*,#1843,.T.);
#1845=CARTESIAN_POINT('',(0.403883379809,0.198439450498,-1.190000000000));
#1846=VERTEX_POINT('',#1845);
#1847=CIRCLE('',#1656,0.450000000000);
#1848=EDGE_CURVE('',#1841,#1846,#1847,.T.);
#1849=ORIENTED_EDGE('',*,*,#1848,.T.);
#1850=CARTESIAN_POINT('',(0.373795295149,0.250553541832,-1.190000000000));
#1851=VERTEX_POINT('',#1850);
#1852=CIRCLE('',#1656,0.450000000000);
#1853=EDGE_CURVE('',#1846,#1851,#1852,.T.);
#1854=ORIENTED_EDGE('',*,*,#1853,.T.);
#1855=CARTESIAN_POINT('',(0.325330699166,0.310901811156,-1.190000000000));
#1856=VERTEX_POINT('',#1855);
#1857=CIRCLE('',#1656,0.450000000000);
#1858=EDGE_CURVE('',#1851,#1856,#1857,.T.);
#1859=ORIENTED_EDGE('',*,*,#1858,.T.);
#1860=CARTESIAN_POINT('',(0.310901811156,0.325330699166,-1.190000000000));
#1861=VERTEX_POINT('',#1860);
#1862=CIRCLE('',#1656,0.450000000000);
#1863=EDGE_CURVE('',#1856,#1861,#1862,.T.);
#1864=ORIENTED_EDGE('',*,*,#1863,.T.);
#1865=CARTESIAN_POINT('',(0.250553541832,0.373795295149,-1.190000000000));
#1866=VERTEX_POINT('',#1865);
#1867=CIRCLE('',#1656,0.450000000000);
#1868=EDGE_CURVE('',#1861,#1866,#1867,.T.);
#1869=ORIENTED_EDGE('',*,*,#1868,.T.);
#1870=CARTESIAN_POINT('',(0.198439450498,0.403883379809,-1.190000000000));
#1871=VERTEX_POINT('',#1870);
#1872=CIRCLE('',#1656,0.450000000000);
#1873=EDGE_CURVE('',#1866,#1871,#1872,.T.);
#1874=ORIENTED_EDGE('',*,*,#1873,.T.);
#1875=CARTESIAN_POINT('',(0.126293744531,0.431914216127,-1.190000000000));
#1876=VERTEX_POINT('',#1875);
#1877=CIRCLE('',#1656,0.450000000000);
#1878=EDGE_CURVE('',#1871,#1876,#1877,.T.);
#1879=ORIENTED_EDGE('',*,*,#1878,.T.);
#1880=CARTESIAN_POINT('',(0.106583516961,0.437195555687,-1.190000000000));
#1881=VERTEX_POINT('',#1880);
#1882=CIRCLE('',#1656,0.450000000000);
#1883=EDGE_CURVE('',#1876,#1881,#1882,.T.);
#1884=ORIENTED_EDGE('',*,*,#1883,.T.);
#1885=CARTESIAN_POINT('',(0.030088084660,0.448992992330,-1.190000000000));
#1886=VERTEX_POINT('',#1885);
#1887=CIRCLE('',#1656,0.450000000000);
#1888=EDGE_CURVE('',#1881,#1886,#1887,.T.);
#1889=ORIENTED_EDGE('',*,*,#1888,.T.);
#1890=CIRCLE('',#1656,0.450000000000);
#1891=EDGE_CURVE('',#1886,#1652,#1890,.T.);
#1892=ORIENTED_EDGE('',*,*,#1891,.T.);
#1893=EDGE_LOOP('',(#1659,#1664,#1669,#1674,#1679,#1684,#1689,#1694,#1699,#1704,#1709,#1714,#1719,#1724,#1729,#1734,#1739,#1744,#1749,#1754,#1759,#1764,#1769,#1774,#1779,#1784,#1789,#1794,#1799,#1804,#1809,#1814,#1819,#1824,#1829,#1834,#1839,#1844,#1849,#1854,#1859,#1864,#1869,#1874,#1879,#1884,#1889,#1892));
#1894=FACE_BOUND('',#1650,.T.);
#1895=FACE_BOUND('',#1893,.T.);
#1896=ADVANCED_FACE('',(#1894,#1895),#1601,.T.);
#1897=AXIS2_PLACEMENT_3D('',#1655,#664,#665);
#1898=PLANE('',#1897);
#1899=ORIENTED_EDGE('',*,*,#1658,.F.);
#1900=ORIENTED_EDGE('',*,*,#1891,.F.);
#1901=ORIENTED_EDGE('',*,*,#1888,.F.);
#1902=ORIENTED_EDGE('',*,*,#1883,.F.);
#1903=ORIENTED_EDGE('',*,*,#1878,.F.);
#1904=ORIENTED_EDGE('',*,*,#1873,.F.);
#1905=ORIENTED_EDGE('',*,*,#1868,.F.);
#1906=ORIENTED_EDGE('',*,*,#1863,.F.);
#1907=ORIENTED_EDGE('',*,*,#1858,.F.);
#1908=ORIENTED_EDGE('',*,*,#1853,.F.);
#1909=ORIENTED_EDGE('',*,*,#1848,.F.);
#1910=ORIENTED_EDGE('',*,*,#1843,.F.);
#1911=ORIENTED_EDGE('',*,*,#1838,.F.);
#1912=ORIENTED_EDGE('',*,*,#1833,.F.);
#1913=ORIENTED_EDGE('',*,*,#1828,.F.);
#1914=ORIENTED_EDGE('',*,*,#1823,.F.);
#1915=ORIENTED_EDGE('',*,*,#1818,.F.);
#1916=ORIENTED_EDGE('',*,*,#1813,.F.);
#1917=ORIENTED_EDGE('',*,*,#1808,.F.);
#1918=ORIENTED_EDGE('',*,*,#1803,.F.);
#1919=ORIENTED_EDGE('',*,*,#1798,.F.);
#1920=ORIENTED_EDGE('',*,*,#1793,.F.);
#1921=ORIENTED_EDGE('',*,*,#1788,.F.);
#1922=ORIENTED_EDGE('',*,*,#1783,.F.);
#1923=ORIENTED_EDGE('',*,*,#1778,.F.);
#1924=ORIENTED_EDGE('',*,*,#1773,.F.);
#1925=ORIENTED_EDGE('',*,*,#1768,.F.);
#1926=ORIENTED_EDGE('',*,*,#1763,.F.);
#1927=ORIENTED_EDGE('',*,*,#1758,.F.);
#1928=ORIENTED_EDGE('',*,*,#1753,.F.);
#1929=ORIENTED_EDGE('',*,*,#1748,.F.);
#1930=ORIENTED_EDGE('',*,*,#1743,.F.);
#1931=ORIENTED_EDGE('',*,*,#1738,.F.);
#1932=ORIENTED_EDGE('',*,*,#1733,.F.);
#1933=ORIENTED_EDGE('',*,*,#1728,.F.);
#1934=ORIENTED_EDGE('',*,*,#1723,.F.);
#1935=ORIENTED_EDGE('',*,*,#1718,.F.);
#1936=ORIENTED_EDGE('',*,*,#1713,.F.);
#1937=ORIENTED_EDGE('',*,*,#1708,.F.);
#1938=ORIENTED_EDGE('',*,*,#1703,.F.);
#1939=ORIENTED_EDGE('',*,*,#1698,.F.);
#1940=ORIENTED_EDGE('',*,*,#1693,.F.);
#1941=ORIENTED_EDGE('',*,*,#1688,.F.);
#1942=ORIENTED_EDGE('',*,*,#1683,.F.);
#1943=ORIENTED_EDGE('',*,*,#1678,.F.);
#1944=ORIENTED_EDGE('',*,*,#1673,.F.);
#1945=ORIENTED_EDGE('',*,*,#1668,.F.);
#1946=ORIENTED_EDGE('',*,*,#1663,.F.);
#1947=EDGE_LOOP('',(#1899,#1900,#1901,#1902,#1903,#1904,#1905,#1906,#1907,#1908,#1909,#1910,#1911,#1912,#1913,#1914,#1915,#1916,#1917,#1918,#1919,#1920,#1921,#1922,#1923,#1924,#1925,#1926,#1927,#1928,#1929,#1930,#1931,#1932,#1933,#1934,#1935,#1936,#1937,#1938,#1939,#1940,#1941,#1942,#1943,#1944,#1945,#1946));
#1948=FACE_OUTER_BOUND('',#1947,.T.);
#1949=ADVANCED_FACE('',(#1948),#1898,.T.);
#1950=CARTESIAN_POINT('',(-0.250044519840,-0.090680337148,0.000000000000));
#1951=AXIS2_PLACEMENT_3D('',#1950,#353,#623);
#1952=PLANE('',#1951);
#1953=ORIENTED_EDGE('',*,*,#20,.T.);
#1954=ORIENTED_EDGE('',*,*,#449,.F.);
#1955=ORIENTED_EDGE('',*,*,#446,.F.);
#1956=ORIENTED_EDGE('',*,*,#1435,.F.);
#1957=ORIENTED_EDGE('',*,*,#1101,.F.);
#1958=ORIENTED_EDGE('',*,*,#1096,.F.);
#1959=EDGE_LOOP('',(#1953,#1954,#1955,#1956,#1957,#1958));
#1960=FACE_OUTER_BOUND('',#1959,.T.);
#1961=ADVANCED_FACE('',(#1960),#1952,.T.);
#1962=CARTESIAN_POINT('',(0.090680337148,-0.250044519840,0.000000000000));
#1963=AXIS2_PLACEMENT_3D('',#1962,#443,#353);
#1964=PLANE('',#1963);
#1965=ORIENTED_EDGE('',*,*,#229,.T.);
#1966=ORIENTED_EDGE('',*,*,#539,.F.);
#1967=ORIENTED_EDGE('',*,*,#536,.F.);
#1968=ORIENTED_EDGE('',*,*,#1451,.F.);
#1969=ORIENTED_EDGE('',*,*,#1023,.F.);
#1970=ORIENTED_EDGE('',*,*,#1018,.F.);
#1971=EDGE_LOOP('',(#1965,#1966,#1967,#1968,#1969,#1970));
#1972=FACE_OUTER_BOUND('',#1971,.T.);
#1973=ADVANCED_FACE('',(#1972),#1964,.T.);
#1974=CARTESIAN_POINT('',(0.171204737685,-0.203553735513,0.000000000000));
#1975=AXIS2_PLACEMENT_3D('',#1974,#335,#605);
#1976=PLANE('',#1975);
#1977=ORIENTED_EDGE('',*,*,#123,.F.);
#1978=ORIENTED_EDGE('',*,*,#1115,.F.);
#1979=ORIENTED_EDGE('',*,*,#1112,.F.);
#1980=ORIENTED_EDGE('',*,*,#1430,.T.);
#1981=ORIENTED_EDGE('',*,*,#433,.F.);
#1982=ORIENTED_EDGE('',*,*,#428,.F.);
#1983=EDGE_LOOP('',(#1977,#1978,#1979,#1980,#1981,#1982));
#1984=FACE_OUTER_BOUND('',#1983,.T.);
#1985=ADVANCED_FACE('',(#1984),#1976,.T.);
#1986=CARTESIAN_POINT('',(-0.171204737685,-0.203553735513,0.000000000000));
#1987=AXIS2_PLACEMENT_3D('',#1986,#383,#653);
#1988=PLANE('',#1987);
#1989=ORIENTED_EDGE('',*,*,#206,.T.);
#1990=ORIENTED_EDGE('',*,*,#479,.F.);
#1991=ORIENTED_EDGE('',*,*,#476,.F.);
#1992=ORIENTED_EDGE('',*,*,#1389,.F.);
#1993=ORIENTED_EDGE('',*,*,#1075,.F.);
#1994=ORIENTED_EDGE('',*,*,#1070,.F.);
#1995=EDGE_LOOP('',(#1989,#1990,#1991,#1992,#1993,#1994));
#1996=FACE_OUTER_BOUND('',#1995,.T.);
#1997=ADVANCED_FACE('',(#1996),#1988,.T.);
#1998=CARTESIAN_POINT('',(0.261885074832,0.046490784326,0.000000000000));
#1999=AXIS2_PLACEMENT_3D('',#1998,#395,#305);
#2000=PLANE('',#1999);
#2001=ORIENTED_EDGE('',*,*,#215,.F.);
#2002=ORIENTED_EDGE('',*,*,#1063,.F.);
#2003=ORIENTED_EDGE('',*,*,#1060,.F.);
#2004=ORIENTED_EDGE('',*,*,#1419,.T.);
#2005=ORIENTED_EDGE('',*,*,#493,.F.);
#2006=ORIENTED_EDGE('',*,*,#488,.F.);
#2007=EDGE_LOOP('',(#2001,#2002,#2003,#2004,#2005,#2006));
#2008=FACE_OUTER_BOUND('',#2007,.T.);
#2009=ADVANCED_FACE('',(#2008),#2000,.T.);
#2010=CLOSED_SHELL('',(#299,#663,#1224,#1239,#1254,#1269,#1284,#1299,#1314,#1329,#1344,#1466,#1478,#1490,#1502,#1514,#1526,#1538,#1550,#1562,#1574,#1586,#1598,#1896,#1949,#1961,#1973,#1985,#1997,#2009));
#2011=MANIFOLD_SOLID_BREP('dial_side',#2010);
#2012=APPLICATION_CONTEXT('core data for automotive mechanical design processes');
#2013=APPLICATION_PROTOCOL_DEFINITION('international standard','automotive_design',2000,#2012);
#2014=PRODUCT_CONTEXT('',#2012,'mechanical');
#2015=PRODUCT('dial_side','dial_side','',(#2014));
#2016=PRODUCT_DEFINITION_FORMATION('','',#2015);
#2017=PRODUCT_DEFINITION_CONTEXT('part definition',#2012,'design');
#2018=PRODUCT_DEFINITION('','',#2016,#2017);
#2019=PRODUCT_DEFINITION_SHAPE('','',#2018);
#2020=(LENGTH_UNIT()NAMED_UNIT(*)SI_UNIT(.MILLI.,.METRE.));
#2021=(NAMED_UNIT(*)PLANE_ANGLE_UNIT()SI_UNIT($,.RADIAN.));
#2022=(NAMED_UNIT(*)SI_UNIT($,.STERADIAN.)SOLID_ANGLE_UNIT());
#2023=UNCERTAINTY_MEASURE_WITH_UNIT(LENGTH_MEASURE(1.E-07),#2020,'distance_accuracy_value','');
#2024=(GEOMETRIC_REPRESENTATION_CONTEXT(3)GLOBAL_UNCERTAINTY_ASSIGNED_CONTEXT((#2023))GLOBAL_UNIT_ASSIGNED_CONTEXT((#2020,#2021,#2022))REPRESENTATION_CONTEXT('',''));
#2025=ADVANCED_BREP_SHAPE_REPRESENTATION('',(#2011),#2024);
#2026=SHAPE_DEFINITION_REPRESENTATION(#2019,#2025);
ENDSEC;
END-ISO-10303-21;
