ISO-10303-21;
HEADER;
FILE_DESCRIPTION(('11 face(s), 38 edge(s), 28 vertex/vertices confirmed by cade at n=128, half-extent 2.500000000000'),'2;1');
FILE_NAME('hand_setting.step','2026-08-23T00:00:00',('cade'),('cade'),'cade 0.1.0','cade','');
FILE_SCHEMA(('AUTOMOTIVE_DESIGN { 1 0 10303 214 1 1 1 1 }'));
ENDSEC;
DATA;
#1=CARTESIAN_POINT('',(1.550000000000,0.000000000000,0.000000000000));
#2=DIRECTION('',(1.000000000000,0.000000000000,0.000000000000));
#3=DIRECTION('',(0.000000000000,0.000000000000,1.000000000000));
#4=AXIS2_PLACEMENT_3D('',#1,#2,#3);
#5=PLANE('',#4);
#6=CARTESIAN_POINT('',(1.550000000000,0.790000000000,0.100000000000));
#7=VERTEX_POINT('',#6);
#8=CARTESIAN_POINT('',(1.550000000000,0.510000000000,0.100000000000));
#9=VERTEX_POINT('',#8);
#10=CARTESIAN_POINT('',(1.550000000000,0.000000000000,0.100000000000));
#11=DIRECTION('',(0.000000000000,-1.000000000000,0.000000000000));
#12=VECTOR('',#11,1.0);
#13=LINE('',#10,#12);
#14=EDGE_CURVE('',#7,#9,#13,.T.);
#15=ORIENTED_EDGE('',*,*,#14,.T.);
#16=CARTESIAN_POINT('',(1.550000000000,0.510000000000,-0.100000000000));
#17=VERTEX_POINT('',#16);
#18=CARTESIAN_POINT('',(1.550000000000,0.510000000000,0.000000000000));
#19=VECTOR('',#3,1.0);
#20=LINE('',#18,#19);
#21=EDGE_CURVE('',#17,#9,#20,.T.);
#22=ORIENTED_EDGE('',*,*,#21,.F.);
#23=CARTESIAN_POINT('',(1.550000000000,0.790000000000,-0.100000000000));
#24=VERTEX_POINT('',#23);
#25=CARTESIAN_POINT('',(1.550000000000,0.000000000000,-0.100000000000));
#26=DIRECTION('',(0.000000000000,1.000000000000,0.000000000000));
#27=VECTOR('',#26,1.0);
#28=LINE('',#25,#27);
#29=EDGE_CURVE('',#17,#24,#28,.T.);
#30=ORIENTED_EDGE('',*,*,#29,.T.);
#31=CARTESIAN_POINT('',(1.550000000000,0.790000000000,0.000000000000));
#32=LINE('',#31,#19);
#33=EDGE_CURVE('',#24,#7,#32,.T.);
#34=ORIENTED_EDGE('',*,*,#33,.T.);
#35=EDGE_LOOP('',(#15,#22,#30,#34));
#36=CARTESIAN_POINT('',(1.550000000000,-0.790000000000,0.100000000000));
#37=VERTEX_POINT('',#36);
#38=CARTESIAN_POINT('',(1.550000000000,-0.790000000000,-0.100000000000));
#39=VERTEX_POINT('',#38);
#40=CARTESIAN_POINT('',(1.550000000000,-0.790000000000,0.000000000000));
#41=DIRECTION('',(0.000000000000,0.000000000000,-1.000000000000));
#42=VECTOR('',#41,1.0);
#43=LINE('',#40,#42);
#44=EDGE_CURVE('',#37,#39,#43,.T.);
#45=ORIENTED_EDGE('',*,*,#44,.T.);
#46=CARTESIAN_POINT('',(1.550000000000,-0.510000000000,-0.100000000000));
#47=VERTEX_POINT('',#46);
#48=LINE('',#25,#27);
#49=EDGE_CURVE('',#39,#47,#48,.T.);
#50=ORIENTED_EDGE('',*,*,#49,.T.);
#51=CARTESIAN_POINT('',(1.550000000000,-0.510000000000,0.100000000000));
#52=VERTEX_POINT('',#51);
#53=CARTESIAN_POINT('',(1.550000000000,-0.510000000000,0.000000000000));
#54=LINE('',#53,#19);
#55=EDGE_CURVE('',#47,#52,#54,.T.);
#56=ORIENTED_EDGE('',*,*,#55,.T.);
#57=LINE('',#10,#12);
#58=EDGE_CURVE('',#52,#37,#57,.T.);
#59=ORIENTED_EDGE('',*,*,#58,.T.);
#60=EDGE_LOOP('',(#45,#50,#56,#59));
#61=FACE_OUTER_BOUND('',#35,.T.);
#62=ADVANCED_FACE('',(#61),#5,.T.);
#63=FACE_OUTER_BOUND('',#60,.T.);
#64=ADVANCED_FACE('',(#63),#5,.T.);
#65=CARTESIAN_POINT('',(-1.250000000000,0.000000000000,0.000000000000));
#66=DIRECTION('',(-1.000000000000,0.000000000000,0.000000000000));
#67=AXIS2_PLACEMENT_3D('',#65,#66,#41);
#68=PLANE('',#67);
#69=CARTESIAN_POINT('',(-1.250000000000,-0.450000000000,0.100000000000));
#70=VERTEX_POINT('',#69);
#71=CARTESIAN_POINT('',(-1.250000000000,-0.450000000000,-0.100000000000));
#72=VERTEX_POINT('',#71);
#73=CARTESIAN_POINT('',(-1.250000000000,-0.450000000000,0.000000000000));
#74=LINE('',#73,#42);
#75=EDGE_CURVE('',#70,#72,#74,.T.);
#76=ORIENTED_EDGE('',*,*,#75,.T.);
#77=CARTESIAN_POINT('',(-1.250000000000,-0.790000000000,-0.100000000000));
#78=VERTEX_POINT('',#77);
#79=CARTESIAN_POINT('',(-1.250000000000,0.000000000000,-0.100000000000));
#80=LINE('',#79,#12);
#81=EDGE_CURVE('',#72,#78,#80,.T.);
#82=ORIENTED_EDGE('',*,*,#81,.T.);
#83=CARTESIAN_POINT('',(-1.250000000000,-0.790000000000,0.100000000000));
#84=VERTEX_POINT('',#83);
#85=CARTESIAN_POINT('',(-1.250000000000,-0.790000000000,0.000000000000));
#86=LINE('',#85,#19);
#87=EDGE_CURVE('',#78,#84,#86,.T.);
#88=ORIENTED_EDGE('',*,*,#87,.T.);
#89=CARTESIAN_POINT('',(-1.250000000000,0.000000000000,0.100000000000));
#90=LINE('',#89,#27);
#91=EDGE_CURVE('',#84,#70,#90,.T.);
#92=ORIENTED_EDGE('',*,*,#91,.T.);
#93=EDGE_LOOP('',(#76,#82,#88,#92));
#94=CARTESIAN_POINT('',(-1.250000000000,0.450000000000,0.100000000000));
#95=VERTEX_POINT('',#94);
#96=CARTESIAN_POINT('',(-1.250000000000,0.790000000000,0.100000000000));
#97=VERTEX_POINT('',#96);
#98=LINE('',#89,#27);
#99=EDGE_CURVE('',#95,#97,#98,.T.);
#100=ORIENTED_EDGE('',*,*,#99,.T.);
#101=CARTESIAN_POINT('',(-1.250000000000,0.790000000000,-0.100000000000));
#102=VERTEX_POINT('',#101);
#103=CARTESIAN_POINT('',(-1.250000000000,0.790000000000,0.000000000000));
#104=LINE('',#103,#42);
#105=EDGE_CURVE('',#97,#102,#104,.T.);
#106=ORIENTED_EDGE('',*,*,#105,.T.);
#107=CARTESIAN_POINT('',(-1.250000000000,0.450000000000,-0.100000000000));
#108=VERTEX_POINT('',#107);
#109=LINE('',#79,#12);
#110=EDGE_CURVE('',#102,#108,#109,.T.);
#111=ORIENTED_EDGE('',*,*,#110,.T.);
#112=CARTESIAN_POINT('',(-1.250000000000,0.450000000000,0.000000000000));
#113=LINE('',#112,#19);
#114=EDGE_CURVE('',#108,#95,#113,.T.);
#115=ORIENTED_EDGE('',*,*,#114,.T.);
#116=EDGE_LOOP('',(#100,#106,#111,#115));
#117=FACE_OUTER_BOUND('',#93,.T.);
#118=ADVANCED_FACE('',(#117),#68,.T.);
#119=FACE_OUTER_BOUND('',#116,.T.);
#120=ADVANCED_FACE('',(#119),#68,.T.);
#121=CARTESIAN_POINT('',(0.000000000000,-0.450000000000,0.000000000000));
#122=AXIS2_PLACEMENT_3D('',#121,#26,#41);
#123=PLANE('',#122);
#124=ORIENTED_EDGE('',*,*,#75,.F.);
#125=CARTESIAN_POINT('',(1.310000000000,-0.450000000000,0.100000000000));
#126=VERTEX_POINT('',#125);
#127=CARTESIAN_POINT('',(0.000000000000,-0.450000000000,0.100000000000));
#128=VECTOR('',#2,1.0);
#129=LINE('',#127,#128);
#130=EDGE_CURVE('',#70,#126,#129,.T.);
#131=ORIENTED_EDGE('',*,*,#130,.T.);
#132=CARTESIAN_POINT('',(1.310000000000,-0.450000000000,-0.100000000000));
#133=VERTEX_POINT('',#132);
#134=CARTESIAN_POINT('',(1.310000000000,-0.450000000000,0.000000000000));
#135=LINE('',#134,#19);
#136=EDGE_CURVE('',#133,#126,#135,.T.);
#137=ORIENTED_EDGE('',*,*,#136,.F.);
#138=CARTESIAN_POINT('',(0.000000000000,-0.450000000000,-0.100000000000));
#139=VECTOR('',#66,1.0);
#140=LINE('',#138,#139);
#141=EDGE_CURVE('',#133,#72,#140,.T.);
#142=ORIENTED_EDGE('',*,*,#141,.T.);
#143=EDGE_LOOP('',(#124,#131,#137,#142));
#144=FACE_OUTER_BOUND('',#143,.T.);
#145=ADVANCED_FACE('',(#144),#123,.T.);
#146=CARTESIAN_POINT('',(0.000000000000,-0.790000000000,0.000000000000));
#147=AXIS2_PLACEMENT_3D('',#146,#11,#3);
#148=PLANE('',#147);
#149=ORIENTED_EDGE('',*,*,#44,.F.);
#150=CARTESIAN_POINT('',(0.000000000000,-0.790000000000,0.100000000000));
#151=LINE('',#150,#139);
#152=EDGE_CURVE('',#37,#84,#151,.T.);
#153=ORIENTED_EDGE('',*,*,#152,.T.);
#154=ORIENTED_EDGE('',*,*,#87,.F.);
#155=CARTESIAN_POINT('',(0.000000000000,-0.790000000000,-0.100000000000));
#156=LINE('',#155,#128);
#157=EDGE_CURVE('',#78,#39,#156,.T.);
#158=ORIENTED_EDGE('',*,*,#157,.T.);
#159=EDGE_LOOP('',(#149,#153,#154,#158));
#160=FACE_OUTER_BOUND('',#159,.T.);
#161=ADVANCED_FACE('',(#160),#148,.T.);
#162=CARTESIAN_POINT('',(0.000000000000,0.000000000000,0.100000000000));
#163=AXIS2_PLACEMENT_3D('',#162,#3,#26);
#164=PLANE('',#163);
#165=CARTESIAN_POINT('',(-1.250000000000,2.650000000000,0.100000000000));
#166=VERTEX_POINT('',#165);
#167=CARTESIAN_POINT('',(-1.250000000000,0.850000000000,0.100000000000));
#168=VERTEX_POINT('',#167);
#169=CARTESIAN_POINT('',(-1.250000000000,1.750000000000,0.100000000000));
#170=AXIS2_PLACEMENT_3D('',#169,#3,#26);
#171=CIRCLE('',#170,0.900000000000);
#172=EDGE_CURVE('',#166,#168,#171,.T.);
#173=ORIENTED_EDGE('',*,*,#172,.T.);
#174=CIRCLE('',#170,0.900000000000);
#175=EDGE_CURVE('',#168,#166,#174,.T.);
#176=ORIENTED_EDGE('',*,*,#175,.T.);
#177=EDGE_LOOP('',(#173,#176));
#178=CARTESIAN_POINT('',(-1.250000000000,1.980000000000,0.100000000000));
#179=VERTEX_POINT('',#178);
#180=CARTESIAN_POINT('',(-1.250000000000,1.520000000000,0.100000000000));
#181=VERTEX_POINT('',#180);
#182=CIRCLE('',#170,0.230000000000);
#183=EDGE_CURVE('',#179,#181,#182,.T.);
#184=ORIENTED_EDGE('',*,*,#183,.F.);
#185=CIRCLE('',#170,0.230000000000);
#186=EDGE_CURVE('',#181,#179,#185,.T.);
#187=ORIENTED_EDGE('',*,*,#186,.F.);
#188=EDGE_LOOP('',(#184,#187));
#189=ORIENTED_EDGE('',*,*,#58,.F.);
#190=AXIS2_PLACEMENT_3D('',#10,#3,#26);
#191=CIRCLE('',#190,0.510000000000);
#192=EDGE_CURVE('',#126,#52,#191,.T.);
#193=ORIENTED_EDGE('',*,*,#192,.F.);
#194=ORIENTED_EDGE('',*,*,#130,.F.);
#195=ORIENTED_EDGE('',*,*,#91,.F.);
#196=ORIENTED_EDGE('',*,*,#152,.F.);
#197=EDGE_LOOP('',(#189,#193,#194,#195,#196));
#198=ORIENTED_EDGE('',*,*,#14,.F.);
#199=CARTESIAN_POINT('',(0.000000000000,0.790000000000,0.100000000000));
#200=LINE('',#199,#139);
#201=EDGE_CURVE('',#7,#97,#200,.T.);
#202=ORIENTED_EDGE('',*,*,#201,.T.);
#203=ORIENTED_EDGE('',*,*,#99,.F.);
#204=CARTESIAN_POINT('',(1.310000000000,0.450000000000,0.100000000000));
#205=VERTEX_POINT('',#204);
#206=CARTESIAN_POINT('',(0.000000000000,0.450000000000,0.100000000000));
#207=LINE('',#206,#128);
#208=EDGE_CURVE('',#95,#205,#207,.T.);
#209=ORIENTED_EDGE('',*,*,#208,.T.);
#210=CIRCLE('',#190,0.510000000000);
#211=EDGE_CURVE('',#9,#205,#210,.T.);
#212=ORIENTED_EDGE('',*,*,#211,.F.);
#213=EDGE_LOOP('',(#198,#202,#203,#209,#212));
#214=FACE_OUTER_BOUND('',#177,.T.);
#215=FACE_BOUND('',#188,.T.);
#216=ADVANCED_FACE('',(#214,#215),#164,.T.);
#217=FACE_OUTER_BOUND('',#197,.T.);
#218=ADVANCED_FACE('',(#217),#164,.T.);
#219=FACE_OUTER_BOUND('',#213,.T.);
#220=ADVANCED_FACE('',(#219),#164,.T.);
#221=CARTESIAN_POINT('',(0.000000000000,0.000000000000,-0.100000000000));
#222=AXIS2_PLACEMENT_3D('',#221,#41,#11);
#223=PLANE('',#222);
#224=CARTESIAN_POINT('',(-1.250000000000,1.980000000000,-0.100000000000));
#225=VERTEX_POINT('',#224);
#226=CARTESIAN_POINT('',(-1.250000000000,1.520000000000,-0.100000000000));
#227=VERTEX_POINT('',#226);
#228=CARTESIAN_POINT('',(-1.250000000000,1.750000000000,-0.100000000000));
#229=AXIS2_PLACEMENT_3D('',#228,#3,#26);
#230=CIRCLE('',#229,0.230000000000);
#231=EDGE_CURVE('',#225,#227,#230,.T.);
#232=ORIENTED_EDGE('',*,*,#231,.T.);
#233=CIRCLE('',#229,0.230000000000);
#234=EDGE_CURVE('',#227,#225,#233,.T.);
#235=ORIENTED_EDGE('',*,*,#234,.T.);
#236=EDGE_LOOP('',(#232,#235));
#237=CARTESIAN_POINT('',(-1.250000000000,2.650000000000,-0.100000000000));
#238=VERTEX_POINT('',#237);
#239=CARTESIAN_POINT('',(-1.250000000000,0.850000000000,-0.100000000000));
#240=VERTEX_POINT('',#239);
#241=CIRCLE('',#229,0.900000000000);
#242=EDGE_CURVE('',#238,#240,#241,.T.);
#243=ORIENTED_EDGE('',*,*,#242,.F.);
#244=CIRCLE('',#229,0.900000000000);
#245=EDGE_CURVE('',#240,#238,#244,.T.);
#246=ORIENTED_EDGE('',*,*,#245,.F.);
#247=EDGE_LOOP('',(#243,#246));
#248=ORIENTED_EDGE('',*,*,#49,.F.);
#249=ORIENTED_EDGE('',*,*,#157,.F.);
#250=ORIENTED_EDGE('',*,*,#81,.F.);
#251=ORIENTED_EDGE('',*,*,#141,.F.);
#252=AXIS2_PLACEMENT_3D('',#25,#3,#26);
#253=CIRCLE('',#252,0.510000000000);
#254=EDGE_CURVE('',#133,#47,#253,.T.);
#255=ORIENTED_EDGE('',*,*,#254,.T.);
#256=EDGE_LOOP('',(#248,#249,#250,#251,#255));
#257=ORIENTED_EDGE('',*,*,#29,.F.);
#258=CARTESIAN_POINT('',(1.310000000000,0.450000000000,-0.100000000000));
#259=VERTEX_POINT('',#258);
#260=CIRCLE('',#252,0.510000000000);
#261=EDGE_CURVE('',#17,#259,#260,.T.);
#262=ORIENTED_EDGE('',*,*,#261,.T.);
#263=CARTESIAN_POINT('',(0.000000000000,0.450000000000,-0.100000000000));
#264=LINE('',#263,#139);
#265=EDGE_CURVE('',#259,#108,#264,.T.);
#266=ORIENTED_EDGE('',*,*,#265,.T.);
#267=ORIENTED_EDGE('',*,*,#110,.F.);
#268=CARTESIAN_POINT('',(0.000000000000,0.790000000000,-0.100000000000));
#269=LINE('',#268,#128);
#270=EDGE_CURVE('',#102,#24,#269,.T.);
#271=ORIENTED_EDGE('',*,*,#270,.T.);
#272=EDGE_LOOP('',(#257,#262,#266,#267,#271));
#273=FACE_BOUND('',#236,.T.);
#274=FACE_OUTER_BOUND('',#247,.T.);
#275=ADVANCED_FACE('',(#273,#274),#223,.T.);
#276=FACE_OUTER_BOUND('',#256,.T.);
#277=ADVANCED_FACE('',(#276),#223,.T.);
#278=FACE_OUTER_BOUND('',#272,.T.);
#279=ADVANCED_FACE('',(#278),#223,.T.);
#280=AXIS2_PLACEMENT_3D('',#1,#3,#26);
#281=CYLINDRICAL_SURFACE('',#280,0.510000000000);
#282=ORIENTED_EDGE('',*,*,#21,.T.);
#283=ORIENTED_EDGE('',*,*,#211,.T.);
#284=CARTESIAN_POINT('',(1.310000000000,0.450000000000,0.000000000000));
#285=LINE('',#284,#19);
#286=EDGE_CURVE('',#259,#205,#285,.T.);
#287=ORIENTED_EDGE('',*,*,#286,.F.);
#288=ORIENTED_EDGE('',*,*,#261,.F.);
#289=EDGE_LOOP('',(#282,#283,#287,#288));
#290=ORIENTED_EDGE('',*,*,#55,.F.);
#291=ORIENTED_EDGE('',*,*,#254,.F.);
#292=ORIENTED_EDGE('',*,*,#136,.T.);
#293=ORIENTED_EDGE('',*,*,#192,.T.);
#294=EDGE_LOOP('',(#290,#291,#292,#293));
#295=FACE_BOUND('',#289,.T.);
#296=FACE_BOUND('',#294,.T.);
#297=ADVANCED_FACE('',(#295,#296),#281,.F.);
#298=CARTESIAN_POINT('',(-1.250000000000,1.750000000000,0.000000000000));
#299=AXIS2_PLACEMENT_3D('',#298,#3,#26);
#300=CYLINDRICAL_SURFACE('',#299,0.900000000000);
#301=ORIENTED_EDGE('',*,*,#172,.F.);
#302=ORIENTED_EDGE('',*,*,#175,.F.);
#303=EDGE_LOOP('',(#301,#302));
#304=ORIENTED_EDGE('',*,*,#242,.T.);
#305=ORIENTED_EDGE('',*,*,#245,.T.);
#306=EDGE_LOOP('',(#304,#305));
#307=FACE_BOUND('',#303,.T.);
#308=FACE_BOUND('',#306,.T.);
#309=ADVANCED_FACE('',(#307,#308),#300,.T.);
#310=CYLINDRICAL_SURFACE('',#299,0.230000000000);
#311=ORIENTED_EDGE('',*,*,#231,.F.);
#312=ORIENTED_EDGE('',*,*,#234,.F.);
#313=EDGE_LOOP('',(#311,#312));
#314=ORIENTED_EDGE('',*,*,#183,.T.);
#315=ORIENTED_EDGE('',*,*,#186,.T.);
#316=EDGE_LOOP('',(#314,#315));
#317=FACE_BOUND('',#313,.T.);
#318=FACE_BOUND('',#316,.T.);
#319=ADVANCED_FACE('',(#317,#318),#310,.F.);
#320=CARTESIAN_POINT('',(0.000000000000,0.790000000000,0.000000000000));
#321=AXIS2_PLACEMENT_3D('',#320,#26,#41);
#322=PLANE('',#321);
#323=ORIENTED_EDGE('',*,*,#33,.F.);
#324=ORIENTED_EDGE('',*,*,#270,.F.);
#325=ORIENTED_EDGE('',*,*,#105,.F.);
#326=ORIENTED_EDGE('',*,*,#201,.F.);
#327=EDGE_LOOP('',(#323,#324,#325,#326));
#328=FACE_OUTER_BOUND('',#327,.T.);
#329=ADVANCED_FACE('',(#328),#322,.T.);
#330=CARTESIAN_POINT('',(0.000000000000,0.450000000000,0.000000000000));
#331=AXIS2_PLACEMENT_3D('',#330,#11,#3);
#332=PLANE('',#331);
#333=ORIENTED_EDGE('',*,*,#114,.F.);
#334=ORIENTED_EDGE('',*,*,#265,.F.);
#335=ORIENTED_EDGE('',*,*,#286,.T.);
#336=ORIENTED_EDGE('',*,*,#208,.F.);
#337=EDGE_LOOP('',(#333,#334,#335,#336));
#338=FACE_OUTER_BOUND('',#337,.T.);
#339=ADVANCED_FACE('',(#338),#332,.T.);
#340=CLOSED_SHELL('',(#62,#64,#118,#120,#145,#161,#216,#218,#220,#275,#277,#279,#297,#309,#319,#329,#339));
#341=MANIFOLD_SOLID_BREP('hand_setting',#340);
#342=APPLICATION_CONTEXT('core data for automotive mechanical design processes');
#343=APPLICATION_PROTOCOL_DEFINITION('international standard','automotive_design',2000,#342);
#344=PRODUCT_CONTEXT('',#342,'mechanical');
#345=PRODUCT('hand_setting','hand_setting','',(#344));
#346=PRODUCT_DEFINITION_FORMATION('','',#345);
#347=PRODUCT_DEFINITION_CONTEXT('part definition',#342,'design');
#348=PRODUCT_DEFINITION('','',#346,#347);
#349=PRODUCT_DEFINITION_SHAPE('','',#348);
#350=(LENGTH_UNIT()NAMED_UNIT(*)SI_UNIT(.MILLI.,.METRE.));
#351=(NAMED_UNIT(*)PLANE_ANGLE_UNIT()SI_UNIT($,.RADIAN.));
#352=(NAMED_UNIT(*)SI_UNIT($,.STERADIAN.)SOLID_ANGLE_UNIT());
#353=UNCERTAINTY_MEASURE_WITH_UNIT(LENGTH_MEASURE(1.E-07),#350,'distance_accuracy_value','');
#354=(GEOMETRIC_REPRESENTATION_CONTEXT(3)GLOBAL_UNCERTAINTY_ASSIGNED_CONTEXT((#353))GLOBAL_UNIT_ASSIGNED_CONTEXT((#350,#351,#352))REPRESENTATION_CONTEXT('',''));
#355=ADVANCED_BREP_SHAPE_REPRESENTATION('',(#341),#354);
#356=SHAPE_DEFINITION_REPRESENTATION(#349,#355);
ENDSEC;
END-ISO-10303-21;
