ISO-10303-21;
HEADER;
FILE_DESCRIPTION(('15 face(s), 60 edge(s), 50 vertex/vertices confirmed by cade at n=128, half-extent 8.000000000000'),'2;1');
FILE_NAME('barrel_and_winding.step','2026-08-23T00:00:00',('cade'),('cade'),'cade 0.1.0','cade','');
FILE_SCHEMA(('AUTOMOTIVE_DESIGN { 1 0 10303 214 1 1 1 1 }'));
ENDSEC;
DATA;
#1=CARTESIAN_POINT('',(5.950000000000,0.000000000000,0.000000000000));
#2=DIRECTION('',(1.000000000000,0.000000000000,0.000000000000));
#3=DIRECTION('',(0.000000000000,0.000000000000,1.000000000000));
#4=AXIS2_PLACEMENT_3D('',#1,#2,#3);
#5=PLANE('',#4);
#6=CARTESIAN_POINT('',(5.950000000000,0.650000000000,-0.200000000000));
#7=VERTEX_POINT('',#6);
#8=CARTESIAN_POINT('',(5.950000000000,0.650000000000,0.200000000000));
#9=VERTEX_POINT('',#8);
#10=CARTESIAN_POINT('',(5.950000000000,0.650000000000,0.000000000000));
#11=VECTOR('',#3,1.0);
#12=LINE('',#10,#11);
#13=EDGE_CURVE('',#7,#9,#12,.T.);
#14=ORIENTED_EDGE('',*,*,#13,.T.);
#15=CARTESIAN_POINT('',(5.950000000000,-1.400000000000,0.200000000000));
#16=VERTEX_POINT('',#15);
#17=CARTESIAN_POINT('',(5.950000000000,0.000000000000,0.200000000000));
#18=DIRECTION('',(0.000000000000,-1.000000000000,0.000000000000));
#19=VECTOR('',#18,1.0);
#20=LINE('',#17,#19);
#21=EDGE_CURVE('',#9,#16,#20,.T.);
#22=ORIENTED_EDGE('',*,*,#21,.T.);
#23=CARTESIAN_POINT('',(5.950000000000,-1.400000000000,-0.200000000000));
#24=VERTEX_POINT('',#23);
#25=CARTESIAN_POINT('',(5.950000000000,-1.400000000000,0.000000000000));
#26=LINE('',#25,#11);
#27=EDGE_CURVE('',#24,#16,#26,.T.);
#28=ORIENTED_EDGE('',*,*,#27,.F.);
#29=CARTESIAN_POINT('',(5.950000000000,0.000000000000,-0.200000000000));
#30=DIRECTION('',(0.000000000000,1.000000000000,0.000000000000));
#31=VECTOR('',#30,1.0);
#32=LINE('',#29,#31);
#33=EDGE_CURVE('',#24,#7,#32,.T.);
#34=ORIENTED_EDGE('',*,*,#33,.T.);
#35=EDGE_LOOP('',(#14,#22,#28,#34));
#36=FACE_OUTER_BOUND('',#35,.T.);
#37=ADVANCED_FACE('',(#36),#5,.T.);
#38=CARTESIAN_POINT('',(0.000000000000,0.650000000000,0.000000000000));
#39=DIRECTION('',(0.000000000000,0.000000000000,-1.000000000000));
#40=AXIS2_PLACEMENT_3D('',#38,#30,#39);
#41=PLANE('',#40);
#42=ORIENTED_EDGE('',*,*,#13,.F.);
#43=CARTESIAN_POINT('',(4.130265455546,0.650000000000,-0.200000000000));
#44=VERTEX_POINT('',#43);
#45=CARTESIAN_POINT('',(0.000000000000,0.650000000000,-0.200000000000));
#46=DIRECTION('',(-1.000000000000,0.000000000000,0.000000000000));
#47=VECTOR('',#46,1.0);
#48=LINE('',#45,#47);
#49=EDGE_CURVE('',#7,#44,#48,.T.);
#50=ORIENTED_EDGE('',*,*,#49,.T.);
#51=CARTESIAN_POINT('',(4.130265455546,0.650000000000,0.200000000000));
#52=VERTEX_POINT('',#51);
#53=CARTESIAN_POINT('',(4.130265455546,0.650000000000,0.000000000000));
#54=LINE('',#53,#11);
#55=EDGE_CURVE('',#44,#52,#54,.T.);
#56=ORIENTED_EDGE('',*,*,#55,.T.);
#57=CARTESIAN_POINT('',(0.000000000000,0.650000000000,0.200000000000));
#58=VECTOR('',#2,1.0);
#59=LINE('',#57,#58);
#60=EDGE_CURVE('',#52,#9,#59,.T.);
#61=ORIENTED_EDGE('',*,*,#60,.T.);
#62=EDGE_LOOP('',(#42,#50,#56,#61));
#63=FACE_OUTER_BOUND('',#62,.T.);
#64=ADVANCED_FACE('',(#63),#41,.T.);
#65=CARTESIAN_POINT('',(0.000000000000,0.000000000000,0.200000000000));
#66=AXIS2_PLACEMENT_3D('',#65,#3,#30);
#67=PLANE('',#66);
#68=CARTESIAN_POINT('',(-1.100000000000,0.600000000000,0.200000000000));
#69=VERTEX_POINT('',#68);
#70=CARTESIAN_POINT('',(-1.100000000000,0.100000000000,0.200000000000));
#71=AXIS2_PLACEMENT_3D('',#70,#3,#30);
#72=CIRCLE('',#71,0.500000000000);
#73=EDGE_CURVE('',#69,#69,#72,.T.);
#74=ORIENTED_EDGE('',*,*,#73,.F.);
#75=EDGE_LOOP('',(#74));
#76=CARTESIAN_POINT('',(-3.195959179423,-1.400000000000,0.200000000000));
#77=VERTEX_POINT('',#76);
#78=CARTESIAN_POINT('',(-2.804040820577,-1.400000000000,0.200000000000));
#79=VERTEX_POINT('',#78);
#80=CARTESIAN_POINT('',(-3.000000000000,-1.600000000000,0.200000000000));
#81=AXIS2_PLACEMENT_3D('',#80,#3,#30);
#82=CIRCLE('',#81,0.280000000000);
#83=EDGE_CURVE('',#77,#79,#82,.T.);
#84=ORIENTED_EDGE('',*,*,#83,.F.);
#85=CIRCLE('',#81,0.280000000000);
#86=EDGE_CURVE('',#79,#77,#85,.T.);
#87=ORIENTED_EDGE('',*,*,#86,.F.);
#88=EDGE_LOOP('',(#84,#87));
#89=CARTESIAN_POINT('',(2.500000000000,0.395959179423,0.200000000000));
#90=VERTEX_POINT('',#89);
#91=CARTESIAN_POINT('',(2.500000000000,0.004040820577,0.200000000000));
#92=VERTEX_POINT('',#91);
#93=CARTESIAN_POINT('',(2.700000000000,0.200000000000,0.200000000000));
#94=AXIS2_PLACEMENT_3D('',#93,#3,#30);
#95=CIRCLE('',#94,0.280000000000);
#96=EDGE_CURVE('',#90,#92,#95,.T.);
#97=ORIENTED_EDGE('',*,*,#96,.F.);
#98=CIRCLE('',#94,0.280000000000);
#99=EDGE_CURVE('',#92,#90,#98,.T.);
#100=ORIENTED_EDGE('',*,*,#99,.F.);
#101=EDGE_LOOP('',(#97,#100));
#102=CARTESIAN_POINT('',(7.500000000000,-3.020000000000,0.200000000000));
#103=VERTEX_POINT('',#102);
#104=CARTESIAN_POINT('',(7.238466063388,-3.200000000000,0.200000000000));
#105=VERTEX_POINT('',#104);
#106=CARTESIAN_POINT('',(7.500000000000,-3.300000000000,0.200000000000));
#107=AXIS2_PLACEMENT_3D('',#106,#3,#30);
#108=CIRCLE('',#107,0.280000000000);
#109=EDGE_CURVE('',#103,#105,#108,.T.);
#110=ORIENTED_EDGE('',*,*,#109,.F.);
#111=CARTESIAN_POINT('',(7.761533936612,-3.200000000000,0.200000000000));
#112=VERTEX_POINT('',#111);
#113=CIRCLE('',#107,0.280000000000);
#114=EDGE_CURVE('',#112,#103,#113,.T.);
#115=ORIENTED_EDGE('',*,*,#114,.F.);
#116=CARTESIAN_POINT('',(7.500000000000,-3.580000000000,0.200000000000));
#117=VERTEX_POINT('',#116);
#118=CIRCLE('',#107,0.280000000000);
#119=EDGE_CURVE('',#117,#112,#118,.T.);
#120=ORIENTED_EDGE('',*,*,#119,.F.);
#121=CIRCLE('',#107,0.280000000000);
#122=EDGE_CURVE('',#105,#117,#121,.T.);
#123=ORIENTED_EDGE('',*,*,#122,.F.);
#124=EDGE_LOOP('',(#110,#115,#120,#123));
#125=ORIENTED_EDGE('',*,*,#21,.F.);
#126=ORIENTED_EDGE('',*,*,#60,.F.);
#127=CARTESIAN_POINT('',(2.500000000000,0.936491673104,0.200000000000));
#128=VERTEX_POINT('',#127);
#129=CARTESIAN_POINT('',(3.000000000000,-1.000000000000,0.200000000000));
#130=AXIS2_PLACEMENT_3D('',#129,#3,#30);
#131=CIRCLE('',#130,2.000000000000);
#132=EDGE_CURVE('',#52,#128,#131,.T.);
#133=ORIENTED_EDGE('',*,*,#132,.T.);
#134=CARTESIAN_POINT('',(2.033131023182,0.750761086404,0.200000000000));
#135=VERTEX_POINT('',#134);
#136=CIRCLE('',#130,2.000000000000);
#137=EDGE_CURVE('',#128,#135,#136,.T.);
#138=ORIENTED_EDGE('',*,*,#137,.T.);
#139=CARTESIAN_POINT('',(-4.252380053230,0.650000000000,0.200000000000));
#140=VERTEX_POINT('',#139);
#141=CIRCLE('',#71,3.200000000000);
#142=EDGE_CURVE('',#135,#140,#141,.T.);
#143=ORIENTED_EDGE('',*,*,#142,.T.);
#144=CARTESIAN_POINT('',(-3.926658805021,-1.400000000000,0.200000000000));
#145=VERTEX_POINT('',#144);
#146=CIRCLE('',#71,3.200000000000);
#147=EDGE_CURVE('',#140,#145,#146,.T.);
#148=ORIENTED_EDGE('',*,*,#147,.T.);
#149=CARTESIAN_POINT('',(1.286624803678,-2.031671186293,0.200000000000));
#150=VERTEX_POINT('',#149);
#151=CIRCLE('',#71,3.200000000000);
#152=EDGE_CURVE('',#145,#150,#151,.T.);
#153=ORIENTED_EDGE('',*,*,#152,.T.);
#154=CARTESIAN_POINT('',(2.500000000000,-2.936491673104,0.200000000000));
#155=VERTEX_POINT('',#154);
#156=CIRCLE('',#130,2.000000000000);
#157=EDGE_CURVE('',#150,#155,#156,.T.);
#158=ORIENTED_EDGE('',*,*,#157,.T.);
#159=CARTESIAN_POINT('',(2.500000000000,-3.200000000000,0.200000000000));
#160=VERTEX_POINT('',#159);
#161=CARTESIAN_POINT('',(2.500000000000,0.000000000000,0.200000000000));
#162=LINE('',#161,#19);
#163=EDGE_CURVE('',#155,#160,#162,.T.);
#164=ORIENTED_EDGE('',*,*,#163,.T.);
#165=CARTESIAN_POINT('',(5.228376635450,-3.200000000000,0.200000000000));
#166=VERTEX_POINT('',#165);
#167=CARTESIAN_POINT('',(0.000000000000,-3.200000000000,0.200000000000));
#168=LINE('',#167,#58);
#169=EDGE_CURVE('',#160,#166,#168,.T.);
#170=ORIENTED_EDGE('',*,*,#169,.T.);
#171=CARTESIAN_POINT('',(5.950000000000,-4.855544171173,0.200000000000));
#172=VERTEX_POINT('',#171);
#173=CARTESIAN_POINT('',(6.800000000000,-3.500000000000,0.200000000000));
#174=AXIS2_PLACEMENT_3D('',#173,#3,#30);
#175=CIRCLE('',#174,1.600000000000);
#176=EDGE_CURVE('',#166,#172,#175,.T.);
#177=ORIENTED_EDGE('',*,*,#176,.T.);
#178=CARTESIAN_POINT('',(7.500000000000,-4.938749456994,0.200000000000));
#179=VERTEX_POINT('',#178);
#180=CIRCLE('',#174,1.600000000000);
#181=EDGE_CURVE('',#172,#179,#180,.T.);
#182=ORIENTED_EDGE('',*,*,#181,.T.);
#183=CARTESIAN_POINT('',(8.371623364550,-3.200000000000,0.200000000000));
#184=VERTEX_POINT('',#183);
#185=CIRCLE('',#174,1.600000000000);
#186=EDGE_CURVE('',#179,#184,#185,.T.);
#187=ORIENTED_EDGE('',*,*,#186,.T.);
#188=CARTESIAN_POINT('',(7.500000000000,-2.061250543006,0.200000000000));
#189=VERTEX_POINT('',#188);
#190=CIRCLE('',#174,1.600000000000);
#191=EDGE_CURVE('',#184,#189,#190,.T.);
#192=ORIENTED_EDGE('',*,*,#191,.T.);
#193=CARTESIAN_POINT('',(7.500000000000,-1.400000000000,0.200000000000));
#194=VERTEX_POINT('',#193);
#195=CARTESIAN_POINT('',(7.500000000000,0.000000000000,0.200000000000));
#196=LINE('',#195,#31);
#197=EDGE_CURVE('',#189,#194,#196,.T.);
#198=ORIENTED_EDGE('',*,*,#197,.T.);
#199=CARTESIAN_POINT('',(0.000000000000,-1.400000000000,0.200000000000));
#200=LINE('',#199,#47);
#201=EDGE_CURVE('',#194,#16,#200,.T.);
#202=ORIENTED_EDGE('',*,*,#201,.T.);
#203=EDGE_LOOP('',(#125,#126,#133,#138,#143,#148,#153,#158,#164,#170,#177,#182,#187,#192,#198,#202));
#204=FACE_BOUND('',#75,.T.);
#205=FACE_BOUND('',#88,.T.);
#206=FACE_BOUND('',#101,.T.);
#207=FACE_BOUND('',#124,.T.);
#208=FACE_OUTER_BOUND('',#203,.T.);
#209=ADVANCED_FACE('',(#204,#205,#206,#207,#208),#67,.T.);
#210=CARTESIAN_POINT('',(0.000000000000,0.000000000000,-0.200000000000));
#211=AXIS2_PLACEMENT_3D('',#210,#39,#18);
#212=PLANE('',#211);
#213=CARTESIAN_POINT('',(-1.100000000000,0.600000000000,-0.200000000000));
#214=VERTEX_POINT('',#213);
#215=CARTESIAN_POINT('',(-1.100000000000,0.100000000000,-0.200000000000));
#216=AXIS2_PLACEMENT_3D('',#215,#3,#30);
#217=CIRCLE('',#216,0.500000000000);
#218=EDGE_CURVE('',#214,#214,#217,.T.);
#219=ORIENTED_EDGE('',*,*,#218,.T.);
#220=EDGE_LOOP('',(#219));
#221=CARTESIAN_POINT('',(-3.195959179423,-1.400000000000,-0.200000000000));
#222=VERTEX_POINT('',#221);
#223=CARTESIAN_POINT('',(-2.804040820577,-1.400000000000,-0.200000000000));
#224=VERTEX_POINT('',#223);
#225=CARTESIAN_POINT('',(-3.000000000000,-1.600000000000,-0.200000000000));
#226=AXIS2_PLACEMENT_3D('',#225,#3,#30);
#227=CIRCLE('',#226,0.280000000000);
#228=EDGE_CURVE('',#222,#224,#227,.T.);
#229=ORIENTED_EDGE('',*,*,#228,.T.);
#230=CIRCLE('',#226,0.280000000000);
#231=EDGE_CURVE('',#224,#222,#230,.T.);
#232=ORIENTED_EDGE('',*,*,#231,.T.);
#233=EDGE_LOOP('',(#229,#232));
#234=CARTESIAN_POINT('',(2.500000000000,0.395959179423,-0.200000000000));
#235=VERTEX_POINT('',#234);
#236=CARTESIAN_POINT('',(2.500000000000,0.004040820577,-0.200000000000));
#237=VERTEX_POINT('',#236);
#238=CARTESIAN_POINT('',(2.700000000000,0.200000000000,-0.200000000000));
#239=AXIS2_PLACEMENT_3D('',#238,#3,#30);
#240=CIRCLE('',#239,0.280000000000);
#241=EDGE_CURVE('',#235,#237,#240,.T.);
#242=ORIENTED_EDGE('',*,*,#241,.T.);
#243=CIRCLE('',#239,0.280000000000);
#244=EDGE_CURVE('',#237,#235,#243,.T.);
#245=ORIENTED_EDGE('',*,*,#244,.T.);
#246=EDGE_LOOP('',(#242,#245));
#247=CARTESIAN_POINT('',(7.500000000000,-3.020000000000,-0.200000000000));
#248=VERTEX_POINT('',#247);
#249=CARTESIAN_POINT('',(7.238466063388,-3.200000000000,-0.200000000000));
#250=VERTEX_POINT('',#249);
#251=CARTESIAN_POINT('',(7.500000000000,-3.300000000000,-0.200000000000));
#252=AXIS2_PLACEMENT_3D('',#251,#3,#30);
#253=CIRCLE('',#252,0.280000000000);
#254=EDGE_CURVE('',#248,#250,#253,.T.);
#255=ORIENTED_EDGE('',*,*,#254,.T.);
#256=CARTESIAN_POINT('',(7.500000000000,-3.580000000000,-0.200000000000));
#257=VERTEX_POINT('',#256);
#258=CIRCLE('',#252,0.280000000000);
#259=EDGE_CURVE('',#250,#257,#258,.T.);
#260=ORIENTED_EDGE('',*,*,#259,.T.);
#261=CARTESIAN_POINT('',(7.761533936612,-3.200000000000,-0.200000000000));
#262=VERTEX_POINT('',#261);
#263=CIRCLE('',#252,0.280000000000);
#264=EDGE_CURVE('',#257,#262,#263,.T.);
#265=ORIENTED_EDGE('',*,*,#264,.T.);
#266=CIRCLE('',#252,0.280000000000);
#267=EDGE_CURVE('',#262,#248,#266,.T.);
#268=ORIENTED_EDGE('',*,*,#267,.T.);
#269=EDGE_LOOP('',(#255,#260,#265,#268));
#270=ORIENTED_EDGE('',*,*,#33,.F.);
#271=CARTESIAN_POINT('',(7.500000000000,-1.400000000000,-0.200000000000));
#272=VERTEX_POINT('',#271);
#273=CARTESIAN_POINT('',(0.000000000000,-1.400000000000,-0.200000000000));
#274=LINE('',#273,#58);
#275=EDGE_CURVE('',#24,#272,#274,.T.);
#276=ORIENTED_EDGE('',*,*,#275,.T.);
#277=CARTESIAN_POINT('',(7.500000000000,-2.061250543006,-0.200000000000));
#278=VERTEX_POINT('',#277);
#279=CARTESIAN_POINT('',(7.500000000000,0.000000000000,-0.200000000000));
#280=LINE('',#279,#19);
#281=EDGE_CURVE('',#272,#278,#280,.T.);
#282=ORIENTED_EDGE('',*,*,#281,.T.);
#283=CARTESIAN_POINT('',(8.371623364550,-3.200000000000,-0.200000000000));
#284=VERTEX_POINT('',#283);
#285=CARTESIAN_POINT('',(6.800000000000,-3.500000000000,-0.200000000000));
#286=AXIS2_PLACEMENT_3D('',#285,#3,#30);
#287=CIRCLE('',#286,1.600000000000);
#288=EDGE_CURVE('',#284,#278,#287,.T.);
#289=ORIENTED_EDGE('',*,*,#288,.F.);
#290=CARTESIAN_POINT('',(7.500000000000,-4.938749456994,-0.200000000000));
#291=VERTEX_POINT('',#290);
#292=CIRCLE('',#286,1.600000000000);
#293=EDGE_CURVE('',#291,#284,#292,.T.);
#294=ORIENTED_EDGE('',*,*,#293,.F.);
#295=CARTESIAN_POINT('',(5.950000000000,-4.855544171173,-0.200000000000));
#296=VERTEX_POINT('',#295);
#297=CIRCLE('',#286,1.600000000000);
#298=EDGE_CURVE('',#296,#291,#297,.T.);
#299=ORIENTED_EDGE('',*,*,#298,.F.);
#300=CARTESIAN_POINT('',(5.228376635450,-3.200000000000,-0.200000000000));
#301=VERTEX_POINT('',#300);
#302=CIRCLE('',#286,1.600000000000);
#303=EDGE_CURVE('',#301,#296,#302,.T.);
#304=ORIENTED_EDGE('',*,*,#303,.F.);
#305=CARTESIAN_POINT('',(2.500000000000,-3.200000000000,-0.200000000000));
#306=VERTEX_POINT('',#305);
#307=CARTESIAN_POINT('',(0.000000000000,-3.200000000000,-0.200000000000));
#308=LINE('',#307,#47);
#309=EDGE_CURVE('',#301,#306,#308,.T.);
#310=ORIENTED_EDGE('',*,*,#309,.T.);
#311=CARTESIAN_POINT('',(2.500000000000,-2.936491673104,-0.200000000000));
#312=VERTEX_POINT('',#311);
#313=CARTESIAN_POINT('',(2.500000000000,0.000000000000,-0.200000000000));
#314=LINE('',#313,#31);
#315=EDGE_CURVE('',#306,#312,#314,.T.);
#316=ORIENTED_EDGE('',*,*,#315,.T.);
#317=CARTESIAN_POINT('',(1.286624803678,-2.031671186293,-0.200000000000));
#318=VERTEX_POINT('',#317);
#319=CARTESIAN_POINT('',(3.000000000000,-1.000000000000,-0.200000000000));
#320=AXIS2_PLACEMENT_3D('',#319,#3,#30);
#321=CIRCLE('',#320,2.000000000000);
#322=EDGE_CURVE('',#318,#312,#321,.T.);
#323=ORIENTED_EDGE('',*,*,#322,.F.);
#324=CARTESIAN_POINT('',(-3.926658805021,-1.400000000000,-0.200000000000));
#325=VERTEX_POINT('',#324);
#326=CIRCLE('',#216,3.200000000000);
#327=EDGE_CURVE('',#325,#318,#326,.T.);
#328=ORIENTED_EDGE('',*,*,#327,.F.);
#329=CARTESIAN_POINT('',(-4.252380053230,0.650000000000,-0.200000000000));
#330=VERTEX_POINT('',#329);
#331=CIRCLE('',#216,3.200000000000);
#332=EDGE_CURVE('',#330,#325,#331,.T.);
#333=ORIENTED_EDGE('',*,*,#332,.F.);
#334=CARTESIAN_POINT('',(2.033131023182,0.750761086404,-0.200000000000));
#335=VERTEX_POINT('',#334);
#336=CIRCLE('',#216,3.200000000000);
#337=EDGE_CURVE('',#335,#330,#336,.T.);
#338=ORIENTED_EDGE('',*,*,#337,.F.);
#339=CARTESIAN_POINT('',(2.500000000000,0.936491673104,-0.200000000000));
#340=VERTEX_POINT('',#339);
#341=CIRCLE('',#320,2.000000000000);
#342=EDGE_CURVE('',#340,#335,#341,.T.);
#343=ORIENTED_EDGE('',*,*,#342,.F.);
#344=CIRCLE('',#320,2.000000000000);
#345=EDGE_CURVE('',#44,#340,#344,.T.);
#346=ORIENTED_EDGE('',*,*,#345,.F.);
#347=ORIENTED_EDGE('',*,*,#49,.F.);
#348=EDGE_LOOP('',(#270,#276,#282,#289,#294,#299,#304,#310,#316,#323,#328,#333,#338,#343,#346,#347));
#349=FACE_BOUND('',#220,.T.);
#350=FACE_BOUND('',#233,.T.);
#351=FACE_BOUND('',#246,.T.);
#352=FACE_BOUND('',#269,.T.);
#353=FACE_OUTER_BOUND('',#348,.T.);
#354=ADVANCED_FACE('',(#349,#350,#351,#352,#353),#212,.T.);
#355=CARTESIAN_POINT('',(7.500000000000,0.000000000000,0.000000000000));
#356=AXIS2_PLACEMENT_3D('',#355,#2,#3);
#357=PLANE('',#356);
#358=ORIENTED_EDGE('',*,*,#197,.F.);
#359=CARTESIAN_POINT('',(7.500000000000,-2.061250543006,0.000000000000));
#360=LINE('',#359,#11);
#361=EDGE_CURVE('',#278,#189,#360,.T.);
#362=ORIENTED_EDGE('',*,*,#361,.F.);
#363=ORIENTED_EDGE('',*,*,#281,.F.);
#364=CARTESIAN_POINT('',(7.500000000000,-1.400000000000,0.000000000000));
#365=LINE('',#364,#11);
#366=EDGE_CURVE('',#272,#194,#365,.T.);
#367=ORIENTED_EDGE('',*,*,#366,.T.);
#368=EDGE_LOOP('',(#358,#362,#363,#367));
#369=FACE_OUTER_BOUND('',#368,.T.);
#370=ADVANCED_FACE('',(#369),#357,.T.);
#371=CARTESIAN_POINT('',(2.500000000000,0.000000000000,0.000000000000));
#372=AXIS2_PLACEMENT_3D('',#371,#46,#39);
#373=PLANE('',#372);
#374=ORIENTED_EDGE('',*,*,#163,.F.);
#375=CARTESIAN_POINT('',(2.500000000000,-2.936491673104,0.000000000000));
#376=LINE('',#375,#11);
#377=EDGE_CURVE('',#312,#155,#376,.T.);
#378=ORIENTED_EDGE('',*,*,#377,.F.);
#379=ORIENTED_EDGE('',*,*,#315,.F.);
#380=CARTESIAN_POINT('',(2.500000000000,-3.200000000000,0.000000000000));
#381=LINE('',#380,#11);
#382=EDGE_CURVE('',#306,#160,#381,.T.);
#383=ORIENTED_EDGE('',*,*,#382,.T.);
#384=EDGE_LOOP('',(#374,#378,#379,#383));
#385=FACE_OUTER_BOUND('',#384,.T.);
#386=ADVANCED_FACE('',(#385),#373,.T.);
#387=CARTESIAN_POINT('',(0.000000000000,-1.400000000000,0.000000000000));
#388=AXIS2_PLACEMENT_3D('',#387,#30,#39);
#389=PLANE('',#388);
#390=ORIENTED_EDGE('',*,*,#27,.T.);
#391=ORIENTED_EDGE('',*,*,#201,.F.);
#392=ORIENTED_EDGE('',*,*,#366,.F.);
#393=ORIENTED_EDGE('',*,*,#275,.F.);
#394=EDGE_LOOP('',(#390,#391,#392,#393));
#395=FACE_OUTER_BOUND('',#394,.T.);
#396=ADVANCED_FACE('',(#395),#389,.T.);
#397=CARTESIAN_POINT('',(0.000000000000,-3.200000000000,0.000000000000));
#398=AXIS2_PLACEMENT_3D('',#397,#18,#3);
#399=PLANE('',#398);
#400=ORIENTED_EDGE('',*,*,#169,.F.);
#401=ORIENTED_EDGE('',*,*,#382,.F.);
#402=ORIENTED_EDGE('',*,*,#309,.F.);
#403=CARTESIAN_POINT('',(5.228376635450,-3.200000000000,0.000000000000));
#404=LINE('',#403,#11);
#405=EDGE_CURVE('',#301,#166,#404,.T.);
#406=ORIENTED_EDGE('',*,*,#405,.T.);
#407=EDGE_LOOP('',(#400,#401,#402,#406));
#408=FACE_OUTER_BOUND('',#407,.T.);
#409=ADVANCED_FACE('',(#408),#399,.T.);
#410=CARTESIAN_POINT('',(6.800000000000,-3.500000000000,0.000000000000));
#411=AXIS2_PLACEMENT_3D('',#410,#3,#30);
#412=CYLINDRICAL_SURFACE('',#411,1.600000000000);
#413=ORIENTED_EDGE('',*,*,#176,.F.);
#414=ORIENTED_EDGE('',*,*,#405,.F.);
#415=ORIENTED_EDGE('',*,*,#303,.T.);
#416=ORIENTED_EDGE('',*,*,#298,.T.);
#417=ORIENTED_EDGE('',*,*,#293,.T.);
#418=ORIENTED_EDGE('',*,*,#288,.T.);
#419=ORIENTED_EDGE('',*,*,#361,.T.);
#420=ORIENTED_EDGE('',*,*,#191,.F.);
#421=ORIENTED_EDGE('',*,*,#186,.F.);
#422=ORIENTED_EDGE('',*,*,#181,.F.);
#423=EDGE_LOOP('',(#413,#414,#415,#416,#417,#418,#419,#420,#421,#422));
#424=FACE_BOUND('',#423,.T.);
#425=ADVANCED_FACE('',(#424),#412,.T.);
#426=CARTESIAN_POINT('',(7.500000000000,-3.300000000000,0.000000000000));
#427=AXIS2_PLACEMENT_3D('',#426,#3,#30);
#428=CYLINDRICAL_SURFACE('',#427,0.280000000000);
#429=ORIENTED_EDGE('',*,*,#109,.T.);
#430=ORIENTED_EDGE('',*,*,#122,.T.);
#431=ORIENTED_EDGE('',*,*,#119,.T.);
#432=ORIENTED_EDGE('',*,*,#114,.T.);
#433=EDGE_LOOP('',(#429,#430,#431,#432));
#434=ORIENTED_EDGE('',*,*,#254,.F.);
#435=ORIENTED_EDGE('',*,*,#267,.F.);
#436=ORIENTED_EDGE('',*,*,#264,.F.);
#437=ORIENTED_EDGE('',*,*,#259,.F.);
#438=EDGE_LOOP('',(#434,#435,#436,#437));
#439=FACE_BOUND('',#433,.T.);
#440=FACE_BOUND('',#438,.T.);
#441=ADVANCED_FACE('',(#439,#440),#428,.F.);
#442=CARTESIAN_POINT('',(-3.000000000000,-1.600000000000,0.000000000000));
#443=AXIS2_PLACEMENT_3D('',#442,#3,#30);
#444=CYLINDRICAL_SURFACE('',#443,0.280000000000);
#445=ORIENTED_EDGE('',*,*,#228,.F.);
#446=ORIENTED_EDGE('',*,*,#231,.F.);
#447=EDGE_LOOP('',(#445,#446));
#448=ORIENTED_EDGE('',*,*,#83,.T.);
#449=ORIENTED_EDGE('',*,*,#86,.T.);
#450=EDGE_LOOP('',(#448,#449));
#451=FACE_BOUND('',#447,.T.);
#452=FACE_BOUND('',#450,.T.);
#453=ADVANCED_FACE('',(#451,#452),#444,.F.);
#454=CARTESIAN_POINT('',(-1.100000000000,0.100000000000,0.000000000000));
#455=AXIS2_PLACEMENT_3D('',#454,#3,#30);
#456=CYLINDRICAL_SURFACE('',#455,3.200000000000);
#457=ORIENTED_EDGE('',*,*,#147,.F.);
#458=ORIENTED_EDGE('',*,*,#142,.F.);
#459=CARTESIAN_POINT('',(2.033131023182,0.750761086404,0.000000000000));
#460=LINE('',#459,#11);
#461=EDGE_CURVE('',#335,#135,#460,.T.);
#462=ORIENTED_EDGE('',*,*,#461,.F.);
#463=ORIENTED_EDGE('',*,*,#337,.T.);
#464=ORIENTED_EDGE('',*,*,#332,.T.);
#465=ORIENTED_EDGE('',*,*,#327,.T.);
#466=CARTESIAN_POINT('',(1.286624803678,-2.031671186293,0.000000000000));
#467=LINE('',#466,#11);
#468=EDGE_CURVE('',#318,#150,#467,.T.);
#469=ORIENTED_EDGE('',*,*,#468,.T.);
#470=ORIENTED_EDGE('',*,*,#152,.F.);
#471=EDGE_LOOP('',(#457,#458,#462,#463,#464,#465,#469,#470));
#472=FACE_BOUND('',#471,.T.);
#473=ADVANCED_FACE('',(#472),#456,.T.);
#474=CARTESIAN_POINT('',(3.000000000000,-1.000000000000,0.000000000000));
#475=AXIS2_PLACEMENT_3D('',#474,#3,#30);
#476=CYLINDRICAL_SURFACE('',#475,2.000000000000);
#477=ORIENTED_EDGE('',*,*,#157,.F.);
#478=ORIENTED_EDGE('',*,*,#468,.F.);
#479=ORIENTED_EDGE('',*,*,#322,.T.);
#480=ORIENTED_EDGE('',*,*,#377,.T.);
#481=EDGE_LOOP('',(#477,#478,#479,#480));
#482=ORIENTED_EDGE('',*,*,#55,.F.);
#483=ORIENTED_EDGE('',*,*,#345,.T.);
#484=ORIENTED_EDGE('',*,*,#342,.T.);
#485=ORIENTED_EDGE('',*,*,#461,.T.);
#486=ORIENTED_EDGE('',*,*,#137,.F.);
#487=ORIENTED_EDGE('',*,*,#132,.F.);
#488=EDGE_LOOP('',(#482,#483,#484,#485,#486,#487));
#489=FACE_BOUND('',#481,.T.);
#490=FACE_BOUND('',#488,.T.);
#491=ADVANCED_FACE('',(#489,#490),#476,.T.);
#492=CARTESIAN_POINT('',(2.700000000000,0.200000000000,0.000000000000));
#493=AXIS2_PLACEMENT_3D('',#492,#3,#30);
#494=CYLINDRICAL_SURFACE('',#493,0.280000000000);
#495=ORIENTED_EDGE('',*,*,#241,.F.);
#496=ORIENTED_EDGE('',*,*,#244,.F.);
#497=EDGE_LOOP('',(#495,#496));
#498=ORIENTED_EDGE('',*,*,#96,.T.);
#499=ORIENTED_EDGE('',*,*,#99,.T.);
#500=EDGE_LOOP('',(#498,#499));
#501=FACE_BOUND('',#497,.T.);
#502=FACE_BOUND('',#500,.T.);
#503=ADVANCED_FACE('',(#501,#502),#494,.F.);
#504=CYLINDRICAL_SURFACE('',#455,0.500000000000);
#505=ORIENTED_EDGE('',*,*,#73,.T.);
#506=EDGE_LOOP('',(#505));
#507=ORIENTED_EDGE('',*,*,#218,.F.);
#508=EDGE_LOOP('',(#507));
#509=FACE_BOUND('',#506,.T.);
#510=FACE_BOUND('',#508,.T.);
#511=ADVANCED_FACE('',(#509,#510),#504,.F.);
#512=CLOSED_SHELL('',(#37,#64,#209,#354,#370,#386,#396,#409,#425,#441,#453,#473,#491,#503,#511));
#513=MANIFOLD_SOLID_BREP('barrel_and_winding',#512);
#514=APPLICATION_CONTEXT('core data for automotive mechanical design processes');
#515=APPLICATION_PROTOCOL_DEFINITION('international standard','automotive_design',2000,#514);
#516=PRODUCT_CONTEXT('',#514,'mechanical');
#517=PRODUCT('barrel_and_winding','barrel_and_winding','',(#516));
#518=PRODUCT_DEFINITION_FORMATION('','',#517);
#519=PRODUCT_DEFINITION_CONTEXT('part definition',#514,'design');
#520=PRODUCT_DEFINITION('','',#518,#519);
#521=PRODUCT_DEFINITION_SHAPE('','',#520);
#522=(LENGTH_UNIT()NAMED_UNIT(*)SI_UNIT(.MILLI.,.METRE.));
#523=(NAMED_UNIT(*)PLANE_ANGLE_UNIT()SI_UNIT($,.RADIAN.));
#524=(NAMED_UNIT(*)SI_UNIT($,.STERADIAN.)SOLID_ANGLE_UNIT());
#525=UNCERTAINTY_MEASURE_WITH_UNIT(LENGTH_MEASURE(1.E-07),#522,'distance_accuracy_value','');
#526=(GEOMETRIC_REPRESENTATION_CONTEXT(3)GLOBAL_UNCERTAINTY_ASSIGNED_CONTEXT((#525))GLOBAL_UNIT_ASSIGNED_CONTEXT((#522,#523,#524))REPRESENTATION_CONTEXT('',''));
#527=ADVANCED_BREP_SHAPE_REPRESENTATION('',(#513),#526);
#528=SHAPE_DEFINITION_REPRESENTATION(#521,#527);
ENDSEC;
END-ISO-10303-21;
