ISO-10303-21;
HEADER;
FILE_DESCRIPTION(('4 face(s), 4 edge(s), 4 vertex/vertices confirmed by cade at n=128, half-extent 3.000000000000'),'2;1');
FILE_NAME('automatic_winding.step','2026-08-23T00:00:00',('cade'),('cade'),'cade 0.1.0','cade','');
FILE_SCHEMA(('AUTOMOTIVE_DESIGN { 1 0 10303 214 1 1 1 1 }'));
ENDSEC;
DATA;
#1=CARTESIAN_POINT('',(0.000000000000,0.000000000000,0.450000000000));
#2=DIRECTION('',(0.000000000000,0.000000000000,1.000000000000));
#3=DIRECTION('',(0.000000000000,1.000000000000,0.000000000000));
#4=AXIS2_PLACEMENT_3D('',#1,#2,#3);
#5=PLANE('',#4);
#6=CARTESIAN_POINT('',(0.000000000000,2.390000000000,0.450000000000));
#7=VERTEX_POINT('',#6);
#8=CIRCLE('',#4,2.390000000000);
#9=EDGE_CURVE('',#7,#7,#8,.T.);
#10=ORIENTED_EDGE('',*,*,#9,.T.);
#11=EDGE_LOOP('',(#10));
#12=CARTESIAN_POINT('',(0.000000000000,1.300000000000,0.450000000000));
#13=VERTEX_POINT('',#12);
#14=CIRCLE('',#4,1.300000000000);
#15=EDGE_CURVE('',#13,#13,#14,.T.);
#16=ORIENTED_EDGE('',*,*,#15,.F.);
#17=EDGE_LOOP('',(#16));
#18=FACE_OUTER_BOUND('',#11,.T.);
#19=FACE_BOUND('',#17,.T.);
#20=ADVANCED_FACE('',(#18,#19),#5,.T.);
#21=CARTESIAN_POINT('',(0.000000000000,0.000000000000,0.000000000000));
#22=AXIS2_PLACEMENT_3D('',#21,#2,#3);
#23=CYLINDRICAL_SURFACE('',#22,2.390000000000);
#24=CARTESIAN_POINT('',(0.000000000000,2.390000000000,-0.450000000000));
#25=VERTEX_POINT('',#24);
#26=CARTESIAN_POINT('',(0.000000000000,0.000000000000,-0.450000000000));
#27=AXIS2_PLACEMENT_3D('',#26,#2,#3);
#28=CIRCLE('',#27,2.390000000000);
#29=EDGE_CURVE('',#25,#25,#28,.T.);
#30=ORIENTED_EDGE('',*,*,#29,.T.);
#31=EDGE_LOOP('',(#30));
#32=ORIENTED_EDGE('',*,*,#9,.F.);
#33=EDGE_LOOP('',(#32));
#34=FACE_BOUND('',#31,.T.);
#35=FACE_BOUND('',#33,.T.);
#36=ADVANCED_FACE('',(#34,#35),#23,.T.);
#37=DIRECTION('',(0.000000000000,0.000000000000,-1.000000000000));
#38=DIRECTION('',(0.000000000000,-1.000000000000,0.000000000000));
#39=AXIS2_PLACEMENT_3D('',#26,#37,#38);
#40=PLANE('',#39);
#41=CARTESIAN_POINT('',(0.000000000000,1.300000000000,-0.450000000000));
#42=VERTEX_POINT('',#41);
#43=CIRCLE('',#27,1.300000000000);
#44=EDGE_CURVE('',#42,#42,#43,.T.);
#45=ORIENTED_EDGE('',*,*,#44,.T.);
#46=EDGE_LOOP('',(#45));
#47=ORIENTED_EDGE('',*,*,#29,.F.);
#48=EDGE_LOOP('',(#47));
#49=FACE_BOUND('',#46,.T.);
#50=FACE_OUTER_BOUND('',#48,.T.);
#51=ADVANCED_FACE('',(#49,#50),#40,.T.);
#52=CYLINDRICAL_SURFACE('',#22,1.300000000000);
#53=ORIENTED_EDGE('',*,*,#44,.F.);
#54=EDGE_LOOP('',(#53));
#55=ORIENTED_EDGE('',*,*,#15,.T.);
#56=EDGE_LOOP('',(#55));
#57=FACE_BOUND('',#54,.T.);
#58=FACE_BOUND('',#56,.T.);
#59=ADVANCED_FACE('',(#57,#58),#52,.F.);
#60=CLOSED_SHELL('',(#20,#36,#51,#59));
#61=MANIFOLD_SOLID_BREP('automatic_winding',#60);
#62=APPLICATION_CONTEXT('core data for automotive mechanical design processes');
#63=APPLICATION_PROTOCOL_DEFINITION('international standard','automotive_design',2000,#62);
#64=PRODUCT_CONTEXT('',#62,'mechanical');
#65=PRODUCT('automatic_winding','automatic_winding','',(#64));
#66=PRODUCT_DEFINITION_FORMATION('','',#65);
#67=PRODUCT_DEFINITION_CONTEXT('part definition',#62,'design');
#68=PRODUCT_DEFINITION('','',#66,#67);
#69=PRODUCT_DEFINITION_SHAPE('','',#68);
#70=(LENGTH_UNIT()NAMED_UNIT(*)SI_UNIT(.MILLI.,.METRE.));
#71=(NAMED_UNIT(*)PLANE_ANGLE_UNIT()SI_UNIT($,.RADIAN.));
#72=(NAMED_UNIT(*)SI_UNIT($,.STERADIAN.)SOLID_ANGLE_UNIT());
#73=UNCERTAINTY_MEASURE_WITH_UNIT(LENGTH_MEASURE(1.E-07),#70,'distance_accuracy_value','');
#74=(GEOMETRIC_REPRESENTATION_CONTEXT(3)GLOBAL_UNCERTAINTY_ASSIGNED_CONTEXT((#73))GLOBAL_UNIT_ASSIGNED_CONTEXT((#70,#71,#72))REPRESENTATION_CONTEXT('',''));
#75=ADVANCED_BREP_SHAPE_REPRESENTATION('',(#61),#74);
#76=SHAPE_DEFINITION_REPRESENTATION(#69,#75);
ENDSEC;
END-ISO-10303-21;
