ISO-10303-21;
HEADER;
FILE_DESCRIPTION(('16 face(s), 71 edge(s), 60 vertex/vertices confirmed by cade at n=192, half-extent 7.000000000000'),'2;1');
FILE_NAME('automatic_winding.step','2026-08-23T00:00:00',('cade'),('cade'),'cade 0.1.0','cade','');
FILE_SCHEMA(('AUTOMOTIVE_DESIGN { 1 0 10303 214 1 1 1 1 }'));
ENDSEC;
DATA;
#1=CARTESIAN_POINT('',(5.466300000000,3.172100000000,0.000000000000));
#2=DIRECTION('',(0.000000000000,0.000000000000,1.000000000000));
#3=DIRECTION('',(0.000000000000,1.000000000000,0.000000000000));
#4=AXIS2_PLACEMENT_3D('',#1,#2,#3);
#5=CYLINDRICAL_SURFACE('',#4,0.260000000000);
#6=CARTESIAN_POINT('',(5.466300000000,3.432100000000,0.070000000000));
#7=VERTEX_POINT('',#6);
#8=CARTESIAN_POINT('',(5.466300000000,3.172100000000,0.070000000000));
#9=AXIS2_PLACEMENT_3D('',#8,#2,#3);
#10=CIRCLE('',#9,0.260000000000);
#11=EDGE_CURVE('',#7,#7,#10,.T.);
#12=ORIENTED_EDGE('',*,*,#11,.T.);
#13=EDGE_LOOP('',(#12));
#14=CARTESIAN_POINT('',(5.466300000000,3.432100000000,-0.070000000000));
#15=VERTEX_POINT('',#14);
#16=CARTESIAN_POINT('',(5.466300000000,3.172100000000,-0.070000000000));
#17=AXIS2_PLACEMENT_3D('',#16,#2,#3);
#18=CIRCLE('',#17,0.260000000000);
#19=EDGE_CURVE('',#15,#15,#18,.T.);
#20=ORIENTED_EDGE('',*,*,#19,.F.);
#21=EDGE_LOOP('',(#20));
#22=FACE_BOUND('',#13,.T.);
#23=FACE_BOUND('',#21,.T.);
#24=ADVANCED_FACE('',(#22,#23),#5,.F.);
#25=CARTESIAN_POINT('',(4.774100000000,-0.909600000000,0.000000000000));
#26=AXIS2_PLACEMENT_3D('',#25,#2,#3);
#27=CYLINDRICAL_SURFACE('',#26,0.260000000000);
#28=CARTESIAN_POINT('',(4.774100000000,-0.649600000000,-0.070000000000));
#29=VERTEX_POINT('',#28);
#30=CARTESIAN_POINT('',(4.774100000000,-0.909600000000,-0.070000000000));
#31=AXIS2_PLACEMENT_3D('',#30,#2,#3);
#32=CIRCLE('',#31,0.260000000000);
#33=EDGE_CURVE('',#29,#29,#32,.T.);
#34=ORIENTED_EDGE('',*,*,#33,.F.);
#35=EDGE_LOOP('',(#34));
#36=CARTESIAN_POINT('',(4.774100000000,-0.649600000000,0.070000000000));
#37=VERTEX_POINT('',#36);
#38=CARTESIAN_POINT('',(4.774100000000,-0.909600000000,0.070000000000));
#39=AXIS2_PLACEMENT_3D('',#38,#2,#3);
#40=CIRCLE('',#39,0.260000000000);
#41=EDGE_CURVE('',#37,#37,#40,.T.);
#42=ORIENTED_EDGE('',*,*,#41,.T.);
#43=EDGE_LOOP('',(#42));
#44=FACE_BOUND('',#35,.T.);
#45=FACE_BOUND('',#43,.T.);
#46=ADVANCED_FACE('',(#44,#45),#27,.F.);
#47=CARTESIAN_POINT('',(3.804649610995,-0.645216022564,0.000000000000));
#48=DIRECTION('',(-0.985923176620,0.167198952759,0.000000000000));
#49=DIRECTION('',(0.167198952759,0.985923176620,0.000000000000));
#50=AXIS2_PLACEMENT_3D('',#47,#48,#49);
#51=PLANE('',#50);
#52=CARTESIAN_POINT('',(3.883116909285,-0.182517382920,0.070000000000));
#53=VERTEX_POINT('',#52);
#54=CARTESIAN_POINT('',(4.022501921826,0.639395147449,0.070000000000));
#55=VERTEX_POINT('',#54);
#56=CARTESIAN_POINT('',(3.804649610995,-0.645216022564,0.070000000000));
#57=VECTOR('',#49,1.0);
#58=LINE('',#56,#57);
#59=EDGE_CURVE('',#53,#55,#58,.T.);
#60=ORIENTED_EDGE('',*,*,#59,.T.);
#61=CARTESIAN_POINT('',(4.377187759484,2.730873485063,0.070000000000));
#62=VERTEX_POINT('',#61);
#63=LINE('',#56,#57);
#64=EDGE_CURVE('',#55,#62,#63,.T.);
#65=ORIENTED_EDGE('',*,*,#64,.T.);
#66=CARTESIAN_POINT('',(4.377187759484,2.730873485063,-0.070000000000));
#67=VERTEX_POINT('',#66);
#68=CARTESIAN_POINT('',(4.377187759484,2.730873485063,0.000000000000));
#69=VECTOR('',#2,1.0);
#70=LINE('',#68,#69);
#71=EDGE_CURVE('',#67,#62,#70,.T.);
#72=ORIENTED_EDGE('',*,*,#71,.F.);
#73=CARTESIAN_POINT('',(4.022501921826,0.639395147449,-0.070000000000));
#74=VERTEX_POINT('',#73);
#75=CARTESIAN_POINT('',(3.804649610995,-0.645216022564,-0.070000000000));
#76=DIRECTION('',(-0.167198952759,-0.985923176620,0.000000000000));
#77=VECTOR('',#76,1.0);
#78=LINE('',#75,#77);
#79=EDGE_CURVE('',#67,#74,#78,.T.);
#80=ORIENTED_EDGE('',*,*,#79,.T.);
#81=CARTESIAN_POINT('',(3.883116909285,-0.182517382920,-0.070000000000));
#82=VERTEX_POINT('',#81);
#83=LINE('',#75,#77);
#84=EDGE_CURVE('',#74,#82,#83,.T.);
#85=ORIENTED_EDGE('',*,*,#84,.T.);
#86=CARTESIAN_POINT('',(3.883116909285,-0.182517382920,0.000000000000));
#87=LINE('',#86,#69);
#88=EDGE_CURVE('',#82,#53,#87,.T.);
#89=ORIENTED_EDGE('',*,*,#88,.T.);
#90=EDGE_LOOP('',(#60,#65,#72,#80,#85,#89));
#91=FACE_OUTER_BOUND('',#90,.T.);
#92=ADVANCED_FACE('',(#91),#51,.T.);
#93=CARTESIAN_POINT('',(5.776495964235,-0.979613928081,0.000000000000));
#94=DIRECTION('',(0.985923176620,-0.167198952759,0.000000000000));
#95=AXIS2_PLACEMENT_3D('',#93,#94,#76);
#96=PLANE('',#95);
#97=CARTESIAN_POINT('',(6.357261683496,2.444991150829,0.070000000000));
#98=VERTEX_POINT('',#97);
#99=CARTESIAN_POINT('',(6.181317236819,1.407498362063,0.070000000000));
#100=VERTEX_POINT('',#99);
#101=CARTESIAN_POINT('',(5.776495964235,-0.979613928081,0.070000000000));
#102=LINE('',#101,#77);
#103=EDGE_CURVE('',#98,#100,#102,.T.);
#104=ORIENTED_EDGE('',*,*,#103,.T.);
#105=CARTESIAN_POINT('',(5.854968168318,-0.516886360415,0.070000000000));
#106=VERTEX_POINT('',#105);
#107=LINE('',#101,#77);
#108=EDGE_CURVE('',#100,#106,#107,.T.);
#109=ORIENTED_EDGE('',*,*,#108,.T.);
#110=CARTESIAN_POINT('',(5.854968168318,-0.516886360415,-0.070000000000));
#111=VERTEX_POINT('',#110);
#112=CARTESIAN_POINT('',(5.854968168318,-0.516886360415,0.000000000000));
#113=LINE('',#112,#69);
#114=EDGE_CURVE('',#111,#106,#113,.T.);
#115=ORIENTED_EDGE('',*,*,#114,.F.);
#116=CARTESIAN_POINT('',(6.181317236819,1.407498362063,-0.070000000000));
#117=VERTEX_POINT('',#116);
#118=CARTESIAN_POINT('',(5.776495964235,-0.979613928081,-0.070000000000));
#119=LINE('',#118,#57);
#120=EDGE_CURVE('',#111,#117,#119,.T.);
#121=ORIENTED_EDGE('',*,*,#120,.T.);
#122=CARTESIAN_POINT('',(6.357261683496,2.444991150829,-0.070000000000));
#123=VERTEX_POINT('',#122);
#124=LINE('',#118,#57);
#125=EDGE_CURVE('',#117,#123,#124,.T.);
#126=ORIENTED_EDGE('',*,*,#125,.T.);
#127=CARTESIAN_POINT('',(6.357261683496,2.444991150829,0.000000000000));
#128=LINE('',#127,#69);
#129=EDGE_CURVE('',#123,#98,#128,.T.);
#130=ORIENTED_EDGE('',*,*,#129,.T.);
#131=EDGE_LOOP('',(#104,#109,#115,#121,#126,#130));
#132=FACE_OUTER_BOUND('',#131,.T.);
#133=ADVANCED_FACE('',(#132),#96,.T.);
#134=CARTESIAN_POINT('',(0.000000000000,0.000000000000,0.070000000000));
#135=AXIS2_PLACEMENT_3D('',#134,#2,#3);
#136=PLANE('',#135);
#137=CARTESIAN_POINT('',(1.934500000000,6.022800000000,0.070000000000));
#138=VERTEX_POINT('',#137);
#139=CARTESIAN_POINT('',(1.934500000000,5.762800000000,0.070000000000));
#140=AXIS2_PLACEMENT_3D('',#139,#2,#3);
#141=CIRCLE('',#140,0.260000000000);
#142=EDGE_CURVE('',#138,#138,#141,.T.);
#143=ORIENTED_EDGE('',*,*,#142,.F.);
#144=EDGE_LOOP('',(#143));
#145=ORIENTED_EDGE('',*,*,#11,.F.);
#146=EDGE_LOOP('',(#145));
#147=ORIENTED_EDGE('',*,*,#41,.F.);
#148=EDGE_LOOP('',(#147));
#149=CARTESIAN_POINT('',(1.069643740997,7.637412393737,0.070000000000));
#150=VERTEX_POINT('',#149);
#151=CARTESIAN_POINT('',(1.426480081886,7.375663809476,0.070000000000));
#152=VERTEX_POINT('',#151);
#153=CARTESIAN_POINT('',(1.500000000000,7.850000000000,0.070000000000));
#154=AXIS2_PLACEMENT_3D('',#153,#2,#3);
#155=CIRCLE('',#154,0.480000000000);
#156=EDGE_CURVE('',#150,#152,#155,.T.);
#157=ORIENTED_EDGE('',*,*,#156,.F.);
#158=CIRCLE('',#154,0.480000000000);
#159=EDGE_CURVE('',#152,#150,#158,.T.);
#160=ORIENTED_EDGE('',*,*,#159,.F.);
#161=EDGE_LOOP('',(#157,#160));
#162=ORIENTED_EDGE('',*,*,#59,.F.);
#163=CARTESIAN_POINT('',(3.693220309516,-1.302281925608,0.070000000000));
#164=VERTEX_POINT('',#163);
#165=CIRCLE('',#39,1.150000000000);
#166=EDGE_CURVE('',#53,#164,#165,.T.);
#167=ORIENTED_EDGE('',*,*,#166,.T.);
#168=CARTESIAN_POINT('',(4.580985481579,-2.043269609179,0.070000000000));
#169=VERTEX_POINT('',#168);
#170=CIRCLE('',#39,1.150000000000);
#171=EDGE_CURVE('',#164,#169,#170,.T.);
#172=ORIENTED_EDGE('',*,*,#171,.T.);
#173=CARTESIAN_POINT('',(5.665061756963,-1.636708759148,0.070000000000));
#174=VERTEX_POINT('',#173);
#175=CIRCLE('',#39,1.150000000000);
#176=EDGE_CURVE('',#169,#174,#175,.T.);
#177=ORIENTED_EDGE('',*,*,#176,.T.);
#178=CIRCLE('',#39,1.150000000000);
#179=EDGE_CURVE('',#174,#106,#178,.T.);
#180=ORIENTED_EDGE('',*,*,#179,.T.);
#181=ORIENTED_EDGE('',*,*,#108,.F.);
#182=ORIENTED_EDGE('',*,*,#103,.F.);
#183=CARTESIAN_POINT('',(6.547168128638,3.564813748796,0.070000000000));
#184=VERTEX_POINT('',#183);
#185=CIRCLE('',#9,1.150000000000);
#186=EDGE_CURVE('',#98,#184,#185,.T.);
#187=ORIENTED_EDGE('',*,*,#186,.T.);
#188=CARTESIAN_POINT('',(6.515627605382,3.642643915679,0.070000000000));
#189=VERTEX_POINT('',#188);
#190=CIRCLE('',#9,1.150000000000);
#191=EDGE_CURVE('',#184,#189,#190,.T.);
#192=ORIENTED_EDGE('',*,*,#191,.T.);
#193=CARTESIAN_POINT('',(5.599965397233,4.314305568881,0.070000000000));
#194=VERTEX_POINT('',#193);
#195=CIRCLE('',#9,1.150000000000);
#196=EDGE_CURVE('',#189,#194,#195,.T.);
#197=ORIENTED_EDGE('',*,*,#196,.T.);
#198=CARTESIAN_POINT('',(4.751287892708,4.936832228441,0.070000000000));
#199=VERTEX_POINT('',#198);
#200=CARTESIAN_POINT('',(4.016599176171,5.475745196069,0.070000000000));
#201=DIRECTION('',(-0.806331066103,0.591464463715,0.000000000000));
#202=VECTOR('',#201,1.0);
#203=LINE('',#200,#202);
#204=EDGE_CURVE('',#194,#199,#203,.T.);
#205=ORIENTED_EDGE('',*,*,#204,.T.);
#206=CARTESIAN_POINT('',(2.983850558720,6.233292725677,0.070000000000));
#207=VERTEX_POINT('',#206);
#208=LINE('',#200,#202);
#209=EDGE_CURVE('',#199,#207,#208,.T.);
#210=ORIENTED_EDGE('',*,*,#209,.T.);
#211=CARTESIAN_POINT('',(2.797713078743,6.522644181847,0.070000000000));
#212=VERTEX_POINT('',#211);
#213=CIRCLE('',#140,1.150000000000);
#214=EDGE_CURVE('',#207,#212,#213,.T.);
#215=ORIENTED_EDGE('',*,*,#214,.T.);
#216=CARTESIAN_POINT('',(2.544241955964,7.740187717422,0.070000000000));
#217=VERTEX_POINT('',#216);
#218=CARTESIAN_POINT('',(3.982990300862,0.829188438918,0.070000000000));
#219=DIRECTION('',(-0.203812623708,0.979009915383,0.000000000000));
#220=VECTOR('',#219,1.0);
#221=LINE('',#218,#220);
#222=EDGE_CURVE('',#212,#217,#221,.T.);
#223=ORIENTED_EDGE('',*,*,#222,.T.);
#224=CARTESIAN_POINT('',(2.413664504512,8.367413928296,0.070000000000));
#225=VERTEX_POINT('',#224);
#226=CIRCLE('',#154,1.050000000000);
#227=EDGE_CURVE('',#217,#225,#226,.T.);
#228=ORIENTED_EDGE('',*,*,#227,.T.);
#229=CARTESIAN_POINT('',(0.474210429694,8.074177959337,0.070000000000));
#230=VERTEX_POINT('',#229);
#231=CIRCLE('',#154,1.050000000000);
#232=EDGE_CURVE('',#225,#230,#231,.T.);
#233=ORIENTED_EDGE('',*,*,#232,.T.);
#234=CARTESIAN_POINT('',(0.455718393078,7.959434571527,0.070000000000));
#235=VERTEX_POINT('',#234);
#236=CIRCLE('',#154,1.050000000000);
#237=EDGE_CURVE('',#230,#235,#236,.T.);
#238=ORIENTED_EDGE('',*,*,#237,.T.);
#239=CARTESIAN_POINT('',(0.586148405868,7.332916579359,0.070000000000));
#240=VERTEX_POINT('',#239);
#241=CIRCLE('',#154,1.050000000000);
#242=EDGE_CURVE('',#235,#240,#241,.T.);
#243=ORIENTED_EDGE('',*,*,#242,.T.);
#244=CARTESIAN_POINT('',(0.839721959867,6.114881017441,0.070000000000));
#245=VERTEX_POINT('',#244);
#246=CARTESIAN_POINT('',(2.024970470097,0.421563191503,0.070000000000));
#247=DIRECTION('',(0.203812623708,-0.979009915383,0.000000000000));
#248=VECTOR('',#247,1.0);
#249=LINE('',#246,#248);
#250=EDGE_CURVE('',#240,#245,#249,.T.);
#251=ORIENTED_EDGE('',*,*,#250,.T.);
#252=CARTESIAN_POINT('',(0.885105591215,5.292405086325,0.070000000000));
#253=VERTEX_POINT('',#252);
#254=CIRCLE('',#140,1.150000000000);
#255=EDGE_CURVE('',#245,#253,#254,.T.);
#256=ORIENTED_EDGE('',*,*,#255,.T.);
#257=CARTESIAN_POINT('',(1.071179887574,5.003077429925,0.070000000000));
#258=VERTEX_POINT('',#257);
#259=CIRCLE('',#140,1.150000000000);
#260=EDGE_CURVE('',#253,#258,#259,.T.);
#261=ORIENTED_EDGE('',*,*,#260,.T.);
#262=CARTESIAN_POINT('',(1.800996789404,4.620575463072,0.070000000000));
#263=VERTEX_POINT('',#262);
#264=CIRCLE('',#140,1.150000000000);
#265=EDGE_CURVE('',#258,#263,#264,.T.);
#266=ORIENTED_EDGE('',*,*,#265,.T.);
#267=CARTESIAN_POINT('',(3.444694634934,3.414881045996,0.070000000000));
#268=VERTEX_POINT('',#267);
#269=CARTESIAN_POINT('',(2.833670248742,3.863083063863,0.070000000000));
#270=DIRECTION('',(0.806331066103,-0.591464463715,0.000000000000));
#271=VECTOR('',#270,1.0);
#272=LINE('',#269,#271);
#273=EDGE_CURVE('',#263,#268,#272,.T.);
#274=ORIENTED_EDGE('',*,*,#273,.T.);
#275=LINE('',#269,#271);
#276=EDGE_CURVE('',#268,#62,#275,.T.);
#277=ORIENTED_EDGE('',*,*,#276,.T.);
#278=ORIENTED_EDGE('',*,*,#64,.F.);
#279=EDGE_LOOP('',(#162,#167,#172,#177,#180,#181,#182,#187,#192,#197,#205,#210,#215,#223,#228,#233,#238,#243,#251,#256,#261,#266,#274,#277,#278));
#280=FACE_BOUND('',#144,.T.);
#281=FACE_BOUND('',#146,.T.);
#282=FACE_BOUND('',#148,.T.);
#283=FACE_BOUND('',#161,.T.);
#284=FACE_OUTER_BOUND('',#279,.T.);
#285=ADVANCED_FACE('',(#280,#281,#282,#283,#284),#136,.T.);
#286=CARTESIAN_POINT('',(0.000000000000,0.000000000000,-0.070000000000));
#287=DIRECTION('',(0.000000000000,0.000000000000,-1.000000000000));
#288=DIRECTION('',(0.000000000000,-1.000000000000,0.000000000000));
#289=AXIS2_PLACEMENT_3D('',#286,#287,#288);
#290=PLANE('',#289);
#291=ORIENTED_EDGE('',*,*,#19,.T.);
#292=EDGE_LOOP('',(#291));
#293=CARTESIAN_POINT('',(1.934500000000,6.022800000000,-0.070000000000));
#294=VERTEX_POINT('',#293);
#295=CARTESIAN_POINT('',(1.934500000000,5.762800000000,-0.070000000000));
#296=AXIS2_PLACEMENT_3D('',#295,#2,#3);
#297=CIRCLE('',#296,0.260000000000);
#298=EDGE_CURVE('',#294,#294,#297,.T.);
#299=ORIENTED_EDGE('',*,*,#298,.T.);
#300=EDGE_LOOP('',(#299));
#301=ORIENTED_EDGE('',*,*,#33,.T.);
#302=EDGE_LOOP('',(#301));
#303=CARTESIAN_POINT('',(1.069643740997,7.637412393737,-0.070000000000));
#304=VERTEX_POINT('',#303);
#305=CARTESIAN_POINT('',(1.426480081886,7.375663809476,-0.070000000000));
#306=VERTEX_POINT('',#305);
#307=CARTESIAN_POINT('',(1.500000000000,7.850000000000,-0.070000000000));
#308=AXIS2_PLACEMENT_3D('',#307,#2,#3);
#309=CIRCLE('',#308,0.480000000000);
#310=EDGE_CURVE('',#304,#306,#309,.T.);
#311=ORIENTED_EDGE('',*,*,#310,.T.);
#312=CIRCLE('',#308,0.480000000000);
#313=EDGE_CURVE('',#306,#304,#312,.T.);
#314=ORIENTED_EDGE('',*,*,#313,.T.);
#315=EDGE_LOOP('',(#311,#314));
#316=ORIENTED_EDGE('',*,*,#79,.F.);
#317=CARTESIAN_POINT('',(3.444694634934,3.414881045996,-0.070000000000));
#318=VERTEX_POINT('',#317);
#319=CARTESIAN_POINT('',(2.833670248742,3.863083063863,-0.070000000000));
#320=LINE('',#319,#202);
#321=EDGE_CURVE('',#67,#318,#320,.T.);
#322=ORIENTED_EDGE('',*,*,#321,.T.);
#323=CARTESIAN_POINT('',(1.800996789404,4.620575463072,-0.070000000000));
#324=VERTEX_POINT('',#323);
#325=LINE('',#319,#202);
#326=EDGE_CURVE('',#318,#324,#325,.T.);
#327=ORIENTED_EDGE('',*,*,#326,.T.);
#328=CARTESIAN_POINT('',(1.071179887574,5.003077429925,-0.070000000000));
#329=VERTEX_POINT('',#328);
#330=CIRCLE('',#296,1.150000000000);
#331=EDGE_CURVE('',#329,#324,#330,.T.);
#332=ORIENTED_EDGE('',*,*,#331,.F.);
#333=CARTESIAN_POINT('',(0.885105591215,5.292405086325,-0.070000000000));
#334=VERTEX_POINT('',#333);
#335=CIRCLE('',#296,1.150000000000);
#336=EDGE_CURVE('',#334,#329,#335,.T.);
#337=ORIENTED_EDGE('',*,*,#336,.F.);
#338=CARTESIAN_POINT('',(0.839721959867,6.114881017441,-0.070000000000));
#339=VERTEX_POINT('',#338);
#340=CIRCLE('',#296,1.150000000000);
#341=EDGE_CURVE('',#339,#334,#340,.T.);
#342=ORIENTED_EDGE('',*,*,#341,.F.);
#343=CARTESIAN_POINT('',(0.586148405868,7.332916579359,-0.070000000000));
#344=VERTEX_POINT('',#343);
#345=CARTESIAN_POINT('',(2.024970470097,0.421563191503,-0.070000000000));
#346=LINE('',#345,#220);
#347=EDGE_CURVE('',#339,#344,#346,.T.);
#348=ORIENTED_EDGE('',*,*,#347,.T.);
#349=CARTESIAN_POINT('',(0.455718393078,7.959434571527,-0.070000000000));
#350=VERTEX_POINT('',#349);
#351=CIRCLE('',#308,1.050000000000);
#352=EDGE_CURVE('',#350,#344,#351,.T.);
#353=ORIENTED_EDGE('',*,*,#352,.F.);
#354=CARTESIAN_POINT('',(0.474210429694,8.074177959337,-0.070000000000));
#355=VERTEX_POINT('',#354);
#356=CIRCLE('',#308,1.050000000000);
#357=EDGE_CURVE('',#355,#350,#356,.T.);
#358=ORIENTED_EDGE('',*,*,#357,.F.);
#359=CARTESIAN_POINT('',(2.413664504512,8.367413928296,-0.070000000000));
#360=VERTEX_POINT('',#359);
#361=CIRCLE('',#308,1.050000000000);
#362=EDGE_CURVE('',#360,#355,#361,.T.);
#363=ORIENTED_EDGE('',*,*,#362,.F.);
#364=CARTESIAN_POINT('',(2.544241955964,7.740187717422,-0.070000000000));
#365=VERTEX_POINT('',#364);
#366=CIRCLE('',#308,1.050000000000);
#367=EDGE_CURVE('',#365,#360,#366,.T.);
#368=ORIENTED_EDGE('',*,*,#367,.F.);
#369=CARTESIAN_POINT('',(2.797713078743,6.522644181847,-0.070000000000));
#370=VERTEX_POINT('',#369);
#371=CARTESIAN_POINT('',(3.982990300862,0.829188438918,-0.070000000000));
#372=LINE('',#371,#248);
#373=EDGE_CURVE('',#365,#370,#372,.T.);
#374=ORIENTED_EDGE('',*,*,#373,.T.);
#375=CARTESIAN_POINT('',(2.983850558720,6.233292725677,-0.070000000000));
#376=VERTEX_POINT('',#375);
#377=CIRCLE('',#296,1.150000000000);
#378=EDGE_CURVE('',#376,#370,#377,.T.);
#379=ORIENTED_EDGE('',*,*,#378,.F.);
#380=CARTESIAN_POINT('',(4.751287892708,4.936832228441,-0.070000000000));
#381=VERTEX_POINT('',#380);
#382=CARTESIAN_POINT('',(4.016599176171,5.475745196069,-0.070000000000));
#383=LINE('',#382,#271);
#384=EDGE_CURVE('',#376,#381,#383,.T.);
#385=ORIENTED_EDGE('',*,*,#384,.T.);
#386=CARTESIAN_POINT('',(5.599965397233,4.314305568881,-0.070000000000));
#387=VERTEX_POINT('',#386);
#388=LINE('',#382,#271);
#389=EDGE_CURVE('',#381,#387,#388,.T.);
#390=ORIENTED_EDGE('',*,*,#389,.T.);
#391=CARTESIAN_POINT('',(6.515627605382,3.642643915679,-0.070000000000));
#392=VERTEX_POINT('',#391);
#393=CIRCLE('',#17,1.150000000000);
#394=EDGE_CURVE('',#392,#387,#393,.T.);
#395=ORIENTED_EDGE('',*,*,#394,.F.);
#396=CARTESIAN_POINT('',(6.547168128638,3.564813748796,-0.070000000000));
#397=VERTEX_POINT('',#396);
#398=CIRCLE('',#17,1.150000000000);
#399=EDGE_CURVE('',#397,#392,#398,.T.);
#400=ORIENTED_EDGE('',*,*,#399,.F.);
#401=CIRCLE('',#17,1.150000000000);
#402=EDGE_CURVE('',#123,#397,#401,.T.);
#403=ORIENTED_EDGE('',*,*,#402,.F.);
#404=ORIENTED_EDGE('',*,*,#125,.F.);
#405=ORIENTED_EDGE('',*,*,#120,.F.);
#406=CARTESIAN_POINT('',(5.665061756963,-1.636708759148,-0.070000000000));
#407=VERTEX_POINT('',#406);
#408=CIRCLE('',#31,1.150000000000);
#409=EDGE_CURVE('',#407,#111,#408,.T.);
#410=ORIENTED_EDGE('',*,*,#409,.F.);
#411=CARTESIAN_POINT('',(4.580985481579,-2.043269609179,-0.070000000000));
#412=VERTEX_POINT('',#411);
#413=CIRCLE('',#31,1.150000000000);
#414=EDGE_CURVE('',#412,#407,#413,.T.);
#415=ORIENTED_EDGE('',*,*,#414,.F.);
#416=CARTESIAN_POINT('',(3.693220309516,-1.302281925608,-0.070000000000));
#417=VERTEX_POINT('',#416);
#418=CIRCLE('',#31,1.150000000000);
#419=EDGE_CURVE('',#417,#412,#418,.T.);
#420=ORIENTED_EDGE('',*,*,#419,.F.);
#421=CIRCLE('',#31,1.150000000000);
#422=EDGE_CURVE('',#82,#417,#421,.T.);
#423=ORIENTED_EDGE('',*,*,#422,.F.);
#424=ORIENTED_EDGE('',*,*,#84,.F.);
#425=EDGE_LOOP('',(#316,#322,#327,#332,#337,#342,#348,#353,#358,#363,#368,#374,#379,#385,#390,#395,#400,#403,#404,#405,#410,#415,#420,#423,#424));
#426=FACE_BOUND('',#292,.T.);
#427=FACE_BOUND('',#300,.T.);
#428=FACE_BOUND('',#302,.T.);
#429=FACE_BOUND('',#315,.T.);
#430=FACE_OUTER_BOUND('',#425,.T.);
#431=ADVANCED_FACE('',(#426,#427,#428,#429,#430),#290,.T.);
#432=CYLINDRICAL_SURFACE('',#26,1.150000000000);
#433=ORIENTED_EDGE('',*,*,#88,.F.);
#434=ORIENTED_EDGE('',*,*,#422,.T.);
#435=ORIENTED_EDGE('',*,*,#419,.T.);
#436=ORIENTED_EDGE('',*,*,#414,.T.);
#437=ORIENTED_EDGE('',*,*,#409,.T.);
#438=ORIENTED_EDGE('',*,*,#114,.T.);
#439=ORIENTED_EDGE('',*,*,#179,.F.);
#440=ORIENTED_EDGE('',*,*,#176,.F.);
#441=ORIENTED_EDGE('',*,*,#171,.F.);
#442=ORIENTED_EDGE('',*,*,#166,.F.);
#443=EDGE_LOOP('',(#433,#434,#435,#436,#437,#438,#439,#440,#441,#442));
#444=FACE_BOUND('',#443,.T.);
#445=ADVANCED_FACE('',(#444),#432,.T.);
#446=CARTESIAN_POINT('',(1.500000000000,7.850000000000,0.085000000000));
#447=AXIS2_PLACEMENT_3D('',#446,#2,#3);
#448=CYLINDRICAL_SURFACE('',#447,0.480000000000);
#449=ORIENTED_EDGE('',*,*,#310,.F.);
#450=ORIENTED_EDGE('',*,*,#313,.F.);
#451=EDGE_LOOP('',(#449,#450));
#452=ORIENTED_EDGE('',*,*,#156,.T.);
#453=ORIENTED_EDGE('',*,*,#159,.T.);
#454=EDGE_LOOP('',(#452,#453));
#455=FACE_BOUND('',#451,.T.);
#456=FACE_BOUND('',#454,.T.);
#457=ADVANCED_FACE('',(#455,#456),#448,.F.);
#458=CARTESIAN_POINT('',(1.934500000000,5.762800000000,0.000000000000));
#459=AXIS2_PLACEMENT_3D('',#458,#2,#3);
#460=CYLINDRICAL_SURFACE('',#459,1.150000000000);
#461=ORIENTED_EDGE('',*,*,#214,.F.);
#462=CARTESIAN_POINT('',(2.983850558720,6.233292725677,0.000000000000));
#463=LINE('',#462,#69);
#464=EDGE_CURVE('',#376,#207,#463,.T.);
#465=ORIENTED_EDGE('',*,*,#464,.F.);
#466=ORIENTED_EDGE('',*,*,#378,.T.);
#467=CARTESIAN_POINT('',(2.797713078743,6.522644181847,0.000000000000));
#468=LINE('',#467,#69);
#469=EDGE_CURVE('',#370,#212,#468,.T.);
#470=ORIENTED_EDGE('',*,*,#469,.T.);
#471=EDGE_LOOP('',(#461,#465,#466,#470));
#472=ORIENTED_EDGE('',*,*,#255,.F.);
#473=CARTESIAN_POINT('',(0.839721959867,6.114881017441,0.000000000000));
#474=LINE('',#473,#69);
#475=EDGE_CURVE('',#339,#245,#474,.T.);
#476=ORIENTED_EDGE('',*,*,#475,.F.);
#477=ORIENTED_EDGE('',*,*,#341,.T.);
#478=ORIENTED_EDGE('',*,*,#336,.T.);
#479=ORIENTED_EDGE('',*,*,#331,.T.);
#480=CARTESIAN_POINT('',(1.800996789404,4.620575463072,0.000000000000));
#481=LINE('',#480,#69);
#482=EDGE_CURVE('',#324,#263,#481,.T.);
#483=ORIENTED_EDGE('',*,*,#482,.T.);
#484=ORIENTED_EDGE('',*,*,#265,.F.);
#485=ORIENTED_EDGE('',*,*,#260,.F.);
#486=EDGE_LOOP('',(#472,#476,#477,#478,#479,#483,#484,#485));
#487=FACE_BOUND('',#471,.T.);
#488=FACE_BOUND('',#486,.T.);
#489=ADVANCED_FACE('',(#487,#488),#460,.T.);
#490=CARTESIAN_POINT('',(2.833670248742,3.863083063863,0.000000000000));
#491=DIRECTION('',(-0.591464463715,-0.806331066103,0.000000000000));
#492=AXIS2_PLACEMENT_3D('',#490,#491,#201);
#493=PLANE('',#492);
#494=ORIENTED_EDGE('',*,*,#71,.T.);
#495=ORIENTED_EDGE('',*,*,#276,.F.);
#496=ORIENTED_EDGE('',*,*,#273,.F.);
#497=ORIENTED_EDGE('',*,*,#482,.F.);
#498=ORIENTED_EDGE('',*,*,#326,.F.);
#499=ORIENTED_EDGE('',*,*,#321,.F.);
#500=EDGE_LOOP('',(#494,#495,#496,#497,#498,#499));
#501=FACE_OUTER_BOUND('',#500,.T.);
#502=ADVANCED_FACE('',(#501),#493,.T.);
#503=CARTESIAN_POINT('',(4.016599176171,5.475745196069,0.000000000000));
#504=DIRECTION('',(0.591464463715,0.806331066103,0.000000000000));
#505=AXIS2_PLACEMENT_3D('',#503,#504,#270);
#506=PLANE('',#505);
#507=ORIENTED_EDGE('',*,*,#204,.F.);
#508=CARTESIAN_POINT('',(5.599965397233,4.314305568881,0.000000000000));
#509=LINE('',#508,#69);
#510=EDGE_CURVE('',#387,#194,#509,.T.);
#511=ORIENTED_EDGE('',*,*,#510,.F.);
#512=ORIENTED_EDGE('',*,*,#389,.F.);
#513=ORIENTED_EDGE('',*,*,#384,.F.);
#514=ORIENTED_EDGE('',*,*,#464,.T.);
#515=ORIENTED_EDGE('',*,*,#209,.F.);
#516=EDGE_LOOP('',(#507,#511,#512,#513,#514,#515));
#517=FACE_OUTER_BOUND('',#516,.T.);
#518=ADVANCED_FACE('',(#517),#506,.T.);
#519=CARTESIAN_POINT('',(1.500000000000,7.850000000000,0.000000000000));
#520=AXIS2_PLACEMENT_3D('',#519,#2,#3);
#521=CYLINDRICAL_SURFACE('',#520,1.050000000000);
#522=ORIENTED_EDGE('',*,*,#237,.F.);
#523=ORIENTED_EDGE('',*,*,#232,.F.);
#524=ORIENTED_EDGE('',*,*,#227,.F.);
#525=CARTESIAN_POINT('',(2.544241955964,7.740187717422,0.000000000000));
#526=LINE('',#525,#69);
#527=EDGE_CURVE('',#365,#217,#526,.T.);
#528=ORIENTED_EDGE('',*,*,#527,.F.);
#529=ORIENTED_EDGE('',*,*,#367,.T.);
#530=ORIENTED_EDGE('',*,*,#362,.T.);
#531=ORIENTED_EDGE('',*,*,#357,.T.);
#532=ORIENTED_EDGE('',*,*,#352,.T.);
#533=CARTESIAN_POINT('',(0.586148405868,7.332916579359,0.000000000000));
#534=LINE('',#533,#69);
#535=EDGE_CURVE('',#344,#240,#534,.T.);
#536=ORIENTED_EDGE('',*,*,#535,.T.);
#537=ORIENTED_EDGE('',*,*,#242,.F.);
#538=EDGE_LOOP('',(#522,#523,#524,#528,#529,#530,#531,#532,#536,#537));
#539=FACE_BOUND('',#538,.T.);
#540=ADVANCED_FACE('',(#539),#521,.T.);
#541=CARTESIAN_POINT('',(2.024970470097,0.421563191503,0.000000000000));
#542=DIRECTION('',(-0.979009915383,-0.203812623708,0.000000000000));
#543=AXIS2_PLACEMENT_3D('',#541,#542,#219);
#544=PLANE('',#543);
#545=ORIENTED_EDGE('',*,*,#250,.F.);
#546=ORIENTED_EDGE('',*,*,#535,.F.);
#547=ORIENTED_EDGE('',*,*,#347,.F.);
#548=ORIENTED_EDGE('',*,*,#475,.T.);
#549=EDGE_LOOP('',(#545,#546,#547,#548));
#550=FACE_OUTER_BOUND('',#549,.T.);
#551=ADVANCED_FACE('',(#550),#544,.T.);
#552=CARTESIAN_POINT('',(3.982990300862,0.829188438918,0.000000000000));
#553=DIRECTION('',(0.979009915383,0.203812623708,0.000000000000));
#554=AXIS2_PLACEMENT_3D('',#552,#553,#247);
#555=PLANE('',#554);
#556=ORIENTED_EDGE('',*,*,#222,.F.);
#557=ORIENTED_EDGE('',*,*,#469,.F.);
#558=ORIENTED_EDGE('',*,*,#373,.F.);
#559=ORIENTED_EDGE('',*,*,#527,.T.);
#560=EDGE_LOOP('',(#556,#557,#558,#559));
#561=FACE_OUTER_BOUND('',#560,.T.);
#562=ADVANCED_FACE('',(#561),#555,.T.);
#563=CYLINDRICAL_SURFACE('',#4,1.150000000000);
#564=ORIENTED_EDGE('',*,*,#129,.F.);
#565=ORIENTED_EDGE('',*,*,#402,.T.);
#566=ORIENTED_EDGE('',*,*,#399,.T.);
#567=ORIENTED_EDGE('',*,*,#394,.T.);
#568=ORIENTED_EDGE('',*,*,#510,.T.);
#569=ORIENTED_EDGE('',*,*,#196,.F.);
#570=ORIENTED_EDGE('',*,*,#191,.F.);
#571=ORIENTED_EDGE('',*,*,#186,.F.);
#572=EDGE_LOOP('',(#564,#565,#566,#567,#568,#569,#570,#571));
#573=FACE_BOUND('',#572,.T.);
#574=ADVANCED_FACE('',(#573),#563,.T.);
#575=CYLINDRICAL_SURFACE('',#459,0.260000000000);
#576=ORIENTED_EDGE('',*,*,#142,.T.);
#577=EDGE_LOOP('',(#576));
#578=ORIENTED_EDGE('',*,*,#298,.F.);
#579=EDGE_LOOP('',(#578));
#580=FACE_BOUND('',#577,.T.);
#581=FACE_BOUND('',#579,.T.);
#582=ADVANCED_FACE('',(#580,#581),#575,.F.);
#583=CLOSED_SHELL('',(#24,#46,#92,#133,#285,#431,#445,#457,#489,#502,#518,#540,#551,#562,#574,#582));
#584=MANIFOLD_SOLID_BREP('automatic_winding',#583);
#585=APPLICATION_CONTEXT('core data for automotive mechanical design processes');
#586=APPLICATION_PROTOCOL_DEFINITION('international standard','automotive_design',2000,#585);
#587=PRODUCT_CONTEXT('',#585,'mechanical');
#588=PRODUCT('automatic_winding','automatic_winding','',(#587));
#589=PRODUCT_DEFINITION_FORMATION('','',#588);
#590=PRODUCT_DEFINITION_CONTEXT('part definition',#585,'design');
#591=PRODUCT_DEFINITION('','',#589,#590);
#592=PRODUCT_DEFINITION_SHAPE('','',#591);
#593=(LENGTH_UNIT()NAMED_UNIT(*)SI_UNIT(.MILLI.,.METRE.));
#594=(NAMED_UNIT(*)PLANE_ANGLE_UNIT()SI_UNIT($,.RADIAN.));
#595=(NAMED_UNIT(*)SI_UNIT($,.STERADIAN.)SOLID_ANGLE_UNIT());
#596=UNCERTAINTY_MEASURE_WITH_UNIT(LENGTH_MEASURE(1.E-07),#593,'distance_accuracy_value','');
#597=(GEOMETRIC_REPRESENTATION_CONTEXT(3)GLOBAL_UNCERTAINTY_ASSIGNED_CONTEXT((#596))GLOBAL_UNIT_ASSIGNED_CONTEXT((#593,#594,#595))REPRESENTATION_CONTEXT('',''));
#598=ADVANCED_BREP_SHAPE_REPRESENTATION('',(#584),#597);
#599=SHAPE_DEFINITION_REPRESENTATION(#592,#598);
ENDSEC;
END-ISO-10303-21;
