ISO-10303-21;
HEADER;
FILE_DESCRIPTION(('10 face(s), 22 edge(s), 18 vertex/vertices confirmed by cade at n=128, half-extent 4.000000000000'),'2;1');
FILE_NAME('dial_side.step','2026-08-23T00:00:00',('cade'),('cade'),'cade 0.1.0','cade','');
FILE_SCHEMA(('AUTOMOTIVE_DESIGN { 1 0 10303 214 1 1 1 1 }'));
ENDSEC;
DATA;
#1=CARTESIAN_POINT('',(2.107700000000,0.000000000000,0.155000000000));
#2=DIRECTION('',(0.000000000000,0.000000000000,1.000000000000));
#3=DIRECTION('',(0.000000000000,1.000000000000,0.000000000000));
#4=AXIS2_PLACEMENT_3D('',#1,#2,#3);
#5=CYLINDRICAL_SURFACE('',#4,0.470000000000);
#6=CARTESIAN_POINT('',(2.107700000000,0.470000000000,-0.040000000000));
#7=VERTEX_POINT('',#6);
#8=CARTESIAN_POINT('',(2.107700000000,0.000000000000,-0.040000000000));
#9=AXIS2_PLACEMENT_3D('',#8,#2,#3);
#10=CIRCLE('',#9,0.470000000000);
#11=EDGE_CURVE('',#7,#7,#10,.T.);
#12=ORIENTED_EDGE('',*,*,#11,.F.);
#13=EDGE_LOOP('',(#12));
#14=CARTESIAN_POINT('',(2.107700000000,0.470000000000,0.150000000000));
#15=VERTEX_POINT('',#14);
#16=CARTESIAN_POINT('',(2.107700000000,0.000000000000,0.150000000000));
#17=AXIS2_PLACEMENT_3D('',#16,#2,#3);
#18=CIRCLE('',#17,0.470000000000);
#19=EDGE_CURVE('',#15,#15,#18,.T.);
#20=ORIENTED_EDGE('',*,*,#19,.T.);
#21=EDGE_LOOP('',(#20));
#22=FACE_BOUND('',#13,.T.);
#23=FACE_BOUND('',#21,.T.);
#24=ADVANCED_FACE('',(#22,#23),#5,.F.);
#25=CARTESIAN_POINT('',(0.000000000000,0.000000000000,-0.040000000000));
#26=DIRECTION('',(0.000000000000,0.000000000000,-1.000000000000));
#27=DIRECTION('',(0.000000000000,-1.000000000000,0.000000000000));
#28=AXIS2_PLACEMENT_3D('',#25,#26,#27);
#29=PLANE('',#28);
#30=CARTESIAN_POINT('',(2.107700000000,0.230000000000,-0.040000000000));
#31=VERTEX_POINT('',#30);
#32=CIRCLE('',#9,0.230000000000);
#33=EDGE_CURVE('',#31,#31,#32,.T.);
#34=ORIENTED_EDGE('',*,*,#33,.F.);
#35=EDGE_LOOP('',(#34));
#36=ORIENTED_EDGE('',*,*,#11,.T.);
#37=EDGE_LOOP('',(#36));
#38=FACE_BOUND('',#35,.T.);
#39=FACE_OUTER_BOUND('',#37,.T.);
#40=ADVANCED_FACE('',(#38,#39),#29,.F.);
#41=CARTESIAN_POINT('',(-2.107700000000,0.000000000000,0.000000000000));
#42=AXIS2_PLACEMENT_3D('',#41,#2,#3);
#43=CYLINDRICAL_SURFACE('',#42,0.500000000000);
#44=CARTESIAN_POINT('',(-2.107700000000,0.500000000000,0.150000000000));
#45=VERTEX_POINT('',#44);
#46=CARTESIAN_POINT('',(-2.107700000000,0.000000000000,0.150000000000));
#47=AXIS2_PLACEMENT_3D('',#46,#2,#3);
#48=CIRCLE('',#47,0.500000000000);
#49=EDGE_CURVE('',#45,#45,#48,.T.);
#50=ORIENTED_EDGE('',*,*,#49,.T.);
#51=EDGE_LOOP('',(#50));
#52=CARTESIAN_POINT('',(-2.107700000000,0.500000000000,-0.150000000000));
#53=VERTEX_POINT('',#52);
#54=CARTESIAN_POINT('',(-2.107700000000,0.000000000000,-0.150000000000));
#55=AXIS2_PLACEMENT_3D('',#54,#2,#3);
#56=CIRCLE('',#55,0.500000000000);
#57=EDGE_CURVE('',#53,#53,#56,.T.);
#58=ORIENTED_EDGE('',*,*,#57,.F.);
#59=EDGE_LOOP('',(#58));
#60=FACE_BOUND('',#51,.T.);
#61=FACE_BOUND('',#59,.T.);
#62=ADVANCED_FACE('',(#60,#61),#43,.F.);
#63=CARTESIAN_POINT('',(2.107700000000,0.000000000000,0.000000000000));
#64=AXIS2_PLACEMENT_3D('',#63,#2,#3);
#65=CYLINDRICAL_SURFACE('',#64,0.230000000000);
#66=ORIENTED_EDGE('',*,*,#33,.T.);
#67=EDGE_LOOP('',(#66));
#68=CARTESIAN_POINT('',(2.107700000000,0.230000000000,-0.150000000000));
#69=VERTEX_POINT('',#68);
#70=CARTESIAN_POINT('',(2.107700000000,0.000000000000,-0.150000000000));
#71=AXIS2_PLACEMENT_3D('',#70,#2,#3);
#72=CIRCLE('',#71,0.230000000000);
#73=EDGE_CURVE('',#69,#69,#72,.T.);
#74=ORIENTED_EDGE('',*,*,#73,.F.);
#75=EDGE_LOOP('',(#74));
#76=FACE_BOUND('',#67,.T.);
#77=FACE_BOUND('',#75,.T.);
#78=ADVANCED_FACE('',(#76,#77),#65,.F.);
#79=CARTESIAN_POINT('',(2.907700000000,0.000000000000,0.000000000000));
#80=DIRECTION('',(1.000000000000,0.000000000000,0.000000000000));
#81=AXIS2_PLACEMENT_3D('',#79,#80,#2);
#82=PLANE('',#81);
#83=CARTESIAN_POINT('',(2.907700000000,1.100000000000,-0.150000000000));
#84=VERTEX_POINT('',#83);
#85=CARTESIAN_POINT('',(2.907700000000,1.100000000000,-0.040000000000));
#86=VERTEX_POINT('',#85);
#87=CARTESIAN_POINT('',(2.907700000000,1.100000000000,0.000000000000));
#88=VECTOR('',#2,1.0);
#89=LINE('',#87,#88);
#90=EDGE_CURVE('',#84,#86,#89,.T.);
#91=ORIENTED_EDGE('',*,*,#90,.T.);
#92=CARTESIAN_POINT('',(2.907700000000,1.100000000000,0.150000000000));
#93=VERTEX_POINT('',#92);
#94=LINE('',#87,#88);
#95=EDGE_CURVE('',#86,#93,#94,.T.);
#96=ORIENTED_EDGE('',*,*,#95,.T.);
#97=CARTESIAN_POINT('',(2.907700000000,-1.100000000000,0.150000000000));
#98=VERTEX_POINT('',#97);
#99=CARTESIAN_POINT('',(2.907700000000,0.000000000000,0.150000000000));
#100=VECTOR('',#27,1.0);
#101=LINE('',#99,#100);
#102=EDGE_CURVE('',#93,#98,#101,.T.);
#103=ORIENTED_EDGE('',*,*,#102,.T.);
#104=CARTESIAN_POINT('',(2.907700000000,-1.100000000000,-0.040000000000));
#105=VERTEX_POINT('',#104);
#106=CARTESIAN_POINT('',(2.907700000000,-1.100000000000,0.000000000000));
#107=VECTOR('',#26,1.0);
#108=LINE('',#106,#107);
#109=EDGE_CURVE('',#98,#105,#108,.T.);
#110=ORIENTED_EDGE('',*,*,#109,.T.);
#111=CARTESIAN_POINT('',(2.907700000000,-1.100000000000,-0.150000000000));
#112=VERTEX_POINT('',#111);
#113=LINE('',#106,#107);
#114=EDGE_CURVE('',#105,#112,#113,.T.);
#115=ORIENTED_EDGE('',*,*,#114,.T.);
#116=CARTESIAN_POINT('',(2.907700000000,0.000000000000,-0.150000000000));
#117=VECTOR('',#3,1.0);
#118=LINE('',#116,#117);
#119=EDGE_CURVE('',#112,#84,#118,.T.);
#120=ORIENTED_EDGE('',*,*,#119,.T.);
#121=EDGE_LOOP('',(#91,#96,#103,#110,#115,#120));
#122=FACE_OUTER_BOUND('',#121,.T.);
#123=ADVANCED_FACE('',(#122),#82,.T.);
#124=CARTESIAN_POINT('',(-2.907700000000,0.000000000000,0.000000000000));
#125=DIRECTION('',(-1.000000000000,0.000000000000,0.000000000000));
#126=AXIS2_PLACEMENT_3D('',#124,#125,#26);
#127=PLANE('',#126);
#128=CARTESIAN_POINT('',(-2.907700000000,1.100000000000,0.150000000000));
#129=VERTEX_POINT('',#128);
#130=CARTESIAN_POINT('',(-2.907700000000,1.100000000000,-0.040000000000));
#131=VERTEX_POINT('',#130);
#132=CARTESIAN_POINT('',(-2.907700000000,1.100000000000,0.000000000000));
#133=LINE('',#132,#107);
#134=EDGE_CURVE('',#129,#131,#133,.T.);
#135=ORIENTED_EDGE('',*,*,#134,.T.);
#136=CARTESIAN_POINT('',(-2.907700000000,1.100000000000,-0.150000000000));
#137=VERTEX_POINT('',#136);
#138=LINE('',#132,#107);
#139=EDGE_CURVE('',#131,#137,#138,.T.);
#140=ORIENTED_EDGE('',*,*,#139,.T.);
#141=CARTESIAN_POINT('',(-2.907700000000,-1.100000000000,-0.150000000000));
#142=VERTEX_POINT('',#141);
#143=CARTESIAN_POINT('',(-2.907700000000,0.000000000000,-0.150000000000));
#144=LINE('',#143,#100);
#145=EDGE_CURVE('',#137,#142,#144,.T.);
#146=ORIENTED_EDGE('',*,*,#145,.T.);
#147=CARTESIAN_POINT('',(-2.907700000000,-1.100000000000,-0.040000000000));
#148=VERTEX_POINT('',#147);
#149=CARTESIAN_POINT('',(-2.907700000000,-1.100000000000,0.000000000000));
#150=LINE('',#149,#88);
#151=EDGE_CURVE('',#142,#148,#150,.T.);
#152=ORIENTED_EDGE('',*,*,#151,.T.);
#153=CARTESIAN_POINT('',(-2.907700000000,-1.100000000000,0.150000000000));
#154=VERTEX_POINT('',#153);
#155=LINE('',#149,#88);
#156=EDGE_CURVE('',#148,#154,#155,.T.);
#157=ORIENTED_EDGE('',*,*,#156,.T.);
#158=CARTESIAN_POINT('',(-2.907700000000,0.000000000000,0.150000000000));
#159=LINE('',#158,#117);
#160=EDGE_CURVE('',#154,#129,#159,.T.);
#161=ORIENTED_EDGE('',*,*,#160,.T.);
#162=EDGE_LOOP('',(#135,#140,#146,#152,#157,#161));
#163=FACE_OUTER_BOUND('',#162,.T.);
#164=ADVANCED_FACE('',(#163),#127,.T.);
#165=CARTESIAN_POINT('',(0.000000000000,1.100000000000,0.000000000000));
#166=AXIS2_PLACEMENT_3D('',#165,#3,#26);
#167=PLANE('',#166);
#168=ORIENTED_EDGE('',*,*,#90,.F.);
#169=CARTESIAN_POINT('',(0.000000000000,1.100000000000,-0.150000000000));
#170=VECTOR('',#125,1.0);
#171=LINE('',#169,#170);
#172=EDGE_CURVE('',#84,#137,#171,.T.);
#173=ORIENTED_EDGE('',*,*,#172,.T.);
#174=ORIENTED_EDGE('',*,*,#139,.F.);
#175=ORIENTED_EDGE('',*,*,#134,.F.);
#176=CARTESIAN_POINT('',(0.000000000000,1.100000000000,0.150000000000));
#177=VECTOR('',#80,1.0);
#178=LINE('',#176,#177);
#179=EDGE_CURVE('',#129,#93,#178,.T.);
#180=ORIENTED_EDGE('',*,*,#179,.T.);
#181=ORIENTED_EDGE('',*,*,#95,.F.);
#182=EDGE_LOOP('',(#168,#173,#174,#175,#180,#181));
#183=FACE_OUTER_BOUND('',#182,.T.);
#184=ADVANCED_FACE('',(#183),#167,.T.);
#185=CARTESIAN_POINT('',(0.000000000000,-1.100000000000,0.000000000000));
#186=AXIS2_PLACEMENT_3D('',#185,#27,#2);
#187=PLANE('',#186);
#188=ORIENTED_EDGE('',*,*,#109,.F.);
#189=CARTESIAN_POINT('',(0.000000000000,-1.100000000000,0.150000000000));
#190=LINE('',#189,#170);
#191=EDGE_CURVE('',#98,#154,#190,.T.);
#192=ORIENTED_EDGE('',*,*,#191,.T.);
#193=ORIENTED_EDGE('',*,*,#156,.F.);
#194=ORIENTED_EDGE('',*,*,#151,.F.);
#195=CARTESIAN_POINT('',(0.000000000000,-1.100000000000,-0.150000000000));
#196=LINE('',#195,#177);
#197=EDGE_CURVE('',#142,#112,#196,.T.);
#198=ORIENTED_EDGE('',*,*,#197,.T.);
#199=ORIENTED_EDGE('',*,*,#114,.F.);
#200=EDGE_LOOP('',(#188,#192,#193,#194,#198,#199));
#201=FACE_OUTER_BOUND('',#200,.T.);
#202=ADVANCED_FACE('',(#201),#187,.T.);
#203=CARTESIAN_POINT('',(0.000000000000,0.000000000000,0.150000000000));
#204=AXIS2_PLACEMENT_3D('',#203,#2,#3);
#205=PLANE('',#204);
#206=ORIENTED_EDGE('',*,*,#49,.F.);
#207=EDGE_LOOP('',(#206));
#208=ORIENTED_EDGE('',*,*,#19,.F.);
#209=EDGE_LOOP('',(#208));
#210=ORIENTED_EDGE('',*,*,#102,.F.);
#211=ORIENTED_EDGE('',*,*,#179,.F.);
#212=ORIENTED_EDGE('',*,*,#160,.F.);
#213=ORIENTED_EDGE('',*,*,#191,.F.);
#214=EDGE_LOOP('',(#210,#211,#212,#213));
#215=FACE_BOUND('',#207,.T.);
#216=FACE_BOUND('',#209,.T.);
#217=FACE_OUTER_BOUND('',#214,.T.);
#218=ADVANCED_FACE('',(#215,#216,#217),#205,.T.);
#219=CARTESIAN_POINT('',(0.000000000000,0.000000000000,-0.150000000000));
#220=AXIS2_PLACEMENT_3D('',#219,#26,#27);
#221=PLANE('',#220);
#222=ORIENTED_EDGE('',*,*,#57,.T.);
#223=EDGE_LOOP('',(#222));
#224=ORIENTED_EDGE('',*,*,#73,.T.);
#225=EDGE_LOOP('',(#224));
#226=ORIENTED_EDGE('',*,*,#119,.F.);
#227=ORIENTED_EDGE('',*,*,#197,.F.);
#228=ORIENTED_EDGE('',*,*,#145,.F.);
#229=ORIENTED_EDGE('',*,*,#172,.F.);
#230=EDGE_LOOP('',(#226,#227,#228,#229));
#231=FACE_BOUND('',#223,.T.);
#232=FACE_BOUND('',#225,.T.);
#233=FACE_OUTER_BOUND('',#230,.T.);
#234=ADVANCED_FACE('',(#231,#232,#233),#221,.T.);
#235=CLOSED_SHELL('',(#24,#40,#62,#78,#123,#164,#184,#202,#218,#234));
#236=MANIFOLD_SOLID_BREP('dial_side',#235);
#237=APPLICATION_CONTEXT('core data for automotive mechanical design processes');
#238=APPLICATION_PROTOCOL_DEFINITION('international standard','automotive_design',2000,#237);
#239=PRODUCT_CONTEXT('',#237,'mechanical');
#240=PRODUCT('dial_side','dial_side','',(#239));
#241=PRODUCT_DEFINITION_FORMATION('','',#240);
#242=PRODUCT_DEFINITION_CONTEXT('part definition',#237,'design');
#243=PRODUCT_DEFINITION('','',#241,#242);
#244=PRODUCT_DEFINITION_SHAPE('','',#243);
#245=(LENGTH_UNIT()NAMED_UNIT(*)SI_UNIT(.MILLI.,.METRE.));
#246=(NAMED_UNIT(*)PLANE_ANGLE_UNIT()SI_UNIT($,.RADIAN.));
#247=(NAMED_UNIT(*)SI_UNIT($,.STERADIAN.)SOLID_ANGLE_UNIT());
#248=UNCERTAINTY_MEASURE_WITH_UNIT(LENGTH_MEASURE(1.E-07),#245,'distance_accuracy_value','');
#249=(GEOMETRIC_REPRESENTATION_CONTEXT(3)GLOBAL_UNCERTAINTY_ASSIGNED_CONTEXT((#248))GLOBAL_UNIT_ASSIGNED_CONTEXT((#245,#246,#247))REPRESENTATION_CONTEXT('',''));
#250=ADVANCED_BREP_SHAPE_REPRESENTATION('',(#236),#249);
#251=SHAPE_DEFINITION_REPRESENTATION(#244,#250);
ENDSEC;
END-ISO-10303-21;
