ISO-10303-21;
HEADER;
FILE_DESCRIPTION(('7 face(s), 18 edge(s), 14 vertex/vertices confirmed by cade at n=128, half-extent 1.000000000000'),'2;1');
FILE_NAME('barrel_and_winding.step','2026-08-23T00:00:00',('cade'),('cade'),'cade 0.1.0','cade','');
FILE_SCHEMA(('AUTOMOTIVE_DESIGN { 1 0 10303 214 1 1 1 1 }'));
ENDSEC;
DATA;
#1=CARTESIAN_POINT('',(0.000000000000,0.000000000000,0.000000000000));
#2=DIRECTION('',(0.000000000000,0.000000000000,1.000000000000));
#3=DIRECTION('',(0.000000000000,1.000000000000,0.000000000000));
#4=AXIS2_PLACEMENT_3D('',#1,#2,#3);
#5=CYLINDRICAL_SURFACE('',#4,0.170000000000);
#6=CARTESIAN_POINT('',(0.000000000000,0.170000000000,0.100000000000));
#7=VERTEX_POINT('',#6);
#8=CARTESIAN_POINT('',(0.000000000000,0.000000000000,0.100000000000));
#9=AXIS2_PLACEMENT_3D('',#8,#2,#3);
#10=CIRCLE('',#9,0.170000000000);
#11=EDGE_CURVE('',#7,#7,#10,.T.);
#12=ORIENTED_EDGE('',*,*,#11,.T.);
#13=EDGE_LOOP('',(#12));
#14=CARTESIAN_POINT('',(0.000000000000,0.170000000000,-0.100000000000));
#15=VERTEX_POINT('',#14);
#16=CARTESIAN_POINT('',(0.000000000000,0.000000000000,-0.100000000000));
#17=AXIS2_PLACEMENT_3D('',#16,#2,#3);
#18=CIRCLE('',#17,0.170000000000);
#19=EDGE_CURVE('',#15,#15,#18,.T.);
#20=ORIENTED_EDGE('',*,*,#19,.F.);
#21=EDGE_LOOP('',(#20));
#22=FACE_BOUND('',#13,.T.);
#23=FACE_BOUND('',#21,.T.);
#24=ADVANCED_FACE('',(#22,#23),#5,.F.);
#25=CARTESIAN_POINT('',(0.900000000000,0.000000000000,0.000000000000));
#26=AXIS2_PLACEMENT_3D('',#25,#2,#3);
#27=CYLINDRICAL_SURFACE('',#26,0.200000000000);
#28=CARTESIAN_POINT('',(0.900000000000,-0.200000000000,0.100000000000));
#29=VERTEX_POINT('',#28);
#30=CARTESIAN_POINT('',(0.900000000000,0.200000000000,0.100000000000));
#31=VERTEX_POINT('',#30);
#32=CARTESIAN_POINT('',(0.900000000000,0.000000000000,0.100000000000));
#33=AXIS2_PLACEMENT_3D('',#32,#2,#3);
#34=CIRCLE('',#33,0.200000000000);
#35=EDGE_CURVE('',#29,#31,#34,.T.);
#36=ORIENTED_EDGE('',*,*,#35,.F.);
#37=CARTESIAN_POINT('',(0.900000000000,-0.200000000000,-0.100000000000));
#38=VERTEX_POINT('',#37);
#39=CARTESIAN_POINT('',(0.900000000000,-0.200000000000,0.000000000000));
#40=VECTOR('',#2,1.0);
#41=LINE('',#39,#40);
#42=EDGE_CURVE('',#38,#29,#41,.T.);
#43=ORIENTED_EDGE('',*,*,#42,.F.);
#44=CARTESIAN_POINT('',(0.900000000000,0.200000000000,-0.100000000000));
#45=VERTEX_POINT('',#44);
#46=CARTESIAN_POINT('',(0.900000000000,0.000000000000,-0.100000000000));
#47=AXIS2_PLACEMENT_3D('',#46,#2,#3);
#48=CIRCLE('',#47,0.200000000000);
#49=EDGE_CURVE('',#38,#45,#48,.T.);
#50=ORIENTED_EDGE('',*,*,#49,.T.);
#51=CARTESIAN_POINT('',(0.900000000000,0.200000000000,0.000000000000));
#52=LINE('',#51,#40);
#53=EDGE_CURVE('',#45,#31,#52,.T.);
#54=ORIENTED_EDGE('',*,*,#53,.T.);
#55=EDGE_LOOP('',(#36,#43,#50,#54));
#56=FACE_BOUND('',#55,.T.);
#57=ADVANCED_FACE('',(#56),#27,.T.);
#58=PLANE('',#9);
#59=ORIENTED_EDGE('',*,*,#11,.F.);
#60=EDGE_LOOP('',(#59));
#61=ORIENTED_EDGE('',*,*,#35,.T.);
#62=CARTESIAN_POINT('',(0.369323706252,0.200000000000,0.100000000000));
#63=VERTEX_POINT('',#62);
#64=CARTESIAN_POINT('',(0.000000000000,0.200000000000,0.100000000000));
#65=DIRECTION('',(-1.000000000000,0.000000000000,0.000000000000));
#66=VECTOR('',#65,1.0);
#67=LINE('',#64,#66);
#68=EDGE_CURVE('',#31,#63,#67,.T.);
#69=ORIENTED_EDGE('',*,*,#68,.T.);
#70=CARTESIAN_POINT('',(-0.369323706252,0.200000000000,0.100000000000));
#71=VERTEX_POINT('',#70);
#72=CIRCLE('',#9,0.420000000000);
#73=EDGE_CURVE('',#63,#71,#72,.T.);
#74=ORIENTED_EDGE('',*,*,#73,.T.);
#75=CARTESIAN_POINT('',(-0.369323706252,-0.200000000000,0.100000000000));
#76=VERTEX_POINT('',#75);
#77=CIRCLE('',#9,0.420000000000);
#78=EDGE_CURVE('',#71,#76,#77,.T.);
#79=ORIENTED_EDGE('',*,*,#78,.T.);
#80=CARTESIAN_POINT('',(0.369323706252,-0.200000000000,0.100000000000));
#81=VERTEX_POINT('',#80);
#82=CIRCLE('',#9,0.420000000000);
#83=EDGE_CURVE('',#76,#81,#82,.T.);
#84=ORIENTED_EDGE('',*,*,#83,.T.);
#85=CARTESIAN_POINT('',(0.000000000000,-0.200000000000,0.100000000000));
#86=DIRECTION('',(1.000000000000,0.000000000000,0.000000000000));
#87=VECTOR('',#86,1.0);
#88=LINE('',#85,#87);
#89=EDGE_CURVE('',#81,#29,#88,.T.);
#90=ORIENTED_EDGE('',*,*,#89,.T.);
#91=EDGE_LOOP('',(#61,#69,#74,#79,#84,#90));
#92=FACE_BOUND('',#60,.T.);
#93=FACE_OUTER_BOUND('',#91,.T.);
#94=ADVANCED_FACE('',(#92,#93),#58,.T.);
#95=DIRECTION('',(0.000000000000,0.000000000000,-1.000000000000));
#96=DIRECTION('',(0.000000000000,-1.000000000000,0.000000000000));
#97=AXIS2_PLACEMENT_3D('',#16,#95,#96);
#98=PLANE('',#97);
#99=ORIENTED_EDGE('',*,*,#19,.T.);
#100=EDGE_LOOP('',(#99));
#101=ORIENTED_EDGE('',*,*,#49,.F.);
#102=CARTESIAN_POINT('',(0.369323706252,-0.200000000000,-0.100000000000));
#103=VERTEX_POINT('',#102);
#104=CARTESIAN_POINT('',(0.000000000000,-0.200000000000,-0.100000000000));
#105=LINE('',#104,#66);
#106=EDGE_CURVE('',#38,#103,#105,.T.);
#107=ORIENTED_EDGE('',*,*,#106,.T.);
#108=CARTESIAN_POINT('',(-0.369323706252,-0.200000000000,-0.100000000000));
#109=VERTEX_POINT('',#108);
#110=CIRCLE('',#17,0.420000000000);
#111=EDGE_CURVE('',#109,#103,#110,.T.);
#112=ORIENTED_EDGE('',*,*,#111,.F.);
#113=CARTESIAN_POINT('',(-0.369323706252,0.200000000000,-0.100000000000));
#114=VERTEX_POINT('',#113);
#115=CIRCLE('',#17,0.420000000000);
#116=EDGE_CURVE('',#114,#109,#115,.T.);
#117=ORIENTED_EDGE('',*,*,#116,.F.);
#118=CARTESIAN_POINT('',(0.369323706252,0.200000000000,-0.100000000000));
#119=VERTEX_POINT('',#118);
#120=CIRCLE('',#17,0.420000000000);
#121=EDGE_CURVE('',#119,#114,#120,.T.);
#122=ORIENTED_EDGE('',*,*,#121,.F.);
#123=CARTESIAN_POINT('',(0.000000000000,0.200000000000,-0.100000000000));
#124=LINE('',#123,#87);
#125=EDGE_CURVE('',#119,#45,#124,.T.);
#126=ORIENTED_EDGE('',*,*,#125,.T.);
#127=EDGE_LOOP('',(#101,#107,#112,#117,#122,#126));
#128=FACE_BOUND('',#100,.T.);
#129=FACE_OUTER_BOUND('',#127,.T.);
#130=ADVANCED_FACE('',(#128,#129),#98,.T.);
#131=CARTESIAN_POINT('',(0.000000000000,0.200000000000,0.000000000000));
#132=AXIS2_PLACEMENT_3D('',#131,#3,#95);
#133=PLANE('',#132);
#134=ORIENTED_EDGE('',*,*,#53,.F.);
#135=ORIENTED_EDGE('',*,*,#125,.F.);
#136=CARTESIAN_POINT('',(0.369323706252,0.200000000000,0.000000000000));
#137=LINE('',#136,#40);
#138=EDGE_CURVE('',#119,#63,#137,.T.);
#139=ORIENTED_EDGE('',*,*,#138,.T.);
#140=ORIENTED_EDGE('',*,*,#68,.F.);
#141=EDGE_LOOP('',(#134,#135,#139,#140));
#142=FACE_OUTER_BOUND('',#141,.T.);
#143=ADVANCED_FACE('',(#142),#133,.T.);
#144=CARTESIAN_POINT('',(0.000000000000,-0.200000000000,0.000000000000));
#145=AXIS2_PLACEMENT_3D('',#144,#96,#2);
#146=PLANE('',#145);
#147=ORIENTED_EDGE('',*,*,#42,.T.);
#148=ORIENTED_EDGE('',*,*,#89,.F.);
#149=CARTESIAN_POINT('',(0.369323706252,-0.200000000000,0.000000000000));
#150=LINE('',#149,#40);
#151=EDGE_CURVE('',#103,#81,#150,.T.);
#152=ORIENTED_EDGE('',*,*,#151,.F.);
#153=ORIENTED_EDGE('',*,*,#106,.F.);
#154=EDGE_LOOP('',(#147,#148,#152,#153));
#155=FACE_OUTER_BOUND('',#154,.T.);
#156=ADVANCED_FACE('',(#155),#146,.T.);
#157=CYLINDRICAL_SURFACE('',#4,0.420000000000);
#158=ORIENTED_EDGE('',*,*,#78,.F.);
#159=ORIENTED_EDGE('',*,*,#73,.F.);
#160=ORIENTED_EDGE('',*,*,#138,.F.);
#161=ORIENTED_EDGE('',*,*,#121,.T.);
#162=ORIENTED_EDGE('',*,*,#116,.T.);
#163=ORIENTED_EDGE('',*,*,#111,.T.);
#164=ORIENTED_EDGE('',*,*,#151,.T.);
#165=ORIENTED_EDGE('',*,*,#83,.F.);
#166=EDGE_LOOP('',(#158,#159,#160,#161,#162,#163,#164,#165));
#167=FACE_BOUND('',#166,.T.);
#168=ADVANCED_FACE('',(#167),#157,.T.);
#169=CLOSED_SHELL('',(#24,#57,#94,#130,#143,#156,#168));
#170=MANIFOLD_SOLID_BREP('barrel_and_winding',#169);
#171=APPLICATION_CONTEXT('core data for automotive mechanical design processes');
#172=APPLICATION_PROTOCOL_DEFINITION('international standard','automotive_design',2000,#171);
#173=PRODUCT_CONTEXT('',#171,'mechanical');
#174=PRODUCT('barrel_and_winding','barrel_and_winding','',(#173));
#175=PRODUCT_DEFINITION_FORMATION('','',#174);
#176=PRODUCT_DEFINITION_CONTEXT('part definition',#171,'design');
#177=PRODUCT_DEFINITION('','',#175,#176);
#178=PRODUCT_DEFINITION_SHAPE('','',#177);
#179=(LENGTH_UNIT()NAMED_UNIT(*)SI_UNIT(.MILLI.,.METRE.));
#180=(NAMED_UNIT(*)PLANE_ANGLE_UNIT()SI_UNIT($,.RADIAN.));
#181=(NAMED_UNIT(*)SI_UNIT($,.STERADIAN.)SOLID_ANGLE_UNIT());
#182=UNCERTAINTY_MEASURE_WITH_UNIT(LENGTH_MEASURE(1.E-07),#179,'distance_accuracy_value','');
#183=(GEOMETRIC_REPRESENTATION_CONTEXT(3)GLOBAL_UNCERTAINTY_ASSIGNED_CONTEXT((#182))GLOBAL_UNIT_ASSIGNED_CONTEXT((#179,#180,#181))REPRESENTATION_CONTEXT('',''));
#184=ADVANCED_BREP_SHAPE_REPRESENTATION('',(#170),#183);
#185=SHAPE_DEFINITION_REPRESENTATION(#178,#184);
ENDSEC;
END-ISO-10303-21;
