ISO-10303-21;
HEADER;
FILE_DESCRIPTION(('40 face(s), 252 edge(s), 180 vertex/vertices confirmed by cade at n=128, half-extent 1.500000000000'),'2;1');
FILE_NAME('dial_side.step','2026-08-23T00:00:00',('cade'),('cade'),'cade 0.1.0','cade','');
FILE_SCHEMA(('AUTOMOTIVE_DESIGN { 1 0 10303 214 1 1 1 1 }'));
ENDSEC;
DATA;
#1=CARTESIAN_POINT('',(0.600000000000,1.039230484541,0.000000000000));
#2=DIRECTION('',(0.500000000000,0.866025403784,0.000000000000));
#3=DIRECTION('',(0.866025403784,-0.500000000000,0.000000000000));
#4=AXIS2_PLACEMENT_3D('',#1,#2,#3);
#5=PLANE('',#4);
#6=CARTESIAN_POINT('',(0.522057713659,1.084230484541,-0.110000000000));
#7=VERTEX_POINT('',#6);
#8=CARTESIAN_POINT('',(0.522057713659,1.084230484541,0.110000000000));
#9=VERTEX_POINT('',#8);
#10=CARTESIAN_POINT('',(0.522057713659,1.084230484541,0.000000000000));
#11=DIRECTION('',(0.000000000000,0.000000000000,1.000000000000));
#12=VECTOR('',#11,1.0);
#13=LINE('',#10,#12);
#14=EDGE_CURVE('',#7,#9,#13,.T.);
#15=ORIENTED_EDGE('',*,*,#14,.T.);
#16=CARTESIAN_POINT('',(0.677942286341,0.994230484541,0.110000000000));
#17=VERTEX_POINT('',#16);
#18=CARTESIAN_POINT('',(0.600000000000,1.039230484541,0.110000000000));
#19=VECTOR('',#3,1.0);
#20=LINE('',#18,#19);
#21=EDGE_CURVE('',#9,#17,#20,.T.);
#22=ORIENTED_EDGE('',*,*,#21,.T.);
#23=CARTESIAN_POINT('',(0.677942286341,0.994230484541,-0.110000000000));
#24=VERTEX_POINT('',#23);
#25=CARTESIAN_POINT('',(0.677942286341,0.994230484541,0.000000000000));
#26=DIRECTION('',(0.000000000000,0.000000000000,-1.000000000000));
#27=VECTOR('',#26,1.0);
#28=LINE('',#25,#27);
#29=EDGE_CURVE('',#17,#24,#28,.T.);
#30=ORIENTED_EDGE('',*,*,#29,.T.);
#31=CARTESIAN_POINT('',(0.600000000000,1.039230484541,-0.110000000000));
#32=DIRECTION('',(-0.866025403784,0.500000000000,0.000000000000));
#33=VECTOR('',#32,1.0);
#34=LINE('',#31,#33);
#35=EDGE_CURVE('',#24,#7,#34,.T.);
#36=ORIENTED_EDGE('',*,*,#35,.T.);
#37=EDGE_LOOP('',(#15,#22,#30,#36));
#38=FACE_OUTER_BOUND('',#37,.T.);
#39=ADVANCED_FACE('',(#38),#5,.T.);
#40=CARTESIAN_POINT('',(-0.077942286341,0.045000000000,0.000000000000));
#41=AXIS2_PLACEMENT_3D('',#40,#32,#2);
#42=PLANE('',#41);
#43=ORIENTED_EDGE('',*,*,#14,.F.);
#44=CARTESIAN_POINT('',(0.460179447099,0.977054182974,-0.110000000000));
#45=VERTEX_POINT('',#44);
#46=CARTESIAN_POINT('',(-0.077942286341,0.045000000000,-0.110000000000));
#47=DIRECTION('',(-0.500000000000,-0.866025403784,0.000000000000));
#48=VECTOR('',#47,1.0);
#49=LINE('',#46,#48);
#50=EDGE_CURVE('',#7,#45,#49,.T.);
#51=ORIENTED_EDGE('',*,*,#50,.T.);
#52=CARTESIAN_POINT('',(0.460179447099,0.977054182974,0.110000000000));
#53=VERTEX_POINT('',#52);
#54=CARTESIAN_POINT('',(0.460179447099,0.977054182974,0.000000000000));
#55=LINE('',#54,#12);
#56=EDGE_CURVE('',#45,#53,#55,.T.);
#57=ORIENTED_EDGE('',*,*,#56,.T.);
#58=CARTESIAN_POINT('',(-0.077942286341,0.045000000000,0.110000000000));
#59=VECTOR('',#2,1.0);
#60=LINE('',#58,#59);
#61=EDGE_CURVE('',#53,#9,#60,.T.);
#62=ORIENTED_EDGE('',*,*,#61,.T.);
#63=EDGE_LOOP('',(#43,#51,#57,#62));
#64=CARTESIAN_POINT('',(-0.677942286341,-0.994230484541,0.110000000000));
#65=VERTEX_POINT('',#64);
#66=CARTESIAN_POINT('',(-0.616064019780,-0.887054182974,0.110000000000));
#67=VERTEX_POINT('',#66);
#68=LINE('',#58,#59);
#69=EDGE_CURVE('',#65,#67,#68,.T.);
#70=ORIENTED_EDGE('',*,*,#69,.T.);
#71=CARTESIAN_POINT('',(-0.616064019780,-0.887054182974,-0.110000000000));
#72=VERTEX_POINT('',#71);
#73=CARTESIAN_POINT('',(-0.616064019780,-0.887054182974,0.000000000000));
#74=LINE('',#73,#12);
#75=EDGE_CURVE('',#72,#67,#74,.T.);
#76=ORIENTED_EDGE('',*,*,#75,.F.);
#77=CARTESIAN_POINT('',(-0.677942286341,-0.994230484541,-0.110000000000));
#78=VERTEX_POINT('',#77);
#79=LINE('',#46,#48);
#80=EDGE_CURVE('',#72,#78,#79,.T.);
#81=ORIENTED_EDGE('',*,*,#80,.T.);
#82=CARTESIAN_POINT('',(-0.677942286341,-0.994230484541,0.000000000000));
#83=LINE('',#82,#12);
#84=EDGE_CURVE('',#78,#65,#83,.T.);
#85=ORIENTED_EDGE('',*,*,#84,.T.);
#86=EDGE_LOOP('',(#70,#76,#81,#85));
#87=FACE_OUTER_BOUND('',#63,.T.);
#88=ADVANCED_FACE('',(#87),#42,.T.);
#89=FACE_OUTER_BOUND('',#86,.T.);
#90=ADVANCED_FACE('',(#89),#42,.T.);
#91=CARTESIAN_POINT('',(0.077942286341,-0.045000000000,0.000000000000));
#92=AXIS2_PLACEMENT_3D('',#91,#3,#47);
#93=PLANE('',#92);
#94=CARTESIAN_POINT('',(-0.460179447099,-0.977054182974,0.110000000000));
#95=VERTEX_POINT('',#94);
#96=CARTESIAN_POINT('',(-0.522057713659,-1.084230484541,0.110000000000));
#97=VERTEX_POINT('',#96);
#98=CARTESIAN_POINT('',(0.077942286341,-0.045000000000,0.110000000000));
#99=LINE('',#98,#48);
#100=EDGE_CURVE('',#95,#97,#99,.T.);
#101=ORIENTED_EDGE('',*,*,#100,.T.);
#102=CARTESIAN_POINT('',(-0.522057713659,-1.084230484541,-0.110000000000));
#103=VERTEX_POINT('',#102);
#104=CARTESIAN_POINT('',(-0.522057713659,-1.084230484541,0.000000000000));
#105=LINE('',#104,#27);
#106=EDGE_CURVE('',#97,#103,#105,.T.);
#107=ORIENTED_EDGE('',*,*,#106,.T.);
#108=CARTESIAN_POINT('',(-0.460179447099,-0.977054182974,-0.110000000000));
#109=VERTEX_POINT('',#108);
#110=CARTESIAN_POINT('',(0.077942286341,-0.045000000000,-0.110000000000));
#111=LINE('',#110,#59);
#112=EDGE_CURVE('',#103,#109,#111,.T.);
#113=ORIENTED_EDGE('',*,*,#112,.T.);
#114=CARTESIAN_POINT('',(-0.460179447099,-0.977054182974,0.000000000000));
#115=LINE('',#114,#12);
#116=EDGE_CURVE('',#109,#95,#115,.T.);
#117=ORIENTED_EDGE('',*,*,#116,.T.);
#118=EDGE_LOOP('',(#101,#107,#113,#117));
#119=ORIENTED_EDGE('',*,*,#29,.F.);
#120=CARTESIAN_POINT('',(0.616064019780,0.887054182974,0.110000000000));
#121=VERTEX_POINT('',#120);
#122=LINE('',#98,#48);
#123=EDGE_CURVE('',#17,#121,#122,.T.);
#124=ORIENTED_EDGE('',*,*,#123,.T.);
#125=CARTESIAN_POINT('',(0.616064019780,0.887054182974,-0.110000000000));
#126=VERTEX_POINT('',#125);
#127=CARTESIAN_POINT('',(0.616064019780,0.887054182974,0.000000000000));
#128=LINE('',#127,#12);
#129=EDGE_CURVE('',#126,#121,#128,.T.);
#130=ORIENTED_EDGE('',*,*,#129,.F.);
#131=LINE('',#110,#59);
#132=EDGE_CURVE('',#126,#24,#131,.T.);
#133=ORIENTED_EDGE('',*,*,#132,.T.);
#134=EDGE_LOOP('',(#119,#124,#130,#133));
#135=FACE_OUTER_BOUND('',#118,.T.);
#136=ADVANCED_FACE('',(#135),#93,.T.);
#137=FACE_OUTER_BOUND('',#134,.T.);
#138=ADVANCED_FACE('',(#137),#93,.T.);
#139=CARTESIAN_POINT('',(0.000000000000,0.000000000000,0.110000000000));
#140=DIRECTION('',(0.000000000000,1.000000000000,0.000000000000));
#141=AXIS2_PLACEMENT_3D('',#139,#11,#140);
#142=PLANE('',#141);
#143=CARTESIAN_POINT('',(-0.061563625799,0.169144671741,0.110000000000));
#144=VERTEX_POINT('',#143);
#145=CARTESIAN_POINT('',(-0.115701769744,0.137887999761,0.110000000000));
#146=VERTEX_POINT('',#145);
#147=CIRCLE('',#141,0.180000000000);
#148=EDGE_CURVE('',#144,#146,#147,.T.);
#149=ORIENTED_EDGE('',*,*,#148,.F.);
#150=CARTESIAN_POINT('',(0.000000000000,0.180000000000,0.110000000000));
#151=VERTEX_POINT('',#150);
#152=CIRCLE('',#141,0.180000000000);
#153=EDGE_CURVE('',#151,#144,#152,.T.);
#154=ORIENTED_EDGE('',*,*,#153,.F.);
#155=CARTESIAN_POINT('',(0.061563625799,0.169144671741,0.110000000000));
#156=VERTEX_POINT('',#155);
#157=CIRCLE('',#141,0.180000000000);
#158=EDGE_CURVE('',#156,#151,#157,.T.);
#159=ORIENTED_EDGE('',*,*,#158,.F.);
#160=CARTESIAN_POINT('',(0.115701769744,0.137887999761,0.110000000000));
#161=VERTEX_POINT('',#160);
#162=CIRCLE('',#141,0.180000000000);
#163=EDGE_CURVE('',#161,#156,#162,.T.);
#164=ORIENTED_EDGE('',*,*,#163,.F.);
#165=CARTESIAN_POINT('',(0.155884572681,0.090000000000,0.110000000000));
#166=VERTEX_POINT('',#165);
#167=CIRCLE('',#141,0.180000000000);
#168=EDGE_CURVE('',#166,#161,#167,.T.);
#169=ORIENTED_EDGE('',*,*,#168,.F.);
#170=CARTESIAN_POINT('',(0.177265395542,0.031256671980,0.110000000000));
#171=VERTEX_POINT('',#170);
#172=CIRCLE('',#141,0.180000000000);
#173=EDGE_CURVE('',#171,#166,#172,.T.);
#174=ORIENTED_EDGE('',*,*,#173,.F.);
#175=CARTESIAN_POINT('',(0.177265395542,-0.031256671980,0.110000000000));
#176=VERTEX_POINT('',#175);
#177=CIRCLE('',#141,0.180000000000);
#178=EDGE_CURVE('',#176,#171,#177,.T.);
#179=ORIENTED_EDGE('',*,*,#178,.F.);
#180=CARTESIAN_POINT('',(0.155884572681,-0.090000000000,0.110000000000));
#181=VERTEX_POINT('',#180);
#182=CIRCLE('',#141,0.180000000000);
#183=EDGE_CURVE('',#181,#176,#182,.T.);
#184=ORIENTED_EDGE('',*,*,#183,.F.);
#185=CARTESIAN_POINT('',(0.115701769744,-0.137887999761,0.110000000000));
#186=VERTEX_POINT('',#185);
#187=CIRCLE('',#141,0.180000000000);
#188=EDGE_CURVE('',#186,#181,#187,.T.);
#189=ORIENTED_EDGE('',*,*,#188,.F.);
#190=CARTESIAN_POINT('',(0.061563625799,-0.169144671741,0.110000000000));
#191=VERTEX_POINT('',#190);
#192=CIRCLE('',#141,0.180000000000);
#193=EDGE_CURVE('',#191,#186,#192,.T.);
#194=ORIENTED_EDGE('',*,*,#193,.F.);
#195=CARTESIAN_POINT('',(0.000000000000,-0.180000000000,0.110000000000));
#196=VERTEX_POINT('',#195);
#197=CIRCLE('',#141,0.180000000000);
#198=EDGE_CURVE('',#196,#191,#197,.T.);
#199=ORIENTED_EDGE('',*,*,#198,.F.);
#200=CARTESIAN_POINT('',(-0.061563625799,-0.169144671741,0.110000000000));
#201=VERTEX_POINT('',#200);
#202=CIRCLE('',#141,0.180000000000);
#203=EDGE_CURVE('',#201,#196,#202,.T.);
#204=ORIENTED_EDGE('',*,*,#203,.F.);
#205=CARTESIAN_POINT('',(-0.115701769744,-0.137887999761,0.110000000000));
#206=VERTEX_POINT('',#205);
#207=CIRCLE('',#141,0.180000000000);
#208=EDGE_CURVE('',#206,#201,#207,.T.);
#209=ORIENTED_EDGE('',*,*,#208,.F.);
#210=CARTESIAN_POINT('',(-0.155884572681,-0.090000000000,0.110000000000));
#211=VERTEX_POINT('',#210);
#212=CIRCLE('',#141,0.180000000000);
#213=EDGE_CURVE('',#211,#206,#212,.T.);
#214=ORIENTED_EDGE('',*,*,#213,.F.);
#215=CARTESIAN_POINT('',(-0.177265395542,-0.031256671980,0.110000000000));
#216=VERTEX_POINT('',#215);
#217=CIRCLE('',#141,0.180000000000);
#218=EDGE_CURVE('',#216,#211,#217,.T.);
#219=ORIENTED_EDGE('',*,*,#218,.F.);
#220=CARTESIAN_POINT('',(-0.177265395542,0.031256671980,0.110000000000));
#221=VERTEX_POINT('',#220);
#222=CIRCLE('',#141,0.180000000000);
#223=EDGE_CURVE('',#221,#216,#222,.T.);
#224=ORIENTED_EDGE('',*,*,#223,.F.);
#225=CARTESIAN_POINT('',(-0.155884572681,0.090000000000,0.110000000000));
#226=VERTEX_POINT('',#225);
#227=CIRCLE('',#141,0.180000000000);
#228=EDGE_CURVE('',#226,#221,#227,.T.);
#229=ORIENTED_EDGE('',*,*,#228,.F.);
#230=CIRCLE('',#141,0.180000000000);
#231=EDGE_CURVE('',#146,#226,#230,.T.);
#232=ORIENTED_EDGE('',*,*,#231,.F.);
#233=EDGE_LOOP('',(#149,#154,#159,#164,#169,#174,#179,#184,#189,#194,#199,#204,#209,#214,#219,#224,#229,#232));
#234=ORIENTED_EDGE('',*,*,#21,.F.);
#235=ORIENTED_EDGE('',*,*,#61,.F.);
#236=CARTESIAN_POINT('',(0.275520414521,1.044264574321,0.110000000000));
#237=VERTEX_POINT('',#236);
#238=CIRCLE('',#141,1.080000000000);
#239=EDGE_CURVE('',#53,#237,#238,.T.);
#240=ORIENTED_EDGE('',*,*,#239,.T.);
#241=CARTESIAN_POINT('',(0.297010510971,1.166140967625,0.110000000000));
#242=VERTEX_POINT('',#241);
#243=CARTESIAN_POINT('',(0.088632697771,-0.015628335990,0.110000000000));
#244=DIRECTION('',(0.173648177667,0.984807753012,0.000000000000));
#245=VECTOR('',#244,1.0);
#246=LINE('',#243,#245);
#247=EDGE_CURVE('',#237,#242,#246,.T.);
#248=ORIENTED_EDGE('',*,*,#247,.T.);
#249=CARTESIAN_POINT('',(0.119745115429,1.197397639605,0.110000000000));
#250=VERTEX_POINT('',#249);
#251=CARTESIAN_POINT('',(0.208377813200,1.181769303615,0.110000000000));
#252=DIRECTION('',(-0.984807753012,0.173648177667,0.000000000000));
#253=VECTOR('',#252,1.0);
#254=LINE('',#251,#253);
#255=EDGE_CURVE('',#242,#250,#254,.T.);
#256=ORIENTED_EDGE('',*,*,#255,.T.);
#257=CARTESIAN_POINT('',(0.098255018978,1.075521246301,0.110000000000));
#258=VERTEX_POINT('',#257);
#259=CARTESIAN_POINT('',(-0.088632697771,0.015628335990,0.110000000000));
#260=DIRECTION('',(-0.173648177667,-0.984807753012,0.000000000000));
#261=VECTOR('',#260,1.0);
#262=LINE('',#259,#261);
#263=EDGE_CURVE('',#250,#258,#262,.T.);
#264=ORIENTED_EDGE('',*,*,#263,.T.);
#265=CARTESIAN_POINT('',(-0.098255018978,1.075521246301,0.110000000000));
#266=VERTEX_POINT('',#265);
#267=CIRCLE('',#141,1.080000000000);
#268=EDGE_CURVE('',#258,#266,#267,.T.);
#269=ORIENTED_EDGE('',*,*,#268,.T.);
#270=CARTESIAN_POINT('',(-0.119745115429,1.197397639605,0.110000000000));
#271=VERTEX_POINT('',#270);
#272=CARTESIAN_POINT('',(0.088632697771,0.015628335990,0.110000000000));
#273=DIRECTION('',(-0.173648177667,0.984807753012,0.000000000000));
#274=VECTOR('',#273,1.0);
#275=LINE('',#272,#274);
#276=EDGE_CURVE('',#266,#271,#275,.T.);
#277=ORIENTED_EDGE('',*,*,#276,.T.);
#278=CARTESIAN_POINT('',(-0.297010510971,1.166140967625,0.110000000000));
#279=VERTEX_POINT('',#278);
#280=CARTESIAN_POINT('',(-0.208377813200,1.181769303615,0.110000000000));
#281=DIRECTION('',(-0.984807753012,-0.173648177667,0.000000000000));
#282=VECTOR('',#281,1.0);
#283=LINE('',#280,#282);
#284=EDGE_CURVE('',#271,#279,#283,.T.);
#285=ORIENTED_EDGE('',*,*,#284,.T.);
#286=CARTESIAN_POINT('',(-0.275520414521,1.044264574321,0.110000000000));
#287=VERTEX_POINT('',#286);
#288=CARTESIAN_POINT('',(-0.088632697771,-0.015628335990,0.110000000000));
#289=DIRECTION('',(0.173648177667,-0.984807753012,0.000000000000));
#290=VECTOR('',#289,1.0);
#291=LINE('',#288,#290);
#292=EDGE_CURVE('',#279,#287,#291,.T.);
#293=ORIENTED_EDGE('',*,*,#292,.T.);
#294=CARTESIAN_POINT('',(-0.460179447099,0.977054182974,0.110000000000));
#295=VERTEX_POINT('',#294);
#296=CIRCLE('',#141,1.080000000000);
#297=EDGE_CURVE('',#287,#295,#296,.T.);
#298=ORIENTED_EDGE('',*,*,#297,.T.);
#299=CARTESIAN_POINT('',(-0.522057713659,1.084230484541,0.110000000000));
#300=VERTEX_POINT('',#299);
#301=CARTESIAN_POINT('',(0.077942286341,0.045000000000,0.110000000000));
#302=DIRECTION('',(-0.500000000000,0.866025403784,0.000000000000));
#303=VECTOR('',#302,1.0);
#304=LINE('',#301,#303);
#305=EDGE_CURVE('',#295,#300,#304,.T.);
#306=ORIENTED_EDGE('',*,*,#305,.T.);
#307=CARTESIAN_POINT('',(-0.677942286341,0.994230484541,0.110000000000));
#308=VERTEX_POINT('',#307);
#309=CARTESIAN_POINT('',(-0.600000000000,1.039230484541,0.110000000000));
#310=DIRECTION('',(-0.866025403784,-0.500000000000,0.000000000000));
#311=VECTOR('',#310,1.0);
#312=LINE('',#309,#311);
#313=EDGE_CURVE('',#300,#308,#312,.T.);
#314=ORIENTED_EDGE('',*,*,#313,.T.);
#315=CARTESIAN_POINT('',(-0.616064019780,0.887054182974,0.110000000000));
#316=VERTEX_POINT('',#315);
#317=CARTESIAN_POINT('',(-0.077942286341,-0.045000000000,0.110000000000));
#318=DIRECTION('',(0.500000000000,-0.866025403784,0.000000000000));
#319=VECTOR('',#318,1.0);
#320=LINE('',#317,#319);
#321=EDGE_CURVE('',#308,#316,#320,.T.);
#322=ORIENTED_EDGE('',*,*,#321,.T.);
#323=CARTESIAN_POINT('',(-0.766599442374,0.760739965397,0.110000000000));
#324=VERTEX_POINT('',#323);
#325=CIRCLE('',#141,1.080000000000);
#326=EDGE_CURVE('',#316,#324,#325,.T.);
#327=ORIENTED_EDGE('',*,*,#326,.T.);
#328=CARTESIAN_POINT('',(-0.861402446871,0.840289131505,0.110000000000));
#329=VERTEX_POINT('',#328);
#330=CARTESIAN_POINT('',(0.057850884872,0.068943999881,0.110000000000));
#331=DIRECTION('',(-0.766044443119,0.642787609687,0.000000000000));
#332=VECTOR('',#331,1.0);
#333=LINE('',#330,#332);
#334=EDGE_CURVE('',#324,#329,#333,.T.);
#335=ORIENTED_EDGE('',*,*,#334,.T.);
#336=CARTESIAN_POINT('',(-0.977104216615,0.702401131743,0.110000000000));
#337=VERTEX_POINT('',#336);
#338=CARTESIAN_POINT('',(-0.919253331743,0.771345131624,0.110000000000));
#339=DIRECTION('',(-0.642787609687,-0.766044443119,0.000000000000));
#340=VECTOR('',#339,1.0);
#341=LINE('',#338,#340);
#342=EDGE_CURVE('',#329,#337,#341,.T.);
#343=ORIENTED_EDGE('',*,*,#342,.T.);
#344=CARTESIAN_POINT('',(-0.882301212118,0.622851965635,0.110000000000));
#345=VERTEX_POINT('',#344);
#346=CARTESIAN_POINT('',(-0.057850884872,-0.068943999881,0.110000000000));
#347=DIRECTION('',(0.766044443119,-0.642787609687,0.000000000000));
#348=VECTOR('',#347,1.0);
#349=LINE('',#346,#348);
#350=EDGE_CURVE('',#337,#345,#349,.T.);
#351=ORIENTED_EDGE('',*,*,#350,.T.);
#352=CARTESIAN_POINT('',(-0.980556231096,0.452669280666,0.110000000000));
#353=VERTEX_POINT('',#352);
#354=CIRCLE('',#141,1.080000000000);
#355=EDGE_CURVE('',#345,#353,#354,.T.);
#356=ORIENTED_EDGE('',*,*,#355,.T.);
#357=CARTESIAN_POINT('',(-1.096849332044,0.494996507862,0.110000000000));
#358=VERTEX_POINT('',#357);
#359=CARTESIAN_POINT('',(0.030781812899,0.084572335871,0.110000000000));
#360=DIRECTION('',(-0.939692620786,0.342020143326,0.000000000000));
#361=VECTOR('',#360,1.0);
#362=LINE('',#359,#361);
#363=EDGE_CURVE('',#353,#358,#362,.T.);
#364=ORIENTED_EDGE('',*,*,#363,.T.);
#365=CARTESIAN_POINT('',(-1.158412957842,0.325851836120,0.110000000000));
#366=VERTEX_POINT('',#365);
#367=CARTESIAN_POINT('',(-1.127631144943,0.410424171991,0.110000000000));
#368=DIRECTION('',(-0.342020143326,-0.939692620786,0.000000000000));
#369=VECTOR('',#368,1.0);
#370=LINE('',#367,#369);
#371=EDGE_CURVE('',#358,#366,#370,.T.);
#372=ORIENTED_EDGE('',*,*,#371,.T.);
#373=CARTESIAN_POINT('',(-1.042119856895,0.283524608925,0.110000000000));
#374=VERTEX_POINT('',#373);
#375=CARTESIAN_POINT('',(-0.030781812899,-0.084572335871,0.110000000000));
#376=DIRECTION('',(0.939692620786,-0.342020143326,0.000000000000));
#377=VECTOR('',#376,1.0);
#378=LINE('',#375,#377);
#379=EDGE_CURVE('',#366,#374,#378,.T.);
#380=ORIENTED_EDGE('',*,*,#379,.T.);
#381=CARTESIAN_POINT('',(-1.076243466879,0.090000000000,0.110000000000));
#382=VERTEX_POINT('',#381);
#383=CIRCLE('',#141,1.080000000000);
#384=EDGE_CURVE('',#374,#382,#383,.T.);
#385=ORIENTED_EDGE('',*,*,#384,.T.);
#386=CARTESIAN_POINT('',(-1.200000000000,0.090000000000,0.110000000000));
#387=VERTEX_POINT('',#386);
#388=CARTESIAN_POINT('',(0.000000000000,0.090000000000,0.110000000000));
#389=DIRECTION('',(-1.000000000000,0.000000000000,0.000000000000));
#390=VECTOR('',#389,1.0);
#391=LINE('',#388,#390);
#392=EDGE_CURVE('',#382,#387,#391,.T.);
#393=ORIENTED_EDGE('',*,*,#392,.T.);
#394=CARTESIAN_POINT('',(-1.200000000000,-0.090000000000,0.110000000000));
#395=VERTEX_POINT('',#394);
#396=CARTESIAN_POINT('',(-1.200000000000,0.000000000000,0.110000000000));
#397=DIRECTION('',(0.000000000000,-1.000000000000,0.000000000000));
#398=VECTOR('',#397,1.0);
#399=LINE('',#396,#398);
#400=EDGE_CURVE('',#387,#395,#399,.T.);
#401=ORIENTED_EDGE('',*,*,#400,.T.);
#402=CARTESIAN_POINT('',(-1.076243466879,-0.090000000000,0.110000000000));
#403=VERTEX_POINT('',#402);
#404=CARTESIAN_POINT('',(0.000000000000,-0.090000000000,0.110000000000));
#405=DIRECTION('',(1.000000000000,0.000000000000,0.000000000000));
#406=VECTOR('',#405,1.0);
#407=LINE('',#404,#406);
#408=EDGE_CURVE('',#395,#403,#407,.T.);
#409=ORIENTED_EDGE('',*,*,#408,.T.);
#410=CARTESIAN_POINT('',(-1.042119856895,-0.283524608925,0.110000000000));
#411=VERTEX_POINT('',#410);
#412=CIRCLE('',#141,1.080000000000);
#413=EDGE_CURVE('',#403,#411,#412,.T.);
#414=ORIENTED_EDGE('',*,*,#413,.T.);
#415=CARTESIAN_POINT('',(-1.158412957842,-0.325851836120,0.110000000000));
#416=VERTEX_POINT('',#415);
#417=CARTESIAN_POINT('',(-0.030781812899,0.084572335871,0.110000000000));
#418=DIRECTION('',(-0.939692620786,-0.342020143326,0.000000000000));
#419=VECTOR('',#418,1.0);
#420=LINE('',#417,#419);
#421=EDGE_CURVE('',#411,#416,#420,.T.);
#422=ORIENTED_EDGE('',*,*,#421,.T.);
#423=CARTESIAN_POINT('',(-1.096849332044,-0.494996507862,0.110000000000));
#424=VERTEX_POINT('',#423);
#425=CARTESIAN_POINT('',(-1.127631144943,-0.410424171991,0.110000000000));
#426=DIRECTION('',(0.342020143326,-0.939692620786,0.000000000000));
#427=VECTOR('',#426,1.0);
#428=LINE('',#425,#427);
#429=EDGE_CURVE('',#416,#424,#428,.T.);
#430=ORIENTED_EDGE('',*,*,#429,.T.);
#431=CARTESIAN_POINT('',(-0.980556231096,-0.452669280666,0.110000000000));
#432=VERTEX_POINT('',#431);
#433=CARTESIAN_POINT('',(0.030781812899,-0.084572335871,0.110000000000));
#434=DIRECTION('',(0.939692620786,0.342020143326,0.000000000000));
#435=VECTOR('',#434,1.0);
#436=LINE('',#433,#435);
#437=EDGE_CURVE('',#424,#432,#436,.T.);
#438=ORIENTED_EDGE('',*,*,#437,.T.);
#439=CARTESIAN_POINT('',(-0.882301212118,-0.622851965635,0.110000000000));
#440=VERTEX_POINT('',#439);
#441=CIRCLE('',#141,1.080000000000);
#442=EDGE_CURVE('',#432,#440,#441,.T.);
#443=ORIENTED_EDGE('',*,*,#442,.T.);
#444=CARTESIAN_POINT('',(-0.977104216615,-0.702401131743,0.110000000000));
#445=VERTEX_POINT('',#444);
#446=CARTESIAN_POINT('',(-0.057850884872,0.068943999881,0.110000000000));
#447=DIRECTION('',(-0.766044443119,-0.642787609687,0.000000000000));
#448=VECTOR('',#447,1.0);
#449=LINE('',#446,#448);
#450=EDGE_CURVE('',#440,#445,#449,.T.);
#451=ORIENTED_EDGE('',*,*,#450,.T.);
#452=CARTESIAN_POINT('',(-0.861402446871,-0.840289131505,0.110000000000));
#453=VERTEX_POINT('',#452);
#454=CARTESIAN_POINT('',(-0.919253331743,-0.771345131624,0.110000000000));
#455=DIRECTION('',(0.642787609687,-0.766044443119,0.000000000000));
#456=VECTOR('',#455,1.0);
#457=LINE('',#454,#456);
#458=EDGE_CURVE('',#445,#453,#457,.T.);
#459=ORIENTED_EDGE('',*,*,#458,.T.);
#460=CARTESIAN_POINT('',(-0.766599442374,-0.760739965397,0.110000000000));
#461=VERTEX_POINT('',#460);
#462=CARTESIAN_POINT('',(0.057850884872,-0.068943999881,0.110000000000));
#463=DIRECTION('',(0.766044443119,0.642787609687,0.000000000000));
#464=VECTOR('',#463,1.0);
#465=LINE('',#462,#464);
#466=EDGE_CURVE('',#453,#461,#465,.T.);
#467=ORIENTED_EDGE('',*,*,#466,.T.);
#468=CIRCLE('',#141,1.080000000000);
#469=EDGE_CURVE('',#461,#67,#468,.T.);
#470=ORIENTED_EDGE('',*,*,#469,.T.);
#471=ORIENTED_EDGE('',*,*,#69,.F.);
#472=CARTESIAN_POINT('',(-0.600000000000,-1.039230484541,0.110000000000));
#473=LINE('',#472,#19);
#474=EDGE_CURVE('',#65,#97,#473,.T.);
#475=ORIENTED_EDGE('',*,*,#474,.T.);
#476=ORIENTED_EDGE('',*,*,#100,.F.);
#477=CARTESIAN_POINT('',(-0.275520414521,-1.044264574321,0.110000000000));
#478=VERTEX_POINT('',#477);
#479=CIRCLE('',#141,1.080000000000);
#480=EDGE_CURVE('',#95,#478,#479,.T.);
#481=ORIENTED_EDGE('',*,*,#480,.T.);
#482=CARTESIAN_POINT('',(-0.297010510971,-1.166140967625,0.110000000000));
#483=VERTEX_POINT('',#482);
#484=LINE('',#259,#261);
#485=EDGE_CURVE('',#478,#483,#484,.T.);
#486=ORIENTED_EDGE('',*,*,#485,.T.);
#487=CARTESIAN_POINT('',(-0.119745115429,-1.197397639605,0.110000000000));
#488=VERTEX_POINT('',#487);
#489=CARTESIAN_POINT('',(-0.208377813200,-1.181769303615,0.110000000000));
#490=DIRECTION('',(0.984807753012,-0.173648177667,0.000000000000));
#491=VECTOR('',#490,1.0);
#492=LINE('',#489,#491);
#493=EDGE_CURVE('',#483,#488,#492,.T.);
#494=ORIENTED_EDGE('',*,*,#493,.T.);
#495=CARTESIAN_POINT('',(-0.098255018978,-1.075521246301,0.110000000000));
#496=VERTEX_POINT('',#495);
#497=LINE('',#243,#245);
#498=EDGE_CURVE('',#488,#496,#497,.T.);
#499=ORIENTED_EDGE('',*,*,#498,.T.);
#500=CARTESIAN_POINT('',(0.098255018978,-1.075521246301,0.110000000000));
#501=VERTEX_POINT('',#500);
#502=CIRCLE('',#141,1.080000000000);
#503=EDGE_CURVE('',#496,#501,#502,.T.);
#504=ORIENTED_EDGE('',*,*,#503,.T.);
#505=CARTESIAN_POINT('',(0.119745115429,-1.197397639605,0.110000000000));
#506=VERTEX_POINT('',#505);
#507=LINE('',#288,#290);
#508=EDGE_CURVE('',#501,#506,#507,.T.);
#509=ORIENTED_EDGE('',*,*,#508,.T.);
#510=CARTESIAN_POINT('',(0.297010510971,-1.166140967625,0.110000000000));
#511=VERTEX_POINT('',#510);
#512=CARTESIAN_POINT('',(0.208377813200,-1.181769303615,0.110000000000));
#513=DIRECTION('',(0.984807753012,0.173648177667,0.000000000000));
#514=VECTOR('',#513,1.0);
#515=LINE('',#512,#514);
#516=EDGE_CURVE('',#506,#511,#515,.T.);
#517=ORIENTED_EDGE('',*,*,#516,.T.);
#518=CARTESIAN_POINT('',(0.275520414521,-1.044264574321,0.110000000000));
#519=VERTEX_POINT('',#518);
#520=LINE('',#272,#274);
#521=EDGE_CURVE('',#511,#519,#520,.T.);
#522=ORIENTED_EDGE('',*,*,#521,.T.);
#523=CARTESIAN_POINT('',(0.460179447099,-0.977054182974,0.110000000000));
#524=VERTEX_POINT('',#523);
#525=CIRCLE('',#141,1.080000000000);
#526=EDGE_CURVE('',#519,#524,#525,.T.);
#527=ORIENTED_EDGE('',*,*,#526,.T.);
#528=CARTESIAN_POINT('',(0.522057713659,-1.084230484541,0.110000000000));
#529=VERTEX_POINT('',#528);
#530=LINE('',#317,#319);
#531=EDGE_CURVE('',#524,#529,#530,.T.);
#532=ORIENTED_EDGE('',*,*,#531,.T.);
#533=CARTESIAN_POINT('',(0.677942286341,-0.994230484541,0.110000000000));
#534=VERTEX_POINT('',#533);
#535=CARTESIAN_POINT('',(0.600000000000,-1.039230484541,0.110000000000));
#536=DIRECTION('',(0.866025403784,0.500000000000,0.000000000000));
#537=VECTOR('',#536,1.0);
#538=LINE('',#535,#537);
#539=EDGE_CURVE('',#529,#534,#538,.T.);
#540=ORIENTED_EDGE('',*,*,#539,.T.);
#541=CARTESIAN_POINT('',(0.616064019780,-0.887054182974,0.110000000000));
#542=VERTEX_POINT('',#541);
#543=LINE('',#301,#303);
#544=EDGE_CURVE('',#534,#542,#543,.T.);
#545=ORIENTED_EDGE('',*,*,#544,.T.);
#546=CARTESIAN_POINT('',(0.766599442374,-0.760739965397,0.110000000000));
#547=VERTEX_POINT('',#546);
#548=CIRCLE('',#141,1.080000000000);
#549=EDGE_CURVE('',#542,#547,#548,.T.);
#550=ORIENTED_EDGE('',*,*,#549,.T.);
#551=CARTESIAN_POINT('',(0.861402446871,-0.840289131505,0.110000000000));
#552=VERTEX_POINT('',#551);
#553=LINE('',#346,#348);
#554=EDGE_CURVE('',#547,#552,#553,.T.);
#555=ORIENTED_EDGE('',*,*,#554,.T.);
#556=CARTESIAN_POINT('',(0.977104216615,-0.702401131743,0.110000000000));
#557=VERTEX_POINT('',#556);
#558=CARTESIAN_POINT('',(0.919253331743,-0.771345131624,0.110000000000));
#559=DIRECTION('',(0.642787609687,0.766044443119,0.000000000000));
#560=VECTOR('',#559,1.0);
#561=LINE('',#558,#560);
#562=EDGE_CURVE('',#552,#557,#561,.T.);
#563=ORIENTED_EDGE('',*,*,#562,.T.);
#564=CARTESIAN_POINT('',(0.882301212118,-0.622851965635,0.110000000000));
#565=VERTEX_POINT('',#564);
#566=LINE('',#330,#332);
#567=EDGE_CURVE('',#557,#565,#566,.T.);
#568=ORIENTED_EDGE('',*,*,#567,.T.);
#569=CARTESIAN_POINT('',(0.980556231096,-0.452669280666,0.110000000000));
#570=VERTEX_POINT('',#569);
#571=CIRCLE('',#141,1.080000000000);
#572=EDGE_CURVE('',#565,#570,#571,.T.);
#573=ORIENTED_EDGE('',*,*,#572,.T.);
#574=CARTESIAN_POINT('',(1.096849332044,-0.494996507862,0.110000000000));
#575=VERTEX_POINT('',#574);
#576=LINE('',#375,#377);
#577=EDGE_CURVE('',#570,#575,#576,.T.);
#578=ORIENTED_EDGE('',*,*,#577,.T.);
#579=CARTESIAN_POINT('',(1.158412957842,-0.325851836120,0.110000000000));
#580=VERTEX_POINT('',#579);
#581=CARTESIAN_POINT('',(1.127631144943,-0.410424171991,0.110000000000));
#582=DIRECTION('',(0.342020143326,0.939692620786,0.000000000000));
#583=VECTOR('',#582,1.0);
#584=LINE('',#581,#583);
#585=EDGE_CURVE('',#575,#580,#584,.T.);
#586=ORIENTED_EDGE('',*,*,#585,.T.);
#587=CARTESIAN_POINT('',(1.042119856895,-0.283524608925,0.110000000000));
#588=VERTEX_POINT('',#587);
#589=LINE('',#359,#361);
#590=EDGE_CURVE('',#580,#588,#589,.T.);
#591=ORIENTED_EDGE('',*,*,#590,.T.);
#592=CARTESIAN_POINT('',(1.076243466879,-0.090000000000,0.110000000000));
#593=VERTEX_POINT('',#592);
#594=CIRCLE('',#141,1.080000000000);
#595=EDGE_CURVE('',#588,#593,#594,.T.);
#596=ORIENTED_EDGE('',*,*,#595,.T.);
#597=CARTESIAN_POINT('',(1.200000000000,-0.090000000000,0.110000000000));
#598=VERTEX_POINT('',#597);
#599=LINE('',#404,#406);
#600=EDGE_CURVE('',#593,#598,#599,.T.);
#601=ORIENTED_EDGE('',*,*,#600,.T.);
#602=CARTESIAN_POINT('',(1.200000000000,0.090000000000,0.110000000000));
#603=VERTEX_POINT('',#602);
#604=CARTESIAN_POINT('',(1.200000000000,0.000000000000,0.110000000000));
#605=VECTOR('',#140,1.0);
#606=LINE('',#604,#605);
#607=EDGE_CURVE('',#598,#603,#606,.T.);
#608=ORIENTED_EDGE('',*,*,#607,.T.);
#609=CARTESIAN_POINT('',(1.076243466879,0.090000000000,0.110000000000));
#610=VERTEX_POINT('',#609);
#611=LINE('',#388,#390);
#612=EDGE_CURVE('',#603,#610,#611,.T.);
#613=ORIENTED_EDGE('',*,*,#612,.T.);
#614=CARTESIAN_POINT('',(1.042119856895,0.283524608925,0.110000000000));
#615=VERTEX_POINT('',#614);
#616=CIRCLE('',#141,1.080000000000);
#617=EDGE_CURVE('',#610,#615,#616,.T.);
#618=ORIENTED_EDGE('',*,*,#617,.T.);
#619=CARTESIAN_POINT('',(1.158412957842,0.325851836120,0.110000000000));
#620=VERTEX_POINT('',#619);
#621=LINE('',#433,#435);
#622=EDGE_CURVE('',#615,#620,#621,.T.);
#623=ORIENTED_EDGE('',*,*,#622,.T.);
#624=CARTESIAN_POINT('',(1.096849332044,0.494996507862,0.110000000000));
#625=VERTEX_POINT('',#624);
#626=CARTESIAN_POINT('',(1.127631144943,0.410424171991,0.110000000000));
#627=DIRECTION('',(-0.342020143326,0.939692620786,0.000000000000));
#628=VECTOR('',#627,1.0);
#629=LINE('',#626,#628);
#630=EDGE_CURVE('',#620,#625,#629,.T.);
#631=ORIENTED_EDGE('',*,*,#630,.T.);
#632=CARTESIAN_POINT('',(0.980556231096,0.452669280666,0.110000000000));
#633=VERTEX_POINT('',#632);
#634=LINE('',#417,#419);
#635=EDGE_CURVE('',#625,#633,#634,.T.);
#636=ORIENTED_EDGE('',*,*,#635,.T.);
#637=CARTESIAN_POINT('',(0.882301212118,0.622851965635,0.110000000000));
#638=VERTEX_POINT('',#637);
#639=CIRCLE('',#141,1.080000000000);
#640=EDGE_CURVE('',#633,#638,#639,.T.);
#641=ORIENTED_EDGE('',*,*,#640,.T.);
#642=CARTESIAN_POINT('',(0.977104216615,0.702401131743,0.110000000000));
#643=VERTEX_POINT('',#642);
#644=LINE('',#462,#464);
#645=EDGE_CURVE('',#638,#643,#644,.T.);
#646=ORIENTED_EDGE('',*,*,#645,.T.);
#647=CARTESIAN_POINT('',(0.861402446871,0.840289131505,0.110000000000));
#648=VERTEX_POINT('',#647);
#649=CARTESIAN_POINT('',(0.919253331743,0.771345131624,0.110000000000));
#650=DIRECTION('',(-0.642787609687,0.766044443119,0.000000000000));
#651=VECTOR('',#650,1.0);
#652=LINE('',#649,#651);
#653=EDGE_CURVE('',#643,#648,#652,.T.);
#654=ORIENTED_EDGE('',*,*,#653,.T.);
#655=CARTESIAN_POINT('',(0.766599442374,0.760739965397,0.110000000000));
#656=VERTEX_POINT('',#655);
#657=LINE('',#446,#448);
#658=EDGE_CURVE('',#648,#656,#657,.T.);
#659=ORIENTED_EDGE('',*,*,#658,.T.);
#660=CIRCLE('',#141,1.080000000000);
#661=EDGE_CURVE('',#656,#121,#660,.T.);
#662=ORIENTED_EDGE('',*,*,#661,.T.);
#663=ORIENTED_EDGE('',*,*,#123,.F.);
#664=EDGE_LOOP('',(#234,#235,#240,#248,#256,#264,#269,#277,#285,#293,#298,#306,#314,#322,#327,#335,#343,#351,#356,#364,#372,#380,#385,#393,#401,#409,#414,#422,#430,#438,#443,#451,#459,#467,#470,#471,#475,#476,#481,#486,#494,#499,#504,#509,#517,#522,#527,#532,#540,#545,#550,#555,#563,#568,#573,#578,#586,#591,#596,#601,#608,#613,#618,#623,#631,#636,#641,#646,#654,#659,#662,#663));
#665=FACE_BOUND('',#233,.T.);
#666=FACE_OUTER_BOUND('',#664,.T.);
#667=ADVANCED_FACE('',(#665,#666),#142,.T.);
#668=CARTESIAN_POINT('',(0.000000000000,0.000000000000,-0.110000000000));
#669=AXIS2_PLACEMENT_3D('',#668,#26,#397);
#670=PLANE('',#669);
#671=CARTESIAN_POINT('',(-0.061563625799,0.169144671741,-0.110000000000));
#672=VERTEX_POINT('',#671);
#673=CARTESIAN_POINT('',(-0.115701769744,0.137887999761,-0.110000000000));
#674=VERTEX_POINT('',#673);
#675=AXIS2_PLACEMENT_3D('',#668,#11,#140);
#676=CIRCLE('',#675,0.180000000000);
#677=EDGE_CURVE('',#672,#674,#676,.T.);
#678=ORIENTED_EDGE('',*,*,#677,.T.);
#679=CARTESIAN_POINT('',(-0.155884572681,0.090000000000,-0.110000000000));
#680=VERTEX_POINT('',#679);
#681=CIRCLE('',#675,0.180000000000);
#682=EDGE_CURVE('',#674,#680,#681,.T.);
#683=ORIENTED_EDGE('',*,*,#682,.T.);
#684=CARTESIAN_POINT('',(-0.177265395542,0.031256671980,-0.110000000000));
#685=VERTEX_POINT('',#684);
#686=CIRCLE('',#675,0.180000000000);
#687=EDGE_CURVE('',#680,#685,#686,.T.);
#688=ORIENTED_EDGE('',*,*,#687,.T.);
#689=CARTESIAN_POINT('',(-0.177265395542,-0.031256671980,-0.110000000000));
#690=VERTEX_POINT('',#689);
#691=CIRCLE('',#675,0.180000000000);
#692=EDGE_CURVE('',#685,#690,#691,.T.);
#693=ORIENTED_EDGE('',*,*,#692,.T.);
#694=CARTESIAN_POINT('',(-0.155884572681,-0.090000000000,-0.110000000000));
#695=VERTEX_POINT('',#694);
#696=CIRCLE('',#675,0.180000000000);
#697=EDGE_CURVE('',#690,#695,#696,.T.);
#698=ORIENTED_EDGE('',*,*,#697,.T.);
#699=CARTESIAN_POINT('',(-0.115701769744,-0.137887999761,-0.110000000000));
#700=VERTEX_POINT('',#699);
#701=CIRCLE('',#675,0.180000000000);
#702=EDGE_CURVE('',#695,#700,#701,.T.);
#703=ORIENTED_EDGE('',*,*,#702,.T.);
#704=CARTESIAN_POINT('',(-0.061563625799,-0.169144671741,-0.110000000000));
#705=VERTEX_POINT('',#704);
#706=CIRCLE('',#675,0.180000000000);
#707=EDGE_CURVE('',#700,#705,#706,.T.);
#708=ORIENTED_EDGE('',*,*,#707,.T.);
#709=CARTESIAN_POINT('',(0.000000000000,-0.180000000000,-0.110000000000));
#710=VERTEX_POINT('',#709);
#711=CIRCLE('',#675,0.180000000000);
#712=EDGE_CURVE('',#705,#710,#711,.T.);
#713=ORIENTED_EDGE('',*,*,#712,.T.);
#714=CARTESIAN_POINT('',(0.061563625799,-0.169144671741,-0.110000000000));
#715=VERTEX_POINT('',#714);
#716=CIRCLE('',#675,0.180000000000);
#717=EDGE_CURVE('',#710,#715,#716,.T.);
#718=ORIENTED_EDGE('',*,*,#717,.T.);
#719=CARTESIAN_POINT('',(0.115701769744,-0.137887999761,-0.110000000000));
#720=VERTEX_POINT('',#719);
#721=CIRCLE('',#675,0.180000000000);
#722=EDGE_CURVE('',#715,#720,#721,.T.);
#723=ORIENTED_EDGE('',*,*,#722,.T.);
#724=CARTESIAN_POINT('',(0.155884572681,-0.090000000000,-0.110000000000));
#725=VERTEX_POINT('',#724);
#726=CIRCLE('',#675,0.180000000000);
#727=EDGE_CURVE('',#720,#725,#726,.T.);
#728=ORIENTED_EDGE('',*,*,#727,.T.);
#729=CARTESIAN_POINT('',(0.177265395542,-0.031256671980,-0.110000000000));
#730=VERTEX_POINT('',#729);
#731=CIRCLE('',#675,0.180000000000);
#732=EDGE_CURVE('',#725,#730,#731,.T.);
#733=ORIENTED_EDGE('',*,*,#732,.T.);
#734=CARTESIAN_POINT('',(0.177265395542,0.031256671980,-0.110000000000));
#735=VERTEX_POINT('',#734);
#736=CIRCLE('',#675,0.180000000000);
#737=EDGE_CURVE('',#730,#735,#736,.T.);
#738=ORIENTED_EDGE('',*,*,#737,.T.);
#739=CARTESIAN_POINT('',(0.155884572681,0.090000000000,-0.110000000000));
#740=VERTEX_POINT('',#739);
#741=CIRCLE('',#675,0.180000000000);
#742=EDGE_CURVE('',#735,#740,#741,.T.);
#743=ORIENTED_EDGE('',*,*,#742,.T.);
#744=CARTESIAN_POINT('',(0.115701769744,0.137887999761,-0.110000000000));
#745=VERTEX_POINT('',#744);
#746=CIRCLE('',#675,0.180000000000);
#747=EDGE_CURVE('',#740,#745,#746,.T.);
#748=ORIENTED_EDGE('',*,*,#747,.T.);
#749=CARTESIAN_POINT('',(0.061563625799,0.169144671741,-0.110000000000));
#750=VERTEX_POINT('',#749);
#751=CIRCLE('',#675,0.180000000000);
#752=EDGE_CURVE('',#745,#750,#751,.T.);
#753=ORIENTED_EDGE('',*,*,#752,.T.);
#754=CARTESIAN_POINT('',(0.000000000000,0.180000000000,-0.110000000000));
#755=VERTEX_POINT('',#754);
#756=CIRCLE('',#675,0.180000000000);
#757=EDGE_CURVE('',#750,#755,#756,.T.);
#758=ORIENTED_EDGE('',*,*,#757,.T.);
#759=CIRCLE('',#675,0.180000000000);
#760=EDGE_CURVE('',#755,#672,#759,.T.);
#761=ORIENTED_EDGE('',*,*,#760,.T.);
#762=EDGE_LOOP('',(#678,#683,#688,#693,#698,#703,#708,#713,#718,#723,#728,#733,#738,#743,#748,#753,#758,#761));
#763=ORIENTED_EDGE('',*,*,#35,.F.);
#764=ORIENTED_EDGE('',*,*,#132,.F.);
#765=CARTESIAN_POINT('',(0.766599442374,0.760739965397,-0.110000000000));
#766=VERTEX_POINT('',#765);
#767=CIRCLE('',#675,1.080000000000);
#768=EDGE_CURVE('',#766,#126,#767,.T.);
#769=ORIENTED_EDGE('',*,*,#768,.F.);
#770=CARTESIAN_POINT('',(0.861402446871,0.840289131505,-0.110000000000));
#771=VERTEX_POINT('',#770);
#772=CARTESIAN_POINT('',(-0.057850884872,0.068943999881,-0.110000000000));
#773=LINE('',#772,#464);
#774=EDGE_CURVE('',#766,#771,#773,.T.);
#775=ORIENTED_EDGE('',*,*,#774,.T.);
#776=CARTESIAN_POINT('',(0.977104216615,0.702401131743,-0.110000000000));
#777=VERTEX_POINT('',#776);
#778=CARTESIAN_POINT('',(0.919253331743,0.771345131624,-0.110000000000));
#779=LINE('',#778,#456);
#780=EDGE_CURVE('',#771,#777,#779,.T.);
#781=ORIENTED_EDGE('',*,*,#780,.T.);
#782=CARTESIAN_POINT('',(0.882301212118,0.622851965635,-0.110000000000));
#783=VERTEX_POINT('',#782);
#784=CARTESIAN_POINT('',(0.057850884872,-0.068943999881,-0.110000000000));
#785=LINE('',#784,#448);
#786=EDGE_CURVE('',#777,#783,#785,.T.);
#787=ORIENTED_EDGE('',*,*,#786,.T.);
#788=CARTESIAN_POINT('',(0.980556231096,0.452669280666,-0.110000000000));
#789=VERTEX_POINT('',#788);
#790=CIRCLE('',#675,1.080000000000);
#791=EDGE_CURVE('',#789,#783,#790,.T.);
#792=ORIENTED_EDGE('',*,*,#791,.F.);
#793=CARTESIAN_POINT('',(1.096849332044,0.494996507862,-0.110000000000));
#794=VERTEX_POINT('',#793);
#795=CARTESIAN_POINT('',(-0.030781812899,0.084572335871,-0.110000000000));
#796=LINE('',#795,#435);
#797=EDGE_CURVE('',#789,#794,#796,.T.);
#798=ORIENTED_EDGE('',*,*,#797,.T.);
#799=CARTESIAN_POINT('',(1.158412957842,0.325851836120,-0.110000000000));
#800=VERTEX_POINT('',#799);
#801=CARTESIAN_POINT('',(1.127631144943,0.410424171991,-0.110000000000));
#802=LINE('',#801,#427);
#803=EDGE_CURVE('',#794,#800,#802,.T.);
#804=ORIENTED_EDGE('',*,*,#803,.T.);
#805=CARTESIAN_POINT('',(1.042119856895,0.283524608925,-0.110000000000));
#806=VERTEX_POINT('',#805);
#807=CARTESIAN_POINT('',(0.030781812899,-0.084572335871,-0.110000000000));
#808=LINE('',#807,#419);
#809=EDGE_CURVE('',#800,#806,#808,.T.);
#810=ORIENTED_EDGE('',*,*,#809,.T.);
#811=CARTESIAN_POINT('',(1.076243466879,0.090000000000,-0.110000000000));
#812=VERTEX_POINT('',#811);
#813=CIRCLE('',#675,1.080000000000);
#814=EDGE_CURVE('',#812,#806,#813,.T.);
#815=ORIENTED_EDGE('',*,*,#814,.F.);
#816=CARTESIAN_POINT('',(1.200000000000,0.090000000000,-0.110000000000));
#817=VERTEX_POINT('',#816);
#818=CARTESIAN_POINT('',(0.000000000000,0.090000000000,-0.110000000000));
#819=LINE('',#818,#406);
#820=EDGE_CURVE('',#812,#817,#819,.T.);
#821=ORIENTED_EDGE('',*,*,#820,.T.);
#822=CARTESIAN_POINT('',(1.200000000000,-0.090000000000,-0.110000000000));
#823=VERTEX_POINT('',#822);
#824=CARTESIAN_POINT('',(1.200000000000,0.000000000000,-0.110000000000));
#825=LINE('',#824,#398);
#826=EDGE_CURVE('',#817,#823,#825,.T.);
#827=ORIENTED_EDGE('',*,*,#826,.T.);
#828=CARTESIAN_POINT('',(1.076243466879,-0.090000000000,-0.110000000000));
#829=VERTEX_POINT('',#828);
#830=CARTESIAN_POINT('',(0.000000000000,-0.090000000000,-0.110000000000));
#831=LINE('',#830,#390);
#832=EDGE_CURVE('',#823,#829,#831,.T.);
#833=ORIENTED_EDGE('',*,*,#832,.T.);
#834=CARTESIAN_POINT('',(1.042119856895,-0.283524608925,-0.110000000000));
#835=VERTEX_POINT('',#834);
#836=CIRCLE('',#675,1.080000000000);
#837=EDGE_CURVE('',#835,#829,#836,.T.);
#838=ORIENTED_EDGE('',*,*,#837,.F.);
#839=CARTESIAN_POINT('',(1.158412957842,-0.325851836120,-0.110000000000));
#840=VERTEX_POINT('',#839);
#841=CARTESIAN_POINT('',(0.030781812899,0.084572335871,-0.110000000000));
#842=LINE('',#841,#377);
#843=EDGE_CURVE('',#835,#840,#842,.T.);
#844=ORIENTED_EDGE('',*,*,#843,.T.);
#845=CARTESIAN_POINT('',(1.096849332044,-0.494996507862,-0.110000000000));
#846=VERTEX_POINT('',#845);
#847=CARTESIAN_POINT('',(1.127631144943,-0.410424171991,-0.110000000000));
#848=LINE('',#847,#369);
#849=EDGE_CURVE('',#840,#846,#848,.T.);
#850=ORIENTED_EDGE('',*,*,#849,.T.);
#851=CARTESIAN_POINT('',(0.980556231096,-0.452669280666,-0.110000000000));
#852=VERTEX_POINT('',#851);
#853=CARTESIAN_POINT('',(-0.030781812899,-0.084572335871,-0.110000000000));
#854=LINE('',#853,#361);
#855=EDGE_CURVE('',#846,#852,#854,.T.);
#856=ORIENTED_EDGE('',*,*,#855,.T.);
#857=CARTESIAN_POINT('',(0.882301212118,-0.622851965635,-0.110000000000));
#858=VERTEX_POINT('',#857);
#859=CIRCLE('',#675,1.080000000000);
#860=EDGE_CURVE('',#858,#852,#859,.T.);
#861=ORIENTED_EDGE('',*,*,#860,.F.);
#862=CARTESIAN_POINT('',(0.977104216615,-0.702401131743,-0.110000000000));
#863=VERTEX_POINT('',#862);
#864=CARTESIAN_POINT('',(0.057850884872,0.068943999881,-0.110000000000));
#865=LINE('',#864,#348);
#866=EDGE_CURVE('',#858,#863,#865,.T.);
#867=ORIENTED_EDGE('',*,*,#866,.T.);
#868=CARTESIAN_POINT('',(0.861402446871,-0.840289131505,-0.110000000000));
#869=VERTEX_POINT('',#868);
#870=CARTESIAN_POINT('',(0.919253331743,-0.771345131624,-0.110000000000));
#871=LINE('',#870,#340);
#872=EDGE_CURVE('',#863,#869,#871,.T.);
#873=ORIENTED_EDGE('',*,*,#872,.T.);
#874=CARTESIAN_POINT('',(0.766599442374,-0.760739965397,-0.110000000000));
#875=VERTEX_POINT('',#874);
#876=CARTESIAN_POINT('',(-0.057850884872,-0.068943999881,-0.110000000000));
#877=LINE('',#876,#332);
#878=EDGE_CURVE('',#869,#875,#877,.T.);
#879=ORIENTED_EDGE('',*,*,#878,.T.);
#880=CARTESIAN_POINT('',(0.616064019780,-0.887054182974,-0.110000000000));
#881=VERTEX_POINT('',#880);
#882=CIRCLE('',#675,1.080000000000);
#883=EDGE_CURVE('',#881,#875,#882,.T.);
#884=ORIENTED_EDGE('',*,*,#883,.F.);
#885=CARTESIAN_POINT('',(0.677942286341,-0.994230484541,-0.110000000000));
#886=VERTEX_POINT('',#885);
#887=CARTESIAN_POINT('',(0.077942286341,0.045000000000,-0.110000000000));
#888=LINE('',#887,#319);
#889=EDGE_CURVE('',#881,#886,#888,.T.);
#890=ORIENTED_EDGE('',*,*,#889,.T.);
#891=CARTESIAN_POINT('',(0.522057713659,-1.084230484541,-0.110000000000));
#892=VERTEX_POINT('',#891);
#893=CARTESIAN_POINT('',(0.600000000000,-1.039230484541,-0.110000000000));
#894=LINE('',#893,#311);
#895=EDGE_CURVE('',#886,#892,#894,.T.);
#896=ORIENTED_EDGE('',*,*,#895,.T.);
#897=CARTESIAN_POINT('',(0.460179447099,-0.977054182974,-0.110000000000));
#898=VERTEX_POINT('',#897);
#899=CARTESIAN_POINT('',(-0.077942286341,-0.045000000000,-0.110000000000));
#900=LINE('',#899,#303);
#901=EDGE_CURVE('',#892,#898,#900,.T.);
#902=ORIENTED_EDGE('',*,*,#901,.T.);
#903=CARTESIAN_POINT('',(0.275520414521,-1.044264574321,-0.110000000000));
#904=VERTEX_POINT('',#903);
#905=CIRCLE('',#675,1.080000000000);
#906=EDGE_CURVE('',#904,#898,#905,.T.);
#907=ORIENTED_EDGE('',*,*,#906,.F.);
#908=CARTESIAN_POINT('',(0.297010510971,-1.166140967625,-0.110000000000));
#909=VERTEX_POINT('',#908);
#910=CARTESIAN_POINT('',(0.088632697771,0.015628335990,-0.110000000000));
#911=LINE('',#910,#290);
#912=EDGE_CURVE('',#904,#909,#911,.T.);
#913=ORIENTED_EDGE('',*,*,#912,.T.);
#914=CARTESIAN_POINT('',(0.119745115429,-1.197397639605,-0.110000000000));
#915=VERTEX_POINT('',#914);
#916=CARTESIAN_POINT('',(0.208377813200,-1.181769303615,-0.110000000000));
#917=LINE('',#916,#282);
#918=EDGE_CURVE('',#909,#915,#917,.T.);
#919=ORIENTED_EDGE('',*,*,#918,.T.);
#920=CARTESIAN_POINT('',(0.098255018978,-1.075521246301,-0.110000000000));
#921=VERTEX_POINT('',#920);
#922=CARTESIAN_POINT('',(-0.088632697771,-0.015628335990,-0.110000000000));
#923=LINE('',#922,#274);
#924=EDGE_CURVE('',#915,#921,#923,.T.);
#925=ORIENTED_EDGE('',*,*,#924,.T.);
#926=CARTESIAN_POINT('',(-0.098255018978,-1.075521246301,-0.110000000000));
#927=VERTEX_POINT('',#926);
#928=CIRCLE('',#675,1.080000000000);
#929=EDGE_CURVE('',#927,#921,#928,.T.);
#930=ORIENTED_EDGE('',*,*,#929,.F.);
#931=CARTESIAN_POINT('',(-0.119745115429,-1.197397639605,-0.110000000000));
#932=VERTEX_POINT('',#931);
#933=CARTESIAN_POINT('',(0.088632697771,-0.015628335990,-0.110000000000));
#934=LINE('',#933,#261);
#935=EDGE_CURVE('',#927,#932,#934,.T.);
#936=ORIENTED_EDGE('',*,*,#935,.T.);
#937=CARTESIAN_POINT('',(-0.297010510971,-1.166140967625,-0.110000000000));
#938=VERTEX_POINT('',#937);
#939=CARTESIAN_POINT('',(-0.208377813200,-1.181769303615,-0.110000000000));
#940=LINE('',#939,#253);
#941=EDGE_CURVE('',#932,#938,#940,.T.);
#942=ORIENTED_EDGE('',*,*,#941,.T.);
#943=CARTESIAN_POINT('',(-0.275520414521,-1.044264574321,-0.110000000000));
#944=VERTEX_POINT('',#943);
#945=CARTESIAN_POINT('',(-0.088632697771,0.015628335990,-0.110000000000));
#946=LINE('',#945,#245);
#947=EDGE_CURVE('',#938,#944,#946,.T.);
#948=ORIENTED_EDGE('',*,*,#947,.T.);
#949=CIRCLE('',#675,1.080000000000);
#950=EDGE_CURVE('',#109,#944,#949,.T.);
#951=ORIENTED_EDGE('',*,*,#950,.F.);
#952=ORIENTED_EDGE('',*,*,#112,.F.);
#953=CARTESIAN_POINT('',(-0.600000000000,-1.039230484541,-0.110000000000));
#954=LINE('',#953,#33);
#955=EDGE_CURVE('',#103,#78,#954,.T.);
#956=ORIENTED_EDGE('',*,*,#955,.T.);
#957=ORIENTED_EDGE('',*,*,#80,.F.);
#958=CARTESIAN_POINT('',(-0.766599442374,-0.760739965397,-0.110000000000));
#959=VERTEX_POINT('',#958);
#960=CIRCLE('',#675,1.080000000000);
#961=EDGE_CURVE('',#959,#72,#960,.T.);
#962=ORIENTED_EDGE('',*,*,#961,.F.);
#963=CARTESIAN_POINT('',(-0.861402446871,-0.840289131505,-0.110000000000));
#964=VERTEX_POINT('',#963);
#965=LINE('',#784,#448);
#966=EDGE_CURVE('',#959,#964,#965,.T.);
#967=ORIENTED_EDGE('',*,*,#966,.T.);
#968=CARTESIAN_POINT('',(-0.977104216615,-0.702401131743,-0.110000000000));
#969=VERTEX_POINT('',#968);
#970=CARTESIAN_POINT('',(-0.919253331743,-0.771345131624,-0.110000000000));
#971=LINE('',#970,#651);
#972=EDGE_CURVE('',#964,#969,#971,.T.);
#973=ORIENTED_EDGE('',*,*,#972,.T.);
#974=CARTESIAN_POINT('',(-0.882301212118,-0.622851965635,-0.110000000000));
#975=VERTEX_POINT('',#974);
#976=LINE('',#772,#464);
#977=EDGE_CURVE('',#969,#975,#976,.T.);
#978=ORIENTED_EDGE('',*,*,#977,.T.);
#979=CARTESIAN_POINT('',(-0.980556231096,-0.452669280666,-0.110000000000));
#980=VERTEX_POINT('',#979);
#981=CIRCLE('',#675,1.080000000000);
#982=EDGE_CURVE('',#980,#975,#981,.T.);
#983=ORIENTED_EDGE('',*,*,#982,.F.);
#984=CARTESIAN_POINT('',(-1.096849332044,-0.494996507862,-0.110000000000));
#985=VERTEX_POINT('',#984);
#986=LINE('',#807,#419);
#987=EDGE_CURVE('',#980,#985,#986,.T.);
#988=ORIENTED_EDGE('',*,*,#987,.T.);
#989=CARTESIAN_POINT('',(-1.158412957842,-0.325851836120,-0.110000000000));
#990=VERTEX_POINT('',#989);
#991=CARTESIAN_POINT('',(-1.127631144943,-0.410424171991,-0.110000000000));
#992=LINE('',#991,#628);
#993=EDGE_CURVE('',#985,#990,#992,.T.);
#994=ORIENTED_EDGE('',*,*,#993,.T.);
#995=CARTESIAN_POINT('',(-1.042119856895,-0.283524608925,-0.110000000000));
#996=VERTEX_POINT('',#995);
#997=LINE('',#795,#435);
#998=EDGE_CURVE('',#990,#996,#997,.T.);
#999=ORIENTED_EDGE('',*,*,#998,.T.);
#1000=CARTESIAN_POINT('',(-1.076243466879,-0.090000000000,-0.110000000000));
#1001=VERTEX_POINT('',#1000);
#1002=CIRCLE('',#675,1.080000000000);
#1003=EDGE_CURVE('',#1001,#996,#1002,.T.);
#1004=ORIENTED_EDGE('',*,*,#1003,.F.);
#1005=CARTESIAN_POINT('',(-1.200000000000,-0.090000000000,-0.110000000000));
#1006=VERTEX_POINT('',#1005);
#1007=LINE('',#830,#390);
#1008=EDGE_CURVE('',#1001,#1006,#1007,.T.);
#1009=ORIENTED_EDGE('',*,*,#1008,.T.);
#1010=CARTESIAN_POINT('',(-1.200000000000,0.090000000000,-0.110000000000));
#1011=VERTEX_POINT('',#1010);
#1012=CARTESIAN_POINT('',(-1.200000000000,0.000000000000,-0.110000000000));
#1013=LINE('',#1012,#605);
#1014=EDGE_CURVE('',#1006,#1011,#1013,.T.);
#1015=ORIENTED_EDGE('',*,*,#1014,.T.);
#1016=CARTESIAN_POINT('',(-1.076243466879,0.090000000000,-0.110000000000));
#1017=VERTEX_POINT('',#1016);
#1018=LINE('',#818,#406);
#1019=EDGE_CURVE('',#1011,#1017,#1018,.T.);
#1020=ORIENTED_EDGE('',*,*,#1019,.T.);
#1021=CARTESIAN_POINT('',(-1.042119856895,0.283524608925,-0.110000000000));
#1022=VERTEX_POINT('',#1021);
#1023=CIRCLE('',#675,1.080000000000);
#1024=EDGE_CURVE('',#1022,#1017,#1023,.T.);
#1025=ORIENTED_EDGE('',*,*,#1024,.F.);
#1026=CARTESIAN_POINT('',(-1.158412957842,0.325851836120,-0.110000000000));
#1027=VERTEX_POINT('',#1026);
#1028=LINE('',#853,#361);
#1029=EDGE_CURVE('',#1022,#1027,#1028,.T.);
#1030=ORIENTED_EDGE('',*,*,#1029,.T.);
#1031=CARTESIAN_POINT('',(-1.096849332044,0.494996507862,-0.110000000000));
#1032=VERTEX_POINT('',#1031);
#1033=CARTESIAN_POINT('',(-1.127631144943,0.410424171991,-0.110000000000));
#1034=LINE('',#1033,#583);
#1035=EDGE_CURVE('',#1027,#1032,#1034,.T.);
#1036=ORIENTED_EDGE('',*,*,#1035,.T.);
#1037=CARTESIAN_POINT('',(-0.980556231096,0.452669280666,-0.110000000000));
#1038=VERTEX_POINT('',#1037);
#1039=LINE('',#841,#377);
#1040=EDGE_CURVE('',#1032,#1038,#1039,.T.);
#1041=ORIENTED_EDGE('',*,*,#1040,.T.);
#1042=CARTESIAN_POINT('',(-0.882301212118,0.622851965635,-0.110000000000));
#1043=VERTEX_POINT('',#1042);
#1044=CIRCLE('',#675,1.080000000000);
#1045=EDGE_CURVE('',#1043,#1038,#1044,.T.);
#1046=ORIENTED_EDGE('',*,*,#1045,.F.);
#1047=CARTESIAN_POINT('',(-0.977104216615,0.702401131743,-0.110000000000));
#1048=VERTEX_POINT('',#1047);
#1049=LINE('',#876,#332);
#1050=EDGE_CURVE('',#1043,#1048,#1049,.T.);
#1051=ORIENTED_EDGE('',*,*,#1050,.T.);
#1052=CARTESIAN_POINT('',(-0.861402446871,0.840289131505,-0.110000000000));
#1053=VERTEX_POINT('',#1052);
#1054=CARTESIAN_POINT('',(-0.919253331743,0.771345131624,-0.110000000000));
#1055=LINE('',#1054,#560);
#1056=EDGE_CURVE('',#1048,#1053,#1055,.T.);
#1057=ORIENTED_EDGE('',*,*,#1056,.T.);
#1058=CARTESIAN_POINT('',(-0.766599442374,0.760739965397,-0.110000000000));
#1059=VERTEX_POINT('',#1058);
#1060=LINE('',#864,#348);
#1061=EDGE_CURVE('',#1053,#1059,#1060,.T.);
#1062=ORIENTED_EDGE('',*,*,#1061,.T.);
#1063=CARTESIAN_POINT('',(-0.616064019780,0.887054182974,-0.110000000000));
#1064=VERTEX_POINT('',#1063);
#1065=CIRCLE('',#675,1.080000000000);
#1066=EDGE_CURVE('',#1064,#1059,#1065,.T.);
#1067=ORIENTED_EDGE('',*,*,#1066,.F.);
#1068=CARTESIAN_POINT('',(-0.677942286341,0.994230484541,-0.110000000000));
#1069=VERTEX_POINT('',#1068);
#1070=LINE('',#899,#303);
#1071=EDGE_CURVE('',#1064,#1069,#1070,.T.);
#1072=ORIENTED_EDGE('',*,*,#1071,.T.);
#1073=CARTESIAN_POINT('',(-0.522057713659,1.084230484541,-0.110000000000));
#1074=VERTEX_POINT('',#1073);
#1075=CARTESIAN_POINT('',(-0.600000000000,1.039230484541,-0.110000000000));
#1076=LINE('',#1075,#537);
#1077=EDGE_CURVE('',#1069,#1074,#1076,.T.);
#1078=ORIENTED_EDGE('',*,*,#1077,.T.);
#1079=CARTESIAN_POINT('',(-0.460179447099,0.977054182974,-0.110000000000));
#1080=VERTEX_POINT('',#1079);
#1081=LINE('',#887,#319);
#1082=EDGE_CURVE('',#1074,#1080,#1081,.T.);
#1083=ORIENTED_EDGE('',*,*,#1082,.T.);
#1084=CARTESIAN_POINT('',(-0.275520414521,1.044264574321,-0.110000000000));
#1085=VERTEX_POINT('',#1084);
#1086=CIRCLE('',#675,1.080000000000);
#1087=EDGE_CURVE('',#1085,#1080,#1086,.T.);
#1088=ORIENTED_EDGE('',*,*,#1087,.F.);
#1089=CARTESIAN_POINT('',(-0.297010510971,1.166140967625,-0.110000000000));
#1090=VERTEX_POINT('',#1089);
#1091=LINE('',#922,#274);
#1092=EDGE_CURVE('',#1085,#1090,#1091,.T.);
#1093=ORIENTED_EDGE('',*,*,#1092,.T.);
#1094=CARTESIAN_POINT('',(-0.119745115429,1.197397639605,-0.110000000000));
#1095=VERTEX_POINT('',#1094);
#1096=CARTESIAN_POINT('',(-0.208377813200,1.181769303615,-0.110000000000));
#1097=LINE('',#1096,#514);
#1098=EDGE_CURVE('',#1090,#1095,#1097,.T.);
#1099=ORIENTED_EDGE('',*,*,#1098,.T.);
#1100=CARTESIAN_POINT('',(-0.098255018978,1.075521246301,-0.110000000000));
#1101=VERTEX_POINT('',#1100);
#1102=LINE('',#910,#290);
#1103=EDGE_CURVE('',#1095,#1101,#1102,.T.);
#1104=ORIENTED_EDGE('',*,*,#1103,.T.);
#1105=CARTESIAN_POINT('',(0.098255018978,1.075521246301,-0.110000000000));
#1106=VERTEX_POINT('',#1105);
#1107=CIRCLE('',#675,1.080000000000);
#1108=EDGE_CURVE('',#1106,#1101,#1107,.T.);
#1109=ORIENTED_EDGE('',*,*,#1108,.F.);
#1110=CARTESIAN_POINT('',(0.119745115429,1.197397639605,-0.110000000000));
#1111=VERTEX_POINT('',#1110);
#1112=LINE('',#945,#245);
#1113=EDGE_CURVE('',#1106,#1111,#1112,.T.);
#1114=ORIENTED_EDGE('',*,*,#1113,.T.);
#1115=CARTESIAN_POINT('',(0.297010510971,1.166140967625,-0.110000000000));
#1116=VERTEX_POINT('',#1115);
#1117=CARTESIAN_POINT('',(0.208377813200,1.181769303615,-0.110000000000));
#1118=LINE('',#1117,#491);
#1119=EDGE_CURVE('',#1111,#1116,#1118,.T.);
#1120=ORIENTED_EDGE('',*,*,#1119,.T.);
#1121=CARTESIAN_POINT('',(0.275520414521,1.044264574321,-0.110000000000));
#1122=VERTEX_POINT('',#1121);
#1123=LINE('',#933,#261);
#1124=EDGE_CURVE('',#1116,#1122,#1123,.T.);
#1125=ORIENTED_EDGE('',*,*,#1124,.T.);
#1126=CIRCLE('',#675,1.080000000000);
#1127=EDGE_CURVE('',#45,#1122,#1126,.T.);
#1128=ORIENTED_EDGE('',*,*,#1127,.F.);
#1129=ORIENTED_EDGE('',*,*,#50,.F.);
#1130=EDGE_LOOP('',(#763,#764,#769,#775,#781,#787,#792,#798,#804,#810,#815,#821,#827,#833,#838,#844,#850,#856,#861,#867,#873,#879,#884,#890,#896,#902,#907,#913,#919,#925,#930,#936,#942,#948,#951,#952,#956,#957,#962,#967,#973,#978,#983,#988,#994,#999,#1004,#1009,#1015,#1020,#1025,#1030,#1036,#1041,#1046,#1051,#1057,#1062,#1067,#1072,#1078,#1083,#1088,#1093,#1099,#1104,#1109,#1114,#1120,#1125,#1128,#1129));
#1131=FACE_BOUND('',#762,.T.);
#1132=FACE_OUTER_BOUND('',#1130,.T.);
#1133=ADVANCED_FACE('',(#1131,#1132),#670,.T.);
#1134=CARTESIAN_POINT('',(-0.208377813200,1.181769303615,0.000000000000));
#1135=AXIS2_PLACEMENT_3D('',#1134,#273,#513);
#1136=PLANE('',#1135);
#1137=ORIENTED_EDGE('',*,*,#284,.F.);
#1138=CARTESIAN_POINT('',(-0.119745115429,1.197397639605,0.000000000000));
#1139=LINE('',#1138,#27);
#1140=EDGE_CURVE('',#271,#1095,#1139,.T.);
#1141=ORIENTED_EDGE('',*,*,#1140,.T.);
#1142=ORIENTED_EDGE('',*,*,#1098,.F.);
#1143=CARTESIAN_POINT('',(-0.297010510971,1.166140967625,0.000000000000));
#1144=LINE('',#1143,#12);
#1145=EDGE_CURVE('',#1090,#279,#1144,.T.);
#1146=ORIENTED_EDGE('',*,*,#1145,.T.);
#1147=EDGE_LOOP('',(#1137,#1141,#1142,#1146));
#1148=FACE_OUTER_BOUND('',#1147,.T.);
#1149=ADVANCED_FACE('',(#1148),#1136,.T.);
#1150=CARTESIAN_POINT('',(-0.088632697771,-0.015628335990,0.000000000000));
#1151=AXIS2_PLACEMENT_3D('',#1150,#281,#273);
#1152=PLANE('',#1151);
#1153=ORIENTED_EDGE('',*,*,#508,.F.);
#1154=CARTESIAN_POINT('',(0.098255018978,-1.075521246301,0.000000000000));
#1155=LINE('',#1154,#12);
#1156=EDGE_CURVE('',#921,#501,#1155,.T.);
#1157=ORIENTED_EDGE('',*,*,#1156,.F.);
#1158=ORIENTED_EDGE('',*,*,#924,.F.);
#1159=CARTESIAN_POINT('',(0.119745115429,-1.197397639605,0.000000000000));
#1160=LINE('',#1159,#12);
#1161=EDGE_CURVE('',#915,#506,#1160,.T.);
#1162=ORIENTED_EDGE('',*,*,#1161,.T.);
#1163=EDGE_LOOP('',(#1153,#1157,#1158,#1162));
#1164=ORIENTED_EDGE('',*,*,#292,.F.);
#1165=ORIENTED_EDGE('',*,*,#1145,.F.);
#1166=ORIENTED_EDGE('',*,*,#1092,.F.);
#1167=CARTESIAN_POINT('',(-0.275520414521,1.044264574321,0.000000000000));
#1168=LINE('',#1167,#12);
#1169=EDGE_CURVE('',#1085,#287,#1168,.T.);
#1170=ORIENTED_EDGE('',*,*,#1169,.T.);
#1171=EDGE_LOOP('',(#1164,#1165,#1166,#1170));
#1172=FACE_OUTER_BOUND('',#1163,.T.);
#1173=ADVANCED_FACE('',(#1172),#1152,.T.);
#1174=FACE_OUTER_BOUND('',#1171,.T.);
#1175=ADVANCED_FACE('',(#1174),#1152,.T.);
#1176=CARTESIAN_POINT('',(0.088632697771,0.015628335990,0.000000000000));
#1177=AXIS2_PLACEMENT_3D('',#1176,#513,#289);
#1178=PLANE('',#1177);
#1179=ORIENTED_EDGE('',*,*,#276,.F.);
#1180=CARTESIAN_POINT('',(-0.098255018978,1.075521246301,0.000000000000));
#1181=LINE('',#1180,#12);
#1182=EDGE_CURVE('',#1101,#266,#1181,.T.);
#1183=ORIENTED_EDGE('',*,*,#1182,.F.);
#1184=ORIENTED_EDGE('',*,*,#1103,.F.);
#1185=ORIENTED_EDGE('',*,*,#1140,.F.);
#1186=EDGE_LOOP('',(#1179,#1183,#1184,#1185));
#1187=ORIENTED_EDGE('',*,*,#521,.F.);
#1188=CARTESIAN_POINT('',(0.297010510971,-1.166140967625,0.000000000000));
#1189=LINE('',#1188,#27);
#1190=EDGE_CURVE('',#511,#909,#1189,.T.);
#1191=ORIENTED_EDGE('',*,*,#1190,.T.);
#1192=ORIENTED_EDGE('',*,*,#912,.F.);
#1193=CARTESIAN_POINT('',(0.275520414521,-1.044264574321,0.000000000000));
#1194=LINE('',#1193,#12);
#1195=EDGE_CURVE('',#904,#519,#1194,.T.);
#1196=ORIENTED_EDGE('',*,*,#1195,.T.);
#1197=EDGE_LOOP('',(#1187,#1191,#1192,#1196));
#1198=FACE_OUTER_BOUND('',#1186,.T.);
#1199=ADVANCED_FACE('',(#1198),#1178,.T.);
#1200=FACE_OUTER_BOUND('',#1197,.T.);
#1201=ADVANCED_FACE('',(#1200),#1178,.T.);
#1202=CARTESIAN_POINT('',(1.200000000000,0.000000000000,0.000000000000));
#1203=AXIS2_PLACEMENT_3D('',#1202,#405,#11);
#1204=PLANE('',#1203);
#1205=ORIENTED_EDGE('',*,*,#607,.F.);
#1206=CARTESIAN_POINT('',(1.200000000000,-0.090000000000,0.000000000000));
#1207=LINE('',#1206,#27);
#1208=EDGE_CURVE('',#598,#823,#1207,.T.);
#1209=ORIENTED_EDGE('',*,*,#1208,.T.);
#1210=ORIENTED_EDGE('',*,*,#826,.F.);
#1211=CARTESIAN_POINT('',(1.200000000000,0.090000000000,0.000000000000));
#1212=LINE('',#1211,#12);
#1213=EDGE_CURVE('',#817,#603,#1212,.T.);
#1214=ORIENTED_EDGE('',*,*,#1213,.T.);
#1215=EDGE_LOOP('',(#1205,#1209,#1210,#1214));
#1216=FACE_OUTER_BOUND('',#1215,.T.);
#1217=ADVANCED_FACE('',(#1216),#1204,.T.);
#1218=CARTESIAN_POINT('',(0.000000000000,0.090000000000,0.000000000000));
#1219=AXIS2_PLACEMENT_3D('',#1218,#140,#26);
#1220=PLANE('',#1219);
#1221=ORIENTED_EDGE('',*,*,#612,.F.);
#1222=ORIENTED_EDGE('',*,*,#1213,.F.);
#1223=ORIENTED_EDGE('',*,*,#820,.F.);
#1224=CARTESIAN_POINT('',(1.076243466879,0.090000000000,0.000000000000));
#1225=LINE('',#1224,#12);
#1226=EDGE_CURVE('',#812,#610,#1225,.T.);
#1227=ORIENTED_EDGE('',*,*,#1226,.T.);
#1228=EDGE_LOOP('',(#1221,#1222,#1223,#1227));
#1229=ORIENTED_EDGE('',*,*,#392,.F.);
#1230=CARTESIAN_POINT('',(-1.076243466879,0.090000000000,0.000000000000));
#1231=LINE('',#1230,#12);
#1232=EDGE_CURVE('',#1017,#382,#1231,.T.);
#1233=ORIENTED_EDGE('',*,*,#1232,.F.);
#1234=ORIENTED_EDGE('',*,*,#1019,.F.);
#1235=CARTESIAN_POINT('',(-1.200000000000,0.090000000000,0.000000000000));
#1236=LINE('',#1235,#12);
#1237=EDGE_CURVE('',#1011,#387,#1236,.T.);
#1238=ORIENTED_EDGE('',*,*,#1237,.T.);
#1239=EDGE_LOOP('',(#1229,#1233,#1234,#1238));
#1240=FACE_OUTER_BOUND('',#1228,.T.);
#1241=ADVANCED_FACE('',(#1240),#1220,.T.);
#1242=FACE_OUTER_BOUND('',#1239,.T.);
#1243=ADVANCED_FACE('',(#1242),#1220,.T.);
#1244=CARTESIAN_POINT('',(0.000000000000,-0.090000000000,0.000000000000));
#1245=AXIS2_PLACEMENT_3D('',#1244,#397,#11);
#1246=PLANE('',#1245);
#1247=ORIENTED_EDGE('',*,*,#600,.F.);
#1248=CARTESIAN_POINT('',(1.076243466879,-0.090000000000,0.000000000000));
#1249=LINE('',#1248,#12);
#1250=EDGE_CURVE('',#829,#593,#1249,.T.);
#1251=ORIENTED_EDGE('',*,*,#1250,.F.);
#1252=ORIENTED_EDGE('',*,*,#832,.F.);
#1253=ORIENTED_EDGE('',*,*,#1208,.F.);
#1254=EDGE_LOOP('',(#1247,#1251,#1252,#1253));
#1255=ORIENTED_EDGE('',*,*,#408,.F.);
#1256=CARTESIAN_POINT('',(-1.200000000000,-0.090000000000,0.000000000000));
#1257=LINE('',#1256,#27);
#1258=EDGE_CURVE('',#395,#1006,#1257,.T.);
#1259=ORIENTED_EDGE('',*,*,#1258,.T.);
#1260=ORIENTED_EDGE('',*,*,#1008,.F.);
#1261=CARTESIAN_POINT('',(-1.076243466879,-0.090000000000,0.000000000000));
#1262=LINE('',#1261,#12);
#1263=EDGE_CURVE('',#1001,#403,#1262,.T.);
#1264=ORIENTED_EDGE('',*,*,#1263,.T.);
#1265=EDGE_LOOP('',(#1255,#1259,#1260,#1264));
#1266=FACE_OUTER_BOUND('',#1254,.T.);
#1267=ADVANCED_FACE('',(#1266),#1246,.T.);
#1268=FACE_OUTER_BOUND('',#1265,.T.);
#1269=ADVANCED_FACE('',(#1268),#1246,.T.);
#1270=CARTESIAN_POINT('',(-0.919253331743,-0.771345131624,0.000000000000));
#1271=AXIS2_PLACEMENT_3D('',#1270,#447,#650);
#1272=PLANE('',#1271);
#1273=ORIENTED_EDGE('',*,*,#458,.F.);
#1274=CARTESIAN_POINT('',(-0.977104216615,-0.702401131743,0.000000000000));
#1275=LINE('',#1274,#27);
#1276=EDGE_CURVE('',#445,#969,#1275,.T.);
#1277=ORIENTED_EDGE('',*,*,#1276,.T.);
#1278=ORIENTED_EDGE('',*,*,#972,.F.);
#1279=CARTESIAN_POINT('',(-0.861402446871,-0.840289131505,0.000000000000));
#1280=LINE('',#1279,#12);
#1281=EDGE_CURVE('',#964,#453,#1280,.T.);
#1282=ORIENTED_EDGE('',*,*,#1281,.T.);
#1283=EDGE_LOOP('',(#1273,#1277,#1278,#1282));
#1284=FACE_OUTER_BOUND('',#1283,.T.);
#1285=ADVANCED_FACE('',(#1284),#1272,.T.);
#1286=CARTESIAN_POINT('',(0.057850884872,-0.068943999881,0.000000000000));
#1287=AXIS2_PLACEMENT_3D('',#1286,#455,#447);
#1288=PLANE('',#1287);
#1289=ORIENTED_EDGE('',*,*,#645,.F.);
#1290=CARTESIAN_POINT('',(0.882301212118,0.622851965635,0.000000000000));
#1291=LINE('',#1290,#12);
#1292=EDGE_CURVE('',#783,#638,#1291,.T.);
#1293=ORIENTED_EDGE('',*,*,#1292,.F.);
#1294=ORIENTED_EDGE('',*,*,#786,.F.);
#1295=CARTESIAN_POINT('',(0.977104216615,0.702401131743,0.000000000000));
#1296=LINE('',#1295,#12);
#1297=EDGE_CURVE('',#777,#643,#1296,.T.);
#1298=ORIENTED_EDGE('',*,*,#1297,.T.);
#1299=EDGE_LOOP('',(#1289,#1293,#1294,#1298));
#1300=ORIENTED_EDGE('',*,*,#466,.F.);
#1301=ORIENTED_EDGE('',*,*,#1281,.F.);
#1302=ORIENTED_EDGE('',*,*,#966,.F.);
#1303=CARTESIAN_POINT('',(-0.766599442374,-0.760739965397,0.000000000000));
#1304=LINE('',#1303,#12);
#1305=EDGE_CURVE('',#959,#461,#1304,.T.);
#1306=ORIENTED_EDGE('',*,*,#1305,.T.);
#1307=EDGE_LOOP('',(#1300,#1301,#1302,#1306));
#1308=FACE_OUTER_BOUND('',#1299,.T.);
#1309=ADVANCED_FACE('',(#1308),#1288,.T.);
#1310=FACE_OUTER_BOUND('',#1307,.T.);
#1311=ADVANCED_FACE('',(#1310),#1288,.T.);
#1312=CARTESIAN_POINT('',(-0.057850884872,0.068943999881,0.000000000000));
#1313=AXIS2_PLACEMENT_3D('',#1312,#650,#463);
#1314=PLANE('',#1313);
#1315=ORIENTED_EDGE('',*,*,#450,.F.);
#1316=CARTESIAN_POINT('',(-0.882301212118,-0.622851965635,0.000000000000));
#1317=LINE('',#1316,#12);
#1318=EDGE_CURVE('',#975,#440,#1317,.T.);
#1319=ORIENTED_EDGE('',*,*,#1318,.F.);
#1320=ORIENTED_EDGE('',*,*,#977,.F.);
#1321=ORIENTED_EDGE('',*,*,#1276,.F.);
#1322=EDGE_LOOP('',(#1315,#1319,#1320,#1321));
#1323=ORIENTED_EDGE('',*,*,#658,.F.);
#1324=CARTESIAN_POINT('',(0.861402446871,0.840289131505,0.000000000000));
#1325=LINE('',#1324,#27);
#1326=EDGE_CURVE('',#648,#771,#1325,.T.);
#1327=ORIENTED_EDGE('',*,*,#1326,.T.);
#1328=ORIENTED_EDGE('',*,*,#774,.F.);
#1329=CARTESIAN_POINT('',(0.766599442374,0.760739965397,0.000000000000));
#1330=LINE('',#1329,#12);
#1331=EDGE_CURVE('',#766,#656,#1330,.T.);
#1332=ORIENTED_EDGE('',*,*,#1331,.T.);
#1333=EDGE_LOOP('',(#1323,#1327,#1328,#1332));
#1334=FACE_OUTER_BOUND('',#1322,.T.);
#1335=ADVANCED_FACE('',(#1334),#1314,.T.);
#1336=FACE_OUTER_BOUND('',#1333,.T.);
#1337=ADVANCED_FACE('',(#1336),#1314,.T.);
#1338=CARTESIAN_POINT('',(0.208377813200,-1.181769303615,0.000000000000));
#1339=AXIS2_PLACEMENT_3D('',#1338,#289,#281);
#1340=PLANE('',#1339);
#1341=ORIENTED_EDGE('',*,*,#516,.F.);
#1342=ORIENTED_EDGE('',*,*,#1161,.F.);
#1343=ORIENTED_EDGE('',*,*,#918,.F.);
#1344=ORIENTED_EDGE('',*,*,#1190,.F.);
#1345=EDGE_LOOP('',(#1341,#1342,#1343,#1344));
#1346=FACE_OUTER_BOUND('',#1345,.T.);
#1347=ADVANCED_FACE('',(#1346),#1340,.T.);
#1348=CARTESIAN_POINT('',(0.000000000000,0.000000000000,0.000000000000));
#1349=AXIS2_PLACEMENT_3D('',#1348,#11,#140);
#1350=CYLINDRICAL_SURFACE('',#1349,1.080000000000);
#1351=ORIENTED_EDGE('',*,*,#297,.F.);
#1352=ORIENTED_EDGE('',*,*,#1169,.F.);
#1353=ORIENTED_EDGE('',*,*,#1087,.T.);
#1354=CARTESIAN_POINT('',(-0.460179447099,0.977054182974,0.000000000000));
#1355=LINE('',#1354,#12);
#1356=EDGE_CURVE('',#1080,#295,#1355,.T.);
#1357=ORIENTED_EDGE('',*,*,#1356,.T.);
#1358=EDGE_LOOP('',(#1351,#1352,#1353,#1357));
#1359=ORIENTED_EDGE('',*,*,#503,.F.);
#1360=CARTESIAN_POINT('',(-0.098255018978,-1.075521246301,0.000000000000));
#1361=LINE('',#1360,#12);
#1362=EDGE_CURVE('',#927,#496,#1361,.T.);
#1363=ORIENTED_EDGE('',*,*,#1362,.F.);
#1364=ORIENTED_EDGE('',*,*,#929,.T.);
#1365=ORIENTED_EDGE('',*,*,#1156,.T.);
#1366=EDGE_LOOP('',(#1359,#1363,#1364,#1365));
#1367=ORIENTED_EDGE('',*,*,#442,.F.);
#1368=CARTESIAN_POINT('',(-0.980556231096,-0.452669280666,0.000000000000));
#1369=LINE('',#1368,#12);
#1370=EDGE_CURVE('',#980,#432,#1369,.T.);
#1371=ORIENTED_EDGE('',*,*,#1370,.F.);
#1372=ORIENTED_EDGE('',*,*,#982,.T.);
#1373=ORIENTED_EDGE('',*,*,#1318,.T.);
#1374=EDGE_LOOP('',(#1367,#1371,#1372,#1373));
#1375=ORIENTED_EDGE('',*,*,#549,.F.);
#1376=CARTESIAN_POINT('',(0.616064019780,-0.887054182974,0.000000000000));
#1377=LINE('',#1376,#12);
#1378=EDGE_CURVE('',#881,#542,#1377,.T.);
#1379=ORIENTED_EDGE('',*,*,#1378,.F.);
#1380=ORIENTED_EDGE('',*,*,#883,.T.);
#1381=CARTESIAN_POINT('',(0.766599442374,-0.760739965397,0.000000000000));
#1382=LINE('',#1381,#12);
#1383=EDGE_CURVE('',#875,#547,#1382,.T.);
#1384=ORIENTED_EDGE('',*,*,#1383,.T.);
#1385=EDGE_LOOP('',(#1375,#1379,#1380,#1384));
#1386=ORIENTED_EDGE('',*,*,#355,.F.);
#1387=CARTESIAN_POINT('',(-0.882301212118,0.622851965635,0.000000000000));
#1388=LINE('',#1387,#12);
#1389=EDGE_CURVE('',#1043,#345,#1388,.T.);
#1390=ORIENTED_EDGE('',*,*,#1389,.F.);
#1391=ORIENTED_EDGE('',*,*,#1045,.T.);
#1392=CARTESIAN_POINT('',(-0.980556231096,0.452669280666,0.000000000000));
#1393=LINE('',#1392,#12);
#1394=EDGE_CURVE('',#1038,#353,#1393,.T.);
#1395=ORIENTED_EDGE('',*,*,#1394,.T.);
#1396=EDGE_LOOP('',(#1386,#1390,#1391,#1395));
#1397=ORIENTED_EDGE('',*,*,#640,.F.);
#1398=CARTESIAN_POINT('',(0.980556231096,0.452669280666,0.000000000000));
#1399=LINE('',#1398,#12);
#1400=EDGE_CURVE('',#789,#633,#1399,.T.);
#1401=ORIENTED_EDGE('',*,*,#1400,.F.);
#1402=ORIENTED_EDGE('',*,*,#791,.T.);
#1403=ORIENTED_EDGE('',*,*,#1292,.T.);
#1404=EDGE_LOOP('',(#1397,#1401,#1402,#1403));
#1405=ORIENTED_EDGE('',*,*,#572,.F.);
#1406=CARTESIAN_POINT('',(0.882301212118,-0.622851965635,0.000000000000));
#1407=LINE('',#1406,#12);
#1408=EDGE_CURVE('',#858,#565,#1407,.T.);
#1409=ORIENTED_EDGE('',*,*,#1408,.F.);
#1410=ORIENTED_EDGE('',*,*,#860,.T.);
#1411=CARTESIAN_POINT('',(0.980556231096,-0.452669280666,0.000000000000));
#1412=LINE('',#1411,#12);
#1413=EDGE_CURVE('',#852,#570,#1412,.T.);
#1414=ORIENTED_EDGE('',*,*,#1413,.T.);
#1415=EDGE_LOOP('',(#1405,#1409,#1410,#1414));
#1416=ORIENTED_EDGE('',*,*,#116,.F.);
#1417=ORIENTED_EDGE('',*,*,#950,.T.);
#1418=CARTESIAN_POINT('',(-0.275520414521,-1.044264574321,0.000000000000));
#1419=LINE('',#1418,#12);
#1420=EDGE_CURVE('',#944,#478,#1419,.T.);
#1421=ORIENTED_EDGE('',*,*,#1420,.T.);
#1422=ORIENTED_EDGE('',*,*,#480,.F.);
#1423=EDGE_LOOP('',(#1416,#1417,#1421,#1422));
#1424=ORIENTED_EDGE('',*,*,#617,.F.);
#1425=ORIENTED_EDGE('',*,*,#1226,.F.);
#1426=ORIENTED_EDGE('',*,*,#814,.T.);
#1427=CARTESIAN_POINT('',(1.042119856895,0.283524608925,0.000000000000));
#1428=LINE('',#1427,#12);
#1429=EDGE_CURVE('',#806,#615,#1428,.T.);
#1430=ORIENTED_EDGE('',*,*,#1429,.T.);
#1431=EDGE_LOOP('',(#1424,#1425,#1426,#1430));
#1432=ORIENTED_EDGE('',*,*,#526,.F.);
#1433=ORIENTED_EDGE('',*,*,#1195,.F.);
#1434=ORIENTED_EDGE('',*,*,#906,.T.);
#1435=CARTESIAN_POINT('',(0.460179447099,-0.977054182974,0.000000000000));
#1436=LINE('',#1435,#12);
#1437=EDGE_CURVE('',#898,#524,#1436,.T.);
#1438=ORIENTED_EDGE('',*,*,#1437,.T.);
#1439=EDGE_LOOP('',(#1432,#1433,#1434,#1438));
#1440=ORIENTED_EDGE('',*,*,#75,.T.);
#1441=ORIENTED_EDGE('',*,*,#469,.F.);
#1442=ORIENTED_EDGE('',*,*,#1305,.F.);
#1443=ORIENTED_EDGE('',*,*,#961,.T.);
#1444=EDGE_LOOP('',(#1440,#1441,#1442,#1443));
#1445=ORIENTED_EDGE('',*,*,#326,.F.);
#1446=CARTESIAN_POINT('',(-0.616064019780,0.887054182974,0.000000000000));
#1447=LINE('',#1446,#12);
#1448=EDGE_CURVE('',#1064,#316,#1447,.T.);
#1449=ORIENTED_EDGE('',*,*,#1448,.F.);
#1450=ORIENTED_EDGE('',*,*,#1066,.T.);
#1451=CARTESIAN_POINT('',(-0.766599442374,0.760739965397,0.000000000000));
#1452=LINE('',#1451,#12);
#1453=EDGE_CURVE('',#1059,#324,#1452,.T.);
#1454=ORIENTED_EDGE('',*,*,#1453,.T.);
#1455=EDGE_LOOP('',(#1445,#1449,#1450,#1454));
#1456=ORIENTED_EDGE('',*,*,#595,.F.);
#1457=CARTESIAN_POINT('',(1.042119856895,-0.283524608925,0.000000000000));
#1458=LINE('',#1457,#12);
#1459=EDGE_CURVE('',#835,#588,#1458,.T.);
#1460=ORIENTED_EDGE('',*,*,#1459,.F.);
#1461=ORIENTED_EDGE('',*,*,#837,.T.);
#1462=ORIENTED_EDGE('',*,*,#1250,.T.);
#1463=EDGE_LOOP('',(#1456,#1460,#1461,#1462));
#1464=ORIENTED_EDGE('',*,*,#129,.T.);
#1465=ORIENTED_EDGE('',*,*,#661,.F.);
#1466=ORIENTED_EDGE('',*,*,#1331,.F.);
#1467=ORIENTED_EDGE('',*,*,#768,.T.);
#1468=EDGE_LOOP('',(#1464,#1465,#1466,#1467));
#1469=ORIENTED_EDGE('',*,*,#56,.F.);
#1470=ORIENTED_EDGE('',*,*,#1127,.T.);
#1471=CARTESIAN_POINT('',(0.275520414521,1.044264574321,0.000000000000));
#1472=LINE('',#1471,#12);
#1473=EDGE_CURVE('',#1122,#237,#1472,.T.);
#1474=ORIENTED_EDGE('',*,*,#1473,.T.);
#1475=ORIENTED_EDGE('',*,*,#239,.F.);
#1476=EDGE_LOOP('',(#1469,#1470,#1474,#1475));
#1477=ORIENTED_EDGE('',*,*,#384,.F.);
#1478=CARTESIAN_POINT('',(-1.042119856895,0.283524608925,0.000000000000));
#1479=LINE('',#1478,#12);
#1480=EDGE_CURVE('',#1022,#374,#1479,.T.);
#1481=ORIENTED_EDGE('',*,*,#1480,.F.);
#1482=ORIENTED_EDGE('',*,*,#1024,.T.);
#1483=ORIENTED_EDGE('',*,*,#1232,.T.);
#1484=EDGE_LOOP('',(#1477,#1481,#1482,#1483));
#1485=ORIENTED_EDGE('',*,*,#413,.F.);
#1486=ORIENTED_EDGE('',*,*,#1263,.F.);
#1487=ORIENTED_EDGE('',*,*,#1003,.T.);
#1488=CARTESIAN_POINT('',(-1.042119856895,-0.283524608925,0.000000000000));
#1489=LINE('',#1488,#12);
#1490=EDGE_CURVE('',#996,#411,#1489,.T.);
#1491=ORIENTED_EDGE('',*,*,#1490,.T.);
#1492=EDGE_LOOP('',(#1485,#1486,#1487,#1491));
#1493=ORIENTED_EDGE('',*,*,#268,.F.);
#1494=CARTESIAN_POINT('',(0.098255018978,1.075521246301,0.000000000000));
#1495=LINE('',#1494,#12);
#1496=EDGE_CURVE('',#1106,#258,#1495,.T.);
#1497=ORIENTED_EDGE('',*,*,#1496,.F.);
#1498=ORIENTED_EDGE('',*,*,#1108,.T.);
#1499=ORIENTED_EDGE('',*,*,#1182,.T.);
#1500=EDGE_LOOP('',(#1493,#1497,#1498,#1499));
#1501=FACE_BOUND('',#1358,.T.);
#1502=FACE_BOUND('',#1366,.T.);
#1503=FACE_BOUND('',#1374,.T.);
#1504=FACE_BOUND('',#1385,.T.);
#1505=FACE_BOUND('',#1396,.T.);
#1506=FACE_BOUND('',#1404,.T.);
#1507=FACE_BOUND('',#1415,.T.);
#1508=FACE_BOUND('',#1423,.T.);
#1509=FACE_BOUND('',#1431,.T.);
#1510=FACE_BOUND('',#1439,.T.);
#1511=FACE_BOUND('',#1444,.T.);
#1512=FACE_BOUND('',#1455,.T.);
#1513=FACE_BOUND('',#1463,.T.);
#1514=FACE_BOUND('',#1468,.T.);
#1515=FACE_BOUND('',#1476,.T.);
#1516=FACE_BOUND('',#1484,.T.);
#1517=FACE_BOUND('',#1492,.T.);
#1518=FACE_BOUND('',#1500,.T.);
#1519=ADVANCED_FACE('',(#1501,#1502,#1503,#1504,#1505,#1506,#1507,#1508,#1509,#1510,#1511,#1512,#1513,#1514,#1515,#1516,#1517,#1518),#1350,.T.);
#1520=CARTESIAN_POINT('',(-0.919253331743,0.771345131624,0.000000000000));
#1521=AXIS2_PLACEMENT_3D('',#1520,#331,#559);
#1522=PLANE('',#1521);
#1523=ORIENTED_EDGE('',*,*,#342,.F.);
#1524=CARTESIAN_POINT('',(-0.861402446871,0.840289131505,0.000000000000));
#1525=LINE('',#1524,#27);
#1526=EDGE_CURVE('',#329,#1053,#1525,.T.);
#1527=ORIENTED_EDGE('',*,*,#1526,.T.);
#1528=ORIENTED_EDGE('',*,*,#1056,.F.);
#1529=CARTESIAN_POINT('',(-0.977104216615,0.702401131743,0.000000000000));
#1530=LINE('',#1529,#12);
#1531=EDGE_CURVE('',#1048,#337,#1530,.T.);
#1532=ORIENTED_EDGE('',*,*,#1531,.T.);
#1533=EDGE_LOOP('',(#1523,#1527,#1528,#1532));
#1534=FACE_OUTER_BOUND('',#1533,.T.);
#1535=ADVANCED_FACE('',(#1534),#1522,.T.);
#1536=CARTESIAN_POINT('',(-0.057850884872,-0.068943999881,0.000000000000));
#1537=AXIS2_PLACEMENT_3D('',#1536,#339,#331);
#1538=PLANE('',#1537);
#1539=ORIENTED_EDGE('',*,*,#554,.F.);
#1540=ORIENTED_EDGE('',*,*,#1383,.F.);
#1541=ORIENTED_EDGE('',*,*,#878,.F.);
#1542=CARTESIAN_POINT('',(0.861402446871,-0.840289131505,0.000000000000));
#1543=LINE('',#1542,#12);
#1544=EDGE_CURVE('',#869,#552,#1543,.T.);
#1545=ORIENTED_EDGE('',*,*,#1544,.T.);
#1546=EDGE_LOOP('',(#1539,#1540,#1541,#1545));
#1547=ORIENTED_EDGE('',*,*,#350,.F.);
#1548=ORIENTED_EDGE('',*,*,#1531,.F.);
#1549=ORIENTED_EDGE('',*,*,#1050,.F.);
#1550=ORIENTED_EDGE('',*,*,#1389,.T.);
#1551=EDGE_LOOP('',(#1547,#1548,#1549,#1550));
#1552=FACE_OUTER_BOUND('',#1546,.T.);
#1553=ADVANCED_FACE('',(#1552),#1538,.T.);
#1554=FACE_OUTER_BOUND('',#1551,.T.);
#1555=ADVANCED_FACE('',(#1554),#1538,.T.);
#1556=CARTESIAN_POINT('',(0.057850884872,0.068943999881,0.000000000000));
#1557=AXIS2_PLACEMENT_3D('',#1556,#559,#347);
#1558=PLANE('',#1557);
#1559=ORIENTED_EDGE('',*,*,#334,.F.);
#1560=ORIENTED_EDGE('',*,*,#1453,.F.);
#1561=ORIENTED_EDGE('',*,*,#1061,.F.);
#1562=ORIENTED_EDGE('',*,*,#1526,.F.);
#1563=EDGE_LOOP('',(#1559,#1560,#1561,#1562));
#1564=ORIENTED_EDGE('',*,*,#567,.F.);
#1565=CARTESIAN_POINT('',(0.977104216615,-0.702401131743,0.000000000000));
#1566=LINE('',#1565,#27);
#1567=EDGE_CURVE('',#557,#863,#1566,.T.);
#1568=ORIENTED_EDGE('',*,*,#1567,.T.);
#1569=ORIENTED_EDGE('',*,*,#866,.F.);
#1570=ORIENTED_EDGE('',*,*,#1408,.T.);
#1571=EDGE_LOOP('',(#1564,#1568,#1569,#1570));
#1572=FACE_OUTER_BOUND('',#1563,.T.);
#1573=ADVANCED_FACE('',(#1572),#1558,.T.);
#1574=FACE_OUTER_BOUND('',#1571,.T.);
#1575=ADVANCED_FACE('',(#1574),#1558,.T.);
#1576=CARTESIAN_POINT('',(0.919253331743,0.771345131624,0.000000000000));
#1577=AXIS2_PLACEMENT_3D('',#1576,#463,#455);
#1578=PLANE('',#1577);
#1579=ORIENTED_EDGE('',*,*,#653,.F.);
#1580=ORIENTED_EDGE('',*,*,#1297,.F.);
#1581=ORIENTED_EDGE('',*,*,#780,.F.);
#1582=ORIENTED_EDGE('',*,*,#1326,.F.);
#1583=EDGE_LOOP('',(#1579,#1580,#1581,#1582));
#1584=FACE_OUTER_BOUND('',#1583,.T.);
#1585=ADVANCED_FACE('',(#1584),#1578,.T.);
#1586=CARTESIAN_POINT('',(1.127631144943,0.410424171991,0.000000000000));
#1587=AXIS2_PLACEMENT_3D('',#1586,#434,#426);
#1588=PLANE('',#1587);
#1589=ORIENTED_EDGE('',*,*,#630,.F.);
#1590=CARTESIAN_POINT('',(1.158412957842,0.325851836120,0.000000000000));
#1591=LINE('',#1590,#27);
#1592=EDGE_CURVE('',#620,#800,#1591,.T.);
#1593=ORIENTED_EDGE('',*,*,#1592,.T.);
#1594=ORIENTED_EDGE('',*,*,#803,.F.);
#1595=CARTESIAN_POINT('',(1.096849332044,0.494996507862,0.000000000000));
#1596=LINE('',#1595,#12);
#1597=EDGE_CURVE('',#794,#625,#1596,.T.);
#1598=ORIENTED_EDGE('',*,*,#1597,.T.);
#1599=EDGE_LOOP('',(#1589,#1593,#1594,#1598));
#1600=FACE_OUTER_BOUND('',#1599,.T.);
#1601=ADVANCED_FACE('',(#1600),#1588,.T.);
#1602=CARTESIAN_POINT('',(-0.030781812899,0.084572335871,0.000000000000));
#1603=AXIS2_PLACEMENT_3D('',#1602,#627,#434);
#1604=PLANE('',#1603);
#1605=ORIENTED_EDGE('',*,*,#635,.F.);
#1606=ORIENTED_EDGE('',*,*,#1597,.F.);
#1607=ORIENTED_EDGE('',*,*,#797,.F.);
#1608=ORIENTED_EDGE('',*,*,#1400,.T.);
#1609=EDGE_LOOP('',(#1605,#1606,#1607,#1608));
#1610=ORIENTED_EDGE('',*,*,#421,.F.);
#1611=ORIENTED_EDGE('',*,*,#1490,.F.);
#1612=ORIENTED_EDGE('',*,*,#998,.F.);
#1613=CARTESIAN_POINT('',(-1.158412957842,-0.325851836120,0.000000000000));
#1614=LINE('',#1613,#12);
#1615=EDGE_CURVE('',#990,#416,#1614,.T.);
#1616=ORIENTED_EDGE('',*,*,#1615,.T.);
#1617=EDGE_LOOP('',(#1610,#1611,#1612,#1616));
#1618=FACE_OUTER_BOUND('',#1609,.T.);
#1619=ADVANCED_FACE('',(#1618),#1604,.T.);
#1620=FACE_OUTER_BOUND('',#1617,.T.);
#1621=ADVANCED_FACE('',(#1620),#1604,.T.);
#1622=CARTESIAN_POINT('',(0.030781812899,-0.084572335871,0.000000000000));
#1623=AXIS2_PLACEMENT_3D('',#1622,#426,#418);
#1624=PLANE('',#1623);
#1625=ORIENTED_EDGE('',*,*,#437,.F.);
#1626=CARTESIAN_POINT('',(-1.096849332044,-0.494996507862,0.000000000000));
#1627=LINE('',#1626,#27);
#1628=EDGE_CURVE('',#424,#985,#1627,.T.);
#1629=ORIENTED_EDGE('',*,*,#1628,.T.);
#1630=ORIENTED_EDGE('',*,*,#987,.F.);
#1631=ORIENTED_EDGE('',*,*,#1370,.T.);
#1632=EDGE_LOOP('',(#1625,#1629,#1630,#1631));
#1633=ORIENTED_EDGE('',*,*,#622,.F.);
#1634=ORIENTED_EDGE('',*,*,#1429,.F.);
#1635=ORIENTED_EDGE('',*,*,#809,.F.);
#1636=ORIENTED_EDGE('',*,*,#1592,.F.);
#1637=EDGE_LOOP('',(#1633,#1634,#1635,#1636));
#1638=FACE_OUTER_BOUND('',#1632,.T.);
#1639=ADVANCED_FACE('',(#1638),#1624,.T.);
#1640=FACE_OUTER_BOUND('',#1637,.T.);
#1641=ADVANCED_FACE('',(#1640),#1624,.T.);
#1642=CARTESIAN_POINT('',(-0.208377813200,-1.181769303615,0.000000000000));
#1643=AXIS2_PLACEMENT_3D('',#1642,#260,#252);
#1644=PLANE('',#1643);
#1645=ORIENTED_EDGE('',*,*,#493,.F.);
#1646=CARTESIAN_POINT('',(-0.297010510971,-1.166140967625,0.000000000000));
#1647=LINE('',#1646,#27);
#1648=EDGE_CURVE('',#483,#938,#1647,.T.);
#1649=ORIENTED_EDGE('',*,*,#1648,.T.);
#1650=ORIENTED_EDGE('',*,*,#941,.F.);
#1651=CARTESIAN_POINT('',(-0.119745115429,-1.197397639605,0.000000000000));
#1652=LINE('',#1651,#12);
#1653=EDGE_CURVE('',#932,#488,#1652,.T.);
#1654=ORIENTED_EDGE('',*,*,#1653,.T.);
#1655=EDGE_LOOP('',(#1645,#1649,#1650,#1654));
#1656=FACE_OUTER_BOUND('',#1655,.T.);
#1657=ADVANCED_FACE('',(#1656),#1644,.T.);
#1658=CARTESIAN_POINT('',(0.088632697771,-0.015628335990,0.000000000000));
#1659=AXIS2_PLACEMENT_3D('',#1658,#490,#260);
#1660=PLANE('',#1659);
#1661=ORIENTED_EDGE('',*,*,#498,.F.);
#1662=ORIENTED_EDGE('',*,*,#1653,.F.);
#1663=ORIENTED_EDGE('',*,*,#935,.F.);
#1664=ORIENTED_EDGE('',*,*,#1362,.T.);
#1665=EDGE_LOOP('',(#1661,#1662,#1663,#1664));
#1666=ORIENTED_EDGE('',*,*,#247,.F.);
#1667=ORIENTED_EDGE('',*,*,#1473,.F.);
#1668=ORIENTED_EDGE('',*,*,#1124,.F.);
#1669=CARTESIAN_POINT('',(0.297010510971,1.166140967625,0.000000000000));
#1670=LINE('',#1669,#12);
#1671=EDGE_CURVE('',#1116,#242,#1670,.T.);
#1672=ORIENTED_EDGE('',*,*,#1671,.T.);
#1673=EDGE_LOOP('',(#1666,#1667,#1668,#1672));
#1674=FACE_OUTER_BOUND('',#1665,.T.);
#1675=ADVANCED_FACE('',(#1674),#1660,.T.);
#1676=FACE_OUTER_BOUND('',#1673,.T.);
#1677=ADVANCED_FACE('',(#1676),#1660,.T.);
#1678=CARTESIAN_POINT('',(-0.088632697771,0.015628335990,0.000000000000));
#1679=AXIS2_PLACEMENT_3D('',#1678,#252,#244);
#1680=PLANE('',#1679);
#1681=ORIENTED_EDGE('',*,*,#485,.F.);
#1682=ORIENTED_EDGE('',*,*,#1420,.F.);
#1683=ORIENTED_EDGE('',*,*,#947,.F.);
#1684=ORIENTED_EDGE('',*,*,#1648,.F.);
#1685=EDGE_LOOP('',(#1681,#1682,#1683,#1684));
#1686=ORIENTED_EDGE('',*,*,#263,.F.);
#1687=CARTESIAN_POINT('',(0.119745115429,1.197397639605,0.000000000000));
#1688=LINE('',#1687,#27);
#1689=EDGE_CURVE('',#250,#1111,#1688,.T.);
#1690=ORIENTED_EDGE('',*,*,#1689,.T.);
#1691=ORIENTED_EDGE('',*,*,#1113,.F.);
#1692=ORIENTED_EDGE('',*,*,#1496,.T.);
#1693=EDGE_LOOP('',(#1686,#1690,#1691,#1692));
#1694=FACE_OUTER_BOUND('',#1685,.T.);
#1695=ADVANCED_FACE('',(#1694),#1680,.T.);
#1696=FACE_OUTER_BOUND('',#1693,.T.);
#1697=ADVANCED_FACE('',(#1696),#1680,.T.);
#1698=CARTESIAN_POINT('',(1.127631144943,-0.410424171991,0.000000000000));
#1699=AXIS2_PLACEMENT_3D('',#1698,#376,#368);
#1700=PLANE('',#1699);
#1701=ORIENTED_EDGE('',*,*,#585,.F.);
#1702=CARTESIAN_POINT('',(1.096849332044,-0.494996507862,0.000000000000));
#1703=LINE('',#1702,#27);
#1704=EDGE_CURVE('',#575,#846,#1703,.T.);
#1705=ORIENTED_EDGE('',*,*,#1704,.T.);
#1706=ORIENTED_EDGE('',*,*,#849,.F.);
#1707=CARTESIAN_POINT('',(1.158412957842,-0.325851836120,0.000000000000));
#1708=LINE('',#1707,#12);
#1709=EDGE_CURVE('',#840,#580,#1708,.T.);
#1710=ORIENTED_EDGE('',*,*,#1709,.T.);
#1711=EDGE_LOOP('',(#1701,#1705,#1706,#1710));
#1712=FACE_OUTER_BOUND('',#1711,.T.);
#1713=ADVANCED_FACE('',(#1712),#1700,.T.);
#1714=CARTESIAN_POINT('',(0.030781812899,0.084572335871,0.000000000000));
#1715=AXIS2_PLACEMENT_3D('',#1714,#582,#376);
#1716=PLANE('',#1715);
#1717=ORIENTED_EDGE('',*,*,#363,.F.);
#1718=ORIENTED_EDGE('',*,*,#1394,.F.);
#1719=ORIENTED_EDGE('',*,*,#1040,.F.);
#1720=CARTESIAN_POINT('',(-1.096849332044,0.494996507862,0.000000000000));
#1721=LINE('',#1720,#12);
#1722=EDGE_CURVE('',#1032,#358,#1721,.T.);
#1723=ORIENTED_EDGE('',*,*,#1722,.T.);
#1724=EDGE_LOOP('',(#1717,#1718,#1719,#1723));
#1725=ORIENTED_EDGE('',*,*,#590,.F.);
#1726=ORIENTED_EDGE('',*,*,#1709,.F.);
#1727=ORIENTED_EDGE('',*,*,#843,.F.);
#1728=ORIENTED_EDGE('',*,*,#1459,.T.);
#1729=EDGE_LOOP('',(#1725,#1726,#1727,#1728));
#1730=FACE_OUTER_BOUND('',#1724,.T.);
#1731=ADVANCED_FACE('',(#1730),#1716,.T.);
#1732=FACE_OUTER_BOUND('',#1729,.T.);
#1733=ADVANCED_FACE('',(#1732),#1716,.T.);
#1734=CARTESIAN_POINT('',(-0.030781812899,-0.084572335871,0.000000000000));
#1735=AXIS2_PLACEMENT_3D('',#1734,#368,#360);
#1736=PLANE('',#1735);
#1737=ORIENTED_EDGE('',*,*,#577,.F.);
#1738=ORIENTED_EDGE('',*,*,#1413,.F.);
#1739=ORIENTED_EDGE('',*,*,#855,.F.);
#1740=ORIENTED_EDGE('',*,*,#1704,.F.);
#1741=EDGE_LOOP('',(#1737,#1738,#1739,#1740));
#1742=ORIENTED_EDGE('',*,*,#379,.F.);
#1743=CARTESIAN_POINT('',(-1.158412957842,0.325851836120,0.000000000000));
#1744=LINE('',#1743,#27);
#1745=EDGE_CURVE('',#366,#1027,#1744,.T.);
#1746=ORIENTED_EDGE('',*,*,#1745,.T.);
#1747=ORIENTED_EDGE('',*,*,#1029,.F.);
#1748=ORIENTED_EDGE('',*,*,#1480,.T.);
#1749=EDGE_LOOP('',(#1742,#1746,#1747,#1748));
#1750=FACE_OUTER_BOUND('',#1741,.T.);
#1751=ADVANCED_FACE('',(#1750),#1736,.T.);
#1752=FACE_OUTER_BOUND('',#1749,.T.);
#1753=ADVANCED_FACE('',(#1752),#1736,.T.);
#1754=CARTESIAN_POINT('',(-0.600000000000,-1.039230484541,0.000000000000));
#1755=AXIS2_PLACEMENT_3D('',#1754,#47,#32);
#1756=PLANE('',#1755);
#1757=ORIENTED_EDGE('',*,*,#84,.F.);
#1758=ORIENTED_EDGE('',*,*,#955,.F.);
#1759=ORIENTED_EDGE('',*,*,#106,.F.);
#1760=ORIENTED_EDGE('',*,*,#474,.F.);
#1761=EDGE_LOOP('',(#1757,#1758,#1759,#1760));
#1762=FACE_OUTER_BOUND('',#1761,.T.);
#1763=ADVANCED_FACE('',(#1762),#1756,.T.);
#1764=CARTESIAN_POINT('',(0.919253331743,-0.771345131624,0.000000000000));
#1765=AXIS2_PLACEMENT_3D('',#1764,#347,#339);
#1766=PLANE('',#1765);
#1767=ORIENTED_EDGE('',*,*,#562,.F.);
#1768=ORIENTED_EDGE('',*,*,#1544,.F.);
#1769=ORIENTED_EDGE('',*,*,#872,.F.);
#1770=ORIENTED_EDGE('',*,*,#1567,.F.);
#1771=EDGE_LOOP('',(#1767,#1768,#1769,#1770));
#1772=FACE_OUTER_BOUND('',#1771,.T.);
#1773=ADVANCED_FACE('',(#1772),#1766,.T.);
#1774=CARTESIAN_POINT('',(-0.600000000000,1.039230484541,0.000000000000));
#1775=AXIS2_PLACEMENT_3D('',#1774,#302,#536);
#1776=PLANE('',#1775);
#1777=ORIENTED_EDGE('',*,*,#313,.F.);
#1778=CARTESIAN_POINT('',(-0.522057713659,1.084230484541,0.000000000000));
#1779=LINE('',#1778,#27);
#1780=EDGE_CURVE('',#300,#1074,#1779,.T.);
#1781=ORIENTED_EDGE('',*,*,#1780,.T.);
#1782=ORIENTED_EDGE('',*,*,#1077,.F.);
#1783=CARTESIAN_POINT('',(-0.677942286341,0.994230484541,0.000000000000));
#1784=LINE('',#1783,#12);
#1785=EDGE_CURVE('',#1069,#308,#1784,.T.);
#1786=ORIENTED_EDGE('',*,*,#1785,.T.);
#1787=EDGE_LOOP('',(#1777,#1781,#1782,#1786));
#1788=FACE_OUTER_BOUND('',#1787,.T.);
#1789=ADVANCED_FACE('',(#1788),#1776,.T.);
#1790=CARTESIAN_POINT('',(-0.077942286341,-0.045000000000,0.000000000000));
#1791=AXIS2_PLACEMENT_3D('',#1790,#310,#302);
#1792=PLANE('',#1791);
#1793=ORIENTED_EDGE('',*,*,#321,.F.);
#1794=ORIENTED_EDGE('',*,*,#1785,.F.);
#1795=ORIENTED_EDGE('',*,*,#1071,.F.);
#1796=ORIENTED_EDGE('',*,*,#1448,.T.);
#1797=EDGE_LOOP('',(#1793,#1794,#1795,#1796));
#1798=ORIENTED_EDGE('',*,*,#531,.F.);
#1799=ORIENTED_EDGE('',*,*,#1437,.F.);
#1800=ORIENTED_EDGE('',*,*,#901,.F.);
#1801=CARTESIAN_POINT('',(0.522057713659,-1.084230484541,0.000000000000));
#1802=LINE('',#1801,#12);
#1803=EDGE_CURVE('',#892,#529,#1802,.T.);
#1804=ORIENTED_EDGE('',*,*,#1803,.T.);
#1805=EDGE_LOOP('',(#1798,#1799,#1800,#1804));
#1806=FACE_OUTER_BOUND('',#1797,.T.);
#1807=ADVANCED_FACE('',(#1806),#1792,.T.);
#1808=FACE_OUTER_BOUND('',#1805,.T.);
#1809=ADVANCED_FACE('',(#1808),#1792,.T.);
#1810=CARTESIAN_POINT('',(0.077942286341,0.045000000000,0.000000000000));
#1811=AXIS2_PLACEMENT_3D('',#1810,#536,#318);
#1812=PLANE('',#1811);
#1813=ORIENTED_EDGE('',*,*,#544,.F.);
#1814=CARTESIAN_POINT('',(0.677942286341,-0.994230484541,0.000000000000));
#1815=LINE('',#1814,#27);
#1816=EDGE_CURVE('',#534,#886,#1815,.T.);
#1817=ORIENTED_EDGE('',*,*,#1816,.T.);
#1818=ORIENTED_EDGE('',*,*,#889,.F.);
#1819=ORIENTED_EDGE('',*,*,#1378,.T.);
#1820=EDGE_LOOP('',(#1813,#1817,#1818,#1819));
#1821=ORIENTED_EDGE('',*,*,#305,.F.);
#1822=ORIENTED_EDGE('',*,*,#1356,.F.);
#1823=ORIENTED_EDGE('',*,*,#1082,.F.);
#1824=ORIENTED_EDGE('',*,*,#1780,.F.);
#1825=EDGE_LOOP('',(#1821,#1822,#1823,#1824));
#1826=FACE_OUTER_BOUND('',#1820,.T.);
#1827=ADVANCED_FACE('',(#1826),#1812,.T.);
#1828=FACE_OUTER_BOUND('',#1825,.T.);
#1829=ADVANCED_FACE('',(#1828),#1812,.T.);
#1830=CARTESIAN_POINT('',(0.600000000000,-1.039230484541,0.000000000000));
#1831=AXIS2_PLACEMENT_3D('',#1830,#318,#310);
#1832=PLANE('',#1831);
#1833=ORIENTED_EDGE('',*,*,#539,.F.);
#1834=ORIENTED_EDGE('',*,*,#1803,.F.);
#1835=ORIENTED_EDGE('',*,*,#895,.F.);
#1836=ORIENTED_EDGE('',*,*,#1816,.F.);
#1837=EDGE_LOOP('',(#1833,#1834,#1835,#1836));
#1838=FACE_OUTER_BOUND('',#1837,.T.);
#1839=ADVANCED_FACE('',(#1838),#1832,.T.);
#1840=CARTESIAN_POINT('',(-1.200000000000,0.000000000000,0.000000000000));
#1841=AXIS2_PLACEMENT_3D('',#1840,#389,#140);
#1842=PLANE('',#1841);
#1843=ORIENTED_EDGE('',*,*,#400,.F.);
#1844=ORIENTED_EDGE('',*,*,#1237,.F.);
#1845=ORIENTED_EDGE('',*,*,#1014,.F.);
#1846=ORIENTED_EDGE('',*,*,#1258,.F.);
#1847=EDGE_LOOP('',(#1843,#1844,#1845,#1846));
#1848=FACE_OUTER_BOUND('',#1847,.T.);
#1849=ADVANCED_FACE('',(#1848),#1842,.T.);
#1850=CARTESIAN_POINT('',(-1.127631144943,0.410424171991,0.000000000000));
#1851=AXIS2_PLACEMENT_3D('',#1850,#360,#582);
#1852=PLANE('',#1851);
#1853=ORIENTED_EDGE('',*,*,#371,.F.);
#1854=ORIENTED_EDGE('',*,*,#1722,.F.);
#1855=ORIENTED_EDGE('',*,*,#1035,.F.);
#1856=ORIENTED_EDGE('',*,*,#1745,.F.);
#1857=EDGE_LOOP('',(#1853,#1854,#1855,#1856));
#1858=FACE_OUTER_BOUND('',#1857,.T.);
#1859=ADVANCED_FACE('',(#1858),#1852,.T.);
#1860=CYLINDRICAL_SURFACE('',#1349,0.180000000000);
#1861=ORIENTED_EDGE('',*,*,#153,.T.);
#1862=ORIENTED_EDGE('',*,*,#148,.T.);
#1863=ORIENTED_EDGE('',*,*,#231,.T.);
#1864=ORIENTED_EDGE('',*,*,#228,.T.);
#1865=ORIENTED_EDGE('',*,*,#223,.T.);
#1866=ORIENTED_EDGE('',*,*,#218,.T.);
#1867=ORIENTED_EDGE('',*,*,#213,.T.);
#1868=ORIENTED_EDGE('',*,*,#208,.T.);
#1869=ORIENTED_EDGE('',*,*,#203,.T.);
#1870=ORIENTED_EDGE('',*,*,#198,.T.);
#1871=ORIENTED_EDGE('',*,*,#193,.T.);
#1872=ORIENTED_EDGE('',*,*,#188,.T.);
#1873=ORIENTED_EDGE('',*,*,#183,.T.);
#1874=ORIENTED_EDGE('',*,*,#178,.T.);
#1875=ORIENTED_EDGE('',*,*,#173,.T.);
#1876=ORIENTED_EDGE('',*,*,#168,.T.);
#1877=ORIENTED_EDGE('',*,*,#163,.T.);
#1878=ORIENTED_EDGE('',*,*,#158,.T.);
#1879=EDGE_LOOP('',(#1861,#1862,#1863,#1864,#1865,#1866,#1867,#1868,#1869,#1870,#1871,#1872,#1873,#1874,#1875,#1876,#1877,#1878));
#1880=ORIENTED_EDGE('',*,*,#760,.F.);
#1881=ORIENTED_EDGE('',*,*,#757,.F.);
#1882=ORIENTED_EDGE('',*,*,#752,.F.);
#1883=ORIENTED_EDGE('',*,*,#747,.F.);
#1884=ORIENTED_EDGE('',*,*,#742,.F.);
#1885=ORIENTED_EDGE('',*,*,#737,.F.);
#1886=ORIENTED_EDGE('',*,*,#732,.F.);
#1887=ORIENTED_EDGE('',*,*,#727,.F.);
#1888=ORIENTED_EDGE('',*,*,#722,.F.);
#1889=ORIENTED_EDGE('',*,*,#717,.F.);
#1890=ORIENTED_EDGE('',*,*,#712,.F.);
#1891=ORIENTED_EDGE('',*,*,#707,.F.);
#1892=ORIENTED_EDGE('',*,*,#702,.F.);
#1893=ORIENTED_EDGE('',*,*,#697,.F.);
#1894=ORIENTED_EDGE('',*,*,#692,.F.);
#1895=ORIENTED_EDGE('',*,*,#687,.F.);
#1896=ORIENTED_EDGE('',*,*,#682,.F.);
#1897=ORIENTED_EDGE('',*,*,#677,.F.);
#1898=EDGE_LOOP('',(#1880,#1881,#1882,#1883,#1884,#1885,#1886,#1887,#1888,#1889,#1890,#1891,#1892,#1893,#1894,#1895,#1896,#1897));
#1899=FACE_BOUND('',#1879,.T.);
#1900=FACE_BOUND('',#1898,.T.);
#1901=ADVANCED_FACE('',(#1899,#1900),#1860,.F.);
#1902=CARTESIAN_POINT('',(0.208377813200,1.181769303615,0.000000000000));
#1903=AXIS2_PLACEMENT_3D('',#1902,#244,#490);
#1904=PLANE('',#1903);
#1905=ORIENTED_EDGE('',*,*,#255,.F.);
#1906=ORIENTED_EDGE('',*,*,#1671,.F.);
#1907=ORIENTED_EDGE('',*,*,#1119,.F.);
#1908=ORIENTED_EDGE('',*,*,#1689,.F.);
#1909=EDGE_LOOP('',(#1905,#1906,#1907,#1908));
#1910=FACE_OUTER_BOUND('',#1909,.T.);
#1911=ADVANCED_FACE('',(#1910),#1904,.T.);
#1912=CARTESIAN_POINT('',(-1.127631144943,-0.410424171991,0.000000000000));
#1913=AXIS2_PLACEMENT_3D('',#1912,#418,#627);
#1914=PLANE('',#1913);
#1915=ORIENTED_EDGE('',*,*,#429,.F.);
#1916=ORIENTED_EDGE('',*,*,#1615,.F.);
#1917=ORIENTED_EDGE('',*,*,#993,.F.);
#1918=ORIENTED_EDGE('',*,*,#1628,.F.);
#1919=EDGE_LOOP('',(#1915,#1916,#1917,#1918));
#1920=FACE_OUTER_BOUND('',#1919,.T.);
#1921=ADVANCED_FACE('',(#1920),#1914,.T.);
#1922=CLOSED_SHELL('',(#39,#88,#90,#136,#138,#667,#1133,#1149,#1173,#1175,#1199,#1201,#1217,#1241,#1243,#1267,#1269,#1285,#1309,#1311,#1335,#1337,#1347,#1519,#1535,#1553,#1555,#1573,#1575,#1585,#1601,#1619,#1621,#1639,#1641,#1657,#1675,#1677,#1695,#1697,#1713,#1731,#1733,#1751,#1753,#1763,#1773,#1789,#1807,#1809,#1827,#1829,#1839,#1849,#1859,#1901,#1911,#1921));
#1923=MANIFOLD_SOLID_BREP('dial_side',#1922);
#1924=APPLICATION_CONTEXT('core data for automotive mechanical design processes');
#1925=APPLICATION_PROTOCOL_DEFINITION('international standard','automotive_design',2000,#1924);
#1926=PRODUCT_CONTEXT('',#1924,'mechanical');
#1927=PRODUCT('dial_side','dial_side','',(#1926));
#1928=PRODUCT_DEFINITION_FORMATION('','',#1927);
#1929=PRODUCT_DEFINITION_CONTEXT('part definition',#1924,'design');
#1930=PRODUCT_DEFINITION('','',#1928,#1929);
#1931=PRODUCT_DEFINITION_SHAPE('','',#1930);
#1932=(LENGTH_UNIT()NAMED_UNIT(*)SI_UNIT(.MILLI.,.METRE.));
#1933=(NAMED_UNIT(*)PLANE_ANGLE_UNIT()SI_UNIT($,.RADIAN.));
#1934=(NAMED_UNIT(*)SI_UNIT($,.STERADIAN.)SOLID_ANGLE_UNIT());
#1935=UNCERTAINTY_MEASURE_WITH_UNIT(LENGTH_MEASURE(1.E-07),#1932,'distance_accuracy_value','');
#1936=(GEOMETRIC_REPRESENTATION_CONTEXT(3)GLOBAL_UNCERTAINTY_ASSIGNED_CONTEXT((#1935))GLOBAL_UNIT_ASSIGNED_CONTEXT((#1932,#1933,#1934))REPRESENTATION_CONTEXT('',''));
#1937=ADVANCED_BREP_SHAPE_REPRESENTATION('',(#1923),#1936);
#1938=SHAPE_DEFINITION_REPRESENTATION(#1931,#1937);
ENDSEC;
END-ISO-10303-21;
