ISO-10303-21;
HEADER;
FILE_DESCRIPTION(('9 face(s), 10 edge(s), 10 vertex/vertices confirmed by cade at n=128, half-extent 0.750000000000'),'2;1');
FILE_NAME('balance.step','2026-08-23T00:00:00',('cade'),('cade'),'cade 0.1.0','cade','');
FILE_SCHEMA(('AUTOMOTIVE_DESIGN { 1 0 10303 214 1 1 1 1 }'));
ENDSEC;
DATA;
#1=CARTESIAN_POINT('',(0.000000000000,0.000000000000,0.000000000000));
#2=DIRECTION('',(0.000000000000,0.000000000000,1.000000000000));
#3=DIRECTION('',(0.000000000000,1.000000000000,0.000000000000));
#4=AXIS2_PLACEMENT_3D('',#1,#2,#3);
#5=CYLINDRICAL_SURFACE('',#4,0.105000000000);
#6=CARTESIAN_POINT('',(0.000000000000,-0.105000000000,0.566000000000));
#7=VERTEX_POINT('',#6);
#8=CARTESIAN_POINT('',(0.000000000000,0.000000000000,0.566000000000));
#9=DIRECTION('',(0.000000000000,0.000000000000,-1.000000000000));
#10=DIRECTION('',(0.000000000000,-1.000000000000,0.000000000000));
#11=AXIS2_PLACEMENT_3D('',#8,#9,#10);
#12=CIRCLE('',#11,0.105000000000);
#13=EDGE_CURVE('',#7,#7,#12,.T.);
#14=ORIENTED_EDGE('',*,*,#13,.F.);
#15=EDGE_LOOP('',(#14));
#16=CARTESIAN_POINT('',(0.000000000000,0.105000000000,-0.575000000000));
#17=VERTEX_POINT('',#16);
#18=CARTESIAN_POINT('',(0.000000000000,0.000000000000,-0.575000000000));
#19=AXIS2_PLACEMENT_3D('',#18,#2,#3);
#20=CIRCLE('',#19,0.105000000000);
#21=EDGE_CURVE('',#17,#17,#20,.T.);
#22=ORIENTED_EDGE('',*,*,#21,.T.);
#23=EDGE_LOOP('',(#22));
#24=CARTESIAN_POINT('',(0.000000000000,0.105000000000,-0.230000000000));
#25=VERTEX_POINT('',#24);
#26=CARTESIAN_POINT('',(0.000000000000,0.000000000000,-0.230000000000));
#27=AXIS2_PLACEMENT_3D('',#26,#2,#3);
#28=CIRCLE('',#27,0.105000000000);
#29=EDGE_CURVE('',#25,#25,#28,.T.);
#30=ORIENTED_EDGE('',*,*,#29,.F.);
#31=EDGE_LOOP('',(#30));
#32=CARTESIAN_POINT('',(0.000000000000,0.105000000000,0.575000000000));
#33=VERTEX_POINT('',#32);
#34=CARTESIAN_POINT('',(0.000000000000,0.000000000000,0.575000000000));
#35=AXIS2_PLACEMENT_3D('',#34,#2,#3);
#36=CIRCLE('',#35,0.105000000000);
#37=EDGE_CURVE('',#33,#33,#36,.T.);
#38=ORIENTED_EDGE('',*,*,#37,.F.);
#39=EDGE_LOOP('',(#38));
#40=FACE_BOUND('',#23,.T.);
#41=FACE_BOUND('',#31,.T.);
#42=ADVANCED_FACE('',(#40,#41),#5,.T.);
#43=FACE_BOUND('',#15,.T.);
#44=FACE_BOUND('',#39,.T.);
#45=ADVANCED_FACE('',(#43,#44),#5,.T.);
#46=PLANE('',#35);
#47=ORIENTED_EDGE('',*,*,#37,.T.);
#48=EDGE_LOOP('',(#47));
#49=CARTESIAN_POINT('',(0.000000000000,-0.099375000000,0.575000000000));
#50=VERTEX_POINT('',#49);
#51=AXIS2_PLACEMENT_3D('',#34,#9,#10);
#52=CIRCLE('',#51,0.099375000000);
#53=EDGE_CURVE('',#50,#50,#52,.T.);
#54=ORIENTED_EDGE('',*,*,#53,.T.);
#55=EDGE_LOOP('',(#54));
#56=FACE_OUTER_BOUND('',#48,.T.);
#57=FACE_BOUND('',#55,.T.);
#58=ADVANCED_FACE('',(#56,#57),#46,.T.);
#59=AXIS2_PLACEMENT_3D('',#18,#9,#10);
#60=PLANE('',#59);
#61=ORIENTED_EDGE('',*,*,#21,.F.);
#62=EDGE_LOOP('',(#61));
#63=FACE_OUTER_BOUND('',#62,.T.);
#64=ADVANCED_FACE('',(#63),#60,.T.);
#65=CARTESIAN_POINT('',(0.000000000000,0.000000000000,-0.266000000000));
#66=AXIS2_PLACEMENT_3D('',#65,#9,#10);
#67=CONICAL_SURFACE('',#66,0.625000000000,0.558599315344);
#68=CARTESIAN_POINT('',(0.000000000000,-0.090000000000,0.590000000000));
#69=VERTEX_POINT('',#68);
#70=CARTESIAN_POINT('',(0.000000000000,0.000000000000,0.590000000000));
#71=AXIS2_PLACEMENT_3D('',#70,#9,#10);
#72=CIRCLE('',#71,0.090000000000);
#73=EDGE_CURVE('',#69,#69,#72,.T.);
#74=ORIENTED_EDGE('',*,*,#73,.T.);
#75=EDGE_LOOP('',(#74));
#76=CARTESIAN_POINT('',(0.000000000000,-0.190000000000,0.430000000000));
#77=VERTEX_POINT('',#76);
#78=CARTESIAN_POINT('',(0.000000000000,0.000000000000,0.430000000000));
#79=AXIS2_PLACEMENT_3D('',#78,#9,#10);
#80=CIRCLE('',#79,0.190000000000);
#81=EDGE_CURVE('',#77,#77,#80,.T.);
#82=ORIENTED_EDGE('',*,*,#81,.F.);
#83=EDGE_LOOP('',(#82));
#84=ORIENTED_EDGE('',*,*,#13,.T.);
#85=EDGE_LOOP('',(#84));
#86=ORIENTED_EDGE('',*,*,#53,.F.);
#87=EDGE_LOOP('',(#86));
#88=FACE_BOUND('',#75,.T.);
#89=FACE_BOUND('',#87,.T.);
#90=ADVANCED_FACE('',(#88,#89),#67,.T.);
#91=FACE_BOUND('',#83,.T.);
#92=FACE_BOUND('',#85,.T.);
#93=ADVANCED_FACE('',(#91,#92),#67,.T.);
#94=AXIS2_PLACEMENT_3D('',#70,#2,#3);
#95=PLANE('',#94);
#96=ORIENTED_EDGE('',*,*,#73,.F.);
#97=EDGE_LOOP('',(#96));
#98=FACE_OUTER_BOUND('',#97,.T.);
#99=ADVANCED_FACE('',(#98),#95,.T.);
#100=CARTESIAN_POINT('',(0.000000000000,0.000000000000,-0.160000000000));
#101=AXIS2_PLACEMENT_3D('',#100,#2,#3);
#102=CYLINDRICAL_SURFACE('',#101,0.300000000000);
#103=CARTESIAN_POINT('',(0.000000000000,0.300000000000,-0.090000000000));
#104=VERTEX_POINT('',#103);
#105=CARTESIAN_POINT('',(0.000000000000,0.000000000000,-0.090000000000));
#106=AXIS2_PLACEMENT_3D('',#105,#2,#3);
#107=CIRCLE('',#106,0.300000000000);
#108=EDGE_CURVE('',#104,#104,#107,.T.);
#109=ORIENTED_EDGE('',*,*,#108,.F.);
#110=EDGE_LOOP('',(#109));
#111=CARTESIAN_POINT('',(0.000000000000,0.300000000000,-0.230000000000));
#112=VERTEX_POINT('',#111);
#113=CIRCLE('',#27,0.300000000000);
#114=EDGE_CURVE('',#112,#112,#113,.T.);
#115=ORIENTED_EDGE('',*,*,#114,.T.);
#116=EDGE_LOOP('',(#115));
#117=FACE_BOUND('',#110,.T.);
#118=FACE_BOUND('',#116,.T.);
#119=ADVANCED_FACE('',(#117,#118),#102,.T.);
#120=PLANE('',#106);
#121=ORIENTED_EDGE('',*,*,#108,.T.);
#122=EDGE_LOOP('',(#121));
#123=CARTESIAN_POINT('',(0.000000000000,0.190000000000,-0.090000000000));
#124=VERTEX_POINT('',#123);
#125=CIRCLE('',#106,0.190000000000);
#126=EDGE_CURVE('',#124,#124,#125,.T.);
#127=ORIENTED_EDGE('',*,*,#126,.F.);
#128=EDGE_LOOP('',(#127));
#129=FACE_OUTER_BOUND('',#122,.T.);
#130=FACE_BOUND('',#128,.T.);
#131=ADVANCED_FACE('',(#129,#130),#120,.T.);
#132=AXIS2_PLACEMENT_3D('',#26,#9,#10);
#133=PLANE('',#132);
#134=ORIENTED_EDGE('',*,*,#114,.F.);
#135=EDGE_LOOP('',(#134));
#136=ORIENTED_EDGE('',*,*,#29,.T.);
#137=EDGE_LOOP('',(#136));
#138=FACE_OUTER_BOUND('',#135,.T.);
#139=FACE_BOUND('',#137,.T.);
#140=ADVANCED_FACE('',(#138,#139),#133,.T.);
#141=CARTESIAN_POINT('',(0.000000000000,0.000000000000,0.120000000000));
#142=AXIS2_PLACEMENT_3D('',#141,#2,#3);
#143=CYLINDRICAL_SURFACE('',#142,0.190000000000);
#144=ORIENTED_EDGE('',*,*,#81,.T.);
#145=EDGE_LOOP('',(#144));
#146=ORIENTED_EDGE('',*,*,#126,.T.);
#147=EDGE_LOOP('',(#146));
#148=FACE_BOUND('',#145,.T.);
#149=FACE_BOUND('',#147,.T.);
#150=ADVANCED_FACE('',(#148,#149),#143,.T.);
#151=CLOSED_SHELL('',(#42,#45,#58,#64,#90,#93,#99,#119,#131,#140,#150));
#152=MANIFOLD_SOLID_BREP('balance',#151);
#153=APPLICATION_CONTEXT('core data for automotive mechanical design processes');
#154=APPLICATION_PROTOCOL_DEFINITION('international standard','automotive_design',2000,#153);
#155=PRODUCT_CONTEXT('',#153,'mechanical');
#156=PRODUCT('balance','balance','',(#155));
#157=PRODUCT_DEFINITION_FORMATION('','',#156);
#158=PRODUCT_DEFINITION_CONTEXT('part definition',#153,'design');
#159=PRODUCT_DEFINITION('','',#157,#158);
#160=PRODUCT_DEFINITION_SHAPE('','',#159);
#161=(LENGTH_UNIT()NAMED_UNIT(*)SI_UNIT(.MILLI.,.METRE.));
#162=(NAMED_UNIT(*)PLANE_ANGLE_UNIT()SI_UNIT($,.RADIAN.));
#163=(NAMED_UNIT(*)SI_UNIT($,.STERADIAN.)SOLID_ANGLE_UNIT());
#164=UNCERTAINTY_MEASURE_WITH_UNIT(LENGTH_MEASURE(1.E-07),#161,'distance_accuracy_value','');
#165=(GEOMETRIC_REPRESENTATION_CONTEXT(3)GLOBAL_UNCERTAINTY_ASSIGNED_CONTEXT((#164))GLOBAL_UNIT_ASSIGNED_CONTEXT((#161,#162,#163))REPRESENTATION_CONTEXT('',''));
#166=ADVANCED_BREP_SHAPE_REPRESENTATION('',(#152),#165);
#167=SHAPE_DEFINITION_REPRESENTATION(#160,#166);
ENDSEC;
END-ISO-10303-21;
