ISO-10303-21;
HEADER;
FILE_DESCRIPTION(('28 face(s), 192 edge(s), 144 vertex/vertices confirmed by cade at n=128, half-extent 1.500000000000'),'2;1');
FILE_NAME('hand_setting.step','2026-08-23T00:00:00',('cade'),('cade'),'cade 0.1.0','cade','');
FILE_SCHEMA(('AUTOMOTIVE_DESIGN { 1 0 10303 214 1 1 1 1 }'));
ENDSEC;
DATA;
#1=CARTESIAN_POINT('',(-1.150000000000,0.000000000000,0.000000000000));
#2=DIRECTION('',(-1.000000000000,0.000000000000,0.000000000000));
#3=DIRECTION('',(0.000000000000,1.000000000000,0.000000000000));
#4=AXIS2_PLACEMENT_3D('',#1,#2,#3);
#5=PLANE('',#4);
#6=CARTESIAN_POINT('',(-1.150000000000,-0.110000000000,-0.275000000000));
#7=VERTEX_POINT('',#6);
#8=CARTESIAN_POINT('',(-1.150000000000,-0.110000000000,0.275000000000));
#9=VERTEX_POINT('',#8);
#10=CARTESIAN_POINT('',(-1.150000000000,-0.110000000000,0.000000000000));
#11=DIRECTION('',(0.000000000000,0.000000000000,1.000000000000));
#12=VECTOR('',#11,1.0);
#13=LINE('',#10,#12);
#14=EDGE_CURVE('',#7,#9,#13,.T.);
#15=ORIENTED_EDGE('',*,*,#14,.T.);
#16=CARTESIAN_POINT('',(-1.150000000000,0.110000000000,0.275000000000));
#17=VERTEX_POINT('',#16);
#18=CARTESIAN_POINT('',(-1.150000000000,0.000000000000,0.275000000000));
#19=VECTOR('',#3,1.0);
#20=LINE('',#18,#19);
#21=EDGE_CURVE('',#9,#17,#20,.T.);
#22=ORIENTED_EDGE('',*,*,#21,.T.);
#23=CARTESIAN_POINT('',(-1.150000000000,0.110000000000,-0.275000000000));
#24=VERTEX_POINT('',#23);
#25=CARTESIAN_POINT('',(-1.150000000000,0.110000000000,0.000000000000));
#26=DIRECTION('',(0.000000000000,0.000000000000,-1.000000000000));
#27=VECTOR('',#26,1.0);
#28=LINE('',#25,#27);
#29=EDGE_CURVE('',#17,#24,#28,.T.);
#30=ORIENTED_EDGE('',*,*,#29,.T.);
#31=CARTESIAN_POINT('',(-1.150000000000,0.000000000000,-0.275000000000));
#32=DIRECTION('',(0.000000000000,-1.000000000000,0.000000000000));
#33=VECTOR('',#32,1.0);
#34=LINE('',#31,#33);
#35=EDGE_CURVE('',#24,#7,#34,.T.);
#36=ORIENTED_EDGE('',*,*,#35,.T.);
#37=EDGE_LOOP('',(#15,#22,#30,#36));
#38=FACE_OUTER_BOUND('',#37,.T.);
#39=ADVANCED_FACE('',(#38),#5,.T.);
#40=CARTESIAN_POINT('',(0.000000000000,-0.110000000000,0.000000000000));
#41=AXIS2_PLACEMENT_3D('',#40,#32,#2);
#42=PLANE('',#41);
#43=CARTESIAN_POINT('',(1.150000000000,-0.110000000000,0.275000000000));
#44=VERTEX_POINT('',#43);
#45=CARTESIAN_POINT('',(1.003992031841,-0.110000000000,0.275000000000));
#46=VERTEX_POINT('',#45);
#47=CARTESIAN_POINT('',(0.000000000000,-0.110000000000,0.275000000000));
#48=VECTOR('',#2,1.0);
#49=LINE('',#47,#48);
#50=EDGE_CURVE('',#44,#46,#49,.T.);
#51=ORIENTED_EDGE('',*,*,#50,.T.);
#52=CARTESIAN_POINT('',(1.003992031841,-0.110000000000,-0.275000000000));
#53=VERTEX_POINT('',#52);
#54=CARTESIAN_POINT('',(1.003992031841,-0.110000000000,0.000000000000));
#55=LINE('',#54,#12);
#56=EDGE_CURVE('',#53,#46,#55,.T.);
#57=ORIENTED_EDGE('',*,*,#56,.F.);
#58=CARTESIAN_POINT('',(1.150000000000,-0.110000000000,-0.275000000000));
#59=VERTEX_POINT('',#58);
#60=CARTESIAN_POINT('',(0.000000000000,-0.110000000000,-0.275000000000));
#61=DIRECTION('',(1.000000000000,0.000000000000,0.000000000000));
#62=VECTOR('',#61,1.0);
#63=LINE('',#60,#62);
#64=EDGE_CURVE('',#53,#59,#63,.T.);
#65=ORIENTED_EDGE('',*,*,#64,.T.);
#66=CARTESIAN_POINT('',(1.150000000000,-0.110000000000,0.000000000000));
#67=LINE('',#66,#12);
#68=EDGE_CURVE('',#59,#44,#67,.T.);
#69=ORIENTED_EDGE('',*,*,#68,.T.);
#70=EDGE_LOOP('',(#51,#57,#65,#69));
#71=ORIENTED_EDGE('',*,*,#14,.F.);
#72=CARTESIAN_POINT('',(-1.003992031841,-0.110000000000,-0.275000000000));
#73=VERTEX_POINT('',#72);
#74=LINE('',#60,#62);
#75=EDGE_CURVE('',#7,#73,#74,.T.);
#76=ORIENTED_EDGE('',*,*,#75,.T.);
#77=CARTESIAN_POINT('',(-1.003992031841,-0.110000000000,0.275000000000));
#78=VERTEX_POINT('',#77);
#79=CARTESIAN_POINT('',(-1.003992031841,-0.110000000000,0.000000000000));
#80=LINE('',#79,#12);
#81=EDGE_CURVE('',#73,#78,#80,.T.);
#82=ORIENTED_EDGE('',*,*,#81,.T.);
#83=LINE('',#47,#48);
#84=EDGE_CURVE('',#78,#9,#83,.T.);
#85=ORIENTED_EDGE('',*,*,#84,.T.);
#86=EDGE_LOOP('',(#71,#76,#82,#85));
#87=FACE_OUTER_BOUND('',#70,.T.);
#88=ADVANCED_FACE('',(#87),#42,.T.);
#89=FACE_OUTER_BOUND('',#86,.T.);
#90=ADVANCED_FACE('',(#89),#42,.T.);
#91=CARTESIAN_POINT('',(0.000000000000,0.110000000000,0.000000000000));
#92=AXIS2_PLACEMENT_3D('',#91,#3,#61);
#93=PLANE('',#92);
#94=ORIENTED_EDGE('',*,*,#29,.F.);
#95=CARTESIAN_POINT('',(-1.003992031841,0.110000000000,0.275000000000));
#96=VERTEX_POINT('',#95);
#97=CARTESIAN_POINT('',(0.000000000000,0.110000000000,0.275000000000));
#98=LINE('',#97,#62);
#99=EDGE_CURVE('',#17,#96,#98,.T.);
#100=ORIENTED_EDGE('',*,*,#99,.T.);
#101=CARTESIAN_POINT('',(-1.003992031841,0.110000000000,-0.275000000000));
#102=VERTEX_POINT('',#101);
#103=CARTESIAN_POINT('',(-1.003992031841,0.110000000000,0.000000000000));
#104=LINE('',#103,#12);
#105=EDGE_CURVE('',#102,#96,#104,.T.);
#106=ORIENTED_EDGE('',*,*,#105,.F.);
#107=CARTESIAN_POINT('',(0.000000000000,0.110000000000,-0.275000000000));
#108=LINE('',#107,#48);
#109=EDGE_CURVE('',#102,#24,#108,.T.);
#110=ORIENTED_EDGE('',*,*,#109,.T.);
#111=EDGE_LOOP('',(#94,#100,#106,#110));
#112=CARTESIAN_POINT('',(1.003992031841,0.110000000000,0.275000000000));
#113=VERTEX_POINT('',#112);
#114=CARTESIAN_POINT('',(1.150000000000,0.110000000000,0.275000000000));
#115=VERTEX_POINT('',#114);
#116=LINE('',#97,#62);
#117=EDGE_CURVE('',#113,#115,#116,.T.);
#118=ORIENTED_EDGE('',*,*,#117,.T.);
#119=CARTESIAN_POINT('',(1.150000000000,0.110000000000,-0.275000000000));
#120=VERTEX_POINT('',#119);
#121=CARTESIAN_POINT('',(1.150000000000,0.110000000000,0.000000000000));
#122=LINE('',#121,#27);
#123=EDGE_CURVE('',#115,#120,#122,.T.);
#124=ORIENTED_EDGE('',*,*,#123,.T.);
#125=CARTESIAN_POINT('',(1.003992031841,0.110000000000,-0.275000000000));
#126=VERTEX_POINT('',#125);
#127=LINE('',#107,#48);
#128=EDGE_CURVE('',#120,#126,#127,.T.);
#129=ORIENTED_EDGE('',*,*,#128,.T.);
#130=CARTESIAN_POINT('',(1.003992031841,0.110000000000,0.000000000000));
#131=LINE('',#130,#12);
#132=EDGE_CURVE('',#126,#113,#131,.T.);
#133=ORIENTED_EDGE('',*,*,#132,.T.);
#134=EDGE_LOOP('',(#118,#124,#129,#133));
#135=FACE_OUTER_BOUND('',#111,.T.);
#136=ADVANCED_FACE('',(#135),#93,.T.);
#137=FACE_OUTER_BOUND('',#134,.T.);
#138=ADVANCED_FACE('',(#137),#93,.T.);
#139=CARTESIAN_POINT('',(0.000000000000,0.000000000000,0.275000000000));
#140=AXIS2_PLACEMENT_3D('',#139,#11,#3);
#141=PLANE('',#140);
#142=CARTESIAN_POINT('',(-0.110000000000,0.446654228683,0.275000000000));
#143=VERTEX_POINT('',#142);
#144=CARTESIAN_POINT('',(-0.128064319925,0.441813908747,0.275000000000));
#145=VERTEX_POINT('',#144);
#146=CIRCLE('',#140,0.460000000000);
#147=EDGE_CURVE('',#143,#145,#146,.T.);
#148=ORIENTED_EDGE('',*,*,#147,.F.);
#149=CARTESIAN_POINT('',(0.110000000000,0.446654228683,0.275000000000));
#150=VERTEX_POINT('',#149);
#151=CIRCLE('',#140,0.460000000000);
#152=EDGE_CURVE('',#150,#143,#151,.T.);
#153=ORIENTED_EDGE('',*,*,#152,.F.);
#154=CARTESIAN_POINT('',(0.128064319925,0.441813908747,0.275000000000));
#155=VERTEX_POINT('',#154);
#156=CIRCLE('',#140,0.460000000000);
#157=EDGE_CURVE('',#155,#150,#156,.T.);
#158=ORIENTED_EDGE('',*,*,#157,.F.);
#159=CARTESIAN_POINT('',(0.318589908758,0.331813908747,0.275000000000));
#160=VERTEX_POINT('',#159);
#161=CIRCLE('',#140,0.460000000000);
#162=EDGE_CURVE('',#160,#155,#161,.T.);
#163=ORIENTED_EDGE('',*,*,#162,.F.);
#164=CARTESIAN_POINT('',(0.331813908747,0.318589908758,0.275000000000));
#165=VERTEX_POINT('',#164);
#166=CIRCLE('',#140,0.460000000000);
#167=EDGE_CURVE('',#165,#160,#166,.T.);
#168=ORIENTED_EDGE('',*,*,#167,.F.);
#169=CARTESIAN_POINT('',(0.441813908747,0.128064319925,0.275000000000));
#170=VERTEX_POINT('',#169);
#171=CIRCLE('',#140,0.460000000000);
#172=EDGE_CURVE('',#170,#165,#171,.T.);
#173=ORIENTED_EDGE('',*,*,#172,.F.);
#174=CARTESIAN_POINT('',(0.446654228683,0.110000000000,0.275000000000));
#175=VERTEX_POINT('',#174);
#176=CIRCLE('',#140,0.460000000000);
#177=EDGE_CURVE('',#175,#170,#176,.T.);
#178=ORIENTED_EDGE('',*,*,#177,.F.);
#179=CARTESIAN_POINT('',(0.446654228683,-0.110000000000,0.275000000000));
#180=VERTEX_POINT('',#179);
#181=CIRCLE('',#140,0.460000000000);
#182=EDGE_CURVE('',#180,#175,#181,.T.);
#183=ORIENTED_EDGE('',*,*,#182,.F.);
#184=CARTESIAN_POINT('',(0.441813908747,-0.128064319925,0.275000000000));
#185=VERTEX_POINT('',#184);
#186=CIRCLE('',#140,0.460000000000);
#187=EDGE_CURVE('',#185,#180,#186,.T.);
#188=ORIENTED_EDGE('',*,*,#187,.F.);
#189=CARTESIAN_POINT('',(0.331813908747,-0.318589908758,0.275000000000));
#190=VERTEX_POINT('',#189);
#191=CIRCLE('',#140,0.460000000000);
#192=EDGE_CURVE('',#190,#185,#191,.T.);
#193=ORIENTED_EDGE('',*,*,#192,.F.);
#194=CARTESIAN_POINT('',(0.318589908758,-0.331813908747,0.275000000000));
#195=VERTEX_POINT('',#194);
#196=CIRCLE('',#140,0.460000000000);
#197=EDGE_CURVE('',#195,#190,#196,.T.);
#198=ORIENTED_EDGE('',*,*,#197,.F.);
#199=CARTESIAN_POINT('',(0.128064319925,-0.441813908747,0.275000000000));
#200=VERTEX_POINT('',#199);
#201=CIRCLE('',#140,0.460000000000);
#202=EDGE_CURVE('',#200,#195,#201,.T.);
#203=ORIENTED_EDGE('',*,*,#202,.F.);
#204=CARTESIAN_POINT('',(0.110000000000,-0.446654228683,0.275000000000));
#205=VERTEX_POINT('',#204);
#206=CIRCLE('',#140,0.460000000000);
#207=EDGE_CURVE('',#205,#200,#206,.T.);
#208=ORIENTED_EDGE('',*,*,#207,.F.);
#209=CARTESIAN_POINT('',(-0.110000000000,-0.446654228683,0.275000000000));
#210=VERTEX_POINT('',#209);
#211=CIRCLE('',#140,0.460000000000);
#212=EDGE_CURVE('',#210,#205,#211,.T.);
#213=ORIENTED_EDGE('',*,*,#212,.F.);
#214=CARTESIAN_POINT('',(-0.128064319925,-0.441813908747,0.275000000000));
#215=VERTEX_POINT('',#214);
#216=CIRCLE('',#140,0.460000000000);
#217=EDGE_CURVE('',#215,#210,#216,.T.);
#218=ORIENTED_EDGE('',*,*,#217,.F.);
#219=CARTESIAN_POINT('',(-0.318589908758,-0.331813908747,0.275000000000));
#220=VERTEX_POINT('',#219);
#221=CIRCLE('',#140,0.460000000000);
#222=EDGE_CURVE('',#220,#215,#221,.T.);
#223=ORIENTED_EDGE('',*,*,#222,.F.);
#224=CARTESIAN_POINT('',(-0.331813908747,-0.318589908758,0.275000000000));
#225=VERTEX_POINT('',#224);
#226=CIRCLE('',#140,0.460000000000);
#227=EDGE_CURVE('',#225,#220,#226,.T.);
#228=ORIENTED_EDGE('',*,*,#227,.F.);
#229=CARTESIAN_POINT('',(-0.441813908747,-0.128064319925,0.275000000000));
#230=VERTEX_POINT('',#229);
#231=CIRCLE('',#140,0.460000000000);
#232=EDGE_CURVE('',#230,#225,#231,.T.);
#233=ORIENTED_EDGE('',*,*,#232,.F.);
#234=CARTESIAN_POINT('',(-0.446654228683,-0.110000000000,0.275000000000));
#235=VERTEX_POINT('',#234);
#236=CIRCLE('',#140,0.460000000000);
#237=EDGE_CURVE('',#235,#230,#236,.T.);
#238=ORIENTED_EDGE('',*,*,#237,.F.);
#239=CARTESIAN_POINT('',(-0.446654228683,0.110000000000,0.275000000000));
#240=VERTEX_POINT('',#239);
#241=CIRCLE('',#140,0.460000000000);
#242=EDGE_CURVE('',#240,#235,#241,.T.);
#243=ORIENTED_EDGE('',*,*,#242,.F.);
#244=CARTESIAN_POINT('',(-0.441813908747,0.128064319925,0.275000000000));
#245=VERTEX_POINT('',#244);
#246=CIRCLE('',#140,0.460000000000);
#247=EDGE_CURVE('',#245,#240,#246,.T.);
#248=ORIENTED_EDGE('',*,*,#247,.F.);
#249=CARTESIAN_POINT('',(-0.331813908747,0.318589908758,0.275000000000));
#250=VERTEX_POINT('',#249);
#251=CIRCLE('',#140,0.460000000000);
#252=EDGE_CURVE('',#250,#245,#251,.T.);
#253=ORIENTED_EDGE('',*,*,#252,.F.);
#254=CARTESIAN_POINT('',(-0.318589908758,0.331813908747,0.275000000000));
#255=VERTEX_POINT('',#254);
#256=CIRCLE('',#140,0.460000000000);
#257=EDGE_CURVE('',#255,#250,#256,.T.);
#258=ORIENTED_EDGE('',*,*,#257,.F.);
#259=CIRCLE('',#140,0.460000000000);
#260=EDGE_CURVE('',#145,#255,#259,.T.);
#261=ORIENTED_EDGE('',*,*,#260,.F.);
#262=EDGE_LOOP('',(#148,#153,#158,#163,#168,#173,#178,#183,#188,#193,#198,#203,#208,#213,#218,#223,#228,#233,#238,#243,#248,#253,#258,#261));
#263=ORIENTED_EDGE('',*,*,#21,.F.);
#264=ORIENTED_EDGE('',*,*,#84,.F.);
#265=CARTESIAN_POINT('',(-0.924482604771,-0.406733221504,0.275000000000));
#266=VERTEX_POINT('',#265);
#267=CIRCLE('',#140,1.010000000000);
#268=EDGE_CURVE('',#78,#266,#267,.T.);
#269=ORIENTED_EDGE('',*,*,#268,.T.);
#270=CARTESIAN_POINT('',(-1.050929214352,-0.479737205584,0.275000000000));
#271=VERTEX_POINT('',#270);
#272=CARTESIAN_POINT('',(-0.055000000000,0.095262794416,0.275000000000));
#273=DIRECTION('',(-0.866025403784,-0.500000000000,0.000000000000));
#274=VECTOR('',#273,1.0);
#275=LINE('',#272,#274);
#276=EDGE_CURVE('',#266,#271,#275,.T.);
#277=ORIENTED_EDGE('',*,*,#276,.T.);
#278=CARTESIAN_POINT('',(-0.940929214352,-0.670262794416,0.275000000000));
#279=VERTEX_POINT('',#278);
#280=CARTESIAN_POINT('',(-0.995929214352,-0.575000000000,0.275000000000));
#281=DIRECTION('',(0.500000000000,-0.866025403784,0.000000000000));
#282=VECTOR('',#281,1.0);
#283=LINE('',#280,#282);
#284=EDGE_CURVE('',#271,#279,#283,.T.);
#285=ORIENTED_EDGE('',*,*,#284,.T.);
#286=CARTESIAN_POINT('',(-0.814482604771,-0.597258810337,0.275000000000));
#287=VERTEX_POINT('',#286);
#288=CARTESIAN_POINT('',(0.055000000000,-0.095262794416,0.275000000000));
#289=DIRECTION('',(0.866025403784,0.500000000000,0.000000000000));
#290=VECTOR('',#289,1.0);
#291=LINE('',#288,#290);
#292=EDGE_CURVE('',#279,#287,#291,.T.);
#293=ORIENTED_EDGE('',*,*,#292,.T.);
#294=CARTESIAN_POINT('',(-0.597258810337,-0.814482604771,0.275000000000));
#295=VERTEX_POINT('',#294);
#296=CIRCLE('',#140,1.010000000000);
#297=EDGE_CURVE('',#287,#295,#296,.T.);
#298=ORIENTED_EDGE('',*,*,#297,.T.);
#299=CARTESIAN_POINT('',(-0.670262794416,-0.940929214352,0.275000000000));
#300=VERTEX_POINT('',#299);
#301=CARTESIAN_POINT('',(-0.095262794416,0.055000000000,0.275000000000));
#302=DIRECTION('',(-0.500000000000,-0.866025403784,0.000000000000));
#303=VECTOR('',#302,1.0);
#304=LINE('',#301,#303);
#305=EDGE_CURVE('',#295,#300,#304,.T.);
#306=ORIENTED_EDGE('',*,*,#305,.T.);
#307=CARTESIAN_POINT('',(-0.479737205584,-1.050929214352,0.275000000000));
#308=VERTEX_POINT('',#307);
#309=CARTESIAN_POINT('',(-0.575000000000,-0.995929214352,0.275000000000));
#310=DIRECTION('',(0.866025403784,-0.500000000000,0.000000000000));
#311=VECTOR('',#310,1.0);
#312=LINE('',#309,#311);
#313=EDGE_CURVE('',#300,#308,#312,.T.);
#314=ORIENTED_EDGE('',*,*,#313,.T.);
#315=CARTESIAN_POINT('',(-0.406733221504,-0.924482604771,0.275000000000));
#316=VERTEX_POINT('',#315);
#317=CARTESIAN_POINT('',(0.095262794416,-0.055000000000,0.275000000000));
#318=DIRECTION('',(0.500000000000,0.866025403784,0.000000000000));
#319=VECTOR('',#318,1.0);
#320=LINE('',#317,#319);
#321=EDGE_CURVE('',#308,#316,#320,.T.);
#322=ORIENTED_EDGE('',*,*,#321,.T.);
#323=CARTESIAN_POINT('',(-0.110000000000,-1.003992031841,0.275000000000));
#324=VERTEX_POINT('',#323);
#325=CIRCLE('',#140,1.010000000000);
#326=EDGE_CURVE('',#316,#324,#325,.T.);
#327=ORIENTED_EDGE('',*,*,#326,.T.);
#328=CARTESIAN_POINT('',(-0.110000000000,-1.150000000000,0.275000000000));
#329=VERTEX_POINT('',#328);
#330=CARTESIAN_POINT('',(-0.110000000000,0.000000000000,0.275000000000));
#331=LINE('',#330,#33);
#332=EDGE_CURVE('',#324,#329,#331,.T.);
#333=ORIENTED_EDGE('',*,*,#332,.T.);
#334=CARTESIAN_POINT('',(0.110000000000,-1.150000000000,0.275000000000));
#335=VERTEX_POINT('',#334);
#336=CARTESIAN_POINT('',(0.000000000000,-1.150000000000,0.275000000000));
#337=LINE('',#336,#62);
#338=EDGE_CURVE('',#329,#335,#337,.T.);
#339=ORIENTED_EDGE('',*,*,#338,.T.);
#340=CARTESIAN_POINT('',(0.110000000000,-1.003992031841,0.275000000000));
#341=VERTEX_POINT('',#340);
#342=CARTESIAN_POINT('',(0.110000000000,0.000000000000,0.275000000000));
#343=LINE('',#342,#19);
#344=EDGE_CURVE('',#335,#341,#343,.T.);
#345=ORIENTED_EDGE('',*,*,#344,.T.);
#346=CARTESIAN_POINT('',(0.406733221504,-0.924482604771,0.275000000000));
#347=VERTEX_POINT('',#346);
#348=CIRCLE('',#140,1.010000000000);
#349=EDGE_CURVE('',#341,#347,#348,.T.);
#350=ORIENTED_EDGE('',*,*,#349,.T.);
#351=CARTESIAN_POINT('',(0.479737205584,-1.050929214352,0.275000000000));
#352=VERTEX_POINT('',#351);
#353=CARTESIAN_POINT('',(-0.095262794416,-0.055000000000,0.275000000000));
#354=LINE('',#353,#282);
#355=EDGE_CURVE('',#347,#352,#354,.T.);
#356=ORIENTED_EDGE('',*,*,#355,.T.);
#357=CARTESIAN_POINT('',(0.670262794416,-0.940929214352,0.275000000000));
#358=VERTEX_POINT('',#357);
#359=CARTESIAN_POINT('',(0.575000000000,-0.995929214352,0.275000000000));
#360=LINE('',#359,#290);
#361=EDGE_CURVE('',#352,#358,#360,.T.);
#362=ORIENTED_EDGE('',*,*,#361,.T.);
#363=CARTESIAN_POINT('',(0.597258810337,-0.814482604771,0.275000000000));
#364=VERTEX_POINT('',#363);
#365=CARTESIAN_POINT('',(0.095262794416,0.055000000000,0.275000000000));
#366=DIRECTION('',(-0.500000000000,0.866025403784,0.000000000000));
#367=VECTOR('',#366,1.0);
#368=LINE('',#365,#367);
#369=EDGE_CURVE('',#358,#364,#368,.T.);
#370=ORIENTED_EDGE('',*,*,#369,.T.);
#371=CARTESIAN_POINT('',(0.814482604771,-0.597258810337,0.275000000000));
#372=VERTEX_POINT('',#371);
#373=CIRCLE('',#140,1.010000000000);
#374=EDGE_CURVE('',#364,#372,#373,.T.);
#375=ORIENTED_EDGE('',*,*,#374,.T.);
#376=CARTESIAN_POINT('',(0.940929214352,-0.670262794416,0.275000000000));
#377=VERTEX_POINT('',#376);
#378=CARTESIAN_POINT('',(-0.055000000000,-0.095262794416,0.275000000000));
#379=LINE('',#378,#311);
#380=EDGE_CURVE('',#372,#377,#379,.T.);
#381=ORIENTED_EDGE('',*,*,#380,.T.);
#382=CARTESIAN_POINT('',(1.050929214352,-0.479737205584,0.275000000000));
#383=VERTEX_POINT('',#382);
#384=CARTESIAN_POINT('',(0.995929214352,-0.575000000000,0.275000000000));
#385=LINE('',#384,#319);
#386=EDGE_CURVE('',#377,#383,#385,.T.);
#387=ORIENTED_EDGE('',*,*,#386,.T.);
#388=CARTESIAN_POINT('',(0.924482604771,-0.406733221504,0.275000000000));
#389=VERTEX_POINT('',#388);
#390=CARTESIAN_POINT('',(0.055000000000,0.095262794416,0.275000000000));
#391=DIRECTION('',(-0.866025403784,0.500000000000,0.000000000000));
#392=VECTOR('',#391,1.0);
#393=LINE('',#390,#392);
#394=EDGE_CURVE('',#383,#389,#393,.T.);
#395=ORIENTED_EDGE('',*,*,#394,.T.);
#396=CIRCLE('',#140,1.010000000000);
#397=EDGE_CURVE('',#389,#46,#396,.T.);
#398=ORIENTED_EDGE('',*,*,#397,.T.);
#399=ORIENTED_EDGE('',*,*,#50,.F.);
#400=CARTESIAN_POINT('',(1.150000000000,0.000000000000,0.275000000000));
#401=LINE('',#400,#19);
#402=EDGE_CURVE('',#44,#115,#401,.T.);
#403=ORIENTED_EDGE('',*,*,#402,.T.);
#404=ORIENTED_EDGE('',*,*,#117,.F.);
#405=CARTESIAN_POINT('',(0.924482604771,0.406733221504,0.275000000000));
#406=VERTEX_POINT('',#405);
#407=CIRCLE('',#140,1.010000000000);
#408=EDGE_CURVE('',#113,#406,#407,.T.);
#409=ORIENTED_EDGE('',*,*,#408,.T.);
#410=CARTESIAN_POINT('',(1.050929214352,0.479737205584,0.275000000000));
#411=VERTEX_POINT('',#410);
#412=LINE('',#288,#290);
#413=EDGE_CURVE('',#406,#411,#412,.T.);
#414=ORIENTED_EDGE('',*,*,#413,.T.);
#415=CARTESIAN_POINT('',(0.940929214352,0.670262794416,0.275000000000));
#416=VERTEX_POINT('',#415);
#417=CARTESIAN_POINT('',(0.995929214352,0.575000000000,0.275000000000));
#418=LINE('',#417,#367);
#419=EDGE_CURVE('',#411,#416,#418,.T.);
#420=ORIENTED_EDGE('',*,*,#419,.T.);
#421=CARTESIAN_POINT('',(0.814482604771,0.597258810337,0.275000000000));
#422=VERTEX_POINT('',#421);
#423=LINE('',#272,#274);
#424=EDGE_CURVE('',#416,#422,#423,.T.);
#425=ORIENTED_EDGE('',*,*,#424,.T.);
#426=CARTESIAN_POINT('',(0.597258810337,0.814482604771,0.275000000000));
#427=VERTEX_POINT('',#426);
#428=CIRCLE('',#140,1.010000000000);
#429=EDGE_CURVE('',#422,#427,#428,.T.);
#430=ORIENTED_EDGE('',*,*,#429,.T.);
#431=CARTESIAN_POINT('',(0.670262794416,0.940929214352,0.275000000000));
#432=VERTEX_POINT('',#431);
#433=LINE('',#317,#319);
#434=EDGE_CURVE('',#427,#432,#433,.T.);
#435=ORIENTED_EDGE('',*,*,#434,.T.);
#436=CARTESIAN_POINT('',(0.479737205584,1.050929214352,0.275000000000));
#437=VERTEX_POINT('',#436);
#438=CARTESIAN_POINT('',(0.575000000000,0.995929214352,0.275000000000));
#439=LINE('',#438,#392);
#440=EDGE_CURVE('',#432,#437,#439,.T.);
#441=ORIENTED_EDGE('',*,*,#440,.T.);
#442=CARTESIAN_POINT('',(0.406733221504,0.924482604771,0.275000000000));
#443=VERTEX_POINT('',#442);
#444=LINE('',#301,#303);
#445=EDGE_CURVE('',#437,#443,#444,.T.);
#446=ORIENTED_EDGE('',*,*,#445,.T.);
#447=CARTESIAN_POINT('',(0.110000000000,1.003992031841,0.275000000000));
#448=VERTEX_POINT('',#447);
#449=CIRCLE('',#140,1.010000000000);
#450=EDGE_CURVE('',#443,#448,#449,.T.);
#451=ORIENTED_EDGE('',*,*,#450,.T.);
#452=CARTESIAN_POINT('',(0.110000000000,1.150000000000,0.275000000000));
#453=VERTEX_POINT('',#452);
#454=LINE('',#342,#19);
#455=EDGE_CURVE('',#448,#453,#454,.T.);
#456=ORIENTED_EDGE('',*,*,#455,.T.);
#457=CARTESIAN_POINT('',(-0.110000000000,1.150000000000,0.275000000000));
#458=VERTEX_POINT('',#457);
#459=CARTESIAN_POINT('',(0.000000000000,1.150000000000,0.275000000000));
#460=LINE('',#459,#48);
#461=EDGE_CURVE('',#453,#458,#460,.T.);
#462=ORIENTED_EDGE('',*,*,#461,.T.);
#463=CARTESIAN_POINT('',(-0.110000000000,1.003992031841,0.275000000000));
#464=VERTEX_POINT('',#463);
#465=LINE('',#330,#33);
#466=EDGE_CURVE('',#458,#464,#465,.T.);
#467=ORIENTED_EDGE('',*,*,#466,.T.);
#468=CARTESIAN_POINT('',(-0.406733221504,0.924482604771,0.275000000000));
#469=VERTEX_POINT('',#468);
#470=CIRCLE('',#140,1.010000000000);
#471=EDGE_CURVE('',#464,#469,#470,.T.);
#472=ORIENTED_EDGE('',*,*,#471,.T.);
#473=CARTESIAN_POINT('',(-0.479737205584,1.050929214352,0.275000000000));
#474=VERTEX_POINT('',#473);
#475=LINE('',#365,#367);
#476=EDGE_CURVE('',#469,#474,#475,.T.);
#477=ORIENTED_EDGE('',*,*,#476,.T.);
#478=CARTESIAN_POINT('',(-0.670262794416,0.940929214352,0.275000000000));
#479=VERTEX_POINT('',#478);
#480=CARTESIAN_POINT('',(-0.575000000000,0.995929214352,0.275000000000));
#481=LINE('',#480,#274);
#482=EDGE_CURVE('',#474,#479,#481,.T.);
#483=ORIENTED_EDGE('',*,*,#482,.T.);
#484=CARTESIAN_POINT('',(-0.597258810337,0.814482604771,0.275000000000));
#485=VERTEX_POINT('',#484);
#486=LINE('',#353,#282);
#487=EDGE_CURVE('',#479,#485,#486,.T.);
#488=ORIENTED_EDGE('',*,*,#487,.T.);
#489=CARTESIAN_POINT('',(-0.814482604771,0.597258810337,0.275000000000));
#490=VERTEX_POINT('',#489);
#491=CIRCLE('',#140,1.010000000000);
#492=EDGE_CURVE('',#485,#490,#491,.T.);
#493=ORIENTED_EDGE('',*,*,#492,.T.);
#494=CARTESIAN_POINT('',(-0.940929214352,0.670262794416,0.275000000000));
#495=VERTEX_POINT('',#494);
#496=LINE('',#390,#392);
#497=EDGE_CURVE('',#490,#495,#496,.T.);
#498=ORIENTED_EDGE('',*,*,#497,.T.);
#499=CARTESIAN_POINT('',(-1.050929214352,0.479737205584,0.275000000000));
#500=VERTEX_POINT('',#499);
#501=CARTESIAN_POINT('',(-0.995929214352,0.575000000000,0.275000000000));
#502=LINE('',#501,#303);
#503=EDGE_CURVE('',#495,#500,#502,.T.);
#504=ORIENTED_EDGE('',*,*,#503,.T.);
#505=CARTESIAN_POINT('',(-0.924482604771,0.406733221504,0.275000000000));
#506=VERTEX_POINT('',#505);
#507=LINE('',#378,#311);
#508=EDGE_CURVE('',#500,#506,#507,.T.);
#509=ORIENTED_EDGE('',*,*,#508,.T.);
#510=CIRCLE('',#140,1.010000000000);
#511=EDGE_CURVE('',#506,#96,#510,.T.);
#512=ORIENTED_EDGE('',*,*,#511,.T.);
#513=ORIENTED_EDGE('',*,*,#99,.F.);
#514=EDGE_LOOP('',(#263,#264,#269,#277,#285,#293,#298,#306,#314,#322,#327,#333,#339,#345,#350,#356,#362,#370,#375,#381,#387,#395,#398,#399,#403,#404,#409,#414,#420,#425,#430,#435,#441,#446,#451,#456,#462,#467,#472,#477,#483,#488,#493,#498,#504,#509,#512,#513));
#515=FACE_BOUND('',#262,.T.);
#516=FACE_OUTER_BOUND('',#514,.T.);
#517=ADVANCED_FACE('',(#515,#516),#141,.T.);
#518=CARTESIAN_POINT('',(0.000000000000,0.000000000000,-0.275000000000));
#519=AXIS2_PLACEMENT_3D('',#518,#26,#32);
#520=PLANE('',#519);
#521=CARTESIAN_POINT('',(-0.110000000000,0.446654228683,-0.275000000000));
#522=VERTEX_POINT('',#521);
#523=CARTESIAN_POINT('',(-0.128064319925,0.441813908747,-0.275000000000));
#524=VERTEX_POINT('',#523);
#525=AXIS2_PLACEMENT_3D('',#518,#11,#3);
#526=CIRCLE('',#525,0.460000000000);
#527=EDGE_CURVE('',#522,#524,#526,.T.);
#528=ORIENTED_EDGE('',*,*,#527,.T.);
#529=CARTESIAN_POINT('',(-0.318589908758,0.331813908747,-0.275000000000));
#530=VERTEX_POINT('',#529);
#531=CIRCLE('',#525,0.460000000000);
#532=EDGE_CURVE('',#524,#530,#531,.T.);
#533=ORIENTED_EDGE('',*,*,#532,.T.);
#534=CARTESIAN_POINT('',(-0.331813908747,0.318589908758,-0.275000000000));
#535=VERTEX_POINT('',#534);
#536=CIRCLE('',#525,0.460000000000);
#537=EDGE_CURVE('',#530,#535,#536,.T.);
#538=ORIENTED_EDGE('',*,*,#537,.T.);
#539=CARTESIAN_POINT('',(-0.441813908747,0.128064319925,-0.275000000000));
#540=VERTEX_POINT('',#539);
#541=CIRCLE('',#525,0.460000000000);
#542=EDGE_CURVE('',#535,#540,#541,.T.);
#543=ORIENTED_EDGE('',*,*,#542,.T.);
#544=CARTESIAN_POINT('',(-0.446654228683,0.110000000000,-0.275000000000));
#545=VERTEX_POINT('',#544);
#546=CIRCLE('',#525,0.460000000000);
#547=EDGE_CURVE('',#540,#545,#546,.T.);
#548=ORIENTED_EDGE('',*,*,#547,.T.);
#549=CARTESIAN_POINT('',(-0.446654228683,-0.110000000000,-0.275000000000));
#550=VERTEX_POINT('',#549);
#551=CIRCLE('',#525,0.460000000000);
#552=EDGE_CURVE('',#545,#550,#551,.T.);
#553=ORIENTED_EDGE('',*,*,#552,.T.);
#554=CARTESIAN_POINT('',(-0.441813908747,-0.128064319925,-0.275000000000));
#555=VERTEX_POINT('',#554);
#556=CIRCLE('',#525,0.460000000000);
#557=EDGE_CURVE('',#550,#555,#556,.T.);
#558=ORIENTED_EDGE('',*,*,#557,.T.);
#559=CARTESIAN_POINT('',(-0.331813908747,-0.318589908758,-0.275000000000));
#560=VERTEX_POINT('',#559);
#561=CIRCLE('',#525,0.460000000000);
#562=EDGE_CURVE('',#555,#560,#561,.T.);
#563=ORIENTED_EDGE('',*,*,#562,.T.);
#564=CARTESIAN_POINT('',(-0.318589908758,-0.331813908747,-0.275000000000));
#565=VERTEX_POINT('',#564);
#566=CIRCLE('',#525,0.460000000000);
#567=EDGE_CURVE('',#560,#565,#566,.T.);
#568=ORIENTED_EDGE('',*,*,#567,.T.);
#569=CARTESIAN_POINT('',(-0.128064319925,-0.441813908747,-0.275000000000));
#570=VERTEX_POINT('',#569);
#571=CIRCLE('',#525,0.460000000000);
#572=EDGE_CURVE('',#565,#570,#571,.T.);
#573=ORIENTED_EDGE('',*,*,#572,.T.);
#574=CARTESIAN_POINT('',(-0.110000000000,-0.446654228683,-0.275000000000));
#575=VERTEX_POINT('',#574);
#576=CIRCLE('',#525,0.460000000000);
#577=EDGE_CURVE('',#570,#575,#576,.T.);
#578=ORIENTED_EDGE('',*,*,#577,.T.);
#579=CARTESIAN_POINT('',(0.110000000000,-0.446654228683,-0.275000000000));
#580=VERTEX_POINT('',#579);
#581=CIRCLE('',#525,0.460000000000);
#582=EDGE_CURVE('',#575,#580,#581,.T.);
#583=ORIENTED_EDGE('',*,*,#582,.T.);
#584=CARTESIAN_POINT('',(0.128064319925,-0.441813908747,-0.275000000000));
#585=VERTEX_POINT('',#584);
#586=CIRCLE('',#525,0.460000000000);
#587=EDGE_CURVE('',#580,#585,#586,.T.);
#588=ORIENTED_EDGE('',*,*,#587,.T.);
#589=CARTESIAN_POINT('',(0.318589908758,-0.331813908747,-0.275000000000));
#590=VERTEX_POINT('',#589);
#591=CIRCLE('',#525,0.460000000000);
#592=EDGE_CURVE('',#585,#590,#591,.T.);
#593=ORIENTED_EDGE('',*,*,#592,.T.);
#594=CARTESIAN_POINT('',(0.331813908747,-0.318589908758,-0.275000000000));
#595=VERTEX_POINT('',#594);
#596=CIRCLE('',#525,0.460000000000);
#597=EDGE_CURVE('',#590,#595,#596,.T.);
#598=ORIENTED_EDGE('',*,*,#597,.T.);
#599=CARTESIAN_POINT('',(0.441813908747,-0.128064319925,-0.275000000000));
#600=VERTEX_POINT('',#599);
#601=CIRCLE('',#525,0.460000000000);
#602=EDGE_CURVE('',#595,#600,#601,.T.);
#603=ORIENTED_EDGE('',*,*,#602,.T.);
#604=CARTESIAN_POINT('',(0.446654228683,-0.110000000000,-0.275000000000));
#605=VERTEX_POINT('',#604);
#606=CIRCLE('',#525,0.460000000000);
#607=EDGE_CURVE('',#600,#605,#606,.T.);
#608=ORIENTED_EDGE('',*,*,#607,.T.);
#609=CARTESIAN_POINT('',(0.446654228683,0.110000000000,-0.275000000000));
#610=VERTEX_POINT('',#609);
#611=CIRCLE('',#525,0.460000000000);
#612=EDGE_CURVE('',#605,#610,#611,.T.);
#613=ORIENTED_EDGE('',*,*,#612,.T.);
#614=CARTESIAN_POINT('',(0.441813908747,0.128064319925,-0.275000000000));
#615=VERTEX_POINT('',#614);
#616=CIRCLE('',#525,0.460000000000);
#617=EDGE_CURVE('',#610,#615,#616,.T.);
#618=ORIENTED_EDGE('',*,*,#617,.T.);
#619=CARTESIAN_POINT('',(0.331813908747,0.318589908758,-0.275000000000));
#620=VERTEX_POINT('',#619);
#621=CIRCLE('',#525,0.460000000000);
#622=EDGE_CURVE('',#615,#620,#621,.T.);
#623=ORIENTED_EDGE('',*,*,#622,.T.);
#624=CARTESIAN_POINT('',(0.318589908758,0.331813908747,-0.275000000000));
#625=VERTEX_POINT('',#624);
#626=CIRCLE('',#525,0.460000000000);
#627=EDGE_CURVE('',#620,#625,#626,.T.);
#628=ORIENTED_EDGE('',*,*,#627,.T.);
#629=CARTESIAN_POINT('',(0.128064319925,0.441813908747,-0.275000000000));
#630=VERTEX_POINT('',#629);
#631=CIRCLE('',#525,0.460000000000);
#632=EDGE_CURVE('',#625,#630,#631,.T.);
#633=ORIENTED_EDGE('',*,*,#632,.T.);
#634=CARTESIAN_POINT('',(0.110000000000,0.446654228683,-0.275000000000));
#635=VERTEX_POINT('',#634);
#636=CIRCLE('',#525,0.460000000000);
#637=EDGE_CURVE('',#630,#635,#636,.T.);
#638=ORIENTED_EDGE('',*,*,#637,.T.);
#639=CIRCLE('',#525,0.460000000000);
#640=EDGE_CURVE('',#635,#522,#639,.T.);
#641=ORIENTED_EDGE('',*,*,#640,.T.);
#642=EDGE_LOOP('',(#528,#533,#538,#543,#548,#553,#558,#563,#568,#573,#578,#583,#588,#593,#598,#603,#608,#613,#618,#623,#628,#633,#638,#641));
#643=ORIENTED_EDGE('',*,*,#35,.F.);
#644=ORIENTED_EDGE('',*,*,#109,.F.);
#645=CARTESIAN_POINT('',(-0.924482604771,0.406733221504,-0.275000000000));
#646=VERTEX_POINT('',#645);
#647=CIRCLE('',#525,1.010000000000);
#648=EDGE_CURVE('',#646,#102,#647,.T.);
#649=ORIENTED_EDGE('',*,*,#648,.F.);
#650=CARTESIAN_POINT('',(-1.050929214352,0.479737205584,-0.275000000000));
#651=VERTEX_POINT('',#650);
#652=CARTESIAN_POINT('',(-0.055000000000,-0.095262794416,-0.275000000000));
#653=LINE('',#652,#392);
#654=EDGE_CURVE('',#646,#651,#653,.T.);
#655=ORIENTED_EDGE('',*,*,#654,.T.);
#656=CARTESIAN_POINT('',(-0.940929214352,0.670262794416,-0.275000000000));
#657=VERTEX_POINT('',#656);
#658=CARTESIAN_POINT('',(-0.995929214352,0.575000000000,-0.275000000000));
#659=LINE('',#658,#319);
#660=EDGE_CURVE('',#651,#657,#659,.T.);
#661=ORIENTED_EDGE('',*,*,#660,.T.);
#662=CARTESIAN_POINT('',(-0.814482604771,0.597258810337,-0.275000000000));
#663=VERTEX_POINT('',#662);
#664=CARTESIAN_POINT('',(0.055000000000,0.095262794416,-0.275000000000));
#665=LINE('',#664,#311);
#666=EDGE_CURVE('',#657,#663,#665,.T.);
#667=ORIENTED_EDGE('',*,*,#666,.T.);
#668=CARTESIAN_POINT('',(-0.597258810337,0.814482604771,-0.275000000000));
#669=VERTEX_POINT('',#668);
#670=CIRCLE('',#525,1.010000000000);
#671=EDGE_CURVE('',#669,#663,#670,.T.);
#672=ORIENTED_EDGE('',*,*,#671,.F.);
#673=CARTESIAN_POINT('',(-0.670262794416,0.940929214352,-0.275000000000));
#674=VERTEX_POINT('',#673);
#675=CARTESIAN_POINT('',(-0.095262794416,-0.055000000000,-0.275000000000));
#676=LINE('',#675,#367);
#677=EDGE_CURVE('',#669,#674,#676,.T.);
#678=ORIENTED_EDGE('',*,*,#677,.T.);
#679=CARTESIAN_POINT('',(-0.479737205584,1.050929214352,-0.275000000000));
#680=VERTEX_POINT('',#679);
#681=CARTESIAN_POINT('',(-0.575000000000,0.995929214352,-0.275000000000));
#682=LINE('',#681,#290);
#683=EDGE_CURVE('',#674,#680,#682,.T.);
#684=ORIENTED_EDGE('',*,*,#683,.T.);
#685=CARTESIAN_POINT('',(-0.406733221504,0.924482604771,-0.275000000000));
#686=VERTEX_POINT('',#685);
#687=CARTESIAN_POINT('',(0.095262794416,0.055000000000,-0.275000000000));
#688=LINE('',#687,#282);
#689=EDGE_CURVE('',#680,#686,#688,.T.);
#690=ORIENTED_EDGE('',*,*,#689,.T.);
#691=CARTESIAN_POINT('',(-0.110000000000,1.003992031841,-0.275000000000));
#692=VERTEX_POINT('',#691);
#693=CIRCLE('',#525,1.010000000000);
#694=EDGE_CURVE('',#692,#686,#693,.T.);
#695=ORIENTED_EDGE('',*,*,#694,.F.);
#696=CARTESIAN_POINT('',(-0.110000000000,1.150000000000,-0.275000000000));
#697=VERTEX_POINT('',#696);
#698=CARTESIAN_POINT('',(-0.110000000000,0.000000000000,-0.275000000000));
#699=LINE('',#698,#19);
#700=EDGE_CURVE('',#692,#697,#699,.T.);
#701=ORIENTED_EDGE('',*,*,#700,.T.);
#702=CARTESIAN_POINT('',(0.110000000000,1.150000000000,-0.275000000000));
#703=VERTEX_POINT('',#702);
#704=CARTESIAN_POINT('',(0.000000000000,1.150000000000,-0.275000000000));
#705=LINE('',#704,#62);
#706=EDGE_CURVE('',#697,#703,#705,.T.);
#707=ORIENTED_EDGE('',*,*,#706,.T.);
#708=CARTESIAN_POINT('',(0.110000000000,1.003992031841,-0.275000000000));
#709=VERTEX_POINT('',#708);
#710=CARTESIAN_POINT('',(0.110000000000,0.000000000000,-0.275000000000));
#711=LINE('',#710,#33);
#712=EDGE_CURVE('',#703,#709,#711,.T.);
#713=ORIENTED_EDGE('',*,*,#712,.T.);
#714=CARTESIAN_POINT('',(0.406733221504,0.924482604771,-0.275000000000));
#715=VERTEX_POINT('',#714);
#716=CIRCLE('',#525,1.010000000000);
#717=EDGE_CURVE('',#715,#709,#716,.T.);
#718=ORIENTED_EDGE('',*,*,#717,.F.);
#719=CARTESIAN_POINT('',(0.479737205584,1.050929214352,-0.275000000000));
#720=VERTEX_POINT('',#719);
#721=CARTESIAN_POINT('',(-0.095262794416,0.055000000000,-0.275000000000));
#722=LINE('',#721,#319);
#723=EDGE_CURVE('',#715,#720,#722,.T.);
#724=ORIENTED_EDGE('',*,*,#723,.T.);
#725=CARTESIAN_POINT('',(0.670262794416,0.940929214352,-0.275000000000));
#726=VERTEX_POINT('',#725);
#727=CARTESIAN_POINT('',(0.575000000000,0.995929214352,-0.275000000000));
#728=LINE('',#727,#311);
#729=EDGE_CURVE('',#720,#726,#728,.T.);
#730=ORIENTED_EDGE('',*,*,#729,.T.);
#731=CARTESIAN_POINT('',(0.597258810337,0.814482604771,-0.275000000000));
#732=VERTEX_POINT('',#731);
#733=CARTESIAN_POINT('',(0.095262794416,-0.055000000000,-0.275000000000));
#734=LINE('',#733,#303);
#735=EDGE_CURVE('',#726,#732,#734,.T.);
#736=ORIENTED_EDGE('',*,*,#735,.T.);
#737=CARTESIAN_POINT('',(0.814482604771,0.597258810337,-0.275000000000));
#738=VERTEX_POINT('',#737);
#739=CIRCLE('',#525,1.010000000000);
#740=EDGE_CURVE('',#738,#732,#739,.T.);
#741=ORIENTED_EDGE('',*,*,#740,.F.);
#742=CARTESIAN_POINT('',(0.940929214352,0.670262794416,-0.275000000000));
#743=VERTEX_POINT('',#742);
#744=CARTESIAN_POINT('',(-0.055000000000,0.095262794416,-0.275000000000));
#745=LINE('',#744,#290);
#746=EDGE_CURVE('',#738,#743,#745,.T.);
#747=ORIENTED_EDGE('',*,*,#746,.T.);
#748=CARTESIAN_POINT('',(1.050929214352,0.479737205584,-0.275000000000));
#749=VERTEX_POINT('',#748);
#750=CARTESIAN_POINT('',(0.995929214352,0.575000000000,-0.275000000000));
#751=LINE('',#750,#282);
#752=EDGE_CURVE('',#743,#749,#751,.T.);
#753=ORIENTED_EDGE('',*,*,#752,.T.);
#754=CARTESIAN_POINT('',(0.924482604771,0.406733221504,-0.275000000000));
#755=VERTEX_POINT('',#754);
#756=CARTESIAN_POINT('',(0.055000000000,-0.095262794416,-0.275000000000));
#757=LINE('',#756,#274);
#758=EDGE_CURVE('',#749,#755,#757,.T.);
#759=ORIENTED_EDGE('',*,*,#758,.T.);
#760=CIRCLE('',#525,1.010000000000);
#761=EDGE_CURVE('',#126,#755,#760,.T.);
#762=ORIENTED_EDGE('',*,*,#761,.F.);
#763=ORIENTED_EDGE('',*,*,#128,.F.);
#764=CARTESIAN_POINT('',(1.150000000000,0.000000000000,-0.275000000000));
#765=LINE('',#764,#33);
#766=EDGE_CURVE('',#120,#59,#765,.T.);
#767=ORIENTED_EDGE('',*,*,#766,.T.);
#768=ORIENTED_EDGE('',*,*,#64,.F.);
#769=CARTESIAN_POINT('',(0.924482604771,-0.406733221504,-0.275000000000));
#770=VERTEX_POINT('',#769);
#771=CIRCLE('',#525,1.010000000000);
#772=EDGE_CURVE('',#770,#53,#771,.T.);
#773=ORIENTED_EDGE('',*,*,#772,.F.);
#774=CARTESIAN_POINT('',(1.050929214352,-0.479737205584,-0.275000000000));
#775=VERTEX_POINT('',#774);
#776=LINE('',#664,#311);
#777=EDGE_CURVE('',#770,#775,#776,.T.);
#778=ORIENTED_EDGE('',*,*,#777,.T.);
#779=CARTESIAN_POINT('',(0.940929214352,-0.670262794416,-0.275000000000));
#780=VERTEX_POINT('',#779);
#781=CARTESIAN_POINT('',(0.995929214352,-0.575000000000,-0.275000000000));
#782=LINE('',#781,#303);
#783=EDGE_CURVE('',#775,#780,#782,.T.);
#784=ORIENTED_EDGE('',*,*,#783,.T.);
#785=CARTESIAN_POINT('',(0.814482604771,-0.597258810337,-0.275000000000));
#786=VERTEX_POINT('',#785);
#787=LINE('',#652,#392);
#788=EDGE_CURVE('',#780,#786,#787,.T.);
#789=ORIENTED_EDGE('',*,*,#788,.T.);
#790=CARTESIAN_POINT('',(0.597258810337,-0.814482604771,-0.275000000000));
#791=VERTEX_POINT('',#790);
#792=CIRCLE('',#525,1.010000000000);
#793=EDGE_CURVE('',#791,#786,#792,.T.);
#794=ORIENTED_EDGE('',*,*,#793,.F.);
#795=CARTESIAN_POINT('',(0.670262794416,-0.940929214352,-0.275000000000));
#796=VERTEX_POINT('',#795);
#797=LINE('',#687,#282);
#798=EDGE_CURVE('',#791,#796,#797,.T.);
#799=ORIENTED_EDGE('',*,*,#798,.T.);
#800=CARTESIAN_POINT('',(0.479737205584,-1.050929214352,-0.275000000000));
#801=VERTEX_POINT('',#800);
#802=CARTESIAN_POINT('',(0.575000000000,-0.995929214352,-0.275000000000));
#803=LINE('',#802,#274);
#804=EDGE_CURVE('',#796,#801,#803,.T.);
#805=ORIENTED_EDGE('',*,*,#804,.T.);
#806=CARTESIAN_POINT('',(0.406733221504,-0.924482604771,-0.275000000000));
#807=VERTEX_POINT('',#806);
#808=LINE('',#675,#367);
#809=EDGE_CURVE('',#801,#807,#808,.T.);
#810=ORIENTED_EDGE('',*,*,#809,.T.);
#811=CARTESIAN_POINT('',(0.110000000000,-1.003992031841,-0.275000000000));
#812=VERTEX_POINT('',#811);
#813=CIRCLE('',#525,1.010000000000);
#814=EDGE_CURVE('',#812,#807,#813,.T.);
#815=ORIENTED_EDGE('',*,*,#814,.F.);
#816=CARTESIAN_POINT('',(0.110000000000,-1.150000000000,-0.275000000000));
#817=VERTEX_POINT('',#816);
#818=LINE('',#710,#33);
#819=EDGE_CURVE('',#812,#817,#818,.T.);
#820=ORIENTED_EDGE('',*,*,#819,.T.);
#821=CARTESIAN_POINT('',(-0.110000000000,-1.150000000000,-0.275000000000));
#822=VERTEX_POINT('',#821);
#823=CARTESIAN_POINT('',(0.000000000000,-1.150000000000,-0.275000000000));
#824=LINE('',#823,#48);
#825=EDGE_CURVE('',#817,#822,#824,.T.);
#826=ORIENTED_EDGE('',*,*,#825,.T.);
#827=CARTESIAN_POINT('',(-0.110000000000,-1.003992031841,-0.275000000000));
#828=VERTEX_POINT('',#827);
#829=LINE('',#698,#19);
#830=EDGE_CURVE('',#822,#828,#829,.T.);
#831=ORIENTED_EDGE('',*,*,#830,.T.);
#832=CARTESIAN_POINT('',(-0.406733221504,-0.924482604771,-0.275000000000));
#833=VERTEX_POINT('',#832);
#834=CIRCLE('',#525,1.010000000000);
#835=EDGE_CURVE('',#833,#828,#834,.T.);
#836=ORIENTED_EDGE('',*,*,#835,.F.);
#837=CARTESIAN_POINT('',(-0.479737205584,-1.050929214352,-0.275000000000));
#838=VERTEX_POINT('',#837);
#839=LINE('',#733,#303);
#840=EDGE_CURVE('',#833,#838,#839,.T.);
#841=ORIENTED_EDGE('',*,*,#840,.T.);
#842=CARTESIAN_POINT('',(-0.670262794416,-0.940929214352,-0.275000000000));
#843=VERTEX_POINT('',#842);
#844=CARTESIAN_POINT('',(-0.575000000000,-0.995929214352,-0.275000000000));
#845=LINE('',#844,#392);
#846=EDGE_CURVE('',#838,#843,#845,.T.);
#847=ORIENTED_EDGE('',*,*,#846,.T.);
#848=CARTESIAN_POINT('',(-0.597258810337,-0.814482604771,-0.275000000000));
#849=VERTEX_POINT('',#848);
#850=LINE('',#721,#319);
#851=EDGE_CURVE('',#843,#849,#850,.T.);
#852=ORIENTED_EDGE('',*,*,#851,.T.);
#853=CARTESIAN_POINT('',(-0.814482604771,-0.597258810337,-0.275000000000));
#854=VERTEX_POINT('',#853);
#855=CIRCLE('',#525,1.010000000000);
#856=EDGE_CURVE('',#854,#849,#855,.T.);
#857=ORIENTED_EDGE('',*,*,#856,.F.);
#858=CARTESIAN_POINT('',(-0.940929214352,-0.670262794416,-0.275000000000));
#859=VERTEX_POINT('',#858);
#860=LINE('',#756,#274);
#861=EDGE_CURVE('',#854,#859,#860,.T.);
#862=ORIENTED_EDGE('',*,*,#861,.T.);
#863=CARTESIAN_POINT('',(-1.050929214352,-0.479737205584,-0.275000000000));
#864=VERTEX_POINT('',#863);
#865=CARTESIAN_POINT('',(-0.995929214352,-0.575000000000,-0.275000000000));
#866=LINE('',#865,#367);
#867=EDGE_CURVE('',#859,#864,#866,.T.);
#868=ORIENTED_EDGE('',*,*,#867,.T.);
#869=CARTESIAN_POINT('',(-0.924482604771,-0.406733221504,-0.275000000000));
#870=VERTEX_POINT('',#869);
#871=LINE('',#744,#290);
#872=EDGE_CURVE('',#864,#870,#871,.T.);
#873=ORIENTED_EDGE('',*,*,#872,.T.);
#874=CIRCLE('',#525,1.010000000000);
#875=EDGE_CURVE('',#73,#870,#874,.T.);
#876=ORIENTED_EDGE('',*,*,#875,.F.);
#877=ORIENTED_EDGE('',*,*,#75,.F.);
#878=EDGE_LOOP('',(#643,#644,#649,#655,#661,#667,#672,#678,#684,#690,#695,#701,#707,#713,#718,#724,#730,#736,#741,#747,#753,#759,#762,#763,#767,#768,#773,#778,#784,#789,#794,#799,#805,#810,#815,#820,#826,#831,#836,#841,#847,#852,#857,#862,#868,#873,#876,#877));
#879=FACE_BOUND('',#642,.T.);
#880=FACE_OUTER_BOUND('',#878,.T.);
#881=ADVANCED_FACE('',(#879,#880),#520,.T.);
#882=CARTESIAN_POINT('',(0.575000000000,0.995929214352,0.000000000000));
#883=AXIS2_PLACEMENT_3D('',#882,#318,#310);
#884=PLANE('',#883);
#885=ORIENTED_EDGE('',*,*,#440,.F.);
#886=CARTESIAN_POINT('',(0.670262794416,0.940929214352,0.000000000000));
#887=LINE('',#886,#27);
#888=EDGE_CURVE('',#432,#726,#887,.T.);
#889=ORIENTED_EDGE('',*,*,#888,.T.);
#890=ORIENTED_EDGE('',*,*,#729,.F.);
#891=CARTESIAN_POINT('',(0.479737205584,1.050929214352,0.000000000000));
#892=LINE('',#891,#12);
#893=EDGE_CURVE('',#720,#437,#892,.T.);
#894=ORIENTED_EDGE('',*,*,#893,.T.);
#895=EDGE_LOOP('',(#885,#889,#890,#894));
#896=FACE_OUTER_BOUND('',#895,.T.);
#897=ADVANCED_FACE('',(#896),#884,.T.);
#898=CARTESIAN_POINT('',(-0.095262794416,0.055000000000,0.000000000000));
#899=AXIS2_PLACEMENT_3D('',#898,#391,#318);
#900=PLANE('',#899);
#901=ORIENTED_EDGE('',*,*,#445,.F.);
#902=ORIENTED_EDGE('',*,*,#893,.F.);
#903=ORIENTED_EDGE('',*,*,#723,.F.);
#904=CARTESIAN_POINT('',(0.406733221504,0.924482604771,0.000000000000));
#905=LINE('',#904,#12);
#906=EDGE_CURVE('',#715,#443,#905,.T.);
#907=ORIENTED_EDGE('',*,*,#906,.T.);
#908=EDGE_LOOP('',(#901,#902,#903,#907));
#909=ORIENTED_EDGE('',*,*,#305,.F.);
#910=CARTESIAN_POINT('',(-0.597258810337,-0.814482604771,0.000000000000));
#911=LINE('',#910,#12);
#912=EDGE_CURVE('',#849,#295,#911,.T.);
#913=ORIENTED_EDGE('',*,*,#912,.F.);
#914=ORIENTED_EDGE('',*,*,#851,.F.);
#915=CARTESIAN_POINT('',(-0.670262794416,-0.940929214352,0.000000000000));
#916=LINE('',#915,#12);
#917=EDGE_CURVE('',#843,#300,#916,.T.);
#918=ORIENTED_EDGE('',*,*,#917,.T.);
#919=EDGE_LOOP('',(#909,#913,#914,#918));
#920=FACE_OUTER_BOUND('',#908,.T.);
#921=ADVANCED_FACE('',(#920),#900,.T.);
#922=FACE_OUTER_BOUND('',#919,.T.);
#923=ADVANCED_FACE('',(#922),#900,.T.);
#924=CARTESIAN_POINT('',(0.095262794416,-0.055000000000,0.000000000000));
#925=AXIS2_PLACEMENT_3D('',#924,#310,#302);
#926=PLANE('',#925);
#927=ORIENTED_EDGE('',*,*,#321,.F.);
#928=CARTESIAN_POINT('',(-0.479737205584,-1.050929214352,0.000000000000));
#929=LINE('',#928,#27);
#930=EDGE_CURVE('',#308,#838,#929,.T.);
#931=ORIENTED_EDGE('',*,*,#930,.T.);
#932=ORIENTED_EDGE('',*,*,#840,.F.);
#933=CARTESIAN_POINT('',(-0.406733221504,-0.924482604771,0.000000000000));
#934=LINE('',#933,#12);
#935=EDGE_CURVE('',#833,#316,#934,.T.);
#936=ORIENTED_EDGE('',*,*,#935,.T.);
#937=EDGE_LOOP('',(#927,#931,#932,#936));
#938=ORIENTED_EDGE('',*,*,#434,.F.);
#939=CARTESIAN_POINT('',(0.597258810337,0.814482604771,0.000000000000));
#940=LINE('',#939,#12);
#941=EDGE_CURVE('',#732,#427,#940,.T.);
#942=ORIENTED_EDGE('',*,*,#941,.F.);
#943=ORIENTED_EDGE('',*,*,#735,.F.);
#944=ORIENTED_EDGE('',*,*,#888,.F.);
#945=EDGE_LOOP('',(#938,#942,#943,#944));
#946=FACE_OUTER_BOUND('',#937,.T.);
#947=ADVANCED_FACE('',(#946),#926,.T.);
#948=FACE_OUTER_BOUND('',#945,.T.);
#949=ADVANCED_FACE('',(#948),#926,.T.);
#950=CARTESIAN_POINT('',(1.150000000000,0.000000000000,0.000000000000));
#951=AXIS2_PLACEMENT_3D('',#950,#61,#11);
#952=PLANE('',#951);
#953=ORIENTED_EDGE('',*,*,#68,.F.);
#954=ORIENTED_EDGE('',*,*,#766,.F.);
#955=ORIENTED_EDGE('',*,*,#123,.F.);
#956=ORIENTED_EDGE('',*,*,#402,.F.);
#957=EDGE_LOOP('',(#953,#954,#955,#956));
#958=FACE_OUTER_BOUND('',#957,.T.);
#959=ADVANCED_FACE('',(#958),#952,.T.);
#960=CARTESIAN_POINT('',(0.000000000000,0.000000000000,0.000000000000));
#961=AXIS2_PLACEMENT_3D('',#960,#11,#3);
#962=CYLINDRICAL_SURFACE('',#961,1.010000000000);
#963=ORIENTED_EDGE('',*,*,#374,.F.);
#964=CARTESIAN_POINT('',(0.597258810337,-0.814482604771,0.000000000000));
#965=LINE('',#964,#12);
#966=EDGE_CURVE('',#791,#364,#965,.T.);
#967=ORIENTED_EDGE('',*,*,#966,.F.);
#968=ORIENTED_EDGE('',*,*,#793,.T.);
#969=CARTESIAN_POINT('',(0.814482604771,-0.597258810337,0.000000000000));
#970=LINE('',#969,#12);
#971=EDGE_CURVE('',#786,#372,#970,.T.);
#972=ORIENTED_EDGE('',*,*,#971,.T.);
#973=EDGE_LOOP('',(#963,#967,#968,#972));
#974=ORIENTED_EDGE('',*,*,#349,.F.);
#975=CARTESIAN_POINT('',(0.110000000000,-1.003992031841,0.000000000000));
#976=LINE('',#975,#12);
#977=EDGE_CURVE('',#812,#341,#976,.T.);
#978=ORIENTED_EDGE('',*,*,#977,.F.);
#979=ORIENTED_EDGE('',*,*,#814,.T.);
#980=CARTESIAN_POINT('',(0.406733221504,-0.924482604771,0.000000000000));
#981=LINE('',#980,#12);
#982=EDGE_CURVE('',#807,#347,#981,.T.);
#983=ORIENTED_EDGE('',*,*,#982,.T.);
#984=EDGE_LOOP('',(#974,#978,#979,#983));
#985=ORIENTED_EDGE('',*,*,#492,.F.);
#986=CARTESIAN_POINT('',(-0.597258810337,0.814482604771,0.000000000000));
#987=LINE('',#986,#12);
#988=EDGE_CURVE('',#669,#485,#987,.T.);
#989=ORIENTED_EDGE('',*,*,#988,.F.);
#990=ORIENTED_EDGE('',*,*,#671,.T.);
#991=CARTESIAN_POINT('',(-0.814482604771,0.597258810337,0.000000000000));
#992=LINE('',#991,#12);
#993=EDGE_CURVE('',#663,#490,#992,.T.);
#994=ORIENTED_EDGE('',*,*,#993,.T.);
#995=EDGE_LOOP('',(#985,#989,#990,#994));
#996=ORIENTED_EDGE('',*,*,#132,.F.);
#997=ORIENTED_EDGE('',*,*,#761,.T.);
#998=CARTESIAN_POINT('',(0.924482604771,0.406733221504,0.000000000000));
#999=LINE('',#998,#12);
#1000=EDGE_CURVE('',#755,#406,#999,.T.);
#1001=ORIENTED_EDGE('',*,*,#1000,.T.);
#1002=ORIENTED_EDGE('',*,*,#408,.F.);
#1003=EDGE_LOOP('',(#996,#997,#1001,#1002));
#1004=ORIENTED_EDGE('',*,*,#105,.T.);
#1005=ORIENTED_EDGE('',*,*,#511,.F.);
#1006=CARTESIAN_POINT('',(-0.924482604771,0.406733221504,0.000000000000));
#1007=LINE('',#1006,#12);
#1008=EDGE_CURVE('',#646,#506,#1007,.T.);
#1009=ORIENTED_EDGE('',*,*,#1008,.F.);
#1010=ORIENTED_EDGE('',*,*,#648,.T.);
#1011=EDGE_LOOP('',(#1004,#1005,#1009,#1010));
#1012=ORIENTED_EDGE('',*,*,#471,.F.);
#1013=CARTESIAN_POINT('',(-0.110000000000,1.003992031841,0.000000000000));
#1014=LINE('',#1013,#12);
#1015=EDGE_CURVE('',#692,#464,#1014,.T.);
#1016=ORIENTED_EDGE('',*,*,#1015,.F.);
#1017=ORIENTED_EDGE('',*,*,#694,.T.);
#1018=CARTESIAN_POINT('',(-0.406733221504,0.924482604771,0.000000000000));
#1019=LINE('',#1018,#12);
#1020=EDGE_CURVE('',#686,#469,#1019,.T.);
#1021=ORIENTED_EDGE('',*,*,#1020,.T.);
#1022=EDGE_LOOP('',(#1012,#1016,#1017,#1021));
#1023=ORIENTED_EDGE('',*,*,#450,.F.);
#1024=ORIENTED_EDGE('',*,*,#906,.F.);
#1025=ORIENTED_EDGE('',*,*,#717,.T.);
#1026=CARTESIAN_POINT('',(0.110000000000,1.003992031841,0.000000000000));
#1027=LINE('',#1026,#12);
#1028=EDGE_CURVE('',#709,#448,#1027,.T.);
#1029=ORIENTED_EDGE('',*,*,#1028,.T.);
#1030=EDGE_LOOP('',(#1023,#1024,#1025,#1029));
#1031=ORIENTED_EDGE('',*,*,#429,.F.);
#1032=CARTESIAN_POINT('',(0.814482604771,0.597258810337,0.000000000000));
#1033=LINE('',#1032,#12);
#1034=EDGE_CURVE('',#738,#422,#1033,.T.);
#1035=ORIENTED_EDGE('',*,*,#1034,.F.);
#1036=ORIENTED_EDGE('',*,*,#740,.T.);
#1037=ORIENTED_EDGE('',*,*,#941,.T.);
#1038=EDGE_LOOP('',(#1031,#1035,#1036,#1037));
#1039=ORIENTED_EDGE('',*,*,#81,.F.);
#1040=ORIENTED_EDGE('',*,*,#875,.T.);
#1041=CARTESIAN_POINT('',(-0.924482604771,-0.406733221504,0.000000000000));
#1042=LINE('',#1041,#12);
#1043=EDGE_CURVE('',#870,#266,#1042,.T.);
#1044=ORIENTED_EDGE('',*,*,#1043,.T.);
#1045=ORIENTED_EDGE('',*,*,#268,.F.);
#1046=EDGE_LOOP('',(#1039,#1040,#1044,#1045));
#1047=ORIENTED_EDGE('',*,*,#326,.F.);
#1048=ORIENTED_EDGE('',*,*,#935,.F.);
#1049=ORIENTED_EDGE('',*,*,#835,.T.);
#1050=CARTESIAN_POINT('',(-0.110000000000,-1.003992031841,0.000000000000));
#1051=LINE('',#1050,#12);
#1052=EDGE_CURVE('',#828,#324,#1051,.T.);
#1053=ORIENTED_EDGE('',*,*,#1052,.T.);
#1054=EDGE_LOOP('',(#1047,#1048,#1049,#1053));
#1055=ORIENTED_EDGE('',*,*,#297,.F.);
#1056=CARTESIAN_POINT('',(-0.814482604771,-0.597258810337,0.000000000000));
#1057=LINE('',#1056,#12);
#1058=EDGE_CURVE('',#854,#287,#1057,.T.);
#1059=ORIENTED_EDGE('',*,*,#1058,.F.);
#1060=ORIENTED_EDGE('',*,*,#856,.T.);
#1061=ORIENTED_EDGE('',*,*,#912,.T.);
#1062=EDGE_LOOP('',(#1055,#1059,#1060,#1061));
#1063=ORIENTED_EDGE('',*,*,#56,.T.);
#1064=ORIENTED_EDGE('',*,*,#397,.F.);
#1065=CARTESIAN_POINT('',(0.924482604771,-0.406733221504,0.000000000000));
#1066=LINE('',#1065,#12);
#1067=EDGE_CURVE('',#770,#389,#1066,.T.);
#1068=ORIENTED_EDGE('',*,*,#1067,.F.);
#1069=ORIENTED_EDGE('',*,*,#772,.T.);
#1070=EDGE_LOOP('',(#1063,#1064,#1068,#1069));
#1071=FACE_BOUND('',#973,.T.);
#1072=FACE_BOUND('',#984,.T.);
#1073=FACE_BOUND('',#995,.T.);
#1074=FACE_BOUND('',#1003,.T.);
#1075=FACE_BOUND('',#1011,.T.);
#1076=FACE_BOUND('',#1022,.T.);
#1077=FACE_BOUND('',#1030,.T.);
#1078=FACE_BOUND('',#1038,.T.);
#1079=FACE_BOUND('',#1046,.T.);
#1080=FACE_BOUND('',#1054,.T.);
#1081=FACE_BOUND('',#1062,.T.);
#1082=FACE_BOUND('',#1070,.T.);
#1083=ADVANCED_FACE('',(#1071,#1072,#1073,#1074,#1075,#1076,#1077,#1078,#1079,#1080,#1081,#1082),#962,.T.);
#1084=CARTESIAN_POINT('',(-0.575000000000,0.995929214352,0.000000000000));
#1085=AXIS2_PLACEMENT_3D('',#1084,#366,#289);
#1086=PLANE('',#1085);
#1087=ORIENTED_EDGE('',*,*,#482,.F.);
#1088=CARTESIAN_POINT('',(-0.479737205584,1.050929214352,0.000000000000));
#1089=LINE('',#1088,#27);
#1090=EDGE_CURVE('',#474,#680,#1089,.T.);
#1091=ORIENTED_EDGE('',*,*,#1090,.T.);
#1092=ORIENTED_EDGE('',*,*,#683,.F.);
#1093=CARTESIAN_POINT('',(-0.670262794416,0.940929214352,0.000000000000));
#1094=LINE('',#1093,#12);
#1095=EDGE_CURVE('',#674,#479,#1094,.T.);
#1096=ORIENTED_EDGE('',*,*,#1095,.T.);
#1097=EDGE_LOOP('',(#1087,#1091,#1092,#1096));
#1098=FACE_OUTER_BOUND('',#1097,.T.);
#1099=ADVANCED_FACE('',(#1098),#1086,.T.);
#1100=CARTESIAN_POINT('',(-0.095262794416,-0.055000000000,0.000000000000));
#1101=AXIS2_PLACEMENT_3D('',#1100,#273,#366);
#1102=PLANE('',#1101);
#1103=ORIENTED_EDGE('',*,*,#487,.F.);
#1104=ORIENTED_EDGE('',*,*,#1095,.F.);
#1105=ORIENTED_EDGE('',*,*,#677,.F.);
#1106=ORIENTED_EDGE('',*,*,#988,.T.);
#1107=EDGE_LOOP('',(#1103,#1104,#1105,#1106));
#1108=ORIENTED_EDGE('',*,*,#355,.F.);
#1109=ORIENTED_EDGE('',*,*,#982,.F.);
#1110=ORIENTED_EDGE('',*,*,#809,.F.);
#1111=CARTESIAN_POINT('',(0.479737205584,-1.050929214352,0.000000000000));
#1112=LINE('',#1111,#12);
#1113=EDGE_CURVE('',#801,#352,#1112,.T.);
#1114=ORIENTED_EDGE('',*,*,#1113,.T.);
#1115=EDGE_LOOP('',(#1108,#1109,#1110,#1114));
#1116=FACE_OUTER_BOUND('',#1107,.T.);
#1117=ADVANCED_FACE('',(#1116),#1102,.T.);
#1118=FACE_OUTER_BOUND('',#1115,.T.);
#1119=ADVANCED_FACE('',(#1118),#1102,.T.);
#1120=CARTESIAN_POINT('',(0.095262794416,0.055000000000,0.000000000000));
#1121=AXIS2_PLACEMENT_3D('',#1120,#289,#281);
#1122=PLANE('',#1121);
#1123=ORIENTED_EDGE('',*,*,#369,.F.);
#1124=CARTESIAN_POINT('',(0.670262794416,-0.940929214352,0.000000000000));
#1125=LINE('',#1124,#27);
#1126=EDGE_CURVE('',#358,#796,#1125,.T.);
#1127=ORIENTED_EDGE('',*,*,#1126,.T.);
#1128=ORIENTED_EDGE('',*,*,#798,.F.);
#1129=ORIENTED_EDGE('',*,*,#966,.T.);
#1130=EDGE_LOOP('',(#1123,#1127,#1128,#1129));
#1131=ORIENTED_EDGE('',*,*,#476,.F.);
#1132=ORIENTED_EDGE('',*,*,#1020,.F.);
#1133=ORIENTED_EDGE('',*,*,#689,.F.);
#1134=ORIENTED_EDGE('',*,*,#1090,.F.);
#1135=EDGE_LOOP('',(#1131,#1132,#1133,#1134));
#1136=FACE_OUTER_BOUND('',#1130,.T.);
#1137=ADVANCED_FACE('',(#1136),#1122,.T.);
#1138=FACE_OUTER_BOUND('',#1135,.T.);
#1139=ADVANCED_FACE('',(#1138),#1122,.T.);
#1140=CARTESIAN_POINT('',(0.000000000000,-1.150000000000,0.000000000000));
#1141=AXIS2_PLACEMENT_3D('',#1140,#32,#2);
#1142=PLANE('',#1141);
#1143=ORIENTED_EDGE('',*,*,#338,.F.);
#1144=CARTESIAN_POINT('',(-0.110000000000,-1.150000000000,0.000000000000));
#1145=LINE('',#1144,#27);
#1146=EDGE_CURVE('',#329,#822,#1145,.T.);
#1147=ORIENTED_EDGE('',*,*,#1146,.T.);
#1148=ORIENTED_EDGE('',*,*,#825,.F.);
#1149=CARTESIAN_POINT('',(0.110000000000,-1.150000000000,0.000000000000));
#1150=LINE('',#1149,#12);
#1151=EDGE_CURVE('',#817,#335,#1150,.T.);
#1152=ORIENTED_EDGE('',*,*,#1151,.T.);
#1153=EDGE_LOOP('',(#1143,#1147,#1148,#1152));
#1154=FACE_OUTER_BOUND('',#1153,.T.);
#1155=ADVANCED_FACE('',(#1154),#1142,.T.);
#1156=CARTESIAN_POINT('',(0.110000000000,0.000000000000,0.000000000000));
#1157=AXIS2_PLACEMENT_3D('',#1156,#61,#32);
#1158=PLANE('',#1157);
#1159=ORIENTED_EDGE('',*,*,#455,.F.);
#1160=ORIENTED_EDGE('',*,*,#1028,.F.);
#1161=ORIENTED_EDGE('',*,*,#712,.F.);
#1162=CARTESIAN_POINT('',(0.110000000000,1.150000000000,0.000000000000));
#1163=LINE('',#1162,#12);
#1164=EDGE_CURVE('',#703,#453,#1163,.T.);
#1165=ORIENTED_EDGE('',*,*,#1164,.T.);
#1166=EDGE_LOOP('',(#1159,#1160,#1161,#1165));
#1167=ORIENTED_EDGE('',*,*,#344,.F.);
#1168=ORIENTED_EDGE('',*,*,#1151,.F.);
#1169=ORIENTED_EDGE('',*,*,#819,.F.);
#1170=ORIENTED_EDGE('',*,*,#977,.T.);
#1171=EDGE_LOOP('',(#1167,#1168,#1169,#1170));
#1172=FACE_OUTER_BOUND('',#1166,.T.);
#1173=ADVANCED_FACE('',(#1172),#1158,.T.);
#1174=FACE_OUTER_BOUND('',#1171,.T.);
#1175=ADVANCED_FACE('',(#1174),#1158,.T.);
#1176=CARTESIAN_POINT('',(-0.110000000000,0.000000000000,0.000000000000));
#1177=AXIS2_PLACEMENT_3D('',#1176,#2,#3);
#1178=PLANE('',#1177);
#1179=ORIENTED_EDGE('',*,*,#332,.F.);
#1180=ORIENTED_EDGE('',*,*,#1052,.F.);
#1181=ORIENTED_EDGE('',*,*,#830,.F.);
#1182=ORIENTED_EDGE('',*,*,#1146,.F.);
#1183=EDGE_LOOP('',(#1179,#1180,#1181,#1182));
#1184=ORIENTED_EDGE('',*,*,#466,.F.);
#1185=CARTESIAN_POINT('',(-0.110000000000,1.150000000000,0.000000000000));
#1186=LINE('',#1185,#27);
#1187=EDGE_CURVE('',#458,#697,#1186,.T.);
#1188=ORIENTED_EDGE('',*,*,#1187,.T.);
#1189=ORIENTED_EDGE('',*,*,#700,.F.);
#1190=ORIENTED_EDGE('',*,*,#1015,.T.);
#1191=EDGE_LOOP('',(#1184,#1188,#1189,#1190));
#1192=FACE_OUTER_BOUND('',#1183,.T.);
#1193=ADVANCED_FACE('',(#1192),#1178,.T.);
#1194=FACE_OUTER_BOUND('',#1191,.T.);
#1195=ADVANCED_FACE('',(#1194),#1178,.T.);
#1196=CARTESIAN_POINT('',(0.575000000000,-0.995929214352,0.000000000000));
#1197=AXIS2_PLACEMENT_3D('',#1196,#281,#273);
#1198=PLANE('',#1197);
#1199=ORIENTED_EDGE('',*,*,#361,.F.);
#1200=ORIENTED_EDGE('',*,*,#1113,.F.);
#1201=ORIENTED_EDGE('',*,*,#804,.F.);
#1202=ORIENTED_EDGE('',*,*,#1126,.F.);
#1203=EDGE_LOOP('',(#1199,#1200,#1201,#1202));
#1204=FACE_OUTER_BOUND('',#1203,.T.);
#1205=ADVANCED_FACE('',(#1204),#1198,.T.);
#1206=CARTESIAN_POINT('',(0.995929214352,0.575000000000,0.000000000000));
#1207=AXIS2_PLACEMENT_3D('',#1206,#289,#281);
#1208=PLANE('',#1207);
#1209=ORIENTED_EDGE('',*,*,#419,.F.);
#1210=CARTESIAN_POINT('',(1.050929214352,0.479737205584,0.000000000000));
#1211=LINE('',#1210,#27);
#1212=EDGE_CURVE('',#411,#749,#1211,.T.);
#1213=ORIENTED_EDGE('',*,*,#1212,.T.);
#1214=ORIENTED_EDGE('',*,*,#752,.F.);
#1215=CARTESIAN_POINT('',(0.940929214352,0.670262794416,0.000000000000));
#1216=LINE('',#1215,#12);
#1217=EDGE_CURVE('',#743,#416,#1216,.T.);
#1218=ORIENTED_EDGE('',*,*,#1217,.T.);
#1219=EDGE_LOOP('',(#1209,#1213,#1214,#1218));
#1220=FACE_OUTER_BOUND('',#1219,.T.);
#1221=ADVANCED_FACE('',(#1220),#1208,.T.);
#1222=CARTESIAN_POINT('',(-0.055000000000,0.095262794416,0.000000000000));
#1223=AXIS2_PLACEMENT_3D('',#1222,#366,#289);
#1224=PLANE('',#1223);
#1225=ORIENTED_EDGE('',*,*,#424,.F.);
#1226=ORIENTED_EDGE('',*,*,#1217,.F.);
#1227=ORIENTED_EDGE('',*,*,#746,.F.);
#1228=ORIENTED_EDGE('',*,*,#1034,.T.);
#1229=EDGE_LOOP('',(#1225,#1226,#1227,#1228));
#1230=ORIENTED_EDGE('',*,*,#276,.F.);
#1231=ORIENTED_EDGE('',*,*,#1043,.F.);
#1232=ORIENTED_EDGE('',*,*,#872,.F.);
#1233=CARTESIAN_POINT('',(-1.050929214352,-0.479737205584,0.000000000000));
#1234=LINE('',#1233,#12);
#1235=EDGE_CURVE('',#864,#271,#1234,.T.);
#1236=ORIENTED_EDGE('',*,*,#1235,.T.);
#1237=EDGE_LOOP('',(#1230,#1231,#1232,#1236));
#1238=FACE_OUTER_BOUND('',#1229,.T.);
#1239=ADVANCED_FACE('',(#1238),#1224,.T.);
#1240=FACE_OUTER_BOUND('',#1237,.T.);
#1241=ADVANCED_FACE('',(#1240),#1224,.T.);
#1242=CARTESIAN_POINT('',(0.055000000000,-0.095262794416,0.000000000000));
#1243=AXIS2_PLACEMENT_3D('',#1242,#281,#273);
#1244=PLANE('',#1243);
#1245=ORIENTED_EDGE('',*,*,#413,.F.);
#1246=ORIENTED_EDGE('',*,*,#1000,.F.);
#1247=ORIENTED_EDGE('',*,*,#758,.F.);
#1248=ORIENTED_EDGE('',*,*,#1212,.F.);
#1249=EDGE_LOOP('',(#1245,#1246,#1247,#1248));
#1250=ORIENTED_EDGE('',*,*,#292,.F.);
#1251=CARTESIAN_POINT('',(-0.940929214352,-0.670262794416,0.000000000000));
#1252=LINE('',#1251,#27);
#1253=EDGE_CURVE('',#279,#859,#1252,.T.);
#1254=ORIENTED_EDGE('',*,*,#1253,.T.);
#1255=ORIENTED_EDGE('',*,*,#861,.F.);
#1256=ORIENTED_EDGE('',*,*,#1058,.T.);
#1257=EDGE_LOOP('',(#1250,#1254,#1255,#1256));
#1258=FACE_OUTER_BOUND('',#1249,.T.);
#1259=ADVANCED_FACE('',(#1258),#1244,.T.);
#1260=FACE_OUTER_BOUND('',#1257,.T.);
#1261=ADVANCED_FACE('',(#1260),#1244,.T.);
#1262=CYLINDRICAL_SURFACE('',#961,0.460000000000);
#1263=ORIENTED_EDGE('',*,*,#527,.F.);
#1264=ORIENTED_EDGE('',*,*,#640,.F.);
#1265=ORIENTED_EDGE('',*,*,#637,.F.);
#1266=ORIENTED_EDGE('',*,*,#632,.F.);
#1267=ORIENTED_EDGE('',*,*,#627,.F.);
#1268=ORIENTED_EDGE('',*,*,#622,.F.);
#1269=ORIENTED_EDGE('',*,*,#617,.F.);
#1270=ORIENTED_EDGE('',*,*,#612,.F.);
#1271=ORIENTED_EDGE('',*,*,#607,.F.);
#1272=ORIENTED_EDGE('',*,*,#602,.F.);
#1273=ORIENTED_EDGE('',*,*,#597,.F.);
#1274=ORIENTED_EDGE('',*,*,#592,.F.);
#1275=ORIENTED_EDGE('',*,*,#587,.F.);
#1276=ORIENTED_EDGE('',*,*,#582,.F.);
#1277=ORIENTED_EDGE('',*,*,#577,.F.);
#1278=ORIENTED_EDGE('',*,*,#572,.F.);
#1279=ORIENTED_EDGE('',*,*,#567,.F.);
#1280=ORIENTED_EDGE('',*,*,#562,.F.);
#1281=ORIENTED_EDGE('',*,*,#557,.F.);
#1282=ORIENTED_EDGE('',*,*,#552,.F.);
#1283=ORIENTED_EDGE('',*,*,#547,.F.);
#1284=ORIENTED_EDGE('',*,*,#542,.F.);
#1285=ORIENTED_EDGE('',*,*,#537,.F.);
#1286=ORIENTED_EDGE('',*,*,#532,.F.);
#1287=EDGE_LOOP('',(#1263,#1264,#1265,#1266,#1267,#1268,#1269,#1270,#1271,#1272,#1273,#1274,#1275,#1276,#1277,#1278,#1279,#1280,#1281,#1282,#1283,#1284,#1285,#1286));
#1288=ORIENTED_EDGE('',*,*,#147,.T.);
#1289=ORIENTED_EDGE('',*,*,#260,.T.);
#1290=ORIENTED_EDGE('',*,*,#257,.T.);
#1291=ORIENTED_EDGE('',*,*,#252,.T.);
#1292=ORIENTED_EDGE('',*,*,#247,.T.);
#1293=ORIENTED_EDGE('',*,*,#242,.T.);
#1294=ORIENTED_EDGE('',*,*,#237,.T.);
#1295=ORIENTED_EDGE('',*,*,#232,.T.);
#1296=ORIENTED_EDGE('',*,*,#227,.T.);
#1297=ORIENTED_EDGE('',*,*,#222,.T.);
#1298=ORIENTED_EDGE('',*,*,#217,.T.);
#1299=ORIENTED_EDGE('',*,*,#212,.T.);
#1300=ORIENTED_EDGE('',*,*,#207,.T.);
#1301=ORIENTED_EDGE('',*,*,#202,.T.);
#1302=ORIENTED_EDGE('',*,*,#197,.T.);
#1303=ORIENTED_EDGE('',*,*,#192,.T.);
#1304=ORIENTED_EDGE('',*,*,#187,.T.);
#1305=ORIENTED_EDGE('',*,*,#182,.T.);
#1306=ORIENTED_EDGE('',*,*,#177,.T.);
#1307=ORIENTED_EDGE('',*,*,#172,.T.);
#1308=ORIENTED_EDGE('',*,*,#167,.T.);
#1309=ORIENTED_EDGE('',*,*,#162,.T.);
#1310=ORIENTED_EDGE('',*,*,#157,.T.);
#1311=ORIENTED_EDGE('',*,*,#152,.T.);
#1312=EDGE_LOOP('',(#1288,#1289,#1290,#1291,#1292,#1293,#1294,#1295,#1296,#1297,#1298,#1299,#1300,#1301,#1302,#1303,#1304,#1305,#1306,#1307,#1308,#1309,#1310,#1311));
#1313=FACE_BOUND('',#1287,.T.);
#1314=FACE_BOUND('',#1312,.T.);
#1315=ADVANCED_FACE('',(#1313,#1314),#1262,.F.);
#1316=CARTESIAN_POINT('',(0.000000000000,1.150000000000,0.000000000000));
#1317=AXIS2_PLACEMENT_3D('',#1316,#3,#61);
#1318=PLANE('',#1317);
#1319=ORIENTED_EDGE('',*,*,#461,.F.);
#1320=ORIENTED_EDGE('',*,*,#1164,.F.);
#1321=ORIENTED_EDGE('',*,*,#706,.F.);
#1322=ORIENTED_EDGE('',*,*,#1187,.F.);
#1323=EDGE_LOOP('',(#1319,#1320,#1321,#1322));
#1324=FACE_OUTER_BOUND('',#1323,.T.);
#1325=ADVANCED_FACE('',(#1324),#1318,.T.);
#1326=CARTESIAN_POINT('',(-0.995929214352,0.575000000000,0.000000000000));
#1327=AXIS2_PLACEMENT_3D('',#1326,#391,#318);
#1328=PLANE('',#1327);
#1329=ORIENTED_EDGE('',*,*,#503,.F.);
#1330=CARTESIAN_POINT('',(-0.940929214352,0.670262794416,0.000000000000));
#1331=LINE('',#1330,#27);
#1332=EDGE_CURVE('',#495,#657,#1331,.T.);
#1333=ORIENTED_EDGE('',*,*,#1332,.T.);
#1334=ORIENTED_EDGE('',*,*,#660,.F.);
#1335=CARTESIAN_POINT('',(-1.050929214352,0.479737205584,0.000000000000));
#1336=LINE('',#1335,#12);
#1337=EDGE_CURVE('',#651,#500,#1336,.T.);
#1338=ORIENTED_EDGE('',*,*,#1337,.T.);
#1339=EDGE_LOOP('',(#1329,#1333,#1334,#1338));
#1340=FACE_OUTER_BOUND('',#1339,.T.);
#1341=ADVANCED_FACE('',(#1340),#1328,.T.);
#1342=CARTESIAN_POINT('',(-0.055000000000,-0.095262794416,0.000000000000));
#1343=AXIS2_PLACEMENT_3D('',#1342,#302,#391);
#1344=PLANE('',#1343);
#1345=ORIENTED_EDGE('',*,*,#380,.F.);
#1346=ORIENTED_EDGE('',*,*,#971,.F.);
#1347=ORIENTED_EDGE('',*,*,#788,.F.);
#1348=CARTESIAN_POINT('',(0.940929214352,-0.670262794416,0.000000000000));
#1349=LINE('',#1348,#12);
#1350=EDGE_CURVE('',#780,#377,#1349,.T.);
#1351=ORIENTED_EDGE('',*,*,#1350,.T.);
#1352=EDGE_LOOP('',(#1345,#1346,#1347,#1351));
#1353=ORIENTED_EDGE('',*,*,#508,.F.);
#1354=ORIENTED_EDGE('',*,*,#1337,.F.);
#1355=ORIENTED_EDGE('',*,*,#654,.F.);
#1356=ORIENTED_EDGE('',*,*,#1008,.T.);
#1357=EDGE_LOOP('',(#1353,#1354,#1355,#1356));
#1358=FACE_OUTER_BOUND('',#1352,.T.);
#1359=ADVANCED_FACE('',(#1358),#1344,.T.);
#1360=FACE_OUTER_BOUND('',#1357,.T.);
#1361=ADVANCED_FACE('',(#1360),#1344,.T.);
#1362=CARTESIAN_POINT('',(0.055000000000,0.095262794416,0.000000000000));
#1363=AXIS2_PLACEMENT_3D('',#1362,#318,#310);
#1364=PLANE('',#1363);
#1365=ORIENTED_EDGE('',*,*,#394,.F.);
#1366=CARTESIAN_POINT('',(1.050929214352,-0.479737205584,0.000000000000));
#1367=LINE('',#1366,#27);
#1368=EDGE_CURVE('',#383,#775,#1367,.T.);
#1369=ORIENTED_EDGE('',*,*,#1368,.T.);
#1370=ORIENTED_EDGE('',*,*,#777,.F.);
#1371=ORIENTED_EDGE('',*,*,#1067,.T.);
#1372=EDGE_LOOP('',(#1365,#1369,#1370,#1371));
#1373=ORIENTED_EDGE('',*,*,#497,.F.);
#1374=ORIENTED_EDGE('',*,*,#993,.F.);
#1375=ORIENTED_EDGE('',*,*,#666,.F.);
#1376=ORIENTED_EDGE('',*,*,#1332,.F.);
#1377=EDGE_LOOP('',(#1373,#1374,#1375,#1376));
#1378=FACE_OUTER_BOUND('',#1372,.T.);
#1379=ADVANCED_FACE('',(#1378),#1364,.T.);
#1380=FACE_OUTER_BOUND('',#1377,.T.);
#1381=ADVANCED_FACE('',(#1380),#1364,.T.);
#1382=CARTESIAN_POINT('',(-0.575000000000,-0.995929214352,0.000000000000));
#1383=AXIS2_PLACEMENT_3D('',#1382,#302,#391);
#1384=PLANE('',#1383);
#1385=ORIENTED_EDGE('',*,*,#313,.F.);
#1386=ORIENTED_EDGE('',*,*,#917,.F.);
#1387=ORIENTED_EDGE('',*,*,#846,.F.);
#1388=ORIENTED_EDGE('',*,*,#930,.F.);
#1389=EDGE_LOOP('',(#1385,#1386,#1387,#1388));
#1390=FACE_OUTER_BOUND('',#1389,.T.);
#1391=ADVANCED_FACE('',(#1390),#1384,.T.);
#1392=CARTESIAN_POINT('',(0.995929214352,-0.575000000000,0.000000000000));
#1393=AXIS2_PLACEMENT_3D('',#1392,#310,#302);
#1394=PLANE('',#1393);
#1395=ORIENTED_EDGE('',*,*,#386,.F.);
#1396=ORIENTED_EDGE('',*,*,#1350,.F.);
#1397=ORIENTED_EDGE('',*,*,#783,.F.);
#1398=ORIENTED_EDGE('',*,*,#1368,.F.);
#1399=EDGE_LOOP('',(#1395,#1396,#1397,#1398));
#1400=FACE_OUTER_BOUND('',#1399,.T.);
#1401=ADVANCED_FACE('',(#1400),#1394,.T.);
#1402=CARTESIAN_POINT('',(-0.995929214352,-0.575000000000,0.000000000000));
#1403=AXIS2_PLACEMENT_3D('',#1402,#273,#366);
#1404=PLANE('',#1403);
#1405=ORIENTED_EDGE('',*,*,#284,.F.);
#1406=ORIENTED_EDGE('',*,*,#1235,.F.);
#1407=ORIENTED_EDGE('',*,*,#867,.F.);
#1408=ORIENTED_EDGE('',*,*,#1253,.F.);
#1409=EDGE_LOOP('',(#1405,#1406,#1407,#1408));
#1410=FACE_OUTER_BOUND('',#1409,.T.);
#1411=ADVANCED_FACE('',(#1410),#1404,.T.);
#1412=CLOSED_SHELL('',(#39,#88,#90,#136,#138,#517,#881,#897,#921,#923,#947,#949,#959,#1083,#1099,#1117,#1119,#1137,#1139,#1155,#1173,#1175,#1193,#1195,#1205,#1221,#1239,#1241,#1259,#1261,#1315,#1325,#1341,#1359,#1361,#1379,#1381,#1391,#1401,#1411));
#1413=MANIFOLD_SOLID_BREP('hand_setting',#1412);
#1414=APPLICATION_CONTEXT('core data for automotive mechanical design processes');
#1415=APPLICATION_PROTOCOL_DEFINITION('international standard','automotive_design',2000,#1414);
#1416=PRODUCT_CONTEXT('',#1414,'mechanical');
#1417=PRODUCT('hand_setting','hand_setting','',(#1416));
#1418=PRODUCT_DEFINITION_FORMATION('','',#1417);
#1419=PRODUCT_DEFINITION_CONTEXT('part definition',#1414,'design');
#1420=PRODUCT_DEFINITION('','',#1418,#1419);
#1421=PRODUCT_DEFINITION_SHAPE('','',#1420);
#1422=(LENGTH_UNIT()NAMED_UNIT(*)SI_UNIT(.MILLI.,.METRE.));
#1423=(NAMED_UNIT(*)PLANE_ANGLE_UNIT()SI_UNIT($,.RADIAN.));
#1424=(NAMED_UNIT(*)SI_UNIT($,.STERADIAN.)SOLID_ANGLE_UNIT());
#1425=UNCERTAINTY_MEASURE_WITH_UNIT(LENGTH_MEASURE(1.E-07),#1422,'distance_accuracy_value','');
#1426=(GEOMETRIC_REPRESENTATION_CONTEXT(3)GLOBAL_UNCERTAINTY_ASSIGNED_CONTEXT((#1425))GLOBAL_UNIT_ASSIGNED_CONTEXT((#1422,#1423,#1424))REPRESENTATION_CONTEXT('',''));
#1427=ADVANCED_BREP_SHAPE_REPRESENTATION('',(#1413),#1426);
#1428=SHAPE_DEFINITION_REPRESENTATION(#1421,#1427);
ENDSEC;
END-ISO-10303-21;
