ISO-10303-21;
HEADER;
FILE_DESCRIPTION(('16 face(s), 61 edge(s), 48 vertex/vertices confirmed by cade at n=128, half-extent 10.000000000000'),'2;1');
FILE_NAME('automatic_winding.step','2026-08-23T00:00:00',('cade'),('cade'),'cade 0.1.0','cade','');
FILE_SCHEMA(('AUTOMOTIVE_DESIGN { 1 0 10303 214 1 1 1 1 }'));
ENDSEC;
DATA;
#1=CARTESIAN_POINT('',(-0.200000000000,0.000000000000,0.000000000000));
#2=DIRECTION('',(-1.000000000000,0.000000000000,0.000000000000));
#3=DIRECTION('',(0.000000000000,0.000000000000,-1.000000000000));
#4=AXIS2_PLACEMENT_3D('',#1,#2,#3);
#5=PLANE('',#4);
#6=CARTESIAN_POINT('',(-0.200000000000,-2.600000000000,-0.190000000000));
#7=VERTEX_POINT('',#6);
#8=CARTESIAN_POINT('',(-0.200000000000,-2.600000000000,0.190000000000));
#9=VERTEX_POINT('',#8);
#10=CARTESIAN_POINT('',(-0.200000000000,-2.600000000000,0.000000000000));
#11=DIRECTION('',(0.000000000000,0.000000000000,1.000000000000));
#12=VECTOR('',#11,1.0);
#13=LINE('',#10,#12);
#14=EDGE_CURVE('',#7,#9,#13,.T.);
#15=ORIENTED_EDGE('',*,*,#14,.T.);
#16=CARTESIAN_POINT('',(-0.200000000000,-1.259591794227,0.190000000000));
#17=VERTEX_POINT('',#16);
#18=CARTESIAN_POINT('',(-0.200000000000,0.000000000000,0.190000000000));
#19=DIRECTION('',(0.000000000000,1.000000000000,0.000000000000));
#20=VECTOR('',#19,1.0);
#21=LINE('',#18,#20);
#22=EDGE_CURVE('',#9,#17,#21,.T.);
#23=ORIENTED_EDGE('',*,*,#22,.T.);
#24=CARTESIAN_POINT('',(-0.200000000000,-1.259591794227,-0.190000000000));
#25=VERTEX_POINT('',#24);
#26=CARTESIAN_POINT('',(-0.200000000000,-1.259591794227,0.000000000000));
#27=LINE('',#26,#12);
#28=EDGE_CURVE('',#25,#17,#27,.T.);
#29=ORIENTED_EDGE('',*,*,#28,.F.);
#30=CARTESIAN_POINT('',(-0.200000000000,0.000000000000,-0.190000000000));
#31=DIRECTION('',(0.000000000000,-1.000000000000,0.000000000000));
#32=VECTOR('',#31,1.0);
#33=LINE('',#30,#32);
#34=EDGE_CURVE('',#25,#7,#33,.T.);
#35=ORIENTED_EDGE('',*,*,#34,.T.);
#36=EDGE_LOOP('',(#15,#23,#29,#35));
#37=FACE_OUTER_BOUND('',#36,.T.);
#38=ADVANCED_FACE('',(#37),#5,.T.);
#39=CARTESIAN_POINT('',(0.000000000000,-2.600000000000,0.000000000000));
#40=AXIS2_PLACEMENT_3D('',#39,#31,#11);
#41=PLANE('',#40);
#42=ORIENTED_EDGE('',*,*,#14,.F.);
#43=CARTESIAN_POINT('',(0.692121597166,-2.600000000000,-0.190000000000));
#44=VERTEX_POINT('',#43);
#45=CARTESIAN_POINT('',(0.000000000000,-2.600000000000,-0.190000000000));
#46=DIRECTION('',(1.000000000000,0.000000000000,0.000000000000));
#47=VECTOR('',#46,1.0);
#48=LINE('',#45,#47);
#49=EDGE_CURVE('',#7,#44,#48,.T.);
#50=ORIENTED_EDGE('',*,*,#49,.T.);
#51=CARTESIAN_POINT('',(0.692121597166,-2.600000000000,0.190000000000));
#52=VERTEX_POINT('',#51);
#53=CARTESIAN_POINT('',(0.692121597166,-2.600000000000,0.000000000000));
#54=LINE('',#53,#12);
#55=EDGE_CURVE('',#44,#52,#54,.T.);
#56=ORIENTED_EDGE('',*,*,#55,.T.);
#57=CARTESIAN_POINT('',(0.000000000000,-2.600000000000,0.190000000000));
#58=VECTOR('',#2,1.0);
#59=LINE('',#57,#58);
#60=EDGE_CURVE('',#52,#9,#59,.T.);
#61=ORIENTED_EDGE('',*,*,#60,.T.);
#62=EDGE_LOOP('',(#42,#50,#56,#61));
#63=FACE_OUTER_BOUND('',#62,.T.);
#64=ADVANCED_FACE('',(#63),#41,.T.);
#65=CARTESIAN_POINT('',(0.000000000000,0.000000000000,0.190000000000));
#66=AXIS2_PLACEMENT_3D('',#65,#11,#19);
#67=PLANE('',#66);
#68=CARTESIAN_POINT('',(0.800000000000,1.220000000000,0.190000000000));
#69=VERTEX_POINT('',#68);
#70=CARTESIAN_POINT('',(0.800000000000,0.700000000000,0.190000000000));
#71=AXIS2_PLACEMENT_3D('',#70,#11,#19);
#72=CIRCLE('',#71,0.520000000000);
#73=EDGE_CURVE('',#69,#69,#72,.T.);
#74=ORIENTED_EDGE('',*,*,#73,.F.);
#75=EDGE_LOOP('',(#74));
#76=CARTESIAN_POINT('',(-5.500000000000,-1.360000000000,0.190000000000));
#77=VERTEX_POINT('',#76);
#78=CARTESIAN_POINT('',(-5.500000000000,-1.600000000000,0.190000000000));
#79=AXIS2_PLACEMENT_3D('',#78,#11,#19);
#80=CIRCLE('',#79,0.240000000000);
#81=EDGE_CURVE('',#77,#77,#80,.T.);
#82=ORIENTED_EDGE('',*,*,#81,.F.);
#83=EDGE_LOOP('',(#82));
#84=CARTESIAN_POINT('',(2.500000000000,-1.760000000000,0.190000000000));
#85=VERTEX_POINT('',#84);
#86=CARTESIAN_POINT('',(2.500000000000,-2.000000000000,0.190000000000));
#87=AXIS2_PLACEMENT_3D('',#86,#11,#19);
#88=CIRCLE('',#87,0.240000000000);
#89=EDGE_CURVE('',#85,#85,#88,.T.);
#90=ORIENTED_EDGE('',*,*,#89,.F.);
#91=EDGE_LOOP('',(#90));
#92=CARTESIAN_POINT('',(-6.600000000000,0.720000000000,0.190000000000));
#93=VERTEX_POINT('',#92);
#94=CARTESIAN_POINT('',(-6.600000000000,0.200000000000,0.190000000000));
#95=AXIS2_PLACEMENT_3D('',#94,#11,#19);
#96=CIRCLE('',#95,0.520000000000);
#97=EDGE_CURVE('',#93,#93,#96,.T.);
#98=ORIENTED_EDGE('',*,*,#97,.F.);
#99=EDGE_LOOP('',(#98));
#100=CARTESIAN_POINT('',(-2.800000000000,1.220000000000,0.190000000000));
#101=VERTEX_POINT('',#100);
#102=CARTESIAN_POINT('',(-2.800000000000,0.700000000000,0.190000000000));
#103=AXIS2_PLACEMENT_3D('',#102,#11,#19);
#104=CIRCLE('',#103,0.520000000000);
#105=EDGE_CURVE('',#101,#101,#104,.T.);
#106=ORIENTED_EDGE('',*,*,#105,.F.);
#107=EDGE_LOOP('',(#106));
#108=ORIENTED_EDGE('',*,*,#22,.F.);
#109=ORIENTED_EDGE('',*,*,#60,.F.);
#110=CARTESIAN_POINT('',(3.050000000000,-3.948717526991,0.190000000000));
#111=VERTEX_POINT('',#110);
#112=CARTESIAN_POINT('',(2.600000000000,-2.000000000000,0.190000000000));
#113=AXIS2_PLACEMENT_3D('',#112,#11,#19);
#114=CIRCLE('',#113,2.000000000000);
#115=EDGE_CURVE('',#52,#111,#114,.T.);
#116=ORIENTED_EDGE('',*,*,#115,.T.);
#117=CARTESIAN_POINT('',(4.507878402834,-2.600000000000,0.190000000000));
#118=VERTEX_POINT('',#117);
#119=CIRCLE('',#113,2.000000000000);
#120=EDGE_CURVE('',#111,#118,#119,.T.);
#121=ORIENTED_EDGE('',*,*,#120,.T.);
#122=CARTESIAN_POINT('',(4.270329308849,-0.900000000000,0.190000000000));
#123=VERTEX_POINT('',#122);
#124=CIRCLE('',#113,2.000000000000);
#125=EDGE_CURVE('',#118,#123,#124,.T.);
#126=ORIENTED_EDGE('',*,*,#125,.T.);
#127=CARTESIAN_POINT('',(3.050000000000,-0.051282473009,0.190000000000));
#128=VERTEX_POINT('',#127);
#129=CIRCLE('',#113,2.000000000000);
#130=EDGE_CURVE('',#123,#128,#129,.T.);
#131=ORIENTED_EDGE('',*,*,#130,.T.);
#132=CARTESIAN_POINT('',(3.050000000000,1.900000000000,0.190000000000));
#133=VERTEX_POINT('',#132);
#134=CARTESIAN_POINT('',(3.050000000000,0.000000000000,0.190000000000));
#135=LINE('',#134,#20);
#136=EDGE_CURVE('',#128,#133,#135,.T.);
#137=ORIENTED_EDGE('',*,*,#136,.T.);
#138=CARTESIAN_POINT('',(2.643908891459,1.900000000000,0.190000000000));
#139=VERTEX_POINT('',#138);
#140=CARTESIAN_POINT('',(0.000000000000,1.900000000000,0.190000000000));
#141=LINE('',#140,#58);
#142=EDGE_CURVE('',#133,#139,#141,.T.);
#143=ORIENTED_EDGE('',*,*,#142,.T.);
#144=CARTESIAN_POINT('',(-0.200000000000,2.659591794227,0.190000000000));
#145=VERTEX_POINT('',#144);
#146=CIRCLE('',#71,2.200000000000);
#147=EDGE_CURVE('',#139,#145,#146,.T.);
#148=ORIENTED_EDGE('',*,*,#147,.T.);
#149=CARTESIAN_POINT('',(-1.000000000000,1.964911064067,0.190000000000));
#150=VERTEX_POINT('',#149);
#151=CIRCLE('',#71,2.200000000000);
#152=EDGE_CURVE('',#145,#150,#151,.T.);
#153=ORIENTED_EDGE('',*,*,#152,.T.);
#154=CARTESIAN_POINT('',(-4.643908891459,1.900000000000,0.190000000000));
#155=VERTEX_POINT('',#154);
#156=CIRCLE('',#103,2.200000000000);
#157=EDGE_CURVE('',#150,#155,#156,.T.);
#158=ORIENTED_EDGE('',*,*,#157,.T.);
#159=CARTESIAN_POINT('',(-4.905892565390,1.900000000000,0.190000000000));
#160=VERTEX_POINT('',#159);
#161=LINE('',#140,#58);
#162=EDGE_CURVE('',#155,#160,#161,.T.);
#163=ORIENTED_EDGE('',*,*,#162,.T.);
#164=CARTESIAN_POINT('',(-8.294107434610,1.900000000000,0.190000000000));
#165=VERTEX_POINT('',#164);
#166=CIRCLE('',#95,2.400000000000);
#167=EDGE_CURVE('',#160,#165,#166,.T.);
#168=ORIENTED_EDGE('',*,*,#167,.T.);
#169=CARTESIAN_POINT('',(-8.733072900770,-0.900000000000,0.190000000000));
#170=VERTEX_POINT('',#169);
#171=CIRCLE('',#95,2.400000000000);
#172=EDGE_CURVE('',#165,#170,#171,.T.);
#173=ORIENTED_EDGE('',*,*,#172,.T.);
#174=CARTESIAN_POINT('',(-4.466927099230,-0.900000000000,0.190000000000));
#175=VERTEX_POINT('',#174);
#176=CIRCLE('',#95,2.400000000000);
#177=EDGE_CURVE('',#170,#175,#176,.T.);
#178=ORIENTED_EDGE('',*,*,#177,.T.);
#179=CARTESIAN_POINT('',(-4.309966887054,-0.900000000000,0.190000000000));
#180=VERTEX_POINT('',#179);
#181=CARTESIAN_POINT('',(0.000000000000,-0.900000000000,0.190000000000));
#182=LINE('',#181,#47);
#183=EDGE_CURVE('',#175,#180,#182,.T.);
#184=ORIENTED_EDGE('',*,*,#183,.T.);
#185=CARTESIAN_POINT('',(-1.290033112946,-0.900000000000,0.190000000000));
#186=VERTEX_POINT('',#185);
#187=CIRCLE('',#103,2.200000000000);
#188=EDGE_CURVE('',#180,#186,#187,.T.);
#189=ORIENTED_EDGE('',*,*,#188,.T.);
#190=CARTESIAN_POINT('',(-0.709966887054,-0.900000000000,0.190000000000));
#191=VERTEX_POINT('',#190);
#192=LINE('',#181,#47);
#193=EDGE_CURVE('',#186,#191,#192,.T.);
#194=ORIENTED_EDGE('',*,*,#193,.T.);
#195=CIRCLE('',#71,2.200000000000);
#196=EDGE_CURVE('',#191,#17,#195,.T.);
#197=ORIENTED_EDGE('',*,*,#196,.T.);
#198=EDGE_LOOP('',(#108,#109,#116,#121,#126,#131,#137,#143,#148,#153,#158,#163,#168,#173,#178,#184,#189,#194,#197));
#199=FACE_BOUND('',#75,.T.);
#200=FACE_BOUND('',#83,.T.);
#201=FACE_BOUND('',#91,.T.);
#202=FACE_BOUND('',#99,.T.);
#203=FACE_BOUND('',#107,.T.);
#204=FACE_OUTER_BOUND('',#198,.T.);
#205=ADVANCED_FACE('',(#199,#200,#201,#202,#203,#204),#67,.T.);
#206=CARTESIAN_POINT('',(0.000000000000,0.000000000000,-0.190000000000));
#207=AXIS2_PLACEMENT_3D('',#206,#3,#31);
#208=PLANE('',#207);
#209=CARTESIAN_POINT('',(-6.600000000000,0.720000000000,-0.190000000000));
#210=VERTEX_POINT('',#209);
#211=CARTESIAN_POINT('',(-6.600000000000,0.200000000000,-0.190000000000));
#212=AXIS2_PLACEMENT_3D('',#211,#11,#19);
#213=CIRCLE('',#212,0.520000000000);
#214=EDGE_CURVE('',#210,#210,#213,.T.);
#215=ORIENTED_EDGE('',*,*,#214,.T.);
#216=EDGE_LOOP('',(#215));
#217=CARTESIAN_POINT('',(-2.800000000000,1.220000000000,-0.190000000000));
#218=VERTEX_POINT('',#217);
#219=CARTESIAN_POINT('',(-2.800000000000,0.700000000000,-0.190000000000));
#220=AXIS2_PLACEMENT_3D('',#219,#11,#19);
#221=CIRCLE('',#220,0.520000000000);
#222=EDGE_CURVE('',#218,#218,#221,.T.);
#223=ORIENTED_EDGE('',*,*,#222,.T.);
#224=EDGE_LOOP('',(#223));
#225=CARTESIAN_POINT('',(-5.500000000000,-1.360000000000,-0.190000000000));
#226=VERTEX_POINT('',#225);
#227=CARTESIAN_POINT('',(-5.500000000000,-1.600000000000,-0.190000000000));
#228=AXIS2_PLACEMENT_3D('',#227,#11,#19);
#229=CIRCLE('',#228,0.240000000000);
#230=EDGE_CURVE('',#226,#226,#229,.T.);
#231=ORIENTED_EDGE('',*,*,#230,.T.);
#232=EDGE_LOOP('',(#231));
#233=CARTESIAN_POINT('',(0.800000000000,1.220000000000,-0.190000000000));
#234=VERTEX_POINT('',#233);
#235=CARTESIAN_POINT('',(0.800000000000,0.700000000000,-0.190000000000));
#236=AXIS2_PLACEMENT_3D('',#235,#11,#19);
#237=CIRCLE('',#236,0.520000000000);
#238=EDGE_CURVE('',#234,#234,#237,.T.);
#239=ORIENTED_EDGE('',*,*,#238,.T.);
#240=EDGE_LOOP('',(#239));
#241=CARTESIAN_POINT('',(2.500000000000,-1.760000000000,-0.190000000000));
#242=VERTEX_POINT('',#241);
#243=CARTESIAN_POINT('',(2.500000000000,-2.000000000000,-0.190000000000));
#244=AXIS2_PLACEMENT_3D('',#243,#11,#19);
#245=CIRCLE('',#244,0.240000000000);
#246=EDGE_CURVE('',#242,#242,#245,.T.);
#247=ORIENTED_EDGE('',*,*,#246,.T.);
#248=EDGE_LOOP('',(#247));
#249=ORIENTED_EDGE('',*,*,#34,.F.);
#250=CARTESIAN_POINT('',(-0.709966887054,-0.900000000000,-0.190000000000));
#251=VERTEX_POINT('',#250);
#252=CIRCLE('',#236,2.200000000000);
#253=EDGE_CURVE('',#251,#25,#252,.T.);
#254=ORIENTED_EDGE('',*,*,#253,.F.);
#255=CARTESIAN_POINT('',(-1.290033112946,-0.900000000000,-0.190000000000));
#256=VERTEX_POINT('',#255);
#257=CARTESIAN_POINT('',(0.000000000000,-0.900000000000,-0.190000000000));
#258=LINE('',#257,#58);
#259=EDGE_CURVE('',#251,#256,#258,.T.);
#260=ORIENTED_EDGE('',*,*,#259,.T.);
#261=CARTESIAN_POINT('',(-4.309966887054,-0.900000000000,-0.190000000000));
#262=VERTEX_POINT('',#261);
#263=CIRCLE('',#220,2.200000000000);
#264=EDGE_CURVE('',#262,#256,#263,.T.);
#265=ORIENTED_EDGE('',*,*,#264,.F.);
#266=CARTESIAN_POINT('',(-4.466927099230,-0.900000000000,-0.190000000000));
#267=VERTEX_POINT('',#266);
#268=LINE('',#257,#58);
#269=EDGE_CURVE('',#262,#267,#268,.T.);
#270=ORIENTED_EDGE('',*,*,#269,.T.);
#271=CARTESIAN_POINT('',(-8.733072900770,-0.900000000000,-0.190000000000));
#272=VERTEX_POINT('',#271);
#273=CIRCLE('',#212,2.400000000000);
#274=EDGE_CURVE('',#272,#267,#273,.T.);
#275=ORIENTED_EDGE('',*,*,#274,.F.);
#276=CARTESIAN_POINT('',(-8.294107434610,1.900000000000,-0.190000000000));
#277=VERTEX_POINT('',#276);
#278=CIRCLE('',#212,2.400000000000);
#279=EDGE_CURVE('',#277,#272,#278,.T.);
#280=ORIENTED_EDGE('',*,*,#279,.F.);
#281=CARTESIAN_POINT('',(-4.905892565390,1.900000000000,-0.190000000000));
#282=VERTEX_POINT('',#281);
#283=CIRCLE('',#212,2.400000000000);
#284=EDGE_CURVE('',#282,#277,#283,.T.);
#285=ORIENTED_EDGE('',*,*,#284,.F.);
#286=CARTESIAN_POINT('',(-4.643908891459,1.900000000000,-0.190000000000));
#287=VERTEX_POINT('',#286);
#288=CARTESIAN_POINT('',(0.000000000000,1.900000000000,-0.190000000000));
#289=LINE('',#288,#47);
#290=EDGE_CURVE('',#282,#287,#289,.T.);
#291=ORIENTED_EDGE('',*,*,#290,.T.);
#292=CARTESIAN_POINT('',(-1.000000000000,1.964911064067,-0.190000000000));
#293=VERTEX_POINT('',#292);
#294=CIRCLE('',#220,2.200000000000);
#295=EDGE_CURVE('',#293,#287,#294,.T.);
#296=ORIENTED_EDGE('',*,*,#295,.F.);
#297=CARTESIAN_POINT('',(-0.200000000000,2.659591794227,-0.190000000000));
#298=VERTEX_POINT('',#297);
#299=CIRCLE('',#236,2.200000000000);
#300=EDGE_CURVE('',#298,#293,#299,.T.);
#301=ORIENTED_EDGE('',*,*,#300,.F.);
#302=CARTESIAN_POINT('',(2.643908891459,1.900000000000,-0.190000000000));
#303=VERTEX_POINT('',#302);
#304=CIRCLE('',#236,2.200000000000);
#305=EDGE_CURVE('',#303,#298,#304,.T.);
#306=ORIENTED_EDGE('',*,*,#305,.F.);
#307=CARTESIAN_POINT('',(3.050000000000,1.900000000000,-0.190000000000));
#308=VERTEX_POINT('',#307);
#309=LINE('',#288,#47);
#310=EDGE_CURVE('',#303,#308,#309,.T.);
#311=ORIENTED_EDGE('',*,*,#310,.T.);
#312=CARTESIAN_POINT('',(3.050000000000,-0.051282473009,-0.190000000000));
#313=VERTEX_POINT('',#312);
#314=CARTESIAN_POINT('',(3.050000000000,0.000000000000,-0.190000000000));
#315=LINE('',#314,#32);
#316=EDGE_CURVE('',#308,#313,#315,.T.);
#317=ORIENTED_EDGE('',*,*,#316,.T.);
#318=CARTESIAN_POINT('',(4.270329308849,-0.900000000000,-0.190000000000));
#319=VERTEX_POINT('',#318);
#320=CARTESIAN_POINT('',(2.600000000000,-2.000000000000,-0.190000000000));
#321=AXIS2_PLACEMENT_3D('',#320,#11,#19);
#322=CIRCLE('',#321,2.000000000000);
#323=EDGE_CURVE('',#319,#313,#322,.T.);
#324=ORIENTED_EDGE('',*,*,#323,.F.);
#325=CARTESIAN_POINT('',(4.507878402834,-2.600000000000,-0.190000000000));
#326=VERTEX_POINT('',#325);
#327=CIRCLE('',#321,2.000000000000);
#328=EDGE_CURVE('',#326,#319,#327,.T.);
#329=ORIENTED_EDGE('',*,*,#328,.F.);
#330=CARTESIAN_POINT('',(3.050000000000,-3.948717526991,-0.190000000000));
#331=VERTEX_POINT('',#330);
#332=CIRCLE('',#321,2.000000000000);
#333=EDGE_CURVE('',#331,#326,#332,.T.);
#334=ORIENTED_EDGE('',*,*,#333,.F.);
#335=CIRCLE('',#321,2.000000000000);
#336=EDGE_CURVE('',#44,#331,#335,.T.);
#337=ORIENTED_EDGE('',*,*,#336,.F.);
#338=ORIENTED_EDGE('',*,*,#49,.F.);
#339=EDGE_LOOP('',(#249,#254,#260,#265,#270,#275,#280,#285,#291,#296,#301,#306,#311,#317,#324,#329,#334,#337,#338));
#340=FACE_BOUND('',#216,.T.);
#341=FACE_BOUND('',#224,.T.);
#342=FACE_BOUND('',#232,.T.);
#343=FACE_BOUND('',#240,.T.);
#344=FACE_BOUND('',#248,.T.);
#345=FACE_OUTER_BOUND('',#339,.T.);
#346=ADVANCED_FACE('',(#340,#341,#342,#343,#344,#345),#208,.T.);
#347=CARTESIAN_POINT('',(0.800000000000,0.700000000000,0.000000000000));
#348=AXIS2_PLACEMENT_3D('',#347,#11,#19);
#349=CYLINDRICAL_SURFACE('',#348,0.520000000000);
#350=ORIENTED_EDGE('',*,*,#73,.T.);
#351=EDGE_LOOP('',(#350));
#352=ORIENTED_EDGE('',*,*,#238,.F.);
#353=EDGE_LOOP('',(#352));
#354=FACE_BOUND('',#351,.T.);
#355=FACE_BOUND('',#353,.T.);
#356=ADVANCED_FACE('',(#354,#355),#349,.F.);
#357=CARTESIAN_POINT('',(2.500000000000,-2.000000000000,0.000000000000));
#358=AXIS2_PLACEMENT_3D('',#357,#11,#19);
#359=CYLINDRICAL_SURFACE('',#358,0.240000000000);
#360=ORIENTED_EDGE('',*,*,#89,.T.);
#361=EDGE_LOOP('',(#360));
#362=ORIENTED_EDGE('',*,*,#246,.F.);
#363=EDGE_LOOP('',(#362));
#364=FACE_BOUND('',#361,.T.);
#365=FACE_BOUND('',#363,.T.);
#366=ADVANCED_FACE('',(#364,#365),#359,.F.);
#367=CARTESIAN_POINT('',(-2.800000000000,0.700000000000,0.000000000000));
#368=AXIS2_PLACEMENT_3D('',#367,#11,#19);
#369=CYLINDRICAL_SURFACE('',#368,2.200000000000);
#370=ORIENTED_EDGE('',*,*,#157,.F.);
#371=CARTESIAN_POINT('',(-1.000000000000,1.964911064067,0.000000000000));
#372=LINE('',#371,#12);
#373=EDGE_CURVE('',#293,#150,#372,.T.);
#374=ORIENTED_EDGE('',*,*,#373,.F.);
#375=ORIENTED_EDGE('',*,*,#295,.T.);
#376=CARTESIAN_POINT('',(-4.643908891459,1.900000000000,0.000000000000));
#377=LINE('',#376,#12);
#378=EDGE_CURVE('',#287,#155,#377,.T.);
#379=ORIENTED_EDGE('',*,*,#378,.T.);
#380=EDGE_LOOP('',(#370,#374,#375,#379));
#381=ORIENTED_EDGE('',*,*,#188,.F.);
#382=CARTESIAN_POINT('',(-4.309966887054,-0.900000000000,0.000000000000));
#383=LINE('',#382,#12);
#384=EDGE_CURVE('',#262,#180,#383,.T.);
#385=ORIENTED_EDGE('',*,*,#384,.F.);
#386=ORIENTED_EDGE('',*,*,#264,.T.);
#387=CARTESIAN_POINT('',(-1.290033112946,-0.900000000000,0.000000000000));
#388=LINE('',#387,#12);
#389=EDGE_CURVE('',#256,#186,#388,.T.);
#390=ORIENTED_EDGE('',*,*,#389,.T.);
#391=EDGE_LOOP('',(#381,#385,#386,#390));
#392=FACE_BOUND('',#380,.T.);
#393=FACE_BOUND('',#391,.T.);
#394=ADVANCED_FACE('',(#392,#393),#369,.T.);
#395=CARTESIAN_POINT('',(3.050000000000,0.000000000000,0.000000000000));
#396=AXIS2_PLACEMENT_3D('',#395,#46,#11);
#397=PLANE('',#396);
#398=ORIENTED_EDGE('',*,*,#136,.F.);
#399=CARTESIAN_POINT('',(3.050000000000,-0.051282473009,0.000000000000));
#400=LINE('',#399,#12);
#401=EDGE_CURVE('',#313,#128,#400,.T.);
#402=ORIENTED_EDGE('',*,*,#401,.F.);
#403=ORIENTED_EDGE('',*,*,#316,.F.);
#404=CARTESIAN_POINT('',(3.050000000000,1.900000000000,0.000000000000));
#405=LINE('',#404,#12);
#406=EDGE_CURVE('',#308,#133,#405,.T.);
#407=ORIENTED_EDGE('',*,*,#406,.T.);
#408=EDGE_LOOP('',(#398,#402,#403,#407));
#409=FACE_OUTER_BOUND('',#408,.T.);
#410=ADVANCED_FACE('',(#409),#397,.T.);
#411=CARTESIAN_POINT('',(0.000000000000,1.900000000000,0.000000000000));
#412=AXIS2_PLACEMENT_3D('',#411,#19,#3);
#413=PLANE('',#412);
#414=ORIENTED_EDGE('',*,*,#162,.F.);
#415=ORIENTED_EDGE('',*,*,#378,.F.);
#416=ORIENTED_EDGE('',*,*,#290,.F.);
#417=CARTESIAN_POINT('',(-4.905892565390,1.900000000000,0.000000000000));
#418=LINE('',#417,#12);
#419=EDGE_CURVE('',#282,#160,#418,.T.);
#420=ORIENTED_EDGE('',*,*,#419,.T.);
#421=EDGE_LOOP('',(#414,#415,#416,#420));
#422=ORIENTED_EDGE('',*,*,#142,.F.);
#423=ORIENTED_EDGE('',*,*,#406,.F.);
#424=ORIENTED_EDGE('',*,*,#310,.F.);
#425=CARTESIAN_POINT('',(2.643908891459,1.900000000000,0.000000000000));
#426=LINE('',#425,#12);
#427=EDGE_CURVE('',#303,#139,#426,.T.);
#428=ORIENTED_EDGE('',*,*,#427,.T.);
#429=EDGE_LOOP('',(#422,#423,#424,#428));
#430=FACE_OUTER_BOUND('',#421,.T.);
#431=ADVANCED_FACE('',(#430),#413,.T.);
#432=FACE_OUTER_BOUND('',#429,.T.);
#433=ADVANCED_FACE('',(#432),#413,.T.);
#434=CARTESIAN_POINT('',(0.000000000000,-0.900000000000,0.000000000000));
#435=AXIS2_PLACEMENT_3D('',#434,#31,#11);
#436=PLANE('',#435);
#437=ORIENTED_EDGE('',*,*,#183,.F.);
#438=CARTESIAN_POINT('',(-4.466927099230,-0.900000000000,0.000000000000));
#439=LINE('',#438,#12);
#440=EDGE_CURVE('',#267,#175,#439,.T.);
#441=ORIENTED_EDGE('',*,*,#440,.F.);
#442=ORIENTED_EDGE('',*,*,#269,.F.);
#443=ORIENTED_EDGE('',*,*,#384,.T.);
#444=EDGE_LOOP('',(#437,#441,#442,#443));
#445=ORIENTED_EDGE('',*,*,#193,.F.);
#446=ORIENTED_EDGE('',*,*,#389,.F.);
#447=ORIENTED_EDGE('',*,*,#259,.F.);
#448=CARTESIAN_POINT('',(-0.709966887054,-0.900000000000,0.000000000000));
#449=LINE('',#448,#12);
#450=EDGE_CURVE('',#251,#191,#449,.T.);
#451=ORIENTED_EDGE('',*,*,#450,.T.);
#452=EDGE_LOOP('',(#445,#446,#447,#451));
#453=FACE_OUTER_BOUND('',#444,.T.);
#454=ADVANCED_FACE('',(#453),#436,.T.);
#455=FACE_OUTER_BOUND('',#452,.T.);
#456=ADVANCED_FACE('',(#455),#436,.T.);
#457=CYLINDRICAL_SURFACE('',#348,2.200000000000);
#458=ORIENTED_EDGE('',*,*,#28,.T.);
#459=ORIENTED_EDGE('',*,*,#196,.F.);
#460=ORIENTED_EDGE('',*,*,#450,.F.);
#461=ORIENTED_EDGE('',*,*,#253,.T.);
#462=EDGE_LOOP('',(#458,#459,#460,#461));
#463=ORIENTED_EDGE('',*,*,#152,.F.);
#464=ORIENTED_EDGE('',*,*,#147,.F.);
#465=ORIENTED_EDGE('',*,*,#427,.F.);
#466=ORIENTED_EDGE('',*,*,#305,.T.);
#467=ORIENTED_EDGE('',*,*,#300,.T.);
#468=ORIENTED_EDGE('',*,*,#373,.T.);
#469=EDGE_LOOP('',(#463,#464,#465,#466,#467,#468));
#470=FACE_BOUND('',#462,.T.);
#471=FACE_BOUND('',#469,.T.);
#472=ADVANCED_FACE('',(#470,#471),#457,.T.);
#473=CARTESIAN_POINT('',(2.600000000000,-2.000000000000,0.000000000000));
#474=AXIS2_PLACEMENT_3D('',#473,#11,#19);
#475=CYLINDRICAL_SURFACE('',#474,2.000000000000);
#476=ORIENTED_EDGE('',*,*,#55,.F.);
#477=ORIENTED_EDGE('',*,*,#336,.T.);
#478=ORIENTED_EDGE('',*,*,#333,.T.);
#479=ORIENTED_EDGE('',*,*,#328,.T.);
#480=ORIENTED_EDGE('',*,*,#323,.T.);
#481=ORIENTED_EDGE('',*,*,#401,.T.);
#482=ORIENTED_EDGE('',*,*,#130,.F.);
#483=ORIENTED_EDGE('',*,*,#125,.F.);
#484=ORIENTED_EDGE('',*,*,#120,.F.);
#485=ORIENTED_EDGE('',*,*,#115,.F.);
#486=EDGE_LOOP('',(#476,#477,#478,#479,#480,#481,#482,#483,#484,#485));
#487=FACE_BOUND('',#486,.T.);
#488=ADVANCED_FACE('',(#487),#475,.T.);
#489=CARTESIAN_POINT('',(-6.600000000000,0.200000000000,0.000000000000));
#490=AXIS2_PLACEMENT_3D('',#489,#11,#19);
#491=CYLINDRICAL_SURFACE('',#490,0.520000000000);
#492=ORIENTED_EDGE('',*,*,#214,.F.);
#493=EDGE_LOOP('',(#492));
#494=ORIENTED_EDGE('',*,*,#97,.T.);
#495=EDGE_LOOP('',(#494));
#496=FACE_BOUND('',#493,.T.);
#497=FACE_BOUND('',#495,.T.);
#498=ADVANCED_FACE('',(#496,#497),#491,.F.);
#499=CARTESIAN_POINT('',(-5.500000000000,-1.600000000000,0.000000000000));
#500=AXIS2_PLACEMENT_3D('',#499,#11,#19);
#501=CYLINDRICAL_SURFACE('',#500,0.240000000000);
#502=ORIENTED_EDGE('',*,*,#81,.T.);
#503=EDGE_LOOP('',(#502));
#504=ORIENTED_EDGE('',*,*,#230,.F.);
#505=EDGE_LOOP('',(#504));
#506=FACE_BOUND('',#503,.T.);
#507=FACE_BOUND('',#505,.T.);
#508=ADVANCED_FACE('',(#506,#507),#501,.F.);
#509=CYLINDRICAL_SURFACE('',#490,2.400000000000);
#510=ORIENTED_EDGE('',*,*,#172,.F.);
#511=ORIENTED_EDGE('',*,*,#167,.F.);
#512=ORIENTED_EDGE('',*,*,#419,.F.);
#513=ORIENTED_EDGE('',*,*,#284,.T.);
#514=ORIENTED_EDGE('',*,*,#279,.T.);
#515=ORIENTED_EDGE('',*,*,#274,.T.);
#516=ORIENTED_EDGE('',*,*,#440,.T.);
#517=ORIENTED_EDGE('',*,*,#177,.F.);
#518=EDGE_LOOP('',(#510,#511,#512,#513,#514,#515,#516,#517));
#519=FACE_BOUND('',#518,.T.);
#520=ADVANCED_FACE('',(#519),#509,.T.);
#521=CYLINDRICAL_SURFACE('',#368,0.520000000000);
#522=ORIENTED_EDGE('',*,*,#222,.F.);
#523=EDGE_LOOP('',(#522));
#524=ORIENTED_EDGE('',*,*,#105,.T.);
#525=EDGE_LOOP('',(#524));
#526=FACE_BOUND('',#523,.T.);
#527=FACE_BOUND('',#525,.T.);
#528=ADVANCED_FACE('',(#526,#527),#521,.F.);
#529=CLOSED_SHELL('',(#38,#64,#205,#346,#356,#366,#394,#410,#431,#433,#454,#456,#472,#488,#498,#508,#520,#528));
#530=MANIFOLD_SOLID_BREP('automatic_winding',#529);
#531=APPLICATION_CONTEXT('core data for automotive mechanical design processes');
#532=APPLICATION_PROTOCOL_DEFINITION('international standard','automotive_design',2000,#531);
#533=PRODUCT_CONTEXT('',#531,'mechanical');
#534=PRODUCT('automatic_winding','automatic_winding','',(#533));
#535=PRODUCT_DEFINITION_FORMATION('','',#534);
#536=PRODUCT_DEFINITION_CONTEXT('part definition',#531,'design');
#537=PRODUCT_DEFINITION('','',#535,#536);
#538=PRODUCT_DEFINITION_SHAPE('','',#537);
#539=(LENGTH_UNIT()NAMED_UNIT(*)SI_UNIT(.MILLI.,.METRE.));
#540=(NAMED_UNIT(*)PLANE_ANGLE_UNIT()SI_UNIT($,.RADIAN.));
#541=(NAMED_UNIT(*)SI_UNIT($,.STERADIAN.)SOLID_ANGLE_UNIT());
#542=UNCERTAINTY_MEASURE_WITH_UNIT(LENGTH_MEASURE(1.E-07),#539,'distance_accuracy_value','');
#543=(GEOMETRIC_REPRESENTATION_CONTEXT(3)GLOBAL_UNCERTAINTY_ASSIGNED_CONTEXT((#542))GLOBAL_UNIT_ASSIGNED_CONTEXT((#539,#540,#541))REPRESENTATION_CONTEXT('',''));
#544=ADVANCED_BREP_SHAPE_REPRESENTATION('',(#530),#543);
#545=SHAPE_DEFINITION_REPRESENTATION(#538,#544);
ENDSEC;
END-ISO-10303-21;
