ISO-10303-21;
HEADER;
FILE_DESCRIPTION(('18 face(s), 106 edge(s), 88 vertex/vertices confirmed by cade at n=256, half-extent 3.000000000000'),'2;1');
FILE_NAME('escapement.step','2026-08-23T00:00:00',('cade'),('cade'),'cade 0.1.0','cade','');
FILE_SCHEMA(('AUTOMOTIVE_DESIGN { 1 0 10303 214 1 1 1 1 }'));
ENDSEC;
DATA;
#1=CARTESIAN_POINT('',(0.242573931569,0.060480473900,0.000000000000));
#2=DIRECTION('',(0.970295726276,0.241921895600,0.000000000000));
#3=DIRECTION('',(0.241921895600,-0.970295726276,0.000000000000));
#4=AXIS2_PLACEMENT_3D('',#1,#2,#3);
#5=PLANE('',#4);
#6=CARTESIAN_POINT('',(0.378050193105,-0.482885132815,0.110000000000));
#7=VERTEX_POINT('',#6);
#8=CARTESIAN_POINT('',(0.378050193105,-0.482885132815,-0.110000000000));
#9=VERTEX_POINT('',#8);
#10=CARTESIAN_POINT('',(0.378050193105,-0.482885132815,0.000000000000));
#11=DIRECTION('',(0.000000000000,0.000000000000,-1.000000000000));
#12=VECTOR('',#11,1.0);
#13=LINE('',#10,#12);
#14=EDGE_CURVE('',#7,#9,#13,.T.);
#15=ORIENTED_EDGE('',*,*,#14,.T.);
#16=CARTESIAN_POINT('',(0.352880766001,-0.381936074477,-0.110000000000));
#17=VERTEX_POINT('',#16);
#18=CARTESIAN_POINT('',(0.242573931569,0.060480473900,-0.110000000000));
#19=DIRECTION('',(-0.241921895600,0.970295726276,0.000000000000));
#20=VECTOR('',#19,1.0);
#21=LINE('',#18,#20);
#22=EDGE_CURVE('',#9,#17,#21,.T.);
#23=ORIENTED_EDGE('',*,*,#22,.T.);
#24=CARTESIAN_POINT('',(0.352880766001,-0.381936074477,0.110000000000));
#25=VERTEX_POINT('',#24);
#26=CARTESIAN_POINT('',(0.352880766001,-0.381936074477,0.000000000000));
#27=DIRECTION('',(0.000000000000,0.000000000000,1.000000000000));
#28=VECTOR('',#27,1.0);
#29=LINE('',#26,#28);
#30=EDGE_CURVE('',#17,#25,#29,.T.);
#31=ORIENTED_EDGE('',*,*,#30,.T.);
#32=CARTESIAN_POINT('',(0.242573931569,0.060480473900,0.110000000000));
#33=VECTOR('',#3,1.0);
#34=LINE('',#32,#33);
#35=EDGE_CURVE('',#25,#7,#34,.T.);
#36=ORIENTED_EDGE('',*,*,#35,.T.);
#37=EDGE_LOOP('',(#15,#23,#31,#36));
#38=FACE_OUTER_BOUND('',#37,.T.);
#39=ADVANCED_FACE('',(#38),#5,.T.);
#40=CARTESIAN_POINT('',(-1.989106238866,-0.495939885979,0.000000000000));
#41=DIRECTION('',(-0.970295726276,-0.241921895600,0.000000000000));
#42=AXIS2_PLACEMENT_3D('',#40,#41,#19);
#43=PLANE('',#42);
#44=CARTESIAN_POINT('',(-1.921368108098,-0.767622689337,0.110000000000));
#45=VERTEX_POINT('',#44);
#46=CARTESIAN_POINT('',(-1.921368108098,-0.767622689337,-0.110000000000));
#47=VERTEX_POINT('',#46);
#48=CARTESIAN_POINT('',(-1.921368108098,-0.767622689337,0.000000000000));
#49=LINE('',#48,#12);
#50=EDGE_CURVE('',#45,#47,#49,.T.);
#51=ORIENTED_EDGE('',*,*,#50,.T.);
#52=CARTESIAN_POINT('',(-1.853629977330,-1.039305492694,-0.110000000000));
#53=VERTEX_POINT('',#52);
#54=CARTESIAN_POINT('',(-1.989106238866,-0.495939885979,-0.110000000000));
#55=LINE('',#54,#33);
#56=EDGE_CURVE('',#47,#53,#55,.T.);
#57=ORIENTED_EDGE('',*,*,#56,.T.);
#58=CARTESIAN_POINT('',(-1.853629977330,-1.039305492694,0.110000000000));
#59=VERTEX_POINT('',#58);
#60=CARTESIAN_POINT('',(-1.853629977330,-1.039305492694,0.000000000000));
#61=LINE('',#60,#28);
#62=EDGE_CURVE('',#53,#59,#61,.T.);
#63=ORIENTED_EDGE('',*,*,#62,.T.);
#64=CARTESIAN_POINT('',(-1.989106238866,-0.495939885979,0.110000000000));
#65=LINE('',#64,#20);
#66=EDGE_CURVE('',#59,#45,#65,.T.);
#67=ORIENTED_EDGE('',*,*,#66,.T.);
#68=EDGE_LOOP('',(#51,#57,#63,#67));
#69=FACE_OUTER_BOUND('',#68,.T.);
#70=ADVANCED_FACE('',(#69),#43,.T.);
#71=CARTESIAN_POINT('',(0.067738130768,-0.271682803357,0.000000000000));
#72=AXIS2_PLACEMENT_3D('',#71,#19,#2);
#73=PLANE('',#72);
#74=ORIENTED_EDGE('',*,*,#50,.F.);
#75=CARTESIAN_POINT('',(-0.357424154618,-0.377687666857,0.110000000000));
#76=VERTEX_POINT('',#75);
#77=CARTESIAN_POINT('',(0.067738130768,-0.271682803357,0.110000000000));
#78=VECTOR('',#2,1.0);
#79=LINE('',#77,#78);
#80=EDGE_CURVE('',#45,#76,#79,.T.);
#81=ORIENTED_EDGE('',*,*,#80,.T.);
#82=CARTESIAN_POINT('',(-0.357424154618,-0.377687666857,-0.110000000000));
#83=VERTEX_POINT('',#82);
#84=CARTESIAN_POINT('',(-0.357424154618,-0.377687666857,0.000000000000));
#85=LINE('',#84,#28);
#86=EDGE_CURVE('',#83,#76,#85,.T.);
#87=ORIENTED_EDGE('',*,*,#86,.F.);
#88=CARTESIAN_POINT('',(0.067738130768,-0.271682803357,-0.110000000000));
#89=VECTOR('',#41,1.0);
#90=LINE('',#88,#89);
#91=EDGE_CURVE('',#83,#47,#90,.T.);
#92=ORIENTED_EDGE('',*,*,#91,.T.);
#93=EDGE_LOOP('',(#74,#81,#87,#92));
#94=FACE_OUTER_BOUND('',#93,.T.);
#95=ADVANCED_FACE('',(#94),#73,.T.);
#96=CARTESIAN_POINT('',(0.135476261536,-0.543365606715,0.000000000000));
#97=AXIS2_PLACEMENT_3D('',#96,#3,#41);
#98=PLANE('',#97);
#99=ORIENTED_EDGE('',*,*,#14,.F.);
#100=CARTESIAN_POINT('',(0.121295613578,-0.546901239349,0.110000000000));
#101=VERTEX_POINT('',#100);
#102=CARTESIAN_POINT('',(0.135476261536,-0.543365606715,0.110000000000));
#103=LINE('',#102,#89);
#104=EDGE_CURVE('',#7,#101,#103,.T.);
#105=ORIENTED_EDGE('',*,*,#104,.T.);
#106=LINE('',#102,#89);
#107=EDGE_CURVE('',#101,#59,#106,.T.);
#108=ORIENTED_EDGE('',*,*,#107,.T.);
#109=ORIENTED_EDGE('',*,*,#62,.F.);
#110=CARTESIAN_POINT('',(0.121295613578,-0.546901239349,-0.110000000000));
#111=VERTEX_POINT('',#110);
#112=CARTESIAN_POINT('',(0.135476261536,-0.543365606715,-0.110000000000));
#113=LINE('',#112,#78);
#114=EDGE_CURVE('',#53,#111,#113,.T.);
#115=ORIENTED_EDGE('',*,*,#114,.T.);
#116=LINE('',#112,#78);
#117=EDGE_CURVE('',#111,#9,#116,.T.);
#118=ORIENTED_EDGE('',*,*,#117,.T.);
#119=EDGE_LOOP('',(#99,#105,#108,#109,#115,#118));
#120=FACE_OUTER_BOUND('',#119,.T.);
#121=ADVANCED_FACE('',(#120),#98,.T.);
#122=CARTESIAN_POINT('',(0.000000000000,0.000000000000,0.110000000000));
#123=DIRECTION('',(0.000000000000,1.000000000000,0.000000000000));
#124=AXIS2_PLACEMENT_3D('',#122,#27,#123);
#125=PLANE('',#124);
#126=CARTESIAN_POINT('',(-0.075498344353,0.080000000000,0.110000000000));
#127=VERTEX_POINT('',#126);
#128=CARTESIAN_POINT('',(-0.075498344353,-0.080000000000,0.110000000000));
#129=VERTEX_POINT('',#128);
#130=CIRCLE('',#124,0.110000000000);
#131=EDGE_CURVE('',#127,#129,#130,.T.);
#132=ORIENTED_EDGE('',*,*,#131,.F.);
#133=CARTESIAN_POINT('',(0.075498344353,0.080000000000,0.110000000000));
#134=VERTEX_POINT('',#133);
#135=CIRCLE('',#124,0.110000000000);
#136=EDGE_CURVE('',#134,#127,#135,.T.);
#137=ORIENTED_EDGE('',*,*,#136,.F.);
#138=CARTESIAN_POINT('',(0.075498344353,-0.080000000000,0.110000000000));
#139=VERTEX_POINT('',#138);
#140=CIRCLE('',#124,0.110000000000);
#141=EDGE_CURVE('',#139,#134,#140,.T.);
#142=ORIENTED_EDGE('',*,*,#141,.F.);
#143=CIRCLE('',#124,0.110000000000);
#144=EDGE_CURVE('',#129,#139,#143,.T.);
#145=ORIENTED_EDGE('',*,*,#144,.F.);
#146=EDGE_LOOP('',(#132,#137,#142,#145));
#147=ORIENTED_EDGE('',*,*,#35,.F.);
#148=CARTESIAN_POINT('',(0.492900416154,-0.165677939858,0.110000000000));
#149=VERTEX_POINT('',#148);
#150=CIRCLE('',#124,0.520000000000);
#151=EDGE_CURVE('',#25,#149,#150,.T.);
#152=ORIENTED_EDGE('',*,*,#151,.T.);
#153=CARTESIAN_POINT('',(0.494772675074,-0.160000000000,0.110000000000));
#154=VERTEX_POINT('',#153);
#155=CIRCLE('',#124,0.520000000000);
#156=EDGE_CURVE('',#149,#154,#155,.T.);
#157=ORIENTED_EDGE('',*,*,#156,.T.);
#158=CARTESIAN_POINT('',(0.515673389077,-0.160000000000,0.110000000000));
#159=VERTEX_POINT('',#158);
#160=CARTESIAN_POINT('',(0.000000000000,-0.160000000000,0.110000000000));
#161=DIRECTION('',(1.000000000000,0.000000000000,0.000000000000));
#162=VECTOR('',#161,1.0);
#163=LINE('',#160,#162);
#164=EDGE_CURVE('',#154,#159,#163,.T.);
#165=ORIENTED_EDGE('',*,*,#164,.T.);
#166=CARTESIAN_POINT('',(1.673071727520,-0.160000000000,0.110000000000));
#167=VERTEX_POINT('',#166);
#168=LINE('',#160,#162);
#169=EDGE_CURVE('',#159,#167,#168,.T.);
#170=ORIENTED_EDGE('',*,*,#169,.T.);
#171=CARTESIAN_POINT('',(1.799123287809,-0.160000000000,0.110000000000));
#172=VERTEX_POINT('',#171);
#173=LINE('',#160,#162);
#174=EDGE_CURVE('',#167,#172,#173,.T.);
#175=ORIENTED_EDGE('',*,*,#174,.T.);
#176=CARTESIAN_POINT('',(2.050000000000,-0.160000000000,0.110000000000));
#177=VERTEX_POINT('',#176);
#178=LINE('',#160,#162);
#179=EDGE_CURVE('',#172,#177,#178,.T.);
#180=ORIENTED_EDGE('',*,*,#179,.T.);
#181=CARTESIAN_POINT('',(2.750000000000,-0.160000000000,0.110000000000));
#182=VERTEX_POINT('',#181);
#183=LINE('',#160,#162);
#184=EDGE_CURVE('',#177,#182,#183,.T.);
#185=ORIENTED_EDGE('',*,*,#184,.T.);
#186=CARTESIAN_POINT('',(2.750000000000,-0.108508375383,0.110000000000));
#187=VERTEX_POINT('',#186);
#188=CARTESIAN_POINT('',(2.750000000000,0.000000000000,0.110000000000));
#189=VECTOR('',#123,1.0);
#190=LINE('',#188,#189);
#191=EDGE_CURVE('',#182,#187,#190,.T.);
#192=ORIENTED_EDGE('',*,*,#191,.T.);
#193=CARTESIAN_POINT('',(2.750000000000,-0.080000000000,0.110000000000));
#194=VERTEX_POINT('',#193);
#195=LINE('',#188,#189);
#196=EDGE_CURVE('',#187,#194,#195,.T.);
#197=ORIENTED_EDGE('',*,*,#196,.T.);
#198=CARTESIAN_POINT('',(2.635659151569,-0.080000000000,0.110000000000));
#199=VERTEX_POINT('',#198);
#200=CARTESIAN_POINT('',(0.000000000000,-0.080000000000,0.110000000000));
#201=LINE('',#200,#162);
#202=EDGE_CURVE('',#199,#194,#201,.T.);
#203=ORIENTED_EDGE('',*,*,#202,.F.);
#204=CARTESIAN_POINT('',(2.050000000000,-0.080000000000,0.110000000000));
#205=VERTEX_POINT('',#204);
#206=LINE('',#200,#162);
#207=EDGE_CURVE('',#205,#199,#206,.T.);
#208=ORIENTED_EDGE('',*,*,#207,.F.);
#209=CARTESIAN_POINT('',(2.050000000000,-0.066021226607,0.110000000000));
#210=VERTEX_POINT('',#209);
#211=CARTESIAN_POINT('',(2.050000000000,0.000000000000,0.110000000000));
#212=DIRECTION('',(0.000000000000,-1.000000000000,0.000000000000));
#213=VECTOR('',#212,1.0);
#214=LINE('',#211,#213);
#215=EDGE_CURVE('',#210,#205,#214,.T.);
#216=ORIENTED_EDGE('',*,*,#215,.F.);
#217=CARTESIAN_POINT('',(2.050000000000,0.066021226607,0.110000000000));
#218=VERTEX_POINT('',#217);
#219=LINE('',#211,#213);
#220=EDGE_CURVE('',#218,#210,#219,.T.);
#221=ORIENTED_EDGE('',*,*,#220,.F.);
#222=CARTESIAN_POINT('',(2.050000000000,0.080000000000,0.110000000000));
#223=VERTEX_POINT('',#222);
#224=LINE('',#211,#213);
#225=EDGE_CURVE('',#223,#218,#224,.T.);
#226=ORIENTED_EDGE('',*,*,#225,.F.);
#227=CARTESIAN_POINT('',(2.635659151569,0.080000000000,0.110000000000));
#228=VERTEX_POINT('',#227);
#229=CARTESIAN_POINT('',(0.000000000000,0.080000000000,0.110000000000));
#230=DIRECTION('',(-1.000000000000,0.000000000000,0.000000000000));
#231=VECTOR('',#230,1.0);
#232=LINE('',#229,#231);
#233=EDGE_CURVE('',#228,#223,#232,.T.);
#234=ORIENTED_EDGE('',*,*,#233,.F.);
#235=CARTESIAN_POINT('',(2.750000000000,0.080000000000,0.110000000000));
#236=VERTEX_POINT('',#235);
#237=LINE('',#229,#231);
#238=EDGE_CURVE('',#236,#228,#237,.T.);
#239=ORIENTED_EDGE('',*,*,#238,.F.);
#240=CARTESIAN_POINT('',(2.750000000000,0.108508375383,0.110000000000));
#241=VERTEX_POINT('',#240);
#242=LINE('',#188,#189);
#243=EDGE_CURVE('',#236,#241,#242,.T.);
#244=ORIENTED_EDGE('',*,*,#243,.T.);
#245=CARTESIAN_POINT('',(2.750000000000,0.160000000000,0.110000000000));
#246=VERTEX_POINT('',#245);
#247=LINE('',#188,#189);
#248=EDGE_CURVE('',#241,#246,#247,.T.);
#249=ORIENTED_EDGE('',*,*,#248,.T.);
#250=CARTESIAN_POINT('',(2.050000000000,0.160000000000,0.110000000000));
#251=VERTEX_POINT('',#250);
#252=CARTESIAN_POINT('',(0.000000000000,0.160000000000,0.110000000000));
#253=LINE('',#252,#231);
#254=EDGE_CURVE('',#246,#251,#253,.T.);
#255=ORIENTED_EDGE('',*,*,#254,.T.);
#256=CARTESIAN_POINT('',(1.799123287809,0.160000000000,0.110000000000));
#257=VERTEX_POINT('',#256);
#258=LINE('',#252,#231);
#259=EDGE_CURVE('',#251,#257,#258,.T.);
#260=ORIENTED_EDGE('',*,*,#259,.T.);
#261=CARTESIAN_POINT('',(1.673071727520,0.160000000000,0.110000000000));
#262=VERTEX_POINT('',#261);
#263=LINE('',#252,#231);
#264=EDGE_CURVE('',#257,#262,#263,.T.);
#265=ORIENTED_EDGE('',*,*,#264,.T.);
#266=CARTESIAN_POINT('',(0.515673389077,0.160000000000,0.110000000000));
#267=VERTEX_POINT('',#266);
#268=LINE('',#252,#231);
#269=EDGE_CURVE('',#262,#267,#268,.T.);
#270=ORIENTED_EDGE('',*,*,#269,.T.);
#271=CARTESIAN_POINT('',(0.494772675074,0.160000000000,0.110000000000));
#272=VERTEX_POINT('',#271);
#273=LINE('',#252,#231);
#274=EDGE_CURVE('',#267,#272,#273,.T.);
#275=ORIENTED_EDGE('',*,*,#274,.T.);
#276=CARTESIAN_POINT('',(0.492900416154,0.165677939858,0.110000000000));
#277=VERTEX_POINT('',#276);
#278=CIRCLE('',#124,0.520000000000);
#279=EDGE_CURVE('',#272,#277,#278,.T.);
#280=ORIENTED_EDGE('',*,*,#279,.T.);
#281=CARTESIAN_POINT('',(0.352880766001,0.381936074477,0.110000000000));
#282=VERTEX_POINT('',#281);
#283=CIRCLE('',#124,0.520000000000);
#284=EDGE_CURVE('',#277,#282,#283,.T.);
#285=ORIENTED_EDGE('',*,*,#284,.T.);
#286=CARTESIAN_POINT('',(0.378050193105,0.482885132815,0.110000000000));
#287=VERTEX_POINT('',#286);
#288=CARTESIAN_POINT('',(0.242573931569,-0.060480473900,0.110000000000));
#289=DIRECTION('',(0.241921895600,0.970295726276,0.000000000000));
#290=VECTOR('',#289,1.0);
#291=LINE('',#288,#290);
#292=EDGE_CURVE('',#282,#287,#291,.T.);
#293=ORIENTED_EDGE('',*,*,#292,.T.);
#294=CARTESIAN_POINT('',(0.121295613578,0.546901239349,0.110000000000));
#295=VERTEX_POINT('',#294);
#296=CARTESIAN_POINT('',(0.135476261536,0.543365606715,0.110000000000));
#297=DIRECTION('',(-0.970295726276,0.241921895600,0.000000000000));
#298=VECTOR('',#297,1.0);
#299=LINE('',#296,#298);
#300=EDGE_CURVE('',#287,#295,#299,.T.);
#301=ORIENTED_EDGE('',*,*,#300,.T.);
#302=CARTESIAN_POINT('',(-1.853629977330,1.039305492694,0.110000000000));
#303=VERTEX_POINT('',#302);
#304=LINE('',#296,#298);
#305=EDGE_CURVE('',#295,#303,#304,.T.);
#306=ORIENTED_EDGE('',*,*,#305,.T.);
#307=CARTESIAN_POINT('',(-1.921368108098,0.767622689337,0.110000000000));
#308=VERTEX_POINT('',#307);
#309=CARTESIAN_POINT('',(-1.989106238866,0.495939885979,0.110000000000));
#310=DIRECTION('',(-0.241921895600,-0.970295726276,0.000000000000));
#311=VECTOR('',#310,1.0);
#312=LINE('',#309,#311);
#313=EDGE_CURVE('',#303,#308,#312,.T.);
#314=ORIENTED_EDGE('',*,*,#313,.T.);
#315=CARTESIAN_POINT('',(-0.357424154618,0.377687666857,0.110000000000));
#316=VERTEX_POINT('',#315);
#317=CARTESIAN_POINT('',(0.067738130768,0.271682803357,0.110000000000));
#318=DIRECTION('',(0.970295726276,-0.241921895600,0.000000000000));
#319=VECTOR('',#318,1.0);
#320=LINE('',#317,#319);
#321=EDGE_CURVE('',#308,#316,#320,.T.);
#322=ORIENTED_EDGE('',*,*,#321,.T.);
#323=CARTESIAN_POINT('',(-0.494772675074,0.160000000000,0.110000000000));
#324=VERTEX_POINT('',#323);
#325=CIRCLE('',#124,0.520000000000);
#326=EDGE_CURVE('',#316,#324,#325,.T.);
#327=ORIENTED_EDGE('',*,*,#326,.T.);
#328=CARTESIAN_POINT('',(-0.513809303147,0.080000000000,0.110000000000));
#329=VERTEX_POINT('',#328);
#330=CIRCLE('',#124,0.520000000000);
#331=EDGE_CURVE('',#324,#329,#330,.T.);
#332=ORIENTED_EDGE('',*,*,#331,.T.);
#333=CARTESIAN_POINT('',(-0.513809303147,-0.080000000000,0.110000000000));
#334=VERTEX_POINT('',#333);
#335=CIRCLE('',#124,0.520000000000);
#336=EDGE_CURVE('',#329,#334,#335,.T.);
#337=ORIENTED_EDGE('',*,*,#336,.T.);
#338=CARTESIAN_POINT('',(-0.494772675074,-0.160000000000,0.110000000000));
#339=VERTEX_POINT('',#338);
#340=CIRCLE('',#124,0.520000000000);
#341=EDGE_CURVE('',#334,#339,#340,.T.);
#342=ORIENTED_EDGE('',*,*,#341,.T.);
#343=CIRCLE('',#124,0.520000000000);
#344=EDGE_CURVE('',#339,#76,#343,.T.);
#345=ORIENTED_EDGE('',*,*,#344,.T.);
#346=ORIENTED_EDGE('',*,*,#80,.F.);
#347=ORIENTED_EDGE('',*,*,#66,.F.);
#348=ORIENTED_EDGE('',*,*,#107,.F.);
#349=ORIENTED_EDGE('',*,*,#104,.F.);
#350=EDGE_LOOP('',(#147,#152,#157,#165,#170,#175,#180,#185,#192,#197,#203,#208,#216,#221,#226,#234,#239,#244,#249,#255,#260,#265,#270,#275,#280,#285,#293,#301,#306,#314,#322,#327,#332,#337,#342,#345,#346,#347,#348,#349));
#351=FACE_BOUND('',#146,.T.);
#352=FACE_OUTER_BOUND('',#350,.T.);
#353=ADVANCED_FACE('',(#351,#352),#125,.T.);
#354=CARTESIAN_POINT('',(0.000000000000,0.000000000000,-0.110000000000));
#355=AXIS2_PLACEMENT_3D('',#354,#11,#212);
#356=PLANE('',#355);
#357=CARTESIAN_POINT('',(-0.075498344353,0.080000000000,-0.110000000000));
#358=VERTEX_POINT('',#357);
#359=CARTESIAN_POINT('',(-0.075498344353,-0.080000000000,-0.110000000000));
#360=VERTEX_POINT('',#359);
#361=AXIS2_PLACEMENT_3D('',#354,#27,#123);
#362=CIRCLE('',#361,0.110000000000);
#363=EDGE_CURVE('',#358,#360,#362,.T.);
#364=ORIENTED_EDGE('',*,*,#363,.T.);
#365=CARTESIAN_POINT('',(0.075498344353,-0.080000000000,-0.110000000000));
#366=VERTEX_POINT('',#365);
#367=CIRCLE('',#361,0.110000000000);
#368=EDGE_CURVE('',#360,#366,#367,.T.);
#369=ORIENTED_EDGE('',*,*,#368,.T.);
#370=CARTESIAN_POINT('',(0.075498344353,0.080000000000,-0.110000000000));
#371=VERTEX_POINT('',#370);
#372=CIRCLE('',#361,0.110000000000);
#373=EDGE_CURVE('',#366,#371,#372,.T.);
#374=ORIENTED_EDGE('',*,*,#373,.T.);
#375=CIRCLE('',#361,0.110000000000);
#376=EDGE_CURVE('',#371,#358,#375,.T.);
#377=ORIENTED_EDGE('',*,*,#376,.T.);
#378=EDGE_LOOP('',(#364,#369,#374,#377));
#379=ORIENTED_EDGE('',*,*,#22,.F.);
#380=ORIENTED_EDGE('',*,*,#117,.F.);
#381=ORIENTED_EDGE('',*,*,#114,.F.);
#382=ORIENTED_EDGE('',*,*,#56,.F.);
#383=ORIENTED_EDGE('',*,*,#91,.F.);
#384=CARTESIAN_POINT('',(-0.494772675074,-0.160000000000,-0.110000000000));
#385=VERTEX_POINT('',#384);
#386=CIRCLE('',#361,0.520000000000);
#387=EDGE_CURVE('',#385,#83,#386,.T.);
#388=ORIENTED_EDGE('',*,*,#387,.F.);
#389=CARTESIAN_POINT('',(-0.513809303147,-0.080000000000,-0.110000000000));
#390=VERTEX_POINT('',#389);
#391=CIRCLE('',#361,0.520000000000);
#392=EDGE_CURVE('',#390,#385,#391,.T.);
#393=ORIENTED_EDGE('',*,*,#392,.F.);
#394=CARTESIAN_POINT('',(-0.513809303147,0.080000000000,-0.110000000000));
#395=VERTEX_POINT('',#394);
#396=CIRCLE('',#361,0.520000000000);
#397=EDGE_CURVE('',#395,#390,#396,.T.);
#398=ORIENTED_EDGE('',*,*,#397,.F.);
#399=CARTESIAN_POINT('',(-0.494772675074,0.160000000000,-0.110000000000));
#400=VERTEX_POINT('',#399);
#401=CIRCLE('',#361,0.520000000000);
#402=EDGE_CURVE('',#400,#395,#401,.T.);
#403=ORIENTED_EDGE('',*,*,#402,.F.);
#404=CARTESIAN_POINT('',(-0.357424154618,0.377687666857,-0.110000000000));
#405=VERTEX_POINT('',#404);
#406=CIRCLE('',#361,0.520000000000);
#407=EDGE_CURVE('',#405,#400,#406,.T.);
#408=ORIENTED_EDGE('',*,*,#407,.F.);
#409=CARTESIAN_POINT('',(-1.921368108098,0.767622689337,-0.110000000000));
#410=VERTEX_POINT('',#409);
#411=CARTESIAN_POINT('',(0.067738130768,0.271682803357,-0.110000000000));
#412=LINE('',#411,#298);
#413=EDGE_CURVE('',#405,#410,#412,.T.);
#414=ORIENTED_EDGE('',*,*,#413,.T.);
#415=CARTESIAN_POINT('',(-1.853629977330,1.039305492694,-0.110000000000));
#416=VERTEX_POINT('',#415);
#417=CARTESIAN_POINT('',(-1.989106238866,0.495939885979,-0.110000000000));
#418=LINE('',#417,#290);
#419=EDGE_CURVE('',#410,#416,#418,.T.);
#420=ORIENTED_EDGE('',*,*,#419,.T.);
#421=CARTESIAN_POINT('',(0.121295613578,0.546901239349,-0.110000000000));
#422=VERTEX_POINT('',#421);
#423=CARTESIAN_POINT('',(0.135476261536,0.543365606715,-0.110000000000));
#424=LINE('',#423,#319);
#425=EDGE_CURVE('',#416,#422,#424,.T.);
#426=ORIENTED_EDGE('',*,*,#425,.T.);
#427=CARTESIAN_POINT('',(0.378050193105,0.482885132815,-0.110000000000));
#428=VERTEX_POINT('',#427);
#429=LINE('',#423,#319);
#430=EDGE_CURVE('',#422,#428,#429,.T.);
#431=ORIENTED_EDGE('',*,*,#430,.T.);
#432=CARTESIAN_POINT('',(0.352880766001,0.381936074477,-0.110000000000));
#433=VERTEX_POINT('',#432);
#434=CARTESIAN_POINT('',(0.242573931569,-0.060480473900,-0.110000000000));
#435=LINE('',#434,#311);
#436=EDGE_CURVE('',#428,#433,#435,.T.);
#437=ORIENTED_EDGE('',*,*,#436,.T.);
#438=CARTESIAN_POINT('',(0.492900416154,0.165677939858,-0.110000000000));
#439=VERTEX_POINT('',#438);
#440=CIRCLE('',#361,0.520000000000);
#441=EDGE_CURVE('',#439,#433,#440,.T.);
#442=ORIENTED_EDGE('',*,*,#441,.F.);
#443=CARTESIAN_POINT('',(0.494772675074,0.160000000000,-0.110000000000));
#444=VERTEX_POINT('',#443);
#445=CIRCLE('',#361,0.520000000000);
#446=EDGE_CURVE('',#444,#439,#445,.T.);
#447=ORIENTED_EDGE('',*,*,#446,.F.);
#448=CARTESIAN_POINT('',(0.515673389077,0.160000000000,-0.110000000000));
#449=VERTEX_POINT('',#448);
#450=CARTESIAN_POINT('',(0.000000000000,0.160000000000,-0.110000000000));
#451=LINE('',#450,#162);
#452=EDGE_CURVE('',#444,#449,#451,.T.);
#453=ORIENTED_EDGE('',*,*,#452,.T.);
#454=CARTESIAN_POINT('',(1.673071727520,0.160000000000,-0.110000000000));
#455=VERTEX_POINT('',#454);
#456=LINE('',#450,#162);
#457=EDGE_CURVE('',#449,#455,#456,.T.);
#458=ORIENTED_EDGE('',*,*,#457,.T.);
#459=CARTESIAN_POINT('',(1.799123287809,0.160000000000,-0.110000000000));
#460=VERTEX_POINT('',#459);
#461=LINE('',#450,#162);
#462=EDGE_CURVE('',#455,#460,#461,.T.);
#463=ORIENTED_EDGE('',*,*,#462,.T.);
#464=CARTESIAN_POINT('',(2.050000000000,0.160000000000,-0.110000000000));
#465=VERTEX_POINT('',#464);
#466=LINE('',#450,#162);
#467=EDGE_CURVE('',#460,#465,#466,.T.);
#468=ORIENTED_EDGE('',*,*,#467,.T.);
#469=CARTESIAN_POINT('',(2.750000000000,0.160000000000,-0.110000000000));
#470=VERTEX_POINT('',#469);
#471=LINE('',#450,#162);
#472=EDGE_CURVE('',#465,#470,#471,.T.);
#473=ORIENTED_EDGE('',*,*,#472,.T.);
#474=CARTESIAN_POINT('',(2.750000000000,0.108508375383,-0.110000000000));
#475=VERTEX_POINT('',#474);
#476=CARTESIAN_POINT('',(2.750000000000,0.000000000000,-0.110000000000));
#477=LINE('',#476,#213);
#478=EDGE_CURVE('',#470,#475,#477,.T.);
#479=ORIENTED_EDGE('',*,*,#478,.T.);
#480=CARTESIAN_POINT('',(2.750000000000,0.080000000000,-0.110000000000));
#481=VERTEX_POINT('',#480);
#482=LINE('',#476,#213);
#483=EDGE_CURVE('',#475,#481,#482,.T.);
#484=ORIENTED_EDGE('',*,*,#483,.T.);
#485=CARTESIAN_POINT('',(2.635659151569,0.080000000000,-0.110000000000));
#486=VERTEX_POINT('',#485);
#487=CARTESIAN_POINT('',(0.000000000000,0.080000000000,-0.110000000000));
#488=LINE('',#487,#162);
#489=EDGE_CURVE('',#486,#481,#488,.T.);
#490=ORIENTED_EDGE('',*,*,#489,.F.);
#491=CARTESIAN_POINT('',(2.050000000000,0.080000000000,-0.110000000000));
#492=VERTEX_POINT('',#491);
#493=LINE('',#487,#162);
#494=EDGE_CURVE('',#492,#486,#493,.T.);
#495=ORIENTED_EDGE('',*,*,#494,.F.);
#496=CARTESIAN_POINT('',(2.050000000000,0.066021226607,-0.110000000000));
#497=VERTEX_POINT('',#496);
#498=CARTESIAN_POINT('',(2.050000000000,0.000000000000,-0.110000000000));
#499=LINE('',#498,#189);
#500=EDGE_CURVE('',#497,#492,#499,.T.);
#501=ORIENTED_EDGE('',*,*,#500,.F.);
#502=CARTESIAN_POINT('',(2.050000000000,-0.066021226607,-0.110000000000));
#503=VERTEX_POINT('',#502);
#504=LINE('',#498,#189);
#505=EDGE_CURVE('',#503,#497,#504,.T.);
#506=ORIENTED_EDGE('',*,*,#505,.F.);
#507=CARTESIAN_POINT('',(2.050000000000,-0.080000000000,-0.110000000000));
#508=VERTEX_POINT('',#507);
#509=LINE('',#498,#189);
#510=EDGE_CURVE('',#508,#503,#509,.T.);
#511=ORIENTED_EDGE('',*,*,#510,.F.);
#512=CARTESIAN_POINT('',(2.635659151569,-0.080000000000,-0.110000000000));
#513=VERTEX_POINT('',#512);
#514=CARTESIAN_POINT('',(0.000000000000,-0.080000000000,-0.110000000000));
#515=LINE('',#514,#231);
#516=EDGE_CURVE('',#513,#508,#515,.T.);
#517=ORIENTED_EDGE('',*,*,#516,.F.);
#518=CARTESIAN_POINT('',(2.750000000000,-0.080000000000,-0.110000000000));
#519=VERTEX_POINT('',#518);
#520=LINE('',#514,#231);
#521=EDGE_CURVE('',#519,#513,#520,.T.);
#522=ORIENTED_EDGE('',*,*,#521,.F.);
#523=CARTESIAN_POINT('',(2.750000000000,-0.108508375383,-0.110000000000));
#524=VERTEX_POINT('',#523);
#525=LINE('',#476,#213);
#526=EDGE_CURVE('',#519,#524,#525,.T.);
#527=ORIENTED_EDGE('',*,*,#526,.T.);
#528=CARTESIAN_POINT('',(2.750000000000,-0.160000000000,-0.110000000000));
#529=VERTEX_POINT('',#528);
#530=LINE('',#476,#213);
#531=EDGE_CURVE('',#524,#529,#530,.T.);
#532=ORIENTED_EDGE('',*,*,#531,.T.);
#533=CARTESIAN_POINT('',(2.050000000000,-0.160000000000,-0.110000000000));
#534=VERTEX_POINT('',#533);
#535=CARTESIAN_POINT('',(0.000000000000,-0.160000000000,-0.110000000000));
#536=LINE('',#535,#231);
#537=EDGE_CURVE('',#529,#534,#536,.T.);
#538=ORIENTED_EDGE('',*,*,#537,.T.);
#539=CARTESIAN_POINT('',(1.799123287809,-0.160000000000,-0.110000000000));
#540=VERTEX_POINT('',#539);
#541=LINE('',#535,#231);
#542=EDGE_CURVE('',#534,#540,#541,.T.);
#543=ORIENTED_EDGE('',*,*,#542,.T.);
#544=CARTESIAN_POINT('',(1.673071727520,-0.160000000000,-0.110000000000));
#545=VERTEX_POINT('',#544);
#546=LINE('',#535,#231);
#547=EDGE_CURVE('',#540,#545,#546,.T.);
#548=ORIENTED_EDGE('',*,*,#547,.T.);
#549=CARTESIAN_POINT('',(0.515673389077,-0.160000000000,-0.110000000000));
#550=VERTEX_POINT('',#549);
#551=LINE('',#535,#231);
#552=EDGE_CURVE('',#545,#550,#551,.T.);
#553=ORIENTED_EDGE('',*,*,#552,.T.);
#554=CARTESIAN_POINT('',(0.494772675074,-0.160000000000,-0.110000000000));
#555=VERTEX_POINT('',#554);
#556=LINE('',#535,#231);
#557=EDGE_CURVE('',#550,#555,#556,.T.);
#558=ORIENTED_EDGE('',*,*,#557,.T.);
#559=CARTESIAN_POINT('',(0.492900416154,-0.165677939858,-0.110000000000));
#560=VERTEX_POINT('',#559);
#561=CIRCLE('',#361,0.520000000000);
#562=EDGE_CURVE('',#560,#555,#561,.T.);
#563=ORIENTED_EDGE('',*,*,#562,.F.);
#564=CIRCLE('',#361,0.520000000000);
#565=EDGE_CURVE('',#17,#560,#564,.T.);
#566=ORIENTED_EDGE('',*,*,#565,.F.);
#567=EDGE_LOOP('',(#379,#380,#381,#382,#383,#388,#393,#398,#403,#408,#414,#420,#426,#431,#437,#442,#447,#453,#458,#463,#468,#473,#479,#484,#490,#495,#501,#506,#511,#517,#522,#527,#532,#538,#543,#548,#553,#558,#563,#566));
#568=FACE_BOUND('',#378,.T.);
#569=FACE_OUTER_BOUND('',#567,.T.);
#570=ADVANCED_FACE('',(#568,#569),#356,.T.);
#571=CARTESIAN_POINT('',(0.242573931569,-0.060480473900,0.000000000000));
#572=AXIS2_PLACEMENT_3D('',#571,#318,#310);
#573=PLANE('',#572);
#574=ORIENTED_EDGE('',*,*,#292,.F.);
#575=CARTESIAN_POINT('',(0.352880766001,0.381936074477,0.000000000000));
#576=LINE('',#575,#28);
#577=EDGE_CURVE('',#433,#282,#576,.T.);
#578=ORIENTED_EDGE('',*,*,#577,.F.);
#579=ORIENTED_EDGE('',*,*,#436,.F.);
#580=CARTESIAN_POINT('',(0.378050193105,0.482885132815,0.000000000000));
#581=LINE('',#580,#28);
#582=EDGE_CURVE('',#428,#287,#581,.T.);
#583=ORIENTED_EDGE('',*,*,#582,.T.);
#584=EDGE_LOOP('',(#574,#578,#579,#583));
#585=FACE_OUTER_BOUND('',#584,.T.);
#586=ADVANCED_FACE('',(#585),#573,.T.);
#587=CARTESIAN_POINT('',(-1.989106238866,0.495939885979,0.000000000000));
#588=AXIS2_PLACEMENT_3D('',#587,#297,#289);
#589=PLANE('',#588);
#590=ORIENTED_EDGE('',*,*,#313,.F.);
#591=CARTESIAN_POINT('',(-1.853629977330,1.039305492694,0.000000000000));
#592=LINE('',#591,#12);
#593=EDGE_CURVE('',#303,#416,#592,.T.);
#594=ORIENTED_EDGE('',*,*,#593,.T.);
#595=ORIENTED_EDGE('',*,*,#419,.F.);
#596=CARTESIAN_POINT('',(-1.921368108098,0.767622689337,0.000000000000));
#597=LINE('',#596,#28);
#598=EDGE_CURVE('',#410,#308,#597,.T.);
#599=ORIENTED_EDGE('',*,*,#598,.T.);
#600=EDGE_LOOP('',(#590,#594,#595,#599));
#601=FACE_OUTER_BOUND('',#600,.T.);
#602=ADVANCED_FACE('',(#601),#589,.T.);
#603=CARTESIAN_POINT('',(0.135476261536,0.543365606715,0.000000000000));
#604=AXIS2_PLACEMENT_3D('',#603,#289,#318);
#605=PLANE('',#604);
#606=ORIENTED_EDGE('',*,*,#300,.F.);
#607=ORIENTED_EDGE('',*,*,#582,.F.);
#608=ORIENTED_EDGE('',*,*,#430,.F.);
#609=ORIENTED_EDGE('',*,*,#425,.F.);
#610=ORIENTED_EDGE('',*,*,#593,.F.);
#611=ORIENTED_EDGE('',*,*,#305,.F.);
#612=EDGE_LOOP('',(#606,#607,#608,#609,#610,#611));
#613=FACE_OUTER_BOUND('',#612,.T.);
#614=ADVANCED_FACE('',(#613),#605,.T.);
#615=CARTESIAN_POINT('',(0.067738130768,0.271682803357,0.000000000000));
#616=AXIS2_PLACEMENT_3D('',#615,#310,#297);
#617=PLANE('',#616);
#618=ORIENTED_EDGE('',*,*,#321,.F.);
#619=ORIENTED_EDGE('',*,*,#598,.F.);
#620=ORIENTED_EDGE('',*,*,#413,.F.);
#621=CARTESIAN_POINT('',(-0.357424154618,0.377687666857,0.000000000000));
#622=LINE('',#621,#28);
#623=EDGE_CURVE('',#405,#316,#622,.T.);
#624=ORIENTED_EDGE('',*,*,#623,.T.);
#625=EDGE_LOOP('',(#618,#619,#620,#624));
#626=FACE_OUTER_BOUND('',#625,.T.);
#627=ADVANCED_FACE('',(#626),#617,.T.);
#628=CARTESIAN_POINT('',(0.000000000000,0.000000000000,0.000000000000));
#629=AXIS2_PLACEMENT_3D('',#628,#27,#123);
#630=CYLINDRICAL_SURFACE('',#629,0.110000000000);
#631=ORIENTED_EDGE('',*,*,#131,.T.);
#632=ORIENTED_EDGE('',*,*,#144,.T.);
#633=ORIENTED_EDGE('',*,*,#141,.T.);
#634=ORIENTED_EDGE('',*,*,#136,.T.);
#635=EDGE_LOOP('',(#631,#632,#633,#634));
#636=ORIENTED_EDGE('',*,*,#363,.F.);
#637=ORIENTED_EDGE('',*,*,#376,.F.);
#638=ORIENTED_EDGE('',*,*,#373,.F.);
#639=ORIENTED_EDGE('',*,*,#368,.F.);
#640=EDGE_LOOP('',(#636,#637,#638,#639));
#641=FACE_BOUND('',#635,.T.);
#642=FACE_BOUND('',#640,.T.);
#643=ADVANCED_FACE('',(#641,#642),#630,.F.);
#644=CARTESIAN_POINT('',(2.750000000000,0.000000000000,0.000000000000));
#645=AXIS2_PLACEMENT_3D('',#644,#161,#27);
#646=PLANE('',#645);
#647=ORIENTED_EDGE('',*,*,#191,.F.);
#648=CARTESIAN_POINT('',(2.750000000000,-0.160000000000,0.000000000000));
#649=LINE('',#648,#12);
#650=EDGE_CURVE('',#182,#529,#649,.T.);
#651=ORIENTED_EDGE('',*,*,#650,.T.);
#652=ORIENTED_EDGE('',*,*,#531,.F.);
#653=ORIENTED_EDGE('',*,*,#526,.F.);
#654=CARTESIAN_POINT('',(2.750000000000,-0.080000000000,0.000000000000));
#655=LINE('',#654,#12);
#656=EDGE_CURVE('',#194,#519,#655,.T.);
#657=ORIENTED_EDGE('',*,*,#656,.F.);
#658=ORIENTED_EDGE('',*,*,#196,.F.);
#659=EDGE_LOOP('',(#647,#651,#652,#653,#657,#658));
#660=ORIENTED_EDGE('',*,*,#243,.F.);
#661=CARTESIAN_POINT('',(2.750000000000,0.080000000000,0.000000000000));
#662=LINE('',#661,#28);
#663=EDGE_CURVE('',#481,#236,#662,.T.);
#664=ORIENTED_EDGE('',*,*,#663,.F.);
#665=ORIENTED_EDGE('',*,*,#483,.F.);
#666=ORIENTED_EDGE('',*,*,#478,.F.);
#667=CARTESIAN_POINT('',(2.750000000000,0.160000000000,0.000000000000));
#668=LINE('',#667,#28);
#669=EDGE_CURVE('',#470,#246,#668,.T.);
#670=ORIENTED_EDGE('',*,*,#669,.T.);
#671=ORIENTED_EDGE('',*,*,#248,.F.);
#672=EDGE_LOOP('',(#660,#664,#665,#666,#670,#671));
#673=FACE_OUTER_BOUND('',#659,.T.);
#674=ADVANCED_FACE('',(#673),#646,.T.);
#675=FACE_OUTER_BOUND('',#672,.T.);
#676=ADVANCED_FACE('',(#675),#646,.T.);
#677=CARTESIAN_POINT('',(0.000000000000,0.160000000000,0.000000000000));
#678=AXIS2_PLACEMENT_3D('',#677,#123,#11);
#679=PLANE('',#678);
#680=ORIENTED_EDGE('',*,*,#254,.F.);
#681=ORIENTED_EDGE('',*,*,#669,.F.);
#682=ORIENTED_EDGE('',*,*,#472,.F.);
#683=ORIENTED_EDGE('',*,*,#467,.F.);
#684=ORIENTED_EDGE('',*,*,#462,.F.);
#685=ORIENTED_EDGE('',*,*,#457,.F.);
#686=ORIENTED_EDGE('',*,*,#452,.F.);
#687=CARTESIAN_POINT('',(0.494772675074,0.160000000000,0.000000000000));
#688=LINE('',#687,#28);
#689=EDGE_CURVE('',#444,#272,#688,.T.);
#690=ORIENTED_EDGE('',*,*,#689,.T.);
#691=ORIENTED_EDGE('',*,*,#274,.F.);
#692=ORIENTED_EDGE('',*,*,#269,.F.);
#693=ORIENTED_EDGE('',*,*,#264,.F.);
#694=ORIENTED_EDGE('',*,*,#259,.F.);
#695=EDGE_LOOP('',(#680,#681,#682,#683,#684,#685,#686,#690,#691,#692,#693,#694));
#696=FACE_OUTER_BOUND('',#695,.T.);
#697=ADVANCED_FACE('',(#696),#679,.T.);
#698=CARTESIAN_POINT('',(0.000000000000,-0.160000000000,0.000000000000));
#699=AXIS2_PLACEMENT_3D('',#698,#212,#27);
#700=PLANE('',#699);
#701=ORIENTED_EDGE('',*,*,#164,.F.);
#702=CARTESIAN_POINT('',(0.494772675074,-0.160000000000,0.000000000000));
#703=LINE('',#702,#28);
#704=EDGE_CURVE('',#555,#154,#703,.T.);
#705=ORIENTED_EDGE('',*,*,#704,.F.);
#706=ORIENTED_EDGE('',*,*,#557,.F.);
#707=ORIENTED_EDGE('',*,*,#552,.F.);
#708=ORIENTED_EDGE('',*,*,#547,.F.);
#709=ORIENTED_EDGE('',*,*,#542,.F.);
#710=ORIENTED_EDGE('',*,*,#537,.F.);
#711=ORIENTED_EDGE('',*,*,#650,.F.);
#712=ORIENTED_EDGE('',*,*,#184,.F.);
#713=ORIENTED_EDGE('',*,*,#179,.F.);
#714=ORIENTED_EDGE('',*,*,#174,.F.);
#715=ORIENTED_EDGE('',*,*,#169,.F.);
#716=EDGE_LOOP('',(#701,#705,#706,#707,#708,#709,#710,#711,#712,#713,#714,#715));
#717=FACE_OUTER_BOUND('',#716,.T.);
#718=ADVANCED_FACE('',(#717),#700,.T.);
#719=CARTESIAN_POINT('',(2.050000000000,0.000000000000,0.000000000000));
#720=AXIS2_PLACEMENT_3D('',#719,#230,#11);
#721=PLANE('',#720);
#722=ORIENTED_EDGE('',*,*,#225,.T.);
#723=ORIENTED_EDGE('',*,*,#220,.T.);
#724=ORIENTED_EDGE('',*,*,#215,.T.);
#725=CARTESIAN_POINT('',(2.050000000000,-0.080000000000,0.000000000000));
#726=LINE('',#725,#28);
#727=EDGE_CURVE('',#508,#205,#726,.T.);
#728=ORIENTED_EDGE('',*,*,#727,.F.);
#729=ORIENTED_EDGE('',*,*,#510,.T.);
#730=ORIENTED_EDGE('',*,*,#505,.T.);
#731=ORIENTED_EDGE('',*,*,#500,.T.);
#732=CARTESIAN_POINT('',(2.050000000000,0.080000000000,0.000000000000));
#733=LINE('',#732,#12);
#734=EDGE_CURVE('',#223,#492,#733,.T.);
#735=ORIENTED_EDGE('',*,*,#734,.F.);
#736=EDGE_LOOP('',(#722,#723,#724,#728,#729,#730,#731,#735));
#737=FACE_OUTER_BOUND('',#736,.T.);
#738=ADVANCED_FACE('',(#737),#721,.F.);
#739=CARTESIAN_POINT('',(0.000000000000,0.080000000000,0.000000000000));
#740=AXIS2_PLACEMENT_3D('',#739,#123,#11);
#741=PLANE('',#740);
#742=ORIENTED_EDGE('',*,*,#238,.T.);
#743=ORIENTED_EDGE('',*,*,#233,.T.);
#744=ORIENTED_EDGE('',*,*,#734,.T.);
#745=ORIENTED_EDGE('',*,*,#494,.T.);
#746=ORIENTED_EDGE('',*,*,#489,.T.);
#747=ORIENTED_EDGE('',*,*,#663,.T.);
#748=EDGE_LOOP('',(#742,#743,#744,#745,#746,#747));
#749=FACE_OUTER_BOUND('',#748,.T.);
#750=ADVANCED_FACE('',(#749),#741,.F.);
#751=CARTESIAN_POINT('',(0.000000000000,-0.080000000000,0.000000000000));
#752=AXIS2_PLACEMENT_3D('',#751,#212,#27);
#753=PLANE('',#752);
#754=ORIENTED_EDGE('',*,*,#207,.T.);
#755=ORIENTED_EDGE('',*,*,#202,.T.);
#756=ORIENTED_EDGE('',*,*,#656,.T.);
#757=ORIENTED_EDGE('',*,*,#521,.T.);
#758=ORIENTED_EDGE('',*,*,#516,.T.);
#759=ORIENTED_EDGE('',*,*,#727,.T.);
#760=EDGE_LOOP('',(#754,#755,#756,#757,#758,#759));
#761=FACE_OUTER_BOUND('',#760,.T.);
#762=ADVANCED_FACE('',(#761),#753,.F.);
#763=CYLINDRICAL_SURFACE('',#629,0.520000000000);
#764=ORIENTED_EDGE('',*,*,#279,.F.);
#765=ORIENTED_EDGE('',*,*,#689,.F.);
#766=ORIENTED_EDGE('',*,*,#446,.T.);
#767=ORIENTED_EDGE('',*,*,#441,.T.);
#768=ORIENTED_EDGE('',*,*,#577,.T.);
#769=ORIENTED_EDGE('',*,*,#284,.F.);
#770=EDGE_LOOP('',(#764,#765,#766,#767,#768,#769));
#771=ORIENTED_EDGE('',*,*,#30,.F.);
#772=ORIENTED_EDGE('',*,*,#565,.T.);
#773=ORIENTED_EDGE('',*,*,#562,.T.);
#774=ORIENTED_EDGE('',*,*,#704,.T.);
#775=ORIENTED_EDGE('',*,*,#156,.F.);
#776=ORIENTED_EDGE('',*,*,#151,.F.);
#777=EDGE_LOOP('',(#771,#772,#773,#774,#775,#776));
#778=ORIENTED_EDGE('',*,*,#86,.T.);
#779=ORIENTED_EDGE('',*,*,#344,.F.);
#780=ORIENTED_EDGE('',*,*,#341,.F.);
#781=ORIENTED_EDGE('',*,*,#336,.F.);
#782=ORIENTED_EDGE('',*,*,#331,.F.);
#783=ORIENTED_EDGE('',*,*,#326,.F.);
#784=ORIENTED_EDGE('',*,*,#623,.F.);
#785=ORIENTED_EDGE('',*,*,#407,.T.);
#786=ORIENTED_EDGE('',*,*,#402,.T.);
#787=ORIENTED_EDGE('',*,*,#397,.T.);
#788=ORIENTED_EDGE('',*,*,#392,.T.);
#789=ORIENTED_EDGE('',*,*,#387,.T.);
#790=EDGE_LOOP('',(#778,#779,#780,#781,#782,#783,#784,#785,#786,#787,#788,#789));
#791=FACE_BOUND('',#770,.T.);
#792=FACE_BOUND('',#777,.T.);
#793=FACE_BOUND('',#790,.T.);
#794=ADVANCED_FACE('',(#791,#792,#793),#763,.T.);
#795=CLOSED_SHELL('',(#39,#70,#95,#121,#353,#570,#586,#602,#614,#627,#643,#674,#676,#697,#718,#738,#750,#762,#794));
#796=MANIFOLD_SOLID_BREP('escapement',#795);
#797=APPLICATION_CONTEXT('core data for automotive mechanical design processes');
#798=APPLICATION_PROTOCOL_DEFINITION('international standard','automotive_design',2000,#797);
#799=PRODUCT_CONTEXT('',#797,'mechanical');
#800=PRODUCT('escapement','escapement','',(#799));
#801=PRODUCT_DEFINITION_FORMATION('','',#800);
#802=PRODUCT_DEFINITION_CONTEXT('part definition',#797,'design');
#803=PRODUCT_DEFINITION('','',#801,#802);
#804=PRODUCT_DEFINITION_SHAPE('','',#803);
#805=(LENGTH_UNIT()NAMED_UNIT(*)SI_UNIT(.MILLI.,.METRE.));
#806=(NAMED_UNIT(*)PLANE_ANGLE_UNIT()SI_UNIT($,.RADIAN.));
#807=(NAMED_UNIT(*)SI_UNIT($,.STERADIAN.)SOLID_ANGLE_UNIT());
#808=UNCERTAINTY_MEASURE_WITH_UNIT(LENGTH_MEASURE(1.E-07),#805,'distance_accuracy_value','');
#809=(GEOMETRIC_REPRESENTATION_CONTEXT(3)GLOBAL_UNCERTAINTY_ASSIGNED_CONTEXT((#808))GLOBAL_UNIT_ASSIGNED_CONTEXT((#805,#806,#807))REPRESENTATION_CONTEXT('',''));
#810=ADVANCED_BREP_SHAPE_REPRESENTATION('',(#796),#809);
#811=SHAPE_DEFINITION_REPRESENTATION(#804,#810);
ENDSEC;
END-ISO-10303-21;
