ISO-10303-21;
HEADER;
FILE_DESCRIPTION(('10 face(s), 40 edge(s), 32 vertex/vertices confirmed by cade at n=128, half-extent 1.250000000000'),'2;1');
FILE_NAME('barrel_and_winding.step','2026-08-23T00:00:00',('cade'),('cade'),'cade 0.1.0','cade','');
FILE_SCHEMA(('AUTOMOTIVE_DESIGN { 1 0 10303 214 1 1 1 1 }'));
ENDSEC;
DATA;
#1=CARTESIAN_POINT('',(1.059537111431,0.563365875343,0.000000000000));
#2=DIRECTION('',(0.882947592859,0.469471562786,0.000000000000));
#3=DIRECTION('',(0.469471562786,-0.882947592859,0.000000000000));
#4=AXIS2_PLACEMENT_3D('',#1,#2,#3);
#5=PLANE('',#4);
#6=CARTESIAN_POINT('',(0.904611495711,0.854738580987,-0.070000000000));
#7=VERTEX_POINT('',#6);
#8=CARTESIAN_POINT('',(0.904611495711,0.854738580987,0.070000000000));
#9=VERTEX_POINT('',#8);
#10=CARTESIAN_POINT('',(0.904611495711,0.854738580987,0.000000000000));
#11=DIRECTION('',(0.000000000000,0.000000000000,1.000000000000));
#12=VECTOR('',#11,1.0);
#13=LINE('',#10,#12);
#14=EDGE_CURVE('',#7,#9,#13,.T.);
#15=ORIENTED_EDGE('',*,*,#14,.T.);
#16=CARTESIAN_POINT('',(0.989116377013,0.695808014272,0.070000000000));
#17=VERTEX_POINT('',#16);
#18=CARTESIAN_POINT('',(1.059537111431,0.563365875343,0.070000000000));
#19=VECTOR('',#3,1.0);
#20=LINE('',#18,#19);
#21=EDGE_CURVE('',#9,#17,#20,.T.);
#22=ORIENTED_EDGE('',*,*,#21,.T.);
#23=CARTESIAN_POINT('',(0.989116377013,0.695808014272,-0.070000000000));
#24=VERTEX_POINT('',#23);
#25=CARTESIAN_POINT('',(0.989116377013,0.695808014272,0.000000000000));
#26=DIRECTION('',(0.000000000000,0.000000000000,-1.000000000000));
#27=VECTOR('',#26,1.0);
#28=LINE('',#25,#27);
#29=EDGE_CURVE('',#17,#24,#28,.T.);
#30=ORIENTED_EDGE('',*,*,#29,.T.);
#31=CARTESIAN_POINT('',(1.059537111431,0.563365875343,-0.070000000000));
#32=DIRECTION('',(-0.469471562786,0.882947592859,0.000000000000));
#33=VECTOR('',#32,1.0);
#34=LINE('',#31,#33);
#35=EDGE_CURVE('',#24,#7,#34,.T.);
#36=ORIENTED_EDGE('',*,*,#35,.T.);
#37=EDGE_LOOP('',(#15,#22,#30,#36));
#38=FACE_OUTER_BOUND('',#37,.T.);
#39=ADVANCED_FACE('',(#38),#5,.T.);
#40=CARTESIAN_POINT('',(0.529768555715,0.281682937672,0.000000000000));
#41=DIRECTION('',(-0.882947592859,-0.469471562786,0.000000000000));
#42=AXIS2_PLACEMENT_3D('',#40,#41,#32);
#43=PLANE('',#42);
#44=CARTESIAN_POINT('',(0.374842939996,0.573055643315,0.070000000000));
#45=VERTEX_POINT('',#44);
#46=CARTESIAN_POINT('',(0.374842939996,0.573055643315,-0.070000000000));
#47=VERTEX_POINT('',#46);
#48=CARTESIAN_POINT('',(0.374842939996,0.573055643315,0.000000000000));
#49=LINE('',#48,#27);
#50=EDGE_CURVE('',#45,#47,#49,.T.);
#51=ORIENTED_EDGE('',*,*,#50,.T.);
#52=CARTESIAN_POINT('',(0.459347821297,0.414125076600,-0.070000000000));
#53=VERTEX_POINT('',#52);
#54=CARTESIAN_POINT('',(0.529768555715,0.281682937672,-0.070000000000));
#55=LINE('',#54,#19);
#56=EDGE_CURVE('',#47,#53,#55,.T.);
#57=ORIENTED_EDGE('',*,*,#56,.T.);
#58=CARTESIAN_POINT('',(0.459347821297,0.414125076600,0.070000000000));
#59=VERTEX_POINT('',#58);
#60=CARTESIAN_POINT('',(0.459347821297,0.414125076600,0.000000000000));
#61=LINE('',#60,#12);
#62=EDGE_CURVE('',#53,#59,#61,.T.);
#63=ORIENTED_EDGE('',*,*,#62,.T.);
#64=CARTESIAN_POINT('',(0.529768555715,0.281682937672,0.070000000000));
#65=LINE('',#64,#33);
#66=EDGE_CURVE('',#59,#45,#65,.T.);
#67=ORIENTED_EDGE('',*,*,#66,.T.);
#68=EDGE_LOOP('',(#51,#57,#63,#67));
#69=FACE_OUTER_BOUND('',#68,.T.);
#70=ADVANCED_FACE('',(#69),#43,.T.);
#71=CARTESIAN_POINT('',(-0.154925615719,0.291372705643,0.000000000000));
#72=AXIS2_PLACEMENT_3D('',#71,#32,#2);
#73=PLANE('',#72);
#74=ORIENTED_EDGE('',*,*,#14,.F.);
#75=CARTESIAN_POINT('',(0.750000000000,0.772530190473,-0.070000000000));
#76=VERTEX_POINT('',#75);
#77=CARTESIAN_POINT('',(-0.154925615719,0.291372705643,-0.070000000000));
#78=VECTOR('',#41,1.0);
#79=LINE('',#77,#78);
#80=EDGE_CURVE('',#7,#76,#79,.T.);
#81=ORIENTED_EDGE('',*,*,#80,.T.);
#82=LINE('',#77,#78);
#83=EDGE_CURVE('',#76,#47,#82,.T.);
#84=ORIENTED_EDGE('',*,*,#83,.T.);
#85=ORIENTED_EDGE('',*,*,#50,.F.);
#86=CARTESIAN_POINT('',(0.750000000000,0.772530190473,0.070000000000));
#87=VERTEX_POINT('',#86);
#88=CARTESIAN_POINT('',(-0.154925615719,0.291372705643,0.070000000000));
#89=VECTOR('',#2,1.0);
#90=LINE('',#88,#89);
#91=EDGE_CURVE('',#45,#87,#90,.T.);
#92=ORIENTED_EDGE('',*,*,#91,.T.);
#93=LINE('',#88,#89);
#94=EDGE_CURVE('',#87,#9,#93,.T.);
#95=ORIENTED_EDGE('',*,*,#94,.T.);
#96=EDGE_LOOP('',(#74,#81,#84,#85,#92,#95));
#97=FACE_OUTER_BOUND('',#96,.T.);
#98=ADVANCED_FACE('',(#97),#73,.T.);
#99=CARTESIAN_POINT('',(-0.070420734418,0.132442138929,0.000000000000));
#100=AXIS2_PLACEMENT_3D('',#99,#3,#41);
#101=PLANE('',#100);
#102=ORIENTED_EDGE('',*,*,#29,.F.);
#103=CARTESIAN_POINT('',(0.750000000000,0.568667581349,0.070000000000));
#104=VERTEX_POINT('',#103);
#105=CARTESIAN_POINT('',(-0.070420734418,0.132442138929,0.070000000000));
#106=LINE('',#105,#78);
#107=EDGE_CURVE('',#17,#104,#106,.T.);
#108=ORIENTED_EDGE('',*,*,#107,.T.);
#109=LINE('',#105,#78);
#110=EDGE_CURVE('',#104,#59,#109,.T.);
#111=ORIENTED_EDGE('',*,*,#110,.T.);
#112=ORIENTED_EDGE('',*,*,#62,.F.);
#113=CARTESIAN_POINT('',(0.750000000000,0.568667581349,-0.070000000000));
#114=VERTEX_POINT('',#113);
#115=CARTESIAN_POINT('',(-0.070420734418,0.132442138929,-0.070000000000));
#116=LINE('',#115,#89);
#117=EDGE_CURVE('',#53,#114,#116,.T.);
#118=ORIENTED_EDGE('',*,*,#117,.T.);
#119=LINE('',#115,#89);
#120=EDGE_CURVE('',#114,#24,#119,.T.);
#121=ORIENTED_EDGE('',*,*,#120,.T.);
#122=EDGE_LOOP('',(#102,#108,#111,#112,#118,#121));
#123=FACE_OUTER_BOUND('',#122,.T.);
#124=ADVANCED_FACE('',(#123),#101,.T.);
#125=CARTESIAN_POINT('',(0.000000000000,0.000000000000,0.070000000000));
#126=DIRECTION('',(0.000000000000,1.000000000000,0.000000000000));
#127=AXIS2_PLACEMENT_3D('',#125,#11,#126);
#128=PLANE('',#127);
#129=ORIENTED_EDGE('',*,*,#21,.F.);
#130=ORIENTED_EDGE('',*,*,#94,.F.);
#131=ORIENTED_EDGE('',*,*,#91,.F.);
#132=ORIENTED_EDGE('',*,*,#66,.F.);
#133=ORIENTED_EDGE('',*,*,#110,.F.);
#134=ORIENTED_EDGE('',*,*,#107,.F.);
#135=EDGE_LOOP('',(#129,#130,#131,#132,#133,#134));
#136=CARTESIAN_POINT('',(0.750000000000,-0.090000000000,0.070000000000));
#137=VERTEX_POINT('',#136);
#138=CARTESIAN_POINT('',(0.750000000000,0.090000000000,0.070000000000));
#139=VERTEX_POINT('',#138);
#140=CARTESIAN_POINT('',(0.750000000000,0.000000000000,0.070000000000));
#141=VECTOR('',#126,1.0);
#142=LINE('',#140,#141);
#143=EDGE_CURVE('',#137,#139,#142,.T.);
#144=ORIENTED_EDGE('',*,*,#143,.T.);
#145=CARTESIAN_POINT('',(0.631688181564,0.090000000000,0.070000000000));
#146=VERTEX_POINT('',#145);
#147=CARTESIAN_POINT('',(0.000000000000,0.090000000000,0.070000000000));
#148=DIRECTION('',(-1.000000000000,0.000000000000,0.000000000000));
#149=VECTOR('',#148,1.0);
#150=LINE('',#147,#149);
#151=EDGE_CURVE('',#139,#146,#150,.T.);
#152=ORIENTED_EDGE('',*,*,#151,.T.);
#153=CARTESIAN_POINT('',(-0.150242788347,0.090000000000,0.070000000000));
#154=VERTEX_POINT('',#153);
#155=LINE('',#147,#149);
#156=EDGE_CURVE('',#146,#154,#155,.T.);
#157=ORIENTED_EDGE('',*,*,#156,.T.);
#158=CARTESIAN_POINT('',(-0.533652592621,0.090000000000,0.070000000000));
#159=VERTEX_POINT('',#158);
#160=LINE('',#147,#149);
#161=EDGE_CURVE('',#154,#159,#160,.T.);
#162=ORIENTED_EDGE('',*,*,#161,.T.);
#163=CARTESIAN_POINT('',(-0.750000000000,0.090000000000,0.070000000000));
#164=VERTEX_POINT('',#163);
#165=LINE('',#147,#149);
#166=EDGE_CURVE('',#159,#164,#165,.T.);
#167=ORIENTED_EDGE('',*,*,#166,.T.);
#168=CARTESIAN_POINT('',(-0.750000000000,-0.025033957019,0.070000000000));
#169=VERTEX_POINT('',#168);
#170=CARTESIAN_POINT('',(-0.750000000000,0.000000000000,0.070000000000));
#171=DIRECTION('',(0.000000000000,-1.000000000000,0.000000000000));
#172=VECTOR('',#171,1.0);
#173=LINE('',#170,#172);
#174=EDGE_CURVE('',#164,#169,#173,.T.);
#175=ORIENTED_EDGE('',*,*,#174,.T.);
#176=CARTESIAN_POINT('',(-0.750000000000,-0.090000000000,0.070000000000));
#177=VERTEX_POINT('',#176);
#178=LINE('',#170,#172);
#179=EDGE_CURVE('',#169,#177,#178,.T.);
#180=ORIENTED_EDGE('',*,*,#179,.T.);
#181=CARTESIAN_POINT('',(-0.488773552110,-0.090000000000,0.070000000000));
#182=VERTEX_POINT('',#181);
#183=CARTESIAN_POINT('',(0.000000000000,-0.090000000000,0.070000000000));
#184=DIRECTION('',(1.000000000000,0.000000000000,0.000000000000));
#185=VECTOR('',#184,1.0);
#186=LINE('',#183,#185);
#187=EDGE_CURVE('',#177,#182,#186,.T.);
#188=ORIENTED_EDGE('',*,*,#187,.T.);
#189=CARTESIAN_POINT('',(0.727395879263,-0.090000000000,0.070000000000));
#190=VERTEX_POINT('',#189);
#191=LINE('',#183,#185);
#192=EDGE_CURVE('',#182,#190,#191,.T.);
#193=ORIENTED_EDGE('',*,*,#192,.T.);
#194=LINE('',#183,#185);
#195=EDGE_CURVE('',#190,#137,#194,.T.);
#196=ORIENTED_EDGE('',*,*,#195,.T.);
#197=EDGE_LOOP('',(#144,#152,#157,#162,#167,#175,#180,#188,#193,#196));
#198=FACE_OUTER_BOUND('',#135,.T.);
#199=ADVANCED_FACE('',(#198),#128,.T.);
#200=FACE_OUTER_BOUND('',#197,.T.);
#201=ADVANCED_FACE('',(#200),#128,.T.);
#202=CARTESIAN_POINT('',(0.000000000000,0.000000000000,-0.070000000000));
#203=AXIS2_PLACEMENT_3D('',#202,#26,#171);
#204=PLANE('',#203);
#205=ORIENTED_EDGE('',*,*,#35,.F.);
#206=ORIENTED_EDGE('',*,*,#120,.F.);
#207=ORIENTED_EDGE('',*,*,#117,.F.);
#208=ORIENTED_EDGE('',*,*,#56,.F.);
#209=ORIENTED_EDGE('',*,*,#83,.F.);
#210=ORIENTED_EDGE('',*,*,#80,.F.);
#211=EDGE_LOOP('',(#205,#206,#207,#208,#209,#210));
#212=CARTESIAN_POINT('',(0.750000000000,0.090000000000,-0.070000000000));
#213=VERTEX_POINT('',#212);
#214=CARTESIAN_POINT('',(0.750000000000,-0.090000000000,-0.070000000000));
#215=VERTEX_POINT('',#214);
#216=CARTESIAN_POINT('',(0.750000000000,0.000000000000,-0.070000000000));
#217=LINE('',#216,#172);
#218=EDGE_CURVE('',#213,#215,#217,.T.);
#219=ORIENTED_EDGE('',*,*,#218,.T.);
#220=CARTESIAN_POINT('',(0.727395879263,-0.090000000000,-0.070000000000));
#221=VERTEX_POINT('',#220);
#222=CARTESIAN_POINT('',(0.000000000000,-0.090000000000,-0.070000000000));
#223=LINE('',#222,#149);
#224=EDGE_CURVE('',#215,#221,#223,.T.);
#225=ORIENTED_EDGE('',*,*,#224,.T.);
#226=CARTESIAN_POINT('',(-0.488773552110,-0.090000000000,-0.070000000000));
#227=VERTEX_POINT('',#226);
#228=LINE('',#222,#149);
#229=EDGE_CURVE('',#221,#227,#228,.T.);
#230=ORIENTED_EDGE('',*,*,#229,.T.);
#231=CARTESIAN_POINT('',(-0.750000000000,-0.090000000000,-0.070000000000));
#232=VERTEX_POINT('',#231);
#233=LINE('',#222,#149);
#234=EDGE_CURVE('',#227,#232,#233,.T.);
#235=ORIENTED_EDGE('',*,*,#234,.T.);
#236=CARTESIAN_POINT('',(-0.750000000000,-0.025033957019,-0.070000000000));
#237=VERTEX_POINT('',#236);
#238=CARTESIAN_POINT('',(-0.750000000000,0.000000000000,-0.070000000000));
#239=LINE('',#238,#141);
#240=EDGE_CURVE('',#232,#237,#239,.T.);
#241=ORIENTED_EDGE('',*,*,#240,.T.);
#242=CARTESIAN_POINT('',(-0.750000000000,0.090000000000,-0.070000000000));
#243=VERTEX_POINT('',#242);
#244=LINE('',#238,#141);
#245=EDGE_CURVE('',#237,#243,#244,.T.);
#246=ORIENTED_EDGE('',*,*,#245,.T.);
#247=CARTESIAN_POINT('',(-0.533652592621,0.090000000000,-0.070000000000));
#248=VERTEX_POINT('',#247);
#249=CARTESIAN_POINT('',(0.000000000000,0.090000000000,-0.070000000000));
#250=LINE('',#249,#185);
#251=EDGE_CURVE('',#243,#248,#250,.T.);
#252=ORIENTED_EDGE('',*,*,#251,.T.);
#253=CARTESIAN_POINT('',(-0.150242788347,0.090000000000,-0.070000000000));
#254=VERTEX_POINT('',#253);
#255=LINE('',#249,#185);
#256=EDGE_CURVE('',#248,#254,#255,.T.);
#257=ORIENTED_EDGE('',*,*,#256,.T.);
#258=CARTESIAN_POINT('',(0.631688181564,0.090000000000,-0.070000000000));
#259=VERTEX_POINT('',#258);
#260=LINE('',#249,#185);
#261=EDGE_CURVE('',#254,#259,#260,.T.);
#262=ORIENTED_EDGE('',*,*,#261,.T.);
#263=LINE('',#249,#185);
#264=EDGE_CURVE('',#259,#213,#263,.T.);
#265=ORIENTED_EDGE('',*,*,#264,.T.);
#266=EDGE_LOOP('',(#219,#225,#230,#235,#241,#246,#252,#257,#262,#265));
#267=FACE_OUTER_BOUND('',#211,.T.);
#268=ADVANCED_FACE('',(#267),#204,.T.);
#269=FACE_OUTER_BOUND('',#266,.T.);
#270=ADVANCED_FACE('',(#269),#204,.T.);
#271=CARTESIAN_POINT('',(0.750000000000,0.000000000000,0.000000000000));
#272=AXIS2_PLACEMENT_3D('',#271,#184,#11);
#273=PLANE('',#272);
#274=ORIENTED_EDGE('',*,*,#143,.F.);
#275=CARTESIAN_POINT('',(0.750000000000,-0.090000000000,0.000000000000));
#276=LINE('',#275,#27);
#277=EDGE_CURVE('',#137,#215,#276,.T.);
#278=ORIENTED_EDGE('',*,*,#277,.T.);
#279=ORIENTED_EDGE('',*,*,#218,.F.);
#280=CARTESIAN_POINT('',(0.750000000000,0.090000000000,0.000000000000));
#281=LINE('',#280,#12);
#282=EDGE_CURVE('',#213,#139,#281,.T.);
#283=ORIENTED_EDGE('',*,*,#282,.T.);
#284=EDGE_LOOP('',(#274,#278,#279,#283));
#285=FACE_OUTER_BOUND('',#284,.T.);
#286=ADVANCED_FACE('',(#285),#273,.T.);
#287=CARTESIAN_POINT('',(-0.750000000000,0.000000000000,0.000000000000));
#288=AXIS2_PLACEMENT_3D('',#287,#148,#26);
#289=PLANE('',#288);
#290=ORIENTED_EDGE('',*,*,#174,.F.);
#291=CARTESIAN_POINT('',(-0.750000000000,0.090000000000,0.000000000000));
#292=LINE('',#291,#27);
#293=EDGE_CURVE('',#164,#243,#292,.T.);
#294=ORIENTED_EDGE('',*,*,#293,.T.);
#295=ORIENTED_EDGE('',*,*,#245,.F.);
#296=ORIENTED_EDGE('',*,*,#240,.F.);
#297=CARTESIAN_POINT('',(-0.750000000000,-0.090000000000,0.000000000000));
#298=LINE('',#297,#12);
#299=EDGE_CURVE('',#232,#177,#298,.T.);
#300=ORIENTED_EDGE('',*,*,#299,.T.);
#301=ORIENTED_EDGE('',*,*,#179,.F.);
#302=EDGE_LOOP('',(#290,#294,#295,#296,#300,#301));
#303=FACE_OUTER_BOUND('',#302,.T.);
#304=ADVANCED_FACE('',(#303),#289,.T.);
#305=CARTESIAN_POINT('',(0.000000000000,0.090000000000,0.000000000000));
#306=AXIS2_PLACEMENT_3D('',#305,#126,#26);
#307=PLANE('',#306);
#308=ORIENTED_EDGE('',*,*,#151,.F.);
#309=ORIENTED_EDGE('',*,*,#282,.F.);
#310=ORIENTED_EDGE('',*,*,#264,.F.);
#311=ORIENTED_EDGE('',*,*,#261,.F.);
#312=ORIENTED_EDGE('',*,*,#256,.F.);
#313=ORIENTED_EDGE('',*,*,#251,.F.);
#314=ORIENTED_EDGE('',*,*,#293,.F.);
#315=ORIENTED_EDGE('',*,*,#166,.F.);
#316=ORIENTED_EDGE('',*,*,#161,.F.);
#317=ORIENTED_EDGE('',*,*,#156,.F.);
#318=EDGE_LOOP('',(#308,#309,#310,#311,#312,#313,#314,#315,#316,#317));
#319=FACE_OUTER_BOUND('',#318,.T.);
#320=ADVANCED_FACE('',(#319),#307,.T.);
#321=CARTESIAN_POINT('',(0.000000000000,-0.090000000000,0.000000000000));
#322=AXIS2_PLACEMENT_3D('',#321,#171,#11);
#323=PLANE('',#322);
#324=ORIENTED_EDGE('',*,*,#187,.F.);
#325=ORIENTED_EDGE('',*,*,#299,.F.);
#326=ORIENTED_EDGE('',*,*,#234,.F.);
#327=ORIENTED_EDGE('',*,*,#229,.F.);
#328=ORIENTED_EDGE('',*,*,#224,.F.);
#329=ORIENTED_EDGE('',*,*,#277,.F.);
#330=ORIENTED_EDGE('',*,*,#195,.F.);
#331=ORIENTED_EDGE('',*,*,#192,.F.);
#332=EDGE_LOOP('',(#324,#325,#326,#327,#328,#329,#330,#331));
#333=FACE_OUTER_BOUND('',#332,.T.);
#334=ADVANCED_FACE('',(#333),#323,.T.);
#335=CLOSED_SHELL('',(#39,#70,#98,#124,#199,#201,#268,#270,#286,#304,#320,#334));
#336=MANIFOLD_SOLID_BREP('barrel_and_winding',#335);
#337=APPLICATION_CONTEXT('core data for automotive mechanical design processes');
#338=APPLICATION_PROTOCOL_DEFINITION('international standard','automotive_design',2000,#337);
#339=PRODUCT_CONTEXT('',#337,'mechanical');
#340=PRODUCT('barrel_and_winding','barrel_and_winding','',(#339));
#341=PRODUCT_DEFINITION_FORMATION('','',#340);
#342=PRODUCT_DEFINITION_CONTEXT('part definition',#337,'design');
#343=PRODUCT_DEFINITION('','',#341,#342);
#344=PRODUCT_DEFINITION_SHAPE('','',#343);
#345=(LENGTH_UNIT()NAMED_UNIT(*)SI_UNIT(.MILLI.,.METRE.));
#346=(NAMED_UNIT(*)PLANE_ANGLE_UNIT()SI_UNIT($,.RADIAN.));
#347=(NAMED_UNIT(*)SI_UNIT($,.STERADIAN.)SOLID_ANGLE_UNIT());
#348=UNCERTAINTY_MEASURE_WITH_UNIT(LENGTH_MEASURE(1.E-07),#345,'distance_accuracy_value','');
#349=(GEOMETRIC_REPRESENTATION_CONTEXT(3)GLOBAL_UNCERTAINTY_ASSIGNED_CONTEXT((#348))GLOBAL_UNIT_ASSIGNED_CONTEXT((#345,#346,#347))REPRESENTATION_CONTEXT('',''));
#350=ADVANCED_BREP_SHAPE_REPRESENTATION('',(#336),#349);
#351=SHAPE_DEFINITION_REPRESENTATION(#344,#350);
ENDSEC;
END-ISO-10303-21;
