ISO-10303-21;
HEADER;
FILE_DESCRIPTION(('20 face(s), 103 edge(s), 86 vertex/vertices confirmed by cade at n=128, half-extent 10.000000000000'),'2;1');
FILE_NAME('going_train.step','2026-08-23T00:00:00',('cade'),('cade'),'cade 0.1.0','cade','');
FILE_SCHEMA(('AUTOMOTIVE_DESIGN { 1 0 10303 214 1 1 1 1 }'));
ENDSEC;
DATA;
#1=CARTESIAN_POINT('',(6.100000000000,-1.000000000000,0.000000000000));
#2=DIRECTION('',(0.000000000000,0.000000000000,1.000000000000));
#3=DIRECTION('',(0.000000000000,1.000000000000,0.000000000000));
#4=AXIS2_PLACEMENT_3D('',#1,#2,#3);
#5=CYLINDRICAL_SURFACE('',#4,0.240000000000);
#6=CARTESIAN_POINT('',(6.100000000000,-0.760000000000,-0.175000000000));
#7=VERTEX_POINT('',#6);
#8=CARTESIAN_POINT('',(6.100000000000,-1.000000000000,-0.175000000000));
#9=AXIS2_PLACEMENT_3D('',#8,#2,#3);
#10=CIRCLE('',#9,0.240000000000);
#11=EDGE_CURVE('',#7,#7,#10,.T.);
#12=ORIENTED_EDGE('',*,*,#11,.F.);
#13=EDGE_LOOP('',(#12));
#14=CARTESIAN_POINT('',(6.100000000000,-0.760000000000,0.175000000000));
#15=VERTEX_POINT('',#14);
#16=CARTESIAN_POINT('',(6.100000000000,-1.000000000000,0.175000000000));
#17=AXIS2_PLACEMENT_3D('',#16,#2,#3);
#18=CIRCLE('',#17,0.240000000000);
#19=EDGE_CURVE('',#15,#15,#18,.T.);
#20=ORIENTED_EDGE('',*,*,#19,.T.);
#21=EDGE_LOOP('',(#20));
#22=FACE_BOUND('',#13,.T.);
#23=FACE_BOUND('',#21,.T.);
#24=ADVANCED_FACE('',(#22,#23),#5,.F.);
#25=CARTESIAN_POINT('',(-5.400000000000,-1.300000000000,0.000000000000));
#26=AXIS2_PLACEMENT_3D('',#25,#2,#3);
#27=CYLINDRICAL_SURFACE('',#26,2.000000000000);
#28=CARTESIAN_POINT('',(-6.828285685709,0.100000000000,0.175000000000));
#29=VERTEX_POINT('',#28);
#30=CARTESIAN_POINT('',(-7.036306817195,-0.150000000000,0.175000000000));
#31=VERTEX_POINT('',#30);
#32=CARTESIAN_POINT('',(-5.400000000000,-1.300000000000,0.175000000000));
#33=AXIS2_PLACEMENT_3D('',#32,#2,#3);
#34=CIRCLE('',#33,2.000000000000);
#35=EDGE_CURVE('',#29,#31,#34,.T.);
#36=ORIENTED_EDGE('',*,*,#35,.F.);
#37=CARTESIAN_POINT('',(-3.971714314291,0.100000000000,0.175000000000));
#38=VERTEX_POINT('',#37);
#39=CIRCLE('',#33,2.000000000000);
#40=EDGE_CURVE('',#38,#29,#39,.T.);
#41=ORIENTED_EDGE('',*,*,#40,.F.);
#42=CARTESIAN_POINT('',(-3.763693182805,-0.150000000000,0.175000000000));
#43=VERTEX_POINT('',#42);
#44=CIRCLE('',#33,2.000000000000);
#45=EDGE_CURVE('',#43,#38,#44,.T.);
#46=ORIENTED_EDGE('',*,*,#45,.F.);
#47=CARTESIAN_POINT('',(-3.763693182805,-0.150000000000,-0.175000000000));
#48=VERTEX_POINT('',#47);
#49=CARTESIAN_POINT('',(-3.763693182805,-0.150000000000,0.000000000000));
#50=VECTOR('',#2,1.0);
#51=LINE('',#49,#50);
#52=EDGE_CURVE('',#48,#43,#51,.T.);
#53=ORIENTED_EDGE('',*,*,#52,.F.);
#54=CARTESIAN_POINT('',(-3.971714314291,0.100000000000,-0.175000000000));
#55=VERTEX_POINT('',#54);
#56=CARTESIAN_POINT('',(-5.400000000000,-1.300000000000,-0.175000000000));
#57=AXIS2_PLACEMENT_3D('',#56,#2,#3);
#58=CIRCLE('',#57,2.000000000000);
#59=EDGE_CURVE('',#48,#55,#58,.T.);
#60=ORIENTED_EDGE('',*,*,#59,.T.);
#61=CARTESIAN_POINT('',(-6.828285685709,0.100000000000,-0.175000000000));
#62=VERTEX_POINT('',#61);
#63=CIRCLE('',#57,2.000000000000);
#64=EDGE_CURVE('',#55,#62,#63,.T.);
#65=ORIENTED_EDGE('',*,*,#64,.T.);
#66=CARTESIAN_POINT('',(-7.036306817195,-0.150000000000,-0.175000000000));
#67=VERTEX_POINT('',#66);
#68=CIRCLE('',#57,2.000000000000);
#69=EDGE_CURVE('',#62,#67,#68,.T.);
#70=ORIENTED_EDGE('',*,*,#69,.T.);
#71=CARTESIAN_POINT('',(-7.159971590680,-2.250000000000,-0.175000000000));
#72=VERTEX_POINT('',#71);
#73=CIRCLE('',#57,2.000000000000);
#74=EDGE_CURVE('',#67,#72,#73,.T.);
#75=ORIENTED_EDGE('',*,*,#74,.T.);
#76=CARTESIAN_POINT('',(-3.640028409320,-2.250000000000,-0.175000000000));
#77=VERTEX_POINT('',#76);
#78=CIRCLE('',#57,2.000000000000);
#79=EDGE_CURVE('',#72,#77,#78,.T.);
#80=ORIENTED_EDGE('',*,*,#79,.T.);
#81=CARTESIAN_POINT('',(-3.640028409320,-2.250000000000,0.175000000000));
#82=VERTEX_POINT('',#81);
#83=CARTESIAN_POINT('',(-3.640028409320,-2.250000000000,0.000000000000));
#84=LINE('',#83,#50);
#85=EDGE_CURVE('',#77,#82,#84,.T.);
#86=ORIENTED_EDGE('',*,*,#85,.T.);
#87=CARTESIAN_POINT('',(-7.159971590680,-2.250000000000,0.175000000000));
#88=VERTEX_POINT('',#87);
#89=CIRCLE('',#33,2.000000000000);
#90=EDGE_CURVE('',#88,#82,#89,.T.);
#91=ORIENTED_EDGE('',*,*,#90,.F.);
#92=CIRCLE('',#33,2.000000000000);
#93=EDGE_CURVE('',#31,#88,#92,.T.);
#94=ORIENTED_EDGE('',*,*,#93,.F.);
#95=EDGE_LOOP('',(#36,#41,#46,#53,#60,#65,#70,#75,#80,#86,#91,#94));
#96=FACE_BOUND('',#95,.T.);
#97=ADVANCED_FACE('',(#96),#27,.T.);
#98=CARTESIAN_POINT('',(0.000000000000,0.000000000000,0.175000000000));
#99=AXIS2_PLACEMENT_3D('',#98,#2,#3);
#100=PLANE('',#99);
#101=CARTESIAN_POINT('',(-5.400000000000,-0.820000000000,0.175000000000));
#102=VERTEX_POINT('',#101);
#103=CIRCLE('',#33,0.480000000000);
#104=EDGE_CURVE('',#102,#102,#103,.T.);
#105=ORIENTED_EDGE('',*,*,#104,.F.);
#106=EDGE_LOOP('',(#105));
#107=ORIENTED_EDGE('',*,*,#19,.F.);
#108=EDGE_LOOP('',(#107));
#109=CARTESIAN_POINT('',(0.100000000000,-0.820000000000,0.175000000000));
#110=VERTEX_POINT('',#109);
#111=CARTESIAN_POINT('',(0.100000000000,-1.780000000000,0.175000000000));
#112=VERTEX_POINT('',#111);
#113=CARTESIAN_POINT('',(0.100000000000,-1.300000000000,0.175000000000));
#114=AXIS2_PLACEMENT_3D('',#113,#2,#3);
#115=CIRCLE('',#114,0.480000000000);
#116=EDGE_CURVE('',#110,#112,#115,.T.);
#117=ORIENTED_EDGE('',*,*,#116,.F.);
#118=CIRCLE('',#114,0.480000000000);
#119=EDGE_CURVE('',#112,#110,#118,.T.);
#120=ORIENTED_EDGE('',*,*,#119,.F.);
#121=EDGE_LOOP('',(#117,#120));
#122=CARTESIAN_POINT('',(2.300000000000,2.869467783772,0.175000000000));
#123=VERTEX_POINT('',#122);
#124=CARTESIAN_POINT('',(2.300000000000,1.930532216228,0.175000000000));
#125=VERTEX_POINT('',#124);
#126=CARTESIAN_POINT('',(2.400000000000,2.400000000000,0.175000000000));
#127=AXIS2_PLACEMENT_3D('',#126,#2,#3);
#128=CIRCLE('',#127,0.480000000000);
#129=EDGE_CURVE('',#123,#125,#128,.T.);
#130=ORIENTED_EDGE('',*,*,#129,.F.);
#131=CIRCLE('',#127,0.480000000000);
#132=EDGE_CURVE('',#125,#123,#131,.T.);
#133=ORIENTED_EDGE('',*,*,#132,.F.);
#134=EDGE_LOOP('',(#130,#133));
#135=CARTESIAN_POINT('',(-6.234733891886,-2.250000000000,0.175000000000));
#136=VERTEX_POINT('',#135);
#137=CARTESIAN_POINT('',(-5.765266108114,-2.250000000000,0.175000000000));
#138=VERTEX_POINT('',#137);
#139=CARTESIAN_POINT('',(-6.000000000000,-2.300000000000,0.175000000000));
#140=AXIS2_PLACEMENT_3D('',#139,#2,#3);
#141=CIRCLE('',#140,0.240000000000);
#142=EDGE_CURVE('',#136,#138,#141,.T.);
#143=ORIENTED_EDGE('',*,*,#142,.F.);
#144=CIRCLE('',#140,0.240000000000);
#145=EDGE_CURVE('',#138,#136,#144,.T.);
#146=ORIENTED_EDGE('',*,*,#145,.F.);
#147=EDGE_LOOP('',(#143,#146));
#148=CARTESIAN_POINT('',(3.830306154330,0.100000000000,0.175000000000));
#149=VERTEX_POINT('',#148);
#150=CARTESIAN_POINT('',(3.800833564944,-0.150000000000,0.175000000000));
#151=VERTEX_POINT('',#150);
#152=CARTESIAN_POINT('',(5.300000000000,-0.200000000000,0.175000000000));
#153=AXIS2_PLACEMENT_3D('',#152,#2,#3);
#154=CIRCLE('',#153,1.500000000000);
#155=EDGE_CURVE('',#149,#151,#154,.T.);
#156=ORIENTED_EDGE('',*,*,#155,.T.);
#157=CARTESIAN_POINT('',(2.300000000000,-0.150000000000,0.175000000000));
#158=VERTEX_POINT('',#157);
#159=CARTESIAN_POINT('',(0.000000000000,-0.150000000000,0.175000000000));
#160=DIRECTION('',(-1.000000000000,0.000000000000,0.000000000000));
#161=VECTOR('',#160,1.0);
#162=LINE('',#159,#161);
#163=EDGE_CURVE('',#151,#158,#162,.T.);
#164=ORIENTED_EDGE('',*,*,#163,.T.);
#165=CARTESIAN_POINT('',(2.300000000000,0.100000000000,0.175000000000));
#166=VERTEX_POINT('',#165);
#167=CARTESIAN_POINT('',(2.300000000000,0.000000000000,0.175000000000));
#168=VECTOR('',#3,1.0);
#169=LINE('',#167,#168);
#170=EDGE_CURVE('',#158,#166,#169,.T.);
#171=ORIENTED_EDGE('',*,*,#170,.T.);
#172=CARTESIAN_POINT('',(0.000000000000,0.100000000000,0.175000000000));
#173=DIRECTION('',(1.000000000000,0.000000000000,0.000000000000));
#174=VECTOR('',#173,1.0);
#175=LINE('',#172,#174);
#176=EDGE_CURVE('',#166,#149,#175,.T.);
#177=ORIENTED_EDGE('',*,*,#176,.T.);
#178=EDGE_LOOP('',(#156,#164,#171,#177));
#179=CARTESIAN_POINT('',(4.925300120096,0.100000000000,0.175000000000));
#180=VERTEX_POINT('',#179);
#181=CARTESIAN_POINT('',(4.822611269509,-0.150000000000,0.175000000000));
#182=VERTEX_POINT('',#181);
#183=CIRCLE('',#153,0.480000000000);
#184=EDGE_CURVE('',#180,#182,#183,.T.);
#185=ORIENTED_EDGE('',*,*,#184,.F.);
#186=CARTESIAN_POINT('',(5.500000000000,0.236348484585,0.175000000000));
#187=VERTEX_POINT('',#186);
#188=CIRCLE('',#153,0.480000000000);
#189=EDGE_CURVE('',#187,#180,#188,.T.);
#190=ORIENTED_EDGE('',*,*,#189,.F.);
#191=CARTESIAN_POINT('',(5.674699879904,0.100000000000,0.175000000000));
#192=VERTEX_POINT('',#191);
#193=CIRCLE('',#153,0.480000000000);
#194=EDGE_CURVE('',#192,#187,#193,.T.);
#195=ORIENTED_EDGE('',*,*,#194,.F.);
#196=CARTESIAN_POINT('',(5.777388730491,-0.150000000000,0.175000000000));
#197=VERTEX_POINT('',#196);
#198=CIRCLE('',#153,0.480000000000);
#199=EDGE_CURVE('',#197,#192,#198,.T.);
#200=ORIENTED_EDGE('',*,*,#199,.F.);
#201=CARTESIAN_POINT('',(5.500000000000,-0.636348484585,0.175000000000));
#202=VERTEX_POINT('',#201);
#203=CIRCLE('',#153,0.480000000000);
#204=EDGE_CURVE('',#202,#197,#203,.T.);
#205=ORIENTED_EDGE('',*,*,#204,.F.);
#206=CIRCLE('',#153,0.480000000000);
#207=EDGE_CURVE('',#182,#202,#206,.T.);
#208=ORIENTED_EDGE('',*,*,#207,.F.);
#209=EDGE_LOOP('',(#185,#190,#195,#200,#205,#208));
#210=ORIENTED_EDGE('',*,*,#35,.T.);
#211=ORIENTED_EDGE('',*,*,#93,.T.);
#212=ORIENTED_EDGE('',*,*,#90,.T.);
#213=CARTESIAN_POINT('',(-1.428888485142,-2.250000000000,0.175000000000));
#214=VERTEX_POINT('',#213);
#215=CARTESIAN_POINT('',(0.000000000000,-2.250000000000,0.175000000000));
#216=LINE('',#215,#174);
#217=EDGE_CURVE('',#82,#214,#216,.T.);
#218=ORIENTED_EDGE('',*,*,#217,.T.);
#219=CARTESIAN_POINT('',(0.100000000000,-3.100000000000,0.175000000000));
#220=VERTEX_POINT('',#219);
#221=CIRCLE('',#114,1.800000000000);
#222=EDGE_CURVE('',#214,#220,#221,.T.);
#223=ORIENTED_EDGE('',*,*,#222,.T.);
#224=CARTESIAN_POINT('',(1.628888485142,-2.250000000000,0.175000000000));
#225=VERTEX_POINT('',#224);
#226=CIRCLE('',#114,1.800000000000);
#227=EDGE_CURVE('',#220,#225,#226,.T.);
#228=ORIENTED_EDGE('',*,*,#227,.T.);
#229=CARTESIAN_POINT('',(2.300000000000,-2.250000000000,0.175000000000));
#230=VERTEX_POINT('',#229);
#231=LINE('',#215,#174);
#232=EDGE_CURVE('',#225,#230,#231,.T.);
#233=ORIENTED_EDGE('',*,*,#232,.T.);
#234=CARTESIAN_POINT('',(5.500000000000,-2.250000000000,0.175000000000));
#235=VERTEX_POINT('',#234);
#236=LINE('',#215,#174);
#237=EDGE_CURVE('',#230,#235,#236,.T.);
#238=ORIENTED_EDGE('',*,*,#237,.T.);
#239=CARTESIAN_POINT('',(5.500000000000,-1.686606874732,0.175000000000));
#240=VERTEX_POINT('',#239);
#241=CARTESIAN_POINT('',(5.500000000000,0.000000000000,0.175000000000));
#242=LINE('',#241,#168);
#243=EDGE_CURVE('',#235,#240,#242,.T.);
#244=ORIENTED_EDGE('',*,*,#243,.T.);
#245=CARTESIAN_POINT('',(6.799166435056,-0.150000000000,0.175000000000));
#246=VERTEX_POINT('',#245);
#247=CIRCLE('',#153,1.500000000000);
#248=EDGE_CURVE('',#240,#246,#247,.T.);
#249=ORIENTED_EDGE('',*,*,#248,.T.);
#250=CARTESIAN_POINT('',(6.769693845670,0.100000000000,0.175000000000));
#251=VERTEX_POINT('',#250);
#252=CIRCLE('',#153,1.500000000000);
#253=EDGE_CURVE('',#246,#251,#252,.T.);
#254=ORIENTED_EDGE('',*,*,#253,.T.);
#255=CARTESIAN_POINT('',(5.500000000000,1.286606874732,0.175000000000));
#256=VERTEX_POINT('',#255);
#257=CIRCLE('',#153,1.500000000000);
#258=EDGE_CURVE('',#251,#256,#257,.T.);
#259=ORIENTED_EDGE('',*,*,#258,.T.);
#260=CARTESIAN_POINT('',(5.500000000000,1.900000000000,0.175000000000));
#261=VERTEX_POINT('',#260);
#262=LINE('',#241,#168);
#263=EDGE_CURVE('',#256,#261,#262,.T.);
#264=ORIENTED_EDGE('',*,*,#263,.T.);
#265=CARTESIAN_POINT('',(3.919868415357,1.900000000000,0.175000000000));
#266=VERTEX_POINT('',#265);
#267=CARTESIAN_POINT('',(0.000000000000,1.900000000000,0.175000000000));
#268=LINE('',#267,#161);
#269=EDGE_CURVE('',#261,#266,#268,.T.);
#270=ORIENTED_EDGE('',*,*,#269,.T.);
#271=CARTESIAN_POINT('',(3.785640646055,3.200000000000,0.175000000000));
#272=VERTEX_POINT('',#271);
#273=CIRCLE('',#127,1.600000000000);
#274=EDGE_CURVE('',#266,#272,#273,.T.);
#275=ORIENTED_EDGE('',*,*,#274,.T.);
#276=CARTESIAN_POINT('',(2.300000000000,3.996871942267,0.175000000000));
#277=VERTEX_POINT('',#276);
#278=CIRCLE('',#127,1.600000000000);
#279=EDGE_CURVE('',#272,#277,#278,.T.);
#280=ORIENTED_EDGE('',*,*,#279,.T.);
#281=CARTESIAN_POINT('',(1.014359353945,3.200000000000,0.175000000000));
#282=VERTEX_POINT('',#281);
#283=CIRCLE('',#127,1.600000000000);
#284=EDGE_CURVE('',#277,#282,#283,.T.);
#285=ORIENTED_EDGE('',*,*,#284,.T.);
#286=CARTESIAN_POINT('',(0.100000000000,3.200000000000,0.175000000000));
#287=VERTEX_POINT('',#286);
#288=CARTESIAN_POINT('',(0.000000000000,3.200000000000,0.175000000000));
#289=LINE('',#288,#161);
#290=EDGE_CURVE('',#282,#287,#289,.T.);
#291=ORIENTED_EDGE('',*,*,#290,.T.);
#292=CARTESIAN_POINT('',(0.100000000000,1.900000000000,0.175000000000));
#293=VERTEX_POINT('',#292);
#294=CARTESIAN_POINT('',(0.100000000000,0.000000000000,0.175000000000));
#295=DIRECTION('',(0.000000000000,-1.000000000000,0.000000000000));
#296=VECTOR('',#295,1.0);
#297=LINE('',#294,#296);
#298=EDGE_CURVE('',#287,#293,#297,.T.);
#299=ORIENTED_EDGE('',*,*,#298,.T.);
#300=CARTESIAN_POINT('',(0.100000000000,0.500000000000,0.175000000000));
#301=VERTEX_POINT('',#300);
#302=LINE('',#294,#296);
#303=EDGE_CURVE('',#293,#301,#302,.T.);
#304=ORIENTED_EDGE('',*,*,#303,.T.);
#305=CARTESIAN_POINT('',(-1.031370849898,0.100000000000,0.175000000000));
#306=VERTEX_POINT('',#305);
#307=CIRCLE('',#114,1.800000000000);
#308=EDGE_CURVE('',#301,#306,#307,.T.);
#309=ORIENTED_EDGE('',*,*,#308,.T.);
#310=CARTESIAN_POINT('',(-1.284738242413,-0.150000000000,0.175000000000));
#311=VERTEX_POINT('',#310);
#312=CIRCLE('',#114,1.800000000000);
#313=EDGE_CURVE('',#306,#311,#312,.T.);
#314=ORIENTED_EDGE('',*,*,#313,.T.);
#315=LINE('',#159,#161);
#316=EDGE_CURVE('',#311,#43,#315,.T.);
#317=ORIENTED_EDGE('',*,*,#316,.T.);
#318=ORIENTED_EDGE('',*,*,#45,.T.);
#319=ORIENTED_EDGE('',*,*,#40,.T.);
#320=EDGE_LOOP('',(#210,#211,#212,#218,#223,#228,#233,#238,#244,#249,#254,#259,#264,#270,#275,#280,#285,#291,#299,#304,#309,#314,#317,#318,#319));
#321=FACE_BOUND('',#106,.T.);
#322=FACE_BOUND('',#108,.T.);
#323=FACE_BOUND('',#121,.T.);
#324=FACE_BOUND('',#134,.T.);
#325=FACE_BOUND('',#147,.T.);
#326=FACE_BOUND('',#178,.T.);
#327=FACE_BOUND('',#209,.T.);
#328=FACE_OUTER_BOUND('',#320,.T.);
#329=ADVANCED_FACE('',(#321,#322,#323,#324,#325,#326,#327,#328),#100,.T.);
#330=CARTESIAN_POINT('',(0.000000000000,0.000000000000,-0.175000000000));
#331=DIRECTION('',(0.000000000000,0.000000000000,-1.000000000000));
#332=AXIS2_PLACEMENT_3D('',#330,#331,#295);
#333=PLANE('',#332);
#334=CARTESIAN_POINT('',(-5.400000000000,-0.820000000000,-0.175000000000));
#335=VERTEX_POINT('',#334);
#336=CIRCLE('',#57,0.480000000000);
#337=EDGE_CURVE('',#335,#335,#336,.T.);
#338=ORIENTED_EDGE('',*,*,#337,.T.);
#339=EDGE_LOOP('',(#338));
#340=ORIENTED_EDGE('',*,*,#11,.T.);
#341=EDGE_LOOP('',(#340));
#342=CARTESIAN_POINT('',(-6.234733891886,-2.250000000000,-0.175000000000));
#343=VERTEX_POINT('',#342);
#344=CARTESIAN_POINT('',(-5.765266108114,-2.250000000000,-0.175000000000));
#345=VERTEX_POINT('',#344);
#346=CARTESIAN_POINT('',(-6.000000000000,-2.300000000000,-0.175000000000));
#347=AXIS2_PLACEMENT_3D('',#346,#2,#3);
#348=CIRCLE('',#347,0.240000000000);
#349=EDGE_CURVE('',#343,#345,#348,.T.);
#350=ORIENTED_EDGE('',*,*,#349,.T.);
#351=CIRCLE('',#347,0.240000000000);
#352=EDGE_CURVE('',#345,#343,#351,.T.);
#353=ORIENTED_EDGE('',*,*,#352,.T.);
#354=EDGE_LOOP('',(#350,#353));
#355=CARTESIAN_POINT('',(0.100000000000,-0.820000000000,-0.175000000000));
#356=VERTEX_POINT('',#355);
#357=CARTESIAN_POINT('',(0.100000000000,-1.780000000000,-0.175000000000));
#358=VERTEX_POINT('',#357);
#359=CARTESIAN_POINT('',(0.100000000000,-1.300000000000,-0.175000000000));
#360=AXIS2_PLACEMENT_3D('',#359,#2,#3);
#361=CIRCLE('',#360,0.480000000000);
#362=EDGE_CURVE('',#356,#358,#361,.T.);
#363=ORIENTED_EDGE('',*,*,#362,.T.);
#364=CIRCLE('',#360,0.480000000000);
#365=EDGE_CURVE('',#358,#356,#364,.T.);
#366=ORIENTED_EDGE('',*,*,#365,.T.);
#367=EDGE_LOOP('',(#363,#366));
#368=CARTESIAN_POINT('',(2.300000000000,2.869467783772,-0.175000000000));
#369=VERTEX_POINT('',#368);
#370=CARTESIAN_POINT('',(2.300000000000,1.930532216228,-0.175000000000));
#371=VERTEX_POINT('',#370);
#372=CARTESIAN_POINT('',(2.400000000000,2.400000000000,-0.175000000000));
#373=AXIS2_PLACEMENT_3D('',#372,#2,#3);
#374=CIRCLE('',#373,0.480000000000);
#375=EDGE_CURVE('',#369,#371,#374,.T.);
#376=ORIENTED_EDGE('',*,*,#375,.T.);
#377=CIRCLE('',#373,0.480000000000);
#378=EDGE_CURVE('',#371,#369,#377,.T.);
#379=ORIENTED_EDGE('',*,*,#378,.T.);
#380=EDGE_LOOP('',(#376,#379));
#381=CARTESIAN_POINT('',(3.830306154330,0.100000000000,-0.175000000000));
#382=VERTEX_POINT('',#381);
#383=CARTESIAN_POINT('',(3.800833564944,-0.150000000000,-0.175000000000));
#384=VERTEX_POINT('',#383);
#385=CARTESIAN_POINT('',(5.300000000000,-0.200000000000,-0.175000000000));
#386=AXIS2_PLACEMENT_3D('',#385,#2,#3);
#387=CIRCLE('',#386,1.500000000000);
#388=EDGE_CURVE('',#382,#384,#387,.T.);
#389=ORIENTED_EDGE('',*,*,#388,.F.);
#390=CARTESIAN_POINT('',(2.300000000000,0.100000000000,-0.175000000000));
#391=VERTEX_POINT('',#390);
#392=CARTESIAN_POINT('',(0.000000000000,0.100000000000,-0.175000000000));
#393=LINE('',#392,#161);
#394=EDGE_CURVE('',#382,#391,#393,.T.);
#395=ORIENTED_EDGE('',*,*,#394,.T.);
#396=CARTESIAN_POINT('',(2.300000000000,-0.150000000000,-0.175000000000));
#397=VERTEX_POINT('',#396);
#398=CARTESIAN_POINT('',(2.300000000000,0.000000000000,-0.175000000000));
#399=LINE('',#398,#296);
#400=EDGE_CURVE('',#391,#397,#399,.T.);
#401=ORIENTED_EDGE('',*,*,#400,.T.);
#402=CARTESIAN_POINT('',(0.000000000000,-0.150000000000,-0.175000000000));
#403=LINE('',#402,#174);
#404=EDGE_CURVE('',#397,#384,#403,.T.);
#405=ORIENTED_EDGE('',*,*,#404,.T.);
#406=EDGE_LOOP('',(#389,#395,#401,#405));
#407=CARTESIAN_POINT('',(4.925300120096,0.100000000000,-0.175000000000));
#408=VERTEX_POINT('',#407);
#409=CARTESIAN_POINT('',(4.822611269509,-0.150000000000,-0.175000000000));
#410=VERTEX_POINT('',#409);
#411=CIRCLE('',#386,0.480000000000);
#412=EDGE_CURVE('',#408,#410,#411,.T.);
#413=ORIENTED_EDGE('',*,*,#412,.T.);
#414=CARTESIAN_POINT('',(5.500000000000,-0.636348484585,-0.175000000000));
#415=VERTEX_POINT('',#414);
#416=CIRCLE('',#386,0.480000000000);
#417=EDGE_CURVE('',#410,#415,#416,.T.);
#418=ORIENTED_EDGE('',*,*,#417,.T.);
#419=CARTESIAN_POINT('',(5.777388730491,-0.150000000000,-0.175000000000));
#420=VERTEX_POINT('',#419);
#421=CIRCLE('',#386,0.480000000000);
#422=EDGE_CURVE('',#415,#420,#421,.T.);
#423=ORIENTED_EDGE('',*,*,#422,.T.);
#424=CARTESIAN_POINT('',(5.674699879904,0.100000000000,-0.175000000000));
#425=VERTEX_POINT('',#424);
#426=CIRCLE('',#386,0.480000000000);
#427=EDGE_CURVE('',#420,#425,#426,.T.);
#428=ORIENTED_EDGE('',*,*,#427,.T.);
#429=CARTESIAN_POINT('',(5.500000000000,0.236348484585,-0.175000000000));
#430=VERTEX_POINT('',#429);
#431=CIRCLE('',#386,0.480000000000);
#432=EDGE_CURVE('',#425,#430,#431,.T.);
#433=ORIENTED_EDGE('',*,*,#432,.T.);
#434=CIRCLE('',#386,0.480000000000);
#435=EDGE_CURVE('',#430,#408,#434,.T.);
#436=ORIENTED_EDGE('',*,*,#435,.T.);
#437=EDGE_LOOP('',(#413,#418,#423,#428,#433,#436));
#438=ORIENTED_EDGE('',*,*,#69,.F.);
#439=ORIENTED_EDGE('',*,*,#64,.F.);
#440=ORIENTED_EDGE('',*,*,#59,.F.);
#441=CARTESIAN_POINT('',(-1.284738242413,-0.150000000000,-0.175000000000));
#442=VERTEX_POINT('',#441);
#443=LINE('',#402,#174);
#444=EDGE_CURVE('',#48,#442,#443,.T.);
#445=ORIENTED_EDGE('',*,*,#444,.T.);
#446=CARTESIAN_POINT('',(-1.031370849898,0.100000000000,-0.175000000000));
#447=VERTEX_POINT('',#446);
#448=CIRCLE('',#360,1.800000000000);
#449=EDGE_CURVE('',#447,#442,#448,.T.);
#450=ORIENTED_EDGE('',*,*,#449,.F.);
#451=CARTESIAN_POINT('',(0.100000000000,0.500000000000,-0.175000000000));
#452=VERTEX_POINT('',#451);
#453=CIRCLE('',#360,1.800000000000);
#454=EDGE_CURVE('',#452,#447,#453,.T.);
#455=ORIENTED_EDGE('',*,*,#454,.F.);
#456=CARTESIAN_POINT('',(0.100000000000,1.900000000000,-0.175000000000));
#457=VERTEX_POINT('',#456);
#458=CARTESIAN_POINT('',(0.100000000000,0.000000000000,-0.175000000000));
#459=LINE('',#458,#168);
#460=EDGE_CURVE('',#452,#457,#459,.T.);
#461=ORIENTED_EDGE('',*,*,#460,.T.);
#462=CARTESIAN_POINT('',(0.100000000000,3.200000000000,-0.175000000000));
#463=VERTEX_POINT('',#462);
#464=LINE('',#458,#168);
#465=EDGE_CURVE('',#457,#463,#464,.T.);
#466=ORIENTED_EDGE('',*,*,#465,.T.);
#467=CARTESIAN_POINT('',(1.014359353945,3.200000000000,-0.175000000000));
#468=VERTEX_POINT('',#467);
#469=CARTESIAN_POINT('',(0.000000000000,3.200000000000,-0.175000000000));
#470=LINE('',#469,#174);
#471=EDGE_CURVE('',#463,#468,#470,.T.);
#472=ORIENTED_EDGE('',*,*,#471,.T.);
#473=CARTESIAN_POINT('',(2.300000000000,3.996871942267,-0.175000000000));
#474=VERTEX_POINT('',#473);
#475=CIRCLE('',#373,1.600000000000);
#476=EDGE_CURVE('',#474,#468,#475,.T.);
#477=ORIENTED_EDGE('',*,*,#476,.F.);
#478=CARTESIAN_POINT('',(3.785640646055,3.200000000000,-0.175000000000));
#479=VERTEX_POINT('',#478);
#480=CIRCLE('',#373,1.600000000000);
#481=EDGE_CURVE('',#479,#474,#480,.T.);
#482=ORIENTED_EDGE('',*,*,#481,.F.);
#483=CARTESIAN_POINT('',(3.919868415357,1.900000000000,-0.175000000000));
#484=VERTEX_POINT('',#483);
#485=CIRCLE('',#373,1.600000000000);
#486=EDGE_CURVE('',#484,#479,#485,.T.);
#487=ORIENTED_EDGE('',*,*,#486,.F.);
#488=CARTESIAN_POINT('',(5.500000000000,1.900000000000,-0.175000000000));
#489=VERTEX_POINT('',#488);
#490=CARTESIAN_POINT('',(0.000000000000,1.900000000000,-0.175000000000));
#491=LINE('',#490,#174);
#492=EDGE_CURVE('',#484,#489,#491,.T.);
#493=ORIENTED_EDGE('',*,*,#492,.T.);
#494=CARTESIAN_POINT('',(5.500000000000,1.286606874732,-0.175000000000));
#495=VERTEX_POINT('',#494);
#496=CARTESIAN_POINT('',(5.500000000000,0.000000000000,-0.175000000000));
#497=LINE('',#496,#296);
#498=EDGE_CURVE('',#489,#495,#497,.T.);
#499=ORIENTED_EDGE('',*,*,#498,.T.);
#500=CARTESIAN_POINT('',(6.769693845670,0.100000000000,-0.175000000000));
#501=VERTEX_POINT('',#500);
#502=CIRCLE('',#386,1.500000000000);
#503=EDGE_CURVE('',#501,#495,#502,.T.);
#504=ORIENTED_EDGE('',*,*,#503,.F.);
#505=CARTESIAN_POINT('',(6.799166435056,-0.150000000000,-0.175000000000));
#506=VERTEX_POINT('',#505);
#507=CIRCLE('',#386,1.500000000000);
#508=EDGE_CURVE('',#506,#501,#507,.T.);
#509=ORIENTED_EDGE('',*,*,#508,.F.);
#510=CARTESIAN_POINT('',(5.500000000000,-1.686606874732,-0.175000000000));
#511=VERTEX_POINT('',#510);
#512=CIRCLE('',#386,1.500000000000);
#513=EDGE_CURVE('',#511,#506,#512,.T.);
#514=ORIENTED_EDGE('',*,*,#513,.F.);
#515=CARTESIAN_POINT('',(5.500000000000,-2.250000000000,-0.175000000000));
#516=VERTEX_POINT('',#515);
#517=LINE('',#496,#296);
#518=EDGE_CURVE('',#511,#516,#517,.T.);
#519=ORIENTED_EDGE('',*,*,#518,.T.);
#520=CARTESIAN_POINT('',(2.300000000000,-2.250000000000,-0.175000000000));
#521=VERTEX_POINT('',#520);
#522=CARTESIAN_POINT('',(0.000000000000,-2.250000000000,-0.175000000000));
#523=LINE('',#522,#161);
#524=EDGE_CURVE('',#516,#521,#523,.T.);
#525=ORIENTED_EDGE('',*,*,#524,.T.);
#526=CARTESIAN_POINT('',(1.628888485142,-2.250000000000,-0.175000000000));
#527=VERTEX_POINT('',#526);
#528=LINE('',#522,#161);
#529=EDGE_CURVE('',#521,#527,#528,.T.);
#530=ORIENTED_EDGE('',*,*,#529,.T.);
#531=CARTESIAN_POINT('',(0.100000000000,-3.100000000000,-0.175000000000));
#532=VERTEX_POINT('',#531);
#533=CIRCLE('',#360,1.800000000000);
#534=EDGE_CURVE('',#532,#527,#533,.T.);
#535=ORIENTED_EDGE('',*,*,#534,.F.);
#536=CARTESIAN_POINT('',(-1.428888485142,-2.250000000000,-0.175000000000));
#537=VERTEX_POINT('',#536);
#538=CIRCLE('',#360,1.800000000000);
#539=EDGE_CURVE('',#537,#532,#538,.T.);
#540=ORIENTED_EDGE('',*,*,#539,.F.);
#541=LINE('',#522,#161);
#542=EDGE_CURVE('',#537,#77,#541,.T.);
#543=ORIENTED_EDGE('',*,*,#542,.T.);
#544=ORIENTED_EDGE('',*,*,#79,.F.);
#545=ORIENTED_EDGE('',*,*,#74,.F.);
#546=EDGE_LOOP('',(#438,#439,#440,#445,#450,#455,#461,#466,#472,#477,#482,#487,#493,#499,#504,#509,#514,#519,#525,#530,#535,#540,#543,#544,#545));
#547=FACE_BOUND('',#339,.T.);
#548=FACE_BOUND('',#341,.T.);
#549=FACE_BOUND('',#354,.T.);
#550=FACE_BOUND('',#367,.T.);
#551=FACE_BOUND('',#380,.T.);
#552=FACE_BOUND('',#406,.T.);
#553=FACE_BOUND('',#437,.T.);
#554=FACE_OUTER_BOUND('',#546,.T.);
#555=ADVANCED_FACE('',(#547,#548,#549,#550,#551,#552,#553,#554),#333,.T.);
#556=CARTESIAN_POINT('',(5.300000000000,-0.200000000000,0.000000000000));
#557=AXIS2_PLACEMENT_3D('',#556,#2,#3);
#558=CYLINDRICAL_SURFACE('',#557,1.500000000000);
#559=ORIENTED_EDGE('',*,*,#155,.F.);
#560=CARTESIAN_POINT('',(3.830306154330,0.100000000000,0.000000000000));
#561=LINE('',#560,#50);
#562=EDGE_CURVE('',#382,#149,#561,.T.);
#563=ORIENTED_EDGE('',*,*,#562,.F.);
#564=ORIENTED_EDGE('',*,*,#388,.T.);
#565=CARTESIAN_POINT('',(3.800833564944,-0.150000000000,0.000000000000));
#566=LINE('',#565,#50);
#567=EDGE_CURVE('',#384,#151,#566,.T.);
#568=ORIENTED_EDGE('',*,*,#567,.T.);
#569=EDGE_LOOP('',(#559,#563,#564,#568));
#570=ORIENTED_EDGE('',*,*,#248,.F.);
#571=CARTESIAN_POINT('',(5.500000000000,-1.686606874732,0.000000000000));
#572=LINE('',#571,#50);
#573=EDGE_CURVE('',#511,#240,#572,.T.);
#574=ORIENTED_EDGE('',*,*,#573,.F.);
#575=ORIENTED_EDGE('',*,*,#513,.T.);
#576=ORIENTED_EDGE('',*,*,#508,.T.);
#577=ORIENTED_EDGE('',*,*,#503,.T.);
#578=CARTESIAN_POINT('',(5.500000000000,1.286606874732,0.000000000000));
#579=LINE('',#578,#50);
#580=EDGE_CURVE('',#495,#256,#579,.T.);
#581=ORIENTED_EDGE('',*,*,#580,.T.);
#582=ORIENTED_EDGE('',*,*,#258,.F.);
#583=ORIENTED_EDGE('',*,*,#253,.F.);
#584=EDGE_LOOP('',(#570,#574,#575,#576,#577,#581,#582,#583));
#585=FACE_BOUND('',#569,.T.);
#586=FACE_BOUND('',#584,.T.);
#587=ADVANCED_FACE('',(#585,#586),#558,.T.);
#588=CARTESIAN_POINT('',(-6.000000000000,-2.300000000000,0.000000000000));
#589=AXIS2_PLACEMENT_3D('',#588,#2,#3);
#590=CYLINDRICAL_SURFACE('',#589,0.240000000000);
#591=ORIENTED_EDGE('',*,*,#349,.F.);
#592=ORIENTED_EDGE('',*,*,#352,.F.);
#593=EDGE_LOOP('',(#591,#592));
#594=ORIENTED_EDGE('',*,*,#142,.T.);
#595=ORIENTED_EDGE('',*,*,#145,.T.);
#596=EDGE_LOOP('',(#594,#595));
#597=FACE_BOUND('',#593,.T.);
#598=FACE_BOUND('',#596,.T.);
#599=ADVANCED_FACE('',(#597,#598),#590,.F.);
#600=CARTESIAN_POINT('',(5.500000000000,0.000000000000,0.000000000000));
#601=AXIS2_PLACEMENT_3D('',#600,#173,#2);
#602=PLANE('',#601);
#603=ORIENTED_EDGE('',*,*,#243,.F.);
#604=CARTESIAN_POINT('',(5.500000000000,-2.250000000000,0.000000000000));
#605=VECTOR('',#331,1.0);
#606=LINE('',#604,#605);
#607=EDGE_CURVE('',#235,#516,#606,.T.);
#608=ORIENTED_EDGE('',*,*,#607,.T.);
#609=ORIENTED_EDGE('',*,*,#518,.F.);
#610=ORIENTED_EDGE('',*,*,#573,.T.);
#611=EDGE_LOOP('',(#603,#608,#609,#610));
#612=ORIENTED_EDGE('',*,*,#263,.F.);
#613=ORIENTED_EDGE('',*,*,#580,.F.);
#614=ORIENTED_EDGE('',*,*,#498,.F.);
#615=CARTESIAN_POINT('',(5.500000000000,1.900000000000,0.000000000000));
#616=LINE('',#615,#50);
#617=EDGE_CURVE('',#489,#261,#616,.T.);
#618=ORIENTED_EDGE('',*,*,#617,.T.);
#619=EDGE_LOOP('',(#612,#613,#614,#618));
#620=FACE_OUTER_BOUND('',#611,.T.);
#621=ADVANCED_FACE('',(#620),#602,.T.);
#622=FACE_OUTER_BOUND('',#619,.T.);
#623=ADVANCED_FACE('',(#622),#602,.T.);
#624=CARTESIAN_POINT('',(0.000000000000,1.900000000000,0.000000000000));
#625=AXIS2_PLACEMENT_3D('',#624,#3,#331);
#626=PLANE('',#625);
#627=ORIENTED_EDGE('',*,*,#269,.F.);
#628=ORIENTED_EDGE('',*,*,#617,.F.);
#629=ORIENTED_EDGE('',*,*,#492,.F.);
#630=CARTESIAN_POINT('',(3.919868415357,1.900000000000,0.000000000000));
#631=LINE('',#630,#50);
#632=EDGE_CURVE('',#484,#266,#631,.T.);
#633=ORIENTED_EDGE('',*,*,#632,.T.);
#634=EDGE_LOOP('',(#627,#628,#629,#633));
#635=FACE_OUTER_BOUND('',#634,.T.);
#636=ADVANCED_FACE('',(#635),#626,.T.);
#637=CARTESIAN_POINT('',(0.000000000000,0.100000000000,0.000000000000));
#638=AXIS2_PLACEMENT_3D('',#637,#295,#2);
#639=PLANE('',#638);
#640=ORIENTED_EDGE('',*,*,#176,.F.);
#641=CARTESIAN_POINT('',(2.300000000000,0.100000000000,0.000000000000));
#642=LINE('',#641,#50);
#643=EDGE_CURVE('',#391,#166,#642,.T.);
#644=ORIENTED_EDGE('',*,*,#643,.F.);
#645=ORIENTED_EDGE('',*,*,#394,.F.);
#646=ORIENTED_EDGE('',*,*,#562,.T.);
#647=EDGE_LOOP('',(#640,#644,#645,#646));
#648=FACE_OUTER_BOUND('',#647,.T.);
#649=ADVANCED_FACE('',(#648),#639,.T.);
#650=CARTESIAN_POINT('',(2.300000000000,0.000000000000,0.000000000000));
#651=AXIS2_PLACEMENT_3D('',#650,#173,#2);
#652=PLANE('',#651);
#653=ORIENTED_EDGE('',*,*,#170,.F.);
#654=CARTESIAN_POINT('',(2.300000000000,-0.150000000000,0.000000000000));
#655=LINE('',#654,#50);
#656=EDGE_CURVE('',#397,#158,#655,.T.);
#657=ORIENTED_EDGE('',*,*,#656,.F.);
#658=ORIENTED_EDGE('',*,*,#400,.F.);
#659=ORIENTED_EDGE('',*,*,#643,.T.);
#660=EDGE_LOOP('',(#653,#657,#658,#659));
#661=FACE_OUTER_BOUND('',#660,.T.);
#662=ADVANCED_FACE('',(#661),#652,.T.);
#663=CARTESIAN_POINT('',(0.100000000000,0.000000000000,0.000000000000));
#664=AXIS2_PLACEMENT_3D('',#663,#160,#331);
#665=PLANE('',#664);
#666=ORIENTED_EDGE('',*,*,#298,.F.);
#667=CARTESIAN_POINT('',(0.100000000000,3.200000000000,0.000000000000));
#668=LINE('',#667,#605);
#669=EDGE_CURVE('',#287,#463,#668,.T.);
#670=ORIENTED_EDGE('',*,*,#669,.T.);
#671=ORIENTED_EDGE('',*,*,#465,.F.);
#672=ORIENTED_EDGE('',*,*,#460,.F.);
#673=CARTESIAN_POINT('',(0.100000000000,0.500000000000,0.000000000000));
#674=LINE('',#673,#50);
#675=EDGE_CURVE('',#452,#301,#674,.T.);
#676=ORIENTED_EDGE('',*,*,#675,.T.);
#677=ORIENTED_EDGE('',*,*,#303,.F.);
#678=EDGE_LOOP('',(#666,#670,#671,#672,#676,#677));
#679=FACE_OUTER_BOUND('',#678,.T.);
#680=ADVANCED_FACE('',(#679),#665,.T.);
#681=CARTESIAN_POINT('',(0.000000000000,3.200000000000,0.000000000000));
#682=AXIS2_PLACEMENT_3D('',#681,#3,#331);
#683=PLANE('',#682);
#684=ORIENTED_EDGE('',*,*,#290,.F.);
#685=CARTESIAN_POINT('',(1.014359353945,3.200000000000,0.000000000000));
#686=LINE('',#685,#50);
#687=EDGE_CURVE('',#468,#282,#686,.T.);
#688=ORIENTED_EDGE('',*,*,#687,.F.);
#689=ORIENTED_EDGE('',*,*,#471,.F.);
#690=ORIENTED_EDGE('',*,*,#669,.F.);
#691=EDGE_LOOP('',(#684,#688,#689,#690));
#692=FACE_OUTER_BOUND('',#691,.T.);
#693=ADVANCED_FACE('',(#692),#683,.T.);
#694=CARTESIAN_POINT('',(2.400000000000,2.400000000000,0.000000000000));
#695=AXIS2_PLACEMENT_3D('',#694,#2,#3);
#696=CYLINDRICAL_SURFACE('',#695,1.600000000000);
#697=ORIENTED_EDGE('',*,*,#284,.F.);
#698=ORIENTED_EDGE('',*,*,#279,.F.);
#699=ORIENTED_EDGE('',*,*,#274,.F.);
#700=ORIENTED_EDGE('',*,*,#632,.F.);
#701=ORIENTED_EDGE('',*,*,#486,.T.);
#702=ORIENTED_EDGE('',*,*,#481,.T.);
#703=ORIENTED_EDGE('',*,*,#476,.T.);
#704=ORIENTED_EDGE('',*,*,#687,.T.);
#705=EDGE_LOOP('',(#697,#698,#699,#700,#701,#702,#703,#704));
#706=FACE_BOUND('',#705,.T.);
#707=ADVANCED_FACE('',(#706),#696,.T.);
#708=CARTESIAN_POINT('',(0.000000000000,-0.150000000000,0.000000000000));
#709=AXIS2_PLACEMENT_3D('',#708,#3,#331);
#710=PLANE('',#709);
#711=ORIENTED_EDGE('',*,*,#52,.T.);
#712=ORIENTED_EDGE('',*,*,#316,.F.);
#713=CARTESIAN_POINT('',(-1.284738242413,-0.150000000000,0.000000000000));
#714=LINE('',#713,#50);
#715=EDGE_CURVE('',#442,#311,#714,.T.);
#716=ORIENTED_EDGE('',*,*,#715,.F.);
#717=ORIENTED_EDGE('',*,*,#444,.F.);
#718=EDGE_LOOP('',(#711,#712,#716,#717));
#719=ORIENTED_EDGE('',*,*,#163,.F.);
#720=ORIENTED_EDGE('',*,*,#567,.F.);
#721=ORIENTED_EDGE('',*,*,#404,.F.);
#722=ORIENTED_EDGE('',*,*,#656,.T.);
#723=EDGE_LOOP('',(#719,#720,#721,#722));
#724=FACE_OUTER_BOUND('',#718,.T.);
#725=ADVANCED_FACE('',(#724),#710,.T.);
#726=FACE_OUTER_BOUND('',#723,.T.);
#727=ADVANCED_FACE('',(#726),#710,.T.);
#728=CARTESIAN_POINT('',(0.000000000000,-2.250000000000,0.000000000000));
#729=AXIS2_PLACEMENT_3D('',#728,#295,#2);
#730=PLANE('',#729);
#731=ORIENTED_EDGE('',*,*,#85,.F.);
#732=ORIENTED_EDGE('',*,*,#542,.F.);
#733=CARTESIAN_POINT('',(-1.428888485142,-2.250000000000,0.000000000000));
#734=LINE('',#733,#50);
#735=EDGE_CURVE('',#537,#214,#734,.T.);
#736=ORIENTED_EDGE('',*,*,#735,.T.);
#737=ORIENTED_EDGE('',*,*,#217,.F.);
#738=EDGE_LOOP('',(#731,#732,#736,#737));
#739=ORIENTED_EDGE('',*,*,#232,.F.);
#740=CARTESIAN_POINT('',(1.628888485142,-2.250000000000,0.000000000000));
#741=LINE('',#740,#50);
#742=EDGE_CURVE('',#527,#225,#741,.T.);
#743=ORIENTED_EDGE('',*,*,#742,.F.);
#744=ORIENTED_EDGE('',*,*,#529,.F.);
#745=ORIENTED_EDGE('',*,*,#524,.F.);
#746=ORIENTED_EDGE('',*,*,#607,.F.);
#747=ORIENTED_EDGE('',*,*,#237,.F.);
#748=EDGE_LOOP('',(#739,#743,#744,#745,#746,#747));
#749=FACE_OUTER_BOUND('',#738,.T.);
#750=ADVANCED_FACE('',(#749),#730,.T.);
#751=FACE_OUTER_BOUND('',#748,.T.);
#752=ADVANCED_FACE('',(#751),#730,.T.);
#753=CYLINDRICAL_SURFACE('',#557,0.480000000000);
#754=ORIENTED_EDGE('',*,*,#184,.T.);
#755=ORIENTED_EDGE('',*,*,#207,.T.);
#756=ORIENTED_EDGE('',*,*,#204,.T.);
#757=ORIENTED_EDGE('',*,*,#199,.T.);
#758=ORIENTED_EDGE('',*,*,#194,.T.);
#759=ORIENTED_EDGE('',*,*,#189,.T.);
#760=EDGE_LOOP('',(#754,#755,#756,#757,#758,#759));
#761=ORIENTED_EDGE('',*,*,#412,.F.);
#762=ORIENTED_EDGE('',*,*,#435,.F.);
#763=ORIENTED_EDGE('',*,*,#432,.F.);
#764=ORIENTED_EDGE('',*,*,#427,.F.);
#765=ORIENTED_EDGE('',*,*,#422,.F.);
#766=ORIENTED_EDGE('',*,*,#417,.F.);
#767=EDGE_LOOP('',(#761,#762,#763,#764,#765,#766));
#768=FACE_BOUND('',#760,.T.);
#769=FACE_BOUND('',#767,.T.);
#770=ADVANCED_FACE('',(#768,#769),#753,.F.);
#771=CYLINDRICAL_SURFACE('',#695,0.480000000000);
#772=ORIENTED_EDGE('',*,*,#129,.T.);
#773=ORIENTED_EDGE('',*,*,#132,.T.);
#774=EDGE_LOOP('',(#772,#773));
#775=ORIENTED_EDGE('',*,*,#375,.F.);
#776=ORIENTED_EDGE('',*,*,#378,.F.);
#777=EDGE_LOOP('',(#775,#776));
#778=FACE_BOUND('',#774,.T.);
#779=FACE_BOUND('',#777,.T.);
#780=ADVANCED_FACE('',(#778,#779),#771,.F.);
#781=CYLINDRICAL_SURFACE('',#26,0.480000000000);
#782=ORIENTED_EDGE('',*,*,#337,.F.);
#783=EDGE_LOOP('',(#782));
#784=ORIENTED_EDGE('',*,*,#104,.T.);
#785=EDGE_LOOP('',(#784));
#786=FACE_BOUND('',#783,.T.);
#787=FACE_BOUND('',#785,.T.);
#788=ADVANCED_FACE('',(#786,#787),#781,.F.);
#789=CARTESIAN_POINT('',(0.100000000000,-1.300000000000,0.000000000000));
#790=AXIS2_PLACEMENT_3D('',#789,#2,#3);
#791=CYLINDRICAL_SURFACE('',#790,1.800000000000);
#792=ORIENTED_EDGE('',*,*,#308,.F.);
#793=ORIENTED_EDGE('',*,*,#675,.F.);
#794=ORIENTED_EDGE('',*,*,#454,.T.);
#795=ORIENTED_EDGE('',*,*,#449,.T.);
#796=ORIENTED_EDGE('',*,*,#715,.T.);
#797=ORIENTED_EDGE('',*,*,#313,.F.);
#798=EDGE_LOOP('',(#792,#793,#794,#795,#796,#797));
#799=ORIENTED_EDGE('',*,*,#222,.F.);
#800=ORIENTED_EDGE('',*,*,#735,.F.);
#801=ORIENTED_EDGE('',*,*,#539,.T.);
#802=ORIENTED_EDGE('',*,*,#534,.T.);
#803=ORIENTED_EDGE('',*,*,#742,.T.);
#804=ORIENTED_EDGE('',*,*,#227,.F.);
#805=EDGE_LOOP('',(#799,#800,#801,#802,#803,#804));
#806=FACE_BOUND('',#798,.T.);
#807=FACE_BOUND('',#805,.T.);
#808=ADVANCED_FACE('',(#806,#807),#791,.T.);
#809=CYLINDRICAL_SURFACE('',#790,0.480000000000);
#810=ORIENTED_EDGE('',*,*,#362,.F.);
#811=ORIENTED_EDGE('',*,*,#365,.F.);
#812=EDGE_LOOP('',(#810,#811));
#813=ORIENTED_EDGE('',*,*,#116,.T.);
#814=ORIENTED_EDGE('',*,*,#119,.T.);
#815=EDGE_LOOP('',(#813,#814));
#816=FACE_BOUND('',#812,.T.);
#817=FACE_BOUND('',#815,.T.);
#818=ADVANCED_FACE('',(#816,#817),#809,.F.);
#819=CLOSED_SHELL('',(#24,#97,#329,#555,#587,#599,#621,#623,#636,#649,#662,#680,#693,#707,#725,#727,#750,#752,#770,#780,#788,#808,#818));
#820=MANIFOLD_SOLID_BREP('going_train',#819);
#821=APPLICATION_CONTEXT('core data for automotive mechanical design processes');
#822=APPLICATION_PROTOCOL_DEFINITION('international standard','automotive_design',2000,#821);
#823=PRODUCT_CONTEXT('',#821,'mechanical');
#824=PRODUCT('going_train','going_train','',(#823));
#825=PRODUCT_DEFINITION_FORMATION('','',#824);
#826=PRODUCT_DEFINITION_CONTEXT('part definition',#821,'design');
#827=PRODUCT_DEFINITION('','',#825,#826);
#828=PRODUCT_DEFINITION_SHAPE('','',#827);
#829=(LENGTH_UNIT()NAMED_UNIT(*)SI_UNIT(.MILLI.,.METRE.));
#830=(NAMED_UNIT(*)PLANE_ANGLE_UNIT()SI_UNIT($,.RADIAN.));
#831=(NAMED_UNIT(*)SI_UNIT($,.STERADIAN.)SOLID_ANGLE_UNIT());
#832=UNCERTAINTY_MEASURE_WITH_UNIT(LENGTH_MEASURE(1.E-07),#829,'distance_accuracy_value','');
#833=(GEOMETRIC_REPRESENTATION_CONTEXT(3)GLOBAL_UNCERTAINTY_ASSIGNED_CONTEXT((#832))GLOBAL_UNIT_ASSIGNED_CONTEXT((#829,#830,#831))REPRESENTATION_CONTEXT('',''));
#834=ADVANCED_BREP_SHAPE_REPRESENTATION('',(#820),#833);
#835=SHAPE_DEFINITION_REPRESENTATION(#828,#834);
ENDSEC;
END-ISO-10303-21;
