ISO-10303-21;
HEADER;
FILE_DESCRIPTION(('4 face(s), 4 edge(s), 4 vertex/vertices confirmed by cade at n=128, half-extent 0.625000000000'),'2;1');
FILE_NAME('main_plate.step','2026-08-23T00:00:00',('cade'),('cade'),'cade 0.1.0','cade','');
FILE_SCHEMA(('AUTOMOTIVE_DESIGN { 1 0 10303 214 1 1 1 1 }'));
ENDSEC;
DATA;
#1=CARTESIAN_POINT('',(0.000000000000,0.000000000000,0.000000000000));
#2=DIRECTION('',(0.000000000000,0.000000000000,1.000000000000));
#3=DIRECTION('',(0.000000000000,1.000000000000,0.000000000000));
#4=AXIS2_PLACEMENT_3D('',#1,#2,#3);
#5=CYLINDRICAL_SURFACE('',#4,0.105000000000);
#6=CARTESIAN_POINT('',(0.000000000000,0.105000000000,-0.150000000000));
#7=VERTEX_POINT('',#6);
#8=CARTESIAN_POINT('',(0.000000000000,0.000000000000,-0.150000000000));
#9=AXIS2_PLACEMENT_3D('',#8,#2,#3);
#10=CIRCLE('',#9,0.105000000000);
#11=EDGE_CURVE('',#7,#7,#10,.T.);
#12=ORIENTED_EDGE('',*,*,#11,.F.);
#13=EDGE_LOOP('',(#12));
#14=CARTESIAN_POINT('',(0.000000000000,0.105000000000,0.150000000000));
#15=VERTEX_POINT('',#14);
#16=CARTESIAN_POINT('',(0.000000000000,0.000000000000,0.150000000000));
#17=AXIS2_PLACEMENT_3D('',#16,#2,#3);
#18=CIRCLE('',#17,0.105000000000);
#19=EDGE_CURVE('',#15,#15,#18,.T.);
#20=ORIENTED_EDGE('',*,*,#19,.T.);
#21=EDGE_LOOP('',(#20));
#22=FACE_BOUND('',#13,.T.);
#23=FACE_BOUND('',#21,.T.);
#24=ADVANCED_FACE('',(#22,#23),#5,.F.);
#25=CYLINDRICAL_SURFACE('',#4,0.480000000000);
#26=CARTESIAN_POINT('',(0.000000000000,0.480000000000,0.150000000000));
#27=VERTEX_POINT('',#26);
#28=CIRCLE('',#17,0.480000000000);
#29=EDGE_CURVE('',#27,#27,#28,.T.);
#30=ORIENTED_EDGE('',*,*,#29,.F.);
#31=EDGE_LOOP('',(#30));
#32=CARTESIAN_POINT('',(0.000000000000,0.480000000000,-0.150000000000));
#33=VERTEX_POINT('',#32);
#34=CIRCLE('',#9,0.480000000000);
#35=EDGE_CURVE('',#33,#33,#34,.T.);
#36=ORIENTED_EDGE('',*,*,#35,.T.);
#37=EDGE_LOOP('',(#36));
#38=FACE_BOUND('',#31,.T.);
#39=FACE_BOUND('',#37,.T.);
#40=ADVANCED_FACE('',(#38,#39),#25,.T.);
#41=PLANE('',#17);
#42=ORIENTED_EDGE('',*,*,#29,.T.);
#43=EDGE_LOOP('',(#42));
#44=ORIENTED_EDGE('',*,*,#19,.F.);
#45=EDGE_LOOP('',(#44));
#46=FACE_OUTER_BOUND('',#43,.T.);
#47=FACE_BOUND('',#45,.T.);
#48=ADVANCED_FACE('',(#46,#47),#41,.T.);
#49=DIRECTION('',(0.000000000000,0.000000000000,-1.000000000000));
#50=DIRECTION('',(0.000000000000,-1.000000000000,0.000000000000));
#51=AXIS2_PLACEMENT_3D('',#8,#49,#50);
#52=PLANE('',#51);
#53=ORIENTED_EDGE('',*,*,#11,.T.);
#54=EDGE_LOOP('',(#53));
#55=ORIENTED_EDGE('',*,*,#35,.F.);
#56=EDGE_LOOP('',(#55));
#57=FACE_BOUND('',#54,.T.);
#58=FACE_OUTER_BOUND('',#56,.T.);
#59=ADVANCED_FACE('',(#57,#58),#52,.T.);
#60=CLOSED_SHELL('',(#24,#40,#48,#59));
#61=MANIFOLD_SOLID_BREP('main_plate',#60);
#62=APPLICATION_CONTEXT('core data for automotive mechanical design processes');
#63=APPLICATION_PROTOCOL_DEFINITION('international standard','automotive_design',2000,#62);
#64=PRODUCT_CONTEXT('',#62,'mechanical');
#65=PRODUCT('main_plate','main_plate','',(#64));
#66=PRODUCT_DEFINITION_FORMATION('','',#65);
#67=PRODUCT_DEFINITION_CONTEXT('part definition',#62,'design');
#68=PRODUCT_DEFINITION('','',#66,#67);
#69=PRODUCT_DEFINITION_SHAPE('','',#68);
#70=(LENGTH_UNIT()NAMED_UNIT(*)SI_UNIT(.MILLI.,.METRE.));
#71=(NAMED_UNIT(*)PLANE_ANGLE_UNIT()SI_UNIT($,.RADIAN.));
#72=(NAMED_UNIT(*)SI_UNIT($,.STERADIAN.)SOLID_ANGLE_UNIT());
#73=UNCERTAINTY_MEASURE_WITH_UNIT(LENGTH_MEASURE(1.E-07),#70,'distance_accuracy_value','');
#74=(GEOMETRIC_REPRESENTATION_CONTEXT(3)GLOBAL_UNCERTAINTY_ASSIGNED_CONTEXT((#73))GLOBAL_UNIT_ASSIGNED_CONTEXT((#70,#71,#72))REPRESENTATION_CONTEXT('',''));
#75=ADVANCED_BREP_SHAPE_REPRESENTATION('',(#61),#74);
#76=SHAPE_DEFINITION_REPRESENTATION(#69,#75);
ENDSEC;
END-ISO-10303-21;
