ISO-10303-21;
HEADER;
FILE_DESCRIPTION(('29 face(s), 194 edge(s), 146 vertex/vertices confirmed by cade at n=128, half-extent 1.250000000000'),'2;1');
FILE_NAME('dial_side.step','2026-08-23T00:00:00',('cade'),('cade'),'cade 0.1.0','cade','');
FILE_SCHEMA(('AUTOMOTIVE_DESIGN { 1 0 10303 214 1 1 1 1 }'));
ENDSEC;
DATA;
#1=CARTESIAN_POINT('',(0.000000000000,0.000000000000,0.000000000000));
#2=DIRECTION('',(0.000000000000,0.000000000000,1.000000000000));
#3=DIRECTION('',(0.000000000000,1.000000000000,0.000000000000));
#4=AXIS2_PLACEMENT_3D('',#1,#2,#3);
#5=CYLINDRICAL_SURFACE('',#4,0.700000000000);
#6=CARTESIAN_POINT('',(-0.375061887151,-0.591040253119,0.120000000000));
#7=VERTEX_POINT('',#6);
#8=CARTESIAN_POINT('',(-0.324324930285,-0.620333248823,0.120000000000));
#9=VERTEX_POINT('',#8);
#10=CARTESIAN_POINT('',(0.000000000000,0.000000000000,0.120000000000));
#11=AXIS2_PLACEMENT_3D('',#10,#2,#3);
#12=CIRCLE('',#11,0.700000000000);
#13=EDGE_CURVE('',#7,#9,#12,.T.);
#14=ORIENTED_EDGE('',*,*,#13,.F.);
#15=CARTESIAN_POINT('',(-0.375061887151,-0.591040253119,-0.120000000000));
#16=VERTEX_POINT('',#15);
#17=CARTESIAN_POINT('',(-0.375061887151,-0.591040253119,0.000000000000));
#18=VECTOR('',#2,1.0);
#19=LINE('',#17,#18);
#20=EDGE_CURVE('',#16,#7,#19,.T.);
#21=ORIENTED_EDGE('',*,*,#20,.F.);
#22=CARTESIAN_POINT('',(-0.324324930285,-0.620333248823,-0.120000000000));
#23=VERTEX_POINT('',#22);
#24=CARTESIAN_POINT('',(0.000000000000,0.000000000000,-0.120000000000));
#25=AXIS2_PLACEMENT_3D('',#24,#2,#3);
#26=CIRCLE('',#25,0.700000000000);
#27=EDGE_CURVE('',#16,#23,#26,.T.);
#28=ORIENTED_EDGE('',*,*,#27,.T.);
#29=CARTESIAN_POINT('',(-0.324324930285,-0.620333248823,0.000000000000));
#30=LINE('',#29,#18);
#31=EDGE_CURVE('',#23,#9,#30,.T.);
#32=ORIENTED_EDGE('',*,*,#31,.T.);
#33=EDGE_LOOP('',(#14,#21,#28,#32));
#34=CARTESIAN_POINT('',(0.620333248823,0.324324930285,0.120000000000));
#35=VERTEX_POINT('',#34);
#36=CARTESIAN_POINT('',(0.591040253119,0.375061887151,0.120000000000));
#37=VERTEX_POINT('',#36);
#38=CIRCLE('',#11,0.700000000000);
#39=EDGE_CURVE('',#35,#37,#38,.T.);
#40=ORIENTED_EDGE('',*,*,#39,.F.);
#41=CARTESIAN_POINT('',(0.620333248823,0.324324930285,-0.120000000000));
#42=VERTEX_POINT('',#41);
#43=CARTESIAN_POINT('',(0.620333248823,0.324324930285,0.000000000000));
#44=LINE('',#43,#18);
#45=EDGE_CURVE('',#42,#35,#44,.T.);
#46=ORIENTED_EDGE('',*,*,#45,.F.);
#47=CARTESIAN_POINT('',(0.591040253119,0.375061887151,-0.120000000000));
#48=VERTEX_POINT('',#47);
#49=CIRCLE('',#25,0.700000000000);
#50=EDGE_CURVE('',#42,#48,#49,.T.);
#51=ORIENTED_EDGE('',*,*,#50,.T.);
#52=CARTESIAN_POINT('',(0.591040253119,0.375061887151,0.000000000000));
#53=LINE('',#52,#18);
#54=EDGE_CURVE('',#48,#37,#53,.T.);
#55=ORIENTED_EDGE('',*,*,#54,.T.);
#56=EDGE_LOOP('',(#40,#46,#51,#55));
#57=CARTESIAN_POINT('',(-0.699386817436,0.029292995704,0.120000000000));
#58=VERTEX_POINT('',#57);
#59=CARTESIAN_POINT('',(-0.699386817436,-0.029292995704,0.120000000000));
#60=VERTEX_POINT('',#59);
#61=CIRCLE('',#11,0.700000000000);
#62=EDGE_CURVE('',#58,#60,#61,.T.);
#63=ORIENTED_EDGE('',*,*,#62,.F.);
#64=CARTESIAN_POINT('',(-0.699386817436,0.029292995704,-0.120000000000));
#65=VERTEX_POINT('',#64);
#66=CARTESIAN_POINT('',(-0.699386817436,0.029292995704,0.000000000000));
#67=LINE('',#66,#18);
#68=EDGE_CURVE('',#65,#58,#67,.T.);
#69=ORIENTED_EDGE('',*,*,#68,.F.);
#70=CARTESIAN_POINT('',(-0.699386817436,-0.029292995704,-0.120000000000));
#71=VERTEX_POINT('',#70);
#72=CIRCLE('',#25,0.700000000000);
#73=EDGE_CURVE('',#65,#71,#72,.T.);
#74=ORIENTED_EDGE('',*,*,#73,.T.);
#75=CARTESIAN_POINT('',(-0.699386817436,-0.029292995704,0.000000000000));
#76=LINE('',#75,#18);
#77=EDGE_CURVE('',#71,#60,#76,.T.);
#78=ORIENTED_EDGE('',*,*,#77,.T.);
#79=EDGE_LOOP('',(#63,#69,#74,#78));
#80=CARTESIAN_POINT('',(0.375061887151,0.591040253119,0.120000000000));
#81=VERTEX_POINT('',#80);
#82=CARTESIAN_POINT('',(0.324324930285,0.620333248823,0.120000000000));
#83=VERTEX_POINT('',#82);
#84=CIRCLE('',#11,0.700000000000);
#85=EDGE_CURVE('',#81,#83,#84,.T.);
#86=ORIENTED_EDGE('',*,*,#85,.F.);
#87=CARTESIAN_POINT('',(0.375061887151,0.591040253119,-0.120000000000));
#88=VERTEX_POINT('',#87);
#89=CARTESIAN_POINT('',(0.375061887151,0.591040253119,0.000000000000));
#90=LINE('',#89,#18);
#91=EDGE_CURVE('',#88,#81,#90,.T.);
#92=ORIENTED_EDGE('',*,*,#91,.F.);
#93=CARTESIAN_POINT('',(0.324324930285,0.620333248823,-0.120000000000));
#94=VERTEX_POINT('',#93);
#95=CIRCLE('',#25,0.700000000000);
#96=EDGE_CURVE('',#88,#94,#95,.T.);
#97=ORIENTED_EDGE('',*,*,#96,.T.);
#98=CARTESIAN_POINT('',(0.324324930285,0.620333248823,0.000000000000));
#99=LINE('',#98,#18);
#100=EDGE_CURVE('',#94,#83,#99,.T.);
#101=ORIENTED_EDGE('',*,*,#100,.T.);
#102=EDGE_LOOP('',(#86,#92,#97,#101));
#103=CARTESIAN_POINT('',(0.324324930285,-0.620333248823,0.120000000000));
#104=VERTEX_POINT('',#103);
#105=CARTESIAN_POINT('',(0.375061887151,-0.591040253119,0.120000000000));
#106=VERTEX_POINT('',#105);
#107=CIRCLE('',#11,0.700000000000);
#108=EDGE_CURVE('',#104,#106,#107,.T.);
#109=ORIENTED_EDGE('',*,*,#108,.F.);
#110=CARTESIAN_POINT('',(0.324324930285,-0.620333248823,-0.120000000000));
#111=VERTEX_POINT('',#110);
#112=CARTESIAN_POINT('',(0.324324930285,-0.620333248823,0.000000000000));
#113=LINE('',#112,#18);
#114=EDGE_CURVE('',#111,#104,#113,.T.);
#115=ORIENTED_EDGE('',*,*,#114,.F.);
#116=CARTESIAN_POINT('',(0.375061887151,-0.591040253119,-0.120000000000));
#117=VERTEX_POINT('',#116);
#118=CIRCLE('',#25,0.700000000000);
#119=EDGE_CURVE('',#111,#117,#118,.T.);
#120=ORIENTED_EDGE('',*,*,#119,.T.);
#121=CARTESIAN_POINT('',(0.375061887151,-0.591040253119,0.000000000000));
#122=LINE('',#121,#18);
#123=EDGE_CURVE('',#117,#106,#122,.T.);
#124=ORIENTED_EDGE('',*,*,#123,.T.);
#125=EDGE_LOOP('',(#109,#115,#120,#124));
#126=CARTESIAN_POINT('',(-0.620333248823,-0.324324930285,0.120000000000));
#127=VERTEX_POINT('',#126);
#128=CARTESIAN_POINT('',(-0.591040253119,-0.375061887151,0.120000000000));
#129=VERTEX_POINT('',#128);
#130=CIRCLE('',#11,0.700000000000);
#131=EDGE_CURVE('',#127,#129,#130,.T.);
#132=ORIENTED_EDGE('',*,*,#131,.F.);
#133=CARTESIAN_POINT('',(-0.620333248823,-0.324324930285,-0.120000000000));
#134=VERTEX_POINT('',#133);
#135=CARTESIAN_POINT('',(-0.620333248823,-0.324324930285,0.000000000000));
#136=LINE('',#135,#18);
#137=EDGE_CURVE('',#134,#127,#136,.T.);
#138=ORIENTED_EDGE('',*,*,#137,.F.);
#139=CARTESIAN_POINT('',(-0.591040253119,-0.375061887151,-0.120000000000));
#140=VERTEX_POINT('',#139);
#141=CIRCLE('',#25,0.700000000000);
#142=EDGE_CURVE('',#134,#140,#141,.T.);
#143=ORIENTED_EDGE('',*,*,#142,.T.);
#144=CARTESIAN_POINT('',(-0.591040253119,-0.375061887151,0.000000000000));
#145=LINE('',#144,#18);
#146=EDGE_CURVE('',#140,#129,#145,.T.);
#147=ORIENTED_EDGE('',*,*,#146,.T.);
#148=EDGE_LOOP('',(#132,#138,#143,#147));
#149=CARTESIAN_POINT('',(-0.591040253119,0.375061887151,0.120000000000));
#150=VERTEX_POINT('',#149);
#151=CARTESIAN_POINT('',(-0.620333248823,0.324324930285,0.120000000000));
#152=VERTEX_POINT('',#151);
#153=CIRCLE('',#11,0.700000000000);
#154=EDGE_CURVE('',#150,#152,#153,.T.);
#155=ORIENTED_EDGE('',*,*,#154,.F.);
#156=CARTESIAN_POINT('',(-0.591040253119,0.375061887151,-0.120000000000));
#157=VERTEX_POINT('',#156);
#158=CARTESIAN_POINT('',(-0.591040253119,0.375061887151,0.000000000000));
#159=LINE('',#158,#18);
#160=EDGE_CURVE('',#157,#150,#159,.T.);
#161=ORIENTED_EDGE('',*,*,#160,.F.);
#162=CARTESIAN_POINT('',(-0.620333248823,0.324324930285,-0.120000000000));
#163=VERTEX_POINT('',#162);
#164=CIRCLE('',#25,0.700000000000);
#165=EDGE_CURVE('',#157,#163,#164,.T.);
#166=ORIENTED_EDGE('',*,*,#165,.T.);
#167=CARTESIAN_POINT('',(-0.620333248823,0.324324930285,0.000000000000));
#168=LINE('',#167,#18);
#169=EDGE_CURVE('',#163,#152,#168,.T.);
#170=ORIENTED_EDGE('',*,*,#169,.T.);
#171=EDGE_LOOP('',(#155,#161,#166,#170));
#172=CARTESIAN_POINT('',(-0.324324930285,0.620333248823,0.120000000000));
#173=VERTEX_POINT('',#172);
#174=CARTESIAN_POINT('',(-0.375061887151,0.591040253119,0.120000000000));
#175=VERTEX_POINT('',#174);
#176=CIRCLE('',#11,0.700000000000);
#177=EDGE_CURVE('',#173,#175,#176,.T.);
#178=ORIENTED_EDGE('',*,*,#177,.F.);
#179=CARTESIAN_POINT('',(-0.324324930285,0.620333248823,-0.120000000000));
#180=VERTEX_POINT('',#179);
#181=CARTESIAN_POINT('',(-0.324324930285,0.620333248823,0.000000000000));
#182=LINE('',#181,#18);
#183=EDGE_CURVE('',#180,#173,#182,.T.);
#184=ORIENTED_EDGE('',*,*,#183,.F.);
#185=CARTESIAN_POINT('',(-0.375061887151,0.591040253119,-0.120000000000));
#186=VERTEX_POINT('',#185);
#187=CIRCLE('',#25,0.700000000000);
#188=EDGE_CURVE('',#180,#186,#187,.T.);
#189=ORIENTED_EDGE('',*,*,#188,.T.);
#190=CARTESIAN_POINT('',(-0.375061887151,0.591040253119,0.000000000000));
#191=LINE('',#190,#18);
#192=EDGE_CURVE('',#186,#175,#191,.T.);
#193=ORIENTED_EDGE('',*,*,#192,.T.);
#194=EDGE_LOOP('',(#178,#184,#189,#193));
#195=CARTESIAN_POINT('',(-0.029292995704,-0.699386817436,0.120000000000));
#196=VERTEX_POINT('',#195);
#197=CARTESIAN_POINT('',(0.029292995704,-0.699386817436,0.120000000000));
#198=VERTEX_POINT('',#197);
#199=CIRCLE('',#11,0.700000000000);
#200=EDGE_CURVE('',#196,#198,#199,.T.);
#201=ORIENTED_EDGE('',*,*,#200,.F.);
#202=CARTESIAN_POINT('',(-0.029292995704,-0.699386817436,-0.120000000000));
#203=VERTEX_POINT('',#202);
#204=CARTESIAN_POINT('',(-0.029292995704,-0.699386817436,0.000000000000));
#205=LINE('',#204,#18);
#206=EDGE_CURVE('',#203,#196,#205,.T.);
#207=ORIENTED_EDGE('',*,*,#206,.F.);
#208=CARTESIAN_POINT('',(0.029292995704,-0.699386817436,-0.120000000000));
#209=VERTEX_POINT('',#208);
#210=CIRCLE('',#25,0.700000000000);
#211=EDGE_CURVE('',#203,#209,#210,.T.);
#212=ORIENTED_EDGE('',*,*,#211,.T.);
#213=CARTESIAN_POINT('',(0.029292995704,-0.699386817436,0.000000000000));
#214=LINE('',#213,#18);
#215=EDGE_CURVE('',#209,#198,#214,.T.);
#216=ORIENTED_EDGE('',*,*,#215,.T.);
#217=EDGE_LOOP('',(#201,#207,#212,#216));
#218=CARTESIAN_POINT('',(0.591040253119,-0.375061887151,0.120000000000));
#219=VERTEX_POINT('',#218);
#220=CARTESIAN_POINT('',(0.620333248823,-0.324324930285,0.120000000000));
#221=VERTEX_POINT('',#220);
#222=CIRCLE('',#11,0.700000000000);
#223=EDGE_CURVE('',#219,#221,#222,.T.);
#224=ORIENTED_EDGE('',*,*,#223,.F.);
#225=CARTESIAN_POINT('',(0.591040253119,-0.375061887151,-0.120000000000));
#226=VERTEX_POINT('',#225);
#227=CARTESIAN_POINT('',(0.591040253119,-0.375061887151,0.000000000000));
#228=LINE('',#227,#18);
#229=EDGE_CURVE('',#226,#219,#228,.T.);
#230=ORIENTED_EDGE('',*,*,#229,.F.);
#231=CARTESIAN_POINT('',(0.620333248823,-0.324324930285,-0.120000000000));
#232=VERTEX_POINT('',#231);
#233=CIRCLE('',#25,0.700000000000);
#234=EDGE_CURVE('',#226,#232,#233,.T.);
#235=ORIENTED_EDGE('',*,*,#234,.T.);
#236=CARTESIAN_POINT('',(0.620333248823,-0.324324930285,0.000000000000));
#237=LINE('',#236,#18);
#238=EDGE_CURVE('',#232,#221,#237,.T.);
#239=ORIENTED_EDGE('',*,*,#238,.T.);
#240=EDGE_LOOP('',(#224,#230,#235,#239));
#241=CARTESIAN_POINT('',(0.699386817436,-0.029292995704,0.120000000000));
#242=VERTEX_POINT('',#241);
#243=CARTESIAN_POINT('',(0.699386817436,0.029292995704,0.120000000000));
#244=VERTEX_POINT('',#243);
#245=CIRCLE('',#11,0.700000000000);
#246=EDGE_CURVE('',#242,#244,#245,.T.);
#247=ORIENTED_EDGE('',*,*,#246,.F.);
#248=CARTESIAN_POINT('',(0.699386817436,-0.029292995704,-0.120000000000));
#249=VERTEX_POINT('',#248);
#250=CARTESIAN_POINT('',(0.699386817436,-0.029292995704,0.000000000000));
#251=LINE('',#250,#18);
#252=EDGE_CURVE('',#249,#242,#251,.T.);
#253=ORIENTED_EDGE('',*,*,#252,.F.);
#254=CARTESIAN_POINT('',(0.699386817436,0.029292995704,-0.120000000000));
#255=VERTEX_POINT('',#254);
#256=CIRCLE('',#25,0.700000000000);
#257=EDGE_CURVE('',#249,#255,#256,.T.);
#258=ORIENTED_EDGE('',*,*,#257,.T.);
#259=CARTESIAN_POINT('',(0.699386817436,0.029292995704,0.000000000000));
#260=LINE('',#259,#18);
#261=EDGE_CURVE('',#255,#244,#260,.T.);
#262=ORIENTED_EDGE('',*,*,#261,.T.);
#263=EDGE_LOOP('',(#247,#253,#258,#262));
#264=CARTESIAN_POINT('',(0.029292995704,0.699386817436,0.120000000000));
#265=VERTEX_POINT('',#264);
#266=CARTESIAN_POINT('',(-0.029292995704,0.699386817436,0.120000000000));
#267=VERTEX_POINT('',#266);
#268=CIRCLE('',#11,0.700000000000);
#269=EDGE_CURVE('',#265,#267,#268,.T.);
#270=ORIENTED_EDGE('',*,*,#269,.F.);
#271=CARTESIAN_POINT('',(0.029292995704,0.699386817436,-0.120000000000));
#272=VERTEX_POINT('',#271);
#273=CARTESIAN_POINT('',(0.029292995704,0.699386817436,0.000000000000));
#274=LINE('',#273,#18);
#275=EDGE_CURVE('',#272,#265,#274,.T.);
#276=ORIENTED_EDGE('',*,*,#275,.F.);
#277=CARTESIAN_POINT('',(-0.029292995704,0.699386817436,-0.120000000000));
#278=VERTEX_POINT('',#277);
#279=CIRCLE('',#25,0.700000000000);
#280=EDGE_CURVE('',#272,#278,#279,.T.);
#281=ORIENTED_EDGE('',*,*,#280,.T.);
#282=CARTESIAN_POINT('',(-0.029292995704,0.699386817436,0.000000000000));
#283=LINE('',#282,#18);
#284=EDGE_CURVE('',#278,#267,#283,.T.);
#285=ORIENTED_EDGE('',*,*,#284,.T.);
#286=EDGE_LOOP('',(#270,#276,#281,#285));
#287=FACE_BOUND('',#33,.T.);
#288=FACE_BOUND('',#56,.T.);
#289=FACE_BOUND('',#79,.T.);
#290=FACE_BOUND('',#102,.T.);
#291=FACE_BOUND('',#125,.T.);
#292=FACE_BOUND('',#148,.T.);
#293=FACE_BOUND('',#171,.T.);
#294=FACE_BOUND('',#194,.T.);
#295=FACE_BOUND('',#217,.T.);
#296=FACE_BOUND('',#240,.T.);
#297=FACE_BOUND('',#263,.T.);
#298=FACE_BOUND('',#286,.T.);
#299=ADVANCED_FACE('',(#287,#288,#289,#290,#291,#292,#293,#294,#295,#296,#297,#298),#5,.T.);
#300=PLANE('',#11);
#301=CARTESIAN_POINT('',(0.000000000000,0.130000000000,0.120000000000));
#302=VERTEX_POINT('',#301);
#303=CIRCLE('',#11,0.130000000000);
#304=EDGE_CURVE('',#302,#302,#303,.T.);
#305=ORIENTED_EDGE('',*,*,#304,.F.);
#306=EDGE_LOOP('',(#305));
#307=ORIENTED_EDGE('',*,*,#177,.T.);
#308=CARTESIAN_POINT('',(-0.342409475369,0.407107471027,0.120000000000));
#309=VERTEX_POINT('',#308);
#310=CARTESIAN_POINT('',(-0.261885074832,-0.046490784326,0.120000000000));
#311=DIRECTION('',(0.174790742959,-0.984605604380,0.000000000000));
#312=VECTOR('',#311,1.0);
#313=LINE('',#310,#312);
#314=EDGE_CURVE('',#175,#309,#313,.T.);
#315=ORIENTED_EDGE('',*,*,#314,.T.);
#316=CARTESIAN_POINT('',(-0.330673574674,0.340998514677,0.120000000000));
#317=VERTEX_POINT('',#316);
#318=LINE('',#310,#312);
#319=EDGE_CURVE('',#309,#317,#318,.T.);
#320=ORIENTED_EDGE('',*,*,#319,.T.);
#321=CARTESIAN_POINT('',(-0.340998514677,0.330673574674,0.120000000000));
#322=VERTEX_POINT('',#321);
#323=CIRCLE('',#11,0.475000000000);
#324=EDGE_CURVE('',#317,#322,#323,.T.);
#325=ORIENTED_EDGE('',*,*,#324,.T.);
#326=CARTESIAN_POINT('',(-0.407107471027,0.342409475369,0.120000000000));
#327=VERTEX_POINT('',#326);
#328=CARTESIAN_POINT('',(0.046490784326,0.261885074832,0.120000000000));
#329=DIRECTION('',(-0.984605604380,0.174790742959,0.000000000000));
#330=VECTOR('',#329,1.0);
#331=LINE('',#328,#330);
#332=EDGE_CURVE('',#322,#327,#331,.T.);
#333=ORIENTED_EDGE('',*,*,#332,.T.);
#334=LINE('',#328,#330);
#335=EDGE_CURVE('',#327,#150,#334,.T.);
#336=ORIENTED_EDGE('',*,*,#335,.T.);
#337=ORIENTED_EDGE('',*,*,#154,.T.);
#338=CARTESIAN_POINT('',(-0.500089039680,0.181360674295,0.120000000000));
#339=VERTEX_POINT('',#338);
#340=CARTESIAN_POINT('',(-0.203553735513,-0.171204737685,0.120000000000));
#341=DIRECTION('',(0.643676025939,-0.765298094622,0.000000000000));
#342=VECTOR('',#341,1.0);
#343=LINE('',#340,#342);
#344=EDGE_CURVE('',#152,#339,#343,.T.);
#345=ORIENTED_EDGE('',*,*,#344,.T.);
#346=CARTESIAN_POINT('',(-0.456870973367,0.129976589026,0.120000000000));
#347=VERTEX_POINT('',#346);
#348=LINE('',#340,#342);
#349=EDGE_CURVE('',#339,#347,#348,.T.);
#350=ORIENTED_EDGE('',*,*,#349,.T.);
#351=CARTESIAN_POINT('',(-0.460650163700,0.115872458690,0.120000000000));
#352=VERTEX_POINT('',#351);
#353=CIRCLE('',#11,0.475000000000);
#354=EDGE_CURVE('',#347,#352,#353,.T.);
#355=ORIENTED_EDGE('',*,*,#354,.T.);
#356=CARTESIAN_POINT('',(-0.523770149664,0.092981568653,0.120000000000));
#357=VERTEX_POINT('',#356);
#358=CARTESIAN_POINT('',(-0.090680337148,0.250044519840,0.120000000000));
#359=DIRECTION('',(-0.940088837581,-0.340929578441,0.000000000000));
#360=VECTOR('',#359,1.0);
#361=LINE('',#358,#360);
#362=EDGE_CURVE('',#352,#357,#361,.T.);
#363=ORIENTED_EDGE('',*,*,#362,.T.);
#364=LINE('',#358,#360);
#365=EDGE_CURVE('',#357,#58,#364,.T.);
#366=ORIENTED_EDGE('',*,*,#365,.T.);
#367=ORIENTED_EDGE('',*,*,#62,.T.);
#368=CARTESIAN_POINT('',(-0.523770149664,-0.092981568653,0.120000000000));
#369=VERTEX_POINT('',#368);
#370=CARTESIAN_POINT('',(-0.090680337148,-0.250044519840,0.120000000000));
#371=DIRECTION('',(0.940088837581,-0.340929578441,0.000000000000));
#372=VECTOR('',#371,1.0);
#373=LINE('',#370,#372);
#374=EDGE_CURVE('',#60,#369,#373,.T.);
#375=ORIENTED_EDGE('',*,*,#374,.T.);
#376=CARTESIAN_POINT('',(-0.460650163700,-0.115872458690,0.120000000000));
#377=VERTEX_POINT('',#376);
#378=LINE('',#370,#372);
#379=EDGE_CURVE('',#369,#377,#378,.T.);
#380=ORIENTED_EDGE('',*,*,#379,.T.);
#381=CARTESIAN_POINT('',(-0.456870973367,-0.129976589026,0.120000000000));
#382=VERTEX_POINT('',#381);
#383=CIRCLE('',#11,0.475000000000);
#384=EDGE_CURVE('',#377,#382,#383,.T.);
#385=ORIENTED_EDGE('',*,*,#384,.T.);
#386=CARTESIAN_POINT('',(-0.500089039680,-0.181360674295,0.120000000000));
#387=VERTEX_POINT('',#386);
#388=CARTESIAN_POINT('',(-0.203553735513,0.171204737685,0.120000000000));
#389=DIRECTION('',(-0.643676025939,-0.765298094622,0.000000000000));
#390=VECTOR('',#389,1.0);
#391=LINE('',#388,#390);
#392=EDGE_CURVE('',#382,#387,#391,.T.);
#393=ORIENTED_EDGE('',*,*,#392,.T.);
#394=LINE('',#388,#390);
#395=EDGE_CURVE('',#387,#127,#394,.T.);
#396=ORIENTED_EDGE('',*,*,#395,.T.);
#397=ORIENTED_EDGE('',*,*,#131,.T.);
#398=CARTESIAN_POINT('',(-0.407107471027,-0.342409475369,0.120000000000));
#399=VERTEX_POINT('',#398);
#400=CARTESIAN_POINT('',(0.046490784326,-0.261885074832,0.120000000000));
#401=DIRECTION('',(0.984605604380,0.174790742959,0.000000000000));
#402=VECTOR('',#401,1.0);
#403=LINE('',#400,#402);
#404=EDGE_CURVE('',#129,#399,#403,.T.);
#405=ORIENTED_EDGE('',*,*,#404,.T.);
#406=CARTESIAN_POINT('',(-0.340998514677,-0.330673574674,0.120000000000));
#407=VERTEX_POINT('',#406);
#408=LINE('',#400,#402);
#409=EDGE_CURVE('',#399,#407,#408,.T.);
#410=ORIENTED_EDGE('',*,*,#409,.T.);
#411=CARTESIAN_POINT('',(-0.330673574674,-0.340998514677,0.120000000000));
#412=VERTEX_POINT('',#411);
#413=CIRCLE('',#11,0.475000000000);
#414=EDGE_CURVE('',#407,#412,#413,.T.);
#415=ORIENTED_EDGE('',*,*,#414,.T.);
#416=CARTESIAN_POINT('',(-0.342409475369,-0.407107471027,0.120000000000));
#417=VERTEX_POINT('',#416);
#418=CARTESIAN_POINT('',(-0.261885074832,0.046490784326,0.120000000000));
#419=DIRECTION('',(-0.174790742959,-0.984605604380,0.000000000000));
#420=VECTOR('',#419,1.0);
#421=LINE('',#418,#420);
#422=EDGE_CURVE('',#412,#417,#421,.T.);
#423=ORIENTED_EDGE('',*,*,#422,.T.);
#424=LINE('',#418,#420);
#425=EDGE_CURVE('',#417,#7,#424,.T.);
#426=ORIENTED_EDGE('',*,*,#425,.T.);
#427=ORIENTED_EDGE('',*,*,#13,.T.);
#428=CARTESIAN_POINT('',(-0.181360674295,-0.500089039680,0.120000000000));
#429=VERTEX_POINT('',#428);
#430=CARTESIAN_POINT('',(0.171204737685,-0.203553735513,0.120000000000));
#431=DIRECTION('',(0.765298094622,0.643676025939,0.000000000000));
#432=VECTOR('',#431,1.0);
#433=LINE('',#430,#432);
#434=EDGE_CURVE('',#9,#429,#433,.T.);
#435=ORIENTED_EDGE('',*,*,#434,.T.);
#436=CARTESIAN_POINT('',(-0.129976589026,-0.456870973367,0.120000000000));
#437=VERTEX_POINT('',#436);
#438=LINE('',#430,#432);
#439=EDGE_CURVE('',#429,#437,#438,.T.);
#440=ORIENTED_EDGE('',*,*,#439,.T.);
#441=CARTESIAN_POINT('',(-0.115872458690,-0.460650163700,0.120000000000));
#442=VERTEX_POINT('',#441);
#443=CIRCLE('',#11,0.475000000000);
#444=EDGE_CURVE('',#437,#442,#443,.T.);
#445=ORIENTED_EDGE('',*,*,#444,.T.);
#446=CARTESIAN_POINT('',(-0.092981568653,-0.523770149664,0.120000000000));
#447=VERTEX_POINT('',#446);
#448=CARTESIAN_POINT('',(-0.250044519840,-0.090680337148,0.120000000000));
#449=DIRECTION('',(0.340929578441,-0.940088837581,0.000000000000));
#450=VECTOR('',#449,1.0);
#451=LINE('',#448,#450);
#452=EDGE_CURVE('',#442,#447,#451,.T.);
#453=ORIENTED_EDGE('',*,*,#452,.T.);
#454=LINE('',#448,#450);
#455=EDGE_CURVE('',#447,#196,#454,.T.);
#456=ORIENTED_EDGE('',*,*,#455,.T.);
#457=ORIENTED_EDGE('',*,*,#200,.T.);
#458=CARTESIAN_POINT('',(0.092981568653,-0.523770149664,0.120000000000));
#459=VERTEX_POINT('',#458);
#460=CARTESIAN_POINT('',(0.250044519840,-0.090680337148,0.120000000000));
#461=DIRECTION('',(0.340929578441,0.940088837581,0.000000000000));
#462=VECTOR('',#461,1.0);
#463=LINE('',#460,#462);
#464=EDGE_CURVE('',#198,#459,#463,.T.);
#465=ORIENTED_EDGE('',*,*,#464,.T.);
#466=CARTESIAN_POINT('',(0.115872458690,-0.460650163700,0.120000000000));
#467=VERTEX_POINT('',#466);
#468=LINE('',#460,#462);
#469=EDGE_CURVE('',#459,#467,#468,.T.);
#470=ORIENTED_EDGE('',*,*,#469,.T.);
#471=CARTESIAN_POINT('',(0.129976589026,-0.456870973367,0.120000000000));
#472=VERTEX_POINT('',#471);
#473=CIRCLE('',#11,0.475000000000);
#474=EDGE_CURVE('',#467,#472,#473,.T.);
#475=ORIENTED_EDGE('',*,*,#474,.T.);
#476=CARTESIAN_POINT('',(0.181360674295,-0.500089039680,0.120000000000));
#477=VERTEX_POINT('',#476);
#478=CARTESIAN_POINT('',(-0.171204737685,-0.203553735513,0.120000000000));
#479=DIRECTION('',(0.765298094622,-0.643676025939,0.000000000000));
#480=VECTOR('',#479,1.0);
#481=LINE('',#478,#480);
#482=EDGE_CURVE('',#472,#477,#481,.T.);
#483=ORIENTED_EDGE('',*,*,#482,.T.);
#484=LINE('',#478,#480);
#485=EDGE_CURVE('',#477,#104,#484,.T.);
#486=ORIENTED_EDGE('',*,*,#485,.T.);
#487=ORIENTED_EDGE('',*,*,#108,.T.);
#488=CARTESIAN_POINT('',(0.342409475369,-0.407107471027,0.120000000000));
#489=VERTEX_POINT('',#488);
#490=CARTESIAN_POINT('',(0.261885074832,0.046490784326,0.120000000000));
#491=DIRECTION('',(-0.174790742959,0.984605604380,0.000000000000));
#492=VECTOR('',#491,1.0);
#493=LINE('',#490,#492);
#494=EDGE_CURVE('',#106,#489,#493,.T.);
#495=ORIENTED_EDGE('',*,*,#494,.T.);
#496=CARTESIAN_POINT('',(0.330673574674,-0.340998514677,0.120000000000));
#497=VERTEX_POINT('',#496);
#498=LINE('',#490,#492);
#499=EDGE_CURVE('',#489,#497,#498,.T.);
#500=ORIENTED_EDGE('',*,*,#499,.T.);
#501=CARTESIAN_POINT('',(0.340998514677,-0.330673574674,0.120000000000));
#502=VERTEX_POINT('',#501);
#503=CIRCLE('',#11,0.475000000000);
#504=EDGE_CURVE('',#497,#502,#503,.T.);
#505=ORIENTED_EDGE('',*,*,#504,.T.);
#506=CARTESIAN_POINT('',(0.407107471027,-0.342409475369,0.120000000000));
#507=VERTEX_POINT('',#506);
#508=CARTESIAN_POINT('',(-0.046490784326,-0.261885074832,0.120000000000));
#509=DIRECTION('',(0.984605604380,-0.174790742959,0.000000000000));
#510=VECTOR('',#509,1.0);
#511=LINE('',#508,#510);
#512=EDGE_CURVE('',#502,#507,#511,.T.);
#513=ORIENTED_EDGE('',*,*,#512,.T.);
#514=LINE('',#508,#510);
#515=EDGE_CURVE('',#507,#219,#514,.T.);
#516=ORIENTED_EDGE('',*,*,#515,.T.);
#517=ORIENTED_EDGE('',*,*,#223,.T.);
#518=CARTESIAN_POINT('',(0.500089039680,-0.181360674295,0.120000000000));
#519=VERTEX_POINT('',#518);
#520=CARTESIAN_POINT('',(0.203553735513,0.171204737685,0.120000000000));
#521=DIRECTION('',(-0.643676025939,0.765298094622,0.000000000000));
#522=VECTOR('',#521,1.0);
#523=LINE('',#520,#522);
#524=EDGE_CURVE('',#221,#519,#523,.T.);
#525=ORIENTED_EDGE('',*,*,#524,.T.);
#526=CARTESIAN_POINT('',(0.456870973367,-0.129976589026,0.120000000000));
#527=VERTEX_POINT('',#526);
#528=LINE('',#520,#522);
#529=EDGE_CURVE('',#519,#527,#528,.T.);
#530=ORIENTED_EDGE('',*,*,#529,.T.);
#531=CARTESIAN_POINT('',(0.460650163700,-0.115872458690,0.120000000000));
#532=VERTEX_POINT('',#531);
#533=CIRCLE('',#11,0.475000000000);
#534=EDGE_CURVE('',#527,#532,#533,.T.);
#535=ORIENTED_EDGE('',*,*,#534,.T.);
#536=CARTESIAN_POINT('',(0.523770149664,-0.092981568653,0.120000000000));
#537=VERTEX_POINT('',#536);
#538=CARTESIAN_POINT('',(0.090680337148,-0.250044519840,0.120000000000));
#539=DIRECTION('',(0.940088837581,0.340929578441,0.000000000000));
#540=VECTOR('',#539,1.0);
#541=LINE('',#538,#540);
#542=EDGE_CURVE('',#532,#537,#541,.T.);
#543=ORIENTED_EDGE('',*,*,#542,.T.);
#544=LINE('',#538,#540);
#545=EDGE_CURVE('',#537,#242,#544,.T.);
#546=ORIENTED_EDGE('',*,*,#545,.T.);
#547=ORIENTED_EDGE('',*,*,#246,.T.);
#548=CARTESIAN_POINT('',(0.523770149664,0.092981568653,0.120000000000));
#549=VERTEX_POINT('',#548);
#550=CARTESIAN_POINT('',(0.090680337148,0.250044519840,0.120000000000));
#551=DIRECTION('',(-0.940088837581,0.340929578441,0.000000000000));
#552=VECTOR('',#551,1.0);
#553=LINE('',#550,#552);
#554=EDGE_CURVE('',#244,#549,#553,.T.);
#555=ORIENTED_EDGE('',*,*,#554,.T.);
#556=CARTESIAN_POINT('',(0.460650163700,0.115872458690,0.120000000000));
#557=VERTEX_POINT('',#556);
#558=LINE('',#550,#552);
#559=EDGE_CURVE('',#549,#557,#558,.T.);
#560=ORIENTED_EDGE('',*,*,#559,.T.);
#561=CARTESIAN_POINT('',(0.456870973367,0.129976589026,0.120000000000));
#562=VERTEX_POINT('',#561);
#563=CIRCLE('',#11,0.475000000000);
#564=EDGE_CURVE('',#557,#562,#563,.T.);
#565=ORIENTED_EDGE('',*,*,#564,.T.);
#566=CARTESIAN_POINT('',(0.500089039680,0.181360674295,0.120000000000));
#567=VERTEX_POINT('',#566);
#568=CARTESIAN_POINT('',(0.203553735513,-0.171204737685,0.120000000000));
#569=DIRECTION('',(0.643676025939,0.765298094622,0.000000000000));
#570=VECTOR('',#569,1.0);
#571=LINE('',#568,#570);
#572=EDGE_CURVE('',#562,#567,#571,.T.);
#573=ORIENTED_EDGE('',*,*,#572,.T.);
#574=LINE('',#568,#570);
#575=EDGE_CURVE('',#567,#35,#574,.T.);
#576=ORIENTED_EDGE('',*,*,#575,.T.);
#577=ORIENTED_EDGE('',*,*,#39,.T.);
#578=CARTESIAN_POINT('',(0.407107471027,0.342409475369,0.120000000000));
#579=VERTEX_POINT('',#578);
#580=CARTESIAN_POINT('',(-0.046490784326,0.261885074832,0.120000000000));
#581=DIRECTION('',(-0.984605604380,-0.174790742959,0.000000000000));
#582=VECTOR('',#581,1.0);
#583=LINE('',#580,#582);
#584=EDGE_CURVE('',#37,#579,#583,.T.);
#585=ORIENTED_EDGE('',*,*,#584,.T.);
#586=CARTESIAN_POINT('',(0.340998514677,0.330673574674,0.120000000000));
#587=VERTEX_POINT('',#586);
#588=LINE('',#580,#582);
#589=EDGE_CURVE('',#579,#587,#588,.T.);
#590=ORIENTED_EDGE('',*,*,#589,.T.);
#591=CARTESIAN_POINT('',(0.330673574674,0.340998514677,0.120000000000));
#592=VERTEX_POINT('',#591);
#593=CIRCLE('',#11,0.475000000000);
#594=EDGE_CURVE('',#587,#592,#593,.T.);
#595=ORIENTED_EDGE('',*,*,#594,.T.);
#596=CARTESIAN_POINT('',(0.342409475369,0.407107471027,0.120000000000));
#597=VERTEX_POINT('',#596);
#598=CARTESIAN_POINT('',(0.261885074832,-0.046490784326,0.120000000000));
#599=DIRECTION('',(0.174790742959,0.984605604380,0.000000000000));
#600=VECTOR('',#599,1.0);
#601=LINE('',#598,#600);
#602=EDGE_CURVE('',#592,#597,#601,.T.);
#603=ORIENTED_EDGE('',*,*,#602,.T.);
#604=LINE('',#598,#600);
#605=EDGE_CURVE('',#597,#81,#604,.T.);
#606=ORIENTED_EDGE('',*,*,#605,.T.);
#607=ORIENTED_EDGE('',*,*,#85,.T.);
#608=CARTESIAN_POINT('',(0.181360674295,0.500089039680,0.120000000000));
#609=VERTEX_POINT('',#608);
#610=CARTESIAN_POINT('',(-0.171204737685,0.203553735513,0.120000000000));
#611=DIRECTION('',(-0.765298094622,-0.643676025939,0.000000000000));
#612=VECTOR('',#611,1.0);
#613=LINE('',#610,#612);
#614=EDGE_CURVE('',#83,#609,#613,.T.);
#615=ORIENTED_EDGE('',*,*,#614,.T.);
#616=CARTESIAN_POINT('',(0.129976589026,0.456870973367,0.120000000000));
#617=VERTEX_POINT('',#616);
#618=LINE('',#610,#612);
#619=EDGE_CURVE('',#609,#617,#618,.T.);
#620=ORIENTED_EDGE('',*,*,#619,.T.);
#621=CARTESIAN_POINT('',(0.115872458690,0.460650163700,0.120000000000));
#622=VERTEX_POINT('',#621);
#623=CIRCLE('',#11,0.475000000000);
#624=EDGE_CURVE('',#617,#622,#623,.T.);
#625=ORIENTED_EDGE('',*,*,#624,.T.);
#626=CARTESIAN_POINT('',(0.092981568653,0.523770149664,0.120000000000));
#627=VERTEX_POINT('',#626);
#628=CARTESIAN_POINT('',(0.250044519840,0.090680337148,0.120000000000));
#629=DIRECTION('',(-0.340929578441,0.940088837581,0.000000000000));
#630=VECTOR('',#629,1.0);
#631=LINE('',#628,#630);
#632=EDGE_CURVE('',#622,#627,#631,.T.);
#633=ORIENTED_EDGE('',*,*,#632,.T.);
#634=LINE('',#628,#630);
#635=EDGE_CURVE('',#627,#265,#634,.T.);
#636=ORIENTED_EDGE('',*,*,#635,.T.);
#637=ORIENTED_EDGE('',*,*,#269,.T.);
#638=CARTESIAN_POINT('',(-0.092981568653,0.523770149664,0.120000000000));
#639=VERTEX_POINT('',#638);
#640=CARTESIAN_POINT('',(-0.250044519840,0.090680337148,0.120000000000));
#641=DIRECTION('',(-0.340929578441,-0.940088837581,0.000000000000));
#642=VECTOR('',#641,1.0);
#643=LINE('',#640,#642);
#644=EDGE_CURVE('',#267,#639,#643,.T.);
#645=ORIENTED_EDGE('',*,*,#644,.T.);
#646=CARTESIAN_POINT('',(-0.115872458690,0.460650163700,0.120000000000));
#647=VERTEX_POINT('',#646);
#648=LINE('',#640,#642);
#649=EDGE_CURVE('',#639,#647,#648,.T.);
#650=ORIENTED_EDGE('',*,*,#649,.T.);
#651=CARTESIAN_POINT('',(-0.129976589026,0.456870973367,0.120000000000));
#652=VERTEX_POINT('',#651);
#653=CIRCLE('',#11,0.475000000000);
#654=EDGE_CURVE('',#647,#652,#653,.T.);
#655=ORIENTED_EDGE('',*,*,#654,.T.);
#656=CARTESIAN_POINT('',(-0.181360674295,0.500089039680,0.120000000000));
#657=VERTEX_POINT('',#656);
#658=CARTESIAN_POINT('',(0.171204737685,0.203553735513,0.120000000000));
#659=DIRECTION('',(-0.765298094622,0.643676025939,0.000000000000));
#660=VECTOR('',#659,1.0);
#661=LINE('',#658,#660);
#662=EDGE_CURVE('',#652,#657,#661,.T.);
#663=ORIENTED_EDGE('',*,*,#662,.T.);
#664=LINE('',#658,#660);
#665=EDGE_CURVE('',#657,#173,#664,.T.);
#666=ORIENTED_EDGE('',*,*,#665,.T.);
#667=EDGE_LOOP('',(#307,#315,#320,#325,#333,#336,#337,#345,#350,#355,#363,#366,#367,#375,#380,#385,#393,#396,#397,#405,#410,#415,#423,#426,#427,#435,#440,#445,#453,#456,#457,#465,#470,#475,#483,#486,#487,#495,#500,#505,#513,#516,#517,#525,#530,#535,#543,#546,#547,#555,#560,#565,#573,#576,#577,#585,#590,#595,#603,#606,#607,#615,#620,#625,#633,#636,#637,#645,#650,#655,#663,#666));
#668=FACE_BOUND('',#306,.T.);
#669=FACE_OUTER_BOUND('',#667,.T.);
#670=ADVANCED_FACE('',(#668,#669),#300,.T.);
#671=DIRECTION('',(0.000000000000,0.000000000000,-1.000000000000));
#672=DIRECTION('',(0.000000000000,-1.000000000000,0.000000000000));
#673=AXIS2_PLACEMENT_3D('',#24,#671,#672);
#674=PLANE('',#673);
#675=CARTESIAN_POINT('',(0.000000000000,0.130000000000,-0.120000000000));
#676=VERTEX_POINT('',#675);
#677=CIRCLE('',#25,0.130000000000);
#678=EDGE_CURVE('',#676,#676,#677,.T.);
#679=ORIENTED_EDGE('',*,*,#678,.T.);
#680=EDGE_LOOP('',(#679));
#681=ORIENTED_EDGE('',*,*,#188,.F.);
#682=CARTESIAN_POINT('',(-0.181360674295,0.500089039680,-0.120000000000));
#683=VERTEX_POINT('',#682);
#684=CARTESIAN_POINT('',(0.171204737685,0.203553735513,-0.120000000000));
#685=LINE('',#684,#480);
#686=EDGE_CURVE('',#180,#683,#685,.T.);
#687=ORIENTED_EDGE('',*,*,#686,.T.);
#688=CARTESIAN_POINT('',(-0.129976589026,0.456870973367,-0.120000000000));
#689=VERTEX_POINT('',#688);
#690=LINE('',#684,#480);
#691=EDGE_CURVE('',#683,#689,#690,.T.);
#692=ORIENTED_EDGE('',*,*,#691,.T.);
#693=CARTESIAN_POINT('',(-0.115872458690,0.460650163700,-0.120000000000));
#694=VERTEX_POINT('',#693);
#695=CIRCLE('',#25,0.475000000000);
#696=EDGE_CURVE('',#694,#689,#695,.T.);
#697=ORIENTED_EDGE('',*,*,#696,.F.);
#698=CARTESIAN_POINT('',(-0.092981568653,0.523770149664,-0.120000000000));
#699=VERTEX_POINT('',#698);
#700=CARTESIAN_POINT('',(-0.250044519840,0.090680337148,-0.120000000000));
#701=LINE('',#700,#462);
#702=EDGE_CURVE('',#694,#699,#701,.T.);
#703=ORIENTED_EDGE('',*,*,#702,.T.);
#704=LINE('',#700,#462);
#705=EDGE_CURVE('',#699,#278,#704,.T.);
#706=ORIENTED_EDGE('',*,*,#705,.T.);
#707=ORIENTED_EDGE('',*,*,#280,.F.);
#708=CARTESIAN_POINT('',(0.092981568653,0.523770149664,-0.120000000000));
#709=VERTEX_POINT('',#708);
#710=CARTESIAN_POINT('',(0.250044519840,0.090680337148,-0.120000000000));
#711=LINE('',#710,#450);
#712=EDGE_CURVE('',#272,#709,#711,.T.);
#713=ORIENTED_EDGE('',*,*,#712,.T.);
#714=CARTESIAN_POINT('',(0.115872458690,0.460650163700,-0.120000000000));
#715=VERTEX_POINT('',#714);
#716=LINE('',#710,#450);
#717=EDGE_CURVE('',#709,#715,#716,.T.);
#718=ORIENTED_EDGE('',*,*,#717,.T.);
#719=CARTESIAN_POINT('',(0.129976589026,0.456870973367,-0.120000000000));
#720=VERTEX_POINT('',#719);
#721=CIRCLE('',#25,0.475000000000);
#722=EDGE_CURVE('',#720,#715,#721,.T.);
#723=ORIENTED_EDGE('',*,*,#722,.F.);
#724=CARTESIAN_POINT('',(0.181360674295,0.500089039680,-0.120000000000));
#725=VERTEX_POINT('',#724);
#726=CARTESIAN_POINT('',(-0.171204737685,0.203553735513,-0.120000000000));
#727=LINE('',#726,#432);
#728=EDGE_CURVE('',#720,#725,#727,.T.);
#729=ORIENTED_EDGE('',*,*,#728,.T.);
#730=LINE('',#726,#432);
#731=EDGE_CURVE('',#725,#94,#730,.T.);
#732=ORIENTED_EDGE('',*,*,#731,.T.);
#733=ORIENTED_EDGE('',*,*,#96,.F.);
#734=CARTESIAN_POINT('',(0.342409475369,0.407107471027,-0.120000000000));
#735=VERTEX_POINT('',#734);
#736=CARTESIAN_POINT('',(0.261885074832,-0.046490784326,-0.120000000000));
#737=LINE('',#736,#420);
#738=EDGE_CURVE('',#88,#735,#737,.T.);
#739=ORIENTED_EDGE('',*,*,#738,.T.);
#740=CARTESIAN_POINT('',(0.330673574674,0.340998514677,-0.120000000000));
#741=VERTEX_POINT('',#740);
#742=LINE('',#736,#420);
#743=EDGE_CURVE('',#735,#741,#742,.T.);
#744=ORIENTED_EDGE('',*,*,#743,.T.);
#745=CARTESIAN_POINT('',(0.340998514677,0.330673574674,-0.120000000000));
#746=VERTEX_POINT('',#745);
#747=CIRCLE('',#25,0.475000000000);
#748=EDGE_CURVE('',#746,#741,#747,.T.);
#749=ORIENTED_EDGE('',*,*,#748,.F.);
#750=CARTESIAN_POINT('',(0.407107471027,0.342409475369,-0.120000000000));
#751=VERTEX_POINT('',#750);
#752=CARTESIAN_POINT('',(-0.046490784326,0.261885074832,-0.120000000000));
#753=LINE('',#752,#402);
#754=EDGE_CURVE('',#746,#751,#753,.T.);
#755=ORIENTED_EDGE('',*,*,#754,.T.);
#756=LINE('',#752,#402);
#757=EDGE_CURVE('',#751,#48,#756,.T.);
#758=ORIENTED_EDGE('',*,*,#757,.T.);
#759=ORIENTED_EDGE('',*,*,#50,.F.);
#760=CARTESIAN_POINT('',(0.500089039680,0.181360674295,-0.120000000000));
#761=VERTEX_POINT('',#760);
#762=CARTESIAN_POINT('',(0.203553735513,-0.171204737685,-0.120000000000));
#763=LINE('',#762,#390);
#764=EDGE_CURVE('',#42,#761,#763,.T.);
#765=ORIENTED_EDGE('',*,*,#764,.T.);
#766=CARTESIAN_POINT('',(0.456870973367,0.129976589026,-0.120000000000));
#767=VERTEX_POINT('',#766);
#768=LINE('',#762,#390);
#769=EDGE_CURVE('',#761,#767,#768,.T.);
#770=ORIENTED_EDGE('',*,*,#769,.T.);
#771=CARTESIAN_POINT('',(0.460650163700,0.115872458690,-0.120000000000));
#772=VERTEX_POINT('',#771);
#773=CIRCLE('',#25,0.475000000000);
#774=EDGE_CURVE('',#772,#767,#773,.T.);
#775=ORIENTED_EDGE('',*,*,#774,.F.);
#776=CARTESIAN_POINT('',(0.523770149664,0.092981568653,-0.120000000000));
#777=VERTEX_POINT('',#776);
#778=CARTESIAN_POINT('',(0.090680337148,0.250044519840,-0.120000000000));
#779=LINE('',#778,#372);
#780=EDGE_CURVE('',#772,#777,#779,.T.);
#781=ORIENTED_EDGE('',*,*,#780,.T.);
#782=LINE('',#778,#372);
#783=EDGE_CURVE('',#777,#255,#782,.T.);
#784=ORIENTED_EDGE('',*,*,#783,.T.);
#785=ORIENTED_EDGE('',*,*,#257,.F.);
#786=CARTESIAN_POINT('',(0.523770149664,-0.092981568653,-0.120000000000));
#787=VERTEX_POINT('',#786);
#788=CARTESIAN_POINT('',(0.090680337148,-0.250044519840,-0.120000000000));
#789=LINE('',#788,#360);
#790=EDGE_CURVE('',#249,#787,#789,.T.);
#791=ORIENTED_EDGE('',*,*,#790,.T.);
#792=CARTESIAN_POINT('',(0.460650163700,-0.115872458690,-0.120000000000));
#793=VERTEX_POINT('',#792);
#794=LINE('',#788,#360);
#795=EDGE_CURVE('',#787,#793,#794,.T.);
#796=ORIENTED_EDGE('',*,*,#795,.T.);
#797=CARTESIAN_POINT('',(0.456870973367,-0.129976589026,-0.120000000000));
#798=VERTEX_POINT('',#797);
#799=CIRCLE('',#25,0.475000000000);
#800=EDGE_CURVE('',#798,#793,#799,.T.);
#801=ORIENTED_EDGE('',*,*,#800,.F.);
#802=CARTESIAN_POINT('',(0.500089039680,-0.181360674295,-0.120000000000));
#803=VERTEX_POINT('',#802);
#804=CARTESIAN_POINT('',(0.203553735513,0.171204737685,-0.120000000000));
#805=LINE('',#804,#342);
#806=EDGE_CURVE('',#798,#803,#805,.T.);
#807=ORIENTED_EDGE('',*,*,#806,.T.);
#808=LINE('',#804,#342);
#809=EDGE_CURVE('',#803,#232,#808,.T.);
#810=ORIENTED_EDGE('',*,*,#809,.T.);
#811=ORIENTED_EDGE('',*,*,#234,.F.);
#812=CARTESIAN_POINT('',(0.407107471027,-0.342409475369,-0.120000000000));
#813=VERTEX_POINT('',#812);
#814=CARTESIAN_POINT('',(-0.046490784326,-0.261885074832,-0.120000000000));
#815=LINE('',#814,#330);
#816=EDGE_CURVE('',#226,#813,#815,.T.);
#817=ORIENTED_EDGE('',*,*,#816,.T.);
#818=CARTESIAN_POINT('',(0.340998514677,-0.330673574674,-0.120000000000));
#819=VERTEX_POINT('',#818);
#820=LINE('',#814,#330);
#821=EDGE_CURVE('',#813,#819,#820,.T.);
#822=ORIENTED_EDGE('',*,*,#821,.T.);
#823=CARTESIAN_POINT('',(0.330673574674,-0.340998514677,-0.120000000000));
#824=VERTEX_POINT('',#823);
#825=CIRCLE('',#25,0.475000000000);
#826=EDGE_CURVE('',#824,#819,#825,.T.);
#827=ORIENTED_EDGE('',*,*,#826,.F.);
#828=CARTESIAN_POINT('',(0.342409475369,-0.407107471027,-0.120000000000));
#829=VERTEX_POINT('',#828);
#830=CARTESIAN_POINT('',(0.261885074832,0.046490784326,-0.120000000000));
#831=LINE('',#830,#312);
#832=EDGE_CURVE('',#824,#829,#831,.T.);
#833=ORIENTED_EDGE('',*,*,#832,.T.);
#834=LINE('',#830,#312);
#835=EDGE_CURVE('',#829,#117,#834,.T.);
#836=ORIENTED_EDGE('',*,*,#835,.T.);
#837=ORIENTED_EDGE('',*,*,#119,.F.);
#838=CARTESIAN_POINT('',(0.181360674295,-0.500089039680,-0.120000000000));
#839=VERTEX_POINT('',#838);
#840=CARTESIAN_POINT('',(-0.171204737685,-0.203553735513,-0.120000000000));
#841=LINE('',#840,#660);
#842=EDGE_CURVE('',#111,#839,#841,.T.);
#843=ORIENTED_EDGE('',*,*,#842,.T.);
#844=CARTESIAN_POINT('',(0.129976589026,-0.456870973367,-0.120000000000));
#845=VERTEX_POINT('',#844);
#846=LINE('',#840,#660);
#847=EDGE_CURVE('',#839,#845,#846,.T.);
#848=ORIENTED_EDGE('',*,*,#847,.T.);
#849=CARTESIAN_POINT('',(0.115872458690,-0.460650163700,-0.120000000000));
#850=VERTEX_POINT('',#849);
#851=CIRCLE('',#25,0.475000000000);
#852=EDGE_CURVE('',#850,#845,#851,.T.);
#853=ORIENTED_EDGE('',*,*,#852,.F.);
#854=CARTESIAN_POINT('',(0.092981568653,-0.523770149664,-0.120000000000));
#855=VERTEX_POINT('',#854);
#856=CARTESIAN_POINT('',(0.250044519840,-0.090680337148,-0.120000000000));
#857=LINE('',#856,#642);
#858=EDGE_CURVE('',#850,#855,#857,.T.);
#859=ORIENTED_EDGE('',*,*,#858,.T.);
#860=LINE('',#856,#642);
#861=EDGE_CURVE('',#855,#209,#860,.T.);
#862=ORIENTED_EDGE('',*,*,#861,.T.);
#863=ORIENTED_EDGE('',*,*,#211,.F.);
#864=CARTESIAN_POINT('',(-0.092981568653,-0.523770149664,-0.120000000000));
#865=VERTEX_POINT('',#864);
#866=CARTESIAN_POINT('',(-0.250044519840,-0.090680337148,-0.120000000000));
#867=LINE('',#866,#630);
#868=EDGE_CURVE('',#203,#865,#867,.T.);
#869=ORIENTED_EDGE('',*,*,#868,.T.);
#870=CARTESIAN_POINT('',(-0.115872458690,-0.460650163700,-0.120000000000));
#871=VERTEX_POINT('',#870);
#872=LINE('',#866,#630);
#873=EDGE_CURVE('',#865,#871,#872,.T.);
#874=ORIENTED_EDGE('',*,*,#873,.T.);
#875=CARTESIAN_POINT('',(-0.129976589026,-0.456870973367,-0.120000000000));
#876=VERTEX_POINT('',#875);
#877=CIRCLE('',#25,0.475000000000);
#878=EDGE_CURVE('',#876,#871,#877,.T.);
#879=ORIENTED_EDGE('',*,*,#878,.F.);
#880=CARTESIAN_POINT('',(-0.181360674295,-0.500089039680,-0.120000000000));
#881=VERTEX_POINT('',#880);
#882=CARTESIAN_POINT('',(0.171204737685,-0.203553735513,-0.120000000000));
#883=LINE('',#882,#612);
#884=EDGE_CURVE('',#876,#881,#883,.T.);
#885=ORIENTED_EDGE('',*,*,#884,.T.);
#886=LINE('',#882,#612);
#887=EDGE_CURVE('',#881,#23,#886,.T.);
#888=ORIENTED_EDGE('',*,*,#887,.T.);
#889=ORIENTED_EDGE('',*,*,#27,.F.);
#890=CARTESIAN_POINT('',(-0.342409475369,-0.407107471027,-0.120000000000));
#891=VERTEX_POINT('',#890);
#892=CARTESIAN_POINT('',(-0.261885074832,0.046490784326,-0.120000000000));
#893=LINE('',#892,#600);
#894=EDGE_CURVE('',#16,#891,#893,.T.);
#895=ORIENTED_EDGE('',*,*,#894,.T.);
#896=CARTESIAN_POINT('',(-0.330673574674,-0.340998514677,-0.120000000000));
#897=VERTEX_POINT('',#896);
#898=LINE('',#892,#600);
#899=EDGE_CURVE('',#891,#897,#898,.T.);
#900=ORIENTED_EDGE('',*,*,#899,.T.);
#901=CARTESIAN_POINT('',(-0.340998514677,-0.330673574674,-0.120000000000));
#902=VERTEX_POINT('',#901);
#903=CIRCLE('',#25,0.475000000000);
#904=EDGE_CURVE('',#902,#897,#903,.T.);
#905=ORIENTED_EDGE('',*,*,#904,.F.);
#906=CARTESIAN_POINT('',(-0.407107471027,-0.342409475369,-0.120000000000));
#907=VERTEX_POINT('',#906);
#908=CARTESIAN_POINT('',(0.046490784326,-0.261885074832,-0.120000000000));
#909=LINE('',#908,#582);
#910=EDGE_CURVE('',#902,#907,#909,.T.);
#911=ORIENTED_EDGE('',*,*,#910,.T.);
#912=LINE('',#908,#582);
#913=EDGE_CURVE('',#907,#140,#912,.T.);
#914=ORIENTED_EDGE('',*,*,#913,.T.);
#915=ORIENTED_EDGE('',*,*,#142,.F.);
#916=CARTESIAN_POINT('',(-0.500089039680,-0.181360674295,-0.120000000000));
#917=VERTEX_POINT('',#916);
#918=CARTESIAN_POINT('',(-0.203553735513,0.171204737685,-0.120000000000));
#919=LINE('',#918,#570);
#920=EDGE_CURVE('',#134,#917,#919,.T.);
#921=ORIENTED_EDGE('',*,*,#920,.T.);
#922=CARTESIAN_POINT('',(-0.456870973367,-0.129976589026,-0.120000000000));
#923=VERTEX_POINT('',#922);
#924=LINE('',#918,#570);
#925=EDGE_CURVE('',#917,#923,#924,.T.);
#926=ORIENTED_EDGE('',*,*,#925,.T.);
#927=CARTESIAN_POINT('',(-0.460650163700,-0.115872458690,-0.120000000000));
#928=VERTEX_POINT('',#927);
#929=CIRCLE('',#25,0.475000000000);
#930=EDGE_CURVE('',#928,#923,#929,.T.);
#931=ORIENTED_EDGE('',*,*,#930,.F.);
#932=CARTESIAN_POINT('',(-0.523770149664,-0.092981568653,-0.120000000000));
#933=VERTEX_POINT('',#932);
#934=CARTESIAN_POINT('',(-0.090680337148,-0.250044519840,-0.120000000000));
#935=LINE('',#934,#552);
#936=EDGE_CURVE('',#928,#933,#935,.T.);
#937=ORIENTED_EDGE('',*,*,#936,.T.);
#938=LINE('',#934,#552);
#939=EDGE_CURVE('',#933,#71,#938,.T.);
#940=ORIENTED_EDGE('',*,*,#939,.T.);
#941=ORIENTED_EDGE('',*,*,#73,.F.);
#942=CARTESIAN_POINT('',(-0.523770149664,0.092981568653,-0.120000000000));
#943=VERTEX_POINT('',#942);
#944=CARTESIAN_POINT('',(-0.090680337148,0.250044519840,-0.120000000000));
#945=LINE('',#944,#540);
#946=EDGE_CURVE('',#65,#943,#945,.T.);
#947=ORIENTED_EDGE('',*,*,#946,.T.);
#948=CARTESIAN_POINT('',(-0.460650163700,0.115872458690,-0.120000000000));
#949=VERTEX_POINT('',#948);
#950=LINE('',#944,#540);
#951=EDGE_CURVE('',#943,#949,#950,.T.);
#952=ORIENTED_EDGE('',*,*,#951,.T.);
#953=CARTESIAN_POINT('',(-0.456870973367,0.129976589026,-0.120000000000));
#954=VERTEX_POINT('',#953);
#955=CIRCLE('',#25,0.475000000000);
#956=EDGE_CURVE('',#954,#949,#955,.T.);
#957=ORIENTED_EDGE('',*,*,#956,.F.);
#958=CARTESIAN_POINT('',(-0.500089039680,0.181360674295,-0.120000000000));
#959=VERTEX_POINT('',#958);
#960=CARTESIAN_POINT('',(-0.203553735513,-0.171204737685,-0.120000000000));
#961=LINE('',#960,#522);
#962=EDGE_CURVE('',#954,#959,#961,.T.);
#963=ORIENTED_EDGE('',*,*,#962,.T.);
#964=LINE('',#960,#522);
#965=EDGE_CURVE('',#959,#163,#964,.T.);
#966=ORIENTED_EDGE('',*,*,#965,.T.);
#967=ORIENTED_EDGE('',*,*,#165,.F.);
#968=CARTESIAN_POINT('',(-0.407107471027,0.342409475369,-0.120000000000));
#969=VERTEX_POINT('',#968);
#970=CARTESIAN_POINT('',(0.046490784326,0.261885074832,-0.120000000000));
#971=LINE('',#970,#510);
#972=EDGE_CURVE('',#157,#969,#971,.T.);
#973=ORIENTED_EDGE('',*,*,#972,.T.);
#974=CARTESIAN_POINT('',(-0.340998514677,0.330673574674,-0.120000000000));
#975=VERTEX_POINT('',#974);
#976=LINE('',#970,#510);
#977=EDGE_CURVE('',#969,#975,#976,.T.);
#978=ORIENTED_EDGE('',*,*,#977,.T.);
#979=CARTESIAN_POINT('',(-0.330673574674,0.340998514677,-0.120000000000));
#980=VERTEX_POINT('',#979);
#981=CIRCLE('',#25,0.475000000000);
#982=EDGE_CURVE('',#980,#975,#981,.T.);
#983=ORIENTED_EDGE('',*,*,#982,.F.);
#984=CARTESIAN_POINT('',(-0.342409475369,0.407107471027,-0.120000000000));
#985=VERTEX_POINT('',#984);
#986=CARTESIAN_POINT('',(-0.261885074832,-0.046490784326,-0.120000000000));
#987=LINE('',#986,#492);
#988=EDGE_CURVE('',#980,#985,#987,.T.);
#989=ORIENTED_EDGE('',*,*,#988,.T.);
#990=LINE('',#986,#492);
#991=EDGE_CURVE('',#985,#186,#990,.T.);
#992=ORIENTED_EDGE('',*,*,#991,.T.);
#993=EDGE_LOOP('',(#681,#687,#692,#697,#703,#706,#707,#713,#718,#723,#729,#732,#733,#739,#744,#749,#755,#758,#759,#765,#770,#775,#781,#784,#785,#791,#796,#801,#807,#810,#811,#817,#822,#827,#833,#836,#837,#843,#848,#853,#859,#862,#863,#869,#874,#879,#885,#888,#889,#895,#900,#905,#911,#914,#915,#921,#926,#931,#937,#940,#941,#947,#952,#957,#963,#966,#967,#973,#978,#983,#989,#992));
#994=FACE_BOUND('',#680,.T.);
#995=FACE_OUTER_BOUND('',#993,.T.);
#996=ADVANCED_FACE('',(#994,#995),#674,.T.);
#997=CARTESIAN_POINT('',(0.203553735513,-0.171204737685,0.000000000000));
#998=AXIS2_PLACEMENT_3D('',#997,#479,#389);
#999=PLANE('',#998);
#1000=ORIENTED_EDGE('',*,*,#45,.T.);
#1001=ORIENTED_EDGE('',*,*,#575,.F.);
#1002=ORIENTED_EDGE('',*,*,#572,.F.);
#1003=CARTESIAN_POINT('',(0.456870973367,0.129976589026,0.000000000000));
#1004=LINE('',#1003,#18);
#1005=EDGE_CURVE('',#767,#562,#1004,.T.);
#1006=ORIENTED_EDGE('',*,*,#1005,.F.);
#1007=ORIENTED_EDGE('',*,*,#769,.F.);
#1008=ORIENTED_EDGE('',*,*,#764,.F.);
#1009=EDGE_LOOP('',(#1000,#1001,#1002,#1006,#1007,#1008));
#1010=FACE_OUTER_BOUND('',#1009,.T.);
#1011=ADVANCED_FACE('',(#1010),#999,.T.);
#1012=CARTESIAN_POINT('',(-0.261885074832,0.046490784326,0.000000000000));
#1013=AXIS2_PLACEMENT_3D('',#1012,#329,#599);
#1014=PLANE('',#1013);
#1015=ORIENTED_EDGE('',*,*,#20,.T.);
#1016=ORIENTED_EDGE('',*,*,#425,.F.);
#1017=ORIENTED_EDGE('',*,*,#422,.F.);
#1018=CARTESIAN_POINT('',(-0.330673574674,-0.340998514677,0.000000000000));
#1019=LINE('',#1018,#18);
#1020=EDGE_CURVE('',#897,#412,#1019,.T.);
#1021=ORIENTED_EDGE('',*,*,#1020,.F.);
#1022=ORIENTED_EDGE('',*,*,#899,.F.);
#1023=ORIENTED_EDGE('',*,*,#894,.F.);
#1024=EDGE_LOOP('',(#1015,#1016,#1017,#1021,#1022,#1023));
#1025=FACE_OUTER_BOUND('',#1024,.T.);
#1026=ADVANCED_FACE('',(#1025),#1014,.T.);
#1027=CARTESIAN_POINT('',(0.171204737685,0.203553735513,0.000000000000));
#1028=AXIS2_PLACEMENT_3D('',#1027,#569,#479);
#1029=PLANE('',#1028);
#1030=ORIENTED_EDGE('',*,*,#183,.T.);
#1031=ORIENTED_EDGE('',*,*,#665,.F.);
#1032=ORIENTED_EDGE('',*,*,#662,.F.);
#1033=CARTESIAN_POINT('',(-0.129976589026,0.456870973367,0.000000000000));
#1034=LINE('',#1033,#18);
#1035=EDGE_CURVE('',#689,#652,#1034,.T.);
#1036=ORIENTED_EDGE('',*,*,#1035,.F.);
#1037=ORIENTED_EDGE('',*,*,#691,.F.);
#1038=ORIENTED_EDGE('',*,*,#686,.F.);
#1039=EDGE_LOOP('',(#1030,#1031,#1032,#1036,#1037,#1038));
#1040=FACE_OUTER_BOUND('',#1039,.T.);
#1041=ADVANCED_FACE('',(#1040),#1029,.T.);
#1042=CARTESIAN_POINT('',(-0.261885074832,-0.046490784326,0.000000000000));
#1043=AXIS2_PLACEMENT_3D('',#1042,#581,#491);
#1044=PLANE('',#1043);
#1045=ORIENTED_EDGE('',*,*,#192,.F.);
#1046=ORIENTED_EDGE('',*,*,#991,.F.);
#1047=ORIENTED_EDGE('',*,*,#988,.F.);
#1048=CARTESIAN_POINT('',(-0.330673574674,0.340998514677,0.000000000000));
#1049=LINE('',#1048,#18);
#1050=EDGE_CURVE('',#980,#317,#1049,.T.);
#1051=ORIENTED_EDGE('',*,*,#1050,.T.);
#1052=ORIENTED_EDGE('',*,*,#319,.F.);
#1053=ORIENTED_EDGE('',*,*,#314,.F.);
#1054=EDGE_LOOP('',(#1045,#1046,#1047,#1051,#1052,#1053));
#1055=FACE_OUTER_BOUND('',#1054,.T.);
#1056=ADVANCED_FACE('',(#1055),#1044,.T.);
#1057=CARTESIAN_POINT('',(0.090680337148,0.250044519840,0.000000000000));
#1058=AXIS2_PLACEMENT_3D('',#1057,#461,#371);
#1059=PLANE('',#1058);
#1060=ORIENTED_EDGE('',*,*,#261,.F.);
#1061=ORIENTED_EDGE('',*,*,#783,.F.);
#1062=ORIENTED_EDGE('',*,*,#780,.F.);
#1063=CARTESIAN_POINT('',(0.460650163700,0.115872458690,0.000000000000));
#1064=LINE('',#1063,#18);
#1065=EDGE_CURVE('',#772,#557,#1064,.T.);
#1066=ORIENTED_EDGE('',*,*,#1065,.T.);
#1067=ORIENTED_EDGE('',*,*,#559,.F.);
#1068=ORIENTED_EDGE('',*,*,#554,.F.);
#1069=EDGE_LOOP('',(#1060,#1061,#1062,#1066,#1067,#1068));
#1070=FACE_OUTER_BOUND('',#1069,.T.);
#1071=ADVANCED_FACE('',(#1070),#1059,.T.);
#1072=CARTESIAN_POINT('',(0.203553735513,0.171204737685,0.000000000000));
#1073=AXIS2_PLACEMENT_3D('',#1072,#431,#341);
#1074=PLANE('',#1073);
#1075=ORIENTED_EDGE('',*,*,#238,.F.);
#1076=ORIENTED_EDGE('',*,*,#809,.F.);
#1077=ORIENTED_EDGE('',*,*,#806,.F.);
#1078=CARTESIAN_POINT('',(0.456870973367,-0.129976589026,0.000000000000));
#1079=LINE('',#1078,#18);
#1080=EDGE_CURVE('',#798,#527,#1079,.T.);
#1081=ORIENTED_EDGE('',*,*,#1080,.T.);
#1082=ORIENTED_EDGE('',*,*,#529,.F.);
#1083=ORIENTED_EDGE('',*,*,#524,.F.);
#1084=EDGE_LOOP('',(#1075,#1076,#1077,#1081,#1082,#1083));
#1085=FACE_OUTER_BOUND('',#1084,.T.);
#1086=ADVANCED_FACE('',(#1085),#1074,.T.);
#1087=CARTESIAN_POINT('',(-0.203553735513,0.171204737685,0.000000000000));
#1088=AXIS2_PLACEMENT_3D('',#1087,#659,#569);
#1089=PLANE('',#1088);
#1090=ORIENTED_EDGE('',*,*,#137,.T.);
#1091=ORIENTED_EDGE('',*,*,#395,.F.);
#1092=ORIENTED_EDGE('',*,*,#392,.F.);
#1093=CARTESIAN_POINT('',(-0.456870973367,-0.129976589026,0.000000000000));
#1094=LINE('',#1093,#18);
#1095=EDGE_CURVE('',#923,#382,#1094,.T.);
#1096=ORIENTED_EDGE('',*,*,#1095,.F.);
#1097=ORIENTED_EDGE('',*,*,#925,.F.);
#1098=ORIENTED_EDGE('',*,*,#920,.F.);
#1099=EDGE_LOOP('',(#1090,#1091,#1092,#1096,#1097,#1098));
#1100=FACE_OUTER_BOUND('',#1099,.T.);
#1101=ADVANCED_FACE('',(#1100),#1089,.T.);
#1102=CARTESIAN_POINT('',(0.046490784326,-0.261885074832,0.000000000000));
#1103=AXIS2_PLACEMENT_3D('',#1102,#311,#581);
#1104=PLANE('',#1103);
#1105=ORIENTED_EDGE('',*,*,#146,.F.);
#1106=ORIENTED_EDGE('',*,*,#913,.F.);
#1107=ORIENTED_EDGE('',*,*,#910,.F.);
#1108=CARTESIAN_POINT('',(-0.340998514677,-0.330673574674,0.000000000000));
#1109=LINE('',#1108,#18);
#1110=EDGE_CURVE('',#902,#407,#1109,.T.);
#1111=ORIENTED_EDGE('',*,*,#1110,.T.);
#1112=ORIENTED_EDGE('',*,*,#409,.F.);
#1113=ORIENTED_EDGE('',*,*,#404,.F.);
#1114=EDGE_LOOP('',(#1105,#1106,#1107,#1111,#1112,#1113));
#1115=FACE_OUTER_BOUND('',#1114,.T.);
#1116=ADVANCED_FACE('',(#1115),#1104,.T.);
#1117=CARTESIAN_POINT('',(0.261885074832,-0.046490784326,0.000000000000));
#1118=AXIS2_PLACEMENT_3D('',#1117,#509,#419);
#1119=PLANE('',#1118);
#1120=ORIENTED_EDGE('',*,*,#91,.T.);
#1121=ORIENTED_EDGE('',*,*,#605,.F.);
#1122=ORIENTED_EDGE('',*,*,#602,.F.);
#1123=CARTESIAN_POINT('',(0.330673574674,0.340998514677,0.000000000000));
#1124=LINE('',#1123,#18);
#1125=EDGE_CURVE('',#741,#592,#1124,.T.);
#1126=ORIENTED_EDGE('',*,*,#1125,.F.);
#1127=ORIENTED_EDGE('',*,*,#743,.F.);
#1128=ORIENTED_EDGE('',*,*,#738,.F.);
#1129=EDGE_LOOP('',(#1120,#1121,#1122,#1126,#1127,#1128));
#1130=FACE_OUTER_BOUND('',#1129,.T.);
#1131=ADVANCED_FACE('',(#1130),#1119,.T.);
#1132=CYLINDRICAL_SURFACE('',#4,0.475000000000);
#1133=ORIENTED_EDGE('',*,*,#354,.F.);
#1134=CARTESIAN_POINT('',(-0.456870973367,0.129976589026,0.000000000000));
#1135=LINE('',#1134,#18);
#1136=EDGE_CURVE('',#954,#347,#1135,.T.);
#1137=ORIENTED_EDGE('',*,*,#1136,.F.);
#1138=ORIENTED_EDGE('',*,*,#956,.T.);
#1139=CARTESIAN_POINT('',(-0.460650163700,0.115872458690,0.000000000000));
#1140=LINE('',#1139,#18);
#1141=EDGE_CURVE('',#949,#352,#1140,.T.);
#1142=ORIENTED_EDGE('',*,*,#1141,.T.);
#1143=EDGE_LOOP('',(#1133,#1137,#1138,#1142));
#1144=ORIENTED_EDGE('',*,*,#474,.F.);
#1145=CARTESIAN_POINT('',(0.115872458690,-0.460650163700,0.000000000000));
#1146=LINE('',#1145,#18);
#1147=EDGE_CURVE('',#850,#467,#1146,.T.);
#1148=ORIENTED_EDGE('',*,*,#1147,.F.);
#1149=ORIENTED_EDGE('',*,*,#852,.T.);
#1150=CARTESIAN_POINT('',(0.129976589026,-0.456870973367,0.000000000000));
#1151=LINE('',#1150,#18);
#1152=EDGE_CURVE('',#845,#472,#1151,.T.);
#1153=ORIENTED_EDGE('',*,*,#1152,.T.);
#1154=EDGE_LOOP('',(#1144,#1148,#1149,#1153));
#1155=ORIENTED_EDGE('',*,*,#654,.F.);
#1156=CARTESIAN_POINT('',(-0.115872458690,0.460650163700,0.000000000000));
#1157=LINE('',#1156,#18);
#1158=EDGE_CURVE('',#694,#647,#1157,.T.);
#1159=ORIENTED_EDGE('',*,*,#1158,.F.);
#1160=ORIENTED_EDGE('',*,*,#696,.T.);
#1161=ORIENTED_EDGE('',*,*,#1035,.T.);
#1162=EDGE_LOOP('',(#1155,#1159,#1160,#1161));
#1163=ORIENTED_EDGE('',*,*,#564,.F.);
#1164=ORIENTED_EDGE('',*,*,#1065,.F.);
#1165=ORIENTED_EDGE('',*,*,#774,.T.);
#1166=ORIENTED_EDGE('',*,*,#1005,.T.);
#1167=EDGE_LOOP('',(#1163,#1164,#1165,#1166));
#1168=ORIENTED_EDGE('',*,*,#534,.F.);
#1169=ORIENTED_EDGE('',*,*,#1080,.F.);
#1170=ORIENTED_EDGE('',*,*,#800,.T.);
#1171=CARTESIAN_POINT('',(0.460650163700,-0.115872458690,0.000000000000));
#1172=LINE('',#1171,#18);
#1173=EDGE_CURVE('',#793,#532,#1172,.T.);
#1174=ORIENTED_EDGE('',*,*,#1173,.T.);
#1175=EDGE_LOOP('',(#1168,#1169,#1170,#1174));
#1176=ORIENTED_EDGE('',*,*,#414,.F.);
#1177=ORIENTED_EDGE('',*,*,#1110,.F.);
#1178=ORIENTED_EDGE('',*,*,#904,.T.);
#1179=ORIENTED_EDGE('',*,*,#1020,.T.);
#1180=EDGE_LOOP('',(#1176,#1177,#1178,#1179));
#1181=ORIENTED_EDGE('',*,*,#504,.F.);
#1182=CARTESIAN_POINT('',(0.330673574674,-0.340998514677,0.000000000000));
#1183=LINE('',#1182,#18);
#1184=EDGE_CURVE('',#824,#497,#1183,.T.);
#1185=ORIENTED_EDGE('',*,*,#1184,.F.);
#1186=ORIENTED_EDGE('',*,*,#826,.T.);
#1187=CARTESIAN_POINT('',(0.340998514677,-0.330673574674,0.000000000000));
#1188=LINE('',#1187,#18);
#1189=EDGE_CURVE('',#819,#502,#1188,.T.);
#1190=ORIENTED_EDGE('',*,*,#1189,.T.);
#1191=EDGE_LOOP('',(#1181,#1185,#1186,#1190));
#1192=ORIENTED_EDGE('',*,*,#624,.F.);
#1193=CARTESIAN_POINT('',(0.129976589026,0.456870973367,0.000000000000));
#1194=LINE('',#1193,#18);
#1195=EDGE_CURVE('',#720,#617,#1194,.T.);
#1196=ORIENTED_EDGE('',*,*,#1195,.F.);
#1197=ORIENTED_EDGE('',*,*,#722,.T.);
#1198=CARTESIAN_POINT('',(0.115872458690,0.460650163700,0.000000000000));
#1199=LINE('',#1198,#18);
#1200=EDGE_CURVE('',#715,#622,#1199,.T.);
#1201=ORIENTED_EDGE('',*,*,#1200,.T.);
#1202=EDGE_LOOP('',(#1192,#1196,#1197,#1201));
#1203=ORIENTED_EDGE('',*,*,#384,.F.);
#1204=CARTESIAN_POINT('',(-0.460650163700,-0.115872458690,0.000000000000));
#1205=LINE('',#1204,#18);
#1206=EDGE_CURVE('',#928,#377,#1205,.T.);
#1207=ORIENTED_EDGE('',*,*,#1206,.F.);
#1208=ORIENTED_EDGE('',*,*,#930,.T.);
#1209=ORIENTED_EDGE('',*,*,#1095,.T.);
#1210=EDGE_LOOP('',(#1203,#1207,#1208,#1209));
#1211=ORIENTED_EDGE('',*,*,#324,.F.);
#1212=ORIENTED_EDGE('',*,*,#1050,.F.);
#1213=ORIENTED_EDGE('',*,*,#982,.T.);
#1214=CARTESIAN_POINT('',(-0.340998514677,0.330673574674,0.000000000000));
#1215=LINE('',#1214,#18);
#1216=EDGE_CURVE('',#975,#322,#1215,.T.);
#1217=ORIENTED_EDGE('',*,*,#1216,.T.);
#1218=EDGE_LOOP('',(#1211,#1212,#1213,#1217));
#1219=ORIENTED_EDGE('',*,*,#594,.F.);
#1220=CARTESIAN_POINT('',(0.340998514677,0.330673574674,0.000000000000));
#1221=LINE('',#1220,#18);
#1222=EDGE_CURVE('',#746,#587,#1221,.T.);
#1223=ORIENTED_EDGE('',*,*,#1222,.F.);
#1224=ORIENTED_EDGE('',*,*,#748,.T.);
#1225=ORIENTED_EDGE('',*,*,#1125,.T.);
#1226=EDGE_LOOP('',(#1219,#1223,#1224,#1225));
#1227=ORIENTED_EDGE('',*,*,#444,.F.);
#1228=CARTESIAN_POINT('',(-0.129976589026,-0.456870973367,0.000000000000));
#1229=LINE('',#1228,#18);
#1230=EDGE_CURVE('',#876,#437,#1229,.T.);
#1231=ORIENTED_EDGE('',*,*,#1230,.F.);
#1232=ORIENTED_EDGE('',*,*,#878,.T.);
#1233=CARTESIAN_POINT('',(-0.115872458690,-0.460650163700,0.000000000000));
#1234=LINE('',#1233,#18);
#1235=EDGE_CURVE('',#871,#442,#1234,.T.);
#1236=ORIENTED_EDGE('',*,*,#1235,.T.);
#1237=EDGE_LOOP('',(#1227,#1231,#1232,#1236));
#1238=FACE_BOUND('',#1143,.T.);
#1239=FACE_BOUND('',#1154,.T.);
#1240=FACE_BOUND('',#1162,.T.);
#1241=FACE_BOUND('',#1167,.T.);
#1242=FACE_BOUND('',#1175,.T.);
#1243=FACE_BOUND('',#1180,.T.);
#1244=FACE_BOUND('',#1191,.T.);
#1245=FACE_BOUND('',#1202,.T.);
#1246=FACE_BOUND('',#1210,.T.);
#1247=FACE_BOUND('',#1218,.T.);
#1248=FACE_BOUND('',#1226,.T.);
#1249=FACE_BOUND('',#1237,.T.);
#1250=ADVANCED_FACE('',(#1238,#1239,#1240,#1241,#1242,#1243,#1244,#1245,#1246,#1247,#1248,#1249),#1132,.T.);
#1251=CARTESIAN_POINT('',(-0.203553735513,-0.171204737685,0.000000000000));
#1252=AXIS2_PLACEMENT_3D('',#1251,#611,#521);
#1253=PLANE('',#1252);
#1254=ORIENTED_EDGE('',*,*,#169,.F.);
#1255=ORIENTED_EDGE('',*,*,#965,.F.);
#1256=ORIENTED_EDGE('',*,*,#962,.F.);
#1257=ORIENTED_EDGE('',*,*,#1136,.T.);
#1258=ORIENTED_EDGE('',*,*,#349,.F.);
#1259=ORIENTED_EDGE('',*,*,#344,.F.);
#1260=EDGE_LOOP('',(#1254,#1255,#1256,#1257,#1258,#1259));
#1261=FACE_OUTER_BOUND('',#1260,.T.);
#1262=ADVANCED_FACE('',(#1261),#1253,.T.);
#1263=CARTESIAN_POINT('',(0.250044519840,0.090680337148,0.000000000000));
#1264=AXIS2_PLACEMENT_3D('',#1263,#539,#449);
#1265=PLANE('',#1264);
#1266=ORIENTED_EDGE('',*,*,#275,.T.);
#1267=ORIENTED_EDGE('',*,*,#635,.F.);
#1268=ORIENTED_EDGE('',*,*,#632,.F.);
#1269=ORIENTED_EDGE('',*,*,#1200,.F.);
#1270=ORIENTED_EDGE('',*,*,#717,.F.);
#1271=ORIENTED_EDGE('',*,*,#712,.F.);
#1272=EDGE_LOOP('',(#1266,#1267,#1268,#1269,#1270,#1271));
#1273=FACE_OUTER_BOUND('',#1272,.T.);
#1274=ADVANCED_FACE('',(#1273),#1265,.T.);
#1275=CARTESIAN_POINT('',(-0.046490784326,-0.261885074832,0.000000000000));
#1276=AXIS2_PLACEMENT_3D('',#1275,#419,#329);
#1277=PLANE('',#1276);
#1278=ORIENTED_EDGE('',*,*,#229,.T.);
#1279=ORIENTED_EDGE('',*,*,#515,.F.);
#1280=ORIENTED_EDGE('',*,*,#512,.F.);
#1281=ORIENTED_EDGE('',*,*,#1189,.F.);
#1282=ORIENTED_EDGE('',*,*,#821,.F.);
#1283=ORIENTED_EDGE('',*,*,#816,.F.);
#1284=EDGE_LOOP('',(#1278,#1279,#1280,#1281,#1282,#1283));
#1285=FACE_OUTER_BOUND('',#1284,.T.);
#1286=ADVANCED_FACE('',(#1285),#1277,.T.);
#1287=CARTESIAN_POINT('',(0.250044519840,-0.090680337148,0.000000000000));
#1288=AXIS2_PLACEMENT_3D('',#1287,#371,#641);
#1289=PLANE('',#1288);
#1290=ORIENTED_EDGE('',*,*,#215,.F.);
#1291=ORIENTED_EDGE('',*,*,#861,.F.);
#1292=ORIENTED_EDGE('',*,*,#858,.F.);
#1293=ORIENTED_EDGE('',*,*,#1147,.T.);
#1294=ORIENTED_EDGE('',*,*,#469,.F.);
#1295=ORIENTED_EDGE('',*,*,#464,.F.);
#1296=EDGE_LOOP('',(#1290,#1291,#1292,#1293,#1294,#1295));
#1297=FACE_OUTER_BOUND('',#1296,.T.);
#1298=ADVANCED_FACE('',(#1297),#1289,.T.);
#1299=CARTESIAN_POINT('',(-0.090680337148,0.250044519840,0.000000000000));
#1300=AXIS2_PLACEMENT_3D('',#1299,#629,#539);
#1301=PLANE('',#1300);
#1302=ORIENTED_EDGE('',*,*,#68,.T.);
#1303=ORIENTED_EDGE('',*,*,#365,.F.);
#1304=ORIENTED_EDGE('',*,*,#362,.F.);
#1305=ORIENTED_EDGE('',*,*,#1141,.F.);
#1306=ORIENTED_EDGE('',*,*,#951,.F.);
#1307=ORIENTED_EDGE('',*,*,#946,.F.);
#1308=EDGE_LOOP('',(#1302,#1303,#1304,#1305,#1306,#1307));
#1309=FACE_OUTER_BOUND('',#1308,.T.);
#1310=ADVANCED_FACE('',(#1309),#1301,.T.);
#1311=CARTESIAN_POINT('',(-0.046490784326,0.261885074832,0.000000000000));
#1312=AXIS2_PLACEMENT_3D('',#1311,#491,#401);
#1313=PLANE('',#1312);
#1314=ORIENTED_EDGE('',*,*,#54,.F.);
#1315=ORIENTED_EDGE('',*,*,#757,.F.);
#1316=ORIENTED_EDGE('',*,*,#754,.F.);
#1317=ORIENTED_EDGE('',*,*,#1222,.T.);
#1318=ORIENTED_EDGE('',*,*,#589,.F.);
#1319=ORIENTED_EDGE('',*,*,#584,.F.);
#1320=EDGE_LOOP('',(#1314,#1315,#1316,#1317,#1318,#1319));
#1321=FACE_OUTER_BOUND('',#1320,.T.);
#1322=ADVANCED_FACE('',(#1321),#1313,.T.);
#1323=CARTESIAN_POINT('',(-0.090680337148,-0.250044519840,0.000000000000));
#1324=AXIS2_PLACEMENT_3D('',#1323,#641,#551);
#1325=PLANE('',#1324);
#1326=ORIENTED_EDGE('',*,*,#77,.F.);
#1327=ORIENTED_EDGE('',*,*,#939,.F.);
#1328=ORIENTED_EDGE('',*,*,#936,.F.);
#1329=ORIENTED_EDGE('',*,*,#1206,.T.);
#1330=ORIENTED_EDGE('',*,*,#379,.F.);
#1331=ORIENTED_EDGE('',*,*,#374,.F.);
#1332=EDGE_LOOP('',(#1326,#1327,#1328,#1329,#1330,#1331));
#1333=FACE_OUTER_BOUND('',#1332,.T.);
#1334=ADVANCED_FACE('',(#1333),#1325,.T.);
#1335=CYLINDRICAL_SURFACE('',#4,0.130000000000);
#1336=ORIENTED_EDGE('',*,*,#678,.F.);
#1337=EDGE_LOOP('',(#1336));
#1338=ORIENTED_EDGE('',*,*,#304,.T.);
#1339=EDGE_LOOP('',(#1338));
#1340=FACE_BOUND('',#1337,.T.);
#1341=FACE_BOUND('',#1339,.T.);
#1342=ADVANCED_FACE('',(#1340,#1341),#1335,.F.);
#1343=CARTESIAN_POINT('',(-0.171204737685,0.203553735513,0.000000000000));
#1344=AXIS2_PLACEMENT_3D('',#1343,#521,#431);
#1345=PLANE('',#1344);
#1346=ORIENTED_EDGE('',*,*,#100,.F.);
#1347=ORIENTED_EDGE('',*,*,#731,.F.);
#1348=ORIENTED_EDGE('',*,*,#728,.F.);
#1349=ORIENTED_EDGE('',*,*,#1195,.T.);
#1350=ORIENTED_EDGE('',*,*,#619,.F.);
#1351=ORIENTED_EDGE('',*,*,#614,.F.);
#1352=EDGE_LOOP('',(#1346,#1347,#1348,#1349,#1350,#1351));
#1353=FACE_OUTER_BOUND('',#1352,.T.);
#1354=ADVANCED_FACE('',(#1353),#1345,.T.);
#1355=CARTESIAN_POINT('',(0.046490784326,0.261885074832,0.000000000000));
#1356=AXIS2_PLACEMENT_3D('',#1355,#599,#509);
#1357=PLANE('',#1356);
#1358=ORIENTED_EDGE('',*,*,#160,.T.);
#1359=ORIENTED_EDGE('',*,*,#335,.F.);
#1360=ORIENTED_EDGE('',*,*,#332,.F.);
#1361=ORIENTED_EDGE('',*,*,#1216,.F.);
#1362=ORIENTED_EDGE('',*,*,#977,.F.);
#1363=ORIENTED_EDGE('',*,*,#972,.F.);
#1364=EDGE_LOOP('',(#1358,#1359,#1360,#1361,#1362,#1363));
#1365=FACE_OUTER_BOUND('',#1364,.T.);
#1366=ADVANCED_FACE('',(#1365),#1357,.T.);
#1367=CARTESIAN_POINT('',(-0.250044519840,0.090680337148,0.000000000000));
#1368=AXIS2_PLACEMENT_3D('',#1367,#551,#461);
#1369=PLANE('',#1368);
#1370=ORIENTED_EDGE('',*,*,#284,.F.);
#1371=ORIENTED_EDGE('',*,*,#705,.F.);
#1372=ORIENTED_EDGE('',*,*,#702,.F.);
#1373=ORIENTED_EDGE('',*,*,#1158,.T.);
#1374=ORIENTED_EDGE('',*,*,#649,.F.);
#1375=ORIENTED_EDGE('',*,*,#644,.F.);
#1376=EDGE_LOOP('',(#1370,#1371,#1372,#1373,#1374,#1375));
#1377=FACE_OUTER_BOUND('',#1376,.T.);
#1378=ADVANCED_FACE('',(#1377),#1369,.T.);
#1379=CARTESIAN_POINT('',(-0.250044519840,-0.090680337148,0.000000000000));
#1380=AXIS2_PLACEMENT_3D('',#1379,#359,#629);
#1381=PLANE('',#1380);
#1382=ORIENTED_EDGE('',*,*,#206,.T.);
#1383=ORIENTED_EDGE('',*,*,#455,.F.);
#1384=ORIENTED_EDGE('',*,*,#452,.F.);
#1385=ORIENTED_EDGE('',*,*,#1235,.F.);
#1386=ORIENTED_EDGE('',*,*,#873,.F.);
#1387=ORIENTED_EDGE('',*,*,#868,.F.);
#1388=EDGE_LOOP('',(#1382,#1383,#1384,#1385,#1386,#1387));
#1389=FACE_OUTER_BOUND('',#1388,.T.);
#1390=ADVANCED_FACE('',(#1389),#1381,.T.);
#1391=CARTESIAN_POINT('',(0.090680337148,-0.250044519840,0.000000000000));
#1392=AXIS2_PLACEMENT_3D('',#1391,#449,#359);
#1393=PLANE('',#1392);
#1394=ORIENTED_EDGE('',*,*,#252,.T.);
#1395=ORIENTED_EDGE('',*,*,#545,.F.);
#1396=ORIENTED_EDGE('',*,*,#542,.F.);
#1397=ORIENTED_EDGE('',*,*,#1173,.F.);
#1398=ORIENTED_EDGE('',*,*,#795,.F.);
#1399=ORIENTED_EDGE('',*,*,#790,.F.);
#1400=EDGE_LOOP('',(#1394,#1395,#1396,#1397,#1398,#1399));
#1401=FACE_OUTER_BOUND('',#1400,.T.);
#1402=ADVANCED_FACE('',(#1401),#1393,.T.);
#1403=CARTESIAN_POINT('',(0.171204737685,-0.203553735513,0.000000000000));
#1404=AXIS2_PLACEMENT_3D('',#1403,#341,#611);
#1405=PLANE('',#1404);
#1406=ORIENTED_EDGE('',*,*,#31,.F.);
#1407=ORIENTED_EDGE('',*,*,#887,.F.);
#1408=ORIENTED_EDGE('',*,*,#884,.F.);
#1409=ORIENTED_EDGE('',*,*,#1230,.T.);
#1410=ORIENTED_EDGE('',*,*,#439,.F.);
#1411=ORIENTED_EDGE('',*,*,#434,.F.);
#1412=EDGE_LOOP('',(#1406,#1407,#1408,#1409,#1410,#1411));
#1413=FACE_OUTER_BOUND('',#1412,.T.);
#1414=ADVANCED_FACE('',(#1413),#1405,.T.);
#1415=CARTESIAN_POINT('',(-0.171204737685,-0.203553735513,0.000000000000));
#1416=AXIS2_PLACEMENT_3D('',#1415,#389,#659);
#1417=PLANE('',#1416);
#1418=ORIENTED_EDGE('',*,*,#114,.T.);
#1419=ORIENTED_EDGE('',*,*,#485,.F.);
#1420=ORIENTED_EDGE('',*,*,#482,.F.);
#1421=ORIENTED_EDGE('',*,*,#1152,.F.);
#1422=ORIENTED_EDGE('',*,*,#847,.F.);
#1423=ORIENTED_EDGE('',*,*,#842,.F.);
#1424=EDGE_LOOP('',(#1418,#1419,#1420,#1421,#1422,#1423));
#1425=FACE_OUTER_BOUND('',#1424,.T.);
#1426=ADVANCED_FACE('',(#1425),#1417,.T.);
#1427=CARTESIAN_POINT('',(0.261885074832,0.046490784326,0.000000000000));
#1428=AXIS2_PLACEMENT_3D('',#1427,#401,#311);
#1429=PLANE('',#1428);
#1430=ORIENTED_EDGE('',*,*,#123,.F.);
#1431=ORIENTED_EDGE('',*,*,#835,.F.);
#1432=ORIENTED_EDGE('',*,*,#832,.F.);
#1433=ORIENTED_EDGE('',*,*,#1184,.T.);
#1434=ORIENTED_EDGE('',*,*,#499,.F.);
#1435=ORIENTED_EDGE('',*,*,#494,.F.);
#1436=EDGE_LOOP('',(#1430,#1431,#1432,#1433,#1434,#1435));
#1437=FACE_OUTER_BOUND('',#1436,.T.);
#1438=ADVANCED_FACE('',(#1437),#1429,.T.);
#1439=CLOSED_SHELL('',(#299,#670,#996,#1011,#1026,#1041,#1056,#1071,#1086,#1101,#1116,#1131,#1250,#1262,#1274,#1286,#1298,#1310,#1322,#1334,#1342,#1354,#1366,#1378,#1390,#1402,#1414,#1426,#1438));
#1440=MANIFOLD_SOLID_BREP('dial_side',#1439);
#1441=APPLICATION_CONTEXT('core data for automotive mechanical design processes');
#1442=APPLICATION_PROTOCOL_DEFINITION('international standard','automotive_design',2000,#1441);
#1443=PRODUCT_CONTEXT('',#1441,'mechanical');
#1444=PRODUCT('dial_side','dial_side','',(#1443));
#1445=PRODUCT_DEFINITION_FORMATION('','',#1444);
#1446=PRODUCT_DEFINITION_CONTEXT('part definition',#1441,'design');
#1447=PRODUCT_DEFINITION('','',#1445,#1446);
#1448=PRODUCT_DEFINITION_SHAPE('','',#1447);
#1449=(LENGTH_UNIT()NAMED_UNIT(*)SI_UNIT(.MILLI.,.METRE.));
#1450=(NAMED_UNIT(*)PLANE_ANGLE_UNIT()SI_UNIT($,.RADIAN.));
#1451=(NAMED_UNIT(*)SI_UNIT($,.STERADIAN.)SOLID_ANGLE_UNIT());
#1452=UNCERTAINTY_MEASURE_WITH_UNIT(LENGTH_MEASURE(1.E-07),#1449,'distance_accuracy_value','');
#1453=(GEOMETRIC_REPRESENTATION_CONTEXT(3)GLOBAL_UNCERTAINTY_ASSIGNED_CONTEXT((#1452))GLOBAL_UNIT_ASSIGNED_CONTEXT((#1449,#1450,#1451))REPRESENTATION_CONTEXT('',''));
#1454=ADVANCED_BREP_SHAPE_REPRESENTATION('',(#1440),#1453);
#1455=SHAPE_DEFINITION_REPRESENTATION(#1448,#1454);
ENDSEC;
END-ISO-10303-21;
