ISO-10303-21;
HEADER;
FILE_DESCRIPTION(('7 face(s), 18 edge(s), 14 vertex/vertices confirmed by cade at n=128, half-extent 3.000000000000'),'2;1');
FILE_NAME('hand_setting.step','2026-08-23T00:00:00',('cade'),('cade'),'cade 0.1.0','cade','');
FILE_SCHEMA(('AUTOMOTIVE_DESIGN { 1 0 10303 214 1 1 1 1 }'));
ENDSEC;
DATA;
#1=CARTESIAN_POINT('',(-1.350000000000,0.000000000000,0.000000000000));
#2=DIRECTION('',(0.000000000000,0.000000000000,1.000000000000));
#3=DIRECTION('',(0.000000000000,1.000000000000,0.000000000000));
#4=AXIS2_PLACEMENT_3D('',#1,#2,#3);
#5=CYLINDRICAL_SURFACE('',#4,0.240000000000);
#6=CARTESIAN_POINT('',(-1.350000000000,0.240000000000,-0.110000000000));
#7=VERTEX_POINT('',#6);
#8=CARTESIAN_POINT('',(-1.350000000000,0.000000000000,-0.110000000000));
#9=AXIS2_PLACEMENT_3D('',#8,#2,#3);
#10=CIRCLE('',#9,0.240000000000);
#11=EDGE_CURVE('',#7,#7,#10,.T.);
#12=ORIENTED_EDGE('',*,*,#11,.F.);
#13=EDGE_LOOP('',(#12));
#14=CARTESIAN_POINT('',(-1.350000000000,0.240000000000,0.110000000000));
#15=VERTEX_POINT('',#14);
#16=CARTESIAN_POINT('',(-1.350000000000,0.000000000000,0.110000000000));
#17=AXIS2_PLACEMENT_3D('',#16,#2,#3);
#18=CIRCLE('',#17,0.240000000000);
#19=EDGE_CURVE('',#15,#15,#18,.T.);
#20=ORIENTED_EDGE('',*,*,#19,.T.);
#21=EDGE_LOOP('',(#20));
#22=FACE_BOUND('',#13,.T.);
#23=FACE_BOUND('',#21,.T.);
#24=ADVANCED_FACE('',(#22,#23),#5,.F.);
#25=CYLINDRICAL_SURFACE('',#4,0.720000000000);
#26=CARTESIAN_POINT('',(-2.013324958071,0.280000000000,0.110000000000));
#27=VERTEX_POINT('',#26);
#28=CARTESIAN_POINT('',(-2.013324958071,-0.280000000000,0.110000000000));
#29=VERTEX_POINT('',#28);
#30=CIRCLE('',#17,0.720000000000);
#31=EDGE_CURVE('',#27,#29,#30,.T.);
#32=ORIENTED_EDGE('',*,*,#31,.F.);
#33=CARTESIAN_POINT('',(-0.686675041929,0.280000000000,0.110000000000));
#34=VERTEX_POINT('',#33);
#35=CIRCLE('',#17,0.720000000000);
#36=EDGE_CURVE('',#34,#27,#35,.T.);
#37=ORIENTED_EDGE('',*,*,#36,.F.);
#38=CARTESIAN_POINT('',(-0.686675041929,0.280000000000,-0.110000000000));
#39=VERTEX_POINT('',#38);
#40=CARTESIAN_POINT('',(-0.686675041929,0.280000000000,0.000000000000));
#41=VECTOR('',#2,1.0);
#42=LINE('',#40,#41);
#43=EDGE_CURVE('',#39,#34,#42,.T.);
#44=ORIENTED_EDGE('',*,*,#43,.F.);
#45=CARTESIAN_POINT('',(-2.013324958071,0.280000000000,-0.110000000000));
#46=VERTEX_POINT('',#45);
#47=CIRCLE('',#9,0.720000000000);
#48=EDGE_CURVE('',#39,#46,#47,.T.);
#49=ORIENTED_EDGE('',*,*,#48,.T.);
#50=CARTESIAN_POINT('',(-2.013324958071,-0.280000000000,-0.110000000000));
#51=VERTEX_POINT('',#50);
#52=CIRCLE('',#9,0.720000000000);
#53=EDGE_CURVE('',#46,#51,#52,.T.);
#54=ORIENTED_EDGE('',*,*,#53,.T.);
#55=CARTESIAN_POINT('',(-0.686675041929,-0.280000000000,-0.110000000000));
#56=VERTEX_POINT('',#55);
#57=CIRCLE('',#9,0.720000000000);
#58=EDGE_CURVE('',#51,#56,#57,.T.);
#59=ORIENTED_EDGE('',*,*,#58,.T.);
#60=CARTESIAN_POINT('',(-0.686675041929,-0.280000000000,0.110000000000));
#61=VERTEX_POINT('',#60);
#62=CARTESIAN_POINT('',(-0.686675041929,-0.280000000000,0.000000000000));
#63=LINE('',#62,#41);
#64=EDGE_CURVE('',#56,#61,#63,.T.);
#65=ORIENTED_EDGE('',*,*,#64,.T.);
#66=CIRCLE('',#17,0.720000000000);
#67=EDGE_CURVE('',#29,#61,#66,.T.);
#68=ORIENTED_EDGE('',*,*,#67,.F.);
#69=EDGE_LOOP('',(#32,#37,#44,#49,#54,#59,#65,#68));
#70=FACE_BOUND('',#69,.T.);
#71=ADVANCED_FACE('',(#70),#25,.T.);
#72=CARTESIAN_POINT('',(0.000000000000,0.000000000000,0.110000000000));
#73=AXIS2_PLACEMENT_3D('',#72,#2,#3);
#74=PLANE('',#73);
#75=ORIENTED_EDGE('',*,*,#19,.F.);
#76=EDGE_LOOP('',(#75));
#77=ORIENTED_EDGE('',*,*,#31,.T.);
#78=ORIENTED_EDGE('',*,*,#67,.T.);
#79=CARTESIAN_POINT('',(1.975000000000,-0.280000000000,0.110000000000));
#80=VERTEX_POINT('',#79);
#81=CARTESIAN_POINT('',(0.000000000000,-0.280000000000,0.110000000000));
#82=DIRECTION('',(1.000000000000,0.000000000000,0.000000000000));
#83=VECTOR('',#82,1.0);
#84=LINE('',#81,#83);
#85=EDGE_CURVE('',#61,#80,#84,.T.);
#86=ORIENTED_EDGE('',*,*,#85,.T.);
#87=CARTESIAN_POINT('',(1.975000000000,0.280000000000,0.110000000000));
#88=VERTEX_POINT('',#87);
#89=CARTESIAN_POINT('',(1.975000000000,0.000000000000,0.110000000000));
#90=VECTOR('',#3,1.0);
#91=LINE('',#89,#90);
#92=EDGE_CURVE('',#80,#88,#91,.T.);
#93=ORIENTED_EDGE('',*,*,#92,.T.);
#94=CARTESIAN_POINT('',(0.000000000000,0.280000000000,0.110000000000));
#95=DIRECTION('',(-1.000000000000,0.000000000000,0.000000000000));
#96=VECTOR('',#95,1.0);
#97=LINE('',#94,#96);
#98=EDGE_CURVE('',#88,#34,#97,.T.);
#99=ORIENTED_EDGE('',*,*,#98,.T.);
#100=ORIENTED_EDGE('',*,*,#36,.T.);
#101=EDGE_LOOP('',(#77,#78,#86,#93,#99,#100));
#102=FACE_BOUND('',#76,.T.);
#103=FACE_OUTER_BOUND('',#101,.T.);
#104=ADVANCED_FACE('',(#102,#103),#74,.T.);
#105=CARTESIAN_POINT('',(0.000000000000,0.000000000000,-0.110000000000));
#106=DIRECTION('',(0.000000000000,0.000000000000,-1.000000000000));
#107=DIRECTION('',(0.000000000000,-1.000000000000,0.000000000000));
#108=AXIS2_PLACEMENT_3D('',#105,#106,#107);
#109=PLANE('',#108);
#110=ORIENTED_EDGE('',*,*,#11,.T.);
#111=EDGE_LOOP('',(#110));
#112=ORIENTED_EDGE('',*,*,#53,.F.);
#113=ORIENTED_EDGE('',*,*,#48,.F.);
#114=CARTESIAN_POINT('',(1.975000000000,0.280000000000,-0.110000000000));
#115=VERTEX_POINT('',#114);
#116=CARTESIAN_POINT('',(0.000000000000,0.280000000000,-0.110000000000));
#117=LINE('',#116,#83);
#118=EDGE_CURVE('',#39,#115,#117,.T.);
#119=ORIENTED_EDGE('',*,*,#118,.T.);
#120=CARTESIAN_POINT('',(1.975000000000,-0.280000000000,-0.110000000000));
#121=VERTEX_POINT('',#120);
#122=CARTESIAN_POINT('',(1.975000000000,0.000000000000,-0.110000000000));
#123=VECTOR('',#107,1.0);
#124=LINE('',#122,#123);
#125=EDGE_CURVE('',#115,#121,#124,.T.);
#126=ORIENTED_EDGE('',*,*,#125,.T.);
#127=CARTESIAN_POINT('',(0.000000000000,-0.280000000000,-0.110000000000));
#128=LINE('',#127,#96);
#129=EDGE_CURVE('',#121,#56,#128,.T.);
#130=ORIENTED_EDGE('',*,*,#129,.T.);
#131=ORIENTED_EDGE('',*,*,#58,.F.);
#132=EDGE_LOOP('',(#112,#113,#119,#126,#130,#131));
#133=FACE_BOUND('',#111,.T.);
#134=FACE_OUTER_BOUND('',#132,.T.);
#135=ADVANCED_FACE('',(#133,#134),#109,.T.);
#136=CARTESIAN_POINT('',(1.975000000000,0.000000000000,0.000000000000));
#137=AXIS2_PLACEMENT_3D('',#136,#82,#2);
#138=PLANE('',#137);
#139=ORIENTED_EDGE('',*,*,#92,.F.);
#140=CARTESIAN_POINT('',(1.975000000000,-0.280000000000,0.000000000000));
#141=VECTOR('',#106,1.0);
#142=LINE('',#140,#141);
#143=EDGE_CURVE('',#80,#121,#142,.T.);
#144=ORIENTED_EDGE('',*,*,#143,.T.);
#145=ORIENTED_EDGE('',*,*,#125,.F.);
#146=CARTESIAN_POINT('',(1.975000000000,0.280000000000,0.000000000000));
#147=LINE('',#146,#41);
#148=EDGE_CURVE('',#115,#88,#147,.T.);
#149=ORIENTED_EDGE('',*,*,#148,.T.);
#150=EDGE_LOOP('',(#139,#144,#145,#149));
#151=FACE_OUTER_BOUND('',#150,.T.);
#152=ADVANCED_FACE('',(#151),#138,.T.);
#153=CARTESIAN_POINT('',(0.000000000000,0.280000000000,0.000000000000));
#154=AXIS2_PLACEMENT_3D('',#153,#3,#106);
#155=PLANE('',#154);
#156=ORIENTED_EDGE('',*,*,#43,.T.);
#157=ORIENTED_EDGE('',*,*,#98,.F.);
#158=ORIENTED_EDGE('',*,*,#148,.F.);
#159=ORIENTED_EDGE('',*,*,#118,.F.);
#160=EDGE_LOOP('',(#156,#157,#158,#159));
#161=FACE_OUTER_BOUND('',#160,.T.);
#162=ADVANCED_FACE('',(#161),#155,.T.);
#163=CARTESIAN_POINT('',(0.000000000000,-0.280000000000,0.000000000000));
#164=AXIS2_PLACEMENT_3D('',#163,#107,#2);
#165=PLANE('',#164);
#166=ORIENTED_EDGE('',*,*,#64,.F.);
#167=ORIENTED_EDGE('',*,*,#129,.F.);
#168=ORIENTED_EDGE('',*,*,#143,.F.);
#169=ORIENTED_EDGE('',*,*,#85,.F.);
#170=EDGE_LOOP('',(#166,#167,#168,#169));
#171=FACE_OUTER_BOUND('',#170,.T.);
#172=ADVANCED_FACE('',(#171),#165,.T.);
#173=CLOSED_SHELL('',(#24,#71,#104,#135,#152,#162,#172));
#174=MANIFOLD_SOLID_BREP('hand_setting',#173);
#175=APPLICATION_CONTEXT('core data for automotive mechanical design processes');
#176=APPLICATION_PROTOCOL_DEFINITION('international standard','automotive_design',2000,#175);
#177=PRODUCT_CONTEXT('',#175,'mechanical');
#178=PRODUCT('hand_setting','hand_setting','',(#177));
#179=PRODUCT_DEFINITION_FORMATION('','',#178);
#180=PRODUCT_DEFINITION_CONTEXT('part definition',#175,'design');
#181=PRODUCT_DEFINITION('','',#179,#180);
#182=PRODUCT_DEFINITION_SHAPE('','',#181);
#183=(LENGTH_UNIT()NAMED_UNIT(*)SI_UNIT(.MILLI.,.METRE.));
#184=(NAMED_UNIT(*)PLANE_ANGLE_UNIT()SI_UNIT($,.RADIAN.));
#185=(NAMED_UNIT(*)SI_UNIT($,.STERADIAN.)SOLID_ANGLE_UNIT());
#186=UNCERTAINTY_MEASURE_WITH_UNIT(LENGTH_MEASURE(1.E-07),#183,'distance_accuracy_value','');
#187=(GEOMETRIC_REPRESENTATION_CONTEXT(3)GLOBAL_UNCERTAINTY_ASSIGNED_CONTEXT((#186))GLOBAL_UNIT_ASSIGNED_CONTEXT((#183,#184,#185))REPRESENTATION_CONTEXT('',''));
#188=ADVANCED_BREP_SHAPE_REPRESENTATION('',(#174),#187);
#189=SHAPE_DEFINITION_REPRESENTATION(#182,#188);
ENDSEC;
END-ISO-10303-21;
