ISO-10303-21;
HEADER;
FILE_DESCRIPTION(('7 face(s), 24 edge(s), 20 vertex/vertices confirmed by cade at n=192, half-extent 5.000000000000'),'2;1');
FILE_NAME('case.step','2026-08-23T00:00:00',('cade'),('cade'),'cade 0.1.0','cade','');
FILE_SCHEMA(('AUTOMOTIVE_DESIGN { 1 0 10303 214 1 1 1 1 }'));
ENDSEC;
DATA;
#1=CARTESIAN_POINT('',(0.000000000000,0.000000000000,0.000000000000));
#2=DIRECTION('',(0.000000000000,0.000000000000,1.000000000000));
#3=DIRECTION('',(0.000000000000,1.000000000000,0.000000000000));
#4=AXIS2_PLACEMENT_3D('',#1,#2,#3);
#5=CYLINDRICAL_SURFACE('',#4,0.950000000000);
#6=CARTESIAN_POINT('',(-0.400000000000,0.861684396981,0.030000000000));
#7=VERTEX_POINT('',#6);
#8=CARTESIAN_POINT('',(-0.400000000000,-0.861684396981,0.030000000000));
#9=VERTEX_POINT('',#8);
#10=CARTESIAN_POINT('',(0.000000000000,0.000000000000,0.030000000000));
#11=AXIS2_PLACEMENT_3D('',#10,#2,#3);
#12=CIRCLE('',#11,0.950000000000);
#13=EDGE_CURVE('',#7,#9,#12,.T.);
#14=ORIENTED_EDGE('',*,*,#13,.F.);
#15=CARTESIAN_POINT('',(-0.400000000000,0.861684396981,-0.030000000000));
#16=VERTEX_POINT('',#15);
#17=CARTESIAN_POINT('',(-0.400000000000,0.861684396981,0.000000000000));
#18=VECTOR('',#2,1.0);
#19=LINE('',#17,#18);
#20=EDGE_CURVE('',#16,#7,#19,.T.);
#21=ORIENTED_EDGE('',*,*,#20,.F.);
#22=CARTESIAN_POINT('',(-0.400000000000,-0.861684396981,-0.030000000000));
#23=VERTEX_POINT('',#22);
#24=CARTESIAN_POINT('',(0.000000000000,0.000000000000,-0.030000000000));
#25=AXIS2_PLACEMENT_3D('',#24,#2,#3);
#26=CIRCLE('',#25,0.950000000000);
#27=EDGE_CURVE('',#16,#23,#26,.T.);
#28=ORIENTED_EDGE('',*,*,#27,.T.);
#29=CARTESIAN_POINT('',(0.400000000000,-0.861684396981,-0.030000000000));
#30=VERTEX_POINT('',#29);
#31=CIRCLE('',#25,0.950000000000);
#32=EDGE_CURVE('',#23,#30,#31,.T.);
#33=ORIENTED_EDGE('',*,*,#32,.T.);
#34=CARTESIAN_POINT('',(0.400000000000,0.861684396981,-0.030000000000));
#35=VERTEX_POINT('',#34);
#36=CIRCLE('',#25,0.950000000000);
#37=EDGE_CURVE('',#30,#35,#36,.T.);
#38=ORIENTED_EDGE('',*,*,#37,.T.);
#39=CARTESIAN_POINT('',(0.400000000000,0.861684396981,0.030000000000));
#40=VERTEX_POINT('',#39);
#41=CARTESIAN_POINT('',(0.400000000000,0.861684396981,0.000000000000));
#42=LINE('',#41,#18);
#43=EDGE_CURVE('',#35,#40,#42,.T.);
#44=ORIENTED_EDGE('',*,*,#43,.T.);
#45=CARTESIAN_POINT('',(0.400000000000,-0.861684396981,0.030000000000));
#46=VERTEX_POINT('',#45);
#47=CIRCLE('',#11,0.950000000000);
#48=EDGE_CURVE('',#46,#40,#47,.T.);
#49=ORIENTED_EDGE('',*,*,#48,.F.);
#50=CIRCLE('',#11,0.950000000000);
#51=EDGE_CURVE('',#9,#46,#50,.T.);
#52=ORIENTED_EDGE('',*,*,#51,.F.);
#53=EDGE_LOOP('',(#14,#21,#28,#33,#38,#44,#49,#52));
#54=FACE_BOUND('',#53,.T.);
#55=ADVANCED_FACE('',(#54),#5,.T.);
#56=PLANE('',#11);
#57=CARTESIAN_POINT('',(-0.400000000000,0.636791959748,0.030000000000));
#58=VERTEX_POINT('',#57);
#59=CARTESIAN_POINT('',(-0.400000000000,-0.636791959748,0.030000000000));
#60=VERTEX_POINT('',#59);
#61=CIRCLE('',#11,0.752000000000);
#62=EDGE_CURVE('',#58,#60,#61,.T.);
#63=ORIENTED_EDGE('',*,*,#62,.F.);
#64=CARTESIAN_POINT('',(0.400000000000,0.636791959748,0.030000000000));
#65=VERTEX_POINT('',#64);
#66=CIRCLE('',#11,0.752000000000);
#67=EDGE_CURVE('',#65,#58,#66,.T.);
#68=ORIENTED_EDGE('',*,*,#67,.F.);
#69=CARTESIAN_POINT('',(0.400000000000,-0.636791959748,0.030000000000));
#70=VERTEX_POINT('',#69);
#71=CIRCLE('',#11,0.752000000000);
#72=EDGE_CURVE('',#70,#65,#71,.T.);
#73=ORIENTED_EDGE('',*,*,#72,.F.);
#74=CIRCLE('',#11,0.752000000000);
#75=EDGE_CURVE('',#60,#70,#74,.T.);
#76=ORIENTED_EDGE('',*,*,#75,.F.);
#77=EDGE_LOOP('',(#63,#68,#73,#76));
#78=ORIENTED_EDGE('',*,*,#13,.T.);
#79=ORIENTED_EDGE('',*,*,#51,.T.);
#80=ORIENTED_EDGE('',*,*,#48,.T.);
#81=CARTESIAN_POINT('',(0.400000000000,6.500000000000,0.030000000000));
#82=VERTEX_POINT('',#81);
#83=CARTESIAN_POINT('',(0.400000000000,0.000000000000,0.030000000000));
#84=VECTOR('',#3,1.0);
#85=LINE('',#83,#84);
#86=EDGE_CURVE('',#40,#82,#85,.T.);
#87=ORIENTED_EDGE('',*,*,#86,.T.);
#88=CARTESIAN_POINT('',(-0.400000000000,6.500000000000,0.030000000000));
#89=VERTEX_POINT('',#88);
#90=CARTESIAN_POINT('',(0.000000000000,6.500000000000,0.030000000000));
#91=DIRECTION('',(-1.000000000000,0.000000000000,0.000000000000));
#92=VECTOR('',#91,1.0);
#93=LINE('',#90,#92);
#94=EDGE_CURVE('',#82,#89,#93,.T.);
#95=ORIENTED_EDGE('',*,*,#94,.T.);
#96=CARTESIAN_POINT('',(-0.400000000000,0.000000000000,0.030000000000));
#97=DIRECTION('',(0.000000000000,-1.000000000000,0.000000000000));
#98=VECTOR('',#97,1.0);
#99=LINE('',#96,#98);
#100=EDGE_CURVE('',#89,#7,#99,.T.);
#101=ORIENTED_EDGE('',*,*,#100,.T.);
#102=EDGE_LOOP('',(#78,#79,#80,#87,#95,#101));
#103=FACE_BOUND('',#77,.T.);
#104=FACE_OUTER_BOUND('',#102,.T.);
#105=ADVANCED_FACE('',(#103,#104),#56,.T.);
#106=DIRECTION('',(0.000000000000,0.000000000000,-1.000000000000));
#107=AXIS2_PLACEMENT_3D('',#24,#106,#97);
#108=PLANE('',#107);
#109=CARTESIAN_POINT('',(-0.400000000000,0.636791959748,-0.030000000000));
#110=VERTEX_POINT('',#109);
#111=CARTESIAN_POINT('',(-0.400000000000,-0.636791959748,-0.030000000000));
#112=VERTEX_POINT('',#111);
#113=CIRCLE('',#25,0.752000000000);
#114=EDGE_CURVE('',#110,#112,#113,.T.);
#115=ORIENTED_EDGE('',*,*,#114,.T.);
#116=CARTESIAN_POINT('',(0.400000000000,-0.636791959748,-0.030000000000));
#117=VERTEX_POINT('',#116);
#118=CIRCLE('',#25,0.752000000000);
#119=EDGE_CURVE('',#112,#117,#118,.T.);
#120=ORIENTED_EDGE('',*,*,#119,.T.);
#121=CARTESIAN_POINT('',(0.400000000000,0.636791959748,-0.030000000000));
#122=VERTEX_POINT('',#121);
#123=CIRCLE('',#25,0.752000000000);
#124=EDGE_CURVE('',#117,#122,#123,.T.);
#125=ORIENTED_EDGE('',*,*,#124,.T.);
#126=CIRCLE('',#25,0.752000000000);
#127=EDGE_CURVE('',#122,#110,#126,.T.);
#128=ORIENTED_EDGE('',*,*,#127,.T.);
#129=EDGE_LOOP('',(#115,#120,#125,#128));
#130=ORIENTED_EDGE('',*,*,#27,.F.);
#131=CARTESIAN_POINT('',(-0.400000000000,6.500000000000,-0.030000000000));
#132=VERTEX_POINT('',#131);
#133=CARTESIAN_POINT('',(-0.400000000000,0.000000000000,-0.030000000000));
#134=LINE('',#133,#84);
#135=EDGE_CURVE('',#16,#132,#134,.T.);
#136=ORIENTED_EDGE('',*,*,#135,.T.);
#137=CARTESIAN_POINT('',(0.400000000000,6.500000000000,-0.030000000000));
#138=VERTEX_POINT('',#137);
#139=CARTESIAN_POINT('',(0.000000000000,6.500000000000,-0.030000000000));
#140=DIRECTION('',(1.000000000000,0.000000000000,0.000000000000));
#141=VECTOR('',#140,1.0);
#142=LINE('',#139,#141);
#143=EDGE_CURVE('',#132,#138,#142,.T.);
#144=ORIENTED_EDGE('',*,*,#143,.T.);
#145=CARTESIAN_POINT('',(0.400000000000,0.000000000000,-0.030000000000));
#146=LINE('',#145,#98);
#147=EDGE_CURVE('',#138,#35,#146,.T.);
#148=ORIENTED_EDGE('',*,*,#147,.T.);
#149=ORIENTED_EDGE('',*,*,#37,.F.);
#150=ORIENTED_EDGE('',*,*,#32,.F.);
#151=EDGE_LOOP('',(#130,#136,#144,#148,#149,#150));
#152=FACE_BOUND('',#129,.T.);
#153=FACE_OUTER_BOUND('',#151,.T.);
#154=ADVANCED_FACE('',(#152,#153),#108,.T.);
#155=CARTESIAN_POINT('',(0.400000000000,0.000000000000,0.000000000000));
#156=AXIS2_PLACEMENT_3D('',#155,#140,#2);
#157=PLANE('',#156);
#158=ORIENTED_EDGE('',*,*,#43,.F.);
#159=ORIENTED_EDGE('',*,*,#147,.F.);
#160=CARTESIAN_POINT('',(0.400000000000,6.500000000000,0.000000000000));
#161=LINE('',#160,#18);
#162=EDGE_CURVE('',#138,#82,#161,.T.);
#163=ORIENTED_EDGE('',*,*,#162,.T.);
#164=ORIENTED_EDGE('',*,*,#86,.F.);
#165=EDGE_LOOP('',(#158,#159,#163,#164));
#166=FACE_OUTER_BOUND('',#165,.T.);
#167=ADVANCED_FACE('',(#166),#157,.T.);
#168=CARTESIAN_POINT('',(-0.400000000000,0.000000000000,0.000000000000));
#169=AXIS2_PLACEMENT_3D('',#168,#91,#106);
#170=PLANE('',#169);
#171=ORIENTED_EDGE('',*,*,#20,.T.);
#172=ORIENTED_EDGE('',*,*,#100,.F.);
#173=CARTESIAN_POINT('',(-0.400000000000,6.500000000000,0.000000000000));
#174=VECTOR('',#106,1.0);
#175=LINE('',#173,#174);
#176=EDGE_CURVE('',#89,#132,#175,.T.);
#177=ORIENTED_EDGE('',*,*,#176,.T.);
#178=ORIENTED_EDGE('',*,*,#135,.F.);
#179=EDGE_LOOP('',(#171,#172,#177,#178));
#180=FACE_OUTER_BOUND('',#179,.T.);
#181=ADVANCED_FACE('',(#180),#170,.T.);
#182=CARTESIAN_POINT('',(0.000000000000,6.500000000000,0.000000000000));
#183=AXIS2_PLACEMENT_3D('',#182,#3,#106);
#184=PLANE('',#183);
#185=ORIENTED_EDGE('',*,*,#94,.F.);
#186=ORIENTED_EDGE('',*,*,#162,.F.);
#187=ORIENTED_EDGE('',*,*,#143,.F.);
#188=ORIENTED_EDGE('',*,*,#176,.F.);
#189=EDGE_LOOP('',(#185,#186,#187,#188));
#190=FACE_OUTER_BOUND('',#189,.T.);
#191=ADVANCED_FACE('',(#190),#184,.T.);
#192=CYLINDRICAL_SURFACE('',#4,0.752000000000);
#193=ORIENTED_EDGE('',*,*,#62,.T.);
#194=ORIENTED_EDGE('',*,*,#75,.T.);
#195=ORIENTED_EDGE('',*,*,#72,.T.);
#196=ORIENTED_EDGE('',*,*,#67,.T.);
#197=EDGE_LOOP('',(#193,#194,#195,#196));
#198=ORIENTED_EDGE('',*,*,#114,.F.);
#199=ORIENTED_EDGE('',*,*,#127,.F.);
#200=ORIENTED_EDGE('',*,*,#124,.F.);
#201=ORIENTED_EDGE('',*,*,#119,.F.);
#202=EDGE_LOOP('',(#198,#199,#200,#201));
#203=FACE_BOUND('',#197,.T.);
#204=FACE_BOUND('',#202,.T.);
#205=ADVANCED_FACE('',(#203,#204),#192,.F.);
#206=CLOSED_SHELL('',(#55,#105,#154,#167,#181,#191,#205));
#207=MANIFOLD_SOLID_BREP('case',#206);
#208=APPLICATION_CONTEXT('core data for automotive mechanical design processes');
#209=APPLICATION_PROTOCOL_DEFINITION('international standard','automotive_design',2000,#208);
#210=PRODUCT_CONTEXT('',#208,'mechanical');
#211=PRODUCT('case','case','',(#210));
#212=PRODUCT_DEFINITION_FORMATION('','',#211);
#213=PRODUCT_DEFINITION_CONTEXT('part definition',#208,'design');
#214=PRODUCT_DEFINITION('','',#212,#213);
#215=PRODUCT_DEFINITION_SHAPE('','',#214);
#216=(LENGTH_UNIT()NAMED_UNIT(*)SI_UNIT(.MILLI.,.METRE.));
#217=(NAMED_UNIT(*)PLANE_ANGLE_UNIT()SI_UNIT($,.RADIAN.));
#218=(NAMED_UNIT(*)SI_UNIT($,.STERADIAN.)SOLID_ANGLE_UNIT());
#219=UNCERTAINTY_MEASURE_WITH_UNIT(LENGTH_MEASURE(1.E-07),#216,'distance_accuracy_value','');
#220=(GEOMETRIC_REPRESENTATION_CONTEXT(3)GLOBAL_UNCERTAINTY_ASSIGNED_CONTEXT((#219))GLOBAL_UNIT_ASSIGNED_CONTEXT((#216,#217,#218))REPRESENTATION_CONTEXT('',''));
#221=ADVANCED_BREP_SHAPE_REPRESENTATION('',(#207),#220);
#222=SHAPE_DEFINITION_REPRESENTATION(#215,#221);
ENDSEC;
END-ISO-10303-21;
